<svg width="38" height="38" viewBox="0 0 38 38" fill="none" xmlns="http://www.w3.org/2000/svg">
<g clip-path="url(#clip0_1852_96348)">
<mask id="mask0_1852_96348" style="mask-type:luminance" maskUnits="userSpaceOnUse" x="0" y="0" width="38" height="38">
<path d="M-1.66103e-06 0L0 38L38 38L38 -1.66103e-06L-1.66103e-06 0Z" fill="white"/>
</mask>
<g mask="url(#mask0_1852_96348)">
<path fill-rule="evenodd" clip-rule="evenodd" d="M-8.30516e-07 19C-1.2892e-06 29.4934 8.50659 38 19 38C29.4934 38 38 29.4934 38 19C38 8.5066 29.4934 -1.2892e-06 19 -8.30516e-07C8.50659 -3.71835e-07 -3.71837e-07 8.5066 -8.30516e-07 19ZM10.8929 27.1081C11.4921 27.707 12.4634 27.7068 13.0624 27.1076L25.0394 15.1277L25.0251 20.5066C25.023 21.3296 25.6895 21.9979 26.5125 21.9979C27.334 21.9979 27.9999 21.332 27.9999 20.5105L27.9999 11.5649C27.9999 10.7006 27.2992 10 26.4349 10L17.4737 10C16.6602 10 15.9994 10.6568 15.9944 11.4702C15.9893 12.2908 16.6531 12.9586 17.4737 12.9586L22.8689 12.9586L10.8924 24.9381C10.2932 25.5375 10.2934 26.5091 10.8929 27.1081Z" fill="black"/>
</g>
</g>
<defs>
<clipPath id="clip0_1852_96348">
<rect width="38" height="38" fill="white" transform="translate(0 38) rotate(-90)"/>
</clipPath>
</defs>
</svg>
