<svg width="38" height="38" viewBox="0 0 38 38" fill="none" xmlns="http://www.w3.org/2000/svg">
<g clip-path="url(#clip0_732_22341)">
<path fill-rule="evenodd" clip-rule="evenodd" d="M19 -1.66103e-06C8.50659 -2.5784e-06 2.5784e-06 8.50659 1.66103e-06 19C7.4367e-07 29.4934 8.50659 38 19 38C29.4934 38 38 29.4934 38 19C38 8.50659 29.4934 -7.4367e-07 19 -1.66103e-06ZM10.8919 10.8929C10.293 11.4921 10.2932 12.4634 10.8924 13.0624L22.8723 25.0394L17.4934 25.0251C16.6704 25.023 16.0021 25.6895 16.0021 26.5125C16.0021 27.334 16.668 27.9999 17.4895 27.9999L26.4351 27.9999C27.2994 27.9999 28 27.2992 28 26.4349L28 17.4737C28 16.6602 27.3432 15.9994 26.5298 15.9944C25.7092 15.9893 25.0414 16.6531 25.0414 17.4737L25.0414 22.8689L13.0619 10.8924C12.4625 10.2932 11.4909 10.2934 10.8919 10.8929Z" fill="black"/>
</g>
<defs>
<clipPath id="clip0_732_22341">
<rect width="38" height="38" fill="white"/>
</clipPath>
</defs>
</svg>
