<svg width="38" height="38" viewBox="0 0 38 38" fill="none" xmlns="http://www.w3.org/2000/svg">
<g clip-path="url(#clip0_732_22323)">
<path fill-rule="evenodd" clip-rule="evenodd" d="M5.56503 5.56497C-1.85493 12.9849 -1.85493 25.0151 5.56503 32.435C12.985 39.855 25.0151 39.855 32.4351 32.435C39.855 25.0151 39.8551 12.9849 32.4351 5.56497C25.0151 -1.85499 12.985 -1.85499 5.56503 5.56497ZM7.53414 19.0007C7.53441 19.8479 8.22136 20.5345 9.06858 20.5344L26.0087 20.5323L22.1951 24.3257C21.6117 24.9062 21.6104 25.85 22.1924 26.432C22.7732 27.0128 23.715 27.0129 24.2958 26.432L30.6213 20.1065C31.2325 19.4953 31.2325 18.5045 30.6213 17.8933L24.2848 11.5567C23.7096 10.9815 22.7778 10.9787 22.1991 11.5503C21.6153 12.127 21.6125 13.0686 22.1927 13.6488L26.0077 17.4638L9.0682 17.4659C8.22075 17.466 7.53388 18.1532 7.53414 19.0007Z" fill="black"/>
</g>
<defs>
<clipPath id="clip0_732_22323">
<rect width="38" height="38" fill="white"/>
</clipPath>
</defs>
</svg>
