<svg width="38" height="38" viewBox="0 0 38 38" fill="none" xmlns="http://www.w3.org/2000/svg">
<g clip-path="url(#clip0_732_22336)">
<path fill-rule="evenodd" clip-rule="evenodd" d="M19 38C29.4934 38 38 29.4934 38 19C38 8.50659 29.4934 0 19 0C8.50659 0 0 8.50659 0 19C0 29.4934 8.50659 38 19 38ZM27.1081 27.1071C27.707 26.5079 27.7068 25.5366 27.1076 24.9376L15.1277 12.9606L20.5066 12.9749C21.3296 12.977 21.9979 12.3105 21.9979 11.4875C21.9979 10.666 21.332 10.0001 20.5105 10.0001L11.5649 10.0001C10.7006 10.0001 9.99997 10.7008 9.99997 11.5651L9.99997 20.5263C9.99997 21.3398 10.6568 22.0006 11.4702 22.0056C12.2908 22.0107 12.9586 21.3469 12.9586 20.5263L12.9586 15.1311L24.9381 27.1076C25.5375 27.7068 26.5091 27.7066 27.1081 27.1071Z" fill="black"/>
</g>
<defs>
<clipPath id="clip0_732_22336">
<rect width="38" height="38" fill="white"/>
</clipPath>
</defs>
</svg>
