<svg width="38" height="38" viewBox="0 0 38 38" fill="none" xmlns="http://www.w3.org/2000/svg" >
<g clip-path="url(#clip0_732_22331)">
<path fill-rule="evenodd" clip-rule="evenodd" class="portfolioicon"   d="M32.435 32.435C39.8549 25.0151 39.8549 12.9849 32.435 5.56496C25.015 -1.855 12.9849 -1.85499 5.56491 5.56497C-1.85505 12.9849 -1.85505 25.0151 5.56491 32.435C12.9849 39.855 25.015 39.855 32.435 32.435ZM30.4659 18.9993C30.4656 18.1521 29.7786 17.4654 28.9314 17.4655L11.9913 17.4677L15.8049 13.6742C16.3883 13.0938 16.3896 12.1499 15.8076 11.568C15.2268 10.9871 14.285 10.9871 13.7042 11.568L7.37866 17.8935C6.76751 18.5047 6.76751 19.4955 7.37867 20.1067L13.7152 26.4433C14.2904 27.0185 15.2222 27.0213 15.8009 26.4497C16.3847 25.873 16.3875 24.9314 15.8073 24.3512L11.9923 20.5362L28.9318 20.5341C29.7793 20.5339 30.4661 19.8468 30.4659 18.9993Z" fill="black"/>
</g>
<defs>
<clipPath id="clip0_732_22331">
<rect width="38" height="38" fill="white"/>
</clipPath>
</defs>
</svg>


