<svg width="38" height="38" viewBox="0 0 38 38" fill="none" xmlns="http://www.w3.org/2000/svg">
<path fill-rule="evenodd" clip-rule="evenodd" d="M19 38C29.4934 38 38 29.4934 38 19C38 8.50659 29.4934 0 19 0C8.50659 0 0 8.50659 0 19C0 29.4934 8.50659 38 19 38ZM29.4 10C30.83 10 32 11.0125 32 12.25V25.75C32 26.9875 30.83 28 29.4 28H8.6C7.17 28 6 26.9875 6 25.75V12.25C6 11.0125 7.17 10 8.6 10H29.4ZM19 17.8638L29.4 12.25H8.6L19 17.8638ZM19 20.125L8.6 14.5V25.75H29.4V14.5L19 20.125Z" fill="black"/>
</svg>
