<svg width="143" height="143" viewBox="0 0 143 143" fill="none" xmlns="http://www.w3.org/2000/svg">
<path fill-rule="evenodd" clip-rule="evenodd" d="M50 0C22.3857 0 0 22.3857 0 50V93C0 120.614 22.3857 143 50 143H93C120.614 143 143 120.614 143 93V50C143 22.3857 120.614 0 93 0H50ZM35 71.8857C35 52.0586 51.1099 36 71 36C90.8901 36 107 52.0586 107 71.8857C106.998 79.4043 104.631 86.7334 100.231 92.8408C95.8315 98.9482 89.6216 103.526 82.4751 105.932C80.6748 106.29 80 105.169 80 104.227C80 103.567 80.0132 102.125 80.0254 100.174C80.0356 98.5391 80.0449 96.5469 80.0449 94.3584C80.0449 90.9941 78.9199 88.8408 77.6152 87.7197C85.625 86.8223 94.04 83.7725 94.04 70.001C94.04 66.0537 92.645 62.8691 90.3501 60.3574C90.71 59.46 91.9702 55.7822 89.9902 50.8477C89.9902 50.8477 86.9751 49.8604 80.0898 54.5254C77.21 53.7188 74.1499 53.3145 71.0898 53.3145C68.0298 53.3145 64.9702 53.7188 62.0898 54.5254C55.2051 49.9053 52.1899 50.8477 52.1899 50.8477C50.21 55.7822 51.4702 59.46 51.8301 60.3574C49.5352 62.8691 48.1401 66.0986 48.1401 70.001C48.1401 83.7275 56.5098 86.8223 64.52 87.7197C63.4849 88.6172 62.54 90.1865 62.2251 92.5195C60.1548 93.4609 54.98 94.9863 51.7402 89.5586C51.0649 88.4824 49.04 85.8359 46.2051 85.8809C43.1899 85.9258 44.9902 87.585 46.25 88.2578C47.7798 89.1104 49.5352 92.2949 49.9399 93.3271C50.6602 95.3457 53 99.2031 62.0449 97.543C62.0449 100.549 62.0898 103.375 62.0898 104.227C62.0898 105.169 61.415 106.245 59.6152 105.932C45.3052 101.177 35 87.7646 35 71.8857Z" fill="black"/>
</svg>
