<svg width="143" height="143" viewBox="0 0 143 143" fill="none" xmlns="http://www.w3.org/2000/svg">
<path fill-rule="evenodd" clip-rule="evenodd" d="M50 0C22.3858 0 0 22.3858 0 50V93C0 120.614 22.3858 143 50 143H93C120.614 143 143 120.614 143 93V50C143 22.3858 120.614 0 93 0H50ZM42.871 55.4677C42.871 48.5107 48.5107 42.871 55.4677 42.871H87.5323C94.4893 42.871 100.129 48.5107 100.129 55.4677V87.5323C100.129 94.4893 94.4893 100.129 87.5323 100.129H55.4677C48.5107 100.129 42.871 94.4893 42.871 87.5323V55.4677ZM55.4677 36C44.716 36 36 44.716 36 55.4677V87.5323C36 98.284 44.716 107 55.4677 107H87.5323C98.284 107 107 98.284 107 87.5323V55.4677C107 44.716 98.284 36 87.5323 36H55.4677ZM89.1355 50.429C87.2381 50.429 85.7 51.9672 85.7 53.8645C85.7 55.7619 87.2381 57.3 89.1355 57.3H89.1675C91.0649 57.3 92.603 55.7619 92.603 53.8645C92.603 51.9672 91.0649 50.429 89.1675 50.429H89.1355ZM67.3138 63.0262C69.067 62.1165 71.0624 61.7828 73.0161 62.0725C75.0091 62.368 76.8541 63.2967 78.2787 64.7213C79.7033 66.1459 80.632 67.9909 80.9275 69.9839C81.2172 71.9376 80.8835 73.933 79.9738 75.6862C79.0641 77.4393 77.6248 78.861 75.8605 79.749C74.0963 80.637 72.0969 80.9461 70.1469 80.6323C68.1968 80.3185 66.3954 79.3979 64.9988 78.0012C63.6021 76.6046 62.6815 74.8032 62.3677 72.8531C62.0539 70.9031 62.363 68.9037 63.251 67.1395C64.139 65.3752 65.5607 63.9359 67.3138 63.0262ZM74.024 55.2759C70.6406 54.7742 67.1852 55.3521 64.1493 56.9274C61.1133 58.5027 58.6513 60.9952 57.1136 64.0504C55.5758 67.1055 55.0406 70.5678 55.584 73.9447C56.1274 77.3216 57.7217 80.4412 60.1403 82.8597C62.5588 85.2783 65.6784 86.8726 69.0553 87.416C72.4322 87.9594 75.8945 87.4242 78.9496 85.8864C82.0048 84.3487 84.4973 81.8867 86.0726 78.8507C87.6479 75.8148 88.2258 72.3594 87.7241 68.976C87.2124 65.5249 85.6042 62.3298 83.1372 59.8628C80.6702 57.3958 77.4751 55.7876 74.024 55.2759Z" fill="black"/>
</svg>
