<svg width="143" height="143" viewBox="0 0 143 143" fill="none" xmlns="http://www.w3.org/2000/svg">
<g clip-path="url(#clip0_765_43931)">
<rect width="143" height="143" rx="50" fill="white"/>
<path fill-rule="evenodd" clip-rule="evenodd" d="M143 0H0V143H143V0ZM80.9455 77.8113C82.1937 75.9431 82.86 73.7468 82.86 71.5C82.8566 68.4882 81.6586 65.6007 79.5289 63.4711C77.3993 61.3414 74.5118 60.1434 71.5 60.14C69.2532 60.14 67.0569 60.8063 65.1887 62.0545C63.3206 63.3028 61.8645 65.0769 61.0047 67.1527C60.1449 69.2285 59.9199 71.5126 60.3583 73.7162C60.7966 75.9198 61.8785 77.944 63.4673 79.5327C65.056 81.1215 67.0801 82.2034 69.2838 82.6417C71.4874 83.08 73.7715 82.8551 75.8473 81.9953C77.923 81.1355 79.6972 79.6794 80.9455 77.8113ZM107 87.12V55.88C106.994 50.6093 104.898 45.5562 101.171 41.8293C97.4438 38.1024 92.3907 36.006 87.12 36H55.88C50.6093 36.006 45.5562 38.1024 41.8293 41.8293C38.1024 45.5562 36.006 50.6093 36 55.88V87.12C36.006 92.3907 38.1024 97.4438 41.8293 101.171C45.5562 104.898 50.6093 106.994 55.88 107H87.12C92.3907 106.994 97.4438 104.898 101.171 101.171C104.898 97.4438 106.994 92.3907 107 87.12ZM85.6682 62.0331C87.5406 64.8353 88.54 68.1298 88.54 71.5C88.5349 76.0177 86.738 80.3489 83.5435 83.5435C80.3489 86.738 76.0177 88.5349 71.5 88.54C68.1298 88.54 64.8353 87.5406 62.0331 85.6682C59.2309 83.7959 57.0468 81.1346 55.7571 78.0209C54.4674 74.9073 54.1299 71.4811 54.7874 68.1757C55.4449 64.8702 57.0678 61.834 59.4509 59.4509C61.834 57.0678 64.8702 55.4449 68.1757 54.7874C71.4811 54.1299 74.9073 54.4674 78.0209 55.7571C81.1346 57.0468 83.7959 59.2309 85.6682 62.0331ZM93.5021 50.6733C93.9702 51.3738 94.22 52.1974 94.22 53.04C94.22 54.1698 93.7712 55.2534 92.9723 56.0523C92.1734 56.8512 91.0898 57.3 89.96 57.3C89.1174 57.3 88.2938 57.0502 87.5933 56.5821C86.8927 56.114 86.3467 55.4486 86.0243 54.6702C85.7018 53.8918 85.6175 53.0353 85.7819 52.2089C85.9462 51.3826 86.352 50.6235 86.9477 50.0277C87.5435 49.432 88.3026 49.0262 89.1289 48.8619C89.9553 48.6975 90.8118 48.7818 91.5902 49.1043C92.3686 49.4267 93.034 49.9727 93.5021 50.6733Z" fill="black"/>
</g>
<defs>
<clipPath id="clip0_765_43931">
<rect width="143" height="143" rx="50" fill="white"/>
</clipPath>
</defs>
</svg>
