<svg width="143" height="143" viewBox="0 0 143 143" fill="none" xmlns="http://www.w3.org/2000/svg">
<path fill-rule="evenodd" clip-rule="evenodd" d="M50 0C22.3858 0 0 22.3858 0 50V93C0 120.614 22.3858 143 50 143H93C120.614 143 143 120.614 143 93V50C143 22.3858 120.614 0 93 0H50ZM40.4516 54.1129C40.4516 46.568 46.568 40.4516 54.1129 40.4516H88.8871C96.432 40.4516 102.548 46.568 102.548 54.1129V88.8871C102.548 96.432 96.432 102.548 88.8871 102.548H54.1129C46.568 102.548 40.4516 96.432 40.4516 88.8871V54.1129ZM54.1129 33C42.4526 33 33 42.4526 33 54.1129V88.8871C33 100.547 42.4526 110 54.1129 110H88.8871C100.547 110 110 100.547 110 88.8871V54.1129C110 42.4526 100.547 33 88.8871 33H54.1129ZM90.6258 48.6484C88.5681 48.6484 86.9 50.3165 86.9 52.3742C86.9 54.4319 88.5681 56.1 90.6258 56.1H90.6606C92.7183 56.1 94.3864 54.4319 94.3864 52.3742C94.3864 50.3165 92.7183 48.6484 90.6606 48.6484H90.6258ZM66.9601 62.3101C68.8614 61.3235 71.0254 60.9616 73.1443 61.2758C75.3056 61.5963 77.3065 62.6035 78.8515 64.1485C80.3965 65.6935 81.4037 67.6944 81.7242 69.8557C82.0384 71.9746 81.6765 74.1386 80.6899 76.0399C79.7033 77.9413 78.1424 79.4831 76.229 80.4461C74.3157 81.4092 72.1474 81.7444 70.0325 81.4041C67.9177 81.0638 65.964 80.0653 64.4494 78.5506C62.9347 77.036 61.9362 75.0823 61.5959 72.9675C61.2556 70.8526 61.5908 68.6843 62.5539 66.771C63.5169 64.8576 65.0587 63.2967 66.9601 62.3101ZM74.2373 53.9048C70.568 53.3607 66.8206 53.9874 63.5281 55.6959C60.2355 57.4043 57.5655 60.1075 55.8978 63.4208C54.2301 66.7342 53.6496 70.489 54.2389 74.1513C54.8283 77.8136 56.5574 81.1968 59.1803 83.8197C61.8032 86.4426 65.1864 88.1717 68.8487 88.7611C72.511 89.3504 76.2658 88.7699 79.5792 87.1022C82.8925 85.4345 85.5957 82.7645 87.3041 79.4719C89.0126 76.1794 89.6393 72.432 89.0952 68.7627C88.5402 65.0199 86.7961 61.5549 84.1206 58.8794C81.4451 56.2039 77.9801 54.4598 74.2373 53.9048Z" fill="black"/>
</svg>
