<svg width="38" height="38" viewBox="0 0 38 38" fill="none" xmlns="http://www.w3.org/2000/svg">
<path fill-rule="evenodd" clip-rule="evenodd" d="M19 38C29.4934 38 38 29.4934 38 19C38 8.50659 29.4934 0 19 0C8.50659 0 0 8.50659 0 19C0 29.4934 8.50659 38 19 38ZM23.849 9.23213C22.5836 9.1744 22.2041 9.16221 19 9.16221C15.7958 9.16221 15.4163 9.1744 14.1509 9.23213C12.981 9.28553 12.3456 9.48102 11.9227 9.64531C11.3626 9.863 10.9628 10.1231 10.5429 10.543C10.123 10.9629 9.86295 11.3627 9.64531 11.9227C9.48097 12.3456 9.28548 12.981 9.23209 14.151C9.17435 15.4164 9.16216 15.7959 9.16216 19C9.16216 22.2042 9.17435 22.5837 9.23209 23.8491C9.28548 25.019 9.48097 25.6544 9.64531 26.0773C9.86295 26.6374 10.123 27.0372 10.5429 27.4571C10.9628 27.877 11.3626 28.137 11.9227 28.3547C12.3456 28.519 12.981 28.7145 14.151 28.7679C15.4161 28.8256 15.7956 28.8378 19 28.8378C22.2043 28.8378 22.5838 28.8256 23.849 28.7679C25.019 28.7145 25.6544 28.519 26.0773 28.3547C26.6373 28.137 27.0371 27.877 27.457 27.4571C27.8769 27.0372 28.137 26.6374 28.3546 26.0773C28.519 25.6544 28.7145 25.019 28.7679 23.849C28.8256 22.5837 28.8378 22.2042 28.8378 19C28.8378 15.7959 28.8256 15.4164 28.7679 14.151C28.7145 12.981 28.519 12.3456 28.3546 11.9227C28.137 11.3627 27.8769 10.9629 27.457 10.543C27.0371 10.1231 26.6373 9.863 26.0773 9.64531C25.6544 9.48102 25.019 9.28553 23.849 9.23213ZM14.0524 7.07221C15.3323 7.01381 15.7409 7 19 7C22.259 7 22.6677 7.01381 23.9475 7.07221C25.2248 7.13052 26.0971 7.33334 26.8605 7.63001C27.6496 7.93668 28.3188 8.347 28.9859 9.01411C29.653 9.68123 30.0633 10.3504 30.37 11.1395C30.6667 11.9029 30.8695 12.7752 30.9278 14.0525C30.9862 15.3323 31 15.741 31 19C31 22.2591 30.9862 22.6677 30.9278 23.9476C30.8695 25.2249 30.6667 26.0972 30.37 26.8605C30.0633 27.6496 29.653 28.3188 28.9859 28.9859C28.3188 29.6531 27.6496 30.0634 26.8605 30.37C26.0971 30.6667 25.2248 30.8695 23.9475 30.9278C22.6677 30.9862 22.259 31 19 31C15.7409 31 15.3323 30.9862 14.0524 30.9278C12.7751 30.8695 11.9028 30.6667 11.1395 30.37C10.3504 30.0634 9.68118 29.6531 9.01406 28.9859C8.34695 28.3188 7.93663 27.6496 7.62996 26.8605C7.3333 26.0972 7.13047 25.2249 7.07217 23.9476C7.01377 22.6677 7 22.2591 7 19C7 15.741 7.01377 15.3323 7.07217 14.0525C7.13047 12.7752 7.3333 11.9029 7.62996 11.1395C7.93663 10.3504 8.34695 9.68123 9.01406 9.01411C9.68118 8.347 10.3504 7.93668 11.1395 7.63001C11.9028 7.33334 12.7751 7.13052 14.0524 7.07221ZM12.8378 19C12.8378 15.5968 15.5967 12.8378 19 12.8378C22.4032 12.8378 25.1622 15.5968 25.1622 19C25.1622 22.4033 22.4032 25.1622 19 25.1622C15.5967 25.1622 12.8378 22.4033 12.8378 19ZM15 19C15 21.2092 16.7909 23 19 23C21.2091 23 23 21.2092 23 19C23 16.7909 21.2091 15 19 15C16.7909 15 15 16.7909 15 19ZM25.4056 14.0344C26.2009 14.0344 26.8456 13.3897 26.8456 12.5944C26.8456 11.7991 26.2009 11.1544 25.4056 11.1544C24.6103 11.1544 23.9656 11.7991 23.9656 12.5944C23.9656 13.3897 24.6103 14.0344 25.4056 14.0344Z" fill="black"/>
</svg>
