<svg width="38" height="38" viewBox="0 0 38 38" fill="none" xmlns="http://www.w3.org/2000/svg">
<path fill-rule="evenodd" clip-rule="evenodd" d="M19 38C29.4934 38 38 29.4934 38 19C38 8.50659 29.4934 0 19 0C8.50659 0 0 8.50659 0 19C0 29.4934 8.50659 38 19 38ZM14.066 11.2965C14.066 12.5648 12.9319 13.593 11.533 13.593C10.1341 13.593 9 12.5648 9 11.2965C9 10.0282 10.1341 9 11.533 9C12.9319 9 14.066 10.0282 14.066 11.2965ZM9.34639 15.281H13.6763V28H9.34639V15.281ZM16.3175 15.281H20.6474V16.9128C21.3742 16.0165 22.7696 15.0258 25.0206 15.0258C28.8111 15.0258 29.9633 17.0009 30 21.2872V28H25.6701C25.6701 27.1704 25.6642 26.3364 25.6582 25.5026V25.5022V25.5018C25.6498 24.3196 25.6414 23.138 25.6499 21.9703C25.6611 20.4469 25.6754 18.4804 23.2887 18.4804C21.1767 18.4804 20.6474 19.9896 20.6474 21.4923V28H16.3175V15.281Z" fill="black"/>
</svg>
