<svg width="143" height="143" viewBox="0 0 143 143" fill="none" xmlns="http://www.w3.org/2000/svg">
<path fill-rule="evenodd" clip-rule="evenodd" d="M50 0C22.3858 0 0 22.3858 0 50V93C0 120.614 22.3858 143 50 143H93C120.614 143 143 120.614 143 93V50C143 22.3858 120.614 0 93 0H50ZM54.6804 46.3729C54.6804 50.4449 51.1702 53.7459 46.8402 53.7459C42.5102 53.7459 39 50.4449 39 46.3729C39 42.301 42.5102 39 46.8402 39C51.1702 39 54.6804 42.301 54.6804 46.3729ZM40.0722 59.1653H53.4742V100H40.0722V59.1653ZM61.6495 59.1653H75.0516V64.4043C77.3011 61.5267 81.6201 58.3461 88.5876 58.3461C100.32 58.3461 103.886 64.687 104 78.4483V100H90.5979C90.5979 97.3372 90.5796 94.6601 90.5612 91.9839V91.9831V91.9823C90.5351 88.1859 90.5091 84.3912 90.5355 80.6416C90.5699 75.7505 90.6144 69.437 83.2268 69.437C76.6898 69.437 75.0516 74.2825 75.0516 79.1069V100H61.6495V59.1653Z" fill="black"/>
</svg>
