<svg width="143" height="143" viewBox="0 0 143 143" fill="none" xmlns="http://www.w3.org/2000/svg">
<path fill-rule="evenodd" clip-rule="evenodd" d="M50 0C22.3858 0 0 22.3858 0 50V93C0 120.614 22.3858 143 50 143H93C120.614 143 143 120.614 143 93V50C143 22.3858 120.614 0 93 0H50ZM52.1364 98.2638H40.8409C38.1663 98.2638 36 96.0975 36 93.4229V58.7297L52.1364 70.832V98.2638ZM90.8634 98.2638H102.159C104.833 98.2638 107 96.0975 107 93.4229V58.7297L90.8634 70.832V98.2638ZM90.8634 70.8312V49.8541L90.8639 49.8537V70.8308L90.8634 70.8312ZM90.8639 70.831V70.8308L107 58.729V52.2744C107 46.2919 100.17 42.875 95.3815 46.4653L90.8634 49.854V49.8541L71.5003 64.3764L52.1366 49.8537V70.831L71.5003 85.3537L90.8639 70.831ZM36 58.729V52.2744C36 46.2919 42.8297 42.875 47.6182 46.4653L52.1364 49.854V70.8312L36 58.729Z" fill="black"/>
</svg>
