<svg width="38" height="38" viewBox="0 0 38 38" fill="none" xmlns="http://www.w3.org/2000/svg">
<path fill-rule="evenodd" clip-rule="evenodd" d="M19 38C29.4934 38 38 29.4934 38 19C38 8.50659 29.4934 0 19 0C8.50659 0 0 8.50659 0 19C0 29.4934 8.50659 38 19 38ZM29.4 10C30.83 10 32 11.0688 32 12.375V26.625C32 27.9312 30.83 29 29.4 29H8.6C7.17 29 6 27.9312 6 26.625V12.375C6 11.0688 7.17 10 8.6 10H29.4ZM19 18.3006L29.4 12.375H8.6L19 18.3006ZM19 20.6875L8.6 14.75V26.625H29.4V14.75L19 20.6875Z" fill="black"/>
</svg>
