<svg width="143" height="143" viewBox="0 0 143 143" fill="none" xmlns="http://www.w3.org/2000/svg">
<path fill-rule="evenodd" clip-rule="evenodd" d="M50 0C22.3858 0 0 22.3858 0 50V93C0 120.614 22.3858 143 50 143H93C120.614 143 143 120.614 143 93V50C143 22.3858 120.614 0 93 0H50ZM97.2599 41.3631C100.259 39.9706 103.466 42.7861 102.944 46.3532L95.2189 99.1301C94.7493 102.338 91.5198 104.011 89.0094 102.346L66.6272 87.5021C64.2946 85.9551 63.9097 82.3722 65.849 80.2577L85.84 58.4602C86.5555 57.68 85.6427 56.4207 84.8052 57.0326L57.0329 77.3245C54.9799 78.8245 52.4342 79.2339 50.0832 78.4421L37.7649 74.2935C35.5343 73.5423 35.377 70.0972 37.5277 69.0986L97.2599 41.3631Z" fill="black"/>
</svg>
