<svg width="38" height="38" viewBox="0 0 38 38" fill="none" xmlns="http://www.w3.org/2000/svg">
<path fill-rule="evenodd" clip-rule="evenodd" d="M19 38C29.4934 38 38 29.4934 38 19C38 8.50659 29.4934 0 19 0C8.50659 0 0 8.50659 0 19C0 29.4934 8.50659 38 19 38ZM26.0161 10.3417C26.932 9.91501 27.9114 10.7778 27.752 11.871L25.3928 28.0445C25.2494 29.0277 24.2631 29.5402 23.4965 29.03L16.6611 24.4811C15.9487 24.007 15.8311 22.909 16.4234 22.2611L22.5286 15.5812C22.7471 15.3421 22.4683 14.9562 22.2125 15.1437L13.731 21.3622C13.104 21.8219 12.3266 21.9473 11.6086 21.7047L7.84661 20.4333C7.1654 20.2031 7.11736 19.1474 7.77416 18.8413L26.0161 10.3417Z" fill="black"/>
</svg>
