<svg width="650" height="200" viewBox="0 0 650 200" fill="none" xmlns="http://www.w3.org/2000/svg">
<rect width="650" height="200" fill="#D92121"/>
<rect width="256.756" height="86.6192" transform="translate(196.244 35)" fill="#D92121"/>
<path d="M206.729 65.5242L206.602 43.5503H224.384C230.057 43.5503 234.334 44.6934 237.213 46.9797C240.134 49.266 241.595 52.6743 241.595 57.2046C241.595 60.2107 240.854 62.7087 239.372 64.6986C237.932 66.6462 235.794 68.0011 232.958 68.7632L230.227 67.1119C232.386 67.366 234.143 67.9375 235.498 68.8267C236.853 69.6734 237.89 70.8801 238.61 72.4467C239.33 74.0132 239.817 76.0243 240.071 78.48L240.261 80.8298C240.43 82.481 240.621 83.857 240.833 84.9578C241.087 86.0163 241.383 86.8843 241.722 87.5617H231.878C231.582 86.8843 231.328 85.9316 231.116 84.7038C230.904 83.476 230.671 81.6977 230.417 79.3691C230.417 79.1997 230.396 79.0304 230.354 78.861C230.142 76.7017 229.803 75.114 229.338 74.0979C228.872 73.0394 228.173 72.3196 227.242 71.9386C226.31 71.5575 224.934 71.367 223.114 71.367H216.191L216.318 87.5617H206.602L206.729 65.5242ZM223.876 64.2541C225.739 64.2541 227.284 64 228.512 63.492C229.782 62.9839 230.735 62.2641 231.37 61.3327C232.005 60.3589 232.323 59.1734 232.323 57.7762C232.323 55.6592 231.645 54.0715 230.29 53.013C228.978 51.9122 226.924 51.3618 224.13 51.3618H216.191V64.2541H223.876Z" fill="white"/>
<path d="M243.505 65.5242L243.441 43.5503L274.18 43.5503V51.4888L253.095 51.4888L253.031 61.5867L272.084 61.5867V68.6997L253.031 68.6997L253.095 79.5596L274.751 79.5596V87.5617L243.441 87.5617L243.505 65.5242Z" fill="white"/>
<path d="M276.065 65.5242L276.002 43.5503H305.787V51.4888H285.655L285.592 62.6028H303.755V70.0968H285.592L285.655 87.5617H276.002L276.065 65.5242Z" fill="white"/>
<path d="M307.262 65.5242L307.198 43.5503L337.936 43.5503V51.4888L316.851 51.4888L316.788 61.5867L335.84 61.5867V68.6997L316.788 68.6997L316.851 79.5596L338.508 79.5596V87.5617L307.198 87.5617L307.262 65.5242Z" fill="white"/>
<path d="M339.886 65.5242L339.759 43.5503H357.541C363.214 43.5503 367.491 44.6934 370.37 46.9797C373.291 49.266 374.752 52.6743 374.752 57.2046C374.752 60.2107 374.011 62.7087 372.529 64.6986C371.089 66.6462 368.951 68.0011 366.115 68.7632L363.384 67.1119C365.543 67.366 367.3 67.9375 368.655 68.8267C370.01 69.6734 371.047 70.8801 371.767 72.4467C372.487 74.0132 372.974 76.0243 373.228 78.48L373.418 80.8298C373.587 82.481 373.778 83.857 373.99 84.9578C374.244 86.0163 374.54 86.8843 374.879 87.5617H365.035C364.739 86.8843 364.485 85.9316 364.273 84.7038C364.061 83.476 363.828 81.6977 363.574 79.3691C363.574 79.1997 363.553 79.0304 363.511 78.861C363.299 76.7017 362.96 75.114 362.495 74.0979C362.029 73.0394 361.33 72.3196 360.399 71.9386C359.467 71.5575 358.091 71.367 356.271 71.367H349.348L349.475 87.5617H339.759L339.886 65.5242ZM357.033 64.2541C358.896 64.2541 360.441 64 361.669 63.492C362.939 62.9839 363.892 62.2641 364.527 61.3327C365.162 60.3589 365.479 59.1734 365.479 57.7762C365.479 55.6592 364.802 54.0715 363.447 53.013C362.135 51.9122 360.081 51.3618 357.287 51.3618L349.348 51.3618V64.2541H357.033Z" fill="white"/>
<path d="M384.175 67.62L384.112 51.4888H372.744V43.5503H405.197V51.4888H393.829L393.765 67.62L393.829 87.5617H384.112L384.175 67.62Z" fill="white"/>
<path d="M421.738 88.5143C417.419 88.5143 413.693 87.604 410.56 85.7834C407.427 83.9205 405.014 81.2743 403.32 77.8449C401.669 74.4154 400.843 70.3085 400.843 65.5242C400.843 60.7399 401.669 56.633 403.32 53.2036C405.014 49.7741 407.427 47.1491 410.56 45.3285C413.736 43.5079 417.461 42.5977 421.738 42.5977C426.099 42.5977 429.846 43.5079 432.979 45.3285C436.112 47.1068 438.525 49.7106 440.219 53.1401C441.912 56.5695 442.759 60.6976 442.759 65.5242C442.759 70.3085 441.912 74.4366 440.219 77.9084C438.525 81.3378 436.091 83.9629 432.915 85.7834C429.74 87.604 426.014 88.5143 421.738 88.5143ZM421.738 80.5122C424.024 80.5122 426.014 79.9195 427.707 78.734C429.401 77.5485 430.692 75.8549 431.581 73.6533C432.471 71.4093 432.915 68.6997 432.915 65.5242C432.915 62.3065 432.471 59.5968 431.581 57.3951C430.735 55.1512 429.464 53.4576 427.771 52.3145C426.12 51.1713 424.109 50.5997 421.738 50.5997C419.451 50.5997 417.461 51.1925 415.768 52.378C414.117 53.5211 412.846 55.2147 411.957 57.4586C411.068 59.6603 410.624 62.3488 410.624 65.5242C410.624 68.6997 411.068 71.4093 411.957 73.6533C412.846 75.8549 414.117 77.5485 415.768 78.734C417.419 79.9195 419.409 80.5122 421.738 80.5122Z" fill="white"/>
<path d="M206.467 108.173L206.447 104.736H208.379C209.548 104.736 210.423 105.017 211.004 105.578C211.592 106.139 211.886 106.968 211.886 108.064C211.886 109.26 211.595 110.148 211.014 110.729C210.433 111.31 209.554 111.601 208.379 111.601H206.447L206.467 108.173ZM208.379 110.788C209.244 110.788 209.888 110.567 210.311 110.125C210.74 109.682 210.954 108.995 210.954 108.064C210.954 107.232 210.74 106.605 210.311 106.182C209.881 105.76 209.237 105.548 208.379 105.548H207.369L207.339 108.173L207.369 110.788H208.379ZM214.217 111.749C213.676 111.749 213.26 111.614 212.969 111.343C212.679 111.066 212.534 110.706 212.534 110.263C212.534 109.874 212.633 109.557 212.831 109.312C213.029 109.068 213.342 108.886 213.772 108.768C214.208 108.649 214.782 108.589 215.495 108.589H215.951V108.451C215.951 107.968 215.855 107.599 215.664 107.341C215.472 107.084 215.155 106.955 214.713 106.955C214.389 106.955 214.125 107.027 213.92 107.173C213.722 107.311 213.58 107.486 213.494 107.698C213.409 107.902 213.369 108.114 213.375 108.332L212.623 108.143C212.623 107.787 212.709 107.467 212.88 107.183C213.052 106.899 213.296 106.674 213.613 106.509C213.93 106.344 214.297 106.261 214.713 106.261C215.4 106.261 215.911 106.43 216.248 106.767C216.592 107.103 216.763 107.602 216.763 108.262V110.57C216.763 110.749 216.793 110.877 216.852 110.957C216.918 111.029 217.034 111.066 217.199 111.066C217.252 111.066 217.301 111.062 217.348 111.056C217.401 111.043 217.45 111.029 217.496 111.016L217.506 111.006L217.635 111.581C217.529 111.62 217.42 111.65 217.308 111.67C217.202 111.69 217.093 111.7 216.981 111.7C216.71 111.7 216.499 111.62 216.347 111.462C216.195 111.303 216.119 111.076 216.119 110.778C216.119 110.732 216.119 110.693 216.119 110.66C216.119 110.627 216.123 110.594 216.129 110.56C216.129 110.541 216.129 110.527 216.129 110.521C216.136 110.514 216.139 110.501 216.139 110.481H216.119C215.941 110.877 215.693 111.188 215.376 111.412C215.059 111.637 214.673 111.749 214.217 111.749ZM214.336 111.036C214.607 111.036 214.865 110.963 215.109 110.818C215.36 110.673 215.561 110.471 215.713 110.214C215.872 109.95 215.951 109.649 215.951 109.312V109.213H215.713C215.159 109.213 214.713 109.243 214.376 109.302C214.046 109.362 213.798 109.468 213.633 109.619C213.475 109.771 213.395 109.983 213.395 110.253C213.395 110.491 213.478 110.683 213.643 110.828C213.815 110.967 214.046 111.036 214.336 111.036ZM218.248 108.114L218.229 104.726H219.1L219.08 108.114L219.1 111.601H218.229L218.248 108.114ZM220.406 108.114L220.386 104.726H221.257L221.238 108.114L221.257 111.601H220.386L220.406 108.114ZM224.633 111.749C224.138 111.749 223.705 111.637 223.335 111.412C222.972 111.188 222.691 110.871 222.493 110.461C222.295 110.045 222.196 109.56 222.196 109.005C222.196 108.451 222.289 107.968 222.474 107.559C222.665 107.143 222.936 106.823 223.286 106.598C223.642 106.374 224.065 106.261 224.554 106.261C225.095 106.261 225.531 106.4 225.861 106.677C226.192 106.948 226.426 107.308 226.565 107.757C226.703 108.2 226.773 108.692 226.773 109.233H222.89L222.909 108.54H226.347L225.881 108.877C225.921 108.52 225.894 108.2 225.802 107.916C225.709 107.625 225.554 107.397 225.336 107.232C225.125 107.067 224.867 106.985 224.564 106.985C224.101 106.985 223.735 107.156 223.464 107.5C223.2 107.836 223.068 108.338 223.068 109.005C223.068 109.633 223.21 110.128 223.494 110.491C223.778 110.848 224.158 111.026 224.633 111.026C224.996 111.026 225.293 110.914 225.525 110.689C225.762 110.465 225.917 110.148 225.99 109.738L226.743 109.936C226.69 110.267 226.575 110.57 226.396 110.848C226.225 111.119 225.987 111.336 225.683 111.502C225.386 111.667 225.036 111.749 224.633 111.749ZM230.166 109.085L230.146 106.39H231.008L230.988 107.183H231.008C231.147 106.918 231.355 106.701 231.632 106.529C231.916 106.351 232.236 106.261 232.593 106.261C232.93 106.261 233.217 106.357 233.455 106.549C233.699 106.734 233.874 107.014 233.98 107.391H234C234.165 107.047 234.396 106.773 234.693 106.568C234.99 106.364 235.327 106.261 235.703 106.261C236.172 106.261 236.542 106.436 236.813 106.786C237.09 107.13 237.229 107.648 237.229 108.342V109.085L237.249 111.601H236.377L236.397 109.085V108.352C236.397 107.896 236.311 107.556 236.139 107.331C235.968 107.107 235.736 106.994 235.446 106.994C235.215 106.994 234.997 107.067 234.792 107.212C234.587 107.351 234.422 107.552 234.297 107.817C234.171 108.074 234.109 108.368 234.109 108.698V109.085L234.128 111.601H233.257L233.277 109.085V108.352C233.277 107.902 233.191 107.566 233.019 107.341C232.847 107.11 232.619 106.994 232.335 106.994C232.104 106.994 231.883 107.067 231.672 107.212C231.467 107.351 231.302 107.552 231.177 107.817C231.051 108.074 230.988 108.368 230.988 108.698V109.085L231.008 111.601H230.146L230.166 109.085ZM239.901 111.749C239.359 111.749 238.943 111.614 238.653 111.343C238.362 111.066 238.217 110.706 238.217 110.263C238.217 109.874 238.316 109.557 238.514 109.312C238.712 109.068 239.026 108.886 239.455 108.768C239.891 108.649 240.465 108.589 241.179 108.589H241.634V108.451C241.634 107.968 241.538 107.599 241.347 107.341C241.155 107.084 240.838 106.955 240.396 106.955C240.072 106.955 239.808 107.027 239.604 107.173C239.405 107.311 239.263 107.486 239.178 107.698C239.092 107.902 239.052 108.114 239.059 108.332L238.306 108.143C238.306 107.787 238.392 107.467 238.563 107.183C238.735 106.899 238.979 106.674 239.296 106.509C239.613 106.344 239.98 106.261 240.396 106.261C241.083 106.261 241.595 106.43 241.931 106.767C242.275 107.103 242.446 107.602 242.446 108.262V110.57C242.446 110.749 242.476 110.877 242.536 110.957C242.602 111.029 242.717 111.066 242.882 111.066C242.935 111.066 242.985 111.062 243.031 111.056C243.084 111.043 243.133 111.029 243.18 111.016L243.189 111.006L243.318 111.581C243.213 111.62 243.104 111.65 242.991 111.67C242.886 111.69 242.777 111.7 242.664 111.7C242.394 111.7 242.182 111.62 242.03 111.462C241.879 111.303 241.803 111.076 241.803 110.778C241.803 110.732 241.803 110.693 241.803 110.66C241.803 110.627 241.806 110.594 241.813 110.56C241.813 110.541 241.813 110.527 241.813 110.521C241.819 110.514 241.822 110.501 241.822 110.481H241.803C241.624 110.877 241.377 111.188 241.06 111.412C240.743 111.637 240.356 111.749 239.901 111.749ZM240.02 111.036C240.29 111.036 240.548 110.963 240.792 110.818C241.043 110.673 241.245 110.471 241.396 110.214C241.555 109.95 241.634 109.649 241.634 109.312V109.213H241.396C240.842 109.213 240.396 109.243 240.059 109.302C239.729 109.362 239.481 109.468 239.316 109.619C239.158 109.771 239.079 109.983 239.079 110.253C239.079 110.491 239.161 110.683 239.326 110.828C239.498 110.967 239.729 111.036 240.02 111.036ZM243.932 109.085L243.912 106.39H244.783L244.764 107.183H244.783C244.922 106.918 245.137 106.701 245.427 106.529C245.724 106.351 246.071 106.261 246.467 106.261C247.055 106.261 247.498 106.443 247.795 106.806C248.099 107.163 248.25 107.721 248.25 108.48V109.085L248.27 111.601H247.399L247.418 109.085V108.49C247.418 107.988 247.309 107.615 247.091 107.371C246.88 107.12 246.586 106.994 246.21 106.994C245.946 106.994 245.701 107.067 245.477 107.212C245.259 107.351 245.084 107.549 244.952 107.807C244.826 108.064 244.764 108.361 244.764 108.698V109.085L244.783 111.601H243.912L243.932 109.085ZM249.562 108.995L249.542 106.39C249.74 106.39 249.885 106.39 249.978 106.39C250.077 106.39 250.222 106.39 250.413 106.39L250.394 108.995L250.413 111.601H249.542L249.562 108.995ZM249.978 105.776C249.799 105.776 249.664 105.733 249.571 105.647C249.486 105.555 249.443 105.416 249.443 105.231C249.443 105.053 249.486 104.921 249.571 104.835C249.664 104.743 249.799 104.696 249.978 104.696C250.156 104.696 250.288 104.743 250.374 104.835C250.466 104.921 250.513 105.053 250.513 105.231C250.513 105.416 250.466 105.555 250.374 105.647C250.288 105.733 250.156 105.776 249.978 105.776ZM256.94 111.472C256.656 111.657 256.31 111.749 255.9 111.749C255.451 111.749 255.068 111.644 254.751 111.432C254.434 111.221 254.193 110.91 254.028 110.501C253.863 110.092 253.78 109.593 253.78 109.005C253.78 108.418 253.863 107.919 254.028 107.51C254.193 107.1 254.434 106.79 254.751 106.578C255.068 106.367 255.451 106.261 255.9 106.261C256.31 106.261 256.653 106.354 256.93 106.539C257.214 106.724 257.422 106.938 257.554 107.183H257.574L257.544 104.726H258.446L258.426 108.609L258.446 111.601H257.544L257.564 110.828H257.544C257.426 111.066 257.224 111.28 256.94 111.472ZM255.028 110.511C255.279 110.861 255.639 111.036 256.108 111.036C256.352 111.036 256.584 110.977 256.802 110.858C257.019 110.739 257.201 110.527 257.346 110.224C257.498 109.92 257.574 109.507 257.574 108.985C257.574 108.536 257.508 108.163 257.376 107.866C257.244 107.562 257.066 107.338 256.841 107.193C256.623 107.047 256.379 106.975 256.108 106.975C255.639 106.975 255.279 107.15 255.028 107.5C254.777 107.85 254.652 108.352 254.652 109.005C254.652 109.659 254.777 110.161 255.028 110.511ZM259.757 108.995L259.738 106.39C259.936 106.39 260.081 106.39 260.174 106.39C260.273 106.39 260.418 106.39 260.609 106.39L260.59 108.995L260.609 111.601H259.738L259.757 108.995ZM260.174 105.776C259.995 105.776 259.86 105.733 259.767 105.647C259.682 105.555 259.639 105.416 259.639 105.231C259.639 105.053 259.682 104.921 259.767 104.835C259.86 104.743 259.995 104.696 260.174 104.696C260.352 104.696 260.484 104.743 260.57 104.835C260.662 104.921 260.708 105.053 260.708 105.231C260.708 105.416 260.662 105.555 260.57 105.647C260.484 105.733 260.352 105.776 260.174 105.776ZM266.413 111.749C265.918 111.749 265.485 111.637 265.115 111.412C264.752 111.188 264.472 110.871 264.273 110.461C264.075 110.045 263.976 109.56 263.976 109.005C263.976 108.451 264.075 107.968 264.273 107.559C264.472 107.143 264.752 106.823 265.115 106.598C265.479 106.374 265.908 106.261 266.403 106.261C267.004 106.261 267.486 106.436 267.849 106.786C268.219 107.13 268.444 107.556 268.523 108.064L267.77 108.262C267.697 107.86 267.542 107.546 267.305 107.321C267.073 107.097 266.776 106.985 266.413 106.985C266.096 106.985 265.819 107.067 265.581 107.232C265.343 107.391 265.162 107.622 265.036 107.926C264.911 108.229 264.848 108.589 264.848 109.005C264.848 109.633 264.987 110.128 265.264 110.491C265.548 110.848 265.931 111.026 266.413 111.026C266.776 111.026 267.073 110.917 267.305 110.699C267.542 110.475 267.697 110.158 267.77 109.748L268.523 109.946C268.47 110.277 268.355 110.577 268.176 110.848C268.005 111.119 267.767 111.336 267.463 111.502C267.166 111.667 266.816 111.749 266.413 111.749ZM269.334 109.085L269.314 104.726H270.186L270.166 107.183H270.186C270.325 106.918 270.539 106.701 270.83 106.529C271.127 106.351 271.474 106.261 271.87 106.261C272.458 106.261 272.9 106.443 273.197 106.806C273.501 107.163 273.653 107.721 273.653 108.48V109.085L273.673 111.601H272.801L272.821 109.085V108.49C272.821 107.988 272.712 107.615 272.494 107.371C272.283 107.12 271.989 106.994 271.613 106.994C271.348 106.994 271.104 107.067 270.88 107.212C270.662 107.351 270.487 107.549 270.355 107.807C270.229 108.064 270.166 108.361 270.166 108.698V109.085L270.186 111.601H269.314L269.334 109.085ZM274.964 108.995L274.944 106.39C275.143 106.39 275.288 106.39 275.38 106.39C275.479 106.39 275.625 106.39 275.816 106.39L275.796 108.995L275.816 111.601H274.944L274.964 108.995ZM275.38 105.776C275.202 105.776 275.067 105.733 274.974 105.647C274.888 105.555 274.845 105.416 274.845 105.231C274.845 105.053 274.888 104.921 274.974 104.835C275.067 104.743 275.202 104.696 275.38 104.696C275.559 104.696 275.691 104.743 275.777 104.835C275.869 104.921 275.915 105.053 275.915 105.231C275.915 105.416 275.869 105.555 275.777 105.647C275.691 105.733 275.559 105.776 275.38 105.776ZM281.62 111.749C281.125 111.749 280.692 111.637 280.322 111.412C279.959 111.188 279.678 110.871 279.48 110.461C279.282 110.045 279.183 109.56 279.183 109.005C279.183 108.451 279.282 107.968 279.48 107.559C279.678 107.143 279.959 106.823 280.322 106.598C280.685 106.374 281.115 106.261 281.61 106.261C282.211 106.261 282.693 106.436 283.056 106.786C283.426 107.13 283.65 107.556 283.73 108.064L282.977 108.262C282.904 107.86 282.749 107.546 282.511 107.321C282.28 107.097 281.983 106.985 281.62 106.985C281.303 106.985 281.025 107.067 280.788 107.232C280.55 107.391 280.368 107.622 280.243 107.926C280.117 108.229 280.055 108.589 280.055 109.005C280.055 109.633 280.193 110.128 280.471 110.491C280.755 110.848 281.138 111.026 281.62 111.026C281.983 111.026 282.28 110.917 282.511 110.699C282.749 110.475 282.904 110.158 282.977 109.748L283.73 109.946C283.677 110.277 283.561 110.577 283.383 110.848C283.211 111.119 282.974 111.336 282.67 111.502C282.373 111.667 282.023 111.749 281.62 111.749ZM288.791 108.906L288.81 111.601H287.939L287.959 110.808H287.939C287.8 111.072 287.585 111.294 287.295 111.472C287.011 111.644 286.681 111.729 286.304 111.729C285.717 111.729 285.271 111.551 284.967 111.194C284.67 110.831 284.521 110.27 284.521 109.51V108.906L284.501 106.39H285.373L285.353 108.906V109.501C285.353 110.002 285.459 110.379 285.67 110.63C285.888 110.874 286.185 110.996 286.562 110.996C286.813 110.996 287.044 110.927 287.255 110.788C287.467 110.643 287.635 110.442 287.76 110.184C287.893 109.92 287.959 109.623 287.959 109.293V108.906L287.939 106.39H288.81L288.791 108.906ZM290.123 109.094L290.103 106.39H290.975L290.945 107.212H290.965C291.064 106.948 291.245 106.724 291.51 106.539C291.78 106.354 292.107 106.261 292.49 106.261C292.635 106.261 292.764 106.275 292.876 106.301L292.867 107.123C292.708 107.077 292.566 107.054 292.441 107.054C292.13 107.054 291.863 107.123 291.638 107.262C291.42 107.401 291.252 107.612 291.133 107.896C291.014 108.173 290.955 108.52 290.955 108.936V109.085L290.975 111.601H290.103L290.123 109.094ZM294.904 111.749C294.363 111.749 293.947 111.614 293.656 111.343C293.366 111.066 293.22 110.706 293.22 110.263C293.22 109.874 293.32 109.557 293.518 109.312C293.716 109.068 294.029 108.886 294.459 108.768C294.895 108.649 295.469 108.589 296.182 108.589H296.638V108.451C296.638 107.968 296.542 107.599 296.351 107.341C296.159 107.084 295.842 106.955 295.4 106.955C295.076 106.955 294.812 107.027 294.607 107.173C294.409 107.311 294.267 107.486 294.181 107.698C294.095 107.902 294.056 108.114 294.062 108.332L293.31 108.143C293.31 107.787 293.395 107.467 293.567 107.183C293.739 106.899 293.983 106.674 294.3 106.509C294.617 106.344 294.984 106.261 295.4 106.261C296.087 106.261 296.598 106.43 296.935 106.767C297.279 107.103 297.45 107.602 297.45 108.262V110.57C297.45 110.749 297.48 110.877 297.539 110.957C297.605 111.029 297.721 111.066 297.886 111.066C297.939 111.066 297.988 111.062 298.035 111.056C298.087 111.043 298.137 111.029 298.183 111.016L298.193 111.006L298.322 111.581C298.216 111.62 298.107 111.65 297.995 111.67C297.889 111.69 297.78 111.7 297.668 111.7C297.397 111.7 297.186 111.62 297.034 111.462C296.882 111.303 296.806 111.076 296.806 110.778C296.806 110.732 296.806 110.693 296.806 110.66C296.806 110.627 296.81 110.594 296.816 110.56C296.816 110.541 296.816 110.527 296.816 110.521C296.823 110.514 296.826 110.501 296.826 110.481H296.806C296.628 110.877 296.38 111.188 296.063 111.412C295.746 111.637 295.36 111.749 294.904 111.749ZM295.023 111.036C295.294 111.036 295.552 110.963 295.796 110.818C296.047 110.673 296.248 110.471 296.4 110.214C296.559 109.95 296.638 109.649 296.638 109.312V109.213H296.4C295.845 109.213 295.4 109.243 295.063 109.302C294.733 109.362 294.485 109.468 294.32 109.619C294.162 109.771 294.082 109.983 294.082 110.253C294.082 110.491 294.165 110.683 294.33 110.828C294.502 110.967 294.733 111.036 295.023 111.036Z" fill="white"/>
<path d="M375.728 111.749C375.16 111.749 374.674 111.61 374.272 111.333C373.875 111.049 373.572 110.64 373.36 110.105C373.149 109.563 373.043 108.913 373.043 108.153C373.043 107.407 373.149 106.77 373.36 106.242C373.572 105.713 373.875 105.31 374.272 105.033C374.674 104.756 375.16 104.617 375.728 104.617C376.296 104.617 376.778 104.756 377.174 105.033C377.577 105.31 377.881 105.713 378.085 106.242C378.297 106.77 378.402 107.407 378.402 108.153C378.402 108.913 378.297 109.563 378.085 110.105C377.881 110.64 377.577 111.049 377.174 111.333C376.778 111.61 376.296 111.749 375.728 111.749ZM375.728 111.066C376.131 111.066 376.471 110.95 376.748 110.719C377.032 110.488 377.247 110.158 377.392 109.728C377.544 109.293 377.62 108.768 377.62 108.153C377.62 107.566 377.544 107.057 377.392 106.628C377.247 106.199 377.032 105.872 376.748 105.647C376.464 105.416 376.124 105.301 375.728 105.301C375.331 105.301 374.988 105.416 374.697 105.647C374.414 105.872 374.196 106.199 374.044 106.628C373.898 107.051 373.826 107.559 373.826 108.153C373.826 108.768 373.898 109.293 374.044 109.728C374.196 110.158 374.414 110.488 374.697 110.719C374.988 110.95 375.331 111.066 375.728 111.066ZM381.89 111.749C381.322 111.749 380.836 111.61 380.434 111.333C380.037 111.049 379.734 110.64 379.522 110.105C379.311 109.563 379.205 108.913 379.205 108.153C379.205 107.407 379.311 106.77 379.522 106.242C379.734 105.713 380.037 105.31 380.434 105.033C380.836 104.756 381.322 104.617 381.89 104.617C382.458 104.617 382.94 104.756 383.336 105.033C383.739 105.31 384.043 105.713 384.247 106.242C384.459 106.77 384.564 107.407 384.564 108.153C384.564 108.913 384.459 109.563 384.247 110.105C384.043 110.64 383.739 111.049 383.336 111.333C382.94 111.61 382.458 111.749 381.89 111.749ZM381.89 111.066C382.293 111.066 382.633 110.95 382.91 110.719C383.194 110.488 383.409 110.158 383.554 109.728C383.706 109.293 383.782 108.768 383.782 108.153C383.782 107.566 383.706 107.057 383.554 106.628C383.409 106.199 383.194 105.872 382.91 105.647C382.626 105.416 382.286 105.301 381.89 105.301C381.493 105.301 381.15 105.416 380.86 105.647C380.576 105.872 380.358 106.199 380.206 106.628C380.06 107.051 379.988 107.559 379.988 108.153C379.988 108.768 380.06 109.293 380.206 109.728C380.358 110.158 380.576 110.488 380.86 110.719C381.15 110.95 381.493 111.066 381.89 111.066ZM387.948 104.419H388.731L385.571 113.037H384.798L387.948 104.419ZM394.233 111.749C393.375 111.749 392.701 111.561 392.212 111.185C391.724 110.808 391.43 110.28 391.331 109.6L392.569 109.283C392.661 109.705 392.833 110.022 393.084 110.234C393.342 110.438 393.711 110.541 394.194 110.541C394.57 110.541 394.857 110.465 395.055 110.313C395.253 110.154 395.352 109.946 395.352 109.689C395.352 109.517 395.306 109.372 395.214 109.253C395.128 109.127 394.986 109.022 394.788 108.936C394.59 108.843 394.326 108.764 393.995 108.698C393.163 108.527 392.549 108.276 392.153 107.945C391.757 107.609 391.559 107.146 391.559 106.559C391.559 106.143 391.654 105.789 391.846 105.499C392.037 105.202 392.311 104.977 392.668 104.825C393.025 104.667 393.451 104.587 393.946 104.587C394.738 104.587 395.369 104.766 395.838 105.122C396.307 105.479 396.594 105.964 396.7 106.578L395.422 106.905C395.382 106.582 395.24 106.314 394.996 106.103C394.752 105.892 394.425 105.786 394.015 105.786C393.698 105.786 393.451 105.855 393.272 105.994C393.094 106.133 393.005 106.321 393.005 106.559C393.005 106.717 393.048 106.856 393.134 106.975C393.219 107.087 393.358 107.186 393.55 107.272C393.741 107.351 394.009 107.427 394.352 107.5C394.946 107.618 395.422 107.774 395.778 107.965C396.135 108.157 396.396 108.394 396.561 108.678C396.733 108.956 396.819 109.296 396.819 109.699C396.819 110.141 396.706 110.518 396.482 110.828C396.257 111.132 395.95 111.363 395.561 111.521C395.171 111.673 394.728 111.749 394.233 111.749ZM400.52 111.749C399.847 111.749 399.266 111.607 398.777 111.323C398.288 111.033 397.912 110.62 397.648 110.085C397.39 109.55 397.261 108.91 397.261 108.163C397.261 107.417 397.393 106.777 397.658 106.242C397.922 105.707 398.298 105.297 398.787 105.013C399.282 104.729 399.86 104.587 400.52 104.587C401.201 104.587 401.785 104.729 402.274 105.013C402.769 105.291 403.145 105.697 403.403 106.232C403.667 106.767 403.799 107.41 403.799 108.163C403.799 108.91 403.667 109.553 403.403 110.095C403.139 110.63 402.759 111.039 402.264 111.323C401.775 111.607 401.194 111.749 400.52 111.749ZM400.53 110.501C400.887 110.501 401.197 110.409 401.461 110.224C401.726 110.039 401.927 109.775 402.066 109.431C402.204 109.081 402.274 108.659 402.274 108.163C402.274 107.661 402.204 107.239 402.066 106.895C401.927 106.545 401.726 106.281 401.461 106.103C401.204 105.925 400.893 105.835 400.53 105.835C400.174 105.835 399.863 105.928 399.599 106.113C399.342 106.291 399.143 106.555 399.005 106.905C398.866 107.249 398.797 107.668 398.797 108.163C398.797 108.659 398.863 109.081 398.995 109.431C399.134 109.775 399.332 110.039 399.589 110.224C399.853 110.409 400.167 110.501 400.53 110.501ZM407.406 111.749C406.752 111.749 406.184 111.607 405.702 111.323C405.227 111.033 404.86 110.62 404.603 110.085C404.352 109.544 404.226 108.906 404.226 108.173C404.226 107.434 404.355 106.793 404.613 106.252C404.87 105.71 405.237 105.297 405.712 105.013C406.188 104.729 406.756 104.587 407.416 104.587C407.964 104.587 408.443 104.686 408.852 104.885C409.262 105.083 409.589 105.36 409.833 105.717C410.084 106.067 410.242 106.483 410.308 106.965L408.961 107.331C408.882 106.849 408.71 106.479 408.446 106.222C408.182 105.964 407.842 105.835 407.426 105.835C407.082 105.835 406.785 105.928 406.534 106.113C406.283 106.298 406.092 106.565 405.96 106.915C405.828 107.265 405.762 107.685 405.762 108.173C405.762 108.655 405.828 109.071 405.96 109.421C406.092 109.771 406.283 110.039 406.534 110.224C406.785 110.409 407.082 110.501 407.426 110.501C407.862 110.501 408.212 110.366 408.476 110.095C408.74 109.824 408.908 109.425 408.981 108.896L410.328 109.253C410.262 109.761 410.1 110.204 409.843 110.58C409.592 110.957 409.258 111.247 408.842 111.452C408.426 111.65 407.948 111.749 407.406 111.749ZM413.839 111.749C413.185 111.749 412.617 111.607 412.135 111.323C411.66 111.033 411.293 110.62 411.036 110.085C410.785 109.544 410.659 108.906 410.659 108.173C410.659 107.434 410.788 106.793 411.046 106.252C411.303 105.71 411.67 105.297 412.145 105.013C412.621 104.729 413.188 104.587 413.849 104.587C414.397 104.587 414.876 104.686 415.285 104.885C415.695 105.083 416.021 105.36 416.266 105.717C416.517 106.067 416.675 106.483 416.741 106.965L415.394 107.331C415.315 106.849 415.143 106.479 414.879 106.222C414.615 105.964 414.275 105.835 413.859 105.835C413.515 105.835 413.218 105.928 412.967 106.113C412.716 106.298 412.525 106.565 412.393 106.915C412.261 107.265 412.195 107.685 412.195 108.173C412.195 108.655 412.261 109.071 412.393 109.421C412.525 109.771 412.716 110.039 412.967 110.224C413.218 110.409 413.515 110.501 413.859 110.501C414.295 110.501 414.645 110.366 414.909 110.095C415.173 109.824 415.341 109.425 415.414 108.896L416.761 109.253C416.695 109.761 416.533 110.204 416.276 110.58C416.025 110.957 415.691 111.247 415.275 111.452C414.859 111.65 414.38 111.749 413.839 111.749ZM420.351 111.749C419.677 111.749 419.096 111.607 418.608 111.323C418.119 111.033 417.743 110.62 417.478 110.085C417.221 109.55 417.092 108.91 417.092 108.163C417.092 107.417 417.224 106.777 417.488 106.242C417.752 105.707 418.129 105.297 418.618 105.013C419.113 104.729 419.691 104.587 420.351 104.587C421.031 104.587 421.616 104.729 422.104 105.013C422.6 105.291 422.976 105.697 423.234 106.232C423.498 106.767 423.63 107.41 423.63 108.163C423.63 108.91 423.498 109.553 423.234 110.095C422.969 110.63 422.59 111.039 422.094 111.323C421.606 111.607 421.025 111.749 420.351 111.749ZM420.361 110.501C420.718 110.501 421.028 110.409 421.292 110.224C421.556 110.039 421.758 109.775 421.896 109.431C422.035 109.081 422.104 108.659 422.104 108.163C422.104 107.661 422.035 107.239 421.896 106.895C421.758 106.545 421.556 106.281 421.292 106.103C421.035 105.925 420.724 105.835 420.361 105.835C420.004 105.835 419.694 105.928 419.43 106.113C419.172 106.291 418.974 106.555 418.836 106.905C418.697 107.249 418.627 107.668 418.627 108.163C418.627 108.659 418.694 109.081 418.826 109.431C418.964 109.775 419.162 110.039 419.42 110.224C419.684 110.409 419.998 110.501 420.361 110.501ZM424.424 108.163L424.394 104.736H427.167C428.052 104.736 428.719 104.914 429.168 105.271C429.624 105.627 429.852 106.159 429.852 106.866C429.852 107.328 429.736 107.711 429.505 108.015C429.281 108.312 428.947 108.517 428.505 108.629L428.079 108.371C428.416 108.411 428.693 108.5 428.911 108.639C429.129 108.777 429.297 108.969 429.416 109.213C429.535 109.458 429.611 109.768 429.644 110.144L429.683 110.511C429.71 110.782 429.74 111.006 429.773 111.185C429.806 111.356 429.852 111.495 429.911 111.601H428.376C428.33 111.495 428.287 111.34 428.247 111.135C428.214 110.93 428.181 110.646 428.148 110.283C428.148 110.263 428.145 110.24 428.138 110.214C428.112 109.884 428.056 109.639 427.97 109.481C427.884 109.322 427.762 109.217 427.603 109.164C427.451 109.104 427.23 109.075 426.94 109.075H425.89L425.909 111.601H424.394L424.424 108.163ZM427.088 107.965C427.379 107.965 427.62 107.926 427.811 107.846C428.009 107.767 428.158 107.655 428.257 107.51C428.356 107.358 428.406 107.173 428.406 106.955C428.406 106.625 428.3 106.377 428.089 106.212C427.884 106.04 427.564 105.954 427.128 105.954H425.89V107.965H427.088ZM433.295 111.749C432.436 111.749 431.763 111.561 431.274 111.185C430.785 110.808 430.492 110.28 430.393 109.6L431.631 109.283C431.723 109.705 431.895 110.022 432.146 110.234C432.403 110.438 432.773 110.541 433.255 110.541C433.632 110.541 433.919 110.465 434.117 110.313C434.315 110.154 434.414 109.946 434.414 109.689C434.414 109.517 434.368 109.372 434.276 109.253C434.19 109.127 434.048 109.022 433.85 108.936C433.651 108.843 433.387 108.764 433.057 108.698C432.225 108.527 431.611 108.276 431.215 107.945C430.818 107.609 430.62 107.146 430.62 106.559C430.62 106.143 430.716 105.789 430.908 105.499C431.099 105.202 431.373 104.977 431.73 104.825C432.086 104.667 432.512 104.587 433.008 104.587C433.8 104.587 434.431 104.766 434.9 105.122C435.368 105.479 435.656 105.964 435.761 106.578L434.484 106.905C434.444 106.582 434.302 106.314 434.058 106.103C433.813 105.892 433.486 105.786 433.077 105.786C432.76 105.786 432.512 105.855 432.334 105.994C432.156 106.133 432.067 106.321 432.067 106.559C432.067 106.717 432.11 106.856 432.195 106.975C432.281 107.087 432.42 107.186 432.611 107.272C432.803 107.351 433.07 107.427 433.414 107.5C434.008 107.618 434.484 107.774 434.84 107.965C435.197 108.157 435.458 108.394 435.623 108.678C435.794 108.956 435.88 109.296 435.88 109.699C435.88 110.141 435.768 110.518 435.543 110.828C435.319 111.132 435.012 111.363 434.622 111.521C434.233 111.673 433.79 111.749 433.295 111.749ZM439.582 111.749C438.908 111.749 438.327 111.607 437.839 111.323C437.35 111.033 436.974 110.62 436.709 110.085C436.452 109.55 436.323 108.91 436.323 108.163C436.323 107.417 436.455 106.777 436.719 106.242C436.983 105.707 437.36 105.297 437.849 105.013C438.344 104.729 438.922 104.587 439.582 104.587C440.262 104.587 440.847 104.729 441.335 105.013C441.831 105.291 442.207 105.697 442.465 106.232C442.729 106.767 442.861 107.41 442.861 108.163C442.861 108.91 442.729 109.553 442.465 110.095C442.2 110.63 441.821 111.039 441.325 111.323C440.837 111.607 440.256 111.749 439.582 111.749ZM439.592 110.501C439.949 110.501 440.259 110.409 440.523 110.224C440.787 110.039 440.989 109.775 441.127 109.431C441.266 109.081 441.335 108.659 441.335 108.163C441.335 107.661 441.266 107.239 441.127 106.895C440.989 106.545 440.787 106.281 440.523 106.103C440.266 105.925 439.955 105.835 439.592 105.835C439.235 105.835 438.925 105.928 438.661 106.113C438.403 106.291 438.205 106.555 438.066 106.905C437.928 107.249 437.858 107.668 437.858 108.163C437.858 108.659 437.925 109.081 438.057 109.431C438.195 109.775 438.393 110.039 438.651 110.224C438.915 110.409 439.229 110.501 439.592 110.501Z" fill="white"/>
<rect x="196.244" y="35" width="256.756" height="86.1901" stroke="white" stroke-width="0.919477"/>
<rect x="328.32" y="96.2607" width="124.68" height="24.8303" stroke="white" stroke-width="0.919477"/>
<path d="M328.32 96.7205L196.244 96.7205V95.801L328.32 95.801V96.7205Z" fill="white"/>
</svg>
