<svg width="322" height="450" viewBox="0 0 322 450" fill="none" xmlns="http://www.w3.org/2000/svg">
<g clip-path="url(#clip0_2034_6842)">
<rect width="322" height="450" fill="#F8E7D6"/>
<rect x="-62" width="435" height="225" fill="#5E5F3C"/>
<rect x="-62" y="225" width="435" height="225" fill="#F8E7D6"/>
<path d="M233.365 377.953C227.148 377.953 223.752 374.065 223.752 368.02V364.239C223.752 358.129 227.148 354.327 233.365 354.327C239.602 354.327 242.999 358.129 242.999 364.239V368.02C242.999 374.065 239.581 377.953 233.365 377.953ZM233.365 372.591C234.582 372.591 235.18 371.566 235.18 369.366V362.936C235.18 360.714 234.582 359.668 233.365 359.668C232.168 359.668 231.57 360.714 231.57 362.936V369.366C231.57 371.566 232.168 372.591 233.365 372.591Z" fill="#5E5F3C"/>
<path d="M218.261 377.355H209.46L204.077 354.925H211.917L213.113 362.594C213.455 364.837 213.647 366.567 213.818 369.28H214.267C214.48 366.567 214.694 364.837 215.014 362.594L216.104 354.925H223.623L218.261 377.355Z" fill="#5E5F3C"/>
<path d="M202.947 353.195H195.278V347.812H202.947V353.195ZM202.947 377.355H195.278V354.925H202.947V377.355Z" fill="#5E5F3C"/>
<path d="M187.393 377.355H179.725V354.925H187.201C187.265 356.335 187.03 357.425 186.197 359.304L186.56 359.539C188.718 355.652 190.17 354.626 193.161 354.178L193.866 361.27C188.056 361.932 187.393 362.551 187.393 368.127V377.355Z" fill="#5E5F3C"/>
<path d="M168.338 377.932C161.951 377.932 158.896 374.664 158.896 367.871V364.41C158.896 357.617 161.973 354.349 168.36 354.349C174.555 354.349 177.673 357.147 177.716 363.684L170.069 364.218C170.047 360.672 169.513 359.646 168.36 359.646C167.228 359.646 166.715 360.672 166.715 362.893V369.409C166.715 371.609 167.249 372.634 168.402 372.634C169.556 372.634 170.111 371.523 170.111 367.764L177.908 368.34C177.78 375.048 174.426 377.932 168.338 377.932Z" fill="#5E5F3C"/>
<path d="M148.56 377.953C142.686 377.953 139.588 375.646 139.609 370.925L146.894 369.964C146.872 372.036 147.407 373.168 148.624 373.168C149.372 373.168 149.82 372.719 149.82 371.993C149.82 370.861 148.966 369.985 146.637 368.725L144.33 367.486C141.981 366.226 139.802 364.303 139.802 361.248C139.802 356.869 142.835 354.413 148.389 354.413C154.157 354.413 157.062 356.591 157.062 361.013L149.97 361.889C150.034 359.967 149.564 359.133 148.432 359.133C147.684 359.133 147.193 359.497 147.193 360.202C147.193 361.227 147.919 361.932 150.226 363.085L152.533 364.218C154.84 365.371 157.596 366.952 157.596 371.117C157.596 375.496 154.413 377.953 148.56 377.953Z" fill="#5E5F3C"/>
<path d="M132.492 353.195H124.823V347.812H132.492V353.195ZM132.492 377.355H124.823V354.925H132.492V377.355Z" fill="#5E5F3C"/>
<path d="M118.097 377.868C113.782 377.868 111.624 375.71 111.624 371.246V360.415H109.274V354.925H111.624V350.546L119.293 348.41V354.925H123.117V360.415H119.293V370.37C119.293 371.459 119.806 371.951 120.852 371.951C121.515 371.951 122.348 371.822 123.266 371.587L122.796 376.949C121.408 377.547 119.763 377.868 118.097 377.868Z" fill="#5E5F3C"/>
<path d="M162.508 305.06C158.94 305.06 156.847 302.731 156.847 299.164V299.079C156.847 293.781 161.012 292.392 164.302 291.538L167.57 290.683V288.526C167.57 287.351 167.207 286.774 166.353 286.774C165.391 286.774 164.836 287.543 164.879 290.577L157.274 290.192C157.188 284.531 160.115 281.477 166.438 281.477C172.056 281.477 175.218 283.869 175.218 288.59V298.609C175.218 299.634 175.517 299.826 176.798 299.826L176.029 304.846C175.56 304.974 174.876 305.06 174.321 305.06C170.24 305.06 168.809 303.714 169.172 300.104L168.745 300.019C168.019 303.372 166.118 305.06 162.508 305.06ZM165.733 299.378C166.908 299.378 167.57 298.181 167.57 296.323V294.849L166.502 295.212C165.434 295.575 164.537 296.387 164.537 297.647V297.797C164.537 298.886 164.943 299.378 165.733 299.378Z" fill="#5E5F3C"/>
<path d="M149.884 304.483H142.215V282.053H149.691C149.756 283.463 149.521 284.553 148.687 286.433L149.051 286.668C151.208 282.78 152.661 281.754 155.651 281.306L156.356 288.398C150.546 289.06 149.884 289.68 149.884 295.255V304.483Z" fill="#5E5F3C"/>
<path d="M126.622 305.06C123.054 305.06 120.961 302.731 120.961 299.164V299.079C120.961 293.781 125.126 292.392 128.416 291.538L131.685 290.683V288.526C131.685 287.351 131.321 286.774 130.467 286.774C129.506 286.774 128.95 287.543 128.993 290.577L121.388 290.192C121.303 284.531 124.229 281.477 130.552 281.477C136.17 281.477 139.332 283.869 139.332 288.59V298.609C139.332 299.634 139.631 299.826 140.913 299.826L140.144 304.846C139.674 304.974 138.99 305.06 138.435 305.06C134.355 305.06 132.923 303.714 133.287 300.104L132.859 300.019C132.133 303.372 130.232 305.06 126.622 305.06ZM129.847 299.378C131.022 299.378 131.685 298.181 131.685 296.323V294.849L130.616 295.212C129.548 295.575 128.651 296.387 128.651 297.647V297.797C128.651 298.886 129.057 299.378 129.847 299.378Z" fill="#5E5F3C"/>
<path d="M108.998 305.081C101.65 305.081 98.3174 300.916 98.3174 292.243V286.817C98.3174 278.166 101.735 274 108.998 274C115.962 274 119.594 277.461 119.658 285.792L112.267 286.838C112.267 281.669 111.263 280.088 109.148 280.088C107.14 280.088 106.157 281.69 106.157 284.98V294.037C106.157 297.348 107.14 298.95 109.169 298.95C111.07 298.95 112.202 297.242 112.267 291.666L119.786 293.204C119.636 301.642 115.749 305.081 108.998 305.081Z" fill="#5E5F3C"/>
<path d="M80.555 341.265C73.2076 341.265 69.8757 337.1 69.8757 328.428V323.003C69.8757 314.353 73.2931 310.188 80.555 310.188C87.5179 310.188 91.1489 313.648 91.2129 321.978L83.8229 323.024C83.8229 317.856 82.819 316.275 80.7045 316.275C78.6968 316.275 77.7143 317.877 77.7143 321.166V330.222C77.7143 333.533 78.6968 335.135 80.7259 335.135C82.6268 335.135 83.7588 333.426 83.8229 327.851L91.3411 329.389C91.1916 337.826 87.3043 341.265 80.555 341.265ZM100.888 340.667H93.2207V310.765H100.888V316.574C100.888 318.56 100.525 320.291 99.6069 322.512L100.013 322.704C101.529 319.5 103.686 317.941 106.698 317.941C110.158 317.941 111.824 319.671 111.824 323.259V340.667H104.156V325.053C104.156 323.857 103.729 323.281 102.896 323.281C101.572 323.281 100.888 324.883 100.888 327.745V340.667ZM121.649 316.51H113.981V311.128H121.649V316.51ZM121.649 340.667H113.981V318.24H121.649V340.667ZM133.183 341.265C126.967 341.265 123.571 337.377 123.571 331.333V327.552C123.571 321.444 126.967 317.642 133.183 317.642C139.419 317.642 142.815 321.444 142.815 327.552V331.333C142.815 337.377 139.398 341.265 133.183 341.265ZM133.183 335.904C134.4 335.904 134.998 334.878 134.998 332.679V326.25C134.998 324.028 134.4 322.982 133.183 322.982C131.987 322.982 131.388 324.028 131.388 326.25V332.679C131.388 334.878 131.987 335.904 133.183 335.904ZM153.11 334.045L156.335 334.665C159.582 335.284 163.576 336.181 163.576 341.436C163.576 346.562 160.073 348.74 152.961 348.74C146.596 348.74 143.456 347.138 143.456 343.742C143.456 341.457 144.503 340.09 147.471 339.62V339.065C145.613 338.339 144.31 337.078 144.31 334.9C144.31 333.042 145.549 331.76 147.792 331.376V330.948C145.613 329.752 144.481 327.723 144.481 324.925C144.481 320.226 147.664 317.706 153.537 317.706C154.669 317.706 155.695 317.792 156.613 317.984C155.118 313.819 157.062 311.106 162.23 310.807L162.764 317.023C159.304 317.322 158.364 317.642 158.428 318.518C161.12 319.607 162.551 321.786 162.551 324.925C162.551 329.603 159.368 332.145 153.537 332.145C152.234 332.145 151.06 332.016 150.035 331.781C149.65 331.91 149.458 332.102 149.458 332.444C149.458 333.042 149.885 333.426 153.11 334.045ZM153.516 321.978C152.491 321.978 152.042 322.811 152.042 324.925C152.042 327.04 152.491 327.873 153.537 327.873C154.541 327.873 154.99 327.04 154.99 324.925C154.99 322.811 154.541 321.978 153.516 321.978ZM153.431 343.593C156.293 343.593 157.339 343.315 157.339 342.226C157.339 341.265 156.741 340.816 153.516 340.304L150.291 339.791C150.248 339.791 150.227 339.77 150.184 339.77C149.223 340.282 148.838 340.902 148.838 341.692C148.838 343.123 149.949 343.593 153.431 343.593ZM173.871 334.045L177.096 334.665C180.342 335.284 184.336 336.181 184.336 341.436C184.336 346.562 180.834 348.74 173.721 348.74C167.356 348.74 164.217 347.138 164.217 343.742C164.217 341.457 165.263 340.09 168.232 339.62V339.065C166.374 338.339 165.071 337.078 165.071 334.9C165.071 333.042 166.31 331.76 168.552 331.376V330.948C166.374 329.752 165.242 327.723 165.242 324.925C165.242 320.226 168.424 317.706 174.298 317.706C175.43 317.706 176.455 317.792 177.374 317.984C175.878 313.819 177.822 311.106 182.991 310.807L183.525 317.023C180.065 317.322 179.125 317.642 179.189 318.518C181.88 319.607 183.311 321.786 183.311 324.925C183.311 329.603 180.129 332.145 174.298 332.145C172.995 332.145 171.82 332.016 170.795 331.781C170.411 331.91 170.218 332.102 170.218 332.444C170.218 333.042 170.646 333.426 173.871 334.045ZM174.277 321.978C173.251 321.978 172.803 322.811 172.803 324.925C172.803 327.04 173.251 327.873 174.298 327.873C175.302 327.873 175.75 327.04 175.75 324.925C175.75 322.811 175.302 321.978 174.277 321.978ZM174.191 343.593C177.053 343.593 178.1 343.315 178.1 342.226C178.1 341.265 177.502 340.816 174.277 340.304L171.051 339.791C171.009 339.791 170.987 339.77 170.945 339.77C169.983 340.282 169.599 340.902 169.599 341.692C169.599 343.123 170.71 343.593 174.191 343.593ZM193.115 316.51H185.447V311.128H193.115V316.51ZM193.115 340.667H185.447V318.24H193.115V340.667ZM200.313 341.243C196.746 341.243 194.653 338.915 194.653 335.348V335.263C194.653 329.966 198.818 328.578 202.107 327.723L205.375 326.869V324.712C205.375 323.537 205.012 322.96 204.157 322.96C203.196 322.96 202.641 323.729 202.683 326.762L195.08 326.378C194.994 320.718 197.921 317.663 204.243 317.663C209.86 317.663 213.021 320.056 213.021 324.776V334.793C213.021 335.818 213.32 336.01 214.602 336.01L213.833 341.03C213.363 341.158 212.679 341.243 212.124 341.243C208.044 341.243 206.613 339.898 206.977 336.288L206.549 336.203C205.823 339.556 203.922 341.243 200.313 341.243ZM203.538 335.562C204.713 335.562 205.375 334.366 205.375 332.508V331.034L204.307 331.397C203.239 331.76 202.342 332.572 202.342 333.832V333.981C202.342 335.071 202.748 335.562 203.538 335.562Z" fill="#B0A352"/>
<path d="M116.506 396.601H109.543V384.167H111.746V394.807H116.506V396.601ZM123.122 393.368L125.2 393.634C124.881 395.757 123.531 396.814 121.293 396.814C118.726 396.814 117.314 395.233 117.314 392.356V391.53C117.314 388.652 118.735 387.063 121.355 387.063C123.797 387.063 125.156 388.572 125.156 391.263C125.156 391.681 125.138 392.071 125.094 392.524H119.463V392.702C119.463 394.487 120.121 395.348 121.364 395.348C122.367 395.348 122.954 394.78 123.122 393.368ZM121.337 388.528C120.129 388.528 119.508 389.363 119.463 391.041H123.007V390.801C123.007 389.247 122.447 388.528 121.337 388.528ZM129.845 396.805C128.158 396.805 127.287 395.952 127.287 394.123V388.848H125.973V387.276H127.287V385.162L129.454 384.514V387.276H131.328V388.848H129.454V393.865C129.454 394.753 129.818 395.1 130.556 395.1C130.955 395.1 131.453 394.993 131.923 394.789L131.799 396.37C131.31 396.627 130.556 396.805 129.845 396.805ZM135.92 396.805C134.232 396.805 133.362 395.952 133.362 394.123V388.848H132.048V387.276H133.362V385.162L135.529 384.514V387.276H137.971V388.848H135.529V393.865C135.529 394.753 135.893 395.1 136.63 395.1C137.03 395.1 137.527 394.993 137.998 394.789L137.873 396.37C137.385 396.627 136.63 396.805 135.92 396.805ZM144.738 393.368L146.817 393.634C146.497 395.757 145.147 396.814 142.909 396.814C140.342 396.814 138.93 395.233 138.93 392.356V391.53C138.93 388.652 140.351 387.063 142.971 387.063C145.413 387.063 146.772 388.572 146.772 391.263C146.772 391.681 146.754 392.071 146.71 392.524H141.079V392.702C141.079 394.487 141.737 395.348 142.98 395.348C143.984 395.348 144.57 394.78 144.738 393.368ZM142.953 388.528C141.746 388.528 141.124 389.363 141.079 391.041H144.623V390.801C144.623 389.247 144.063 388.528 142.953 388.528ZM150.582 396.601H148.415V387.276H150.591C150.609 387.933 150.52 388.404 150.085 389.656L150.262 389.736C151.097 387.764 151.914 387.116 153.566 386.983L153.877 388.936C151.195 389.052 150.582 389.816 150.582 392.524V396.601ZM160.404 393.368L162.482 393.634C162.163 395.757 160.813 396.814 158.575 396.814C156.008 396.814 154.596 395.233 154.596 392.356V391.53C154.596 388.652 156.017 387.063 158.637 387.063C161.079 387.063 162.438 388.572 162.438 391.263C162.438 391.681 162.42 392.071 162.376 392.524H156.745V392.702C156.745 394.487 157.403 395.348 158.646 395.348C159.649 395.348 160.236 394.78 160.404 393.368ZM158.619 388.528C157.411 388.528 156.79 389.363 156.745 391.041H160.289V390.801C160.289 389.247 159.729 388.528 158.619 388.528ZM170.049 396.761C168.06 396.761 167.012 395.171 167.012 392.134V391.743C167.012 388.706 168.06 387.116 170.049 387.116C171.63 387.116 172.553 388.066 173.051 389.576L173.237 389.505C172.9 388.368 172.775 387.578 172.775 386.698V384.167H174.934V396.601H172.784C172.793 396.139 172.944 395.393 173.237 394.372L173.051 394.301C172.545 395.872 171.621 396.761 170.049 396.761ZM170.902 395.304C172.118 395.304 172.775 394.221 172.775 392.196V391.69C172.775 389.656 172.118 388.563 170.902 388.563C169.756 388.563 169.196 389.549 169.196 391.601V392.285C169.196 394.327 169.756 395.304 170.902 395.304ZM178.841 396.814C177.331 396.814 176.47 395.943 176.47 394.469V394.434C176.47 392.427 178.024 391.698 179.818 391.245L181.603 390.793V390.011C181.603 388.99 181.186 388.528 180.253 388.528C179.17 388.528 178.672 389.221 178.779 390.713L176.674 390.482C176.541 388.333 177.829 387.063 180.298 387.063C182.571 387.063 183.735 388.048 183.735 389.976V394.505C183.735 395.18 183.841 395.277 184.658 395.313L184.374 396.769C184.25 396.796 184.045 396.814 183.877 396.814C182.18 396.814 181.79 396.13 182.136 394.425L181.958 394.389C181.523 395.97 180.475 396.814 178.841 396.814ZM179.632 395.242C180.768 395.242 181.603 394.274 181.603 392.888V392.258L180.493 392.569C179.392 392.88 178.637 393.333 178.637 394.238V394.274C178.637 394.904 178.983 395.242 179.632 395.242ZM188.06 396.601H185.893V384.167H188.06V396.601ZM195.44 396.601H193.344V384.167H196.097L198.219 390.491C198.521 391.379 198.77 392.293 199.001 393.395H199.178C199.418 392.293 199.667 391.37 199.951 390.491L202.047 384.167H204.8V396.601H202.651V390.118C202.651 389.256 202.677 388.466 202.784 387.418L202.606 387.4L199.791 396.601H198.317L195.502 387.391L195.315 387.409C195.404 388.466 195.44 389.256 195.44 390.118V396.601ZM208.805 396.814C207.296 396.814 206.434 395.943 206.434 394.469V394.434C206.434 392.427 207.988 391.698 209.782 391.245L211.567 390.793V390.011C211.567 388.99 211.15 388.528 210.217 388.528C209.134 388.528 208.637 389.221 208.743 390.713L206.638 390.482C206.505 388.333 207.793 387.063 210.262 387.063C212.535 387.063 213.699 388.048 213.699 389.976V394.505C213.699 395.18 213.805 395.277 214.622 395.313L214.338 396.769C214.214 396.796 214.01 396.814 213.841 396.814C212.145 396.814 211.754 396.13 212.1 394.425L211.923 394.389C211.487 395.97 210.439 396.814 208.805 396.814ZM209.596 395.242C210.732 395.242 211.567 394.274 211.567 392.888V392.258L210.457 392.569C209.356 392.88 208.601 393.333 208.601 394.238V394.274C208.601 394.904 208.947 395.242 209.596 395.242ZM218.024 396.601H215.857V387.276H218.033C218.05 387.933 217.962 388.404 217.526 389.656L217.704 389.736C218.539 387.764 219.356 387.116 221.008 386.983L221.319 388.936C218.637 389.052 218.024 389.816 218.024 392.524V396.601ZM227.846 393.368L229.924 393.634C229.604 395.757 228.255 396.814 226.017 396.814C223.45 396.814 222.038 395.233 222.038 392.356V391.53C222.038 388.652 223.459 387.063 226.079 387.063C228.521 387.063 229.88 388.572 229.88 391.263C229.88 391.681 229.862 392.071 229.818 392.524H224.187V392.702C224.187 394.487 224.844 395.348 226.088 395.348C227.091 395.348 227.677 394.78 227.846 393.368ZM226.061 388.528C224.853 388.528 224.231 389.363 224.187 391.041H227.731V390.801C227.731 389.247 227.171 388.528 226.061 388.528Z" fill="#5E5F3C"/>
<path d="M233.365 152.953C227.148 152.953 223.752 149.065 223.752 143.02V139.239C223.752 133.129 227.148 129.327 233.365 129.327C239.602 129.327 242.999 133.129 242.999 139.239V143.02C242.999 149.065 239.581 152.953 233.365 152.953ZM233.365 147.591C234.582 147.591 235.18 146.566 235.18 144.366V137.936C235.18 135.714 234.582 134.667 233.365 134.667C232.168 134.667 231.57 135.714 231.57 137.936V144.366C231.57 146.566 232.168 147.591 233.365 147.591Z" fill="#F8E7D6"/>
<path d="M218.261 152.355H209.46L204.077 129.925H211.917L213.113 137.594C213.455 139.837 213.647 141.567 213.818 144.28H214.267C214.48 141.567 214.694 139.837 215.014 137.594L216.104 129.925H223.623L218.261 152.355Z" fill="#F8E7D6"/>
<path d="M202.947 128.195H195.278V122.812H202.947V128.195ZM202.947 152.355H195.278V129.925H202.947V152.355Z" fill="#F8E7D6"/>
<path d="M187.393 152.355H179.725V129.925H187.201C187.265 131.335 187.03 132.424 186.197 134.304L186.56 134.539C188.718 130.651 190.17 129.626 193.161 129.177L193.866 136.27C188.056 136.932 187.393 137.551 187.393 143.127V152.355Z" fill="#F8E7D6"/>
<path d="M168.338 152.932C161.951 152.932 158.896 149.663 158.896 142.87V139.41C158.896 132.617 161.973 129.349 168.36 129.349C174.555 129.349 177.673 132.147 177.716 138.684L170.069 139.218C170.047 135.672 169.513 134.646 168.36 134.646C167.228 134.646 166.715 135.672 166.715 137.893V144.408C166.715 146.609 167.249 147.634 168.402 147.634C169.556 147.634 170.111 146.523 170.111 142.764L177.908 143.34C177.78 150.048 174.426 152.932 168.338 152.932Z" fill="#F8E7D6"/>
<path d="M148.56 152.953C142.686 152.953 139.588 150.646 139.609 145.925L146.894 144.964C146.872 147.036 147.407 148.168 148.624 148.168C149.372 148.168 149.82 147.719 149.82 146.993C149.82 145.861 148.966 144.985 146.637 143.725L144.33 142.486C141.981 141.225 139.802 139.303 139.802 136.248C139.802 131.869 142.835 129.412 148.389 129.412C154.157 129.412 157.062 131.591 157.062 136.013L149.97 136.889C150.034 134.966 149.564 134.133 148.432 134.133C147.684 134.133 147.193 134.496 147.193 135.201C147.193 136.227 147.919 136.932 150.226 138.085L152.533 139.217C154.84 140.371 157.596 141.952 157.596 146.117C157.596 150.496 154.413 152.953 148.56 152.953Z" fill="#F8E7D6"/>
<path d="M132.492 128.195H124.823V122.812H132.492V128.195ZM132.492 152.355H124.823V129.925H132.492V152.355Z" fill="#F8E7D6"/>
<path d="M118.097 152.868C113.782 152.868 111.624 150.71 111.624 146.246V135.415H109.274V129.925H111.624V125.546L119.293 123.41V129.925H123.117V135.415H119.293V145.37C119.293 146.459 119.806 146.95 120.852 146.95C121.515 146.95 122.348 146.822 123.266 146.587L122.796 151.949C121.408 152.547 119.763 152.868 118.097 152.868Z" fill="#F8E7D6"/>
<path d="M162.508 80.0599C158.94 80.0599 156.847 77.7315 156.847 74.1641V74.0786C156.847 68.7809 161.012 67.3924 164.302 66.5379L167.57 65.6835V63.5259C167.57 62.3511 167.207 61.7743 166.353 61.7743C165.391 61.7743 164.836 62.5433 164.879 65.5767L157.274 65.1922C157.188 59.5313 160.115 56.4766 166.438 56.4766C172.056 56.4766 175.218 58.8691 175.218 63.59V73.6087C175.218 74.634 175.517 74.8263 176.798 74.8263L176.029 79.8463C175.56 79.9744 174.876 80.0599 174.321 80.0599C170.24 80.0599 168.809 78.7141 169.172 75.104L168.745 75.0185C168.019 78.3723 166.118 80.0599 162.508 80.0599ZM165.733 74.3777C166.908 74.3777 167.57 73.1814 167.57 71.323V69.849L166.502 70.2122C165.434 70.5753 164.537 71.387 164.537 72.6474V72.7969C164.537 73.8864 164.943 74.3777 165.733 74.3777Z" fill="#F8E7D6"/>
<path d="M149.884 79.4835H142.215V57.0537H149.691C149.756 58.4636 149.521 59.553 148.687 61.4328L149.051 61.6678C151.208 57.78 152.661 56.7546 155.651 56.306L156.356 63.3981C150.546 64.0603 149.884 64.6798 149.884 70.2552V79.4835Z" fill="#F8E7D6"/>
<path d="M126.622 80.0599C123.054 80.0599 120.961 77.7315 120.961 74.1641V74.0786C120.961 68.7809 125.126 67.3924 128.416 66.5379L131.685 65.6835V63.5259C131.685 62.3511 131.321 61.7743 130.467 61.7743C129.506 61.7743 128.95 62.5433 128.993 65.5767L121.388 65.1922C121.303 59.5313 124.229 56.4766 130.552 56.4766C136.17 56.4766 139.332 58.8691 139.332 63.59V73.6087C139.332 74.634 139.631 74.8263 140.913 74.8263L140.144 79.8463C139.674 79.9744 138.99 80.0599 138.435 80.0599C134.355 80.0599 132.923 78.7141 133.287 75.104L132.859 75.0185C132.133 78.3723 130.232 80.0599 126.622 80.0599ZM129.847 74.3777C131.022 74.3777 131.685 73.1814 131.685 71.323V69.849L130.616 70.2122C129.548 70.5753 128.651 71.387 128.651 72.6474V72.7969C128.651 73.8864 129.057 74.3777 129.847 74.3777Z" fill="#F8E7D6"/>
<path d="M108.998 80.0813C101.65 80.0813 98.3174 75.9157 98.3174 67.2429V61.817C98.3174 53.1655 101.735 49 108.998 49C115.962 49 119.594 52.4606 119.658 60.7917L112.267 61.8384C112.267 56.6688 111.263 55.0881 109.148 55.0881C107.14 55.0881 106.157 56.6902 106.157 59.9799V69.0373C106.157 72.3483 107.14 73.9505 109.169 73.9505C111.07 73.9505 112.202 72.2415 112.267 66.6661L119.786 68.2042C119.636 76.642 115.749 80.0813 108.998 80.0813Z" fill="#F8E7D6"/>
<path d="M80.555 116.265C73.2076 116.265 69.8757 112.1 69.8757 103.428V98.0031C69.8757 89.3529 73.2931 85.188 80.555 85.188C87.5179 85.188 91.1489 88.6481 91.2129 96.9779L83.8229 98.0245C83.8229 92.8557 82.819 91.2752 80.7045 91.2752C78.6968 91.2752 77.7143 92.8771 77.7143 96.1663V105.222C77.7143 108.533 78.6968 110.135 80.7259 110.135C82.6268 110.135 83.7588 108.426 83.8229 102.852L91.3411 104.389C91.1916 112.826 87.3043 116.265 80.555 116.265ZM100.888 115.667H93.2207V85.7646H100.888V91.5742C100.888 93.5605 100.525 95.2906 99.6069 97.5119L100.013 97.7041C101.529 94.5003 103.686 92.9411 106.698 92.9411C110.158 92.9411 111.824 94.6712 111.824 98.2594V115.667H104.156V100.054C104.156 98.8575 103.729 98.2808 102.896 98.2808C101.572 98.2808 100.888 99.8827 100.888 102.745V115.667ZM121.649 91.5101H113.981V86.1277H121.649V91.5101ZM121.649 115.667H113.981V93.2402H121.649V115.667ZM133.183 116.265C126.967 116.265 123.571 112.377 123.571 106.333V102.553C123.571 96.4439 126.967 92.6421 133.183 92.6421C139.419 92.6421 142.815 96.4439 142.815 102.553V106.333C142.815 112.377 139.398 116.265 133.183 116.265ZM133.183 110.904C134.4 110.904 134.998 109.879 134.998 107.679V101.25C134.998 99.0283 134.4 97.9818 133.183 97.9818C131.987 97.9818 131.388 99.0283 131.388 101.25V107.679C131.388 109.879 131.987 110.904 133.183 110.904ZM153.11 109.046L156.335 109.665C159.582 110.284 163.576 111.181 163.576 116.436C163.576 121.562 160.073 123.74 152.961 123.74C146.596 123.74 143.456 122.138 143.456 118.742C143.456 116.457 144.503 115.09 147.471 114.62V114.065C145.613 113.339 144.31 112.078 144.31 109.9C144.31 108.042 145.549 106.76 147.792 106.376V105.949C145.613 104.752 144.481 102.723 144.481 99.9254C144.481 95.2265 147.664 92.7062 153.537 92.7062C154.669 92.7062 155.695 92.7916 156.613 92.9839C155.118 88.8189 157.062 86.1064 162.23 85.8074L162.764 92.0227C159.304 92.3217 158.364 92.6421 158.428 93.5178C161.12 94.6071 162.551 96.7857 162.551 99.9254C162.551 104.603 159.368 107.145 153.537 107.145C152.234 107.145 151.06 107.016 150.035 106.782C149.65 106.91 149.458 107.102 149.458 107.444C149.458 108.042 149.885 108.426 153.11 109.046ZM153.516 96.9779C152.491 96.9779 152.042 97.8109 152.042 99.9254C152.042 102.04 152.491 102.873 153.537 102.873C154.541 102.873 154.99 102.04 154.99 99.9254C154.99 97.8109 154.541 96.9779 153.516 96.9779ZM153.431 118.593C156.293 118.593 157.339 118.315 157.339 117.226C157.339 116.265 156.741 115.816 153.516 115.304L150.291 114.791C150.248 114.791 150.227 114.77 150.184 114.77C149.223 115.282 148.838 115.902 148.838 116.692C148.838 118.123 149.949 118.593 153.431 118.593ZM173.871 109.046L177.096 109.665C180.342 110.284 184.336 111.181 184.336 116.436C184.336 121.562 180.834 123.74 173.721 123.74C167.356 123.74 164.217 122.138 164.217 118.742C164.217 116.457 165.263 115.09 168.232 114.62V114.065C166.374 113.339 165.071 112.078 165.071 109.9C165.071 108.042 166.31 106.76 168.552 106.376V105.949C166.374 104.752 165.242 102.723 165.242 99.9254C165.242 95.2265 168.424 92.7062 174.298 92.7062C175.43 92.7062 176.455 92.7916 177.374 92.9839C175.878 88.8189 177.822 86.1064 182.991 85.8074L183.525 92.0227C180.065 92.3217 179.125 92.6421 179.189 93.5178C181.88 94.6071 183.311 96.7857 183.311 99.9254C183.311 104.603 180.129 107.145 174.298 107.145C172.995 107.145 171.82 107.016 170.795 106.782C170.411 106.91 170.218 107.102 170.218 107.444C170.218 108.042 170.646 108.426 173.871 109.046ZM174.277 96.9779C173.251 96.9779 172.803 97.8109 172.803 99.9254C172.803 102.04 173.251 102.873 174.298 102.873C175.302 102.873 175.75 102.04 175.75 99.9254C175.75 97.8109 175.302 96.9779 174.277 96.9779ZM174.191 118.593C177.053 118.593 178.1 118.315 178.1 117.226C178.1 116.265 177.502 115.816 174.277 115.304L171.051 114.791C171.009 114.791 170.987 114.77 170.945 114.77C169.983 115.282 169.599 115.902 169.599 116.692C169.599 118.123 170.71 118.593 174.191 118.593ZM193.115 91.5101H185.447V86.1277H193.115V91.5101ZM193.115 115.667H185.447V93.2402H193.115V115.667ZM200.313 116.243C196.746 116.243 194.653 113.915 194.653 110.348V110.263C194.653 104.966 198.818 103.578 202.107 102.723L205.375 101.869V99.7118C205.375 98.5371 205.012 97.9604 204.157 97.9604C203.196 97.9604 202.641 98.7293 202.683 101.762L195.08 101.378C194.994 95.7178 197.921 92.6635 204.243 92.6635C209.86 92.6635 213.021 95.0556 213.021 99.7759V109.793C213.021 110.818 213.32 111.011 214.602 111.011L213.833 116.03C213.363 116.158 212.679 116.243 212.124 116.243C208.044 116.243 206.613 114.898 206.977 111.288L206.549 111.203C205.823 114.556 203.922 116.243 200.313 116.243ZM203.538 110.562C204.713 110.562 205.375 109.366 205.375 107.508V106.034L204.307 106.397C203.239 106.76 202.342 107.572 202.342 108.832V108.981C202.342 110.071 202.748 110.562 203.538 110.562Z" fill="#B0A352"/>
<path d="M116.506 171.601H109.543V159.168H111.746V169.807H116.506V171.601ZM123.122 168.368L125.2 168.635C124.881 170.757 123.531 171.814 121.293 171.814C118.726 171.814 117.314 170.233 117.314 167.356V166.53C117.314 163.653 118.735 162.063 121.355 162.063C123.797 162.063 125.156 163.573 125.156 166.264C125.156 166.681 125.138 167.072 125.094 167.525H119.463V167.702C119.463 169.487 120.121 170.349 121.364 170.349C122.367 170.349 122.954 169.78 123.122 168.368ZM121.337 163.528C120.129 163.528 119.508 164.363 119.463 166.042H123.007V165.802C123.007 164.248 122.447 163.528 121.337 163.528ZM129.845 171.805C128.158 171.805 127.287 170.953 127.287 169.123V163.848H125.973V162.276H127.287V160.162L129.454 159.514V162.276H131.328V163.848H129.454V168.866C129.454 169.754 129.818 170.1 130.556 170.1C130.955 170.1 131.453 169.994 131.923 169.789L131.799 171.37C131.31 171.628 130.556 171.805 129.845 171.805ZM135.92 171.805C134.232 171.805 133.362 170.953 133.362 169.123V163.848H132.048V162.276H133.362V160.162L135.529 159.514V162.276H137.971V163.848H135.529V168.866C135.529 169.754 135.893 170.1 136.63 170.1C137.03 170.1 137.527 169.994 137.998 169.789L137.873 171.37C137.385 171.628 136.63 171.805 135.92 171.805ZM144.738 168.368L146.817 168.635C146.497 170.757 145.147 171.814 142.909 171.814C140.342 171.814 138.93 170.233 138.93 167.356V166.53C138.93 163.653 140.351 162.063 142.971 162.063C145.413 162.063 146.772 163.573 146.772 166.264C146.772 166.681 146.754 167.072 146.71 167.525H141.079V167.702C141.079 169.487 141.737 170.349 142.98 170.349C143.984 170.349 144.57 169.78 144.738 168.368ZM142.953 163.528C141.746 163.528 141.124 164.363 141.079 166.042H144.623V165.802C144.623 164.248 144.063 163.528 142.953 163.528ZM150.582 171.601H148.415V162.276H150.591C150.609 162.933 150.52 163.404 150.085 164.656L150.262 164.736C151.097 162.764 151.914 162.116 153.566 161.983L153.877 163.937C151.195 164.052 150.582 164.816 150.582 167.525V171.601ZM160.404 168.368L162.482 168.635C162.163 170.757 160.813 171.814 158.575 171.814C156.008 171.814 154.596 170.233 154.596 167.356V166.53C154.596 163.653 156.017 162.063 158.637 162.063C161.079 162.063 162.438 163.573 162.438 166.264C162.438 166.681 162.42 167.072 162.376 167.525H156.745V167.702C156.745 169.487 157.403 170.349 158.646 170.349C159.649 170.349 160.236 169.78 160.404 168.368ZM158.619 163.528C157.411 163.528 156.79 164.363 156.745 166.042H160.289V165.802C160.289 164.248 159.729 163.528 158.619 163.528ZM170.049 171.761C168.06 171.761 167.012 170.171 167.012 167.134V166.743C167.012 163.706 168.06 162.116 170.049 162.116C171.63 162.116 172.553 163.066 173.051 164.576L173.237 164.505C172.9 163.368 172.775 162.578 172.775 161.699V159.168H174.934V171.601H172.784C172.793 171.139 172.944 170.393 173.237 169.372L173.051 169.301C172.545 170.873 171.621 171.761 170.049 171.761ZM170.902 170.304C172.118 170.304 172.775 169.221 172.775 167.196V166.69C172.775 164.656 172.118 163.564 170.902 163.564C169.756 163.564 169.196 164.55 169.196 166.601V167.285C169.196 169.327 169.756 170.304 170.902 170.304ZM178.841 171.814C177.331 171.814 176.47 170.944 176.47 169.47V169.434C176.47 167.427 178.024 166.699 179.818 166.246L181.603 165.793V165.011C181.603 163.99 181.186 163.528 180.253 163.528C179.17 163.528 178.672 164.221 178.779 165.713L176.674 165.482C176.541 163.333 177.829 162.063 180.298 162.063C182.571 162.063 183.735 163.049 183.735 164.976V169.505C183.735 170.18 183.841 170.278 184.658 170.313L184.374 171.77C184.25 171.796 184.045 171.814 183.877 171.814C182.18 171.814 181.79 171.13 182.136 169.425L181.958 169.39C181.523 170.97 180.475 171.814 178.841 171.814ZM179.632 170.242C180.768 170.242 181.603 169.274 181.603 167.889V167.258L180.493 167.569C179.392 167.88 178.637 168.333 178.637 169.239V169.274C178.637 169.905 178.983 170.242 179.632 170.242ZM188.06 171.601H185.893V159.168H188.06V171.601ZM195.44 171.601H193.344V159.168H196.097L198.219 165.491C198.521 166.379 198.77 167.294 199.001 168.395H199.178C199.418 167.294 199.667 166.37 199.951 165.491L202.047 159.168H204.8V171.601H202.651V165.118C202.651 164.256 202.677 163.466 202.784 162.418L202.606 162.4L199.791 171.601H198.317L195.502 162.391L195.315 162.409C195.404 163.466 195.44 164.256 195.44 165.118V171.601ZM208.805 171.814C207.296 171.814 206.434 170.944 206.434 169.47V169.434C206.434 167.427 207.988 166.699 209.782 166.246L211.567 165.793V165.011C211.567 163.99 211.15 163.528 210.217 163.528C209.134 163.528 208.637 164.221 208.743 165.713L206.638 165.482C206.505 163.333 207.793 162.063 210.262 162.063C212.535 162.063 213.699 163.049 213.699 164.976V169.505C213.699 170.18 213.805 170.278 214.622 170.313L214.338 171.77C214.214 171.796 214.01 171.814 213.841 171.814C212.145 171.814 211.754 171.13 212.1 169.425L211.923 169.39C211.487 170.97 210.439 171.814 208.805 171.814ZM209.596 170.242C210.732 170.242 211.567 169.274 211.567 167.889V167.258L210.457 167.569C209.356 167.88 208.601 168.333 208.601 169.239V169.274C208.601 169.905 208.947 170.242 209.596 170.242ZM218.024 171.601H215.857V162.276H218.033C218.05 162.933 217.962 163.404 217.526 164.656L217.704 164.736C218.539 162.764 219.356 162.116 221.008 161.983L221.319 163.937C218.637 164.052 218.024 164.816 218.024 167.525V171.601ZM227.846 168.368L229.924 168.635C229.604 170.757 228.255 171.814 226.017 171.814C223.45 171.814 222.038 170.233 222.038 167.356V166.53C222.038 163.653 223.459 162.063 226.079 162.063C228.521 162.063 229.88 163.573 229.88 166.264C229.88 166.681 229.862 167.072 229.818 167.525H224.187V167.702C224.187 169.487 224.844 170.349 226.088 170.349C227.091 170.349 227.677 169.78 227.846 168.368ZM226.061 163.528C224.853 163.528 224.231 164.363 224.187 166.042H227.731V165.802C227.731 164.248 227.171 163.528 226.061 163.528Z" fill="#F8E7D6"/>
</g>
<defs>
<clipPath id="clip0_2034_6842">
<rect width="322" height="450" fill="white"/>
</clipPath>
</defs>
</svg>
