<svg width="736" height="450" viewBox="0 0 736 450" fill="none" xmlns="http://www.w3.org/2000/svg">
<rect width="736" height="450" fill="#F8E7D6"/>
<rect x="61.4421" y="122.138" width="628.685" height="60.9123" rx="10.4003" fill="#E4D5C6" stroke="#B0A352" stroke-width="3.07556"/>
<path d="M182 152H593" stroke="#5E5F3C" stroke-width="3.41301"/>
<rect x="100" y="56" width="104.887" height="35.5896" rx="4.77521" fill="#5E5F3C"/>
<path d="M123.16 82.2948H113.441V63.6805H117.695V78.8112H123.16V82.2948ZM127.441 82.6272C125.287 82.6272 124.024 81.2444 124.024 79.0772V78.9841C124.024 75.7931 126.444 74.8757 128.558 74.2906L130.659 73.6923V72.2564C130.659 71.3389 130.353 70.9002 129.648 70.9002C128.824 70.9002 128.412 71.5118 128.465 73.5992L124.303 73.3333C124.237 69.8631 125.979 68.0017 129.688 68.0017C133.012 68.0017 134.834 69.4376 134.834 72.2697V78.8644C134.834 79.5824 135.02 79.7154 135.884 79.7287L135.445 82.5208C135.193 82.5873 134.807 82.6272 134.515 82.6272C132.068 82.6272 131.284 81.7762 131.589 79.5026L131.324 79.4494C130.845 81.5635 129.622 82.6272 127.441 82.6272ZM129.156 79.5159C130.074 79.5159 130.659 78.6118 130.659 77.2423V76.0989L129.781 76.3914C128.93 76.6839 128.252 77.2556 128.252 78.2395V78.3592C128.252 79.1303 128.558 79.5159 129.156 79.5159ZM141.136 82.2948H136.934V68.3341H141.003C140.99 69.185 140.857 69.8365 140.378 71.1129L140.631 71.2326C141.561 69.1318 142.891 68.1479 144.766 68.1479C146.88 68.1479 147.917 69.2382 147.917 71.432V82.2948H143.715V72.3893C143.715 71.5251 143.383 71.0863 142.731 71.0863C141.721 71.0863 141.136 72.3095 141.136 74.3438V82.2948ZM152.983 82.4809C150.549 82.4809 149.313 80.6461 149.313 76.9099V73.7189C149.313 69.9828 150.549 68.1479 152.956 68.1479C154.95 68.1479 156.081 69.2648 156.812 71.1927L157.078 71.0597C156.572 69.544 156.386 68.467 156.386 67.0842V63.6805H160.588V82.2948H156.479C156.506 81.7496 156.705 80.8455 157.118 79.5558L156.852 79.4627C156.134 81.3906 155.03 82.4809 152.983 82.4809ZM154.857 79.6489C155.868 79.6489 156.386 78.6517 156.386 76.6972V73.9582C156.386 72.0037 155.868 70.9799 154.871 70.9799C153.966 70.9799 153.528 71.8043 153.528 73.5062V77.1493C153.528 78.8245 153.966 79.6489 154.857 79.6489ZM166.505 67.0842H162.223V63.9464H166.505V67.0842ZM166.478 82.2948H162.276V68.3341H166.478V82.2948ZM172.381 82.2948H168.18V68.3341H172.248C172.235 69.185 172.102 69.8365 171.623 71.1129L171.876 71.2326C172.807 69.1318 174.136 68.1479 176.011 68.1479C178.125 68.1479 179.162 69.2382 179.162 71.432V82.2948H174.961V72.3893C174.961 71.5251 174.628 71.0863 173.977 71.0863C172.966 71.0863 172.381 72.3095 172.381 74.3438V82.2948ZM185.664 78.3459L187.618 78.7182C189.586 79.0905 192.006 79.6888 192.006 82.8532C192.006 85.9246 189.932 87.294 185.717 87.294C181.888 87.294 180.013 86.2702 180.013 84.0897C180.013 82.6272 180.678 81.7629 182.433 81.4305V81.1114C181.303 80.6594 180.505 79.9148 180.505 78.6118C180.505 77.4949 181.236 76.7238 182.606 76.4978V76.2318C181.356 75.4873 180.691 74.2374 180.691 72.4957C180.691 69.5706 182.566 68.015 186.023 68.015C186.688 68.015 187.286 68.0681 187.831 68.1878C187.047 65.7281 188.203 64.0794 191.235 63.8799L191.567 67.4033C189.453 67.6028 188.855 67.8155 188.908 68.5202C190.477 69.1983 191.315 70.5412 191.315 72.4957C191.315 75.4341 189.453 76.9897 186.023 76.9897C185.238 76.9897 184.534 76.9099 183.922 76.7504C183.55 76.8434 183.377 76.9897 183.377 77.2689C183.377 77.721 183.709 77.9869 185.664 78.3459ZM186.01 70.3949C185.212 70.3949 184.84 70.9932 184.84 72.4957C184.84 74.0114 185.212 74.6097 186.023 74.6097C186.807 74.6097 187.166 74.0114 187.166 72.4957C187.166 70.9932 186.807 70.3949 186.01 70.3949ZM185.97 84.4354C187.831 84.4354 188.562 84.1163 188.562 83.292C188.562 82.4809 188.044 82.1485 186.089 81.8427L184.135 81.5369L184.042 81.5236C183.284 81.8826 183.005 82.348 183.005 82.9862C183.005 84.0365 183.763 84.4354 185.97 84.4354Z" fill="white"/>
<rect x="81.9102" y="134.448" width="140.753" height="35.5507" rx="4.77521" fill="#5E5F3C"/>
<path d="M104.004 160.724H94.2843V142.109H98.539V157.24H104.004V160.724ZM116.129 154.78H109.096V155.897C109.096 157.426 109.588 158.158 110.638 158.158C111.529 158.158 112.114 157.599 112.154 155.738L116.129 156.123C116.01 159.474 113.869 161.069 110.585 161.056C106.915 161.056 104.948 158.929 104.948 154.98V152.573C104.948 148.585 106.942 146.431 110.705 146.431C114.295 146.431 116.223 148.491 116.223 152.188C116.223 152.879 116.196 153.969 116.129 154.78ZM110.612 149.329C109.588 149.329 109.096 150.167 109.096 151.762V152.294H112.021V151.337C112.021 149.967 111.556 149.329 110.612 149.329ZM122.232 161.029C119.666 161.029 118.403 159.753 118.403 157.081V149.794H116.847V146.763H118.403V143.904L122.591 142.694V146.763H124.559V149.794H122.591V156.602C122.591 157.413 122.977 157.759 123.708 157.759C124.16 157.759 124.719 157.666 125.304 157.479L125.038 160.458C124.253 160.817 123.23 161.029 122.232 161.029ZM130.702 161.029C128.149 161.029 126.886 159.753 126.886 157.081V149.794H125.33V146.763H126.886V143.904L131.074 142.694V146.763H133.68V149.794H131.074V156.602C131.074 157.413 131.433 157.759 132.164 157.759C132.616 157.759 133.162 157.666 133.76 157.479L133.494 160.458C132.709 160.817 131.699 161.029 130.702 161.029ZM145.7 154.78H138.666V155.897C138.666 157.426 139.158 158.158 140.208 158.158C141.099 158.158 141.684 157.599 141.724 155.738L145.7 156.123C145.58 159.474 143.439 161.069 140.155 161.056C136.486 161.056 134.518 158.929 134.518 154.98V152.573C134.518 148.585 136.512 146.431 140.275 146.431C143.865 146.431 145.793 148.491 145.793 152.188C145.793 152.879 145.766 153.969 145.7 154.78ZM140.182 149.329C139.158 149.329 138.666 150.167 138.666 151.762V152.294H141.591V151.337C141.591 149.967 141.126 149.329 140.182 149.329ZM151.443 160.724H147.242V146.763H151.364C151.404 147.627 151.257 148.292 150.725 149.595L150.965 149.741C152.215 147.268 153.159 146.577 155.087 146.324L155.525 150.22C151.949 150.566 151.443 151.137 151.443 154.687V160.724ZM163.357 154.661H156.443V151.337H163.357V154.661ZM172.517 146.577C174.951 146.577 176.187 148.412 176.187 152.148V155.339C176.187 159.075 174.951 160.91 172.544 160.91C170.563 160.91 169.419 159.793 168.688 157.865L168.422 157.998C168.928 159.514 169.127 160.591 169.127 161.974V165.377H164.925V146.763H169.021C169.007 147.308 168.808 148.212 168.382 149.502L168.662 149.595C169.366 147.667 170.483 146.577 172.517 146.577ZM170.643 149.409C169.632 149.409 169.127 150.406 169.127 152.361V155.1C169.127 157.054 169.632 158.078 170.643 158.078C171.534 158.078 171.986 157.253 171.986 155.552V151.909C171.986 150.233 171.534 149.409 170.643 149.409ZM180.588 161.056C178.434 161.056 177.171 159.673 177.171 157.506V157.413C177.171 154.222 179.591 153.305 181.705 152.72L183.806 152.121V150.685C183.806 149.768 183.5 149.329 182.795 149.329C181.971 149.329 181.559 149.941 181.612 152.028L177.45 151.762C177.384 148.292 179.126 146.431 182.835 146.431C186.159 146.431 187.981 147.867 187.981 150.699V157.293C187.981 158.011 188.167 158.144 189.031 158.158L188.592 160.95C188.34 161.016 187.954 161.056 187.661 161.056C185.215 161.056 184.431 160.205 184.736 157.932L184.47 157.878C183.992 159.992 182.769 161.056 180.588 161.056ZM182.303 157.945C183.221 157.945 183.806 157.041 183.806 155.671V154.528L182.928 154.82C182.077 155.113 181.399 155.685 181.399 156.668V156.788C181.399 157.559 181.705 157.945 182.303 157.945ZM194.389 161.029C191.836 161.029 190.573 159.753 190.573 157.081V149.794H189.018V146.763H190.573V143.904L194.762 142.694V146.763H197.368V149.794H194.762V156.602C194.762 157.413 195.12 157.759 195.852 157.759C196.304 157.759 196.849 157.666 197.447 157.479L197.181 160.458C196.397 160.817 195.386 161.029 194.389 161.029ZM202.819 160.724H198.617V142.109H202.819V145.885C202.819 147.095 202.606 148.132 202.061 149.542L202.314 149.661C203.244 147.561 204.587 146.577 206.449 146.577C208.563 146.577 209.6 147.667 209.6 149.861V160.724H205.398V150.832C205.398 149.954 205.066 149.515 204.414 149.515C203.404 149.515 202.819 150.738 202.819 152.773V160.724Z" fill="white"/>
<rect x="311.96" y="134.448" width="166.753" height="35.5507" rx="4.77521" fill="#5E5F3C"/>
<path d="M334.053 160.724H324.334V142.109H328.589V157.24H334.053V160.724ZM346.179 154.78H339.146V155.897C339.146 157.426 339.638 158.158 340.688 158.158C341.579 158.158 342.164 157.599 342.204 155.738L346.179 156.123C346.06 159.474 343.919 161.069 340.635 161.056C336.965 161.056 334.997 158.929 334.997 154.98V152.573C334.997 148.585 336.992 146.431 340.755 146.431C344.344 146.431 346.272 148.492 346.272 152.188C346.272 152.879 346.246 153.969 346.179 154.78ZM340.661 149.329C339.638 149.329 339.146 150.167 339.146 151.762V152.294H342.071V151.337C342.071 149.967 341.605 149.329 340.661 149.329ZM352.282 161.03C349.716 161.03 348.453 159.753 348.453 157.081V149.795H346.897V146.763H348.453V143.904L352.641 142.694V146.763H354.609V149.795H352.641V156.602C352.641 157.413 353.027 157.759 353.758 157.759C354.21 157.759 354.768 157.666 355.353 157.48L355.088 160.458C354.303 160.817 353.279 161.03 352.282 161.03ZM360.752 161.03C358.199 161.03 356.936 159.753 356.936 157.081V149.795H355.38V146.763H356.936V143.904L361.124 142.694V146.763H363.73V149.795H361.124V156.602C361.124 157.413 361.483 157.759 362.214 157.759C362.666 157.759 363.211 157.666 363.81 157.48L363.544 160.458C362.759 160.817 361.749 161.03 360.752 161.03ZM375.749 154.78H368.716V155.897C368.716 157.426 369.208 158.158 370.258 158.158C371.149 158.158 371.734 157.599 371.774 155.738L375.749 156.123C375.63 159.474 373.489 161.069 370.205 161.056C366.535 161.056 364.568 158.929 364.568 154.98V152.573C364.568 148.585 366.562 146.431 370.325 146.431C373.915 146.431 375.842 148.492 375.842 152.188C375.842 152.879 375.816 153.969 375.749 154.78ZM370.232 149.329C369.208 149.329 368.716 150.167 368.716 151.762V152.294H371.641V151.337C371.641 149.967 371.176 149.329 370.232 149.329ZM381.493 160.724H377.292V146.763H381.413C381.453 147.627 381.307 148.292 380.775 149.595L381.015 149.741C382.264 147.268 383.208 146.577 385.136 146.324L385.575 150.22C381.998 150.566 381.493 151.137 381.493 154.687V160.724ZM393.074 160.724H388.952L393.313 142.109H398.818L403.272 160.724H398.765L398.259 158.091H393.579L393.074 160.724ZM395.135 150.433L394.217 155.02H397.621L396.717 150.433C396.438 149.01 396.212 147.654 396.052 146.072H395.773C395.64 147.654 395.427 149.01 395.135 150.433ZM408.457 160.724H404.256V146.763H408.378C408.417 147.627 408.271 148.292 407.739 149.595L407.979 149.741C409.229 147.268 410.173 146.577 412.1 146.324L412.539 150.22C408.963 150.566 408.457 151.137 408.457 154.687V160.724ZM418.748 161.069C414.959 161.069 413.124 159.009 413.124 154.834V152.613C413.124 148.465 414.986 146.417 418.775 146.417C422.365 146.417 424.24 148.133 424.279 152.081L420.091 152.427C420.078 150.06 419.652 149.329 418.762 149.329C417.844 149.329 417.405 150.127 417.405 151.829V155.631C417.405 157.347 417.858 158.144 418.788 158.144C419.679 158.144 420.118 157.4 420.131 154.94L424.412 155.299C424.319 159.328 422.298 161.069 418.748 161.069ZM429.997 160.724H425.795V142.109H429.997V145.886C429.997 147.095 429.784 148.133 429.239 149.542L429.491 149.662C430.422 147.561 431.765 146.577 433.626 146.577C435.741 146.577 436.778 147.667 436.778 149.861V160.724H432.576V150.832C432.576 149.954 432.244 149.515 431.592 149.515C430.582 149.515 429.997 150.739 429.997 152.773V160.724ZM442.654 145.513H438.373V142.375H442.654V145.513ZM442.628 160.724H438.426V146.763H442.628V160.724ZM451.749 160.724H446.962L443.532 146.763H447.84L448.757 151.855C449.023 153.345 449.183 154.501 449.316 156.19H449.595C449.754 154.501 449.914 153.345 450.167 151.855L451.044 146.763H455.179L451.749 160.724ZM466.64 154.78H459.607V155.897C459.607 157.426 460.099 158.158 461.149 158.158C462.04 158.158 462.625 157.599 462.665 155.738L466.64 156.123C466.521 159.474 464.38 161.069 461.096 161.056C457.426 161.056 455.458 158.929 455.458 154.98V152.573C455.458 148.585 457.453 146.431 461.216 146.431C464.805 146.431 466.733 148.492 466.733 152.188C466.733 152.879 466.707 153.969 466.64 154.78ZM461.122 149.329C460.099 149.329 459.607 150.167 459.607 151.762V152.294H462.532V151.337C462.532 149.967 462.066 149.329 461.122 149.329Z" fill="white"/>
<rect x="568.01" y="134.448" width="84.7534" height="35.5507" rx="4.77521" fill="#5E5F3C"/>
<path d="M583.628 160.724H579.506L583.867 142.109H589.372L593.826 160.724H589.319L588.814 158.091H584.133L583.628 160.724ZM585.689 150.433L584.772 155.02H588.175L587.271 150.433C586.992 149.01 586.766 147.654 586.606 146.072H586.327C586.194 147.654 585.981 149.01 585.689 150.433ZM602.402 160.91C600.368 160.91 599.251 159.82 598.546 157.892L598.267 157.985C598.692 159.274 598.892 160.179 598.905 160.724H594.81V142.109H599.011V145.513C599.011 146.896 598.812 147.973 598.307 149.489L598.573 149.622C599.304 147.694 600.447 146.577 602.429 146.577C604.835 146.577 606.072 148.412 606.072 152.148V155.339C606.072 159.075 604.835 160.91 602.402 160.91ZM600.527 158.078C601.418 158.078 601.87 157.253 601.87 155.578V151.935C601.87 150.233 601.418 149.409 600.527 149.409C599.517 149.409 599.011 150.433 599.011 152.387V155.126C599.011 157.081 599.517 158.078 600.527 158.078ZM612.985 161.069C609.276 161.069 607.268 158.716 607.268 154.953V152.533C607.268 148.744 609.276 146.417 612.985 146.417C616.682 146.417 618.703 148.744 618.703 152.533V154.953C618.703 158.716 616.668 161.069 612.985 161.069ZM612.985 158.131C613.943 158.131 614.408 157.333 614.408 155.645V151.855C614.408 150.153 613.943 149.356 612.985 149.356C612.028 149.356 611.563 150.153 611.563 151.855V155.645C611.563 157.333 612.028 158.131 612.985 158.131ZM626.88 146.763H631.081V160.724H627.013C627.026 159.873 627.159 159.221 627.638 157.945L627.385 157.825C626.454 159.926 625.125 160.91 623.25 160.91C621.136 160.91 620.099 159.82 620.099 157.626V146.763H624.3V156.668C624.3 157.533 624.633 157.971 625.284 157.971C626.295 157.971 626.88 156.748 626.88 154.714V146.763ZM637.649 161.029C635.097 161.029 633.833 159.753 633.833 157.081V149.794H632.278V146.763H633.833V143.904L638.022 142.694V146.763H640.628V149.794H638.022V156.602C638.022 157.413 638.381 157.759 639.112 157.759C639.564 157.759 640.109 157.666 640.707 157.479L640.442 160.458C639.657 160.817 638.647 161.029 637.649 161.029Z" fill="white"/>
<path d="M152 89L152 134" stroke="#5E5F3C" stroke-width="3.41301"/>
<g clip-path="url(#clip0_2034_6821)">
<rect x="73.9248" y="257.472" width="156.795" height="21.0667" rx="2.38761" fill="#B0A352"/>
<path d="M139.484 273.202C136.854 273.202 135.515 271.926 135.326 269.43L137.232 269.068C137.35 270.981 138.059 271.737 139.57 271.737C140.728 271.737 141.452 271.202 141.452 270.257C141.452 269.383 140.893 268.981 139.531 268.462L138.2 267.95C136.767 267.399 135.657 266.674 135.657 264.855C135.665 262.902 137.027 261.784 139.271 261.784C141.744 261.784 142.925 263.052 143.051 265.28L141.248 265.619C141.2 264.013 140.563 263.241 139.208 263.241C138.185 263.241 137.5 263.761 137.5 264.587C137.5 265.422 137.917 265.816 139.389 266.375L140.728 266.887C142.098 267.414 143.374 268.076 143.374 269.973C143.374 271.95 141.901 273.202 139.484 273.202ZM147.524 273.186C146.027 273.186 145.256 272.43 145.256 270.808V266.131H144.09V264.737H145.256V262.863L147.177 262.288V264.737H149.343V266.131H147.177V270.58C147.177 271.367 147.5 271.674 148.153 271.674C148.508 271.674 148.949 271.58 149.366 271.399L149.256 272.8C148.823 273.029 148.153 273.186 147.524 273.186ZM152.319 273.194C150.98 273.194 150.217 272.422 150.217 271.115V271.084C150.217 269.304 151.595 268.658 153.185 268.257L154.768 267.855V267.162C154.768 266.257 154.398 265.847 153.571 265.847C152.61 265.847 152.169 266.461 152.264 267.784L150.398 267.58C150.28 265.674 151.421 264.548 153.61 264.548C155.626 264.548 156.658 265.422 156.658 267.131V271.147C156.658 271.745 156.752 271.832 157.477 271.863L157.225 273.155C157.114 273.178 156.933 273.194 156.784 273.194C155.28 273.194 154.933 272.588 155.24 271.076L155.083 271.044C154.697 272.446 153.768 273.194 152.319 273.194ZM153.02 271.8C154.028 271.8 154.768 270.942 154.768 269.714V269.154L153.784 269.43C152.807 269.706 152.138 270.107 152.138 270.91V270.942C152.138 271.501 152.445 271.8 153.02 271.8ZM160.493 273.005H158.571V264.737H160.5C160.516 265.32 160.437 265.737 160.052 266.847L160.209 266.918C160.949 265.17 161.674 264.595 163.138 264.477L163.414 266.209C161.036 266.312 160.493 266.989 160.493 269.391V273.005ZM167.493 273.186C165.997 273.186 165.225 272.43 165.225 270.808V266.131H164.06V264.737H165.225V262.863L167.146 262.288V264.737H169.312V266.131H167.146V270.58C167.146 271.367 167.469 271.674 168.123 271.674C168.477 271.674 168.918 271.58 169.335 271.399L169.225 272.8C168.792 273.029 168.123 273.186 167.493 273.186Z" fill="white"/>
<path d="M151.779 293.128C152.079 293.429 152.566 293.429 152.866 293.128L157.759 288.235C158.059 287.935 158.059 287.448 157.759 287.148C157.459 286.848 156.972 286.848 156.672 287.148L152.322 291.497L147.973 287.148C147.672 286.848 147.186 286.848 146.885 287.148C146.585 287.448 146.585 287.935 146.885 288.235L151.779 293.128ZM151.553 281.101L151.553 292.585L153.091 292.585L153.091 281.101L151.553 281.101Z" fill="#B0A352"/>
<rect x="73.9248" y="295.148" width="156.795" height="21.0667" rx="2.38761" fill="#B0A352"/>
<path d="M102.449 310.681H96.2751V299.657H98.2279V309.09H102.449V310.681ZM105.661 301.405H103.575V299.783H105.661V301.405ZM105.575 310.681H103.653V302.413H105.575V310.681ZM110.299 310.87C108.157 310.87 106.929 309.933 106.874 308.264L108.701 307.893C108.685 308.972 109.252 309.579 110.291 309.579C111.102 309.579 111.551 309.264 111.551 308.642C111.551 308.027 111.15 307.744 110.094 307.35L109.039 306.949C107.984 306.547 107.079 305.775 107.079 304.626C107.079 303.098 108.142 302.24 110.071 302.24C112.095 302.24 113.213 303.09 113.221 304.626L111.433 304.941C111.472 303.964 110.984 303.531 110.094 303.531C109.315 303.531 108.882 303.822 108.882 304.35C108.882 304.885 109.26 305.224 110.315 305.602L111.37 305.988C112.425 306.374 113.473 306.972 113.473 308.46C113.473 309.964 112.307 310.87 110.299 310.87ZM117.473 310.862C115.977 310.862 115.205 310.106 115.205 308.484V303.807H114.04V302.413H115.205V300.539L117.126 299.964V302.413H119.292V303.807H117.126V308.256C117.126 309.043 117.449 309.35 118.103 309.35C118.457 309.35 118.898 309.256 119.315 309.075L119.205 310.476C118.772 310.705 118.103 310.862 117.473 310.862ZM125.292 307.815L127.135 308.051C126.851 309.933 125.654 310.87 123.67 310.87C121.394 310.87 120.142 309.468 120.142 306.917V306.185C120.142 303.633 121.402 302.224 123.725 302.224C125.89 302.224 127.095 303.563 127.095 305.948C127.095 306.319 127.079 306.665 127.04 307.067H122.048V307.224C122.048 308.807 122.63 309.571 123.733 309.571C124.623 309.571 125.142 309.067 125.292 307.815ZM123.709 303.523C122.638 303.523 122.087 304.263 122.048 305.752H125.19V305.539C125.19 304.161 124.693 303.523 123.709 303.523ZM130.473 310.681H128.552V302.413H130.473C130.457 303.003 130.355 303.555 130.032 304.523L130.198 304.586C130.828 302.972 131.757 302.271 133.032 302.271C134.481 302.271 135.221 303.051 135.221 304.539V310.681H133.308V304.933C133.308 304.09 132.93 303.633 132.237 303.633C131.182 303.633 130.473 304.783 130.473 306.492V310.681ZM138.907 301.405H136.82V299.783H138.907V301.405ZM138.82 310.681H136.899V302.413H138.82V310.681ZM142.442 310.681H140.521V302.413H142.442C142.426 303.003 142.324 303.555 142.001 304.523L142.167 304.586C142.797 302.972 143.726 302.271 145.001 302.271C146.45 302.271 147.19 303.051 147.19 304.539V310.681H145.277V304.933C145.277 304.09 144.899 303.633 144.206 303.633C143.151 303.633 142.442 304.783 142.442 306.492V310.681ZM151.458 308.531L152.765 308.681C154.073 308.83 155.663 309.161 155.663 311.035C155.663 312.776 154.403 313.626 151.789 313.626C149.332 313.626 148.143 312.988 148.143 311.61C148.143 310.76 148.592 310.216 149.624 309.98V309.838C148.891 309.594 148.387 309.153 148.387 308.39C148.387 307.673 148.86 307.208 149.773 307.09V306.941C149.08 306.5 148.71 305.783 148.71 304.83C148.71 303.161 149.86 302.216 151.907 302.216C152.34 302.216 152.734 302.255 153.08 302.342C152.813 301.003 153.521 299.964 155.269 299.862L155.49 301.625C154.088 301.759 153.647 301.925 153.663 302.531C154.592 302.94 155.088 303.728 155.088 304.83C155.088 306.515 153.947 307.452 151.907 307.452C151.38 307.452 150.915 307.389 150.513 307.271C150.009 307.334 149.813 307.484 149.813 307.775C149.813 308.201 150.151 308.382 151.458 308.531ZM151.907 303.295C151.057 303.295 150.655 303.799 150.655 304.83C150.655 305.87 151.057 306.366 151.907 306.366C152.742 306.366 153.143 305.87 153.143 304.83C153.143 303.799 152.742 303.295 151.907 303.295ZM151.891 312.303C153.411 312.303 154.073 311.949 154.073 311.248C154.073 310.555 153.513 310.358 152.183 310.224L150.852 310.083C150.742 310.075 150.639 310.059 150.537 310.043C149.789 310.287 149.545 310.626 149.545 311.106C149.545 311.949 150.222 312.303 151.891 312.303ZM163.908 309.004H162.341V305.925H159.277V304.421H162.341V301.334H163.908V304.421H166.963V305.925H163.908V309.004ZM175.105 310.878C172.475 310.878 171.136 309.602 170.947 307.106L172.853 306.744C172.971 308.657 173.68 309.413 175.191 309.413C176.349 309.413 177.073 308.878 177.073 307.933C177.073 307.059 176.514 306.657 175.152 306.137L173.821 305.626C172.388 305.074 171.278 304.35 171.278 302.531C171.286 300.578 172.648 299.46 174.892 299.46C177.365 299.46 178.546 300.728 178.672 302.956L176.869 303.295C176.821 301.688 176.184 300.917 174.829 300.917C173.806 300.917 173.121 301.437 173.121 302.263C173.121 303.098 173.538 303.492 175.01 304.051L176.349 304.563C177.719 305.09 178.995 305.752 178.995 307.649C178.995 309.626 177.522 310.878 175.105 310.878ZM183.593 310.878C181.27 310.878 180.066 309.382 180.066 306.515V306.484C180.066 303.681 181.302 302.216 183.601 302.216C185.68 302.216 186.79 303.318 186.956 305.405L185.042 305.634C184.956 304.193 184.515 303.531 183.593 303.531C182.538 303.531 182.042 304.381 182.042 306.169V306.83C182.042 308.673 182.554 309.547 183.617 309.547C184.523 309.547 185.003 308.886 185.09 307.555L187.05 307.799C186.822 309.807 185.641 310.878 183.593 310.878ZM190.365 310.681H188.444V302.413H190.373C190.389 302.996 190.31 303.413 189.924 304.523L190.082 304.594C190.822 302.846 191.546 302.271 193.011 302.153L193.287 303.885C190.909 303.988 190.365 304.665 190.365 307.067V310.681ZM197.476 310.878C195.192 310.878 193.925 309.271 193.925 306.634V306.46C193.925 303.807 195.192 302.216 197.476 302.216C199.759 302.216 201.027 303.807 201.027 306.46V306.634C201.027 309.271 199.751 310.878 197.476 310.878ZM197.476 309.555C198.531 309.555 199.051 308.704 199.051 306.917V306.177C199.051 304.389 198.531 303.531 197.476 303.531C196.413 303.531 195.901 304.389 195.901 306.177V306.917C195.901 308.704 196.413 309.555 197.476 309.555ZM204.366 310.681H202.445V299.657H204.366V310.681ZM207.988 310.681H206.067V299.657H207.988V310.681Z" fill="white"/>
<path d="M151.779 330.804C152.079 331.105 152.566 331.105 152.866 330.804L157.759 325.911C158.059 325.611 158.059 325.124 157.759 324.824C157.459 324.523 156.972 324.523 156.672 324.824L152.322 329.173L147.973 324.824C147.672 324.523 147.186 324.523 146.885 324.824C146.585 325.124 146.585 325.611 146.885 325.911L151.779 330.804ZM151.553 318.777L151.553 330.261L153.091 330.261L153.091 318.777L151.553 318.777Z" fill="#B0A352"/>
<rect x="73.9248" y="332.824" width="156.795" height="21.0667" rx="2.38761" fill="#B0A352"/>
<path d="M121.834 348.357H115.275V337.333H121.669V338.916H117.228V341.908H121.307V343.309H117.228V346.766H121.834V348.357ZM124.606 348.357H122.496L125.055 344.199L122.653 340.089H124.803L125.74 341.9C125.945 342.309 126.039 342.53 126.134 342.79H126.283C126.378 342.522 126.488 342.262 126.701 341.861L127.638 340.089H129.717L127.283 344.065L129.882 348.357H127.693L126.646 346.388C126.457 346.042 126.331 345.751 126.228 345.459H126.079C125.984 345.735 125.858 346.026 125.669 346.38L124.606 348.357ZM135.197 339.947C136.961 339.947 137.89 341.357 137.89 344.05V344.396C137.89 347.089 136.961 348.499 135.197 348.499C133.795 348.499 132.969 347.656 132.536 346.317L132.37 346.38C132.662 347.388 132.78 348.089 132.78 348.869V351.113H130.858V340.089H132.772C132.756 340.498 132.63 341.16 132.37 342.065L132.536 342.12C132.977 340.735 133.803 339.947 135.197 339.947ZM134.441 341.239C133.362 341.239 132.78 342.199 132.78 343.995V344.443C132.78 346.247 133.362 347.215 134.441 347.215C135.449 347.215 135.953 346.341 135.953 344.522V343.916C135.953 342.105 135.449 341.239 134.441 341.239ZM141.237 348.357H139.315V337.333H141.237V348.357ZM146.205 348.554C143.922 348.554 142.654 346.947 142.654 344.31V344.136C142.654 341.483 143.922 339.892 146.205 339.892C148.489 339.892 149.757 341.483 149.757 344.136V344.31C149.757 346.947 148.481 348.554 146.205 348.554ZM146.205 347.231C147.261 347.231 147.78 346.38 147.78 344.593V343.853C147.78 342.065 147.261 341.207 146.205 341.207C145.142 341.207 144.631 342.065 144.631 343.853V344.593C144.631 346.38 145.142 347.231 146.205 347.231ZM153.095 348.357H151.174V340.089H153.103C153.119 340.672 153.04 341.089 152.654 342.199L152.812 342.27C153.552 340.522 154.277 339.947 155.741 339.829L156.017 341.561C153.639 341.664 153.095 342.341 153.095 344.743V348.357ZM158.765 348.546C157.426 348.546 156.662 347.774 156.662 346.467V346.436C156.662 344.656 158.04 344.01 159.631 343.609L161.214 343.207V342.514C161.214 341.609 160.844 341.199 160.017 341.199C159.056 341.199 158.615 341.813 158.71 343.136L156.844 342.931C156.725 341.026 157.867 339.9 160.056 339.9C162.072 339.9 163.104 340.774 163.104 342.483V346.499C163.104 347.097 163.198 347.184 163.923 347.215L163.671 348.507C163.56 348.53 163.379 348.546 163.23 348.546C161.726 348.546 161.379 347.94 161.686 346.428L161.529 346.396C161.143 347.798 160.214 348.546 158.765 348.546ZM159.466 347.152C160.474 347.152 161.214 346.294 161.214 345.065V344.506L160.23 344.782C159.253 345.058 158.584 345.459 158.584 346.262V346.294C158.584 346.853 158.891 347.152 159.466 347.152ZM167.655 348.538C166.159 348.538 165.387 347.782 165.387 346.16V341.483H164.222V340.089H165.387V338.215L167.309 337.64V340.089H169.474V341.483H167.309V345.932C167.309 346.719 167.631 347.026 168.285 347.026C168.639 347.026 169.08 346.932 169.498 346.751L169.387 348.152C168.954 348.381 168.285 348.538 167.655 348.538ZM172.71 339.081H170.624V337.459H172.71V339.081ZM172.624 348.357H170.702V340.089H172.624V348.357ZM177.592 348.554C175.309 348.554 174.041 346.947 174.041 344.31V344.136C174.041 341.483 175.309 339.892 177.592 339.892C179.876 339.892 181.144 341.483 181.144 344.136V344.31C181.144 346.947 179.868 348.554 177.592 348.554ZM177.592 347.231C178.648 347.231 179.167 346.38 179.167 344.593V343.853C179.167 342.065 178.648 341.207 177.592 341.207C176.529 341.207 176.018 342.065 176.018 343.853V344.593C176.018 346.38 176.529 347.231 177.592 347.231ZM184.482 348.357H182.561V340.089H184.482C184.467 340.679 184.364 341.231 184.041 342.199L184.207 342.262C184.837 340.648 185.766 339.947 187.042 339.947C188.49 339.947 189.231 340.727 189.231 342.215V348.357H187.317V342.609C187.317 341.766 186.939 341.309 186.246 341.309C185.191 341.309 184.482 342.459 184.482 344.168V348.357Z" fill="white"/>
<path d="M151.779 368.48C152.079 368.78 152.566 368.78 152.866 368.48L157.759 363.587C158.059 363.287 158.059 362.8 157.759 362.5C157.459 362.199 156.972 362.199 156.672 362.5L152.322 366.849L147.973 362.5C147.672 362.199 147.186 362.199 146.885 362.5C146.585 362.8 146.585 363.287 146.885 363.587L151.779 368.48ZM151.553 356.453L151.553 367.937L153.091 367.937L153.091 356.453L151.553 356.453Z" fill="#B0A352"/>
<rect x="73.9248" y="370.499" width="156.795" height="21.0667" rx="2.38761" fill="#B0A352"/>
<path d="M147.334 386.033H140.775V375.009H147.169V376.592H142.728V379.584H146.807V380.985H142.728V384.442H147.334V386.033ZM150.642 386.033H148.72V377.765H150.642C150.626 378.355 150.523 378.907 150.201 379.875L150.366 379.938C150.996 378.324 151.925 377.623 153.201 377.623C154.65 377.623 155.39 378.403 155.39 379.891V386.033H153.476V380.285C153.476 379.442 153.098 378.985 152.405 378.985C151.35 378.985 150.642 380.135 150.642 381.844V386.033ZM159.477 386.175C157.713 386.175 156.784 384.765 156.784 382.072V381.726C156.784 379.033 157.713 377.623 159.477 377.623C160.878 377.623 161.697 378.466 162.138 379.804L162.303 379.741C162.004 378.733 161.894 378.033 161.894 377.253V375.009H163.807V386.033H161.902C161.91 385.623 162.044 384.962 162.303 384.056L162.138 383.993C161.689 385.387 160.87 386.175 159.477 386.175ZM160.233 384.883C161.311 384.883 161.894 383.923 161.894 382.127V381.678C161.894 379.875 161.311 378.907 160.233 378.907C159.217 378.907 158.721 379.781 158.721 381.6V382.206C158.721 384.017 159.217 384.883 160.233 384.883Z" fill="white"/>
</g>
<g clip-path="url(#clip1_2034_6821)">
<rect x="320.365" y="257.649" width="156.795" height="21.0667" rx="2.38761" fill="#B0A352"/>
<path d="M375.342 273.182H373.428L376.696 262.158H379.098L382.389 273.182H380.318L379.712 271.025H375.948L375.342 273.182ZM377.137 266.552L376.302 269.576H379.365L378.531 266.552C378.271 265.615 378.082 264.835 377.901 263.922H377.735C377.578 264.835 377.397 265.615 377.137 266.552ZM385.326 273.182H383.405V264.914H385.334C385.35 265.497 385.271 265.914 384.885 267.025L385.043 267.095C385.783 265.347 386.507 264.772 387.972 264.654L388.248 266.387C385.869 266.489 385.326 267.166 385.326 269.568V273.182ZM392.413 273.379C390.09 273.379 388.885 271.883 388.885 269.017V268.985C388.885 266.182 390.122 264.717 392.421 264.717C394.5 264.717 395.61 265.82 395.775 267.906L393.862 268.135C393.775 266.694 393.334 266.032 392.413 266.032C391.358 266.032 390.862 266.883 390.862 268.67V269.332C390.862 271.174 391.374 272.048 392.437 272.048C393.342 272.048 393.823 271.387 393.909 270.056L395.87 270.3C395.642 272.308 394.46 273.379 392.413 273.379ZM399.185 273.182H397.264V262.158H399.185V264.662C399.185 265.402 399.075 266.064 398.744 267.025L398.909 267.088C399.539 265.473 400.468 264.772 401.744 264.772C403.193 264.772 403.933 265.552 403.933 267.04V273.182H402.02V267.442C402.02 266.591 401.642 266.135 400.949 266.135C399.894 266.135 399.185 267.284 399.185 268.993V273.182ZM407.618 263.906H405.532V262.284H407.618V263.906ZM407.532 273.182H405.61V264.914H407.532V273.182ZM413.17 273.182H411.091L408.508 264.914H410.485L411.461 268.395C411.744 269.41 411.933 270.237 412.083 271.151H412.248C412.398 270.237 412.595 269.41 412.878 268.395L413.831 264.914H415.745L413.17 273.182ZM421.406 270.316L423.249 270.552C422.965 272.434 421.769 273.371 419.784 273.371C417.509 273.371 416.256 271.97 416.256 269.418V268.686C416.256 266.135 417.516 264.725 419.839 264.725C422.005 264.725 423.21 266.064 423.21 268.45C423.21 268.82 423.194 269.166 423.154 269.568H418.162V269.725C418.162 271.308 418.745 272.072 419.847 272.072C420.737 272.072 421.257 271.568 421.406 270.316ZM419.824 266.024C418.753 266.024 418.201 266.765 418.162 268.253H421.304V268.04C421.304 266.662 420.808 266.024 419.824 266.024Z" fill="white"/>
<path d="M398.219 293.305C398.519 293.606 399.006 293.606 399.306 293.305L404.2 288.412C404.5 288.112 404.5 287.625 404.2 287.325C403.899 287.025 403.412 287.025 403.112 287.325L398.763 291.674L394.413 287.325C394.113 287.025 393.626 287.025 393.326 287.325C393.026 287.625 393.026 288.112 393.326 288.412L398.219 293.305ZM397.994 281.278L397.994 292.762L399.532 292.762L399.532 281.278L397.994 281.278Z" fill="#B0A352"/>
<rect x="320.365" y="295.325" width="156.795" height="21.0667" rx="2.38761" fill="#B0A352"/>
<path d="M359.668 310.858H357.715V299.834H363.999V301.417H359.668V304.425H363.629V305.905H359.668V310.858ZM368.377 311.055C366.094 311.055 364.826 309.449 364.826 306.811V306.638C364.826 303.984 366.094 302.393 368.377 302.393C370.661 302.393 371.929 303.984 371.929 306.638V306.811C371.929 309.449 370.653 311.055 368.377 311.055ZM368.377 309.732C369.432 309.732 369.952 308.882 369.952 307.094V306.354C369.952 304.567 369.432 303.708 368.377 303.708C367.314 303.708 366.802 304.567 366.802 306.354V307.094C366.802 308.882 367.314 309.732 368.377 309.732ZM376.59 311.055C374.267 311.055 373.063 309.559 373.063 306.693V306.661C373.063 303.858 374.299 302.393 376.598 302.393C378.677 302.393 379.787 303.496 379.953 305.582L378.039 305.811C377.952 304.37 377.512 303.708 376.59 303.708C375.535 303.708 375.039 304.559 375.039 306.346V307.008C375.039 308.85 375.551 309.724 376.614 309.724C377.519 309.724 378 309.063 378.086 307.732L380.047 307.976C379.819 309.984 378.638 311.055 376.59 311.055ZM386.158 302.59H388.079V310.858H386.158C386.173 310.268 386.276 309.716 386.598 308.748L386.433 308.685C385.803 310.299 384.874 311 383.598 311C382.15 311 381.409 310.22 381.409 308.732V302.59H383.323V308.338C383.323 309.181 383.701 309.638 384.394 309.638C385.449 309.638 386.158 308.488 386.158 306.779V302.59ZM392.811 311.047C390.67 311.047 389.441 310.11 389.386 308.441L391.213 308.071C391.197 309.149 391.764 309.756 392.803 309.756C393.615 309.756 394.063 309.441 394.063 308.819C394.063 308.205 393.662 307.921 392.607 307.527L391.551 307.126C390.496 306.724 389.591 305.952 389.591 304.803C389.591 303.275 390.654 302.417 392.583 302.417C394.607 302.417 395.725 303.267 395.733 304.803L393.945 305.118C393.985 304.141 393.496 303.708 392.607 303.708C391.827 303.708 391.394 304 391.394 304.527C391.394 305.063 391.772 305.401 392.827 305.779L393.882 306.165C394.937 306.551 395.985 307.149 395.985 308.638C395.985 310.142 394.819 311.047 392.811 311.047ZM406.363 310.858H400.19V299.834H402.142V309.268H406.363V310.858ZM412.229 307.992L414.072 308.228C413.789 310.11 412.592 311.047 410.607 311.047C408.332 311.047 407.08 309.646 407.08 307.094V306.362C407.08 303.811 408.339 302.401 410.662 302.401C412.828 302.401 414.033 303.74 414.033 306.126C414.033 306.496 414.017 306.842 413.978 307.244H408.985V307.401C408.985 308.984 409.568 309.748 410.67 309.748C411.56 309.748 412.08 309.244 412.229 307.992ZM410.647 303.7C409.576 303.7 409.025 304.441 408.985 305.929H412.127V305.716C412.127 304.338 411.631 303.7 410.647 303.7ZM418.19 311.039C416.694 311.039 415.922 310.283 415.922 308.661V303.984H414.757V302.59H415.922V300.716L417.844 300.141V302.59H419.505V303.984H417.844V308.433C417.844 309.22 418.167 309.527 418.82 309.527C419.175 309.527 419.616 309.433 420.033 309.252L419.923 310.653C419.49 310.882 418.82 311.039 418.19 311.039ZM423.576 311.039C422.08 311.039 421.308 310.283 421.308 308.661V303.984H420.143V302.59H421.308V300.716L423.23 300.141V302.59H425.395V303.984H423.23V308.433C423.23 309.22 423.553 309.527 424.206 309.527C424.561 309.527 425.002 309.433 425.419 309.252L425.309 310.653C424.876 310.882 424.206 311.039 423.576 311.039ZM431.396 307.992L433.238 308.228C432.955 310.11 431.758 311.047 429.773 311.047C427.498 311.047 426.246 309.646 426.246 307.094V306.362C426.246 303.811 427.506 302.401 429.829 302.401C431.994 302.401 433.199 303.74 433.199 306.126C433.199 306.496 433.183 306.842 433.144 307.244H428.151V307.401C428.151 308.984 428.734 309.748 429.836 309.748C430.726 309.748 431.246 309.244 431.396 307.992ZM429.813 303.7C428.742 303.7 428.191 304.441 428.151 305.929H431.293V305.716C431.293 304.338 430.797 303.7 429.813 303.7ZM436.577 310.858H434.655V302.59H436.585C436.6 303.173 436.522 303.59 436.136 304.7L436.293 304.771C437.034 303.023 437.758 302.448 439.223 302.33L439.498 304.063C437.12 304.165 436.577 304.842 436.577 307.244V310.858Z" fill="white"/>
</g>
<rect x="61.1914" y="223.64" width="181.971" height="21.0667" rx="4.77521" fill="#5E5F3C"/>
<rect width="156.795" height="21.0667" transform="translate(73.7793 223.64)" fill="#5E5F3C"/>
<path d="M93.1691 239.173H91.2084V229.732H88.3579V228.149H96.0196V229.732H93.1691V239.173ZM99.0669 229.897H96.9802V228.275H99.0669V229.897ZM98.9803 239.173H97.059V230.905H98.9803V239.173ZM102.603 239.173H100.681V230.905H102.61C102.626 231.409 102.532 231.858 102.169 232.976L102.327 233.047C103.067 231.354 103.831 230.764 104.957 230.764C106.225 230.764 106.807 231.614 106.5 233.055L106.658 233.102C107.24 231.449 108.138 230.764 109.374 230.764C110.721 230.764 111.367 231.512 111.367 233.047V239.173H109.445V233.37C109.445 232.551 109.13 232.142 108.5 232.142C107.54 232.142 106.989 233.323 106.989 234.905V239.173H105.075V233.386C105.075 232.582 104.744 232.134 104.146 232.134C103.217 232.134 102.603 233.268 102.603 234.953V239.173ZM117.894 236.307L119.737 236.543C119.454 238.425 118.257 239.362 116.272 239.362C113.997 239.362 112.745 237.961 112.745 235.409V234.677C112.745 232.126 114.005 230.716 116.327 230.716C118.493 230.716 119.698 232.055 119.698 234.441C119.698 234.811 119.682 235.157 119.643 235.559H114.65V235.716C114.65 237.299 115.233 238.063 116.335 238.063C117.225 238.063 117.745 237.559 117.894 236.307ZM116.312 232.016C115.241 232.016 114.69 232.756 114.65 234.244H117.792V234.031C117.792 232.653 117.296 232.016 116.312 232.016ZM127.848 239.37C125.218 239.37 123.879 238.094 123.69 235.598L125.596 235.236C125.714 237.15 126.422 237.906 127.934 237.906C129.092 237.906 129.816 237.37 129.816 236.425C129.816 235.551 129.257 235.15 127.895 234.63L126.564 234.118C125.131 233.567 124.021 232.842 124.021 231.023C124.029 229.071 125.391 227.952 127.635 227.952C130.108 227.952 131.289 229.22 131.415 231.449L129.611 231.787C129.564 230.181 128.926 229.409 127.572 229.409C126.548 229.409 125.863 229.929 125.863 230.756C125.863 231.59 126.281 231.984 127.753 232.543L129.092 233.055C130.462 233.583 131.737 234.244 131.737 236.142C131.737 238.118 130.265 239.37 127.848 239.37ZM135.013 239.173H133.092V228.149H135.013V239.173ZM139.982 239.37C137.698 239.37 136.431 237.764 136.431 235.126V234.953C136.431 232.299 137.698 230.708 139.982 230.708C142.265 230.708 143.533 232.299 143.533 234.953V235.126C143.533 237.764 142.258 239.37 139.982 239.37ZM139.982 238.047C141.037 238.047 141.557 237.197 141.557 235.409V234.669C141.557 232.882 141.037 232.023 139.982 232.023C138.919 232.023 138.407 232.882 138.407 234.669V235.409C138.407 237.197 138.919 238.047 139.982 238.047ZM147.652 239.354C146.155 239.354 145.384 238.598 145.384 236.976V232.299H144.218V230.905H145.384V229.031L147.305 228.456V230.905H149.47V232.299H147.305V236.748C147.305 237.535 147.628 237.843 148.281 237.843C148.636 237.843 149.077 237.748 149.494 237.567L149.384 238.969C148.951 239.197 148.281 239.354 147.652 239.354ZM157.392 239.37C154.762 239.37 153.423 238.094 153.234 235.598L155.14 235.236C155.258 237.15 155.967 237.906 157.479 237.906C158.636 237.906 159.361 237.37 159.361 236.425C159.361 235.551 158.802 235.15 157.439 234.63L156.109 234.118C154.675 233.567 153.565 232.842 153.565 231.023C153.573 229.071 154.935 227.952 157.179 227.952C159.652 227.952 160.833 229.22 160.959 231.449L159.156 231.787C159.109 230.181 158.471 229.409 157.116 229.409C156.093 229.409 155.408 229.929 155.408 230.756C155.408 231.59 155.825 231.984 157.298 232.543L158.636 233.055C160.006 233.583 161.282 234.244 161.282 236.142C161.282 238.118 159.809 239.37 157.392 239.37ZM167.503 236.307L169.345 236.543C169.062 238.425 167.865 239.362 165.881 239.362C163.605 239.362 162.353 237.961 162.353 235.409V234.677C162.353 232.126 163.613 230.716 165.936 230.716C168.101 230.716 169.306 232.055 169.306 234.441C169.306 234.811 169.29 235.157 169.251 235.559H164.258V235.716C164.258 237.299 164.841 238.063 165.944 238.063C166.833 238.063 167.353 237.559 167.503 236.307ZM165.92 232.016C164.849 232.016 164.298 232.756 164.258 234.244H167.4V234.031C167.4 232.653 166.904 232.016 165.92 232.016ZM172.684 239.173H170.763V228.149H172.684V239.173ZM179.251 236.307L181.094 236.543C180.81 238.425 179.613 239.362 177.629 239.362C175.353 239.362 174.101 237.961 174.101 235.409V234.677C174.101 232.126 175.361 230.716 177.684 230.716C179.85 230.716 181.054 232.055 181.054 234.441C181.054 234.811 181.039 235.157 180.999 235.559H176.007V235.716C176.007 237.299 176.59 238.063 177.692 238.063C178.582 238.063 179.102 237.559 179.251 236.307ZM177.668 232.016C176.598 232.016 176.046 232.756 176.007 234.244H179.149V234.031C179.149 232.653 178.653 232.016 177.668 232.016ZM185.755 239.37C183.432 239.37 182.228 237.874 182.228 235.008V234.976C182.228 232.173 183.464 230.708 185.763 230.708C187.842 230.708 188.952 231.811 189.118 233.897L187.204 234.126C187.118 232.685 186.677 232.023 185.755 232.023C184.7 232.023 184.204 232.874 184.204 234.661V235.323C184.204 237.165 184.716 238.039 185.779 238.039C186.685 238.039 187.165 237.378 187.251 236.047L189.212 236.291C188.984 238.299 187.803 239.37 185.755 239.37ZM193.307 239.354C191.811 239.354 191.039 238.598 191.039 236.976V232.299H189.874V230.905H191.039V229.031L192.96 228.456V230.905H195.126V232.299H192.96V236.748C192.96 237.535 193.283 237.843 193.937 237.843C194.291 237.843 194.732 237.748 195.149 237.567L195.039 238.969C194.606 239.197 193.937 239.354 193.307 239.354ZM198.362 229.897H196.275V228.275H198.362V229.897ZM198.276 239.173H196.354V230.905H198.276V239.173ZM203.244 239.37C200.961 239.37 199.693 237.764 199.693 235.126V234.953C199.693 232.299 200.961 230.708 203.244 230.708C205.528 230.708 206.796 232.299 206.796 234.953V235.126C206.796 237.764 205.52 239.37 203.244 239.37ZM203.244 238.047C204.299 238.047 204.819 237.197 204.819 235.409V234.669C204.819 232.882 204.299 232.023 203.244 232.023C202.181 232.023 201.669 232.882 201.669 234.669V235.409C201.669 237.197 202.181 238.047 203.244 238.047ZM210.134 239.173H208.213V230.905H210.134C210.118 231.496 210.016 232.047 209.693 233.016L209.859 233.079C210.489 231.464 211.418 230.764 212.693 230.764C214.142 230.764 214.882 231.543 214.882 233.031V239.173H212.969V233.425C212.969 232.582 212.591 232.126 211.898 232.126C210.843 232.126 210.134 233.275 210.134 234.984V239.173Z" fill="white"/>
<rect x="330" y="223.745" width="137.049" height="21.0109" rx="4.77521" fill="#5E5F3C"/>
<rect x="341.938" y="223.745" width="113.173" height="21.0109" rx="4.77521" fill="#5E5F3C"/>
<path d="M352.151 239.25H345.977V228.226H347.93V237.659H352.151V239.25ZM358.017 236.384L359.86 236.62C359.576 238.502 358.379 239.439 356.395 239.439C354.119 239.439 352.867 238.037 352.867 235.486V234.754C352.867 232.203 354.127 230.793 356.45 230.793C358.615 230.793 359.82 232.132 359.82 234.518C359.82 234.888 359.805 235.234 359.765 235.636H354.773V235.793C354.773 237.376 355.356 238.14 356.458 238.14C357.348 238.14 357.867 237.636 358.017 236.384ZM356.434 232.092C355.363 232.092 354.812 232.833 354.773 234.321H357.915V234.108C357.915 232.73 357.419 232.092 356.434 232.092ZM363.978 239.431C362.482 239.431 361.71 238.675 361.71 237.053V232.376H360.545V230.982H361.71V229.108L363.631 228.533V230.982H365.293V232.376H363.631V236.825C363.631 237.612 363.954 237.919 364.608 237.919C364.962 237.919 365.403 237.825 365.82 237.644L365.71 239.045C365.277 239.274 364.608 239.431 363.978 239.431ZM369.364 239.431C367.868 239.431 367.096 238.675 367.096 237.053V232.376H365.931V230.982H367.096V229.108L369.017 228.533V230.982H371.183V232.376H369.017V236.825C369.017 237.612 369.34 237.919 369.994 237.919C370.348 237.919 370.789 237.825 371.207 237.644L371.096 239.045C370.663 239.274 369.994 239.431 369.364 239.431ZM377.183 236.384L379.026 236.62C378.742 238.502 377.545 239.439 375.561 239.439C373.285 239.439 372.033 238.037 372.033 235.486V234.754C372.033 232.203 373.293 230.793 375.616 230.793C377.782 230.793 378.986 232.132 378.986 234.518C378.986 234.888 378.971 235.234 378.931 235.636H373.939V235.793C373.939 237.376 374.522 238.14 375.624 238.14C376.514 238.14 377.034 237.636 377.183 236.384ZM375.6 232.092C374.529 232.092 373.978 232.833 373.939 234.321H377.081V234.108C377.081 232.73 376.585 232.092 375.6 232.092ZM382.364 239.25H380.443V230.982H382.372C382.388 231.565 382.309 231.982 381.923 233.092L382.081 233.163C382.821 231.415 383.546 230.84 385.01 230.722L385.286 232.455C382.908 232.557 382.364 233.234 382.364 235.636V239.25ZM392.979 239.447C390.349 239.447 389.01 238.171 388.821 235.675L390.727 235.313C390.845 237.226 391.554 237.982 393.066 237.982C394.223 237.982 394.948 237.447 394.948 236.502C394.948 235.628 394.389 235.226 393.026 234.707L391.696 234.195C390.262 233.644 389.152 232.919 389.152 231.1C389.16 229.147 390.522 228.029 392.766 228.029C395.239 228.029 396.42 229.297 396.546 231.525L394.743 231.864C394.696 230.258 394.058 229.486 392.703 229.486C391.68 229.486 390.995 230.006 390.995 230.832C390.995 231.667 391.412 232.061 392.885 232.62L394.223 233.132C395.593 233.659 396.869 234.321 396.869 236.218C396.869 238.195 395.396 239.447 392.979 239.447ZM403.09 236.384L404.932 236.62C404.649 238.502 403.452 239.439 401.468 239.439C399.192 239.439 397.94 238.037 397.94 235.486V234.754C397.94 232.203 399.2 230.793 401.523 230.793C403.688 230.793 404.893 232.132 404.893 234.518C404.893 234.888 404.877 235.234 404.838 235.636H399.845V235.793C399.845 237.376 400.428 238.14 401.531 238.14C402.42 238.14 402.94 237.636 403.09 236.384ZM401.507 232.092C400.436 232.092 399.885 232.833 399.845 234.321H402.987V234.108C402.987 232.73 402.491 232.092 401.507 232.092ZM408.271 239.25H406.35V228.226H408.271V239.25ZM414.838 236.384L416.681 236.62C416.397 238.502 415.2 239.439 413.216 239.439C410.94 239.439 409.688 238.037 409.688 235.486V234.754C409.688 232.203 410.948 230.793 413.271 230.793C415.437 230.793 416.641 232.132 416.641 234.518C416.641 234.888 416.626 235.234 416.586 235.636H411.594V235.793C411.594 237.376 412.177 238.14 413.279 238.14C414.169 238.14 414.689 237.636 414.838 236.384ZM413.255 232.092C412.184 232.092 411.633 232.833 411.594 234.321H414.736V234.108C414.736 232.73 414.24 232.092 413.255 232.092ZM421.342 239.447C419.019 239.447 417.815 237.951 417.815 235.085V235.053C417.815 232.25 419.051 230.785 421.35 230.785C423.429 230.785 424.539 231.888 424.705 233.974L422.791 234.203C422.705 232.762 422.264 232.1 421.342 232.1C420.287 232.1 419.791 232.951 419.791 234.738V235.4C419.791 237.242 420.303 238.116 421.366 238.116C422.271 238.116 422.752 237.455 422.838 236.124L424.799 236.368C424.571 238.376 423.39 239.447 421.342 239.447ZM428.894 239.431C427.398 239.431 426.626 238.675 426.626 237.053V232.376H425.461V230.982H426.626V229.108L428.547 228.533V230.982H430.713V232.376H428.547V236.825C428.547 237.612 428.87 237.919 429.524 237.919C429.878 237.919 430.319 237.825 430.736 237.644L430.626 239.045C430.193 239.274 429.524 239.431 428.894 239.431ZM433.949 229.974H431.862V228.352H433.949V229.974ZM433.862 239.25H431.941V230.982H433.862V239.25ZM438.831 239.447C436.548 239.447 435.28 237.841 435.28 235.203V235.029C435.28 232.376 436.548 230.785 438.831 230.785C441.115 230.785 442.383 232.376 442.383 235.029V235.203C442.383 237.841 441.107 239.447 438.831 239.447ZM438.831 238.124C439.886 238.124 440.406 237.274 440.406 235.486V234.746C440.406 232.959 439.886 232.1 438.831 232.1C437.768 232.1 437.256 232.959 437.256 234.746V235.486C437.256 237.274 437.768 238.124 438.831 238.124ZM445.721 239.25H443.8V230.982H445.721C445.705 231.573 445.603 232.124 445.28 233.092L445.446 233.155C446.076 231.541 447.005 230.84 448.28 230.84C449.729 230.84 450.469 231.62 450.469 233.108V239.25H448.556V233.502C448.556 232.659 448.178 232.203 447.485 232.203C446.43 232.203 445.721 233.352 445.721 235.061V239.25Z" fill="white"/>
<rect x="539" y="225" width="138" height="39" rx="4.77521" fill="#5E5F3C"/>
<path d="M553.549 240.348H551.596V229.323H555.329C557.707 229.323 558.935 230.473 558.935 232.702V232.733C558.935 234.938 557.707 236.088 555.329 236.088H553.549V240.348ZM553.549 230.835V234.568H555.108C556.392 234.568 557.014 233.977 557.014 232.733V232.702C557.014 231.442 556.392 230.835 555.108 230.835H553.549ZM563.25 240.544C560.967 240.544 559.699 238.938 559.699 236.3V236.127C559.699 233.473 560.967 231.883 563.25 231.883C565.534 231.883 566.802 233.473 566.802 236.127V236.3C566.802 238.938 565.526 240.544 563.25 240.544ZM563.25 239.222C564.305 239.222 564.825 238.371 564.825 236.584V235.843C564.825 234.056 564.305 233.198 563.25 233.198C562.187 233.198 561.675 234.056 561.675 235.843V236.584C561.675 238.371 562.187 239.222 563.25 239.222ZM570.628 240.489C568.865 240.489 567.935 239.08 567.935 236.387V236.04C567.935 233.347 568.865 231.938 570.628 231.938C572.03 231.938 572.849 232.78 573.29 234.119L573.455 234.056C573.156 233.048 573.046 232.347 573.046 231.568V229.323H574.959V240.348H573.054C573.062 239.938 573.196 239.277 573.455 238.371L573.29 238.308C572.841 239.702 572.022 240.489 570.628 240.489ZM571.384 239.198C572.463 239.198 573.046 238.237 573.046 236.442V235.993C573.046 234.19 572.463 233.221 571.384 233.221C570.369 233.221 569.873 234.095 569.873 235.914V236.521C569.873 238.332 570.369 239.198 571.384 239.198ZM579.92 240.544C577.597 240.544 576.392 239.048 576.392 236.182V236.151C576.392 233.347 577.629 231.883 579.928 231.883C582.007 231.883 583.117 232.985 583.283 235.072L581.369 235.3C581.282 233.859 580.841 233.198 579.92 233.198C578.865 233.198 578.369 234.048 578.369 235.836V236.497C578.369 238.34 578.881 239.214 579.944 239.214C580.849 239.214 581.33 238.552 581.416 237.221L583.377 237.466C583.149 239.473 581.967 240.544 579.92 240.544ZM586.519 240.537C585.18 240.537 584.416 239.765 584.416 238.458V238.426C584.416 236.647 585.794 236.001 587.385 235.599L588.968 235.198V234.505C588.968 233.599 588.598 233.19 587.771 233.19C586.81 233.19 586.369 233.804 586.464 235.127L584.598 234.922C584.479 233.017 585.621 231.891 587.81 231.891C589.826 231.891 590.858 232.765 590.858 234.473V238.489C590.858 239.088 590.952 239.174 591.677 239.206L591.425 240.497C591.314 240.521 591.133 240.537 590.984 240.537C589.48 240.537 589.133 239.93 589.44 238.418L589.283 238.387C588.897 239.788 587.968 240.537 586.519 240.537ZM587.22 239.143C588.228 239.143 588.968 238.284 588.968 237.056V236.497L587.983 236.773C587.007 237.048 586.338 237.45 586.338 238.253V238.284C586.338 238.844 586.645 239.143 587.22 239.143ZM595.763 240.537C593.621 240.537 592.393 239.599 592.338 237.93L594.165 237.56C594.149 238.639 594.716 239.245 595.755 239.245C596.566 239.245 597.015 238.93 597.015 238.308C597.015 237.694 596.614 237.41 595.559 237.017L594.503 236.615C593.448 236.214 592.543 235.442 592.543 234.292C592.543 232.765 593.606 231.906 595.535 231.906C597.559 231.906 598.677 232.757 598.685 234.292L596.897 234.607C596.937 233.631 596.448 233.198 595.559 233.198C594.779 233.198 594.346 233.489 594.346 234.017C594.346 234.552 594.724 234.891 595.779 235.269L596.834 235.654C597.889 236.04 598.937 236.639 598.937 238.127C598.937 239.631 597.771 240.537 595.763 240.537ZM602.937 240.529C601.441 240.529 600.669 239.773 600.669 238.151V233.473H599.504V232.079H600.669V230.205L602.59 229.631V232.079H604.756V233.473H602.59V237.922C602.59 238.71 602.913 239.017 603.567 239.017C603.921 239.017 604.362 238.922 604.779 238.741L604.669 240.143C604.236 240.371 603.567 240.529 602.937 240.529ZM612.914 236.497H608.614V234.969H612.914V236.497ZM621.3 240.544C618.473 240.544 617.024 238.599 617.024 234.851V234.82C617.024 231.079 618.489 229.127 621.284 229.127C623.764 229.127 625.111 230.552 625.268 233.292L623.402 233.662C623.355 231.615 622.662 230.67 621.284 230.67C619.756 230.67 619.016 231.867 619.016 234.426V235.245C619.016 237.804 619.764 239.001 621.308 239.001C622.662 239.001 623.371 238.032 623.481 235.954L625.394 236.418C625.15 239.135 623.749 240.544 621.3 240.544ZM628.788 240.348H626.867V232.079H628.796C628.812 232.662 628.733 233.08 628.347 234.19L628.505 234.261C629.245 232.513 629.969 231.938 631.434 231.82L631.71 233.552C629.332 233.654 628.788 234.332 628.788 236.733V240.348ZM637.497 237.481L639.34 237.718C639.056 239.599 637.859 240.537 635.875 240.537C633.599 240.537 632.347 239.135 632.347 236.584V235.851C632.347 233.3 633.607 231.891 635.93 231.891C638.096 231.891 639.3 233.229 639.3 235.615C639.3 235.985 639.285 236.332 639.245 236.733H634.253V236.891C634.253 238.473 634.836 239.237 635.938 239.237C636.828 239.237 637.348 238.733 637.497 237.481ZM635.914 233.19C634.844 233.19 634.292 233.93 634.253 235.418H637.395V235.206C637.395 233.828 636.899 233.19 635.914 233.19ZM643.167 240.489C641.403 240.489 640.474 239.08 640.474 236.387V236.04C640.474 233.347 641.403 231.938 643.167 231.938C644.568 231.938 645.387 232.78 645.828 234.119L645.994 234.056C645.694 233.048 645.584 232.347 645.584 231.568V229.323H647.498V240.348H645.592C645.6 239.938 645.734 239.277 645.994 238.371L645.828 238.308C645.379 239.702 644.56 240.489 643.167 240.489ZM643.923 239.198C645.001 239.198 645.584 238.237 645.584 236.442V235.993C645.584 234.19 645.001 233.221 643.923 233.221C642.907 233.221 642.411 234.095 642.411 235.914V236.521C642.411 238.332 642.907 239.198 643.923 239.198ZM651.222 231.072H649.135V229.449H651.222V231.072ZM651.136 240.348H649.214V232.079H651.136V240.348ZM655.742 240.529C654.246 240.529 653.474 239.773 653.474 238.151V233.473H652.309V232.079H653.474V230.205L655.396 229.631V232.079H657.561V233.473H655.396V237.922C655.396 238.71 655.718 239.017 656.372 239.017C656.726 239.017 657.167 238.922 657.585 238.741L657.474 240.143C657.041 240.371 656.372 240.529 655.742 240.529ZM661.813 240.537C659.671 240.537 658.443 239.599 658.388 237.93L660.215 237.56C660.199 238.639 660.766 239.245 661.805 239.245C662.616 239.245 663.065 238.93 663.065 238.308C663.065 237.694 662.664 237.41 661.608 237.017L660.553 236.615C659.498 236.214 658.593 235.442 658.593 234.292C658.593 232.765 659.656 231.906 661.585 231.906C663.608 231.906 664.727 232.757 664.734 234.292L662.947 234.607C662.986 233.631 662.498 233.198 661.608 233.198C660.829 233.198 660.396 233.489 660.396 234.017C660.396 234.552 660.774 234.891 661.829 235.269L662.884 235.654C663.939 236.04 664.986 236.639 664.986 238.127C664.986 239.631 663.821 240.537 661.813 240.537ZM552.974 258.544C550.147 258.544 548.698 256.599 548.698 252.851V252.82C548.698 249.079 550.163 247.127 552.959 247.127C555.439 247.127 556.785 248.552 556.943 251.292L555.077 251.662C555.029 249.615 554.337 248.67 552.959 248.67C551.431 248.67 550.691 249.867 550.691 252.426V253.245C550.691 255.804 551.439 257.001 552.982 257.001C554.337 257.001 555.045 256.032 555.155 253.954L557.069 254.418C556.825 257.135 555.423 258.544 552.974 258.544ZM561.809 258.544C559.526 258.544 558.258 256.938 558.258 254.3V254.127C558.258 251.473 559.526 249.883 561.809 249.883C564.093 249.883 565.361 251.473 565.361 254.127V254.3C565.361 256.938 564.085 258.544 561.809 258.544ZM561.809 257.222C562.864 257.222 563.384 256.371 563.384 254.584V253.843C563.384 252.056 562.864 251.198 561.809 251.198C560.746 251.198 560.234 252.056 560.234 253.843V254.584C560.234 256.371 560.746 257.222 561.809 257.222ZM568.699 258.348H566.778V250.079H568.699C568.684 250.67 568.581 251.221 568.258 252.19L568.424 252.253C569.054 250.639 569.983 249.938 571.258 249.938C572.707 249.938 573.447 250.717 573.447 252.206V258.348H571.534V252.599C571.534 251.757 571.156 251.3 570.463 251.3C569.408 251.3 568.699 252.45 568.699 254.158V258.348ZM577.857 258.529C576.361 258.529 575.589 257.773 575.589 256.151V251.473H574.424V250.079H575.589V248.205L577.511 247.631V250.079H579.676V251.473H577.511V255.922C577.511 256.71 577.833 257.017 578.487 257.017C578.841 257.017 579.282 256.922 579.7 256.741L579.589 258.143C579.156 258.371 578.487 258.529 577.857 258.529ZM582.653 258.537C581.314 258.537 580.55 257.765 580.55 256.458V256.426C580.55 254.647 581.928 254.001 583.519 253.599L585.101 253.198V252.505C585.101 251.599 584.731 251.19 583.905 251.19C582.944 251.19 582.503 251.804 582.597 253.127L580.731 252.922C580.613 251.017 581.755 249.891 583.944 249.891C585.96 249.891 586.991 250.765 586.991 252.473V256.489C586.991 257.088 587.086 257.174 587.81 257.206L587.558 258.497C587.448 258.521 587.267 258.537 587.117 258.537C585.613 258.537 585.267 257.93 585.574 256.418L585.416 256.387C585.031 257.788 584.101 258.537 582.653 258.537ZM583.353 257.143C584.361 257.143 585.101 256.284 585.101 255.056V254.497L584.117 254.773C583.141 255.048 582.471 255.45 582.471 256.253V256.284C582.471 256.844 582.779 257.143 583.353 257.143ZM591.85 258.544C589.527 258.544 588.322 257.048 588.322 254.182V254.151C588.322 251.347 589.558 249.883 591.858 249.883C593.936 249.883 595.047 250.985 595.212 253.072L593.299 253.3C593.212 251.859 592.771 251.198 591.85 251.198C590.795 251.198 590.299 252.048 590.299 253.836V254.497C590.299 256.34 590.81 257.214 591.873 257.214C592.779 257.214 593.259 256.552 593.346 255.221L595.307 255.466C595.078 257.473 593.897 258.544 591.85 258.544ZM599.401 258.529C597.905 258.529 597.133 257.773 597.133 256.151V251.473H595.968V250.079H597.133V248.205L599.055 247.631V250.079H601.22V251.473H599.055V255.922C599.055 256.71 599.378 257.017 600.031 257.017C600.386 257.017 600.826 256.922 601.244 256.741L601.134 258.143C600.701 258.371 600.031 258.529 599.401 258.529ZM609.378 254.497H605.079V252.969H609.378V254.497ZM617.52 258.544C614.89 258.544 613.551 257.269 613.362 254.773L615.268 254.41C615.386 256.324 616.095 257.08 617.607 257.08C618.764 257.08 619.489 256.544 619.489 255.599C619.489 254.725 618.93 254.324 617.567 253.804L616.237 253.292C614.803 252.741 613.693 252.017 613.693 250.198C613.701 248.245 615.063 247.127 617.307 247.127C619.78 247.127 620.961 248.394 621.087 250.623L619.284 250.961C619.237 249.355 618.599 248.583 617.244 248.583C616.221 248.583 615.536 249.103 615.536 249.93C615.536 250.765 615.953 251.158 617.426 251.717L618.764 252.229C620.134 252.757 621.41 253.418 621.41 255.316C621.41 257.292 619.937 258.544 617.52 258.544ZM626.032 258.544C623.749 258.544 622.481 256.938 622.481 254.3V254.127C622.481 251.473 623.749 249.883 626.032 249.883C628.316 249.883 629.584 251.473 629.584 254.127V254.3C629.584 256.938 628.308 258.544 626.032 258.544ZM626.032 257.222C627.087 257.222 627.607 256.371 627.607 254.584V253.843C627.607 252.056 627.087 251.198 626.032 251.198C624.969 251.198 624.457 252.056 624.457 253.843V254.584C624.457 256.371 624.969 257.222 626.032 257.222ZM635.718 250.079H637.639V258.348H635.718C635.733 257.757 635.836 257.206 636.159 256.237L635.993 256.174C635.363 257.788 634.434 258.489 633.158 258.489C631.71 258.489 630.969 257.71 630.969 256.221V250.079H632.883V255.828C632.883 256.67 633.261 257.127 633.954 257.127C635.009 257.127 635.718 255.977 635.718 254.269V250.079ZM641.269 258.348H639.348V250.079H641.277C641.293 250.662 641.214 251.08 640.828 252.19L640.986 252.261C641.726 250.513 642.45 249.938 643.915 249.82L644.19 251.552C641.812 251.654 641.269 252.332 641.269 254.733V258.348ZM648.356 258.544C646.033 258.544 644.828 257.048 644.828 254.182V254.151C644.828 251.347 646.064 249.883 648.364 249.883C650.443 249.883 651.553 250.985 651.718 253.072L649.805 253.3C649.718 251.859 649.277 251.198 648.356 251.198C647.301 251.198 646.805 252.048 646.805 253.836V254.497C646.805 256.34 647.316 257.214 648.38 257.214C649.285 257.214 649.765 256.552 649.852 255.221L651.813 255.466C651.584 257.473 650.403 258.544 648.356 258.544ZM658.073 255.481L659.915 255.718C659.632 257.599 658.435 258.537 656.451 258.537C654.175 258.537 652.923 257.135 652.923 254.584V253.851C652.923 251.3 654.183 249.891 656.506 249.891C658.671 249.891 659.876 251.229 659.876 253.615C659.876 253.985 659.86 254.332 659.821 254.733H654.829V254.891C654.829 256.473 655.411 257.237 656.514 257.237C657.403 257.237 657.923 256.733 658.073 255.481ZM656.49 251.19C655.419 251.19 654.868 251.93 654.829 253.418H657.97V253.206C657.97 251.828 657.474 251.19 656.49 251.19ZM664.309 258.537C662.167 258.537 660.939 257.599 660.884 255.93L662.711 255.56C662.695 256.639 663.262 257.245 664.301 257.245C665.112 257.245 665.561 256.93 665.561 256.308C665.561 255.694 665.16 255.41 664.105 255.017L663.049 254.615C661.994 254.214 661.089 253.442 661.089 252.292C661.089 250.765 662.152 249.906 664.081 249.906C666.105 249.906 667.223 250.757 667.231 252.292L665.443 252.607C665.483 251.631 664.994 251.198 664.105 251.198C663.325 251.198 662.892 251.489 662.892 252.017C662.892 252.552 663.27 252.891 664.325 253.269L665.38 253.654C666.435 254.04 667.483 254.639 667.483 256.127C667.483 257.631 666.317 258.537 664.309 258.537Z" fill="white"/>
<path d="M610 170L610 234" stroke="#5E5F3C" stroke-width="3.41301"/>
<path d="M398.762 169.818L398.762 224.666" stroke="#5E5F3C" stroke-width="3.41301"/>
<path d="M152.396 169.818L152.396 224.666" stroke="#5E5F3C" stroke-width="3.41301"/>
<path d="M47.264 330.474H44.0085L46.3606 325.974L44.1278 321.526H47.5111L47.9287 322.83C48.0309 323.119 48.1076 323.418 48.1673 323.75H48.3207C48.3889 323.418 48.4826 323.102 48.5849 322.813L49.028 321.526H52.2579L49.974 325.719L52.4198 330.474H48.9769L48.457 328.855C48.3633 328.565 48.2866 328.267 48.2099 327.951H48.0565C47.9969 328.267 47.9202 328.565 47.8179 328.855L47.264 330.474ZM56.8343 330.704C53.86 330.704 52.5988 329.571 52.6158 326.264L55.7349 326.025C55.7179 327.73 56.0247 328.386 56.8769 328.386C57.4393 328.386 57.7291 328.02 57.7291 327.295V326.528C57.7291 325.744 57.3115 325.42 56.6553 325.386L55.9906 325.344V323.332L56.6553 323.29C57.3115 323.247 57.6438 322.906 57.6438 322.259V321.619C57.6438 320.946 57.3115 320.614 56.7746 320.614C56.0332 320.614 55.7264 321.244 55.7519 322.736L52.7777 322.531C52.7437 319.421 54.0561 318.313 56.8854 318.313C59.3994 318.313 60.6181 319.327 60.6181 321.423V321.73C60.6181 323.077 60.0386 323.861 58.8881 324.168V324.338C60.2346 324.662 60.8822 325.54 60.8822 327.014V327.389C60.8822 329.622 59.5272 330.704 56.8343 330.704Z" fill="#B0A352"/>
<path d="M77.2159 292.985H68.3535C67.826 292.985 67.3984 293.413 67.3984 293.94V355.298C67.3984 355.826 67.826 356.253 68.3535 356.253H77.2159" stroke="#B0A352" stroke-width="2.18165"/>
<path d="M633.747 116H630.609V97.3857H634.731L637.908 106.852C638.36 108.182 638.733 109.551 639.078 111.2H639.344C639.703 109.551 640.075 108.169 640.501 106.852L643.639 97.3857H647.761V116H644.543V106.294C644.543 105.004 644.583 103.821 644.742 102.252L644.476 102.225L640.262 116H638.055L633.84 102.212L633.56 102.239C633.693 103.821 633.747 105.004 633.747 106.294V116ZM659.022 111.16L662.133 111.559C661.655 114.737 659.634 116.319 656.283 116.319C652.441 116.319 650.327 113.952 650.327 109.645V108.408C650.327 104.1 652.454 101.72 656.376 101.72C660.033 101.72 662.067 103.98 662.067 108.009C662.067 108.634 662.04 109.219 661.974 109.897H653.544V110.163C653.544 112.836 654.528 114.125 656.39 114.125C657.892 114.125 658.77 113.274 659.022 111.16ZM656.35 103.914C654.541 103.914 653.611 105.164 653.544 107.677H658.849V107.318C658.849 104.991 658.012 103.914 656.35 103.914ZM667.771 116H664.527V102.039H667.771C667.744 103.036 667.571 103.967 667.026 105.603L667.306 105.709C668.369 102.983 669.938 101.8 672.092 101.8C674.538 101.8 675.788 103.116 675.788 105.629V116H672.557V106.294C672.557 104.871 671.919 104.1 670.749 104.1C668.968 104.1 667.771 106.041 667.771 108.927V116ZM685.308 100.776H682.981L680.349 97.3857H683.566L685.308 100.776ZM686.585 102.039H689.829V116H686.585C686.611 115.003 686.784 114.072 687.329 112.437L687.05 112.33C685.986 115.056 684.417 116.239 682.263 116.239C679.817 116.239 678.567 114.923 678.567 112.41V102.039H681.798V111.745C681.798 113.168 682.436 113.939 683.606 113.939C685.388 113.939 686.585 111.998 686.585 109.113V102.039Z" fill="#B0A352"/>
<path d="M335.965 392H330.83V363.008H335.965V392ZM345.906 392H340.977V363.008H346.755L354.831 380.01C355.639 381.708 356.177 382.992 356.778 384.876L357.213 384.835C356.964 382.577 356.84 380.879 356.84 379.016V363.008H361.789V392H356.094L348.08 375.226C347.231 373.445 346.651 371.975 345.988 370.007L345.574 370.069C345.823 372.409 345.906 374.045 345.906 375.992V392ZM371.957 392H366.822V363.008H383.347V367.17H371.957V375.081H382.374V378.974H371.957V392ZM397.574 392.518C389.933 392.518 385.977 387.403 385.977 377.545V377.462C385.977 367.626 389.933 362.49 397.574 362.49C405.195 362.49 409.151 367.626 409.151 377.462V377.545C409.151 387.403 405.195 392.518 397.574 392.518ZM397.574 388.459C401.84 388.459 403.89 385.27 403.89 378.663V376.53C403.89 369.8 401.84 366.549 397.554 366.549C393.288 366.549 391.217 369.8 391.217 376.53V378.663C391.217 385.27 393.288 388.459 397.574 388.459ZM423.046 392H418.014L426.608 363.008H432.924L441.581 392H436.134L434.54 386.326H424.641L423.046 392ZM427.768 374.563L425.573 382.515H433.628L431.433 374.563C430.75 372.099 430.253 370.049 429.777 367.646H429.342C428.928 370.049 428.451 372.099 427.768 374.563ZM449.657 392H444.521V363.008H454.607C460.716 363.008 464.008 365.741 464.008 370.691V370.773C464.008 374.522 461.813 376.924 457.858 377.359V377.773C460.343 378.498 461.295 379.595 462.186 382.93L463.076 386.264C463.988 389.618 464.733 390.778 465.789 391.482L465.727 392H459.825C459.059 390.923 458.645 389.453 457.899 386.409L457.174 383.364C456.45 380.32 455.559 379.305 452.908 379.305H449.657V392ZM449.657 367.087V375.433H454.047C457.299 375.433 458.852 374.087 458.852 371.27V371.208C458.852 368.413 457.299 367.087 454.047 367.087H449.657ZM478.65 392.518C471.215 392.518 467.405 387.403 467.405 377.545V377.462C467.405 367.626 471.256 362.49 478.608 362.49C485.131 362.49 488.673 366.238 489.087 373.445L484.179 374.418C484.055 369.034 482.232 366.549 478.608 366.549C474.591 366.549 472.644 369.697 472.644 376.427V378.581C472.644 385.311 474.611 388.459 478.67 388.459C482.232 388.459 484.096 385.912 484.386 380.444L489.418 381.666C488.776 388.811 485.09 392.518 478.65 392.518ZM498.696 392H493.56V363.008H498.696V374.625H509.174V363.008H514.31V392H509.174V378.808H498.696V392ZM524.458 392H519.322V363.008H524.458V392ZM540.093 392H534.936V367.17H527.44V363.008H547.589V367.17H540.093V392ZM567.843 392H550.592V363.008H567.408V367.17H555.728V375.039H566.455V378.726H555.728V387.817H567.843V392ZM581.821 392.518C574.387 392.518 570.576 387.403 570.576 377.545V377.462C570.576 367.626 574.428 362.49 581.78 362.49C588.303 362.49 591.844 366.238 592.258 373.445L587.35 374.418C587.226 369.034 585.404 366.549 581.78 366.549C577.762 366.549 575.816 369.697 575.816 376.427V378.581C575.816 385.311 577.783 388.459 581.842 388.459C585.404 388.459 587.268 385.912 587.558 380.444L592.59 381.666C591.948 388.811 588.262 392.518 581.821 392.518ZM606.9 392H601.743V367.17H594.247V363.008H614.396V367.17H606.9V392ZM627.671 392.518C620.857 392.518 617.296 389.37 617.296 383.302V363.008H622.431V382.888C622.431 386.657 624.192 388.542 627.671 388.542C631.15 388.542 632.889 386.657 632.889 382.888V363.008H638.046V383.302C638.046 389.37 634.484 392.518 627.671 392.518ZM648.09 392H642.954V363.008H653.039C659.148 363.008 662.441 365.741 662.441 370.691V370.773C662.441 374.522 660.246 376.924 656.29 377.359V377.773C658.775 378.498 659.728 379.595 660.619 382.93L661.509 386.264C662.42 389.618 663.166 390.778 664.222 391.482L664.16 392H658.258C657.491 390.923 657.077 389.453 656.332 386.409L655.607 383.364C654.882 380.32 653.992 379.305 651.341 379.305H648.09V392ZM648.09 367.087V375.433H652.48C655.731 375.433 657.284 374.087 657.284 371.27V371.208C657.284 368.413 655.731 367.087 652.48 367.087H648.09ZM684.268 392H667.018V363.008H683.833V367.17H672.153V375.039H682.881V378.726H672.153V387.817H684.268V392Z" fill="#B0A352"/>
<defs>
<clipPath id="clip0_2034_6821">
<rect x="83.6348" y="257.472" width="137.375" height="134.095" rx="4.77521" fill="white"/>
</clipPath>
<clipPath id="clip1_2034_6821">
<rect x="345.758" y="257.649" width="106.01" height="58.7426" rx="4.77521" fill="white"/>
</clipPath>
</defs>
</svg>
