<svg width="1120" height="450" viewBox="0 0 1120 450" fill="none" xmlns="http://www.w3.org/2000/svg">
<rect width="1120" height="450" fill="#F8E7D6"/>
<path d="M575.288 131.224H295.153V180.941" stroke="#B0A352" stroke-width="2.91125" stroke-linejoin="bevel"/>
<path d="M575.287 131.224H824.827V180.941" stroke="#B0A352" stroke-width="2.91125" stroke-linejoin="bevel"/>
<path d="M509.317 85.3315V131.224H559.99V186.677" stroke="#B0A352" stroke-width="2.91125" stroke-linejoin="bevel"/>
<path d="M448.658 79.595V85.3315H568.17V79.595" stroke="#B0A352" stroke-width="2.90652"/>
<path d="M227.601 80H223.491V56.7949H227.601V66.0935H235.988V56.7949H240.099V80H235.988V69.4417H227.601V80ZM253.409 80H249.282V70.6019L242.453 56.7949H246.862L249.762 62.7122C250.359 63.9222 250.79 65.0824 251.287 66.5742H251.635C252.132 65.0824 252.597 63.9388 253.16 62.7453L256.028 56.7949H260.238L253.409 70.6019V80ZM271.542 80H262.608V56.7949H271.31C275.785 56.7949 278.089 58.7342 278.089 62.447V62.5133C278.089 65.2648 276.746 66.9886 274.177 67.5024V67.8339C277.244 68.3477 278.851 70.2704 278.851 73.4528V73.5191C278.851 77.7789 276.349 80 271.542 80ZM266.719 60.027V66.3919H270.564C272.884 66.3919 273.995 65.3642 273.995 63.1929V63.11C273.995 61.005 272.884 60.027 270.564 60.027H266.719ZM266.719 69.1599V76.7513H270.713C273.282 76.7513 274.509 75.5413 274.509 72.9887V72.9059C274.509 70.3865 273.282 69.1599 270.713 69.1599H266.719ZM285.946 80H281.835V56.7949H289.907C294.797 56.7949 297.432 58.9828 297.432 62.9442V63.0105C297.432 66.0106 295.675 67.9333 292.509 68.2814V68.6129C294.498 69.1931 295.261 70.0715 295.974 72.7401L296.686 75.4087C297.416 78.0939 298.012 79.0221 298.858 79.5856L298.808 80H294.084C293.471 79.1381 293.139 77.9613 292.542 75.5247L291.962 73.0882C291.382 70.6517 290.669 69.8395 288.548 69.8395H285.946V80ZM285.946 60.0602V66.7399H289.46C292.062 66.7399 293.305 65.6626 293.305 63.4084V63.3586C293.305 61.121 292.062 60.0602 289.46 60.0602H285.946ZM305.206 80H301.095V56.7949H305.206V80ZM316.427 80H309.217V56.7949H316.427C322.875 56.7949 325.974 60.574 325.974 68.3809V68.4472C325.974 76.2375 322.875 80 316.427 80ZM313.328 60.0436V76.7513H316.278C320.107 76.7513 321.781 74.5634 321.781 69.4914V67.3201C321.781 62.2315 320.107 60.0436 316.278 60.0436H313.328ZM331.113 80H327.085L333.964 56.7949H339.019L345.947 80H341.588L340.312 75.4584H332.389L331.113 80ZM334.892 66.0438L333.135 72.4086H339.583L337.826 66.0438C337.279 64.0714 336.881 62.4304 336.5 60.5077H336.151C335.82 62.4304 335.439 64.0714 334.892 66.0438ZM355.047 80H350.92V60.1265H344.92V56.7949H361.047V60.1265H355.047V80ZM367.561 80H363.451V56.7949H367.561V80ZM380.175 80.4144C374.059 80.4144 370.893 76.3203 370.893 68.4306V68.3643C370.893 60.4911 374.059 56.3805 380.175 56.3805C386.275 56.3805 389.44 60.4911 389.44 68.3643V68.4306C389.44 76.3203 386.275 80.4144 380.175 80.4144ZM380.175 77.1657C383.589 77.1657 385.23 74.6131 385.23 69.3257V67.6184C385.23 62.2315 383.589 59.6292 380.158 59.6292C376.744 59.6292 375.086 62.2315 375.086 67.6184V69.3257C375.086 74.6131 376.744 77.1657 380.175 77.1657ZM396.733 80H392.789V56.7949H397.413L403.877 70.403C404.524 71.7622 404.955 72.7898 405.435 74.2982L405.783 74.265C405.584 72.4583 405.485 71.0992 405.485 69.6074V56.7949H409.446V80H404.888L398.474 66.5742C397.794 65.1487 397.33 63.9719 396.8 62.3973L396.468 62.447C396.667 64.32 396.733 65.6294 396.733 67.1875V80ZM426.204 80.4144C421.397 80.4144 418.729 77.0331 418.729 71.4804V71.1158C418.729 65.53 421.397 62.1818 426.204 62.1818C431.011 62.1818 433.679 65.53 433.679 71.1158V71.4804C433.679 77.0331 430.994 80.4144 426.204 80.4144ZM426.204 77.6298C428.425 77.6298 429.519 75.8397 429.519 72.0771V70.5191C429.519 66.7565 428.425 64.9498 426.204 64.9498C423.966 64.9498 422.889 66.7565 422.889 70.5191V72.0771C422.889 75.8397 423.966 77.6298 426.204 77.6298ZM441.635 80H437.608V65.53H435.221V62.5962H437.608V61.668C437.608 58.1209 439.663 56.9275 444.95 56.3805L445.431 59.4801C441.47 59.679 441.353 59.7618 441.486 62.5962H445.332V65.53H441.635V80ZM457.862 80H453.752V56.7949H466.979V60.1265H457.862V66.4582H466.2V69.5743H457.862V80ZM478.366 80.4144C472.249 80.4144 469.084 76.3203 469.084 68.4306V68.3643C469.084 60.4911 472.249 56.3805 478.366 56.3805C484.465 56.3805 487.631 60.4911 487.631 68.3643V68.4306C487.631 76.3203 484.465 80.4144 478.366 80.4144ZM478.366 77.1657C481.78 77.1657 483.421 74.6131 483.421 69.3257V67.6184C483.421 62.2315 481.78 59.6292 478.349 59.6292C474.935 59.6292 473.277 62.2315 473.277 67.6184V69.3257C473.277 74.6131 474.935 77.1657 478.366 77.1657ZM495.09 80H490.979V56.7949H499.051C503.941 56.7949 506.576 58.9828 506.576 62.9442V63.0105C506.576 66.0106 504.819 67.9333 501.654 68.2814V68.6129C503.643 69.1931 504.405 70.0715 505.118 72.7401L505.831 75.4087C506.56 78.0939 507.157 79.0221 508.002 79.5856L507.952 80H503.228C502.615 79.1381 502.283 77.9613 501.687 75.5247L501.107 73.0882C500.526 70.6517 499.814 69.8395 497.692 69.8395H495.09V80ZM495.09 60.0602V66.7399H498.604C501.206 66.7399 502.449 65.6626 502.449 63.4084V63.3586C502.449 61.121 501.206 60.0602 498.604 60.0602H495.09ZM514.151 80H510.24V56.7949H515.378L519.339 68.5963C519.903 70.2539 520.367 71.9611 520.798 74.0164H521.129C521.577 71.9611 522.041 70.2373 522.571 68.5963L526.483 56.7949H531.621V80H527.61V67.9002C527.61 66.2924 527.66 64.8172 527.859 62.8614L527.527 62.8282L522.273 80H519.522L514.267 62.8116L513.919 62.8448C514.085 64.8172 514.151 66.2924 514.151 67.9002V80ZM538.003 80H533.975L540.854 56.7949H545.909L552.837 80H548.478L547.202 75.4584H539.279L538.003 80ZM541.782 66.0438L540.025 72.4086H546.473L544.716 66.0438C544.169 64.0714 543.771 62.4304 543.39 60.5077H543.042C542.71 62.4304 542.329 64.0714 541.782 66.0438ZM561.937 80H557.81V60.1265H551.81V56.7949H567.937V60.1265H561.937V80ZM579.424 80.3481C576.739 80.3481 575.247 78.8895 575.247 76.2706V76.2043C575.247 73.0219 577.833 71.4473 581.347 70.4528L584.86 69.4748V67.751C584.86 65.1156 583.816 63.8393 581.463 63.8393C578.744 63.8393 577.501 65.5631 577.75 68.9113L575.545 68.3311C575.33 64.5023 577.485 62.2481 581.512 62.2481C585.275 62.2481 587.131 64.1045 587.131 67.6184V76.685C587.131 78.3093 587.297 78.4751 589.17 78.6077L588.673 80.3149C588.54 80.3315 588.242 80.3481 587.993 80.3481C585.175 80.3481 584.744 78.8895 585.689 75.4584L585.341 75.3756C584.463 78.5745 582.391 80.3481 579.424 80.3481ZM580.087 78.5745C582.789 78.5745 584.86 76.1546 584.86 72.7898V71.0992L582.192 71.8782C579.556 72.6572 577.617 73.8672 577.617 76.0551V76.1214C577.617 77.6463 578.562 78.5745 580.087 78.5745ZM597.872 80.3481C593.861 80.3481 591.441 78.3591 591.209 74.7291L593.38 74.033C593.397 77.0662 594.955 78.7569 597.872 78.7569C600.027 78.7569 601.485 77.7624 601.485 75.9391C601.485 74.1821 600.342 73.3202 598.021 72.392L595.684 71.4804C593.347 70.5688 591.772 69.2594 591.772 66.9886C591.772 64.0216 593.712 62.2481 597.225 62.2481C600.938 62.2481 603.043 64.0382 603.143 67.2538L600.938 67.867C600.988 65.2316 599.695 63.8393 597.259 63.8393C595.12 63.8393 593.861 64.8835 593.861 66.5576C593.861 67.9996 594.706 68.7953 597.06 69.6903L599.38 70.5854C601.717 71.4804 603.657 72.7733 603.657 75.7071C603.657 78.4254 601.502 80.3481 597.872 80.3481ZM617.281 80.3481C614.596 80.3481 613.104 78.8895 613.104 76.2706V76.2043C613.104 73.0219 615.69 71.4473 619.204 70.4528L622.718 69.4748V67.751C622.718 65.1156 621.674 63.8393 619.32 63.8393C616.602 63.8393 615.359 65.5631 615.607 68.9113L613.403 68.3311C613.187 64.5023 615.342 62.2481 619.37 62.2481C623.132 62.2481 624.989 64.1045 624.989 67.6184V76.685C624.989 78.3093 625.154 78.4751 627.027 78.6077L626.53 80.3149C626.398 80.3315 626.099 80.3481 625.851 80.3481C623.033 80.3481 622.602 78.8895 623.547 75.4584L623.199 75.3756C622.32 78.5745 620.248 80.3481 617.281 80.3481ZM617.944 78.5745C620.646 78.5745 622.718 76.1546 622.718 72.7898V71.0992L620.049 71.8782C617.414 72.6572 615.475 73.8672 615.475 76.0551V76.1214C615.475 77.6463 616.419 78.5745 617.944 78.5745ZM642.84 80.3481C638.481 80.3481 636.111 77.0994 636.111 71.1489V71.0826C636.111 65.3642 638.597 62.2481 642.873 62.2481C646.503 62.2481 648.608 64.5189 649.072 68.5632L646.785 69.077C646.536 65.4637 645.343 63.8393 642.824 63.8393C639.906 63.8393 638.497 66.1432 638.497 70.9169V71.3312C638.497 76.3203 639.923 78.7237 642.89 78.7237C645.31 78.7237 646.619 77.1159 646.934 73.9832L649.288 74.5302C648.708 78.2265 646.437 80.3481 642.84 80.3481ZM659.001 80.3481C654.675 80.3481 652.288 77.1159 652.288 71.4804V71.1158C652.288 65.4637 654.675 62.2481 659.001 62.2481C663.327 62.2481 665.73 65.4637 665.73 71.1158V71.4804C665.73 77.1159 663.327 80.3481 659.001 80.3481ZM659.001 78.7403C661.918 78.7403 663.343 76.4364 663.343 71.6462V70.95C663.343 66.1432 661.918 63.8393 659.001 63.8393C656.084 63.8393 654.675 66.1432 654.675 70.95V71.6462C654.675 76.4364 656.084 78.7403 659.001 78.7403ZM671.863 80H669.559V62.5962H671.996C671.996 63.6736 671.797 64.6681 671.051 67.3035L671.399 67.4361C672.659 63.657 674.316 62.2812 676.769 62.2812C679.504 62.2812 680.747 64.1045 680.068 67.3698L680.399 67.4692C681.493 63.7067 683.416 62.2812 685.869 62.2812C688.62 62.2812 689.946 63.7896 689.946 66.9057V80H687.642V67.2206C687.642 65.099 686.814 64.0548 685.09 64.0548C682.438 64.0548 680.913 67.3532 680.913 71.3644V80H678.626V67.2703C678.626 65.1985 677.747 64.0382 676.156 64.0382C673.603 64.0382 671.863 67.1377 671.863 71.5136V80ZM696.759 80H694.455V62.5962H696.891C696.891 63.6736 696.693 64.6681 695.947 67.3035L696.295 67.4361C697.554 63.657 699.212 62.2812 701.665 62.2812C704.4 62.2812 705.643 64.1045 704.963 67.3698L705.295 67.4692C706.389 63.7067 708.312 62.2812 710.765 62.2812C713.516 62.2812 714.842 63.7896 714.842 66.9057V80H712.538V67.2206C712.538 65.099 711.71 64.0548 709.986 64.0548C707.334 64.0548 705.809 67.3532 705.809 71.3644V80H703.521V67.2703C703.521 65.1985 702.643 64.0382 701.052 64.0382C698.499 64.0382 696.759 67.1377 696.759 71.5136V80ZM729.379 62.5962H731.666V80H729.229C729.279 78.8232 729.528 77.4143 730.191 75.1269L729.843 75.0275C728.55 78.7569 726.611 80.3149 723.876 80.3149C720.892 80.3149 719.268 78.6243 719.268 75.5247V62.5962H721.572V75.1601C721.572 77.348 722.599 78.5745 724.489 78.5745C727.34 78.5745 729.379 75.4916 729.379 71.1821V62.5962ZM738.594 80H736.29V62.5962H738.727C738.677 63.773 738.429 65.1819 737.766 67.4527L738.114 67.5687C739.406 63.8393 741.346 62.2812 744.081 62.2812C747.064 62.2812 748.689 63.9719 748.689 67.0714V80H746.401V67.4361C746.401 65.2482 745.357 64.0216 743.467 64.0216C740.616 64.0216 738.594 67.1046 738.594 71.4141V80ZM755.816 59.9607H752.932V57.2258H755.816V59.9607ZM755.534 80H753.23V62.5962H755.534V80ZM766.092 80.3481C761.733 80.3481 759.363 77.0994 759.363 71.1489V71.0826C759.363 65.3642 761.849 62.2481 766.126 62.2481C769.755 62.2481 771.86 64.5189 772.325 68.5632L770.037 69.077C769.789 65.4637 768.595 63.8393 766.076 63.8393C763.159 63.8393 761.75 66.1432 761.75 70.9169V71.3312C761.75 76.3203 763.175 78.7237 766.142 78.7237C768.562 78.7237 769.871 77.1159 770.186 73.9832L772.54 74.5302C771.96 78.2265 769.689 80.3481 766.092 80.3481ZM779.783 80.3481C777.098 80.3481 775.606 78.8895 775.606 76.2706V76.2043C775.606 73.0219 778.192 71.4473 781.706 70.4528L785.22 69.4748V67.751C785.22 65.1156 784.176 63.8393 781.822 63.8393C779.104 63.8393 777.861 65.5631 778.109 68.9113L775.905 68.3311C775.689 64.5023 777.844 62.2481 781.872 62.2481C785.634 62.2481 787.491 64.1045 787.491 67.6184V76.685C787.491 78.3093 787.657 78.4751 789.53 78.6077L789.032 80.3149C788.9 80.3315 788.601 80.3481 788.353 80.3481C785.535 80.3481 785.104 78.8895 786.049 75.4584L785.701 75.3756C784.822 78.5745 782.75 80.3481 779.783 80.3481ZM780.446 78.5745C783.148 78.5745 785.22 76.1546 785.22 72.7898V71.0992L782.551 71.8782C779.916 72.6572 777.977 73.8672 777.977 76.0551V76.1214C777.977 77.6463 778.921 78.5745 780.446 78.5745ZM797.718 80.3149C794.966 80.3149 793.491 78.906 793.491 75.7734V64.3531H790.739V62.5962H793.491V58.2701L795.795 57.4413V62.5962H801.165V64.3531H795.795V75.5247C795.795 77.6298 796.607 78.3922 798.281 78.3922C799.143 78.3922 800.204 78.1436 801.149 77.6463L801.016 79.4862C800.32 79.9668 798.944 80.3149 797.718 80.3149ZM807 59.9607H804.116V57.2258H807V59.9607ZM806.718 80H804.414V62.5962H806.718V80ZM817.26 80.3481C812.934 80.3481 810.547 77.1159 810.547 71.4804V71.1158C810.547 65.4637 812.934 62.2481 817.26 62.2481C821.586 62.2481 823.989 65.4637 823.989 71.1158V71.4804C823.989 77.1159 821.586 80.3481 817.26 80.3481ZM817.26 78.7403C820.177 78.7403 821.602 76.4364 821.602 71.6462V70.95C821.602 66.1432 820.177 63.8393 817.26 63.8393C814.342 63.8393 812.934 66.1432 812.934 70.95V71.6462C812.934 76.4364 814.342 78.7403 817.26 78.7403ZM830.122 80H827.818V62.5962H830.255C830.205 63.773 829.956 65.1819 829.293 67.4527L829.641 67.5687C830.934 63.8393 832.873 62.2812 835.608 62.2812C838.592 62.2812 840.216 63.9719 840.216 67.0714V80H837.929V67.4361C837.929 65.2482 836.885 64.0216 834.995 64.0216C832.144 64.0216 830.122 67.1046 830.122 71.4141V80ZM856.625 80.3149C853.874 80.3149 852.399 78.906 852.399 75.7734V64.3531H849.647V62.5962H852.399V58.2701L854.703 57.4413V62.5962H860.073V64.3531H854.703V75.5247C854.703 77.6298 855.515 78.3922 857.189 78.3922C858.051 78.3922 859.112 78.1436 860.056 77.6463L859.924 79.4862C859.228 79.9668 857.852 80.3149 856.625 80.3149ZM869.073 80.3481C864.747 80.3481 862.36 77.1159 862.36 71.4804V71.1158C862.36 65.4637 864.747 62.2481 869.073 62.2481C873.399 62.2481 875.803 65.4637 875.803 71.1158V71.4804C875.803 77.1159 873.399 80.3481 869.073 80.3481ZM869.073 78.7403C871.99 78.7403 873.416 76.4364 873.416 71.6462V70.95C873.416 66.1432 871.99 63.8393 869.073 63.8393C866.156 63.8393 864.747 66.1432 864.747 70.95V71.6462C864.747 76.4364 866.156 78.7403 869.073 78.7403ZM885.582 80.3481C881.256 80.3481 878.869 77.1159 878.869 71.4804V71.1158C878.869 65.4637 881.256 62.2481 885.582 62.2481C889.908 62.2481 892.312 65.4637 892.312 71.1158V71.4804C892.312 77.1159 889.908 80.3481 885.582 80.3481ZM885.582 78.7403C888.499 78.7403 889.925 76.4364 889.925 71.6462V70.95C889.925 66.1432 888.499 63.8393 885.582 63.8393C882.665 63.8393 881.256 66.1432 881.256 70.95V71.6462C881.256 76.4364 882.665 78.7403 885.582 78.7403ZM898.444 80H896.14V56.7949H898.444V80Z" fill="black"/>
<rect x="192.852" y="179.984" width="220" height="71.068" rx="18.4917" fill="#6F7D9F"/>
<path d="M215.852 224.018H211.946V206.928H217.842C221.296 206.928 223.005 208.54 223.005 211.823V213.093C223.005 216.34 221.296 217.939 217.842 217.939H215.852V224.018ZM215.852 209.956V214.912H217.5C218.647 214.912 219.197 214.363 219.197 213.203V211.714C219.197 210.517 218.647 209.956 217.5 209.956H215.852ZM233.857 224.018H224.324V206.928H233.638V210.127H228.23V213.85H233.186V216.645H228.23V220.82H233.857V224.018ZM239.167 224.018H235.261V206.928H241.389C244.734 206.928 246.467 208.442 246.467 211.25V211.811C246.467 213.85 245.417 215.132 243.501 215.437V215.669C245.002 216.096 245.479 216.731 245.808 218.72L246.138 220.722C246.467 222.712 246.76 223.31 247.224 223.701L247.188 224.018H242.952C242.61 223.432 242.451 222.615 242.231 220.893L242.024 219.172C241.804 217.463 241.45 216.963 240.291 216.963H239.167V224.018ZM239.167 210.029V214.021H241.023C242.085 214.021 242.585 213.52 242.585 212.434V211.604C242.585 210.517 242.085 210.029 241.023 210.029H239.167ZM253.291 224.336C249.531 224.336 247.627 222.517 247.554 218.647L251.24 218.183C251.313 220.6 251.973 221.418 253.462 221.418C254.597 221.418 255.22 220.796 255.22 219.856C255.22 218.855 254.609 218.208 252.9 217.219L251.191 216.242C249.458 215.241 247.81 214.033 247.834 211.286C247.847 208.369 249.897 206.611 253.218 206.611C256.892 206.611 258.65 208.369 258.699 212.019L255.244 212.422C255.22 210.31 254.573 209.529 253.157 209.529C252.18 209.529 251.533 210.09 251.533 210.92C251.533 211.726 251.924 212.3 253.755 213.313L255.488 214.277C257.222 215.254 259.065 216.352 259.065 219.343C259.065 222.48 256.917 224.336 253.291 224.336ZM266.34 224.348C262.202 224.348 260.176 221.931 260.176 217.036V213.935C260.176 209.028 262.202 206.611 266.34 206.611C270.466 206.611 272.505 209.028 272.505 213.935V217.036C272.505 221.931 270.466 224.348 266.34 224.348ZM266.34 221.247C267.817 221.247 268.538 220.173 268.538 217.951V213.154C268.538 210.823 267.817 209.699 266.34 209.699C264.851 209.699 264.131 210.823 264.131 213.154V217.951C264.131 220.173 264.851 221.247 266.34 221.247ZM277.815 224.018H274.031V206.928H278.401L281.55 215.022C281.868 215.827 282.173 216.816 282.539 218.183L282.783 218.147C282.625 216.377 282.515 214.851 282.515 213.484V206.928H286.311V224.018H281.99L278.804 215.974C278.474 215.132 278.181 214.192 277.803 212.617L277.546 212.654C277.705 214.326 277.815 216.194 277.815 217.732V224.018ZM291.121 224.018H287.336L291.34 206.928H296.394L300.483 224.018H296.345L295.881 221.601H291.584L291.121 224.018ZM293.013 214.57L292.17 218.781H295.295L294.465 214.57C294.209 213.264 294.001 212.019 293.855 210.566H293.599C293.477 212.019 293.281 213.264 293.013 214.57ZM310.444 224.018H301.521V206.928H305.427V220.82H310.444V224.018ZM323.896 224.018H314.973V206.928H318.879V220.82H323.896V224.018ZM334.81 224.018H325.276V206.928H334.59V210.127H329.182V213.85H334.138V216.645H329.182V220.82H334.81V224.018ZM342.964 224.018H339.045V210.127H335.505V206.928H346.516V210.127H342.964V224.018ZM354.78 224.018H350.862V210.127H347.322V206.928H358.333V210.127H354.78V224.018ZM368.965 224.018H359.431V206.928H368.745V210.127H363.337V213.85H368.293V216.645H363.337V220.82H368.965V224.018ZM374.275 224.018H370.369V206.928H376.497C379.841 206.928 381.575 208.442 381.575 211.25V211.811C381.575 213.85 380.525 215.132 378.608 215.437V215.669C380.11 216.096 380.586 216.731 380.916 218.72L381.245 220.722C381.575 222.712 381.868 223.31 382.332 223.701L382.295 224.018H378.059C377.717 223.432 377.559 222.615 377.339 220.893L377.131 219.172C376.912 217.463 376.558 216.963 375.398 216.963H374.275V224.018ZM374.275 210.029V214.021H376.13C377.192 214.021 377.693 213.52 377.693 212.434V211.604C377.693 210.517 377.192 210.029 376.13 210.029H374.275ZM388.398 224.336C384.639 224.336 382.734 222.517 382.661 218.647L386.348 218.183C386.421 220.6 387.08 221.418 388.569 221.418C389.705 221.418 390.327 220.796 390.327 219.856C390.327 218.855 389.717 218.208 388.008 217.219L386.299 216.242C384.565 215.241 382.917 214.033 382.942 211.286C382.954 208.369 385.005 206.611 388.325 206.611C392 206.611 393.757 208.369 393.806 212.019L390.352 212.422C390.327 210.31 389.68 209.529 388.264 209.529C387.288 209.529 386.641 210.09 386.641 210.92C386.641 211.726 387.031 212.3 388.862 213.313L390.596 214.277C392.329 215.254 394.172 216.352 394.172 219.343C394.172 222.48 392.024 224.336 388.398 224.336Z" fill="#F8E7D6"/>
<rect x="449.513" y="179.984" width="220" height="71.068" rx="18.4917" fill="#7FA27C"/>
<path d="M483.585 224.018H479.679V206.928H485.807C489.151 206.928 490.885 208.442 490.885 211.25V211.811C490.885 213.85 489.835 215.132 487.918 215.437V215.669C489.42 216.096 489.896 216.731 490.226 218.72L490.555 220.722C490.885 222.712 491.178 223.31 491.642 223.701L491.605 224.018H487.369C487.027 223.432 486.869 222.615 486.649 220.893L486.441 219.172C486.222 217.463 485.868 216.963 484.708 216.963H483.585V224.018ZM483.585 210.029V214.021H485.44C486.502 214.021 487.003 213.52 487.003 212.434V211.604C487.003 210.517 486.502 210.029 485.44 210.029H483.585ZM502.201 224.018H492.667V206.928H501.981V210.127H496.573V213.85H501.529V216.645H496.573V220.82H502.201V224.018ZM512.528 224.018H503.604V206.928H507.511V220.82H512.528V224.018ZM516.91 224.018H513.126L517.13 206.928H522.184L526.273 224.018H522.135L521.671 221.601H517.374L516.91 224.018ZM518.802 214.57L517.96 218.781H521.085L520.255 214.57C519.999 213.264 519.791 212.019 519.645 210.566H519.388C519.266 212.019 519.071 213.264 518.802 214.57ZM532.889 224.018H528.971V210.127H525.431V206.928H536.441V210.127H532.889V224.018ZM541.446 224.018H537.54V206.928H541.446V224.018ZM549.137 224.348C544.999 224.348 542.972 221.931 542.972 217.036V213.935C542.972 209.028 544.999 206.611 549.137 206.611C553.263 206.611 555.301 209.028 555.301 213.935V217.036C555.301 221.931 553.263 224.348 549.137 224.348ZM549.137 221.247C550.614 221.247 551.334 220.173 551.334 217.951V213.154C551.334 210.823 550.614 209.699 549.137 209.699C547.647 209.699 546.927 210.823 546.927 213.154V217.951C546.927 220.173 547.647 221.247 549.137 221.247ZM560.611 224.018H556.827V206.928H561.197L564.347 215.022C564.664 215.827 564.969 216.816 565.335 218.183L565.58 218.147C565.421 216.377 565.311 214.851 565.311 213.484V206.928H569.107V224.018H564.786L561.6 215.974C561.271 215.132 560.978 214.192 560.599 212.617L560.343 212.654C560.501 214.326 560.611 216.194 560.611 217.732V224.018ZM573.917 224.018H570.133L574.137 206.928H579.19L583.28 224.018H579.142L578.678 221.601H574.381L573.917 224.018ZM575.809 214.57L574.967 218.781H578.092L577.262 214.57C577.005 213.264 576.798 212.019 576.651 210.566H576.395C576.273 212.019 576.078 213.264 575.809 214.57ZM593.241 224.018H584.317V206.928H588.224V220.82H593.241V224.018ZM601.517 224.018H597.77V206.928H602.677L604.642 213.52C604.923 214.448 605.265 216.059 605.57 218.305H605.826C606.156 216.059 606.485 214.436 606.754 213.52L608.658 206.928H613.59V224.018H609.781L609.806 216.914C609.806 215.705 609.842 214.448 609.964 212.861L609.72 212.824L607.035 224.018H604.276L601.615 212.824L601.358 212.849C601.468 214.436 601.517 215.705 601.517 216.914V224.018ZM618.399 224.018H614.615L618.619 206.928H623.673L627.762 224.018H623.624L623.16 221.601H618.863L618.399 224.018ZM620.292 214.57L619.449 218.781H622.574L621.744 214.57C621.488 213.264 621.28 212.019 621.134 210.566H620.877C620.755 212.019 620.56 213.264 620.292 214.57ZM632.706 224.018H628.8V206.928H634.696C638.15 206.928 639.859 208.54 639.859 211.823V213.093C639.859 216.34 638.15 217.939 634.696 217.939H632.706V224.018ZM632.706 209.956V214.912H634.354C635.501 214.912 636.051 214.363 636.051 213.203V211.714C636.051 210.517 635.501 209.956 634.354 209.956H632.706Z" fill="#F8E7D6"/>
<rect x="706.173" y="179.984" width="220" height="71.068" rx="18.4917" fill="#B86C6C"/>
<path d="M721.495 224.018H717.711V206.928H722.081L725.23 215.022C725.548 215.827 725.853 216.816 726.219 218.183L726.463 218.147C726.305 216.377 726.195 214.851 726.195 213.484V206.928H729.991V224.018H725.67L722.484 215.974C722.154 215.132 721.861 214.192 721.483 212.617L721.227 212.654C721.385 214.326 721.495 216.194 721.495 217.732V224.018ZM734.801 224.018H731.017L735.021 206.928H740.074L744.164 224.018H740.025L739.562 221.601H735.265L734.801 224.018ZM736.693 214.57L735.851 218.781H738.976L738.146 214.57C737.889 213.264 737.682 212.019 737.535 210.566H737.279C737.157 212.019 736.961 213.264 736.693 214.57ZM749.107 224.018H745.201V206.928H751.329C754.674 206.928 756.407 208.442 756.407 211.25V211.811C756.407 213.85 755.357 215.132 753.441 215.437V215.669C754.942 216.096 755.418 216.731 755.748 218.72L756.078 220.722C756.407 222.712 756.7 223.31 757.164 223.701L757.127 224.018H752.892C752.55 223.432 752.391 222.615 752.171 220.893L751.964 219.172C751.744 217.463 751.39 216.963 750.23 216.963H749.107V224.018ZM749.107 210.029V214.021H750.963C752.025 214.021 752.525 213.52 752.525 212.434V211.604C752.525 210.517 752.025 210.029 750.963 210.029H749.107ZM762.096 224.018H758.189V206.928H764.317C767.662 206.928 769.396 208.442 769.396 211.25V211.811C769.396 213.85 768.346 215.132 766.429 215.437V215.669C767.931 216.096 768.407 216.731 768.736 218.72L769.066 220.722C769.396 222.712 769.688 223.31 770.152 223.701L770.116 224.018H765.88C765.538 223.432 765.379 222.615 765.16 220.893L764.952 219.172C764.732 217.463 764.378 216.963 763.219 216.963H762.096V224.018ZM762.096 210.029V214.021H763.951C765.013 214.021 765.514 213.52 765.514 212.434V211.604C765.514 210.517 765.013 210.029 763.951 210.029H762.096ZM774.352 224.018H770.567L774.571 206.928H779.625L783.714 224.018H779.576L779.112 221.601H774.815L774.352 224.018ZM776.244 214.57L775.401 218.781H778.526L777.696 214.57C777.44 213.264 777.232 212.019 777.086 210.566H776.83C776.708 212.019 776.512 213.264 776.244 214.57ZM790.331 224.018H786.412V210.127H782.872V206.928H793.883V210.127H790.331V224.018ZM798.888 224.018H794.981V206.928H798.888V224.018ZM808.714 224.018H803.99L799.913 206.928H804.088L805.736 215.302C806.004 216.682 806.175 217.842 806.31 219.587H806.578C806.725 217.842 806.883 216.682 807.152 215.302L808.788 206.928H812.669L808.714 224.018ZM823.241 224.018H813.707V206.928H823.021V210.127H817.613V213.85H822.569V216.645H817.613V220.82H823.241V224.018ZM831.969 224.018H828.062V206.928H833.958C837.413 206.928 839.122 208.54 839.122 211.823V213.093C839.122 216.34 837.413 217.939 833.958 217.939H831.969V224.018ZM831.969 209.956V214.912H833.617C834.764 214.912 835.313 214.363 835.313 213.203V211.714C835.313 210.517 834.764 209.956 833.617 209.956H831.969ZM846.373 224.348C842.235 224.348 840.208 221.931 840.208 217.036V213.935C840.208 209.028 842.235 206.611 846.373 206.611C850.499 206.611 852.538 209.028 852.538 213.935V217.036C852.538 221.931 850.499 224.348 846.373 224.348ZM846.373 221.247C847.85 221.247 848.57 220.173 848.57 217.951V213.154C848.57 210.823 847.85 209.699 846.373 209.699C844.884 209.699 844.164 210.823 844.164 213.154V217.951C844.164 220.173 844.884 221.247 846.373 221.247ZM859.532 224.018H854.063V206.928H859.532C863.683 206.928 865.672 209.248 865.672 214.094V216.865C865.672 221.711 863.683 224.018 859.532 224.018ZM857.97 210.029V220.918H859.325C860.96 220.918 861.705 220.014 861.705 218.012V212.934C861.705 210.932 860.96 210.029 859.325 210.029H857.97ZM872.813 224.336C868.773 224.336 866.893 221.931 866.893 217.036V213.911C866.893 209.028 868.81 206.611 872.813 206.611C876.573 206.611 878.612 208.576 878.648 213.24L874.925 213.813C874.913 210.664 874.242 209.687 872.887 209.687C871.507 209.687 870.848 210.761 870.848 213.032V217.903C870.848 220.161 871.52 221.247 872.899 221.247C874.168 221.247 874.913 220.21 874.95 216.853L878.746 217.671C878.648 222.383 876.488 224.336 872.813 224.336ZM882.75 224.018H878.966L882.97 206.928H888.023L892.113 224.018H887.975L887.511 221.601H883.214L882.75 224.018ZM884.642 214.57L883.8 218.781H886.925L886.095 214.57C885.838 213.264 885.631 212.019 885.484 210.566H885.228C885.106 212.019 884.911 213.264 884.642 214.57ZM898.216 224.336C894.457 224.336 892.552 222.517 892.479 218.647L896.166 218.183C896.239 220.6 896.898 221.418 898.387 221.418C899.522 221.418 900.145 220.796 900.145 219.856C900.145 218.855 899.535 218.208 897.826 217.219L896.117 216.242C894.383 215.241 892.735 214.033 892.76 211.286C892.772 208.369 894.823 206.611 898.143 206.611C901.817 206.611 903.575 208.369 903.624 212.019L900.169 212.422C900.145 210.31 899.498 209.529 898.082 209.529C897.105 209.529 896.458 210.09 896.458 210.92C896.458 211.726 896.849 212.3 898.68 213.313L900.414 214.277C902.147 215.254 903.99 216.352 903.99 219.343C903.99 222.48 901.842 224.336 898.216 224.336ZM911.815 224.018H907.896V210.127H904.356V206.928H915.367V210.127H911.815V224.018Z" fill="#F8E7D6"/>
<path d="M211.176 336.162H190.781V301.884H210.662V306.805H196.853V316.109H209.535V320.467H196.853V331.216H211.176V336.162ZM228.976 310.013C234.46 310.013 237.349 314.395 237.349 322.769V323.846C237.349 332.22 234.46 336.602 228.976 336.602C224.618 336.602 222.047 333.983 220.7 329.82L220.186 330.016C221.092 333.15 221.459 335.329 221.459 337.753V344.731H215.485V310.454H221.435C221.386 311.727 220.994 313.783 220.186 316.599L220.7 316.77C222.071 312.461 224.642 310.013 228.976 310.013ZM226.625 314.028C223.271 314.028 221.459 317.015 221.459 322.598V323.993C221.459 329.6 223.271 332.611 226.625 332.611C229.759 332.611 231.326 329.894 231.326 324.238V322.353C231.326 316.721 229.759 314.028 226.625 314.028ZM248.024 307.32H241.536V302.276H248.024V307.32ZM247.755 336.162H241.781V310.454H247.755V336.162ZM262.445 336.749C255.786 336.749 251.966 333.836 251.795 328.645L257.475 327.494C257.426 330.849 259.189 332.734 262.421 332.734C264.943 332.734 266.338 331.755 266.338 329.82C266.338 327.911 265.089 327.029 261.809 325.805L258.528 324.556C255.247 323.308 252.431 320.908 252.431 317.334C252.431 312.584 255.737 309.915 261.735 309.915C268.028 309.915 271.504 312.559 271.529 317.334L265.971 318.313C266.093 315.277 264.575 313.93 261.809 313.93C259.385 313.93 258.038 314.836 258.038 316.477C258.038 318.141 259.213 319.194 262.494 320.37L265.775 321.569C269.056 322.769 272.312 324.63 272.312 329.257C272.312 333.934 268.689 336.749 262.445 336.749ZM284.75 336.725C280.098 336.725 277.699 334.374 277.699 329.331V314.787H274.075V310.454H277.699V304.626L283.673 302.839V310.454H290.406V314.787H283.673V328.621C283.673 331.069 284.677 332.024 286.709 332.024C287.811 332.024 289.182 331.73 290.479 331.167L290.137 335.525C288.79 336.235 286.709 336.725 284.75 336.725ZM304.092 336.774C296.992 336.774 293.05 331.779 293.05 323.577V323.038C293.05 314.787 296.992 309.841 304.092 309.841C311.193 309.841 315.135 314.787 315.135 323.038V323.577C315.135 331.779 311.168 336.774 304.092 336.774ZM304.092 332.66C307.373 332.66 308.989 330.016 308.989 324.458V322.157C308.989 316.599 307.373 313.93 304.092 313.93C300.787 313.93 299.196 316.599 299.196 322.157V324.458C299.196 330.016 300.787 332.66 304.092 332.66ZM325.516 336.162H319.542V301.884H325.516V336.162ZM336.24 336.749C332.077 336.749 329.702 334.35 329.702 330.285V330.188C329.702 324.654 333.987 322.647 338.933 321.398L343.854 320.149V317.995C343.854 315.179 342.703 313.906 340.133 313.906C337.146 313.906 335.774 315.815 336.068 319.929L330.266 319.292C329.898 313.367 333.449 309.866 340.255 309.866C346.523 309.866 349.73 312.584 349.73 317.897V330.383C349.73 332.244 350.024 332.514 352.277 332.611L351.493 336.627C351.15 336.7 350.587 336.749 350.122 336.749C345.446 336.749 344.368 334.864 345.323 330.163L344.834 330.065C343.634 334.423 340.745 336.749 336.24 336.749ZM338.419 332.416C341.553 332.416 343.854 329.747 343.854 325.927V324.189L340.794 325.046C337.758 325.903 335.677 327.152 335.677 329.649V329.747C335.677 331.485 336.631 332.416 338.419 332.416ZM361.654 336.162H355.68V310.454H361.678C361.727 312.265 361.483 313.563 360.283 317.015L360.773 317.236C363.074 311.8 365.327 310.013 369.881 309.646L370.738 315.032C363.343 315.35 361.654 317.456 361.654 324.924V336.162ZM373.627 345.319L372.868 340.226L376.197 339.908C379.062 339.638 380.017 338.904 380.335 337.68L380.653 336.455L372.28 310.454H378.425L382.049 324.287C382.637 326.466 383.053 328.621 383.42 331.191H383.934C384.302 328.621 384.718 326.515 385.305 324.336L388.831 310.454H394.658L387.313 334.913C385.061 342.552 382.196 344.829 373.627 345.319Z" fill="#6F7D9F"/>
<path d="M587.885 336.749C583.723 336.749 581.348 334.35 581.348 330.285V330.188C581.348 324.654 585.633 322.647 590.578 321.398L595.5 320.149V317.995C595.5 315.179 594.349 313.906 591.778 313.906C588.791 313.906 587.42 315.815 587.714 319.929L581.911 319.292C581.544 313.367 585.094 309.866 591.901 309.866C598.168 309.866 601.376 312.584 601.376 317.897V330.383C601.376 332.244 601.67 332.514 603.922 332.611L603.139 336.627C602.796 336.7 602.233 336.749 601.768 336.749C597.091 336.749 596.014 334.864 596.969 330.163L596.479 330.065C595.279 334.423 592.39 336.749 587.885 336.749ZM590.064 332.416C593.198 332.416 595.5 329.747 595.5 325.927V324.189L592.439 325.046C589.403 325.903 587.322 327.152 587.322 329.649V329.747C587.322 331.485 588.277 332.416 590.064 332.416ZM621.6 310.454H627.574V336.162H621.6C621.649 334.325 621.967 332.611 622.971 329.6L622.457 329.404C620.498 334.423 617.609 336.602 613.642 336.602C609.137 336.602 606.836 334.178 606.836 329.551V310.454H612.785V328.327C612.785 330.947 613.961 332.367 616.115 332.367C619.396 332.367 621.6 328.792 621.6 323.479V310.454ZM640.379 336.602C634.894 336.602 632.005 332.22 632.005 323.846V322.769C632.005 314.395 634.894 310.013 640.379 310.013C644.737 310.013 647.283 312.633 648.654 316.795L649.168 316.599C648.238 313.465 647.895 311.286 647.895 308.862V301.884H653.845V336.162H647.92C647.944 334.888 648.36 332.832 649.168 330.016L648.654 329.82C647.259 334.154 644.712 336.602 640.379 336.602ZM642.729 332.587C646.083 332.587 647.895 329.6 647.895 324.018V322.622C647.895 317.015 646.083 314.004 642.729 314.004C639.571 314.004 638.028 316.721 638.028 322.377V324.262C638.028 329.894 639.571 332.587 642.729 332.587ZM665.426 307.32H658.938V302.276H665.426V307.32ZM665.156 336.162H659.182V310.454H665.156V336.162ZM680.606 336.774C673.505 336.774 669.564 331.779 669.564 323.577V323.038C669.564 314.787 673.505 309.841 680.606 309.841C687.706 309.841 691.648 314.787 691.648 323.038V323.577C691.648 331.779 687.682 336.774 680.606 336.774ZM680.606 332.66C683.887 332.66 685.503 330.016 685.503 324.458V322.157C685.503 316.599 683.887 313.93 680.606 313.93C677.3 313.93 675.709 316.599 675.709 322.157V324.458C675.709 330.016 677.3 332.66 680.606 332.66ZM708.64 324.189H695.272V319.439H708.64V324.189ZM719.119 336.162H713.145V310.454H719.119C719.07 312.29 718.752 314.004 717.748 317.015L718.262 317.211C720.221 312.192 723.11 310.013 727.076 310.013C731.581 310.013 733.883 312.437 733.883 317.064V336.162H727.933V318.288C727.933 315.669 726.758 314.249 724.603 314.249C721.322 314.249 719.119 317.823 719.119 323.136V336.162ZM744.533 336.749C740.371 336.749 737.996 334.35 737.996 330.285V330.188C737.996 324.654 742.281 322.647 747.227 321.398L752.148 320.149V317.995C752.148 315.179 750.997 313.906 748.426 313.906C745.439 313.906 744.068 315.815 744.362 319.929L738.559 319.292C738.192 313.367 741.742 309.866 748.549 309.866C754.817 309.866 758.024 312.584 758.024 317.897V330.383C758.024 332.244 758.318 332.514 760.57 332.611L759.787 336.627C759.444 336.7 758.881 336.749 758.416 336.749C753.739 336.749 752.662 334.864 753.617 330.163L753.127 330.065C751.927 334.423 749.038 336.749 744.533 336.749ZM746.712 332.416C749.846 332.416 752.148 329.747 752.148 325.927V324.189L749.087 325.046C746.051 325.903 743.97 327.152 743.97 329.649V329.747C743.97 331.485 744.925 332.416 746.712 332.416ZM769.948 336.162H763.973V310.454H769.972C770.021 312.265 769.776 313.563 768.576 317.015L769.066 317.236C771.368 311.8 773.62 310.013 778.174 309.646L779.031 315.032C771.637 315.35 769.948 317.456 769.948 324.924V336.162ZM788.506 336.162H782.532V310.454H788.531C788.58 312.265 788.335 313.563 787.135 317.015L787.625 317.236C789.926 311.8 792.179 310.013 796.733 309.646L797.59 315.032C790.196 315.35 788.506 317.456 788.506 324.924V336.162ZM806.135 336.749C801.972 336.749 799.598 334.35 799.598 330.285V330.188C799.598 324.654 803.882 322.647 808.828 321.398L813.749 320.149V317.995C813.749 315.179 812.598 313.906 810.028 313.906C807.041 313.906 805.67 315.815 805.963 319.929L800.161 319.292C799.793 313.367 803.344 309.866 810.15 309.866C816.418 309.866 819.625 312.584 819.625 317.897V330.383C819.625 332.244 819.919 332.514 822.172 332.611L821.388 336.627C821.045 336.7 820.482 336.749 820.017 336.749C815.341 336.749 814.263 334.864 815.218 330.163L814.729 330.065C813.529 334.423 810.64 336.749 806.135 336.749ZM808.314 332.416C811.448 332.416 813.749 329.747 813.749 325.927V324.189L810.689 325.046C807.653 325.903 805.572 327.152 805.572 329.649V329.747C805.572 331.485 806.526 332.416 808.314 332.416ZM833.777 336.725C829.125 336.725 826.726 334.374 826.726 329.331V314.787H823.102V310.454H826.726V304.626L832.7 302.839V310.454H839.433V314.787H832.7V328.621C832.7 331.069 833.704 332.024 835.736 332.024C836.838 332.024 838.209 331.73 839.506 331.167L839.164 335.525C837.817 336.235 835.736 336.725 833.777 336.725ZM849.496 307.32H843.007V302.276H849.496V307.32ZM849.226 336.162H843.252V310.454H849.226V336.162ZM866.757 336.162H860.293L852.262 310.454H858.408L861.444 321.275C862.325 324.434 862.913 327.005 863.378 329.845H863.892C864.358 327.005 864.97 324.434 865.851 321.275L868.814 310.454H874.763L866.757 336.162ZM892.367 327.249L898.096 327.984C897.215 333.836 893.493 336.749 887.323 336.749C880.247 336.749 876.355 332.391 876.355 324.458V322.181C876.355 314.249 880.272 309.866 887.495 309.866C894.228 309.866 897.974 314.028 897.974 321.447C897.974 322.598 897.925 323.675 897.802 324.924H882.28V325.413C882.28 330.334 884.091 332.709 887.519 332.709C890.286 332.709 891.902 331.142 892.367 327.249ZM887.446 313.906C884.116 313.906 882.402 316.207 882.28 320.835H892.049V320.174C892.049 315.889 890.506 313.906 887.446 313.906ZM911.758 336.749C905.099 336.749 901.279 333.836 901.108 328.645L906.788 327.494C906.739 330.849 908.502 332.734 911.734 332.734C914.256 332.734 915.651 331.755 915.651 329.82C915.651 327.911 914.402 327.029 911.122 325.805L907.841 324.556C904.56 323.308 901.744 320.908 901.744 317.334C901.744 312.584 905.05 309.915 911.048 309.915C917.341 309.915 920.817 312.559 920.842 317.334L915.284 318.313C915.406 315.277 913.888 313.93 911.122 313.93C908.698 313.93 907.351 314.836 907.351 316.477C907.351 318.141 908.526 319.194 911.807 320.37L915.088 321.569C918.369 322.769 921.625 324.63 921.625 329.257C921.625 333.934 918.002 336.749 911.758 336.749Z" fill="#B86C6C"/>
<path d="M412.042 336.162H406.068V310.454H412.066C412.115 312.02 411.821 313.416 410.695 316.893L411.185 317.113C413.486 311.849 415.861 310.013 419.363 310.013C423.304 310.013 425.116 312.657 424.161 317.138L424.651 317.285C426.463 312.143 429.254 310.013 433.098 310.013C437.285 310.013 439.292 312.339 439.292 317.113V336.162H433.318V318.117C433.318 315.571 432.339 314.297 430.38 314.297C427.393 314.297 425.679 317.97 425.679 322.891V336.162H419.73V318.166C419.73 315.669 418.701 314.273 416.841 314.273C413.952 314.273 412.042 317.799 412.042 323.038V336.162ZM449.894 336.749C445.732 336.749 443.357 334.35 443.357 330.285V330.188C443.357 324.654 447.641 322.647 452.587 321.398L457.508 320.149V317.995C457.508 315.179 456.358 313.906 453.787 313.906C450.8 313.906 449.429 315.815 449.723 319.929L443.92 319.292C443.553 313.367 447.103 309.866 453.909 309.866C460.177 309.866 463.385 312.584 463.385 317.897V330.383C463.385 332.244 463.678 332.514 465.931 332.611L465.147 336.627C464.805 336.7 464.242 336.749 463.776 336.749C459.1 336.749 458.023 334.864 458.977 330.163L458.488 330.065C457.288 334.423 454.399 336.749 449.894 336.749ZM452.073 332.416C455.207 332.416 457.508 329.747 457.508 325.927V324.189L454.448 325.046C451.412 325.903 449.331 327.152 449.331 329.649V329.747C449.331 331.485 450.286 332.416 452.073 332.416ZM482.825 310.013C488.309 310.013 491.198 314.395 491.198 322.769V323.846C491.198 332.22 488.309 336.602 482.825 336.602C478.467 336.602 475.896 333.983 474.549 329.82L474.035 330.016C474.941 333.15 475.308 335.329 475.308 337.753V344.731H469.334V310.454H475.284C475.235 311.727 474.843 313.783 474.035 316.599L474.549 316.77C475.92 312.461 478.491 310.013 482.825 310.013ZM480.474 314.028C477.12 314.028 475.308 317.015 475.308 322.598V323.993C475.308 329.6 477.12 332.611 480.474 332.611C483.608 332.611 485.175 329.894 485.175 324.238V322.353C485.175 316.721 483.608 314.028 480.474 314.028ZM509.121 310.013C514.605 310.013 517.494 314.395 517.494 322.769V323.846C517.494 332.22 514.605 336.602 509.121 336.602C504.762 336.602 502.192 333.983 500.845 329.82L500.331 330.016C501.237 333.15 501.604 335.329 501.604 337.753V344.731H495.63V310.454H501.579C501.531 311.727 501.139 313.783 500.331 316.599L500.845 316.77C502.216 312.461 504.787 310.013 509.121 310.013ZM506.77 314.028C503.416 314.028 501.604 317.015 501.604 322.598V323.993C501.604 329.6 503.416 332.611 506.77 332.611C509.904 332.611 511.471 329.894 511.471 324.238V322.353C511.471 316.721 509.904 314.028 506.77 314.028ZM537.057 327.249L542.786 327.984C541.904 333.836 538.183 336.749 532.013 336.749C524.937 336.749 521.044 332.391 521.044 324.458V322.181C521.044 314.249 524.962 309.866 532.184 309.866C538.917 309.866 542.663 314.028 542.663 321.447C542.663 322.598 542.615 323.675 542.492 324.924H526.969V325.413C526.969 330.334 528.781 332.709 532.209 332.709C534.976 332.709 536.591 331.142 537.057 327.249ZM532.135 313.906C528.806 313.906 527.092 316.207 526.969 320.835H536.738V320.174C536.738 315.889 535.196 313.906 532.135 313.906ZM554.685 336.602C549.201 336.602 546.312 332.22 546.312 323.846V322.769C546.312 314.395 549.201 310.013 554.685 310.013C559.043 310.013 561.59 312.633 562.961 316.795L563.475 316.599C562.544 313.465 562.202 311.286 562.202 308.862V301.884H568.151V336.162H562.226C562.251 334.888 562.667 332.832 563.475 330.016L562.961 329.82C561.565 334.154 559.019 336.602 554.685 336.602ZM557.036 332.587C560.39 332.587 562.202 329.6 562.202 324.018V322.622C562.202 317.015 560.39 314.004 557.036 314.004C553.877 314.004 552.335 316.721 552.335 322.377V324.262C552.335 329.894 553.877 332.587 557.036 332.587Z" fill="#7FA27C"/>
<path d="M270.084 393.162H264.135V371.787H260.609V367.454H264.135V366.082C264.135 360.843 267.171 359.08 274.981 358.272L275.691 362.851C269.839 363.144 269.668 363.267 269.864 367.454H275.544V371.787H270.084V393.162ZM288.618 393.774C281.518 393.774 277.576 388.779 277.576 380.577V380.038C277.576 371.787 281.518 366.841 288.618 366.841C295.719 366.841 299.661 371.787 299.661 380.038V380.577C299.661 388.779 295.694 393.774 288.618 393.774ZM288.618 389.66C291.899 389.66 293.515 387.016 293.515 381.458V379.157C293.515 373.599 291.899 370.93 288.618 370.93C285.313 370.93 283.722 373.599 283.722 379.157V381.458C283.722 387.016 285.313 389.66 288.618 389.66ZM310.042 393.162H304.068V367.454H310.066C310.115 369.265 309.871 370.563 308.671 374.015L309.16 374.236C311.462 368.8 313.714 367.013 318.269 366.646L319.125 372.032C311.731 372.35 310.042 374.456 310.042 381.924V393.162ZM339.741 393.725C335.089 393.725 332.69 391.374 332.69 386.331V371.787H329.066V367.454H332.69V361.626L338.664 359.839V367.454H345.397V371.787H338.664V385.621C338.664 388.069 339.667 389.024 341.7 389.024C342.801 389.024 344.172 388.73 345.47 388.167L345.127 392.525C343.781 393.235 341.7 393.725 339.741 393.725ZM364.053 384.249L369.783 384.984C368.901 390.836 365.18 393.749 359.01 393.749C351.934 393.749 348.041 389.391 348.041 381.458V379.181C348.041 371.249 351.958 366.866 359.181 366.866C365.914 366.866 369.66 371.028 369.66 378.447C369.66 379.598 369.611 380.675 369.489 381.924H353.966V382.413C353.966 387.334 355.778 389.709 359.206 389.709C361.972 389.709 363.588 388.142 364.053 384.249ZM359.132 370.906C355.802 370.906 354.088 373.207 353.966 377.835H363.735V377.174C363.735 372.889 362.193 370.906 359.132 370.906ZM380.164 393.162H374.19V367.454H380.188C380.237 369.265 379.992 370.563 378.793 374.015L379.282 374.236C381.584 368.8 383.836 367.013 388.39 366.646L389.247 372.032C381.853 372.35 380.164 374.456 380.164 381.924V393.162ZM398.723 393.162H392.749V367.454H398.747C398.796 369.265 398.551 370.563 397.352 374.015L397.841 374.236C400.143 368.8 402.395 367.013 406.949 366.646L407.806 372.032C400.412 372.35 398.723 374.456 398.723 381.924V393.162ZM417.551 364.32H411.062V359.276H417.551V364.32ZM417.281 393.162H411.307V367.454H417.281V393.162ZM431.604 393.725C426.953 393.725 424.553 391.374 424.553 386.331V371.787H420.929V367.454H424.553V361.626L430.527 359.839V367.454H437.26V371.787H430.527V385.621C430.527 388.069 431.531 389.024 433.563 389.024C434.665 389.024 436.036 388.73 437.334 388.167L436.991 392.525C435.644 393.235 433.563 393.725 431.604 393.725ZM450.947 393.774C443.846 393.774 439.905 388.779 439.905 380.577V380.038C439.905 371.787 443.846 366.841 450.947 366.841C458.047 366.841 461.989 371.787 461.989 380.038V380.577C461.989 388.779 458.023 393.774 450.947 393.774ZM450.947 389.66C454.228 389.66 455.844 387.016 455.844 381.458V379.157C455.844 373.599 454.228 370.93 450.947 370.93C447.641 370.93 446.05 373.599 446.05 379.157V381.458C446.05 387.016 447.641 389.66 450.947 389.66ZM472.37 393.162H466.396V367.454H472.395C472.444 369.265 472.199 370.563 470.999 374.015L471.489 374.236C473.79 368.8 476.043 367.013 480.597 366.646L481.454 372.032C474.06 372.35 472.37 374.456 472.37 381.924V393.162ZM491.198 364.32H484.71V359.276H491.198V364.32ZM490.929 393.162H484.955V367.454H490.929V393.162ZM501.653 393.749C497.491 393.749 495.116 391.35 495.116 387.285V387.188C495.116 381.654 499.4 379.647 504.346 378.398L509.267 377.149V374.995C509.267 372.179 508.117 370.906 505.546 370.906C502.559 370.906 501.188 372.815 501.482 376.929L495.679 376.292C495.312 370.367 498.862 366.866 505.668 366.866C511.936 366.866 515.144 369.584 515.144 374.897V387.383C515.144 389.244 515.437 389.514 517.69 389.611L516.906 393.627C516.564 393.7 516 393.749 515.535 393.749C510.859 393.749 509.782 391.864 510.736 387.163L510.247 387.065C509.047 391.423 506.158 393.749 501.653 393.749ZM503.832 389.416C506.966 389.416 509.267 386.747 509.267 382.927V381.189L506.207 382.046C503.171 382.903 501.09 384.152 501.09 386.649V386.747C501.09 388.485 502.045 389.416 503.832 389.416ZM527.067 393.162H521.093V358.884H527.067V393.162ZM551.404 393.774C544.181 393.774 540.435 389.122 540.435 380.21V380.112C540.435 371.395 544.279 366.841 551.429 366.841C557.892 366.841 561.345 370.269 561.859 376.757L555.909 377.467C555.64 372.987 554.269 370.93 551.404 370.93C548.123 370.93 546.581 373.574 546.581 379.132V381.189C546.581 386.918 548.172 389.636 551.478 389.636C554.293 389.636 555.787 387.579 556.056 383.442L562.153 384.201C561.443 390.444 557.77 393.774 551.404 393.774ZM576.647 393.774C569.547 393.774 565.605 388.779 565.605 380.577V380.038C565.605 371.787 569.547 366.841 576.647 366.841C583.747 366.841 587.689 371.787 587.689 380.038V380.577C587.689 388.779 583.723 393.774 576.647 393.774ZM576.647 389.66C579.928 389.66 581.544 387.016 581.544 381.458V379.157C581.544 373.599 579.928 370.93 576.647 370.93C573.342 370.93 571.75 373.599 571.75 379.157V381.458C571.75 387.016 573.342 389.66 576.647 389.66ZM598.071 393.162H592.096V367.454H598.095C598.144 369.02 597.85 370.416 596.724 373.893L597.214 374.113C599.515 368.849 601.89 367.013 605.391 367.013C609.333 367.013 611.145 369.657 610.19 374.138L610.68 374.285C612.492 369.143 615.283 367.013 619.127 367.013C623.313 367.013 625.321 369.339 625.321 374.113V393.162H619.347V375.117C619.347 372.571 618.368 371.297 616.409 371.297C613.422 371.297 611.708 374.97 611.708 379.891V393.162H605.758V375.166C605.758 372.669 604.73 371.273 602.869 371.273C599.98 371.273 598.071 374.799 598.071 380.038V393.162ZM636.461 393.162H630.487V367.454H636.486C636.535 369.02 636.241 370.416 635.115 373.893L635.604 374.113C637.906 368.849 640.281 367.013 643.782 367.013C647.724 367.013 649.536 369.657 648.581 374.138L649.07 374.285C650.882 369.143 653.673 367.013 657.517 367.013C661.704 367.013 663.712 369.339 663.712 374.113V393.162H657.738V375.117C657.738 372.571 656.758 371.297 654.8 371.297C651.813 371.297 650.099 374.97 650.099 379.891V393.162H644.149V375.166C644.149 372.669 643.121 371.273 641.26 371.273C638.371 371.273 636.461 374.799 636.461 380.038V393.162ZM683.544 367.454H689.518V393.162H683.544C683.593 391.325 683.911 389.611 684.915 386.6L684.401 386.404C682.442 391.423 679.553 393.602 675.587 393.602C671.082 393.602 668.78 391.178 668.78 386.551V367.454H674.73V385.327C674.73 387.947 675.905 389.367 678.059 389.367C681.34 389.367 683.544 385.792 683.544 380.479V367.454ZM700.805 393.162H694.831V367.454H700.805C700.756 369.29 700.438 371.004 699.434 374.015L699.948 374.211C701.907 369.192 704.796 367.013 708.762 367.013C713.267 367.013 715.569 369.437 715.569 374.064V393.162H709.619V375.288C709.619 372.669 708.444 371.249 706.289 371.249C703.009 371.249 700.805 374.823 700.805 380.136V393.162ZM727.027 364.32H720.539V359.276H727.027V364.32ZM726.758 393.162H720.784V367.454H726.758V393.162ZM742.134 393.774C734.911 393.774 731.165 389.122 731.165 380.21V380.112C731.165 371.395 735.009 366.841 742.158 366.841C748.622 366.841 752.074 370.269 752.588 376.757L746.639 377.467C746.37 372.987 744.998 370.93 742.134 370.93C738.853 370.93 737.311 373.574 737.311 379.132V381.189C737.311 386.918 738.902 389.636 742.207 389.636C745.023 389.636 746.516 387.579 746.786 383.442L752.882 384.201C752.172 390.444 748.5 393.774 742.134 393.774ZM762.651 393.749C758.489 393.749 756.114 391.35 756.114 387.285V387.188C756.114 381.654 760.399 379.647 765.345 378.398L770.266 377.149V374.995C770.266 372.179 769.115 370.906 766.544 370.906C763.557 370.906 762.186 372.815 762.48 376.929L756.677 376.292C756.31 370.367 759.86 366.866 766.667 366.866C772.935 366.866 776.142 369.584 776.142 374.897V387.383C776.142 389.244 776.436 389.514 778.688 389.611L777.905 393.627C777.562 393.7 776.999 393.749 776.534 393.749C771.857 393.749 770.78 391.864 771.735 387.163L771.245 387.065C770.045 391.423 767.156 393.749 762.651 393.749ZM764.83 389.416C767.964 389.416 770.266 386.747 770.266 382.927V381.189L767.205 382.046C764.169 382.903 762.088 384.152 762.088 386.649V386.747C762.088 388.485 763.043 389.416 764.83 389.416ZM790.294 393.725C785.642 393.725 783.242 391.374 783.242 386.331V371.787H779.619V367.454H783.242V361.626L789.216 359.839V367.454H795.949V371.787H789.216V385.621C789.216 388.069 790.22 389.024 792.252 389.024C793.354 389.024 794.725 388.73 796.023 388.167L795.68 392.525C794.334 393.235 792.252 393.725 790.294 393.725ZM806.012 364.32H799.524V359.276H806.012V364.32ZM805.743 393.162H799.769V367.454H805.743V393.162ZM821.192 393.774C814.092 393.774 810.15 388.779 810.15 380.577V380.038C810.15 371.787 814.092 366.841 821.192 366.841C828.293 366.841 832.235 371.787 832.235 380.038V380.577C832.235 388.779 828.268 393.774 821.192 393.774ZM821.192 389.66C824.473 389.66 826.089 387.016 826.089 381.458V379.157C826.089 373.599 824.473 370.93 821.192 370.93C817.887 370.93 816.296 373.599 816.296 379.157V381.458C816.296 387.016 817.887 389.66 821.192 389.66ZM842.616 393.162H836.642V367.454H842.616C842.567 369.29 842.249 371.004 841.245 374.015L841.759 374.211C843.718 369.192 846.607 367.013 850.573 367.013C855.078 367.013 857.38 369.437 857.38 374.064V393.162H851.43V375.288C851.43 372.669 850.255 371.249 848.1 371.249C844.819 371.249 842.616 374.823 842.616 380.136V393.162Z" fill="#4B4B4B"/>
<path d="M295.153 132.18V180.463" stroke="url(#paint0_linear_2034_6626)" stroke-width="2.90652"/>
<path d="M559.99 132.18V180.463" stroke="url(#paint1_linear_2034_6626)" stroke-width="2.90652"/>
<path d="M824.827 132.18V180.463" stroke="url(#paint2_linear_2034_6626)" stroke-width="2.90652"/>
<defs>
<linearGradient id="paint0_linear_2034_6626" x1="295.653" y1="132.18" x2="295.653" y2="180.463" gradientUnits="userSpaceOnUse">
<stop stop-color="#B0A352"/>
<stop offset="1" stop-color="#6F7D9F"/>
</linearGradient>
<linearGradient id="paint1_linear_2034_6626" x1="560.49" y1="132.18" x2="560.49" y2="180.463" gradientUnits="userSpaceOnUse">
<stop stop-color="#B0A352"/>
<stop offset="1" stop-color="#7FA27C"/>
</linearGradient>
<linearGradient id="paint2_linear_2034_6626" x1="825.327" y1="132.18" x2="825.327" y2="180.463" gradientUnits="userSpaceOnUse">
<stop stop-color="#B0A352"/>
<stop offset="1" stop-color="#B86C6C"/>
</linearGradient>
</defs>
</svg>
