<svg width="882" height="450" viewBox="0 0 882 450" fill="none" xmlns="http://www.w3.org/2000/svg">
<rect width="882" height="450" fill="#F8E7D6"/>
<path d="M453.429 131.069H224.925V171.623" stroke="#B0A352" stroke-width="2.37469" stroke-linejoin="bevel"/>
<path d="M453.429 131.069H656.977V171.623" stroke="#B0A352" stroke-width="2.37469" stroke-linejoin="bevel"/>
<path d="M399.617 93.6353V131.069H440.95V176.302" stroke="#B0A352" stroke-width="2.37469" stroke-linejoin="bevel"/>
<path d="M350.138 88.9561V93.6353H447.622V88.9561" stroke="#B0A352" stroke-width="2.37083"/>
<path d="M169.987 89H166.634V70.0717H169.987V77.6566H176.828V70.0717H180.181V89H176.828V80.3876H169.987V89ZM191.038 89H187.672V81.3341L182.101 70.0717H185.698L188.064 74.8984C188.55 75.8854 188.902 76.8318 189.308 78.0486H189.591C189.997 76.8318 190.376 75.8989 190.835 74.9255L193.174 70.0717H196.608L191.038 81.3341V89ZM205.829 89H198.542V70.0717H205.64C209.29 70.0717 211.17 71.6536 211.17 74.6821V74.7362C211.17 76.9806 210.075 78.3867 207.979 78.8058V79.0762C210.48 79.4953 211.792 81.0637 211.792 83.6595V83.7136C211.792 87.1883 209.75 89 205.829 89ZM201.895 72.7082V77.8999H205.032C206.924 77.8999 207.83 77.0617 207.83 75.2905V75.2229C207.83 73.5059 206.924 72.7082 205.032 72.7082H201.895ZM201.895 80.1578V86.35H205.153C207.249 86.35 208.249 85.3631 208.249 83.281V83.2134C208.249 81.1583 207.249 80.1578 205.153 80.1578H201.895ZM217.578 89H214.225V70.0717H220.81C224.798 70.0717 226.948 71.8564 226.948 75.0877V75.1418C226.948 77.589 225.515 79.1573 222.932 79.4412V79.7116C224.555 80.1848 225.177 80.9014 225.758 83.0782L226.339 85.2549C226.934 87.4452 227.421 88.2023 228.11 88.662L228.07 89H224.217C223.716 88.297 223.446 87.337 222.959 85.3495L222.486 83.3621C222.013 81.3746 221.431 80.7121 219.701 80.7121H217.578V89ZM217.578 72.7352V78.1839H220.445C222.567 78.1839 223.581 77.305 223.581 75.4663V75.4257C223.581 73.6005 222.567 72.7352 220.445 72.7352H217.578ZM233.289 89H229.936V70.0717H233.289V89ZM242.442 89H236.561V70.0717H242.442C247.701 70.0717 250.229 73.1543 250.229 79.5223V79.5764C250.229 85.9309 247.701 89 242.442 89ZM239.914 72.7217V86.35H242.32C245.443 86.35 246.809 84.5654 246.809 80.4282V78.6571C246.809 74.5064 245.443 72.7217 242.32 72.7217H239.914ZM254.421 89H251.135L256.746 70.0717H260.87L266.521 89H262.966L261.924 85.2955H255.462L254.421 89ZM257.503 77.616L256.07 82.8078H261.33L259.896 77.616C259.45 76.0071 259.126 74.6686 258.815 73.1003H258.531C258.26 74.6686 257.95 76.0071 257.503 77.616ZM273.944 89H270.577V72.7893H265.683V70.0717H278.838V72.7893H273.944V89ZM284.152 89H280.799V70.0717H284.152V89ZM294.44 89.338C289.452 89.338 286.869 85.9985 286.869 79.5629V79.5088C286.869 73.0867 289.452 69.7337 294.44 69.7337C299.416 69.7337 301.998 73.0867 301.998 79.5088V79.5629C301.998 85.9985 299.416 89.338 294.44 89.338ZM294.44 86.688C297.226 86.688 298.564 84.6059 298.564 80.293V78.9004C298.564 74.5064 297.226 72.3837 294.427 72.3837C291.642 72.3837 290.29 74.5064 290.29 78.9004V80.293C290.29 84.6059 291.642 86.688 294.44 86.688ZM307.947 89H304.729V70.0717H308.501L313.774 81.1718C314.302 82.2805 314.653 83.1187 315.045 84.3491L315.329 84.322C315.167 82.8483 315.086 81.7397 315.086 80.5228V70.0717H318.317V89H314.599L309.367 78.0486C308.812 76.8859 308.434 75.926 308.001 74.6416L307.731 74.6821C307.893 76.2099 307.947 77.278 307.947 78.5489V89ZM331.986 89.338C328.065 89.338 325.888 86.5799 325.888 82.0506V81.7532C325.888 77.1969 328.065 74.4658 331.986 74.4658C335.907 74.4658 338.084 77.1969 338.084 81.7532V82.0506C338.084 86.5799 335.893 89.338 331.986 89.338ZM331.986 87.0666C333.798 87.0666 334.69 85.6064 334.69 82.5374V81.2665C334.69 78.1974 333.798 76.7237 331.986 76.7237C330.161 76.7237 329.282 78.1974 329.282 81.2665V82.5374C329.282 85.6064 330.161 87.0666 331.986 87.0666ZM344.573 89H341.288V77.1969H339.341V74.8038H341.288V74.0467C341.288 71.1534 342.964 70.1799 347.277 69.7337L347.669 72.262C344.438 72.4243 344.344 72.4919 344.452 74.8038H347.588V77.1969H344.573V89ZM357.81 89H354.457V70.0717H365.246V72.7893H357.81V77.954H364.61V80.4958H357.81V89ZM374.534 89.338C369.545 89.338 366.963 85.9985 366.963 79.5629V79.5088C366.963 73.0867 369.545 69.7337 374.534 69.7337C379.51 69.7337 382.092 73.0867 382.092 79.5088V79.5629C382.092 85.9985 379.51 89.338 374.534 89.338ZM374.534 86.688C377.319 86.688 378.658 84.6059 378.658 80.293V78.9004C378.658 74.5064 377.319 72.3837 374.521 72.3837C371.735 72.3837 370.383 74.5064 370.383 78.9004V80.293C370.383 84.6059 371.735 86.688 374.534 86.688ZM388.176 89H384.823V70.0717H391.407C395.396 70.0717 397.545 71.8564 397.545 75.0877V75.1418C397.545 77.589 396.112 79.1573 393.53 79.4412V79.7116C395.152 80.1848 395.774 80.9014 396.356 83.0782L396.937 85.2549C397.532 87.4452 398.019 88.2023 398.708 88.662L398.668 89H394.814C394.314 88.297 394.044 87.337 393.557 85.3495L393.084 83.3621C392.611 81.3746 392.029 80.7121 390.299 80.7121H388.176V89ZM388.176 72.7352V78.1839H391.042C393.165 78.1839 394.179 77.305 394.179 75.4663V75.4257C394.179 73.6005 393.165 72.7352 391.042 72.7352H388.176ZM403.724 89H400.533V70.0717H404.725L407.956 79.6981C408.416 81.0501 408.794 82.4427 409.146 84.1192H409.416C409.781 82.4427 410.16 81.0366 410.592 79.6981L413.783 70.0717H417.974V89H414.703V79.1303C414.703 77.8188 414.743 76.6155 414.905 75.0201L414.635 74.9931L410.349 89H408.105L403.819 74.9796L403.535 75.0066C403.67 76.6155 403.724 77.8188 403.724 79.1303V89ZM423.18 89H419.894L425.505 70.0717H429.629L435.28 89H431.724L430.683 85.2955H424.221L423.18 89ZM426.262 77.616L424.829 82.8078H430.089L428.655 77.616C428.209 76.0071 427.885 74.6686 427.574 73.1003H427.29C427.019 74.6686 426.708 76.0071 426.262 77.616ZM442.703 89H439.336V72.7893H434.442V70.0717H447.597V72.7893H442.703V89ZM456.967 89.2839C454.776 89.2839 453.56 88.0941 453.56 85.958V85.9039C453.56 83.308 455.669 82.0236 458.535 81.2124L461.401 80.4147V79.0086C461.401 76.8589 460.55 75.8178 458.63 75.8178C456.412 75.8178 455.398 77.2239 455.601 79.955L453.803 79.4818C453.627 76.3586 455.385 74.5199 458.67 74.5199C461.739 74.5199 463.254 76.0341 463.254 78.9004V86.296C463.254 87.6209 463.389 87.7561 464.917 87.8643L464.511 89.2569C464.403 89.2704 464.159 89.2839 463.957 89.2839C461.658 89.2839 461.307 88.0941 462.077 85.2955L461.793 85.2279C461.077 87.8373 459.387 89.2839 456.967 89.2839ZM457.507 87.8373C459.711 87.8373 461.401 85.8633 461.401 83.1187V81.7397L459.225 82.3751C457.075 83.0106 455.493 83.9975 455.493 85.7822V85.8363C455.493 87.0801 456.264 87.8373 457.507 87.8373ZM472.015 89.2839C468.743 89.2839 466.769 87.6615 466.58 84.7006L468.351 84.1327C468.364 86.6069 469.635 87.986 472.015 87.986C473.772 87.986 474.962 87.1748 474.962 85.6876C474.962 84.2544 474.029 83.5514 472.136 82.7942L470.23 82.0506C468.324 81.307 467.039 80.2389 467.039 78.3867C467.039 75.9665 468.621 74.5199 471.487 74.5199C474.516 74.5199 476.233 75.9801 476.314 78.603L474.516 79.1032C474.556 76.9535 473.502 75.8178 471.514 75.8178C469.77 75.8178 468.743 76.6696 468.743 78.0351C468.743 79.2114 469.432 79.8604 471.352 80.5904L473.245 81.3205C475.151 82.0506 476.733 83.1052 476.733 85.4983C476.733 87.7156 474.976 89.2839 472.015 89.2839ZM487.847 89.2839C485.657 89.2839 484.44 88.0941 484.44 85.958V85.9039C484.44 83.308 486.549 82.0236 489.415 81.2124L492.281 80.4147V79.0086C492.281 76.8589 491.43 75.8178 489.51 75.8178C487.292 75.8178 486.278 77.2239 486.481 79.955L484.683 79.4818C484.507 76.3586 486.265 74.5199 489.55 74.5199C492.619 74.5199 494.134 76.0341 494.134 78.9004V86.296C494.134 87.6209 494.269 87.7561 495.797 87.8643L495.391 89.2569C495.283 89.2704 495.04 89.2839 494.837 89.2839C492.538 89.2839 492.187 88.0941 492.957 85.2955L492.673 85.2279C491.957 87.8373 490.267 89.2839 487.847 89.2839ZM488.388 87.8373C490.591 87.8373 492.281 85.8633 492.281 83.1187V81.7397L490.105 82.3751C487.955 83.0106 486.373 83.9975 486.373 85.7822V85.8363C486.373 87.0801 487.144 87.8373 488.388 87.8373ZM508.695 89.2839C505.139 89.2839 503.206 86.634 503.206 81.7802V81.7261C503.206 77.0617 505.234 74.5199 508.722 74.5199C511.683 74.5199 513.4 76.3721 513.778 79.6711L511.913 80.0902C511.71 77.1428 510.736 75.8178 508.681 75.8178C506.302 75.8178 505.153 77.6971 505.153 81.5909V81.9289C505.153 85.9985 506.315 87.9589 508.735 87.9589C510.709 87.9589 511.778 86.6475 512.034 84.0922L513.954 84.5383C513.481 87.5533 511.629 89.2839 508.695 89.2839ZM521.877 89.2839C518.348 89.2839 516.401 86.6475 516.401 82.0506V81.7532C516.401 77.1428 518.348 74.5199 521.877 74.5199C525.406 74.5199 527.366 77.1428 527.366 81.7532V82.0506C527.366 86.6475 525.406 89.2839 521.877 89.2839ZM521.877 87.9725C524.257 87.9725 525.419 86.0932 525.419 82.1858V81.618C525.419 77.6971 524.257 75.8178 521.877 75.8178C519.498 75.8178 518.348 77.6971 518.348 81.618V82.1858C518.348 86.0932 519.498 87.9725 521.877 87.9725ZM532.369 89H530.489V74.8038H532.477C532.477 75.6826 532.315 76.4938 531.706 78.6435L531.99 78.7517C533.018 75.6691 534.37 74.5469 536.371 74.5469C538.602 74.5469 539.616 76.0341 539.061 78.6976L539.332 78.7787C540.224 75.7097 541.792 74.5469 543.793 74.5469C546.038 74.5469 547.119 75.7773 547.119 78.3191V89H545.24V78.5759C545.24 76.8454 544.564 75.9936 543.158 75.9936C540.995 75.9936 539.751 78.6841 539.751 81.956V89H537.885V78.6165C537.885 76.9265 537.168 75.9801 535.87 75.9801C533.788 75.9801 532.369 78.5083 532.369 82.0777V89ZM552.676 89H550.797V74.8038H552.784C552.784 75.6826 552.622 76.4938 552.014 78.6435L552.297 78.7517C553.325 75.6691 554.677 74.5469 556.678 74.5469C558.909 74.5469 559.923 76.0341 559.369 78.6976L559.639 78.7787C560.531 75.7097 562.1 74.5469 564.101 74.5469C566.345 74.5469 567.427 75.7773 567.427 78.3191V89H565.547V78.5759C565.547 76.8454 564.871 75.9936 563.465 75.9936C561.302 75.9936 560.058 78.6841 560.058 81.956V89H558.192V78.6165C558.192 76.9265 557.476 75.9801 556.178 75.9801C554.096 75.9801 552.676 78.5083 552.676 82.0777V89ZM579.284 74.8038H581.15V89H579.162C579.203 88.0401 579.405 86.8909 579.946 85.0251L579.662 84.9439C578.608 87.986 577.026 89.2569 574.795 89.2569C572.361 89.2569 571.036 87.8778 571.036 85.3495V74.8038H572.916V85.0521C572.916 86.8368 573.754 87.8373 575.295 87.8373C577.621 87.8373 579.284 85.3225 579.284 81.8073V74.8038ZM586.801 89H584.922V74.8038H586.909C586.869 75.7637 586.666 76.913 586.125 78.7652L586.409 78.8599C587.464 75.8178 589.045 74.5469 591.276 74.5469C593.71 74.5469 595.035 75.926 595.035 78.4543V89H593.169V78.7517C593.169 76.967 592.317 75.9665 590.776 75.9665C588.45 75.9665 586.801 78.4813 586.801 81.9965V89ZM600.849 72.6541H598.496V70.4233H600.849V72.6541ZM600.619 89H598.739V74.8038H600.619V89ZM609.231 89.2839C605.675 89.2839 603.742 86.634 603.742 81.7802V81.7261C603.742 77.0617 605.77 74.5199 609.258 74.5199C612.219 74.5199 613.936 76.3721 614.315 79.6711L612.449 80.0902C612.246 77.1428 611.273 75.8178 609.217 75.8178C606.838 75.8178 605.689 77.6971 605.689 81.5909V81.9289C605.689 85.9985 606.851 87.9589 609.272 87.9589C611.246 87.9589 612.314 86.6475 612.57 84.0922L614.49 84.5383C614.017 87.5533 612.165 89.2839 609.231 89.2839ZM620.399 89.2839C618.208 89.2839 616.992 88.0941 616.992 85.958V85.9039C616.992 83.308 619.101 82.0236 621.967 81.2124L624.833 80.4147V79.0086C624.833 76.8589 623.982 75.8178 622.062 75.8178C619.844 75.8178 618.83 77.2239 619.033 79.955L617.235 79.4818C617.059 76.3586 618.817 74.5199 622.102 74.5199C625.171 74.5199 626.686 76.0341 626.686 78.9004V86.296C626.686 87.6209 626.821 87.7561 628.349 87.8643L627.943 89.2569C627.835 89.2704 627.591 89.2839 627.389 89.2839C625.09 89.2839 624.739 88.0941 625.509 85.2955L625.225 85.2279C624.509 87.8373 622.819 89.2839 620.399 89.2839ZM620.939 87.8373C623.143 87.8373 624.833 85.8633 624.833 83.1187V81.7397L622.657 82.3751C620.507 83.0106 618.925 83.9975 618.925 85.7822V85.8363C618.925 87.0801 619.696 87.8373 620.939 87.8373ZM635.028 89.2569C632.783 89.2569 631.58 88.1077 631.58 85.5524V76.2369H629.336V74.8038H631.58V71.275L633.459 70.599V74.8038H637.84V76.2369H633.459V85.3495C633.459 87.0666 634.122 87.6885 635.487 87.6885C636.19 87.6885 637.056 87.4857 637.826 87.0801L637.718 88.5809C637.15 88.973 636.028 89.2569 635.028 89.2569ZM642.599 72.6541H640.246V70.4233H642.599V72.6541ZM642.369 89H640.49V74.8038H642.369V89ZM650.968 89.2839C647.439 89.2839 645.492 86.6475 645.492 82.0506V81.7532C645.492 77.1428 647.439 74.5199 650.968 74.5199C654.497 74.5199 656.457 77.1428 656.457 81.7532V82.0506C656.457 86.6475 654.497 89.2839 650.968 89.2839ZM650.968 87.9725C653.347 87.9725 654.51 86.0932 654.51 82.1858V81.618C654.51 77.6971 653.347 75.8178 650.968 75.8178C648.588 75.8178 647.439 77.6971 647.439 81.618V82.1858C647.439 86.0932 648.588 87.9725 650.968 87.9725ZM661.459 89H659.58V74.8038H661.568C661.527 75.7637 661.324 76.913 660.783 78.7652L661.067 78.8599C662.122 75.8178 663.704 74.5469 665.935 74.5469C668.368 74.5469 669.693 75.926 669.693 78.4543V89H667.827V78.7517C667.827 76.967 666.976 75.9665 665.434 75.9665C663.109 75.9665 661.459 78.4813 661.459 81.9965V89ZM683.078 89.2569C680.834 89.2569 679.631 88.1077 679.631 85.5524V76.2369H677.386V74.8038H679.631V71.275L681.51 70.599V74.8038H685.89V76.2369H681.51V85.3495C681.51 87.0666 682.172 87.6885 683.538 87.6885C684.241 87.6885 685.106 87.4857 685.877 87.0801L685.769 88.5809C685.201 88.973 684.079 89.2569 683.078 89.2569ZM693.232 89.2839C689.703 89.2839 687.756 86.6475 687.756 82.0506V81.7532C687.756 77.1428 689.703 74.5199 693.232 74.5199C696.761 74.5199 698.721 77.1428 698.721 81.7532V82.0506C698.721 86.6475 696.761 89.2839 693.232 89.2839ZM693.232 87.9725C695.612 87.9725 696.774 86.0932 696.774 82.1858V81.618C696.774 77.6971 695.612 75.8178 693.232 75.8178C690.852 75.8178 689.703 77.6971 689.703 81.618V82.1858C689.703 86.0932 690.852 87.9725 693.232 87.9725ZM706.698 89.2839C703.169 89.2839 701.222 86.6475 701.222 82.0506V81.7532C701.222 77.1428 703.169 74.5199 706.698 74.5199C710.227 74.5199 712.187 77.1428 712.187 81.7532V82.0506C712.187 86.6475 710.227 89.2839 706.698 89.2839ZM706.698 87.9725C709.078 87.9725 710.24 86.0932 710.24 82.1858V81.618C710.24 77.6971 709.078 75.8178 706.698 75.8178C704.318 75.8178 703.169 77.6971 703.169 81.618V82.1858C703.169 86.0932 704.318 87.9725 706.698 87.9725ZM717.19 89H715.31V70.0717H717.19V89Z" fill="black"/>
<rect x="141.478" y="170.843" width="179.453" height="57.3146" rx="15.0835" fill="#6F7D9F"/>
<path d="M160.24 206H157.053V192.06H161.863C164.681 192.06 166.075 193.375 166.075 196.053V197.089C166.075 199.737 164.681 201.042 161.863 201.042H160.24V206ZM160.24 194.53V198.572H161.584C162.52 198.572 162.968 198.124 162.968 197.178V195.964C162.968 194.988 162.52 194.53 161.584 194.53H160.24ZM174.926 206H167.15V192.06H174.747V194.669H170.336V197.706H174.379V199.986H170.336V203.392H174.926V206ZM179.258 206H176.072V192.06H181.07C183.798 192.06 185.212 193.295 185.212 195.585V196.043C185.212 197.706 184.356 198.752 182.793 199.001V199.19C184.017 199.538 184.406 200.056 184.675 201.679L184.943 203.312C185.212 204.935 185.451 205.423 185.83 205.742L185.8 206H182.345C182.066 205.523 181.936 204.855 181.757 203.451L181.588 202.047C181.409 200.653 181.12 200.245 180.174 200.245H179.258V206ZM179.258 194.59V197.846H180.771C181.638 197.846 182.046 197.437 182.046 196.551V195.874C182.046 194.988 181.638 194.59 180.771 194.59H179.258ZM190.778 206.259C187.712 206.259 186.158 204.776 186.098 201.619L189.106 201.241C189.165 203.212 189.703 203.88 190.918 203.88C191.844 203.88 192.352 203.372 192.352 202.605C192.352 201.789 191.854 201.261 190.46 200.454L189.066 199.658C187.652 198.841 186.308 197.855 186.327 195.615C186.337 193.235 188.01 191.802 190.719 191.802C193.716 191.802 195.15 193.235 195.189 196.213L192.372 196.541C192.352 194.819 191.824 194.181 190.669 194.181C189.872 194.181 189.345 194.639 189.345 195.316C189.345 195.974 189.663 196.442 191.157 197.268L192.571 198.055C193.985 198.851 195.488 199.747 195.488 202.187C195.488 204.746 193.736 206.259 190.778 206.259ZM201.423 206.269C198.047 206.269 196.394 204.298 196.394 200.305V197.776C196.394 193.773 198.047 191.802 201.423 191.802C204.788 191.802 206.451 193.773 206.451 197.776V200.305C206.451 204.298 204.788 206.269 201.423 206.269ZM201.423 203.74C202.627 203.74 203.215 202.864 203.215 201.052V197.139C203.215 195.237 202.627 194.321 201.423 194.321C200.208 194.321 199.62 195.237 199.62 197.139V201.052C199.62 202.864 200.208 203.74 201.423 203.74ZM210.782 206H207.696V192.06H211.26L213.829 198.662C214.088 199.319 214.337 200.126 214.636 201.241L214.835 201.211C214.706 199.767 214.616 198.523 214.616 197.407V192.06H217.713V206H214.188L211.589 199.439C211.32 198.752 211.081 197.985 210.772 196.7L210.563 196.73C210.693 198.094 210.782 199.618 210.782 200.873V206ZM221.636 206H218.549L221.815 192.06H225.937L229.273 206H225.897L225.519 204.029H222.014L221.636 206ZM223.179 198.294L222.492 201.729H225.041L224.364 198.294C224.155 197.228 223.986 196.213 223.866 195.028H223.657C223.557 196.213 223.398 197.228 223.179 198.294ZM237.398 206H230.119V192.06H233.306V203.392H237.398V206ZM248.371 206H241.092V192.06H244.278V203.392H248.371V206ZM257.273 206H249.496V192.06H257.093V194.669H252.682V197.706H256.725V199.986H252.682V203.392H257.273V206ZM263.924 206H260.728V194.669H257.84V192.06H266.821V194.669H263.924V206ZM273.563 206H270.366V194.669H267.479V192.06H276.46V194.669H273.563V206ZM285.133 206H277.356V192.06H284.954V194.669H280.543V197.706H284.585V199.986H280.543V203.392H285.133V206ZM289.464 206H286.278V192.06H291.276C294.005 192.06 295.419 193.295 295.419 195.585V196.043C295.419 197.706 294.562 198.752 292.999 199.001V199.19C294.224 199.538 294.612 200.056 294.881 201.679L295.15 203.312C295.419 204.935 295.658 205.423 296.036 205.742L296.006 206H292.551C292.272 205.523 292.143 204.855 291.963 203.451L291.794 202.047C291.615 200.653 291.326 200.245 290.38 200.245H289.464V206ZM289.464 194.59V197.846H290.978C291.844 197.846 292.252 197.437 292.252 196.551V195.874C292.252 194.988 291.844 194.59 290.978 194.59H289.464ZM300.985 206.259C297.918 206.259 296.365 204.776 296.305 201.619L299.312 201.241C299.372 203.212 299.909 203.88 301.124 203.88C302.05 203.88 302.558 203.372 302.558 202.605C302.558 201.789 302.06 201.261 300.666 200.454L299.272 199.658C297.858 198.841 296.514 197.855 296.534 195.615C296.544 193.235 298.217 191.802 300.925 191.802C303.922 191.802 305.356 193.235 305.396 196.213L302.578 196.541C302.558 194.819 302.03 194.181 300.875 194.181C300.079 194.181 299.551 194.639 299.551 195.316C299.551 195.974 299.869 196.442 301.363 197.268L302.777 198.055C304.191 198.851 305.694 199.747 305.694 202.187C305.694 204.746 303.942 206.259 300.985 206.259Z" fill="#F8E7D6"/>
<rect x="350.835" y="170.843" width="179.453" height="57.3146" rx="15.0835" fill="#7FA27C"/>
<path d="M378.628 206H375.441V192.06H380.44C383.168 192.06 384.582 193.295 384.582 195.585V196.043C384.582 197.706 383.726 198.752 382.163 199.001V199.19C383.387 199.538 383.776 200.056 384.044 201.679L384.313 203.312C384.582 204.935 384.821 205.423 385.199 205.742L385.17 206H381.714C381.436 205.523 381.306 204.855 381.127 203.451L380.958 202.047C380.778 200.653 380.49 200.245 379.544 200.245H378.628V206ZM378.628 194.59V197.846H380.141C381.008 197.846 381.416 197.437 381.416 196.551V195.874C381.416 194.988 381.008 194.59 380.141 194.59H378.628ZM393.812 206H386.036V192.06H393.633V194.669H389.222V197.706H393.265V199.986H389.222V203.392H393.812V206ZM402.236 206H394.958V192.06H398.144V203.392H402.236V206ZM405.811 206H402.724L405.99 192.06H410.112L413.448 206H410.073L409.694 204.029H406.189L405.811 206ZM407.354 198.294L406.667 201.729H409.216L408.539 198.294C408.33 197.228 408.161 196.213 408.041 195.028H407.832C407.733 196.213 407.573 197.228 407.354 198.294ZM418.845 206H415.649V194.669H412.761V192.06H421.742V194.669H418.845V206ZM425.825 206H422.639V192.06H425.825V206ZM432.098 206.269C428.722 206.269 427.07 204.298 427.07 200.305V197.776C427.07 193.773 428.722 191.802 432.098 191.802C435.463 191.802 437.126 193.773 437.126 197.776V200.305C437.126 204.298 435.463 206.269 432.098 206.269ZM432.098 203.74C433.303 203.74 433.89 202.864 433.89 201.052V197.139C433.89 195.237 433.303 194.321 432.098 194.321C430.883 194.321 430.296 195.237 430.296 197.139V201.052C430.296 202.864 430.883 203.74 432.098 203.74ZM441.458 206H438.371V192.06H441.936L444.505 198.662C444.763 199.319 445.012 200.126 445.311 201.241L445.51 201.211C445.381 199.767 445.291 198.523 445.291 197.407V192.06H448.388V206H444.863L442.264 199.439C441.995 198.752 441.756 197.985 441.448 196.7L441.239 196.73C441.368 198.094 441.458 199.618 441.458 200.873V206ZM452.311 206H449.224L452.49 192.06H456.613L459.948 206H456.573L456.194 204.029H452.689L452.311 206ZM453.854 198.294L453.167 201.729H455.716L455.039 198.294C454.83 197.228 454.661 196.213 454.541 195.028H454.332C454.233 196.213 454.073 197.228 453.854 198.294ZM468.073 206H460.795V192.06H463.981V203.392H468.073V206ZM474.824 206H471.767V192.06H475.77L477.373 197.437C477.602 198.194 477.881 199.508 478.13 201.341H478.339C478.608 199.508 478.877 198.184 479.096 197.437L480.649 192.06H484.672V206H481.565L481.585 200.205C481.585 199.22 481.615 198.194 481.715 196.9L481.515 196.87L479.325 206H477.075L474.904 196.87L474.695 196.89C474.784 198.184 474.824 199.22 474.824 200.205V206ZM488.595 206H485.508L488.774 192.06H492.897L496.232 206H492.857L492.478 204.029H488.973L488.595 206ZM490.138 198.294L489.451 201.729H492L491.323 198.294C491.114 197.228 490.945 196.213 490.825 195.028H490.616C490.517 196.213 490.357 197.228 490.138 198.294ZM500.265 206H497.079V192.06H501.888C504.706 192.06 506.1 193.375 506.1 196.053V197.089C506.1 199.737 504.706 201.042 501.888 201.042H500.265V206ZM500.265 194.53V198.572H501.609C502.545 198.572 502.993 198.124 502.993 197.178V195.964C502.993 194.988 502.545 194.53 501.609 194.53H500.265Z" fill="#F8E7D6"/>
<rect x="560.191" y="170.843" width="179.453" height="57.3146" rx="15.0835" fill="#B86C6C"/>
<path d="M572.69 206H569.603V192.06H573.168L575.737 198.662C575.996 199.319 576.245 200.126 576.543 201.241L576.743 201.211C576.613 199.767 576.523 198.523 576.523 197.407V192.06H579.62V206H576.095L573.496 199.439C573.228 198.752 572.989 197.985 572.68 196.7L572.471 196.73C572.6 198.094 572.69 199.618 572.69 200.873V206ZM583.543 206H580.457L583.723 192.06H587.845L591.18 206H587.805L587.427 204.029H583.922L583.543 206ZM585.087 198.294L584.4 201.729H586.949L586.272 198.294C586.062 197.228 585.893 196.213 585.774 195.028H585.565C585.465 196.213 585.306 197.228 585.087 198.294ZM595.213 206H592.027V192.06H597.025C599.754 192.06 601.168 193.295 601.168 195.585V196.043C601.168 197.706 600.311 198.752 598.748 199.001V199.19C599.973 199.538 600.361 200.056 600.63 201.679L600.899 203.312C601.168 204.935 601.406 205.423 601.785 205.742L601.755 206H598.3C598.021 205.523 597.892 204.855 597.712 203.451L597.543 202.047C597.364 200.653 597.075 200.245 596.129 200.245H595.213V206ZM595.213 194.59V197.846H596.727C597.593 197.846 598.001 197.437 598.001 196.551V195.874C598.001 194.988 597.593 194.59 596.727 194.59H595.213ZM605.808 206H602.621V192.06H607.62C610.348 192.06 611.762 193.295 611.762 195.585V196.043C611.762 197.706 610.906 198.752 609.342 199.001V199.19C610.567 199.538 610.955 200.056 611.224 201.679L611.493 203.312C611.762 204.935 612.001 205.423 612.379 205.742L612.349 206H608.894C608.616 205.523 608.486 204.855 608.307 203.451L608.138 202.047C607.958 200.653 607.67 200.245 606.724 200.245H605.808V206ZM605.808 194.59V197.846H607.321C608.187 197.846 608.596 197.437 608.596 196.551V195.874C608.596 194.988 608.187 194.59 607.321 194.59H605.808ZM615.805 206H612.718L615.984 192.06H620.106L623.442 206H620.066L619.688 204.029H616.183L615.805 206ZM617.348 198.294L616.661 201.729H619.21L618.533 198.294C618.324 197.228 618.155 196.213 618.035 195.028H617.826C617.726 196.213 617.567 197.228 617.348 198.294ZM628.839 206H625.642V194.669H622.755V192.06H631.736V194.669H628.839V206ZM635.819 206H632.632V192.06H635.819V206ZM643.834 206H639.981L636.655 192.06H640.06L641.405 198.891C641.624 200.016 641.763 200.962 641.873 202.386H642.092C642.211 200.962 642.341 200.016 642.56 198.891L643.894 192.06H647.06L643.834 206ZM655.683 206H647.907V192.06H655.504V194.669H651.093V197.706H655.136V199.986H651.093V203.392H655.683V206ZM662.803 206H659.616V192.06H664.426C667.243 192.06 668.638 193.375 668.638 196.053V197.089C668.638 199.737 667.243 201.042 664.426 201.042H662.803V206ZM662.803 194.53V198.572H664.147C665.083 198.572 665.531 198.124 665.531 197.178V195.964C665.531 194.988 665.083 194.53 664.147 194.53H662.803ZM674.552 206.269C671.177 206.269 669.524 204.298 669.524 200.305V197.776C669.524 193.773 671.177 191.802 674.552 191.802C677.918 191.802 679.58 193.773 679.58 197.776V200.305C679.58 204.298 677.918 206.269 674.552 206.269ZM674.552 203.74C675.757 203.74 676.344 202.864 676.344 201.052V197.139C676.344 195.237 675.757 194.321 674.552 194.321C673.337 194.321 672.75 195.237 672.75 197.139V201.052C672.75 202.864 673.337 203.74 674.552 203.74ZM685.286 206H680.825V192.06H685.286C688.671 192.06 690.294 193.952 690.294 197.905V200.166C690.294 204.119 688.671 206 685.286 206ZM684.011 194.59V203.471H685.117C686.451 203.471 687.058 202.735 687.058 201.102V196.959C687.058 195.326 686.451 194.59 685.117 194.59H684.011ZM696.119 206.259C692.824 206.259 691.29 204.298 691.29 200.305V197.756C691.29 193.773 692.853 191.802 696.119 191.802C699.186 191.802 700.849 193.405 700.879 197.208L697.842 197.676C697.832 195.107 697.284 194.311 696.179 194.311C695.054 194.311 694.516 195.187 694.516 197.039V201.012C694.516 202.854 695.064 203.74 696.189 203.74C697.225 203.74 697.832 202.894 697.862 200.156L700.959 200.823C700.879 204.666 699.117 206.259 696.119 206.259ZM704.225 206H701.138L704.404 192.06H708.526L711.862 206H708.486L708.108 204.029H704.603L704.225 206ZM705.768 198.294L705.081 201.729H707.63L706.953 198.294C706.744 197.228 706.574 196.213 706.455 195.028H706.246C706.146 196.213 705.987 197.228 705.768 198.294ZM716.84 206.259C713.774 206.259 712.22 204.776 712.16 201.619L715.168 201.241C715.227 203.212 715.765 203.88 716.98 203.88C717.906 203.88 718.414 203.372 718.414 202.605C718.414 201.789 717.916 201.261 716.522 200.454L715.128 199.658C713.714 198.841 712.37 197.855 712.389 195.615C712.399 193.235 714.072 191.802 716.781 191.802C719.778 191.802 721.212 193.235 721.251 196.213L718.433 196.541C718.414 194.819 717.886 194.181 716.731 194.181C715.934 194.181 715.406 194.639 715.406 195.316C715.406 195.974 715.725 196.442 717.219 197.268L718.633 198.055C720.047 198.851 721.55 199.747 721.55 202.187C721.55 204.746 719.798 206.259 716.84 206.259ZM727.933 206H724.736V194.669H721.849V192.06H730.83V194.669H727.933V206Z" fill="#F8E7D6"/>
<path d="M156.425 328.53H139.788V300.57H156.005V304.584H144.741V312.173H155.087V315.728H144.741V324.496H156.425V328.53ZM170.944 307.2C175.417 307.2 177.774 310.775 177.774 317.605V318.484C177.774 325.314 175.417 328.889 170.944 328.889C167.389 328.889 165.292 326.752 164.193 323.357L163.774 323.517C164.513 326.073 164.813 327.851 164.813 329.828V335.52H159.94V307.56H164.793C164.753 308.598 164.433 310.276 163.774 312.573L164.193 312.712C165.312 309.197 167.409 307.2 170.944 307.2ZM169.027 310.476C166.29 310.476 164.813 312.912 164.813 317.466V318.604C164.813 323.177 166.29 325.634 169.027 325.634C171.583 325.634 172.861 323.417 172.861 318.804V317.266C172.861 312.673 171.583 310.476 169.027 310.476ZM186.482 305.004H181.189V300.889H186.482V305.004ZM186.262 328.53H181.389V307.56H186.262V328.53ZM198.245 329.009C192.812 329.009 189.697 326.633 189.557 322.399L194.19 321.46C194.151 324.196 195.588 325.734 198.225 325.734C200.282 325.734 201.42 324.935 201.42 323.357C201.42 321.799 200.402 321.08 197.725 320.082L195.049 319.063C192.373 318.045 190.076 316.088 190.076 313.172C190.076 309.297 192.772 307.12 197.665 307.12C202.798 307.12 205.634 309.277 205.654 313.172L201.121 313.971C201.22 311.494 199.982 310.396 197.725 310.396C195.748 310.396 194.65 311.135 194.65 312.473C194.65 313.831 195.608 314.69 198.285 315.648L200.961 316.627C203.637 317.605 206.293 319.123 206.293 322.898C206.293 326.712 203.337 329.009 198.245 329.009ZM216.439 328.989C212.644 328.989 210.687 327.072 210.687 322.958V311.095H207.731V307.56H210.687V302.807L215.56 301.349V307.56H221.052V311.095H215.56V322.379C215.56 324.376 216.379 325.155 218.036 325.155C218.935 325.155 220.053 324.915 221.112 324.456L220.832 328.011C219.734 328.59 218.036 328.989 216.439 328.989ZM232.216 329.029C226.424 329.029 223.209 324.955 223.209 318.265V317.825C223.209 311.095 226.424 307.061 232.216 307.061C238.008 307.061 241.223 311.095 241.223 317.825V318.265C241.223 324.955 237.988 329.029 232.216 329.029ZM232.216 325.674C234.892 325.674 236.21 323.517 236.21 318.983V317.106C236.21 312.573 234.892 310.396 232.216 310.396C229.52 310.396 228.222 312.573 228.222 317.106V318.983C228.222 323.517 229.52 325.674 232.216 325.674ZM249.691 328.53H244.818V300.57H249.691V328.53ZM258.438 329.009C255.043 329.009 253.106 327.052 253.106 323.737V323.657C253.106 319.143 256.601 317.506 260.635 316.487L264.649 315.469V313.711C264.649 311.414 263.711 310.376 261.614 310.376C259.177 310.376 258.059 311.934 258.299 315.289L253.565 314.77C253.266 309.936 256.162 307.081 261.714 307.081C266.826 307.081 269.443 309.297 269.443 313.631V323.817C269.443 325.334 269.682 325.554 271.52 325.634L270.881 328.909C270.601 328.969 270.142 329.009 269.762 329.009C265.948 329.009 265.069 327.471 265.848 323.637L265.448 323.557C264.47 327.112 262.113 329.009 258.438 329.009ZM260.216 325.474C262.772 325.474 264.649 323.297 264.649 320.182V318.764L262.153 319.463C259.677 320.162 257.979 321.18 257.979 323.217V323.297C257.979 324.715 258.758 325.474 260.216 325.474ZM279.169 328.53H274.296V307.56H279.189C279.229 309.038 279.029 310.096 278.05 312.912L278.45 313.092C280.327 308.658 282.164 307.2 285.879 306.901L286.578 311.294C280.547 311.554 279.169 313.272 279.169 319.363V328.53ZM288.935 335.999L288.316 331.845L291.032 331.585C293.368 331.366 294.147 330.767 294.407 329.768L294.666 328.769L287.836 307.56H292.849L295.805 318.844C296.284 320.621 296.624 322.379 296.923 324.476H297.343C297.642 322.379 297.982 320.661 298.461 318.884L301.337 307.56H306.09L300.099 327.511C298.261 333.742 295.925 335.6 288.935 335.999Z" fill="#6F7D9F"/>
<path d="M463.704 329.009C460.309 329.009 458.372 327.052 458.372 323.737V323.657C458.372 319.143 461.867 317.506 465.901 316.487L469.915 315.469V313.711C469.915 311.414 468.977 310.376 466.88 310.376C464.443 310.376 463.325 311.934 463.564 315.289L458.831 314.77C458.532 309.936 461.427 307.081 466.979 307.081C472.092 307.081 474.708 309.297 474.708 313.631V323.817C474.708 325.334 474.948 325.554 476.785 325.634L476.146 328.909C475.867 328.969 475.407 329.009 475.028 329.009C471.213 329.009 470.335 327.471 471.113 323.637L470.714 323.557C469.735 327.112 467.379 329.009 463.704 329.009ZM465.482 325.474C468.038 325.474 469.915 323.297 469.915 320.182V318.764L467.419 319.463C464.942 320.162 463.245 321.18 463.245 323.217V323.297C463.245 324.715 464.024 325.474 465.482 325.474ZM491.205 307.56H496.078V328.53H491.205C491.245 327.032 491.504 325.634 492.323 323.177L491.904 323.018C490.306 327.112 487.949 328.889 484.714 328.889C481.039 328.889 479.162 326.912 479.162 323.138V307.56H484.015V322.139C484.015 324.276 484.974 325.434 486.731 325.434C489.407 325.434 491.205 322.518 491.205 318.185V307.56ZM506.523 328.889C502.049 328.889 499.693 325.314 499.693 318.484V317.605C499.693 310.775 502.049 307.2 506.523 307.2C510.078 307.2 512.155 309.337 513.273 312.732L513.692 312.573C512.934 310.016 512.654 308.239 512.654 306.262V300.57H517.507V328.53H512.674C512.694 327.491 513.033 325.814 513.692 323.517L513.273 323.357C512.135 326.892 510.058 328.889 506.523 328.889ZM508.44 325.614C511.176 325.614 512.654 323.177 512.654 318.624V317.486C512.654 312.912 511.176 310.456 508.44 310.456C505.864 310.456 504.605 312.673 504.605 317.286V318.824C504.605 323.417 505.864 325.614 508.44 325.614ZM526.953 305.004H521.661V300.889H526.953V305.004ZM526.734 328.53H521.861V307.56H526.734V328.53ZM539.336 329.029C533.544 329.029 530.329 324.955 530.329 318.265V317.825C530.329 311.095 533.544 307.061 539.336 307.061C545.127 307.061 548.343 311.095 548.343 317.825V318.265C548.343 324.955 545.107 329.029 539.336 329.029ZM539.336 325.674C542.012 325.674 543.33 323.517 543.33 318.983V317.106C543.33 312.573 542.012 310.396 539.336 310.396C536.64 310.396 535.341 312.573 535.341 317.106V318.983C535.341 323.517 536.64 325.674 539.336 325.674ZM562.203 318.764H551.299V314.889H562.203V318.764ZM570.751 328.53H565.878V307.56H570.751C570.711 309.058 570.451 310.456 569.632 312.912L570.052 313.072C571.649 308.978 574.006 307.2 577.241 307.2C580.916 307.2 582.793 309.178 582.793 312.952V328.53H577.94V313.951C577.94 311.814 576.982 310.655 575.224 310.655C572.548 310.655 570.751 313.571 570.751 317.905V328.53ZM591.481 329.009C588.086 329.009 586.149 327.052 586.149 323.737V323.657C586.149 319.143 589.644 317.506 593.678 316.487L597.692 315.469V313.711C597.692 311.414 596.753 310.376 594.656 310.376C592.22 310.376 591.101 311.934 591.341 315.289L586.608 314.77C586.308 309.936 589.204 307.081 594.756 307.081C599.869 307.081 602.485 309.297 602.485 313.631V323.817C602.485 325.334 602.725 325.554 604.562 325.634L603.923 328.909C603.643 328.969 603.184 329.009 602.805 329.009C598.99 329.009 598.111 327.471 598.89 323.637L598.491 323.557C597.512 327.112 595.156 329.009 591.481 329.009ZM593.258 325.474C595.815 325.474 597.692 323.297 597.692 320.182V318.764L595.196 319.463C592.719 320.162 591.022 321.18 591.022 323.217V323.297C591.022 324.715 591.8 325.474 593.258 325.474ZM612.211 328.53H607.338V307.56H612.231C612.271 309.038 612.071 310.096 611.093 312.912L611.492 313.092C613.37 308.658 615.207 307.2 618.922 306.901L619.621 311.294C613.589 311.554 612.211 313.272 612.211 319.363V328.53ZM627.35 328.53H622.477V307.56H627.37C627.409 309.038 627.21 310.096 626.231 312.912L626.631 313.092C628.508 308.658 630.345 307.2 634.06 306.901L634.759 311.294C628.728 311.554 627.35 313.272 627.35 319.363V328.53ZM641.729 329.009C638.334 329.009 636.397 327.052 636.397 323.737V323.657C636.397 319.143 639.892 317.506 643.926 316.487L647.94 315.469V313.711C647.94 311.414 647.001 310.376 644.904 310.376C642.468 310.376 641.349 311.934 641.589 315.289L636.856 314.77C636.556 309.936 639.452 307.081 645.004 307.081C650.117 307.081 652.733 309.297 652.733 313.631V323.817C652.733 325.334 652.973 325.554 654.81 325.634L654.171 328.909C653.891 328.969 653.432 329.009 653.053 329.009C649.238 329.009 648.359 327.471 649.138 323.637L648.739 323.557C647.76 327.112 645.404 329.009 641.729 329.009ZM643.506 325.474C646.063 325.474 647.94 323.297 647.94 320.182V318.764L645.444 319.463C642.967 320.162 641.27 321.18 641.27 323.217V323.297C641.27 324.715 642.048 325.474 643.506 325.474ZM664.277 328.989C660.482 328.989 658.525 327.072 658.525 322.958V311.095H655.569V307.56H658.525V302.807L663.398 301.349V307.56H668.89V311.095H663.398V322.379C663.398 324.376 664.217 325.155 665.874 325.155C666.773 325.155 667.891 324.915 668.95 324.456L668.67 328.011C667.572 328.59 665.874 328.989 664.277 328.989ZM677.098 305.004H671.806V300.889H677.098V305.004ZM676.879 328.53H672.006V307.56H676.879V328.53ZM691.178 328.53H685.906L679.355 307.56H684.368L686.844 316.387C687.563 318.963 688.042 321.06 688.422 323.377H688.841C689.221 321.06 689.72 318.963 690.439 316.387L692.856 307.56H697.709L691.178 328.53ZM712.068 321.26L716.741 321.859C716.022 326.633 712.987 329.009 707.954 329.009C702.182 329.009 699.007 325.454 699.007 318.983V317.126C699.007 310.655 702.202 307.081 708.094 307.081C713.586 307.081 716.642 310.476 716.642 316.527C716.642 317.466 716.602 318.344 716.502 319.363H703.84V319.762C703.84 323.777 705.318 325.714 708.114 325.714C710.37 325.714 711.689 324.436 712.068 321.26ZM708.054 310.376C705.338 310.376 703.94 312.253 703.84 316.028H711.808V315.488C711.808 311.993 710.55 310.376 708.054 310.376ZM727.885 329.009C722.453 329.009 719.338 326.633 719.198 322.399L723.831 321.46C723.791 324.196 725.229 325.734 727.865 325.734C729.922 325.734 731.061 324.935 731.061 323.357C731.061 321.799 730.042 321.08 727.366 320.082L724.69 319.063C722.014 318.045 719.717 316.088 719.717 313.172C719.717 309.297 722.413 307.12 727.306 307.12C732.439 307.12 735.275 309.277 735.295 313.172L730.761 313.971C730.861 311.494 729.623 310.396 727.366 310.396C725.389 310.396 724.291 311.135 724.291 312.473C724.291 313.831 725.249 314.69 727.925 315.648L730.601 316.627C733.278 317.605 735.934 319.123 735.934 322.898C735.934 326.712 732.978 329.009 727.885 329.009Z" fill="#B86C6C"/>
<path d="M320.27 328.53H315.397V307.56H320.29C320.33 308.838 320.09 309.976 319.171 312.812L319.571 312.992C321.448 308.698 323.385 307.2 326.241 307.2C329.457 307.2 330.934 309.357 330.156 313.012L330.555 313.132C332.033 308.938 334.31 307.2 337.445 307.2C340.86 307.2 342.498 309.098 342.498 312.992V328.53H337.625V313.811C337.625 311.734 336.826 310.695 335.228 310.695C332.792 310.695 331.394 313.691 331.394 317.705V328.53H326.541V313.851C326.541 311.814 325.702 310.675 324.184 310.675C321.827 310.675 320.27 313.551 320.27 317.825V328.53ZM351.145 329.009C347.75 329.009 345.813 327.052 345.813 323.737V323.657C345.813 319.143 349.308 317.506 353.342 316.487L357.357 315.469V313.711C357.357 311.414 356.418 310.376 354.321 310.376C351.884 310.376 350.766 311.934 351.006 315.289L346.272 314.77C345.973 309.936 348.869 307.081 354.421 307.081C359.533 307.081 362.15 309.297 362.15 313.631V323.817C362.15 325.334 362.389 325.554 364.227 325.634L363.588 328.909C363.308 328.969 362.849 329.009 362.469 329.009C358.655 329.009 357.776 327.471 358.555 323.637L358.155 323.557C357.177 327.112 354.82 329.009 351.145 329.009ZM352.923 325.474C355.479 325.474 357.357 323.297 357.357 320.182V318.764L354.86 319.463C352.384 320.162 350.686 321.18 350.686 323.217V323.297C350.686 324.715 351.465 325.474 352.923 325.474ZM378.007 307.2C382.481 307.2 384.837 310.775 384.837 317.605V318.484C384.837 325.314 382.481 328.889 378.007 328.889C374.452 328.889 372.355 326.752 371.257 323.357L370.837 323.517C371.576 326.073 371.876 327.851 371.876 329.828V335.52H367.003V307.56H371.856C371.816 308.598 371.496 310.276 370.837 312.573L371.257 312.712C372.375 309.197 374.472 307.2 378.007 307.2ZM376.09 310.476C373.354 310.476 371.876 312.912 371.876 317.466V318.604C371.876 323.177 373.354 325.634 376.09 325.634C378.646 325.634 379.924 323.417 379.924 318.804V317.266C379.924 312.673 378.646 310.476 376.09 310.476ZM399.456 307.2C403.93 307.2 406.286 310.775 406.286 317.605V318.484C406.286 325.314 403.93 328.889 399.456 328.889C395.901 328.889 393.804 326.752 392.706 323.357L392.286 323.517C393.025 326.073 393.325 327.851 393.325 329.828V335.52H388.452V307.56H393.305C393.265 308.598 392.946 310.276 392.286 312.573L392.706 312.712C393.824 309.197 395.921 307.2 399.456 307.2ZM397.539 310.476C394.803 310.476 393.325 312.912 393.325 317.466V318.604C393.325 323.177 394.803 325.634 397.539 325.634C400.095 325.634 401.373 323.417 401.373 318.804V317.266C401.373 312.673 400.095 310.476 397.539 310.476ZM422.244 321.26L426.917 321.859C426.198 326.633 423.162 329.009 418.129 329.009C412.358 329.009 409.182 325.454 409.182 318.983V317.126C409.182 310.655 412.378 307.081 418.269 307.081C423.761 307.081 426.817 310.476 426.817 316.527C426.817 317.466 426.777 318.344 426.677 319.363H414.015V319.762C414.015 323.777 415.493 325.714 418.289 325.714C420.546 325.714 421.864 324.436 422.244 321.26ZM418.229 310.376C415.513 310.376 414.115 312.253 414.015 316.028H421.984V315.488C421.984 311.993 420.726 310.376 418.229 310.376ZM436.623 328.889C432.149 328.889 429.793 325.314 429.793 318.484V317.605C429.793 310.775 432.149 307.2 436.623 307.2C440.178 307.2 442.255 309.337 443.373 312.732L443.793 312.573C443.034 310.016 442.754 308.239 442.754 306.262V300.57H447.607V328.53H442.774C442.794 327.491 443.134 325.814 443.793 323.517L443.373 323.357C442.235 326.892 440.158 328.889 436.623 328.889ZM438.54 325.614C441.276 325.614 442.754 323.177 442.754 318.624V317.486C442.754 312.912 441.276 310.456 438.54 310.456C435.964 310.456 434.706 312.673 434.706 317.286V318.824C434.706 323.417 435.964 325.614 438.54 325.614Z" fill="#7FA27C"/>
<path d="M204.476 375.53H199.623V358.095H196.747V354.56H199.623V353.441C199.623 349.168 202.099 347.73 208.47 347.071L209.049 350.805C204.276 351.045 204.136 351.145 204.296 354.56H208.929V358.095H204.476V375.53ZM219.594 376.029C213.802 376.029 210.587 371.955 210.587 365.265V364.825C210.587 358.095 213.802 354.061 219.594 354.061C225.386 354.061 228.601 358.095 228.601 364.825V365.265C228.601 371.955 225.366 376.029 219.594 376.029ZM219.594 372.674C222.27 372.674 223.588 370.517 223.588 365.983V364.106C223.588 359.573 222.27 357.396 219.594 357.396C216.898 357.396 215.6 359.573 215.6 364.106V365.983C215.6 370.517 216.898 372.674 219.594 372.674ZM237.069 375.53H232.196V354.56H237.089C237.129 356.038 236.929 357.096 235.951 359.912L236.35 360.092C238.227 355.658 240.065 354.2 243.779 353.901L244.478 358.294C238.447 358.554 237.069 360.272 237.069 366.363V375.53ZM261.294 375.989C257.5 375.989 255.543 374.072 255.543 369.958V358.095H252.587V354.56H255.543V349.807L260.416 348.349V354.56H265.908V358.095H260.416V369.379C260.416 371.376 261.234 372.155 262.892 372.155C263.791 372.155 264.909 371.915 265.968 371.456L265.688 375.011C264.59 375.59 262.892 375.989 261.294 375.989ZM281.126 368.26L285.799 368.859C285.08 373.633 282.045 376.009 277.012 376.009C271.24 376.009 268.065 372.454 268.065 365.983V364.126C268.065 357.655 271.26 354.081 277.152 354.081C282.644 354.081 285.699 357.476 285.699 363.527C285.699 364.466 285.659 365.344 285.559 366.363H272.898V366.762C272.898 370.777 274.376 372.714 277.172 372.714C279.428 372.714 280.746 371.436 281.126 368.26ZM277.112 357.376C274.395 357.376 272.997 359.253 272.898 363.028H280.866V362.488C280.866 358.993 279.608 357.376 277.112 357.376ZM294.267 375.53H289.394V354.56H294.287C294.327 356.038 294.127 357.096 293.149 359.912L293.548 360.092C295.425 355.658 297.263 354.2 300.977 353.901L301.676 358.294C295.645 358.554 294.267 360.272 294.267 366.363V375.53ZM309.405 375.53H304.532V354.56H309.425C309.465 356.038 309.266 357.096 308.287 359.912L308.686 360.092C310.564 355.658 312.401 354.2 316.116 353.901L316.815 358.294C310.783 358.554 309.405 360.272 309.405 366.363V375.53ZM324.763 352.004H319.471V347.889H324.763V352.004ZM324.544 375.53H319.671V354.56H324.544V375.53ZM336.227 375.989C332.432 375.989 330.475 374.072 330.475 369.958V358.095H327.519V354.56H330.475V349.807L335.348 348.349V354.56H340.84V358.095H335.348V369.379C335.348 371.376 336.167 372.155 337.825 372.155C338.723 372.155 339.842 371.915 340.9 371.456L340.621 375.011C339.522 375.59 337.825 375.989 336.227 375.989ZM352.004 376.029C346.213 376.029 342.997 371.955 342.997 365.265V364.825C342.997 358.095 346.213 354.061 352.004 354.061C357.796 354.061 361.011 358.095 361.011 364.825V365.265C361.011 371.955 357.776 376.029 352.004 376.029ZM352.004 372.674C354.68 372.674 355.999 370.517 355.999 365.983V364.106C355.999 359.573 354.68 357.396 352.004 357.396C349.308 357.396 348.01 359.573 348.01 364.106V365.983C348.01 370.517 349.308 372.674 352.004 372.674ZM369.479 375.53H364.606V354.56H369.499C369.539 356.038 369.339 357.096 368.361 359.912L368.76 360.092C370.638 355.658 372.475 354.2 376.19 353.901L376.889 358.294C370.857 358.554 369.479 360.272 369.479 366.363V375.53ZM384.837 352.004H379.545V347.889H384.837V352.004ZM384.617 375.53H379.744V354.56H384.617V375.53ZM393.365 376.009C389.97 376.009 388.033 374.052 388.033 370.737V370.657C388.033 366.143 391.528 364.506 395.562 363.487L399.576 362.469V360.711C399.576 358.414 398.637 357.376 396.54 357.376C394.104 357.376 392.986 358.934 393.225 362.289L388.492 361.77C388.192 356.936 391.088 354.081 396.64 354.081C401.753 354.081 404.369 356.297 404.369 360.631V370.817C404.369 372.334 404.609 372.554 406.446 372.634L405.807 375.909C405.528 375.969 405.068 376.009 404.689 376.009C400.874 376.009 399.995 374.471 400.774 370.637L400.375 370.557C399.396 374.112 397.04 376.009 393.365 376.009ZM395.142 372.474C397.699 372.474 399.576 370.297 399.576 367.182V365.764L397.08 366.463C394.603 367.162 392.906 368.18 392.906 370.217V370.297C392.906 371.715 393.685 372.474 395.142 372.474ZM414.095 375.53H409.222V347.57H414.095V375.53ZM433.947 376.029C428.055 376.029 425 372.235 425 364.965V364.885C425 357.775 428.135 354.061 433.967 354.061C439.239 354.061 442.055 356.857 442.475 362.149L437.621 362.728C437.402 359.073 436.283 357.396 433.947 357.396C431.271 357.396 430.012 359.553 430.012 364.086V365.764C430.012 370.437 431.311 372.654 434.007 372.654C436.303 372.654 437.522 370.976 437.741 367.601L442.714 368.22C442.135 373.313 439.139 376.029 433.947 376.029ZM454.537 376.029C448.746 376.029 445.53 371.955 445.53 365.265V364.825C445.53 358.095 448.746 354.061 454.537 354.061C460.329 354.061 463.544 358.095 463.544 364.825V365.265C463.544 371.955 460.309 376.029 454.537 376.029ZM454.537 372.674C457.213 372.674 458.532 370.517 458.532 365.983V364.106C458.532 359.573 457.213 357.396 454.537 357.396C451.841 357.396 450.543 359.573 450.543 364.106V365.983C450.543 370.517 451.841 372.674 454.537 372.674ZM472.012 375.53H467.139V354.56H472.032C472.072 355.838 471.832 356.976 470.914 359.812L471.313 359.992C473.191 355.698 475.128 354.2 477.984 354.2C481.199 354.2 482.677 356.357 481.898 360.012L482.297 360.132C483.775 355.938 486.052 354.2 489.188 354.2C492.603 354.2 494.24 356.098 494.24 359.992V375.53H489.367V360.811C489.367 358.734 488.568 357.695 486.971 357.695C484.534 357.695 483.136 360.691 483.136 364.705V375.53H478.283V360.851C478.283 358.814 477.444 357.675 475.927 357.675C473.57 357.675 472.012 360.551 472.012 364.825V375.53ZM503.327 375.53H498.454V354.56H503.347C503.387 355.838 503.148 356.976 502.229 359.812L502.628 359.992C504.506 355.698 506.443 354.2 509.299 354.2C512.514 354.2 513.992 356.357 513.213 360.012L513.613 360.132C515.09 355.938 517.367 354.2 520.503 354.2C523.918 354.2 525.555 356.098 525.555 359.992V375.53H520.682V360.811C520.682 358.734 519.884 357.695 518.286 357.695C515.849 357.695 514.451 360.691 514.451 364.705V375.53H509.598V360.851C509.598 358.814 508.76 357.675 507.242 357.675C504.885 357.675 503.327 360.551 503.327 364.825V375.53ZM541.732 354.56H546.605V375.53H541.732C541.772 374.032 542.032 372.634 542.851 370.177L542.431 370.018C540.834 374.112 538.477 375.889 535.242 375.889C531.567 375.889 529.69 373.912 529.69 370.138V354.56H534.543V369.139C534.543 371.276 535.501 372.434 537.259 372.434C539.935 372.434 541.732 369.518 541.732 365.185V354.56ZM555.812 375.53H550.939V354.56H555.812C555.772 356.058 555.513 357.456 554.694 359.912L555.113 360.072C556.711 355.978 559.067 354.2 562.303 354.2C565.978 354.2 567.855 356.178 567.855 359.952V375.53H563.002V360.951C563.002 358.814 562.043 357.655 560.286 357.655C557.61 357.655 555.812 360.571 555.812 364.905V375.53ZM577.201 352.004H571.909V347.889H577.201V352.004ZM576.982 375.53H572.109V354.56H576.982V375.53ZM589.524 376.029C583.632 376.029 580.577 372.235 580.577 364.965V364.885C580.577 357.775 583.712 354.061 589.544 354.061C594.816 354.061 597.632 356.857 598.052 362.149L593.198 362.728C592.979 359.073 591.86 357.396 589.524 357.396C586.848 357.396 585.589 359.553 585.589 364.086V365.764C585.589 370.437 586.888 372.654 589.584 372.654C591.88 372.654 593.099 370.976 593.318 367.601L598.291 368.22C597.712 373.313 594.716 376.029 589.524 376.029ZM606.26 376.009C602.865 376.009 600.927 374.052 600.927 370.737V370.657C600.927 366.143 604.422 364.506 608.457 363.487L612.471 362.469V360.711C612.471 358.414 611.532 357.376 609.435 357.376C606.999 357.376 605.88 358.934 606.12 362.289L601.387 361.77C601.087 356.936 603.983 354.081 609.535 354.081C614.648 354.081 617.264 356.297 617.264 360.631V370.817C617.264 372.334 617.504 372.554 619.341 372.634L618.702 375.909C618.422 375.969 617.963 376.009 617.584 376.009C613.769 376.009 612.89 374.471 613.669 370.637L613.27 370.557C612.291 374.112 609.935 376.009 606.26 376.009ZM608.037 372.474C610.594 372.474 612.471 370.297 612.471 367.182V365.764L609.974 366.463C607.498 367.162 605.8 368.18 605.8 370.217V370.297C605.8 371.715 606.579 372.474 608.037 372.474ZM628.807 375.989C625.013 375.989 623.056 374.072 623.056 369.958V358.095H620.1V354.56H623.056V349.807L627.929 348.349V354.56H633.421V358.095H627.929V369.379C627.929 371.376 628.748 372.155 630.405 372.155C631.304 372.155 632.422 371.915 633.481 371.456L633.201 375.011C632.103 375.59 630.405 375.989 628.807 375.989ZM641.629 352.004H636.337V347.889H641.629V352.004ZM641.409 375.53H636.536V354.56H641.409V375.53ZM654.011 376.029C648.22 376.029 645.004 371.955 645.004 365.265V364.825C645.004 358.095 648.22 354.061 654.011 354.061C659.803 354.061 663.018 358.095 663.018 364.825V365.265C663.018 371.955 659.783 376.029 654.011 376.029ZM654.011 372.674C656.687 372.674 658.006 370.517 658.006 365.983V364.106C658.006 359.573 656.687 357.396 654.011 357.396C651.315 357.396 650.017 359.573 650.017 364.106V365.983C650.017 370.517 651.315 372.674 654.011 372.674ZM671.486 375.53H666.613V354.56H671.486C671.446 356.058 671.187 357.456 670.368 359.912L670.787 360.072C672.385 355.978 674.742 354.2 677.977 354.2C681.652 354.2 683.529 356.178 683.529 359.952V375.53H678.676V360.951C678.676 358.814 677.717 357.655 675.96 357.655C673.284 357.655 671.486 360.571 671.486 364.905V375.53Z" fill="#4B4B4B"/>
<path d="M224.925 131.849V171.233" stroke="url(#paint0_linear_2034_6626)" stroke-width="2.37083"/>
<path d="M440.951 131.849V171.233" stroke="url(#paint1_linear_2034_6626)" stroke-width="2.37083"/>
<path d="M656.977 131.849V171.233" stroke="url(#paint2_linear_2034_6626)" stroke-width="2.37083"/>
<defs>
<linearGradient id="paint0_linear_2034_6626" x1="225.425" y1="131.849" x2="225.425" y2="171.233" gradientUnits="userSpaceOnUse">
<stop stop-color="#B0A352"/>
<stop offset="1" stop-color="#6F7D9F"/>
</linearGradient>
<linearGradient id="paint1_linear_2034_6626" x1="441.451" y1="131.849" x2="441.451" y2="171.233" gradientUnits="userSpaceOnUse">
<stop stop-color="#B0A352"/>
<stop offset="1" stop-color="#7FA27C"/>
</linearGradient>
<linearGradient id="paint2_linear_2034_6626" x1="657.477" y1="131.849" x2="657.477" y2="171.233" gradientUnits="userSpaceOnUse">
<stop stop-color="#B0A352"/>
<stop offset="1" stop-color="#B86C6C"/>
</linearGradient>
</defs>
</svg>
