<svg width="488" height="461" viewBox="0 0 488 461" fill="none" xmlns="http://www.w3.org/2000/svg">
<rect width="488" height="461" fill="#5E5F3C"/>
<path d="M388.944 309.837C377.293 309.837 370.927 302.55 370.927 291.22V284.133C370.927 272.682 377.293 265.555 388.944 265.555C400.635 265.555 407.001 272.682 407.001 284.133V291.22C407.001 302.55 400.595 309.837 388.944 309.837ZM388.944 299.788C391.226 299.788 392.347 297.866 392.347 293.742V281.691C392.347 277.527 391.226 275.565 388.944 275.565C386.702 275.565 385.581 277.527 385.581 281.691V293.742C385.581 297.866 386.702 299.788 388.944 299.788Z" fill="#F8E7D6"/>
<path d="M360.637 308.716H344.141L334.052 266.676H348.746L350.988 281.05C351.628 285.254 351.989 288.497 352.309 293.582H353.15C353.55 288.497 353.95 285.254 354.551 281.05L356.593 266.676H370.686L360.637 308.716Z" fill="#F8E7D6"/>
<path d="M331.932 263.433H317.559V253.344H331.932V263.433ZM331.932 308.716H317.559V266.676H331.932V308.716Z" fill="#F8E7D6"/>
<path d="M302.781 308.716H288.407V266.677H302.42C302.541 269.319 302.1 271.361 300.539 274.884L301.219 275.325C305.263 268.038 307.986 266.116 313.591 265.275L314.912 278.568C304.022 279.809 302.781 280.97 302.781 291.42V308.716Z" fill="#F8E7D6"/>
<path d="M267.066 309.798C255.095 309.798 249.369 303.672 249.369 290.94V284.454C249.369 271.722 255.135 265.596 267.106 265.596C278.717 265.596 284.562 270.841 284.642 283.092L270.309 284.093C270.269 277.447 269.268 275.525 267.106 275.525C264.984 275.525 264.023 277.447 264.023 281.611V293.823C264.023 297.946 265.024 299.868 267.186 299.868C269.348 299.868 270.389 297.786 270.389 290.74L285.003 291.821C284.762 304.392 278.477 309.798 267.066 309.798Z" fill="#F8E7D6"/>
<path d="M229.996 309.837C218.985 309.837 213.18 305.513 213.22 296.664L226.873 294.863C226.833 298.746 227.834 300.868 230.116 300.868C231.517 300.868 232.358 300.028 232.358 298.666C232.358 296.544 230.756 294.903 226.392 292.541L222.068 290.218C217.664 287.856 213.58 284.253 213.58 278.527C213.58 270.32 219.266 265.715 229.675 265.715C240.486 265.715 245.931 269.799 245.931 278.087L232.638 279.729C232.758 276.125 231.878 274.564 229.756 274.564C228.354 274.564 227.433 275.244 227.433 276.566C227.433 278.487 228.795 279.809 233.119 281.971L237.443 284.093C241.767 286.255 246.932 289.217 246.932 297.025C246.932 305.233 240.966 309.837 229.996 309.837Z" fill="#F8E7D6"/>
<path d="M199.88 263.433H185.507V253.344H199.88V263.433ZM199.88 308.716H185.507V266.676H199.88V308.716Z" fill="#F8E7D6"/>
<path d="M172.9 309.677C164.812 309.677 160.768 305.633 160.768 297.265V276.966H156.364V266.677H160.768V258.469L175.142 254.465V266.677H182.309V276.966H175.142V295.624C175.142 297.666 176.103 298.587 178.065 298.587C179.306 298.587 180.867 298.346 182.589 297.906L181.708 307.955C179.106 309.077 176.023 309.677 172.9 309.677Z" fill="#F8E7D6"/>
<path d="M256.136 173.215C249.45 173.215 245.526 168.85 245.526 162.164V162.004C245.526 152.075 253.334 149.472 259.5 147.871L265.625 146.269V142.225C265.625 140.023 264.945 138.942 263.343 138.942C261.541 138.942 260.5 140.384 260.581 146.069L246.327 145.348C246.167 134.738 251.652 129.013 263.503 129.013C274.033 129.013 279.959 133.497 279.959 142.345V161.123C279.959 163.045 280.519 163.405 282.922 163.405L281.48 172.814C280.599 173.054 279.318 173.215 278.277 173.215C270.63 173.215 267.947 170.692 268.628 163.926L267.827 163.766C266.466 170.052 262.903 173.215 256.136 173.215ZM262.182 162.565C264.384 162.565 265.625 160.322 265.625 156.839V154.077L263.623 154.757C261.622 155.438 259.94 156.959 259.94 159.321V159.602C259.94 161.644 260.701 162.565 262.182 162.565Z" fill="#F8E7D6"/>
<path d="M232.476 172.134H218.103V130.094H232.116C232.236 132.737 231.795 134.779 230.234 138.302L230.915 138.743C234.958 131.456 237.681 129.534 243.286 128.693L244.607 141.986C233.717 143.227 232.476 144.388 232.476 154.838V172.134Z" fill="#F8E7D6"/>
<path d="M188.877 173.215C182.19 173.215 178.267 168.85 178.267 162.164V162.004C178.267 152.075 186.074 149.472 192.24 147.871L198.366 146.269V142.225C198.366 140.023 197.685 138.942 196.083 138.942C194.282 138.942 193.241 140.384 193.321 146.069L179.067 145.348C178.907 134.738 184.392 129.013 196.244 129.013C206.773 129.013 212.699 133.497 212.699 142.345V161.123C212.699 163.045 213.26 163.405 215.662 163.405L214.22 172.814C213.34 173.054 212.058 173.215 211.017 173.215C203.37 173.215 200.688 170.692 201.368 163.926L200.568 163.766C199.206 170.052 195.643 173.215 188.877 173.215ZM194.922 162.565C197.124 162.565 198.366 160.322 198.366 156.839V154.077L196.364 154.757C194.362 155.438 192.68 156.959 192.68 159.321V159.602C192.68 161.644 193.441 162.565 194.922 162.565Z" fill="#F8E7D6"/>
<path d="M155.845 173.255C142.072 173.255 135.826 165.448 135.826 149.192V139.023C135.826 122.807 142.232 115 155.845 115C168.897 115 175.704 121.486 175.824 137.101L161.971 139.063C161.971 129.374 160.089 126.411 156.125 126.411C152.362 126.411 150.52 129.414 150.52 135.579V152.555C150.52 158.761 152.362 161.764 156.165 161.764C159.729 161.764 161.851 158.561 161.971 148.111L176.064 150.994C175.784 166.809 168.497 173.255 155.845 173.255Z" fill="#F8E7D6"/>
<path d="M326.995 241.529C320.31 241.529 316.387 237.165 316.387 230.48V230.32C316.387 220.392 324.193 217.79 330.358 216.189L336.483 214.587V210.544C336.483 208.343 335.802 207.262 334.201 207.262C332.399 207.262 331.359 208.703 331.439 214.387L317.187 213.667C317.027 203.058 322.512 197.334 334.361 197.334C344.889 197.334 350.814 201.817 350.814 210.664V229.439C350.814 231.361 351.375 231.721 353.777 231.721L352.335 241.129C351.455 241.369 350.174 241.529 349.133 241.529C341.487 241.529 338.805 239.007 339.485 232.242L338.684 232.081C337.323 238.366 333.761 241.529 326.995 241.529ZM333.04 230.88C335.242 230.88 336.483 228.639 336.483 225.156V222.394L334.481 223.074C332.48 223.755 330.798 225.276 330.798 227.638V227.918C330.798 229.96 331.559 230.88 333.04 230.88Z" fill="#B0A352"/>
<path d="M313.504 195.172H299.133V185.084H313.504V195.172ZM313.504 240.448H299.133V198.415H313.504V240.448Z" fill="#B0A352"/>
<path d="M277.435 228.038L283.48 229.199C289.565 230.36 297.051 232.041 297.051 241.889C297.051 251.497 290.486 255.58 277.155 255.58C265.226 255.58 259.341 252.577 259.341 246.212C259.341 241.929 261.302 239.367 266.867 238.486V237.445C263.384 236.084 260.942 233.722 260.942 229.639C260.942 226.156 263.264 223.754 267.467 223.034V222.233C263.384 219.991 261.262 216.188 261.262 210.944C261.262 202.137 267.227 197.413 278.236 197.413C280.358 197.413 282.279 197.574 284 197.934C281.198 190.128 284.841 185.044 294.529 184.483L295.53 196.132C289.045 196.693 287.283 197.293 287.403 198.935C292.447 200.976 295.129 205.06 295.129 210.944C295.129 219.711 289.165 224.475 278.236 224.475C275.794 224.475 273.592 224.235 271.671 223.794C270.95 224.035 270.59 224.395 270.59 225.035C270.59 226.156 271.39 226.877 277.435 228.038ZM278.196 205.42C276.274 205.42 275.434 206.981 275.434 210.944C275.434 214.907 276.274 216.469 278.236 216.469C280.117 216.469 280.958 214.907 280.958 210.944C280.958 206.981 280.117 205.42 278.196 205.42ZM278.036 245.932C283.4 245.932 285.362 245.412 285.362 243.37C285.362 241.569 284.241 240.728 278.196 239.767L272.151 238.806C272.071 238.806 272.031 238.766 271.951 238.766C270.149 239.727 269.429 240.888 269.429 242.369C269.429 245.051 271.511 245.932 278.036 245.932Z" fill="#B0A352"/>
<path d="M238.524 228.038L244.569 229.199C250.654 230.36 258.14 232.041 258.14 241.889C258.14 251.497 251.575 255.58 238.244 255.58C226.314 255.58 220.43 252.577 220.43 246.212C220.43 241.929 222.391 239.367 227.956 238.486V237.445C224.473 236.084 222.031 233.722 222.031 229.639C222.031 226.156 224.353 223.754 228.556 223.034V222.233C224.473 219.991 222.351 216.188 222.351 210.944C222.351 202.137 228.316 197.413 239.325 197.413C241.446 197.413 243.368 197.574 245.089 197.934C242.287 190.128 245.93 185.044 255.618 184.483L256.619 196.132C250.133 196.693 248.372 197.293 248.492 198.935C253.536 200.976 256.218 205.06 256.218 210.944C256.218 219.711 250.253 224.475 239.325 224.475C236.883 224.475 234.681 224.235 232.76 223.794C232.039 224.035 231.679 224.395 231.679 225.035C231.679 226.156 232.479 226.877 238.524 228.038ZM239.285 205.42C237.363 205.42 236.523 206.981 236.523 210.944C236.523 214.907 237.363 216.469 239.325 216.469C241.206 216.469 242.047 214.907 242.047 210.944C242.047 206.981 241.206 205.42 239.285 205.42ZM239.125 245.932C244.489 245.932 246.45 245.412 246.45 243.37C246.45 241.569 245.33 240.728 239.285 239.767L233.24 238.806C233.16 238.806 233.12 238.766 233.04 238.766C231.238 239.727 230.518 240.888 230.518 242.369C230.518 245.051 232.599 245.932 239.125 245.932Z" fill="#B0A352"/>
<path d="M201.175 241.569C189.525 241.569 183.16 234.283 183.16 222.954V215.869C183.16 204.419 189.525 197.294 201.175 197.294C212.864 197.294 219.229 204.419 219.229 215.869V222.954C219.229 234.283 212.824 241.569 201.175 241.569ZM201.175 231.521C203.456 231.521 204.577 229.599 204.577 225.476V213.427C204.577 209.263 203.456 207.302 201.175 207.302C198.933 207.302 197.812 209.263 197.812 213.427V225.476C197.812 229.599 198.933 231.521 201.175 231.521Z" fill="#B0A352"/>
<path d="M179.557 195.172H165.186V185.084H179.557V195.172ZM179.557 240.448H165.186V198.415H179.557V240.448Z" fill="#B0A352"/>
<path d="M140.646 240.448H126.274V184.404H140.646V195.292C140.646 199.015 139.965 202.258 138.244 206.421L139.005 206.781C141.847 200.777 145.89 197.854 151.535 197.854C158.02 197.854 161.142 201.097 161.142 207.822V240.448H146.771V211.185C146.771 208.943 145.97 207.862 144.409 207.862C141.927 207.862 140.646 210.865 140.646 216.229V240.448Z" fill="#B0A352"/>
<path d="M102.535 241.569C88.7645 241.569 82.5195 233.763 82.5195 217.51V207.342C82.5195 191.129 88.9246 183.323 102.535 183.323C115.586 183.323 122.391 189.808 122.511 205.42L108.66 207.382C108.66 197.694 106.779 194.732 102.816 194.732C99.0527 194.732 97.2112 197.734 97.2112 203.899V220.872C97.2112 227.077 99.0527 230.08 102.856 230.08C106.419 230.08 108.54 226.877 108.66 216.429L122.752 219.311C122.471 235.124 115.186 241.569 102.535 241.569Z" fill="#B0A352"/>
<path d="M378.598 338.692L382.493 339.192C381.894 343.17 379.364 345.151 375.169 345.151C370.359 345.151 367.712 342.188 367.712 336.795V335.247C367.712 329.854 370.375 326.874 375.286 326.874C379.863 326.874 382.41 329.704 382.41 334.747C382.41 335.53 382.376 336.262 382.293 337.111H371.74V337.444C371.74 340.789 372.972 342.404 375.302 342.404C377.183 342.404 378.282 341.339 378.598 338.692ZM375.252 329.62C372.988 329.62 371.823 331.185 371.74 334.331H378.382V333.882C378.382 330.969 377.333 329.62 375.252 329.62Z" fill="#F8E7D6"/>
<path d="M360.188 344.751H356.127V327.273H360.205C360.238 328.505 360.072 329.387 359.256 331.734L359.589 331.884C361.154 328.189 362.685 326.974 365.781 326.724L366.364 330.386C361.337 330.602 360.188 332.034 360.188 337.111V344.751Z" fill="#F8E7D6"/>
<path d="M342.911 345.151C340.081 345.151 338.467 343.519 338.467 340.756V340.69C338.467 336.928 341.38 335.563 344.742 334.714L348.088 333.865V332.4C348.088 330.486 347.305 329.62 345.558 329.62C343.527 329.62 342.595 330.919 342.795 333.715L338.85 333.282C338.6 329.254 341.014 326.874 345.641 326.874C349.902 326.874 352.083 328.722 352.083 332.334V340.823C352.083 342.088 352.282 342.271 353.814 342.337L353.281 345.067C353.048 345.117 352.665 345.151 352.349 345.151C349.17 345.151 348.437 343.869 349.086 340.673L348.754 340.606C347.938 343.569 345.974 345.151 342.911 345.151ZM344.393 342.204C346.523 342.204 348.088 340.39 348.088 337.793V336.612L346.007 337.194C343.943 337.777 342.528 338.626 342.528 340.323V340.39C342.528 341.572 343.177 342.204 344.393 342.204Z" fill="#F8E7D6"/>
<path d="M317.859 344.751H313.931V321.448H319.091L323.069 333.299C323.635 334.964 324.101 336.678 324.534 338.742H324.867C325.316 336.678 325.782 334.947 326.315 333.299L330.243 321.448H335.403V344.751H331.375V332.6C331.375 330.986 331.425 329.504 331.625 327.54L331.292 327.507L326.015 344.751H323.252L317.975 327.49L317.626 327.523C317.792 329.504 317.859 330.986 317.859 332.6V344.751Z" fill="#F8E7D6"/>
<path d="M304.027 344.751H299.966V321.448H304.027V344.751Z" fill="#F8E7D6"/>
<path d="M286.749 345.151C283.919 345.151 282.305 343.519 282.305 340.756V340.69C282.305 336.928 285.218 335.563 288.58 334.714L291.926 333.865V332.4C291.926 330.486 291.143 329.62 289.396 329.62C287.365 329.62 286.433 330.919 286.632 333.715L282.688 333.282C282.438 329.254 284.851 326.874 289.479 326.874C293.74 326.874 295.921 328.722 295.921 332.334V340.823C295.921 342.088 296.12 342.271 297.652 342.337L297.119 345.067C296.886 345.117 296.503 345.151 296.187 345.151C293.008 345.151 292.275 343.869 292.924 340.673L292.591 340.606C291.776 343.569 289.812 345.151 286.749 345.151ZM288.23 342.204C290.361 342.204 291.926 340.39 291.926 337.793V336.612L289.845 337.194C287.781 337.777 286.366 338.626 286.366 340.323V340.39C286.366 341.572 287.015 342.204 288.23 342.204Z" fill="#F8E7D6"/>
<path d="M270.27 345.051C266.541 345.051 264.577 342.071 264.577 336.379V335.646C264.577 329.953 266.541 326.974 270.27 326.974C273.233 326.974 274.964 328.755 275.896 331.585L276.245 331.452C275.613 329.321 275.38 327.84 275.38 326.192V321.448H279.425V344.751H275.397C275.413 343.886 275.696 342.487 276.245 340.573L275.896 340.44C274.947 343.386 273.216 345.051 270.27 345.051ZM271.868 342.321C274.148 342.321 275.38 340.29 275.38 336.495V335.546C275.38 331.735 274.148 329.687 271.868 329.687C269.721 329.687 268.672 331.535 268.672 335.38V336.662C268.672 340.49 269.721 342.321 271.868 342.321Z" fill="#F8E7D6"/>
<path d="M252.194 338.692L256.089 339.192C255.489 343.17 252.959 345.151 248.765 345.151C243.954 345.151 241.308 342.188 241.308 336.795V335.247C241.308 329.854 243.971 326.874 248.881 326.874C253.459 326.874 256.005 329.704 256.005 334.747C256.005 335.53 255.972 336.262 255.889 337.111H245.336V337.444C245.336 340.789 246.568 342.404 248.898 342.404C250.779 342.404 251.877 341.339 252.194 338.692ZM248.848 329.62C246.584 329.62 245.419 331.185 245.336 334.331H251.977V333.882C251.977 330.969 250.929 329.62 248.848 329.62Z" fill="#F8E7D6"/>
<path d="M233.783 344.751H229.722V327.273H233.8C233.833 328.505 233.667 329.387 232.851 331.734L233.184 331.884C234.749 328.189 236.28 326.974 239.376 326.724L239.959 330.386C234.932 330.602 233.783 332.034 233.783 337.111V344.751Z" fill="#F8E7D6"/>
<path d="M222.831 338.692L226.726 339.192C226.127 343.17 223.597 345.151 219.402 345.151C214.592 345.151 211.945 342.188 211.945 336.795V335.247C211.945 329.854 214.609 326.874 219.519 326.874C224.096 326.874 226.643 329.704 226.643 334.747C226.643 335.53 226.61 336.262 226.527 337.111H215.973V337.444C215.973 340.789 217.205 342.404 219.536 342.404C221.416 342.404 222.515 341.339 222.831 338.692ZM219.486 329.62C217.222 329.62 216.057 331.185 215.973 334.331H222.615V333.882C222.615 330.969 221.566 329.62 219.486 329.62Z" fill="#F8E7D6"/>
<path d="M206.303 345.134C203.141 345.134 201.509 343.536 201.509 340.107V330.22H199.046V327.273H201.509V323.312L205.571 322.097V327.273H210.148V330.22H205.571V339.624C205.571 341.289 206.253 341.938 207.635 341.938C208.384 341.938 209.316 341.738 210.198 341.355L209.965 344.318C209.05 344.801 207.635 345.134 206.303 345.134Z" fill="#F8E7D6"/>
<path d="M194.916 345.134C191.753 345.134 190.122 343.536 190.122 340.107V330.22H187.658V327.273H190.122V323.312L194.183 322.097V327.273H197.695V330.22H194.183V339.624C194.183 341.289 194.866 341.938 196.247 341.938C196.996 341.938 197.928 341.738 198.811 341.355L198.578 344.318C197.662 344.801 196.247 345.134 194.916 345.134Z" fill="#F8E7D6"/>
<path d="M182.316 338.692L186.211 339.192C185.611 343.17 183.081 345.151 178.887 345.151C174.076 345.151 171.43 342.188 171.43 336.795V335.247C171.43 329.854 174.093 326.874 179.003 326.874C183.581 326.874 186.127 329.704 186.127 334.747C186.127 335.53 186.094 336.262 186.011 337.111H175.458V337.444C175.458 340.789 176.69 342.404 179.02 342.404C180.901 342.404 181.999 341.339 182.316 338.692ZM178.97 329.62C176.706 329.62 175.541 331.185 175.458 334.331H182.099V333.882C182.099 330.969 181.051 329.62 178.97 329.62Z" fill="#F8E7D6"/>
<path d="M169.916 344.751H156.866V321.448H160.994V341.389H169.916V344.751Z" fill="#F8E7D6"/>
</svg>
