<svg width="1120" height="650" viewBox="0 0 1120 650" fill="none" xmlns="http://www.w3.org/2000/svg">
<rect width="1120" height="650" fill="#60613E"/>
<path d="M249.159 415.667H206.03V288.309H169.931V259.917C204.272 258.159 209.545 254.779 211.573 226.387H249.159V415.667ZM337.039 354.016H266.735V320.216H337.039V354.016ZM428.974 415.667H376.652L331.495 226.387H377.734L395.986 319.134C398.96 334.412 400.853 347.256 402.34 366.589H405.314C406.937 347.256 408.694 334.412 411.669 319.134L429.786 226.387H472.779L428.974 415.667ZM527.535 415.667H484.271V226.387H527.535V415.667ZM608.385 415.667H547.815V226.387H608.385C654.353 226.387 676.39 252.075 676.39 305.749V336.44C676.39 390.114 654.353 415.667 608.385 415.667ZM591.079 260.728V381.326H606.086C624.203 381.326 632.45 371.321 632.45 349.148V292.905C632.45 270.733 624.203 260.728 606.086 260.728H591.079ZM798.881 415.667H693.29V226.387H796.448V261.809H736.554V303.045H791.445V334.006H736.554V380.244H798.881V415.667ZM877.433 419.317C831.6 419.317 809.157 392.548 809.157 338.332V303.992C809.157 249.641 831.6 222.872 877.433 222.872C923.13 222.872 945.709 249.641 945.709 303.992V338.332C945.709 392.548 923.13 419.317 877.433 419.317ZM877.433 384.976C893.792 384.976 901.769 373.079 901.769 348.472V295.339C901.769 269.516 893.792 257.077 877.433 257.077C860.938 257.077 852.961 269.516 852.961 295.339V348.472C852.961 373.079 860.938 384.976 877.433 384.976Z" fill="#F8E7D6"/>
</svg>
