<svg width="650" height="200" viewBox="0 0 650 200" fill="none" xmlns="http://www.w3.org/2000/svg">
<rect width="650" height="200" fill="#474A35"/>
<path d="M400.66 128C394.56 128 391.227 124.223 391.227 118.349V114.675C391.227 108.739 394.56 105.045 400.66 105.045C406.781 105.045 410.114 108.739 410.114 114.675V118.349C410.114 124.223 406.76 128 400.66 128ZM400.66 122.79C401.855 122.79 402.442 121.794 402.442 119.656V113.409C402.442 111.251 401.855 110.234 400.66 110.234C399.486 110.234 398.899 111.251 398.899 113.409V119.656C398.899 121.794 399.486 122.79 400.66 122.79Z" fill="#F8E7D6"/>
<path d="M385.839 127.419H377.202L371.92 105.626H379.613L380.787 113.077C381.122 115.256 381.311 116.937 381.479 119.573H381.919C382.129 116.937 382.338 115.256 382.653 113.077L383.722 105.626H391.101L385.839 127.419Z" fill="#F8E7D6"/>
<path d="M370.809 103.945H363.283V98.7148H370.809V103.945ZM370.809 127.419H363.283V105.626H370.809V127.419Z" fill="#F8E7D6"/>
<path d="M355.549 127.419H348.023V105.626H355.36C355.423 106.996 355.193 108.054 354.375 109.881L354.731 110.109C356.849 106.332 358.274 105.335 361.209 104.899L361.901 111.79C356.199 112.433 355.549 113.035 355.549 118.452V127.419Z" fill="#F8E7D6"/>
<path d="M336.851 127.979C330.584 127.979 327.586 124.803 327.586 118.203V114.841C327.586 108.241 330.605 105.065 336.872 105.065C342.951 105.065 346.012 107.784 346.054 114.135L338.549 114.654C338.528 111.209 338.004 110.213 336.872 110.213C335.761 110.213 335.258 111.209 335.258 113.367V119.698C335.258 121.835 335.782 122.832 336.914 122.832C338.046 122.832 338.591 121.752 338.591 118.1L346.243 118.66C346.117 125.177 342.826 127.979 336.851 127.979Z" fill="#F8E7D6"/>
<path d="M317.44 128C311.675 128 308.635 125.758 308.656 121.172L315.805 120.238C315.784 122.251 316.308 123.351 317.503 123.351C318.236 123.351 318.676 122.915 318.676 122.209C318.676 121.109 317.838 120.258 315.553 119.034L313.289 117.83C310.983 116.605 308.845 114.737 308.845 111.77C308.845 107.515 311.822 105.128 317.272 105.128C322.932 105.128 325.783 107.245 325.783 111.541L318.823 112.392C318.886 110.524 318.425 109.715 317.314 109.715C316.58 109.715 316.098 110.068 316.098 110.753C316.098 111.749 316.811 112.434 319.075 113.554L321.339 114.654C323.603 115.775 326.307 117.311 326.307 121.358C326.307 125.613 323.183 128 317.44 128Z" fill="#F8E7D6"/>
<path d="M301.676 103.945H294.15V98.7148H301.676V103.945ZM301.676 127.419H294.15V105.626H301.676V127.419Z" fill="#F8E7D6"/>
<path d="M287.546 127.917C283.312 127.917 281.195 125.821 281.195 121.483V110.96H278.889V105.626H281.195V101.371L288.72 99.2959V105.626H292.472V110.96H288.72V120.632C288.72 121.691 289.223 122.168 290.25 122.168C290.9 122.168 291.718 122.043 292.619 121.815L292.158 127.025C290.795 127.606 289.181 127.917 287.546 127.917Z" fill="#F8E7D6"/>
<path d="M341.803 57.1782C338.302 57.1782 336.248 54.9159 336.248 51.4498V51.3668C336.248 46.2195 340.336 44.8705 343.564 44.0403L346.771 43.2101V41.1138C346.771 39.9723 346.415 39.4119 345.576 39.4119C344.633 39.4119 344.088 40.1591 344.13 43.1063L336.667 42.7327C336.583 37.2326 339.455 34.2646 345.66 34.2646C351.173 34.2646 354.276 36.5892 354.276 41.1761V50.9102C354.276 51.9064 354.569 52.0932 355.827 52.0932L355.072 56.9706C354.611 57.0951 353.94 57.1782 353.395 57.1782C349.392 57.1782 347.987 55.8706 348.343 52.363L347.924 52.28C347.211 55.5385 345.346 57.1782 341.803 57.1782ZM344.968 51.6573C346.121 51.6573 346.771 50.4951 346.771 48.6894V47.2573L345.723 47.6101C344.675 47.9629 343.795 48.7516 343.795 49.9762V50.1215C343.795 51.18 344.193 51.6573 344.968 51.6573Z" fill="#F8E7D6"/>
<path d="M329.414 56.6178H321.889V34.8251H329.226C329.288 36.1949 329.058 37.2534 328.24 39.0798L328.597 39.3081C330.714 35.5307 332.139 34.5345 335.074 34.0986L335.766 40.9893C330.064 41.6327 329.414 42.2346 329.414 47.6516V56.6178Z" fill="#F8E7D6"/>
<path d="M306.586 57.1782C303.086 57.1782 301.031 54.9159 301.031 51.4498V51.3668C301.031 46.2195 305.119 44.8705 308.347 44.0403L311.554 43.2101V41.1138C311.554 39.9723 311.198 39.4119 310.36 39.4119C309.416 39.4119 308.871 40.1591 308.913 43.1063L301.451 42.7327C301.367 37.2326 304.239 34.2646 310.443 34.2646C315.957 34.2646 319.059 36.5892 319.059 41.1761V50.9102C319.059 51.9064 319.353 52.0932 320.61 52.0932L319.856 56.9706C319.394 57.0951 318.724 57.1782 318.179 57.1782C314.175 57.1782 312.77 55.8706 313.127 52.363L312.707 52.28C311.995 55.5385 310.129 57.1782 306.586 57.1782ZM309.752 51.6573C310.905 51.6573 311.554 50.4951 311.554 48.6894V47.2573L310.506 47.6101C309.458 47.9629 308.578 48.7516 308.578 49.9762V50.1215C308.578 51.18 308.976 51.6573 309.752 51.6573Z" fill="#F8E7D6"/>
<path d="M289.292 57.1985C282.081 57.1985 278.811 53.1513 278.811 44.7248V39.453C278.811 31.0472 282.165 27 289.292 27C296.126 27 299.689 30.3623 299.752 38.4568L292.499 39.4738C292.499 34.451 291.514 32.9152 289.439 32.9152C287.468 32.9152 286.504 34.4718 286.504 37.6681V46.4682C286.504 49.6852 287.468 51.2418 289.46 51.2418C291.325 51.2418 292.436 49.5814 292.499 44.1644L299.878 45.6587C299.731 53.857 295.916 57.1985 289.292 57.1985Z" fill="#F8E7D6"/>
<path d="M368.276 92.5795C364.775 92.5795 362.721 90.3172 362.721 86.8512V86.7681C362.721 81.6209 366.808 80.2718 370.037 79.4416L373.244 78.6114V76.5152C373.244 75.3736 372.888 74.8133 372.049 74.8133C371.106 74.8133 370.561 75.5604 370.603 78.5076L363.14 78.1341C363.056 72.634 365.928 69.666 372.133 69.666C377.646 69.666 380.748 71.9906 380.748 76.5774V86.3115C380.748 87.3078 381.042 87.4946 382.3 87.4946L381.545 92.372C381.084 92.4965 380.413 92.5795 379.868 92.5795C375.864 92.5795 374.46 91.272 374.816 87.7644L374.397 87.6814C373.684 90.9399 371.818 92.5795 368.276 92.5795ZM371.441 87.0587C372.594 87.0587 373.244 85.8964 373.244 84.0907V82.6586L372.196 83.0115C371.148 83.3643 370.267 84.153 370.267 85.3776V85.5228C370.267 86.5813 370.666 87.0587 371.441 87.0587Z" fill="#B0A352"/>
<path d="M361.211 68.5447H353.686V63.3145H361.211V68.5447ZM361.211 92.0186H353.686V70.2259H361.211V92.0186Z" fill="#B0A352"/>
<path d="M342.325 85.5844L345.49 86.1863C348.676 86.7882 352.596 87.6599 352.596 92.7656C352.596 97.7468 349.158 99.8638 342.178 99.8638C335.931 99.8638 332.85 98.3072 332.85 95.0071C332.85 92.7864 333.877 91.458 336.791 91.0014V90.4618C334.967 89.7561 333.688 88.5316 333.688 86.4146C333.688 84.6089 334.904 83.3636 337.105 82.99V82.5749C334.967 81.4126 333.856 79.4409 333.856 76.722C333.856 72.1559 336.979 69.7068 342.744 69.7068C343.855 69.7068 344.861 69.7898 345.763 69.9766C344.295 65.9294 346.203 63.2935 351.276 63.0029L351.8 69.0426C348.404 69.3332 347.481 69.6445 347.544 70.4955C350.186 71.554 351.59 73.671 351.59 76.722C351.59 81.2673 348.467 83.7372 342.744 83.7372C341.465 83.7372 340.312 83.6126 339.306 83.3843C338.929 83.5089 338.74 83.6957 338.74 84.0277C338.74 84.6089 339.159 84.9825 342.325 85.5844ZM342.723 73.8578C341.717 73.8578 341.277 74.6672 341.277 76.722C341.277 78.7767 341.717 79.5862 342.744 79.5862C343.729 79.5862 344.169 78.7767 344.169 76.722C344.169 74.6672 343.729 73.8578 342.723 73.8578ZM342.639 94.8619C345.448 94.8619 346.475 94.592 346.475 93.5335C346.475 92.5996 345.888 92.1637 342.723 91.6656L339.558 91.1675C339.516 91.1675 339.495 91.1467 339.453 91.1467C338.51 91.6448 338.132 92.2467 338.132 93.0147C338.132 94.4052 339.222 94.8619 342.639 94.8619Z" fill="#B0A352"/>
<path d="M321.95 85.5844L325.115 86.1863C328.301 86.7882 332.221 87.6599 332.221 92.7656C332.221 97.7468 328.783 99.8638 321.803 99.8638C315.556 99.8638 312.475 98.3072 312.475 95.0071C312.475 92.7864 313.502 91.458 316.416 91.0014V90.4618C314.592 89.7561 313.313 88.5316 313.313 86.4146C313.313 84.6089 314.529 83.3636 316.73 82.99V82.5749C314.592 81.4126 313.481 79.4409 313.481 76.722C313.481 72.1559 316.604 69.7068 322.369 69.7068C323.48 69.7068 324.486 69.7898 325.388 69.9766C323.92 65.9294 325.828 63.2935 330.901 63.0029L331.425 69.0426C328.029 69.3332 327.106 69.6445 327.169 70.4955C329.811 71.554 331.215 73.671 331.215 76.722C331.215 81.2673 328.092 83.7372 322.369 83.7372C321.09 83.7372 319.937 83.6126 318.931 83.3843C318.554 83.5089 318.365 83.6957 318.365 84.0277C318.365 84.6089 318.784 84.9825 321.95 85.5844ZM322.348 73.8578C321.342 73.8578 320.902 74.6672 320.902 76.722C320.902 78.7767 321.342 79.5862 322.369 79.5862C323.354 79.5862 323.794 78.7767 323.794 76.722C323.794 74.6672 323.354 73.8578 322.348 73.8578ZM322.264 94.8619C325.073 94.8619 326.1 94.592 326.1 93.5335C326.1 92.5996 325.513 92.1637 322.348 91.6656L319.183 91.1675C319.141 91.1675 319.12 91.1467 319.078 91.1467C318.134 91.6448 317.757 92.2467 317.757 93.0147C317.757 94.4052 318.847 94.8619 322.264 94.8619Z" fill="#B0A352"/>
<path d="M302.39 92.5996C296.29 92.5996 292.957 88.8222 292.957 82.9485V79.2749C292.957 73.3389 296.29 69.6445 302.39 69.6445C308.511 69.6445 311.844 73.3389 311.844 79.2749V82.9485C311.844 88.8222 308.49 92.5996 302.39 92.5996ZM302.39 87.3901C303.585 87.3901 304.172 86.3938 304.172 84.2561V78.0088C304.172 75.8503 303.585 74.8333 302.39 74.8333C301.216 74.8333 300.629 75.8503 300.629 78.0088V84.2561C300.629 86.3938 301.216 87.3901 302.39 87.3901Z" fill="#B0A352"/>
<path d="M291.07 68.5447H283.545V63.3145H291.07V68.5447ZM291.07 92.0186H283.545V70.2259H291.07V92.0186Z" fill="#B0A352"/>
<path d="M270.695 92.0189H263.17V62.9619H270.695V68.6073C270.695 70.5375 270.339 72.2186 269.438 74.3772L269.836 74.564C271.324 71.4507 273.442 69.9356 276.397 69.9356C279.793 69.9356 281.428 71.6167 281.428 75.1036V92.0189H273.903V76.847C273.903 75.6847 273.483 75.1243 272.666 75.1243C271.366 75.1243 270.695 76.681 270.695 79.4621V92.0189Z" fill="#B0A352"/>
<path d="M250.739 92.5999C243.528 92.5999 240.258 88.5527 240.258 80.1261V74.8544C240.258 66.4486 243.612 62.4014 250.739 62.4014C257.573 62.4014 261.137 65.7637 261.199 73.8581L253.946 74.8751C253.946 69.8524 252.961 68.3165 250.886 68.3165C248.915 68.3165 247.951 69.8732 247.951 73.0694V81.8696C247.951 85.0866 248.915 86.6432 250.907 86.6432C252.772 86.6432 253.883 84.9828 253.946 79.5658L261.325 81.0601C261.178 89.2583 257.363 92.5999 250.739 92.5999Z" fill="#B0A352"/>
</svg>
