<svg width="650" height="200" viewBox="0 0 650 200" fill="none" xmlns="http://www.w3.org/2000/svg">
<rect width="650" height="200" fill="url(#paint0_radial_2004_86352)"/>
<path d="M214.753 52.2242C212.638 53.7389 211.016 55.5645 209.644 58.5283C207.153 63.8211 206.405 73.5924 206.405 80.0848C206.405 87.8379 207.278 98.4892 210.951 104.285C211.946 105.923 213.377 107.122 214.688 107.941C214.999 108.068 215.371 108.383 215.371 108.948C215.371 109.832 214.312 109.767 213.94 109.767C206.781 109.767 198 94.072 198 80.0804C198 66.9075 206.72 50.4599 214.005 50.4599C214.377 50.4599 215.436 50.3986 215.436 51.2786C215.436 51.8433 214.999 52.0359 214.753 52.2242Z" fill="white"/>
<path d="M238.043 101.637C235.989 101.637 233.869 101.068 232.126 99.9345V107.749C232.126 111.72 234.864 113.042 236.486 113.042V113.733H216.744V113.042C218.301 113.042 221.476 111.466 221.476 107.622V82.7296C221.476 79.2623 219.482 78.3824 218.427 78.3824V77.7519L230.759 74.0965C231.442 73.9082 232.13 73.8425 232.13 74.9808V78.0059C234.25 75.5499 236.988 73.9082 240.288 73.9082C245.146 73.9082 250.501 77.4367 250.501 85.8203C250.496 95.2721 244.458 101.637 238.043 101.637ZM235.18 78.2554C233.994 78.2554 232.939 79.0741 232.13 80.7114V97.4128C233.064 99.1158 234.371 99.8688 235.617 99.8688C238.108 99.8688 239.289 97.032 239.289 88.5871C239.289 80.2079 237.044 78.2554 235.18 78.2554Z" fill="white"/>
<path d="M274.782 85.3736C271.919 85.3736 270.734 83.5481 270.05 82.0946C269.553 81.022 269.367 80.1421 268.93 80.1421C268.493 80.1421 267.81 80.6456 267.001 82.3485V96.4671C267.001 99.4309 268.744 100.311 269.492 100.376V101.007H252.99V100.376C253.674 100.315 256.105 99.0544 256.105 96.3445V82.5412C256.105 79.1396 253.985 78.5705 253.176 78.5705V78.0013L265.63 73.9037C266.438 73.7154 267.001 73.6498 267.001 74.7836V79.2578C268.93 76.8018 271.607 74.1532 274.787 74.1532C277.966 74.1532 280.328 76.6136 280.328 79.6386C280.323 82.6024 278.083 85.3736 274.782 85.3736Z" fill="white"/>
<path d="M295.642 101.637C287.795 101.637 282.129 96.5329 282.129 88.2763C282.129 79.7658 288.73 73.7812 296.888 73.7812C304.172 73.7812 309.155 79.0741 309.155 84.3056C309.155 84.936 309.094 85.3782 308.221 85.3782H292.277C292.9 91.5553 295.326 95.399 300.374 95.399C304.981 95.399 308.035 91.5553 308.718 90.4214C309.09 90.2945 309.402 90.3601 309.402 90.7366C308.908 93 304.86 101.637 295.642 101.637ZM296.079 74.7882C294.461 74.7882 292.156 76.8063 292.156 82.6683C292.156 83.1717 292.216 83.6139 292.216 84.183H298.069C299.063 84.183 299.189 83.4256 299.189 81.4731C299.193 78.0628 298.259 74.7882 296.079 74.7882Z" fill="white"/>
<path d="M332.382 84.9972L326.966 101.007H321.114L312.272 78.9471C311.152 76.2985 309.967 75.1646 309.344 75.1646V74.4072H325.599V75.1646C324.976 75.1646 323.233 76.4867 324.042 78.5049L328.588 90.9861L330.829 84.682C331.512 82.8521 331.763 81.2148 331.763 79.827C331.763 76.9289 330.578 75.1646 328.9 75.1646V74.4072H339.796V75.1646C338.234 75.1646 334.562 78.6318 332.382 84.9972Z" fill="white"/>
<path d="M338.484 101.007V100.376C339.233 100.315 341.659 99.0543 341.659 96.3445V82.5411C341.659 79.1395 339.479 78.5704 338.67 78.5704V78.0013L351.189 73.9036C351.937 73.7154 352.495 73.6497 352.495 74.7836V96.467C352.495 99.4308 354.238 100.311 354.986 100.376V101.007H338.484V101.007ZM346.577 69.4908C343.277 69.4908 340.474 66.7809 340.474 63.3793C340.474 60.039 343.277 57.2021 346.577 57.2021C349.938 57.2021 352.616 60.039 352.616 63.3793C352.62 66.7809 349.943 69.4908 346.577 69.4908Z" fill="white"/>
<path d="M371.238 101.637C363.391 101.637 357.725 96.5329 357.725 88.2763C357.725 79.7658 364.325 73.7812 372.483 73.7812C379.768 73.7812 384.751 79.0741 384.751 84.3056C384.751 84.936 384.69 85.3782 383.816 85.3782H367.877C368.5 91.5553 370.926 95.399 375.974 95.399C380.581 95.399 383.635 91.5553 384.318 90.4214C384.69 90.2945 385.002 90.3601 385.002 90.7366C384.5 93 380.455 101.637 371.238 101.637ZM371.675 74.7882C370.057 74.7882 367.751 76.8063 367.751 82.6683C367.751 83.1717 367.812 83.6139 367.812 84.183H373.664C374.659 84.183 374.785 83.4256 374.785 81.4731C374.789 78.0628 373.855 74.7882 371.675 74.7882Z" fill="white"/>
<path d="M426.166 84.9972L420.75 101.007H414.958L408.353 84.6207L402.812 101.007H396.96L388.053 78.9471C386.994 76.2985 385.813 75.1646 385.125 75.1646V74.4072H401.38V75.1646C400.822 75.1646 399.075 76.4254 399.823 78.5049L404.43 90.9861L407.419 82.2873L405.987 78.9471C404.992 76.2985 403.31 75.1646 402.375 75.1646V74.4072H419.937V75.1646C419.254 75.1646 417.632 76.4254 418.319 78.5049L422.429 90.9861L424.544 84.682C425.227 82.8521 425.478 81.2148 425.478 79.827C425.478 76.9289 424.293 75.1646 422.615 75.1646V74.4072H433.511V75.1646C432.018 75.1646 428.281 78.6318 426.166 84.9972Z" fill="white"/>
<path d="M436.559 109.64C436.247 109.64 435.127 109.64 435.127 108.756C435.127 108.187 435.499 107.937 435.875 107.749C437.182 106.864 438.613 105.796 439.673 104.155C443.41 98.2926 444.345 87.7026 444.345 79.8269C444.345 73.4615 443.661 63.6289 441.044 58.3361C439.613 55.4379 437.995 53.5467 435.815 52.032C435.503 51.905 435.066 51.6555 435.066 51.0864C435.066 50.202 436.187 50.2677 436.498 50.2677C443.41 50.2677 453 66.7809 453 79.8926C453 93.8842 444.28 109.64 436.559 109.64Z" fill="white"/>
<defs>
<radialGradient id="paint0_radial_2004_86352" cx="0" cy="0" r="1" gradientUnits="userSpaceOnUse" gradientTransform="translate(-155.484 279.69) rotate(-18.4844) scale(995.978 658.35)">
<stop stop-color="#0897FF"/>
<stop offset="1" stop-color="#3FE082"/>
</radialGradient>
</defs>
</svg>
