<svg width="20" height="6" viewBox="0 0 20 6" fill="none" xmlns="http://www.w3.org/2000/svg">
<path d="M2.11294 1.6016C2.78126 1.6016 3.21384 2.13382 3.21384 2.95768C3.21384 3.77667 2.77883 4.31375 2.11294 4.31375C1.73868 4.31375 1.43733 4.15093 1.29395 3.87388H1.25506V5.14247H0.837059V1.64777H1.23562V2.08522H1.2745C1.44219 1.78387 1.75569 1.6016 2.11294 1.6016ZM2.0133 3.93706C2.49449 3.93706 2.78126 3.5701 2.78126 2.95768C2.78126 2.34525 2.49449 1.97829 2.01573 1.97829C1.54183 1.97829 1.24291 2.35497 1.24291 2.95768C1.24291 3.55795 1.54183 3.93706 2.0133 3.93706ZM3.8501 4.26758V1.64777H4.24866V2.03661H4.28754C4.36531 1.78144 4.66666 1.6016 5.01419 1.6016C5.08223 1.6016 5.16972 1.60646 5.22319 1.61375V2.03175C5.18916 2.02203 5.03849 2.00745 4.95586 2.00745C4.5573 2.00745 4.2681 2.27478 4.2681 2.64417V4.26758H3.8501ZM7.38807 3.58954H7.80607C7.68456 4.0367 7.27628 4.31375 6.70274 4.31375C5.9761 4.31375 5.52164 3.78882 5.52164 2.96011C5.52164 2.13625 5.98339 1.6016 6.70274 1.6016C7.40994 1.6016 7.8401 2.10466 7.8401 2.91879V3.07919H5.95666V3.09863C5.97853 3.61627 6.26773 3.94436 6.71246 3.94436C7.05027 3.94436 7.27871 3.82041 7.38807 3.58954ZM6.69788 1.971C6.27988 1.971 5.98825 2.27721 5.95666 2.74138H7.40022C7.3905 2.27721 7.11345 1.971 6.69788 1.971ZM8.65133 0.969734H9.06933V1.64777H9.65259V1.99773H9.06933V3.48018C9.06933 3.78882 9.18599 3.92005 9.45817 3.92005C9.53351 3.92005 9.57483 3.91762 9.65259 3.91033V4.26272C9.56997 4.2773 9.48977 4.28702 9.40714 4.28702C8.86762 4.28702 8.65133 4.08774 8.65133 3.58711V1.99773H8.22847V1.64777H8.65133V0.969734ZM11.9609 3.58954H12.3789C12.2574 4.0367 11.8491 4.31375 11.2755 4.31375C10.5489 4.31375 10.0944 3.78882 10.0944 2.96011C10.0944 2.13625 10.5562 1.6016 11.2755 1.6016C11.9827 1.6016 12.4129 2.10466 12.4129 2.91879V3.07919H10.5294V3.09863C10.5513 3.61627 10.8405 3.94436 11.2853 3.94436C11.6231 3.94436 11.8515 3.82041 11.9609 3.58954ZM11.2707 1.971C10.8527 1.971 10.561 2.27721 10.5294 2.74138H11.973C11.9633 2.27721 11.6862 1.971 11.2707 1.971ZM12.9884 2.3647C12.9884 1.92968 13.4088 1.6016 13.9653 1.6016C14.5146 1.6016 14.8961 1.87379 14.952 2.30394H14.5389C14.483 2.09494 14.2788 1.95641 13.9629 1.95641C13.6518 1.95641 13.4088 2.11438 13.4088 2.34768C13.4088 2.52752 13.5546 2.63931 13.8633 2.71465L14.2667 2.81186C14.76 2.93094 14.9982 3.1448 14.9982 3.52149C14.9982 3.99053 14.5437 4.31375 13.9483 4.31375C13.3651 4.31375 12.9641 4.03427 12.9179 3.59926H13.3481C13.4185 3.82041 13.6275 3.96137 13.9629 3.96137C14.3153 3.96137 14.568 3.79368 14.568 3.55309C14.568 3.37325 14.432 3.25174 14.1525 3.18369L13.7029 3.07433C13.212 2.95525 12.9884 2.74381 12.9884 2.3647ZM15.7851 0.969734H16.2031V1.64777H16.7864V1.99773H16.2031V3.48018C16.2031 3.78882 16.3198 3.92005 16.592 3.92005C16.6673 3.92005 16.7086 3.91762 16.7864 3.91033V4.26272C16.7038 4.2773 16.6236 4.28702 16.5409 4.28702C16.0014 4.28702 15.7851 4.08774 15.7851 3.58711V1.99773H15.3623V1.64777H15.7851V0.969734ZM18.6353 4.34778C17.8723 4.34778 17.3157 3.7548 17.3157 2.5737C17.3157 1.36829 17.8358 0.678104 18.6645 0.678104C19.3037 0.678104 19.7241 1.03049 19.814 1.57487H19.3644C19.2915 1.24921 19.0339 1.06694 18.6791 1.06694C18.0958 1.06694 17.7556 1.55299 17.741 2.50565H17.7799C17.9524 2.16541 18.2951 1.96613 18.7131 1.96613C19.3814 1.96613 19.8651 2.45947 19.8651 3.13994C19.8651 3.84472 19.3547 4.34778 18.6353 4.34778ZM18.6305 3.9638C19.0801 3.9638 19.4227 3.61384 19.4227 3.15453C19.4227 2.67577 19.0995 2.34525 18.6353 2.34525C18.1712 2.34525 17.8382 2.67577 17.8382 3.13994C17.8382 3.60898 18.1809 3.9638 18.6305 3.9638Z" fill="black"/>
</svg>
