<svg width="1120" height="418" viewBox="0 0 1120 418" fill="none" xmlns="http://www.w3.org/2000/svg">
<rect width="1120" height="418" fill="white"/>
<g clip-path="url(#clip0_1957_71440)">
<rect x="63" y="45" width="203.08" height="151.735" rx="25" fill="#7AC191"/>
<path d="M97.7038 102.886C96.4187 103.796 95.4332 104.892 94.6001 106.672C93.0863 109.851 92.6317 115.719 92.6317 119.618C92.6317 124.274 93.1625 130.671 95.3937 134.152C95.9982 135.135 96.8681 135.856 97.6644 136.347C97.8536 136.423 98.0796 136.613 98.0796 136.952C98.0796 137.483 97.4357 137.444 97.2097 137.444C92.8603 137.444 87.5254 128.018 87.5254 119.615C87.5254 111.704 92.8235 101.827 97.2491 101.827C97.4751 101.827 98.119 101.79 98.119 102.318C98.119 102.658 97.8536 102.773 97.7038 102.886Z" fill="white"/>
<path d="M111.853 132.559C110.604 132.559 109.317 132.217 108.257 131.536V136.229C108.257 138.614 109.921 139.408 110.906 139.408V139.823H98.9121V139.408C99.8582 139.408 101.787 138.462 101.787 136.153V121.204C101.787 119.122 100.576 118.593 99.9344 118.593V118.215L107.427 116.019C107.842 115.906 108.26 115.867 108.26 116.55V118.367C109.548 116.892 111.211 115.906 113.217 115.906C116.168 115.906 119.421 118.025 119.421 123.06C119.419 128.736 115.75 132.559 111.853 132.559ZM110.113 118.517C109.393 118.517 108.751 119.009 108.26 119.992V130.022C108.828 131.045 109.621 131.497 110.378 131.497C111.892 131.497 112.609 129.793 112.609 124.722C112.609 119.69 111.245 118.517 110.113 118.517Z" fill="white"/>
<path d="M134.176 122.793C132.436 122.793 131.716 121.697 131.301 120.824C130.998 120.18 130.885 119.651 130.62 119.651C130.354 119.651 129.939 119.953 129.448 120.976V129.455C129.448 131.235 130.507 131.763 130.962 131.803V132.182H120.936V131.803C121.351 131.766 122.828 131.009 122.828 129.381V121.092C122.828 119.049 121.54 118.707 121.049 118.707V118.365L128.615 115.905C129.106 115.792 129.448 115.752 129.448 116.433V119.12C130.62 117.645 132.247 116.054 134.178 116.054C136.11 116.054 137.545 117.532 137.545 119.349C137.542 121.129 136.181 122.793 134.176 122.793Z" fill="white"/>
<path d="M146.849 132.561C142.081 132.561 138.639 129.496 138.639 124.537C138.639 119.426 142.649 115.832 147.606 115.832C152.031 115.832 155.059 119.011 155.059 122.152C155.059 122.531 155.022 122.797 154.491 122.797H144.804C145.182 126.506 146.657 128.815 149.724 128.815C152.523 128.815 154.378 126.506 154.793 125.825C155.019 125.749 155.208 125.789 155.208 126.015C154.909 127.374 152.449 132.561 146.849 132.561ZM147.114 116.437C146.131 116.437 144.73 117.649 144.73 121.169C144.73 121.472 144.767 121.737 144.767 122.079H148.323C148.927 122.079 149.004 121.624 149.004 120.451C149.006 118.403 148.439 116.437 147.114 116.437Z" fill="white"/>
<path d="M169.171 122.567L165.88 132.182H162.325L156.953 118.933C156.272 117.343 155.552 116.662 155.174 116.662V116.207H165.05V116.662C164.672 116.662 163.612 117.456 164.104 118.668L166.866 126.164L168.227 122.378C168.643 121.279 168.795 120.295 168.795 119.462C168.795 117.721 168.075 116.662 167.055 116.662V116.207H173.675V116.662C172.726 116.662 170.495 118.744 169.171 122.567Z" fill="white"/>
<path d="M172.881 132.182V131.804C173.336 131.767 174.81 131.01 174.81 129.382V121.092C174.81 119.05 173.485 118.708 172.994 118.708V118.366L180.599 115.905C181.054 115.792 181.393 115.753 181.393 116.434V129.456C181.393 131.236 182.452 131.764 182.907 131.804V132.182H172.881V132.182ZM177.798 113.255C175.793 113.255 174.09 111.628 174.09 109.585C174.09 107.579 175.793 105.875 177.798 105.875C179.84 105.875 181.467 107.579 181.467 109.585C181.469 111.628 179.843 113.255 177.798 113.255Z" fill="white"/>
<path d="M192.778 132.561C188.011 132.561 184.568 129.496 184.568 124.537C184.568 119.426 188.579 115.832 193.535 115.832C197.961 115.832 200.988 119.011 200.988 122.152C200.988 122.531 200.952 122.797 200.421 122.797H190.736C191.115 126.506 192.589 128.815 195.656 128.815C198.455 128.815 200.31 126.506 200.726 125.825C200.952 125.749 201.141 125.789 201.141 126.015C200.836 127.374 198.379 132.561 192.778 132.561ZM193.044 116.437C192.061 116.437 190.66 117.649 190.66 121.169C190.66 121.472 190.697 121.737 190.697 122.079H194.253C194.857 122.079 194.933 121.624 194.933 120.451C194.936 118.403 194.368 116.437 193.044 116.437Z" fill="white"/>
<path d="M226.15 122.567L222.859 132.182H219.34L215.327 122.341L211.961 132.182H208.405L202.994 118.933C202.35 117.343 201.633 116.662 201.215 116.662V116.207H211.091V116.662C210.752 116.662 209.69 117.419 210.145 118.668L212.944 126.164L214.76 120.939L213.89 118.933C213.285 117.343 212.263 116.662 211.695 116.662V116.207H222.365V116.662C221.95 116.662 220.965 117.419 221.382 118.668L223.879 126.164L225.164 122.378C225.579 121.279 225.732 120.295 225.732 119.462C225.732 117.721 225.012 116.662 223.992 116.662V116.207H230.612V116.662C229.705 116.662 227.435 118.744 226.15 122.567Z" fill="white"/>
<path d="M232.465 137.366C232.276 137.366 231.595 137.366 231.595 136.835C231.595 136.493 231.821 136.343 232.05 136.23C232.844 135.699 233.714 135.058 234.357 134.072C236.628 130.551 237.196 124.191 237.196 119.462C237.196 115.639 236.781 109.734 235.191 106.555C234.321 104.815 233.338 103.679 232.013 102.769C231.824 102.693 231.559 102.543 231.559 102.201C231.559 101.67 232.239 101.71 232.428 101.71C236.628 101.71 242.454 111.627 242.454 119.501C242.454 127.904 237.156 137.366 232.465 137.366Z" fill="white"/>
<path d="M151.882 176.618L150.966 180.674C150.927 180.791 150.868 180.85 150.712 180.85H143.301C143.165 180.85 143.106 180.791 143.106 180.674C143.106 180.674 143.106 179.991 143.145 179.621C143.34 177.749 144.725 177.027 145.895 175.837C146.753 174.94 147.455 173.751 147.455 171.605C147.455 169.109 146.636 168.329 145.349 168.329C144.413 168.329 143.808 168.816 143.808 169.07C143.808 169.285 144.081 169.09 144.491 169.09C145.622 169.09 146.421 169.772 146.421 170.884C146.421 171.976 145.563 172.717 144.608 172.717C143.633 172.717 142.716 171.995 142.716 170.689C142.716 169.07 144.081 167.646 146.733 167.646C149.561 167.646 151.414 169.109 151.414 171.196C151.414 173.848 149.21 174.57 147.182 175.642C146.187 176.188 145.232 176.813 144.608 177.788C144.53 177.924 144.608 177.983 144.725 177.983H149.308C150.517 177.983 151.258 177.378 151.687 176.52C151.804 176.286 151.902 176.403 151.882 176.618ZM164.131 174.375C164.131 178.08 161.595 181.103 158.436 181.103C155.296 181.103 152.761 178.08 152.761 174.375C152.761 170.65 155.296 167.627 158.436 167.627C161.595 167.627 164.131 170.65 164.131 174.375ZM160.25 174.414C160.25 170.845 160.094 167.939 158.377 167.939C156.817 167.939 156.486 170.845 156.486 174.414C156.486 177.983 156.583 180.869 158.377 180.869C159.996 180.869 160.25 177.983 160.25 174.414ZM174.623 176.618L173.706 180.674C173.667 180.791 173.608 180.85 173.452 180.85H166.041C165.905 180.85 165.846 180.791 165.846 180.674C165.846 180.674 165.846 179.991 165.885 179.621C166.08 177.749 167.465 177.027 168.635 175.837C169.493 174.94 170.195 173.751 170.195 171.605C170.195 169.109 169.376 168.329 168.089 168.329C167.153 168.329 166.548 168.816 166.548 169.07C166.548 169.285 166.821 169.09 167.231 169.09C168.362 169.09 169.162 169.772 169.162 170.884C169.162 171.976 168.304 172.717 167.348 172.717C166.373 172.717 165.456 171.995 165.456 170.689C165.456 169.07 166.821 167.646 169.474 167.646C172.302 167.646 174.154 169.109 174.154 171.196C174.154 173.848 171.951 174.57 169.922 175.642C168.928 176.188 167.972 176.813 167.348 177.788C167.27 177.924 167.348 177.983 167.465 177.983H172.048C173.257 177.983 173.998 177.378 174.428 176.52C174.545 176.286 174.642 176.403 174.623 176.618ZM186.871 174.375C186.871 178.08 184.336 181.103 181.176 181.103C178.036 181.103 175.501 178.08 175.501 174.375C175.501 170.65 178.036 167.627 181.176 167.627C184.336 167.627 186.871 170.65 186.871 174.375ZM182.99 174.414C182.99 170.845 182.834 167.939 181.118 167.939C179.557 167.939 179.226 170.845 179.226 174.414C179.226 177.983 179.323 180.869 181.118 180.869C182.736 180.869 182.99 177.983 182.99 174.414Z" fill="white"/>
</g>
<g clip-path="url(#clip1_1957_71440)">
<rect x="519.926" y="45" width="203.08" height="151.735" rx="25" fill="#F5C86E"/>
<path d="M554.626 102.886C553.341 103.796 552.355 104.892 551.522 106.672C550.008 109.851 549.554 115.719 549.554 119.618C549.554 124.274 550.084 130.671 552.316 134.152C552.92 135.135 553.79 135.856 554.586 136.347C554.775 136.423 555.001 136.613 555.001 136.952C555.001 137.483 554.358 137.444 554.132 137.444C549.782 137.444 544.447 128.018 544.447 119.615C544.447 111.704 549.745 101.827 554.171 101.827C554.397 101.827 555.041 101.79 555.041 102.318C555.041 102.658 554.775 102.773 554.626 102.886Z" fill="white"/>
<path d="M568.774 132.559C567.526 132.559 566.238 132.217 565.179 131.536V136.229C565.179 138.614 566.843 139.408 567.828 139.408V139.823H555.834V139.408C556.78 139.408 558.709 138.462 558.709 136.153V121.204C558.709 119.122 557.498 118.593 556.856 118.593V118.215L564.349 116.019C564.764 115.906 565.182 115.867 565.182 116.55V118.367C566.47 116.892 568.133 115.906 570.138 115.906C573.09 115.906 576.343 118.025 576.343 123.06C576.341 128.736 572.672 132.559 568.774 132.559ZM567.035 118.517C566.315 118.517 565.673 119.009 565.182 119.992V130.022C565.75 131.045 566.543 131.497 567.3 131.497C568.814 131.497 569.531 129.793 569.531 124.722C569.531 119.69 568.167 118.517 567.035 118.517Z" fill="white"/>
<path d="M591.097 122.793C589.358 122.793 588.638 121.697 588.222 120.824C587.92 120.18 587.807 119.651 587.542 119.651C587.276 119.651 586.861 119.953 586.37 120.976V129.455C586.37 131.235 587.429 131.763 587.883 131.803V132.182H577.857V131.803C578.273 131.766 579.75 131.009 579.75 129.381V121.092C579.75 119.049 578.462 118.707 577.97 118.707V118.365L585.537 115.905C586.028 115.792 586.37 115.752 586.37 116.433V119.12C587.542 117.645 589.168 116.054 591.1 116.054C593.032 116.054 594.467 117.532 594.467 119.349C594.464 121.129 593.103 122.793 591.097 122.793Z" fill="white"/>
<path d="M603.771 132.561C599.003 132.561 595.561 129.496 595.561 124.537C595.561 119.426 599.571 115.832 604.527 115.832C608.953 115.832 611.981 119.011 611.981 122.152C611.981 122.531 611.944 122.797 611.413 122.797H601.726C602.104 126.506 603.579 128.815 606.646 128.815C609.444 128.815 611.3 126.506 611.715 125.825C611.941 125.749 612.13 125.789 612.13 126.015C611.831 127.374 609.371 132.561 603.771 132.561ZM604.036 116.437C603.053 116.437 601.652 117.649 601.652 121.169C601.652 121.472 601.689 121.737 601.689 122.079H605.245C605.849 122.079 605.926 121.624 605.926 120.451C605.928 118.403 605.36 116.437 604.036 116.437Z" fill="white"/>
<path d="M626.093 122.567L622.802 132.182H619.247L613.875 118.933C613.194 117.343 612.474 116.662 612.096 116.662V116.207H621.972V116.662C621.593 116.662 620.534 117.456 621.026 118.668L623.788 126.164L625.149 122.378C625.564 121.279 625.717 120.295 625.717 119.462C625.717 117.721 624.997 116.662 623.977 116.662V116.207H630.597V116.662C629.648 116.662 627.417 118.744 626.093 122.567Z" fill="white"/>
<path d="M629.803 132.182V131.804C630.257 131.767 631.732 131.01 631.732 129.382V121.092C631.732 119.05 630.407 118.708 629.916 118.708V118.366L637.521 115.905C637.976 115.792 638.315 115.753 638.315 116.434V129.456C638.315 131.236 639.374 131.764 639.829 131.804V132.182H629.803V132.182ZM634.72 113.255C632.715 113.255 631.012 111.628 631.012 109.585C631.012 107.579 632.715 105.875 634.72 105.875C636.762 105.875 638.389 107.579 638.389 109.585C638.391 111.628 636.764 113.255 634.72 113.255Z" fill="white"/>
<path d="M649.7 132.561C644.933 132.561 641.49 129.496 641.49 124.537C641.49 119.426 645.501 115.832 650.457 115.832C654.883 115.832 657.91 119.011 657.91 122.152C657.91 122.531 657.873 122.797 657.343 122.797H647.658C648.037 126.506 649.511 128.815 652.578 128.815C655.377 128.815 657.232 126.506 657.647 125.825C657.873 125.749 658.063 125.789 658.063 126.015C657.758 127.374 655.301 132.561 649.7 132.561ZM649.966 116.437C648.983 116.437 647.582 117.649 647.582 121.169C647.582 121.472 647.619 121.737 647.619 122.079H651.175C651.779 122.079 651.855 121.624 651.855 120.451C651.858 118.403 651.29 116.437 649.966 116.437Z" fill="white"/>
<path d="M683.072 122.567L679.781 132.182H676.262L672.249 122.341L668.883 132.182H665.327L659.916 118.933C659.272 117.343 658.555 116.662 658.137 116.662V116.207H668.013V116.662C667.674 116.662 666.612 117.419 667.067 118.668L669.866 126.164L671.682 120.939L670.812 118.933C670.207 117.343 669.185 116.662 668.617 116.662V116.207H679.287V116.662C678.872 116.662 677.886 117.419 678.304 118.668L680.801 126.164L682.086 122.378C682.501 121.279 682.654 120.295 682.654 119.462C682.654 117.721 681.934 116.662 680.914 116.662V116.207H687.534V116.662C686.627 116.662 684.357 118.744 683.072 122.567Z" fill="white"/>
<path d="M689.387 137.366C689.198 137.366 688.517 137.366 688.517 136.835C688.517 136.493 688.743 136.343 688.972 136.23C689.766 135.699 690.635 135.058 691.279 134.072C693.55 130.551 694.118 124.191 694.118 119.462C694.118 115.639 693.702 109.734 692.112 106.555C691.243 104.815 690.26 103.679 688.935 102.769C688.746 102.693 688.48 102.543 688.48 102.201C688.48 101.67 689.161 101.71 689.35 101.71C693.55 101.71 699.376 111.627 699.376 119.501C699.376 127.904 694.078 137.366 689.387 137.366Z" fill="white"/>
<path d="M611.372 176.618L610.455 180.674C610.416 180.791 610.357 180.85 610.201 180.85H602.79C602.654 180.85 602.595 180.791 602.595 180.674C602.595 180.674 602.595 179.991 602.634 179.621C602.829 177.749 604.214 177.027 605.384 175.837C606.242 174.94 606.944 173.751 606.944 171.605C606.944 169.109 606.125 168.329 604.838 168.329C603.902 168.329 603.297 168.816 603.297 169.07C603.297 169.285 603.57 169.09 603.98 169.09C605.111 169.09 605.911 169.772 605.911 170.884C605.911 171.976 605.053 172.717 604.097 172.717C603.122 172.717 602.205 171.995 602.205 170.689C602.205 169.07 603.57 167.646 606.223 167.646C609.051 167.646 610.903 169.109 610.903 171.196C610.903 173.848 608.7 174.57 606.671 175.642C605.677 176.188 604.721 176.813 604.097 177.788C604.019 177.924 604.097 177.983 604.214 177.983H608.797C610.006 177.983 610.747 177.378 611.177 176.52C611.294 176.286 611.391 176.403 611.372 176.618ZM623.62 174.375C623.62 178.08 621.085 181.103 617.925 181.103C614.785 181.103 612.25 178.08 612.25 174.375C612.25 170.65 614.785 167.627 617.925 167.627C621.085 167.627 623.62 170.65 623.62 174.375ZM619.739 174.414C619.739 170.845 619.583 167.939 617.867 167.939C616.306 167.939 615.975 170.845 615.975 174.414C615.975 177.983 616.072 180.869 617.867 180.869C619.485 180.869 619.739 177.983 619.739 174.414ZM634.112 176.618L633.195 180.674C633.156 180.791 633.098 180.85 632.942 180.85H625.531C625.394 180.85 625.336 180.791 625.336 180.674C625.336 180.674 625.336 179.991 625.375 179.621C625.57 177.749 626.954 177.027 628.125 175.837C628.983 174.94 629.685 173.751 629.685 171.605C629.685 169.109 628.866 168.329 627.579 168.329C626.642 168.329 626.038 168.816 626.038 169.07C626.038 169.285 626.311 169.09 626.72 169.09C627.852 169.09 628.651 169.772 628.651 170.884C628.651 171.976 627.793 172.717 626.837 172.717C625.862 172.717 624.946 171.995 624.946 170.689C624.946 169.07 626.311 167.646 628.963 167.646C631.791 167.646 633.644 169.109 633.644 171.196C633.644 173.848 631.44 174.57 629.412 175.642C628.417 176.188 627.461 176.813 626.837 177.788C626.759 177.924 626.837 177.983 626.954 177.983H631.538C632.747 177.983 633.488 177.378 633.917 176.52C634.034 176.286 634.131 176.403 634.112 176.618ZM641.114 180.85H635.146V180.655C635.575 180.655 636.375 180.304 636.375 179.406V171.352C636.375 170.572 635.946 169.87 635.068 169.87V169.675L639.612 167.724C639.827 167.646 640.041 167.646 640.041 167.997V179.445C640.041 180.362 640.763 180.655 641.114 180.655V180.85Z" fill="white"/>
</g>
<g clip-path="url(#clip2_1957_71440)">
<rect x="748.006" y="45" width="203.08" height="151.735" rx="25" fill="#DF7F77"/>
<path d="M789.252 102.317C789.252 101.787 788.608 101.825 788.381 101.825C783.955 101.825 778.658 111.697 778.658 119.602C778.658 127.999 783.993 137.417 788.344 137.417C788.571 137.417 789.214 137.455 789.214 136.926C789.214 136.585 788.987 136.396 788.798 136.32C788.003 135.829 787.133 135.11 786.528 134.127C784.295 130.647 783.766 124.255 783.766 119.602C783.766 115.706 784.22 109.844 785.733 106.666C786.565 104.889 787.549 103.792 788.835 102.884C788.987 102.771 789.252 102.657 789.252 102.317Z" fill="white"/>
<path d="M810.534 123.044C810.534 118.014 807.28 115.896 804.329 115.896C802.324 115.896 800.659 116.879 799.373 118.354V116.539C799.373 115.858 798.957 115.896 798.541 116.009L791.05 118.203V118.581C791.693 118.581 792.904 119.111 792.904 121.191V136.131C792.904 138.439 790.974 139.384 790.028 139.384V139.8H802.021V139.384C801.038 139.384 799.373 138.59 799.373 136.207V131.517C800.432 132.198 801.719 132.538 802.967 132.538C806.864 132.538 810.534 128.718 810.534 123.044ZM803.724 124.709C803.724 129.777 803.005 131.479 801.492 131.479C800.735 131.479 799.941 131.025 799.373 130.004V119.981C799.865 118.997 800.508 118.505 801.227 118.505C802.362 118.505 803.724 119.678 803.724 124.709Z" fill="white"/>
<path d="M828.655 119.338C828.655 117.522 827.217 116.047 825.288 116.047C823.358 116.047 821.731 117.635 820.558 119.111V116.425C820.558 115.744 820.218 115.782 819.726 115.896L812.16 118.354V118.694C812.651 118.694 813.938 119.035 813.938 121.077V129.361C813.938 130.987 812.462 131.744 812.046 131.782V132.16H822.072V131.782C821.618 131.744 820.558 131.214 820.558 129.437V120.964C821.05 119.943 821.466 119.64 821.731 119.64C821.996 119.64 822.11 120.17 822.412 120.813C822.828 121.683 823.547 122.779 825.288 122.779C827.293 122.779 828.655 121.115 828.655 119.338Z" fill="white"/>
<path d="M846.317 125.995C846.317 125.768 846.128 125.73 845.901 125.805C845.485 126.486 843.631 128.793 840.831 128.793C837.767 128.793 836.291 126.486 835.913 122.779H845.598C846.128 122.779 846.166 122.515 846.166 122.136C846.166 118.997 843.139 115.82 838.713 115.82C833.756 115.82 829.746 119.413 829.746 124.519C829.746 129.474 833.189 132.538 837.956 132.538C843.555 132.538 846.014 127.356 846.317 125.995ZM840.112 120.434C840.112 121.607 840.037 122.061 839.431 122.061H835.875C835.875 121.72 835.837 121.456 835.837 121.153C835.837 117.635 837.237 116.425 838.221 116.425C839.545 116.425 840.112 118.392 840.112 120.434Z" fill="white"/>
<path d="M860.441 128.113C860.479 127.924 860.366 127.772 860.214 127.886C859.912 128.377 858.928 129.474 857.755 129.474C856.62 129.474 855.977 128.415 855.977 127.091V118.468H858.512C858.663 118.468 858.739 118.354 858.814 118.241L859.76 116.387C859.76 116.274 859.647 116.198 859.533 116.198H855.977V111.394C855.977 110.865 855.712 110.941 855.485 111.13L848.032 117.711C847.578 118.165 847.881 118.43 848.145 118.43H849.432V127.999C849.432 130.723 851.437 132.538 854.312 132.538C857.906 132.538 859.987 129.474 860.441 128.113Z" fill="white"/>
<path d="M878.202 125.995C878.202 125.768 878.013 125.73 877.786 125.805C877.369 126.486 875.516 128.793 872.716 128.793C869.652 128.793 868.176 126.486 867.798 122.779H877.483C878.013 122.779 878.05 122.515 878.05 122.136C878.05 118.997 875.024 115.82 870.597 115.82C865.641 115.82 861.631 119.413 861.631 124.519C861.631 129.474 865.074 132.538 869.841 132.538C875.44 132.538 877.899 127.356 878.202 125.995ZM871.997 120.434C871.997 121.607 871.921 122.061 871.316 122.061H867.76C867.76 121.72 867.722 121.456 867.722 121.153C867.722 117.635 869.122 116.425 870.105 116.425C871.43 116.425 871.997 118.392 871.997 120.434Z" fill="white"/>
<path d="M894.104 126.751C894.104 123.952 892.099 122.742 890.056 121.796C887.9 120.85 885.705 120.17 885.705 118.43C885.705 117.598 886.462 116.539 888.089 116.539C889.375 116.539 890.51 117.295 891.305 118.203C892.099 119.111 892.629 120.17 892.818 120.737C893.007 121.456 893.272 121.191 893.272 120.775V116.425C893.272 116.085 893.158 116.085 892.931 116.085C892.704 116.085 892.213 116.312 891.532 116.312C890.851 116.312 889.337 115.896 887.521 115.896C884.116 115.896 880.787 117.976 880.787 121.569C880.787 124.292 882.565 125.616 884.495 126.486C886.878 127.659 889.64 128.113 889.64 129.853C889.64 130.912 888.732 131.895 887.105 131.895C885.327 131.895 883.889 130.571 882.868 129.058C881.998 127.734 881.43 126.335 881.203 125.541C881.052 124.973 880.673 125.238 880.673 125.578V131.857C880.673 132.235 880.711 132.311 880.9 132.311C881.09 132.311 881.619 131.933 882.754 131.933C884.835 131.933 885.062 132.462 887.673 132.462C890.964 132.462 894.104 129.815 894.104 126.751Z" fill="white"/>
<path d="M908.102 128.113C908.14 127.924 908.026 127.772 907.875 127.886C907.572 128.377 906.589 129.474 905.416 129.474C904.281 129.474 903.638 128.415 903.638 127.091V118.468H906.173C906.324 118.468 906.4 118.354 906.475 118.241L907.421 116.387C907.421 116.274 907.308 116.198 907.194 116.198H903.638V111.394C903.638 110.865 903.373 110.941 903.146 111.13L895.693 117.711C895.239 118.165 895.542 118.43 895.806 118.43H897.093V127.999C897.093 130.723 899.098 132.538 901.973 132.538C905.567 132.538 907.648 129.474 908.102 128.113Z" fill="white"/>
<path d="M921.701 119.489C921.701 111.621 915.875 101.712 911.675 101.712C911.486 101.712 910.805 101.674 910.805 102.203C910.805 102.544 911.07 102.695 911.259 102.771C912.583 103.678 913.567 104.813 914.437 106.553C916.026 109.73 916.442 115.631 916.442 119.451C916.442 124.179 915.875 130.533 913.605 134.051C912.962 135.034 912.091 135.677 911.297 136.207C911.07 136.32 910.843 136.472 910.843 136.812C910.843 137.342 911.524 137.342 911.713 137.342C916.404 137.342 921.701 127.886 921.701 119.489Z" fill="white"/>
<path d="M839.45 176.618L838.533 180.674C838.494 180.791 838.436 180.85 838.28 180.85H830.869C830.732 180.85 830.673 180.791 830.673 180.674C830.673 180.674 830.673 179.991 830.712 179.621C830.908 177.749 832.292 177.027 833.462 175.837C834.32 174.94 835.023 173.751 835.023 171.605C835.023 169.109 834.203 168.329 832.916 168.329C831.98 168.329 831.376 168.816 831.376 169.07C831.376 169.285 831.649 169.09 832.058 169.09C833.189 169.09 833.989 169.772 833.989 170.884C833.989 171.976 833.131 172.717 832.175 172.717C831.2 172.717 830.283 171.995 830.283 170.689C830.283 169.07 831.649 167.646 834.301 167.646C837.129 167.646 838.982 169.109 838.982 171.196C838.982 173.848 836.778 174.57 834.75 175.642C833.755 176.188 832.799 176.813 832.175 177.788C832.097 177.924 832.175 177.983 832.292 177.983H836.875C838.084 177.983 838.826 177.378 839.255 176.52C839.372 176.286 839.469 176.403 839.45 176.618ZM851.698 174.375C851.698 178.08 849.163 181.103 846.003 181.103C842.863 181.103 840.328 178.08 840.328 174.375C840.328 170.65 842.863 167.627 846.003 167.627C849.163 167.627 851.698 170.65 851.698 174.375ZM847.817 174.414C847.817 170.845 847.661 167.939 845.945 167.939C844.385 167.939 844.053 170.845 844.053 174.414C844.053 177.983 844.151 180.869 845.945 180.869C847.564 180.869 847.817 177.983 847.817 174.414ZM862.19 176.618L861.273 180.674C861.234 180.791 861.176 180.85 861.02 180.85H853.609C853.472 180.85 853.414 180.791 853.414 180.674C853.414 180.674 853.414 179.991 853.453 179.621C853.648 177.749 855.033 177.027 856.203 175.837C857.061 174.94 857.763 173.751 857.763 171.605C857.763 169.109 856.944 168.329 855.657 168.329C854.721 168.329 854.116 168.816 854.116 169.07C854.116 169.285 854.389 169.09 854.799 169.09C855.93 169.09 856.729 169.772 856.729 170.884C856.729 171.976 855.871 172.717 854.916 172.717C853.94 172.717 853.024 171.995 853.024 170.689C853.024 169.07 854.389 167.646 857.041 167.646C859.869 167.646 861.722 169.109 861.722 171.196C861.722 173.848 859.518 174.57 857.49 175.642C856.495 176.188 855.54 176.813 854.916 177.788C854.838 177.924 854.916 177.983 855.033 177.983H859.616C860.825 177.983 861.566 177.378 861.995 176.52C862.112 176.286 862.21 176.403 862.19 176.618ZM869.192 180.85H863.224V180.655C863.653 180.655 864.453 180.304 864.453 179.406V171.352C864.453 170.572 864.024 169.87 863.146 169.87V169.675L867.691 167.724C867.905 167.646 868.12 167.646 868.12 167.997V179.445C868.12 180.362 868.841 180.655 869.192 180.655V180.85Z" fill="white"/>
</g>
<g clip-path="url(#clip3_1957_71440)">
<rect x="167.336" y="221.258" width="203.08" height="151.735" rx="25" fill="url(#paint0_radial_1957_71440)"/>
<path d="M202.036 279.144C200.751 280.054 199.765 281.15 198.932 282.93C197.418 286.109 196.964 291.977 196.964 295.876C196.964 300.532 197.495 306.929 199.726 310.41C200.33 311.393 201.2 312.113 201.996 312.605C202.186 312.681 202.412 312.871 202.412 313.21C202.412 313.741 201.768 313.701 201.542 313.701C197.192 313.701 191.857 304.276 191.857 295.873C191.857 287.962 197.156 278.085 201.581 278.085C201.807 278.085 202.451 278.048 202.451 278.576C202.451 278.915 202.186 279.031 202.036 279.144Z" fill="white"/>
<path d="M216.185 308.817C214.936 308.817 213.649 308.475 212.589 307.794V312.487C212.589 314.872 214.253 315.666 215.239 315.666V316.081H203.244V315.666C204.19 315.666 206.119 314.719 206.119 312.411V297.462C206.119 295.379 204.908 294.851 204.266 294.851V294.472L211.759 292.277C212.174 292.164 212.592 292.125 212.592 292.808V294.625C213.88 293.15 215.543 292.164 217.549 292.164C220.5 292.164 223.753 294.283 223.753 299.318C223.751 304.994 220.082 308.817 216.185 308.817ZM214.445 294.775C213.725 294.775 213.084 295.266 212.592 296.25V306.28C213.16 307.303 213.953 307.755 214.71 307.755C216.224 307.755 216.941 306.051 216.941 300.98C216.941 295.947 215.578 294.775 214.445 294.775Z" fill="white"/>
<path d="M238.508 299.051C236.768 299.051 236.048 297.954 235.633 297.081C235.33 296.437 235.217 295.909 234.952 295.909C234.686 295.909 234.271 296.211 233.78 297.234V305.713C233.78 307.493 234.839 308.021 235.294 308.061V308.439H225.268V308.061C225.683 308.024 227.16 307.267 227.16 305.639V297.35C227.16 295.307 225.872 294.965 225.381 294.965V294.623L232.947 292.162C233.438 292.049 233.78 292.01 233.78 292.691V295.378C234.952 293.903 236.579 292.312 238.51 292.312C240.442 292.312 241.877 293.79 241.877 295.607C241.874 297.386 240.513 299.051 238.508 299.051Z" fill="white"/>
<path d="M251.181 308.819C246.413 308.819 242.971 305.753 242.971 300.795C242.971 295.684 246.981 292.09 251.938 292.09C256.363 292.09 259.391 295.268 259.391 298.41C259.391 298.789 259.354 299.054 258.823 299.054H249.136C249.515 302.764 250.989 305.072 254.056 305.072C256.855 305.072 258.71 302.764 259.125 302.083C259.351 302.007 259.54 302.046 259.54 302.272C259.241 303.632 256.781 308.819 251.181 308.819ZM251.446 292.695C250.463 292.695 249.062 293.907 249.062 297.427C249.062 297.729 249.099 297.995 249.099 298.337H252.655C253.259 298.337 253.336 297.882 253.336 296.709C253.338 294.661 252.771 292.695 251.446 292.695Z" fill="white"/>
<path d="M273.503 298.825L270.212 308.439H266.657L261.285 295.191C260.604 293.601 259.884 292.92 259.506 292.92V292.465H269.382V292.92C269.004 292.92 267.944 293.714 268.436 294.926L271.198 302.421L272.559 298.635C272.975 297.536 273.127 296.553 273.127 295.72C273.127 293.979 272.407 292.92 271.387 292.92V292.465H278.007V292.92C277.059 292.92 274.827 295.002 273.503 298.825Z" fill="white"/>
<path d="M277.213 308.44V308.061C277.668 308.025 279.142 307.267 279.142 305.64V297.35C279.142 295.307 277.817 294.966 277.326 294.966V294.624L284.931 292.163C285.386 292.05 285.725 292.01 285.725 292.691V305.714C285.725 307.493 286.784 308.022 287.239 308.061V308.44H277.213V308.44ZM282.13 289.513C280.125 289.513 278.422 287.885 278.422 285.843C278.422 283.836 280.125 282.133 282.13 282.133C284.172 282.133 285.799 283.836 285.799 285.843C285.801 287.885 284.175 289.513 282.13 289.513Z" fill="white"/>
<path d="M297.11 308.819C292.343 308.819 288.9 305.753 288.9 300.795C288.9 295.684 292.911 292.09 297.867 292.09C302.293 292.09 305.32 295.268 305.32 298.41C305.32 298.789 305.284 299.054 304.753 299.054H295.068C295.447 302.764 296.921 305.072 299.988 305.072C302.787 305.072 304.642 302.764 305.058 302.083C305.284 302.007 305.473 302.046 305.473 302.272C305.168 303.632 302.711 308.819 297.11 308.819ZM297.376 292.695C296.393 292.695 294.992 293.907 294.992 297.427C294.992 297.729 295.029 297.995 295.029 298.337H298.585C299.189 298.337 299.265 297.882 299.265 296.709C299.268 294.661 298.7 292.695 297.376 292.695Z" fill="white"/>
<path d="M330.482 298.825L327.191 308.439H323.672L319.659 298.599L316.293 308.439H312.737L307.326 295.191C306.682 293.601 305.965 292.92 305.547 292.92V292.465H315.423V292.92C315.084 292.92 314.022 293.677 314.477 294.926L317.276 302.421L319.092 297.197L318.222 295.191C317.617 293.601 316.595 292.92 316.027 292.92V292.465H326.697V292.92C326.282 292.92 325.297 293.677 325.714 294.926L328.211 302.421L329.496 298.635C329.911 297.536 330.064 296.553 330.064 295.72C330.064 293.979 329.344 292.92 328.324 292.92V292.465H334.944V292.92C334.037 292.92 331.767 295.002 330.482 298.825Z" fill="white"/>
<path d="M336.797 313.624C336.608 313.624 335.927 313.624 335.927 313.093C335.927 312.751 336.153 312.601 336.382 312.488C337.176 311.957 338.046 311.315 338.689 310.329C340.96 306.809 341.528 300.449 341.528 295.719C341.528 291.897 341.113 285.992 339.523 282.813C338.653 281.072 337.67 279.937 336.345 279.027C336.156 278.951 335.891 278.801 335.891 278.459C335.891 277.928 336.571 277.967 336.761 277.967C340.96 277.967 346.786 287.885 346.786 295.759C346.786 304.162 341.488 313.624 336.797 313.624Z" fill="white"/>
<path d="M257.056 352.873L256.139 356.93C256.1 357.047 256.042 357.105 255.886 357.105H248.475C248.338 357.105 248.28 357.047 248.28 356.93C248.28 356.93 248.28 356.247 248.319 355.877C248.514 354.005 249.899 353.283 251.069 352.093C251.927 351.196 252.629 350.007 252.629 347.861C252.629 345.365 251.81 344.585 250.523 344.585C249.587 344.585 248.982 345.072 248.982 345.326C248.982 345.54 249.255 345.345 249.665 345.345C250.796 345.345 251.595 346.028 251.595 347.14C251.595 348.232 250.737 348.973 249.782 348.973C248.807 348.973 247.89 348.251 247.89 346.945C247.89 345.326 249.255 343.902 251.907 343.902C254.735 343.902 256.588 345.365 256.588 347.452C256.588 350.104 254.384 350.826 252.356 351.898C251.361 352.444 250.406 353.068 249.782 354.044C249.704 354.18 249.782 354.239 249.899 354.239H254.482C255.691 354.239 256.432 353.634 256.861 352.776C256.978 352.542 257.076 352.659 257.056 352.873ZM269.305 350.631C269.305 354.336 266.769 357.359 263.61 357.359C260.47 357.359 257.934 354.336 257.934 350.631C257.934 346.906 260.47 343.883 263.61 343.883C266.769 343.883 269.305 346.906 269.305 350.631ZM265.423 350.67C265.423 347.101 265.267 344.195 263.551 344.195C261.991 344.195 261.659 347.101 261.659 350.67C261.659 354.239 261.757 357.125 263.551 357.125C265.17 357.125 265.423 354.239 265.423 350.67ZM279.796 352.873L278.88 356.93C278.841 357.047 278.782 357.105 278.626 357.105H271.215C271.079 357.105 271.02 357.047 271.02 356.93C271.02 356.93 271.02 356.247 271.059 355.877C271.254 354.005 272.639 353.283 273.809 352.093C274.667 351.196 275.369 350.007 275.369 347.861C275.369 345.365 274.55 344.585 273.263 344.585C272.327 344.585 271.722 345.072 271.722 345.326C271.722 345.54 271.995 345.345 272.405 345.345C273.536 345.345 274.336 346.028 274.336 347.14C274.336 348.232 273.478 348.973 272.522 348.973C271.547 348.973 270.63 348.251 270.63 346.945C270.63 345.326 271.995 343.902 274.648 343.902C277.476 343.902 279.328 345.365 279.328 347.452C279.328 350.104 277.125 350.826 275.096 351.898C274.102 352.444 273.146 353.068 272.522 354.044C272.444 354.18 272.522 354.239 272.639 354.239H277.222C278.431 354.239 279.172 353.634 279.601 352.776C279.718 352.542 279.816 352.659 279.796 352.873ZM290.329 352.873L289.412 356.93C289.373 357.047 289.315 357.105 289.158 357.105H281.747C281.611 357.105 281.552 357.047 281.552 356.93C281.552 356.93 281.552 356.247 281.591 355.877C281.786 354.005 283.171 353.283 284.341 352.093C285.199 351.196 285.902 350.007 285.902 347.861C285.902 345.365 285.082 344.585 283.795 344.585C282.859 344.585 282.255 345.072 282.255 345.326C282.255 345.54 282.528 345.345 282.937 345.345C284.068 345.345 284.868 346.028 284.868 347.14C284.868 348.232 284.01 348.973 283.054 348.973C282.079 348.973 281.162 348.251 281.162 346.945C281.162 345.326 282.528 343.902 285.18 343.902C288.008 343.902 289.861 345.365 289.861 347.452C289.861 350.104 287.657 350.826 285.629 351.898C284.634 352.444 283.678 353.068 283.054 354.044C282.976 354.18 283.054 354.239 283.171 354.239H287.754C288.963 354.239 289.705 353.634 290.134 352.776C290.251 352.542 290.348 352.659 290.329 352.873Z" fill="white"/>
</g>
<g clip-path="url(#clip4_1957_71440)">
<rect x="624.262" y="221.258" width="203.846" height="151.735" rx="25" fill="url(#paint1_radial_1957_71440)"/>
<path d="M658.962 279.144C657.676 280.054 656.691 281.15 655.858 282.93C654.344 286.109 653.889 291.977 653.889 295.876C653.889 300.532 654.42 306.929 656.652 310.41C657.256 311.393 658.126 312.113 658.922 312.605C659.111 312.681 659.337 312.871 659.337 313.21C659.337 313.741 658.694 313.701 658.468 313.701C654.118 313.701 648.783 304.276 648.783 295.873C648.783 287.962 654.081 278.085 658.507 278.085C658.733 278.085 659.377 278.048 659.377 278.576C659.377 278.915 659.111 279.031 658.962 279.144Z" fill="white"/>
<path d="M673.11 308.817C671.862 308.817 670.574 308.475 669.515 307.794V312.487C669.515 314.872 671.179 315.666 672.164 315.666V316.081H660.17V315.666C661.116 315.666 663.045 314.719 663.045 312.411V297.462C663.045 295.379 661.833 294.851 661.192 294.851V294.472L668.685 292.277C669.1 292.164 669.518 292.125 669.518 292.808V294.625C670.806 293.15 672.469 292.164 674.474 292.164C677.426 292.164 680.679 294.283 680.679 299.318C680.676 304.994 677.008 308.817 673.11 308.817ZM671.371 294.775C670.651 294.775 670.009 295.266 669.518 296.25V306.28C670.086 307.303 670.879 307.755 671.636 307.755C673.15 307.755 673.867 306.051 673.867 300.98C673.867 295.947 672.503 294.775 671.371 294.775Z" fill="white"/>
<path d="M695.433 299.051C693.694 299.051 692.974 297.954 692.558 297.081C692.256 296.437 692.143 295.909 691.878 295.909C691.612 295.909 691.197 296.211 690.706 297.234V305.713C690.706 307.493 691.765 308.021 692.219 308.061V308.439H682.193V308.061C682.609 308.024 684.086 307.267 684.086 305.639V297.35C684.086 295.307 682.798 294.965 682.306 294.965V294.623L689.872 292.162C690.364 292.049 690.706 292.01 690.706 292.691V295.378C691.878 293.903 693.504 292.312 695.436 292.312C697.368 292.312 698.803 293.79 698.803 295.607C698.8 297.386 697.439 299.051 695.433 299.051Z" fill="white"/>
<path d="M708.106 308.819C703.339 308.819 699.896 305.753 699.896 300.795C699.896 295.684 703.907 292.09 708.863 292.09C713.289 292.09 716.316 295.268 716.316 298.41C716.316 298.789 716.28 299.054 715.749 299.054H706.062C706.44 302.764 707.915 305.072 710.982 305.072C713.78 305.072 715.636 302.764 716.051 302.083C716.277 302.007 716.466 302.046 716.466 302.272C716.167 303.632 713.707 308.819 708.106 308.819ZM708.372 292.695C707.389 292.695 705.988 293.907 705.988 297.427C705.988 297.729 706.025 297.995 706.025 298.337H709.581C710.185 298.337 710.261 297.882 710.261 296.709C710.264 294.661 709.696 292.695 708.372 292.695Z" fill="white"/>
<path d="M730.429 298.825L727.138 308.439H723.583L718.211 295.191C717.53 293.601 716.81 292.92 716.432 292.92V292.465H726.308V292.92C725.929 292.92 724.87 293.714 725.362 294.926L728.124 302.421L729.485 298.635C729.9 297.536 730.053 296.553 730.053 295.72C730.053 293.979 729.333 292.92 728.313 292.92V292.465H734.933V292.92C733.984 292.92 731.753 295.002 730.429 298.825Z" fill="white"/>
<path d="M734.139 308.44V308.061C734.593 308.025 736.068 307.267 736.068 305.64V297.35C736.068 295.307 734.743 294.966 734.252 294.966V294.624L741.857 292.163C742.312 292.05 742.651 292.01 742.651 292.691V305.714C742.651 307.493 743.71 308.022 744.165 308.061V308.44H734.139V308.44ZM739.056 289.513C737.051 289.513 735.348 287.885 735.348 285.843C735.348 283.836 737.051 282.133 739.056 282.133C741.098 282.133 742.724 283.836 742.724 285.843C742.727 287.885 741.1 289.513 739.056 289.513Z" fill="white"/>
<path d="M754.036 308.819C749.269 308.819 745.826 305.753 745.826 300.795C745.826 295.684 749.837 292.09 754.793 292.09C759.219 292.09 762.246 295.268 762.246 298.41C762.246 298.789 762.209 299.054 761.678 299.054H751.994C752.373 302.764 753.847 305.072 756.914 305.072C759.713 305.072 761.568 302.764 761.983 302.083C762.209 302.007 762.399 302.046 762.399 302.272C762.094 303.632 759.637 308.819 754.036 308.819ZM754.302 292.695C753.319 292.695 751.918 293.907 751.918 297.427C751.918 297.729 751.955 297.995 751.955 298.337H755.51C756.115 298.337 756.191 297.882 756.191 296.709C756.194 294.661 755.626 292.695 754.302 292.695Z" fill="white"/>
<path d="M787.407 298.825L784.117 308.439H780.598L776.585 298.599L773.219 308.439H769.663L764.252 295.191C763.608 293.601 762.891 292.92 762.473 292.92V292.465H772.349V292.92C772.01 292.92 770.948 293.677 771.403 294.926L774.202 302.421L776.018 297.197L775.148 295.191C774.543 293.601 773.521 292.92 772.953 292.92V292.465H783.623V292.92C783.208 292.92 782.222 293.677 782.64 294.926L785.137 302.421L786.422 298.635C786.837 297.536 786.99 296.553 786.99 295.72C786.99 293.979 786.27 292.92 785.25 292.92V292.465H791.87V292.92C790.963 292.92 788.693 295.002 787.407 298.825Z" fill="white"/>
<path d="M793.723 313.624C793.534 313.624 792.853 313.624 792.853 313.093C792.853 312.751 793.079 312.601 793.308 312.488C794.102 311.957 794.971 311.315 795.615 310.329C797.886 306.809 798.454 300.449 798.454 295.719C798.454 291.897 798.038 285.992 796.448 282.813C795.578 281.072 794.596 279.937 793.271 279.027C793.082 278.951 792.816 278.801 792.816 278.459C792.816 277.928 793.497 277.967 793.686 277.967C797.886 277.967 803.712 287.885 803.712 295.759C803.712 304.162 798.414 313.624 793.723 313.624Z" fill="white"/>
<path d="M713.917 352.873L713.001 356.93C712.962 357.047 712.903 357.105 712.747 357.105H705.336C705.2 357.105 705.141 357.047 705.141 356.93C705.141 356.93 705.141 356.247 705.18 355.877C705.375 354.005 706.76 353.283 707.93 352.093C708.788 351.196 709.49 350.007 709.49 347.861C709.49 345.365 708.671 344.585 707.384 344.585C706.448 344.585 705.843 345.072 705.843 345.326C705.843 345.54 706.116 345.345 706.526 345.345C707.657 345.345 708.456 346.028 708.456 347.14C708.456 348.232 707.598 348.973 706.643 348.973C705.668 348.973 704.751 348.251 704.751 346.945C704.751 345.326 706.116 343.902 708.769 343.902C711.596 343.902 713.449 345.365 713.449 347.452C713.449 350.104 711.245 350.826 709.217 351.898C708.222 352.444 707.267 353.068 706.643 354.044C706.565 354.18 706.643 354.239 706.76 354.239H711.343C712.552 354.239 713.293 353.634 713.722 352.776C713.839 352.542 713.937 352.659 713.917 352.873ZM726.166 350.631C726.166 354.336 723.63 357.359 720.471 357.359C717.331 357.359 714.796 354.336 714.796 350.631C714.796 346.906 717.331 343.883 720.471 343.883C723.63 343.883 726.166 346.906 726.166 350.631ZM722.285 350.67C722.285 347.101 722.129 344.195 720.412 344.195C718.852 344.195 718.521 347.101 718.521 350.67C718.521 354.239 718.618 357.125 720.412 357.125C722.031 357.125 722.285 354.239 722.285 350.67ZM736.658 352.873L735.741 356.93C735.702 357.047 735.643 357.105 735.487 357.105H728.076C727.94 357.105 727.881 357.047 727.881 356.93C727.881 356.93 727.881 356.247 727.92 355.877C728.115 354.005 729.5 353.283 730.67 352.093C731.528 351.196 732.23 350.007 732.23 347.861C732.23 345.365 731.411 344.585 730.124 344.585C729.188 344.585 728.583 345.072 728.583 345.326C728.583 345.54 728.856 345.345 729.266 345.345C730.397 345.345 731.197 346.028 731.197 347.14C731.197 348.232 730.339 348.973 729.383 348.973C728.408 348.973 727.491 348.251 727.491 346.945C727.491 345.326 728.856 343.902 731.509 343.902C734.337 343.902 736.189 345.365 736.189 347.452C736.189 350.104 733.986 350.826 731.957 351.898C730.963 352.444 730.007 353.068 729.383 354.044C729.305 354.18 729.383 354.239 729.5 354.239H734.083C735.292 354.239 736.033 353.634 736.463 352.776C736.58 352.542 736.677 352.659 736.658 352.873ZM747.19 353.654C747.19 355.604 745.005 357.34 742.178 357.34C739.525 357.34 737.945 356.072 737.945 354.317C737.945 353.068 738.862 352.347 739.779 352.347C740.773 352.347 741.573 353.088 741.573 353.985C741.573 355.233 740.676 355.604 740.169 355.643C739.779 355.701 739.506 355.76 739.506 355.955C739.506 356.384 740.286 356.891 741.027 356.891C742.373 356.891 743.309 356.345 743.309 353.439C743.309 350.884 742.197 350.455 740.403 350.455C740.266 350.416 740.266 350.182 740.325 350.143C741.69 350.143 742.782 349.85 742.782 347.296C742.782 345.423 741.963 344.682 741.027 344.682C740.305 344.682 739.798 345.072 739.798 345.306C739.798 345.404 739.837 345.443 739.896 345.423C739.993 345.423 740.169 345.365 740.403 345.365C741.163 345.365 742.178 346.047 742.178 347.159C742.178 348.29 741.28 348.953 740.422 348.953C739.545 348.953 738.472 348.31 738.472 346.964C738.472 345.072 740.169 343.941 742.295 343.941C744.518 343.941 746.41 345.131 746.41 347.062C746.41 349.109 744.596 350.026 743.582 350.026V350.163C745.122 350.163 747.19 351.489 747.19 353.654Z" fill="white"/>
</g>
<g clip-path="url(#clip5_1957_71440)">
<rect x="395.416" y="221.258" width="203.846" height="151.735" rx="25" fill="url(#paint2_radial_1957_71440)"/>
<path d="M436.662 278.573C436.662 278.043 436.018 278.081 435.791 278.081C431.365 278.081 426.068 287.953 426.068 295.858C426.068 304.255 431.403 313.673 435.754 313.673C435.981 313.673 436.624 313.711 436.624 313.182C436.624 312.841 436.397 312.652 436.208 312.576C435.413 312.085 434.543 311.366 433.938 310.383C431.706 306.903 431.176 300.51 431.176 295.858C431.176 291.962 431.63 286.1 433.143 282.922C433.975 281.145 434.959 280.048 436.245 279.14C436.397 279.026 436.662 278.913 436.662 278.573Z" fill="white"/>
<path d="M457.944 299.3C457.944 294.27 454.69 292.151 451.739 292.151C449.734 292.151 448.07 293.135 446.783 294.61V292.794C446.783 292.114 446.367 292.151 445.951 292.265L438.46 294.459V294.837C439.103 294.837 440.314 295.366 440.314 297.447V312.387C440.314 314.694 438.384 315.64 437.438 315.64V316.056H449.432V315.64C448.448 315.64 446.783 314.846 446.783 312.463V307.773C447.843 308.454 449.129 308.794 450.377 308.794C454.274 308.794 457.944 304.974 457.944 299.3ZM451.134 300.964C451.134 306.033 450.415 307.735 448.902 307.735C448.145 307.735 447.351 307.281 446.783 306.26V296.236C447.275 295.253 447.918 294.761 448.637 294.761C449.772 294.761 451.134 295.934 451.134 300.964Z" fill="white"/>
<path d="M476.065 295.593C476.065 293.778 474.627 292.303 472.698 292.303C470.768 292.303 469.141 293.891 467.969 295.366V292.681C467.969 292 467.628 292.038 467.136 292.151L459.57 294.61V294.95C460.061 294.95 461.348 295.291 461.348 297.333V305.617C461.348 307.243 459.872 308 459.456 308.037V308.416H469.482V308.037C469.028 308 467.969 307.47 467.969 305.692V297.22C468.46 296.199 468.877 295.896 469.141 295.896C469.406 295.896 469.52 296.425 469.822 297.068C470.239 297.938 470.957 299.035 472.698 299.035C474.703 299.035 476.065 297.371 476.065 295.593Z" fill="white"/>
<path d="M493.727 302.25C493.727 302.023 493.538 301.986 493.311 302.061C492.895 302.742 491.041 305.049 488.241 305.049C485.177 305.049 483.701 302.742 483.323 299.035H493.008C493.538 299.035 493.576 298.771 493.576 298.392C493.576 295.253 490.549 292.076 486.123 292.076C481.167 292.076 477.156 295.669 477.156 300.775C477.156 305.73 480.599 308.794 485.366 308.794C490.965 308.794 493.424 303.612 493.727 302.25ZM487.522 296.69C487.522 297.863 487.447 298.317 486.842 298.317H483.285C483.285 297.976 483.247 297.712 483.247 297.409C483.247 293.891 484.647 292.681 485.631 292.681C486.955 292.681 487.522 294.648 487.522 296.69Z" fill="white"/>
<path d="M507.851 304.369C507.889 304.179 507.776 304.028 507.624 304.142C507.322 304.633 506.338 305.73 505.165 305.73C504.03 305.73 503.387 304.671 503.387 303.347V294.723H505.922C506.073 294.723 506.149 294.61 506.225 294.496L507.17 292.643C507.17 292.53 507.057 292.454 506.943 292.454H503.387V287.65C503.387 287.121 503.122 287.196 502.895 287.386L495.442 293.967C494.988 294.421 495.291 294.686 495.556 294.686H496.842V304.255C496.842 306.978 498.847 308.794 501.722 308.794C505.317 308.794 507.397 305.73 507.851 304.369Z" fill="white"/>
<path d="M525.612 302.25C525.612 302.023 525.423 301.986 525.196 302.061C524.78 302.742 522.926 305.049 520.126 305.049C517.062 305.049 515.586 302.742 515.208 299.035H524.893C525.423 299.035 525.461 298.771 525.461 298.392C525.461 295.253 522.434 292.076 518.007 292.076C513.051 292.076 509.041 295.669 509.041 300.775C509.041 305.73 512.484 308.794 517.251 308.794C522.85 308.794 525.309 303.612 525.612 302.25ZM519.407 296.69C519.407 297.863 519.332 298.317 518.726 298.317H515.17C515.17 297.976 515.132 297.712 515.132 297.409C515.132 293.891 516.532 292.681 517.516 292.681C518.84 292.681 519.407 294.648 519.407 296.69Z" fill="white"/>
<path d="M541.514 303.007C541.514 300.208 539.509 298.998 537.466 298.052C535.31 297.106 533.115 296.425 533.115 294.686C533.115 293.853 533.872 292.794 535.499 292.794C536.785 292.794 537.92 293.551 538.715 294.459C539.509 295.366 540.039 296.425 540.228 296.993C540.417 297.712 540.682 297.447 540.682 297.031V292.681C540.682 292.341 540.568 292.341 540.341 292.341C540.114 292.341 539.623 292.567 538.942 292.567C538.261 292.567 536.747 292.151 534.931 292.151C531.526 292.151 528.197 294.232 528.197 297.825C528.197 300.548 529.975 301.872 531.905 302.742C534.288 303.915 537.05 304.369 537.05 306.108C537.05 307.168 536.142 308.151 534.515 308.151C532.737 308.151 531.299 306.827 530.278 305.314C529.408 303.99 528.84 302.591 528.613 301.796C528.462 301.229 528.084 301.494 528.084 301.834V308.113C528.084 308.491 528.121 308.567 528.311 308.567C528.5 308.567 529.029 308.189 530.164 308.189C532.245 308.189 532.472 308.718 535.083 308.718C538.374 308.718 541.514 306.071 541.514 303.007Z" fill="white"/>
<path d="M555.512 304.369C555.55 304.179 555.437 304.028 555.285 304.142C554.983 304.633 553.999 305.73 552.826 305.73C551.691 305.73 551.048 304.671 551.048 303.347V294.723H553.583C553.734 294.723 553.81 294.61 553.885 294.496L554.831 292.643C554.831 292.53 554.718 292.454 554.604 292.454H551.048V287.65C551.048 287.121 550.783 287.196 550.556 287.386L543.103 293.967C542.649 294.421 542.952 294.686 543.217 294.686H544.503V304.255C544.503 306.978 546.508 308.794 549.383 308.794C552.977 308.794 555.058 305.73 555.512 304.369Z" fill="white"/>
<path d="M569.111 295.745C569.111 287.877 563.285 277.967 559.085 277.967C558.896 277.967 558.215 277.93 558.215 278.459C558.215 278.8 558.48 278.951 558.669 279.026C559.993 279.934 560.977 281.069 561.847 282.809C563.436 285.986 563.852 291.887 563.852 295.707C563.852 300.435 563.285 306.789 561.015 310.307C560.372 311.29 559.502 311.933 558.707 312.463C558.48 312.576 558.253 312.728 558.253 313.068C558.253 313.598 558.934 313.598 559.123 313.598C563.815 313.598 569.111 304.142 569.111 295.745Z" fill="white"/>
<path d="M485.134 352.873L484.218 356.93C484.179 357.047 484.12 357.105 483.964 357.105H476.553C476.417 357.105 476.358 357.047 476.358 356.93C476.358 356.93 476.358 356.247 476.397 355.877C476.592 354.005 477.977 353.283 479.147 352.093C480.005 351.196 480.707 350.007 480.707 347.861C480.707 345.365 479.888 344.585 478.601 344.585C477.665 344.585 477.06 345.072 477.06 345.326C477.06 345.54 477.333 345.345 477.743 345.345C478.874 345.345 479.674 346.028 479.674 347.14C479.674 348.232 478.815 348.973 477.86 348.973C476.885 348.973 475.968 348.251 475.968 346.945C475.968 345.326 477.333 343.902 479.986 343.902C482.813 343.902 484.666 345.365 484.666 347.452C484.666 350.104 482.462 350.826 480.434 351.898C479.439 352.444 478.484 353.068 477.86 354.044C477.782 354.18 477.86 354.239 477.977 354.239H482.56C483.769 354.239 484.51 353.634 484.939 352.776C485.056 352.542 485.154 352.659 485.134 352.873ZM497.383 350.631C497.383 354.336 494.847 357.359 491.688 357.359C488.548 357.359 486.013 354.336 486.013 350.631C486.013 346.906 488.548 343.883 491.688 343.883C494.847 343.883 497.383 346.906 497.383 350.631ZM493.502 350.67C493.502 347.101 493.346 344.195 491.629 344.195C490.069 344.195 489.738 347.101 489.738 350.67C489.738 354.239 489.835 357.125 491.629 357.125C493.248 357.125 493.502 354.239 493.502 350.67ZM507.875 352.873L506.958 356.93C506.919 357.047 506.86 357.105 506.704 357.105H499.293C499.157 357.105 499.098 357.047 499.098 356.93C499.098 356.93 499.098 356.247 499.137 355.877C499.332 354.005 500.717 353.283 501.887 352.093C502.745 351.196 503.447 350.007 503.447 347.861C503.447 345.365 502.628 344.585 501.341 344.585C500.405 344.585 499.801 345.072 499.801 345.326C499.801 345.54 500.074 345.345 500.483 345.345C501.614 345.345 502.414 346.028 502.414 347.14C502.414 348.232 501.556 348.973 500.6 348.973C499.625 348.973 498.708 348.251 498.708 346.945C498.708 345.326 500.074 343.902 502.726 343.902C505.554 343.902 507.407 345.365 507.407 347.452C507.407 350.104 505.203 350.826 503.174 351.898C502.18 352.444 501.224 353.068 500.6 354.044C500.522 354.18 500.6 354.239 500.717 354.239H505.3C506.509 354.239 507.251 353.634 507.68 352.776C507.797 352.542 507.894 352.659 507.875 352.873ZM518.407 352.873L517.49 356.93C517.451 357.047 517.393 357.105 517.237 357.105H509.826C509.689 357.105 509.631 357.047 509.631 356.93C509.631 356.93 509.631 356.247 509.67 355.877C509.865 354.005 511.249 353.283 512.419 352.093C513.278 351.196 513.98 350.007 513.98 347.861C513.98 345.365 513.161 344.585 511.873 344.585C510.937 344.585 510.333 345.072 510.333 345.326C510.333 345.54 510.606 345.345 511.015 345.345C512.146 345.345 512.946 346.028 512.946 347.14C512.946 348.232 512.088 348.973 511.132 348.973C510.157 348.973 509.241 348.251 509.241 346.945C509.241 345.326 510.606 343.902 513.258 343.902C516.086 343.902 517.939 345.365 517.939 347.452C517.939 350.104 515.735 350.826 513.707 351.898C512.712 352.444 511.756 353.068 511.132 354.044C511.054 354.18 511.132 354.239 511.249 354.239H515.832C517.042 354.239 517.783 353.634 518.212 352.776C518.329 352.542 518.426 352.659 518.407 352.873Z" fill="white"/>
</g>
<g clip-path="url(#clip6_1957_71440)">
<rect x="853.107" y="221.258" width="203.08" height="151.735" rx="25" fill="url(#paint3_radial_1957_71440)"/>
<path d="M894.355 278.573C894.355 278.043 893.712 278.081 893.485 278.081C889.058 278.081 883.762 287.953 883.762 295.858C883.762 304.255 889.096 313.673 893.447 313.673C893.674 313.673 894.317 313.711 894.317 313.182C894.317 312.841 894.09 312.652 893.901 312.576C893.107 312.085 892.236 311.366 891.631 310.383C889.399 306.903 888.869 300.51 888.869 295.858C888.869 291.962 889.323 286.1 890.837 282.922C891.669 281.145 892.653 280.048 893.939 279.14C894.09 279.026 894.355 278.913 894.355 278.573Z" fill="white"/>
<path d="M915.637 299.3C915.637 294.27 912.384 292.151 909.433 292.151C907.428 292.151 905.763 293.135 904.477 294.61V292.794C904.477 292.114 904.06 292.151 903.644 292.265L896.153 294.459V294.837C896.796 294.837 898.007 295.366 898.007 297.447V312.387C898.007 314.694 896.078 315.64 895.132 315.64V316.056H907.125V315.64C906.141 315.64 904.477 314.846 904.477 312.463V307.773C905.536 308.454 906.822 308.794 908.071 308.794C911.968 308.794 915.637 304.974 915.637 299.3ZM908.827 300.964C908.827 306.033 908.109 307.735 906.595 307.735C905.839 307.735 905.044 307.281 904.477 306.26V296.236C904.968 295.253 905.612 294.761 906.33 294.761C907.465 294.761 908.827 295.934 908.827 300.964Z" fill="white"/>
<path d="M933.758 295.593C933.758 293.778 932.321 292.303 930.391 292.303C928.462 292.303 926.835 293.891 925.662 295.366V292.681C925.662 292 925.321 292.038 924.83 292.151L917.263 294.61V294.95C917.755 294.95 919.041 295.291 919.041 297.333V305.617C919.041 307.243 917.566 308 917.15 308.037V308.416H927.175V308.037C926.721 308 925.662 307.47 925.662 305.692V297.22C926.154 296.199 926.57 295.896 926.835 295.896C927.1 295.896 927.213 296.425 927.516 297.068C927.932 297.938 928.651 299.035 930.391 299.035C932.396 299.035 933.758 297.371 933.758 295.593Z" fill="white"/>
<path d="M951.42 302.25C951.42 302.023 951.231 301.986 951.004 302.061C950.588 302.742 948.734 305.049 945.935 305.049C942.87 305.049 941.395 302.742 941.016 299.035H950.702C951.231 299.035 951.269 298.771 951.269 298.392C951.269 295.253 948.243 292.076 943.816 292.076C938.86 292.076 934.85 295.669 934.85 300.775C934.85 305.73 938.292 308.794 943.059 308.794C948.659 308.794 951.118 303.612 951.42 302.25ZM945.216 296.69C945.216 297.863 945.14 298.317 944.535 298.317H940.979C940.979 297.976 940.941 297.712 940.941 297.409C940.941 293.891 942.341 292.681 943.324 292.681C944.648 292.681 945.216 294.648 945.216 296.69Z" fill="white"/>
<path d="M965.545 304.369C965.583 304.179 965.469 304.028 965.318 304.142C965.015 304.633 964.031 305.73 962.859 305.73C961.724 305.73 961.08 304.671 961.08 303.347V294.723H963.615C963.767 294.723 963.842 294.61 963.918 294.496L964.864 292.643C964.864 292.53 964.75 292.454 964.637 292.454H961.08V287.65C961.08 287.121 960.816 287.196 960.589 287.386L953.135 293.967C952.681 294.421 952.984 294.686 953.249 294.686H954.535V304.255C954.535 306.978 956.54 308.794 959.416 308.794C963.01 308.794 965.091 305.73 965.545 304.369Z" fill="white"/>
<path d="M983.305 302.25C983.305 302.023 983.116 301.986 982.889 302.061C982.473 302.742 980.619 305.049 977.82 305.049C974.755 305.049 973.28 302.742 972.901 299.035H982.586C983.116 299.035 983.154 298.771 983.154 298.392C983.154 295.253 980.127 292.076 975.701 292.076C970.745 292.076 966.734 295.669 966.734 300.775C966.734 305.73 970.177 308.794 974.944 308.794C980.543 308.794 983.003 303.612 983.305 302.25ZM977.101 296.69C977.101 297.863 977.025 298.317 976.42 298.317H972.863C972.863 297.976 972.826 297.712 972.826 297.409C972.826 293.891 974.225 292.681 975.209 292.681C976.533 292.681 977.101 294.648 977.101 296.69Z" fill="white"/>
<path d="M999.208 303.007C999.208 300.208 997.203 298.998 995.16 298.052C993.003 297.106 990.809 296.425 990.809 294.686C990.809 293.853 991.565 292.794 993.192 292.794C994.479 292.794 995.614 293.551 996.408 294.459C997.203 295.366 997.732 296.425 997.921 296.993C998.111 297.712 998.375 297.447 998.375 297.031V292.681C998.375 292.341 998.262 292.341 998.035 292.341C997.808 292.341 997.316 292.567 996.635 292.567C995.954 292.567 994.441 292.151 992.625 292.151C989.22 292.151 985.89 294.232 985.89 297.825C985.89 300.548 987.669 301.872 989.598 302.742C991.982 303.915 994.743 304.369 994.743 306.108C994.743 307.168 993.835 308.151 992.209 308.151C990.43 308.151 988.993 306.827 987.971 305.314C987.101 303.99 986.534 302.591 986.307 301.796C986.155 301.229 985.777 301.494 985.777 301.834V308.113C985.777 308.491 985.815 308.567 986.004 308.567C986.193 308.567 986.723 308.189 987.858 308.189C989.939 308.189 990.166 308.718 992.776 308.718C996.068 308.718 999.208 306.071 999.208 303.007Z" fill="white"/>
<path d="M1013.21 304.369C1013.24 304.179 1013.13 304.028 1012.98 304.142C1012.68 304.633 1011.69 305.73 1010.52 305.73C1009.38 305.73 1008.74 304.671 1008.74 303.347V294.723H1011.28C1011.43 294.723 1011.5 294.61 1011.58 294.496L1012.52 292.643C1012.52 292.53 1012.41 292.454 1012.3 292.454H1008.74V287.65C1008.74 287.121 1008.48 287.196 1008.25 287.386L1000.8 293.967C1000.34 294.421 1000.65 294.686 1000.91 294.686H1002.2V304.255C1002.2 306.978 1004.2 308.794 1007.08 308.794C1010.67 308.794 1012.75 305.73 1013.21 304.369Z" fill="white"/>
<path d="M1026.8 295.745C1026.8 287.877 1020.98 277.967 1016.78 277.967C1016.59 277.967 1015.91 277.93 1015.91 278.459C1015.91 278.8 1016.17 278.951 1016.36 279.026C1017.69 279.934 1018.67 281.069 1019.54 282.809C1021.13 285.986 1021.55 291.887 1021.55 295.707C1021.55 300.435 1020.98 306.789 1018.71 310.307C1018.07 311.29 1017.2 311.933 1016.4 312.463C1016.17 312.576 1015.95 312.728 1015.95 313.068C1015.95 313.598 1016.63 313.598 1016.82 313.598C1021.51 313.598 1026.8 304.142 1026.8 295.745Z" fill="white"/>
<path d="M942.761 352.873L941.844 356.93C941.805 357.047 941.747 357.105 941.591 357.105H934.18C934.043 357.105 933.985 357.047 933.985 356.93C933.985 356.93 933.985 356.247 934.024 355.877C934.219 354.005 935.603 353.283 936.774 352.093C937.632 351.196 938.334 350.007 938.334 347.861C938.334 345.365 937.515 344.585 936.228 344.585C935.291 344.585 934.687 345.072 934.687 345.326C934.687 345.54 934.96 345.345 935.369 345.345C936.501 345.345 937.3 346.028 937.3 347.14C937.3 348.232 936.442 348.973 935.486 348.973C934.511 348.973 933.595 348.251 933.595 346.945C933.595 345.326 934.96 343.902 937.612 343.902C940.44 343.902 942.293 345.365 942.293 347.452C942.293 350.104 940.089 350.826 938.061 351.898C937.066 352.444 936.111 353.068 935.486 354.044C935.408 354.18 935.486 354.239 935.603 354.239H940.187C941.396 354.239 942.137 353.634 942.566 352.776C942.683 352.542 942.78 352.659 942.761 352.873ZM955.009 350.631C955.009 354.336 952.474 357.359 949.315 357.359C946.175 357.359 943.639 354.336 943.639 350.631C943.639 346.906 946.175 343.883 949.315 343.883C952.474 343.883 955.009 346.906 955.009 350.631ZM951.128 350.67C951.128 347.101 950.972 344.195 949.256 344.195C947.696 344.195 947.364 347.101 947.364 350.67C947.364 354.239 947.462 357.125 949.256 357.125C950.875 357.125 951.128 354.239 951.128 350.67ZM965.501 352.873L964.585 356.93C964.546 357.047 964.487 357.105 964.331 357.105H956.92C956.784 357.105 956.725 357.047 956.725 356.93C956.725 356.93 956.725 356.247 956.764 355.877C956.959 354.005 958.344 353.283 959.514 352.093C960.372 351.196 961.074 350.007 961.074 347.861C961.074 345.365 960.255 344.585 958.968 344.585C958.032 344.585 957.427 345.072 957.427 345.326C957.427 345.54 957.7 345.345 958.11 345.345C959.241 345.345 960.041 346.028 960.041 347.14C960.041 348.232 959.182 348.973 958.227 348.973C957.252 348.973 956.335 348.251 956.335 346.945C956.335 345.326 957.7 343.902 960.353 343.902C963.18 343.902 965.033 345.365 965.033 347.452C965.033 350.104 962.829 350.826 960.801 351.898C959.807 352.444 958.851 353.068 958.227 354.044C958.149 354.18 958.227 354.239 958.344 354.239H962.927C964.136 354.239 964.877 353.634 965.306 352.776C965.423 352.542 965.521 352.659 965.501 352.873ZM976.033 353.654C976.033 355.604 973.849 357.34 971.021 357.34C968.369 357.34 966.789 356.072 966.789 354.317C966.789 353.068 967.706 352.347 968.622 352.347C969.617 352.347 970.417 353.088 970.417 353.985C970.417 355.233 969.52 355.604 969.013 355.643C968.622 355.701 968.349 355.76 968.349 355.955C968.349 356.384 969.13 356.891 969.871 356.891C971.216 356.891 972.152 356.345 972.152 353.439C972.152 350.884 971.041 350.455 969.247 350.455C969.11 350.416 969.11 350.182 969.169 350.143C970.534 350.143 971.626 349.85 971.626 347.296C971.626 345.423 970.807 344.682 969.871 344.682C969.149 344.682 968.642 345.072 968.642 345.306C968.642 345.404 968.681 345.443 968.739 345.423C968.837 345.423 969.013 345.365 969.247 345.365C970.007 345.365 971.021 346.047 971.021 347.159C971.021 348.29 970.124 348.953 969.266 348.953C968.388 348.953 967.316 348.31 967.316 346.964C967.316 345.072 969.013 343.941 971.138 343.941C973.362 343.941 975.253 345.131 975.253 347.062C975.253 349.109 973.44 350.026 972.425 350.026V350.163C973.966 350.163 976.033 351.489 976.033 353.654Z" fill="white"/>
</g>
<g clip-path="url(#clip7_1957_71440)">
<rect x="291.08" y="45" width="203.846" height="151.735" rx="25" fill="#889EC5"/>
<path d="M332.328 102.317C332.328 101.787 331.685 101.825 331.458 101.825C327.031 101.825 321.734 111.697 321.734 119.602C321.734 127.999 327.069 137.417 331.42 137.417C331.647 137.417 332.29 137.455 332.29 136.926C332.29 136.585 332.063 136.396 331.874 136.32C331.079 135.829 330.209 135.11 329.604 134.127C327.372 130.647 326.842 124.255 326.842 119.602C326.842 115.706 327.296 109.844 328.809 106.666C329.642 104.889 330.625 103.792 331.912 102.884C332.063 102.771 332.328 102.657 332.328 102.317Z" fill="white"/>
<path d="M353.61 123.044C353.61 118.014 350.356 115.896 347.405 115.896C345.4 115.896 343.736 116.879 342.449 118.354V116.539C342.449 115.858 342.033 115.896 341.617 116.009L334.126 118.203V118.581C334.769 118.581 335.98 119.111 335.98 121.191V136.131C335.98 138.439 334.05 139.384 333.104 139.384V139.8H345.098V139.384C344.114 139.384 342.449 138.59 342.449 136.207V131.517C343.509 132.198 344.795 132.538 346.043 132.538C349.94 132.538 353.61 128.718 353.61 123.044ZM346.8 124.709C346.8 129.777 346.081 131.479 344.568 131.479C343.811 131.479 343.017 131.025 342.449 130.004V119.981C342.941 118.997 343.584 118.505 344.303 118.505C345.438 118.505 346.8 119.678 346.8 124.709Z" fill="white"/>
<path d="M371.731 119.338C371.731 117.522 370.293 116.047 368.364 116.047C366.434 116.047 364.807 117.635 363.635 119.111V116.425C363.635 115.744 363.294 115.782 362.802 115.896L355.236 118.354V118.694C355.728 118.694 357.014 119.035 357.014 121.077V129.361C357.014 130.987 355.538 131.744 355.122 131.782V132.16H365.148V131.782C364.694 131.744 363.635 131.214 363.635 129.437V120.964C364.126 119.943 364.543 119.64 364.807 119.64C365.072 119.64 365.186 120.17 365.488 120.813C365.905 121.683 366.623 122.779 368.364 122.779C370.369 122.779 371.731 121.115 371.731 119.338Z" fill="white"/>
<path d="M389.393 125.995C389.393 125.768 389.204 125.73 388.977 125.805C388.561 126.486 386.707 128.793 383.907 128.793C380.843 128.793 379.367 126.486 378.989 122.779H388.674C389.204 122.779 389.242 122.515 389.242 122.136C389.242 118.997 386.215 115.82 381.789 115.82C376.833 115.82 372.822 119.413 372.822 124.519C372.822 129.474 376.265 132.538 381.032 132.538C386.631 132.538 389.09 127.356 389.393 125.995ZM383.189 120.434C383.189 121.607 383.113 122.061 382.508 122.061H378.951C378.951 121.72 378.913 121.456 378.913 121.153C378.913 117.635 380.313 116.425 381.297 116.425C382.621 116.425 383.189 118.392 383.189 120.434Z" fill="white"/>
<path d="M403.517 128.113C403.555 127.924 403.442 127.772 403.29 127.886C402.988 128.377 402.004 129.474 400.831 129.474C399.696 129.474 399.053 128.415 399.053 127.091V118.468H401.588C401.739 118.468 401.815 118.354 401.891 118.241L402.836 116.387C402.836 116.274 402.723 116.198 402.609 116.198H399.053V111.394C399.053 110.865 398.788 110.941 398.561 111.13L391.108 117.711C390.654 118.165 390.957 118.43 391.222 118.43H392.508V127.999C392.508 130.723 394.513 132.538 397.388 132.538C400.983 132.538 403.063 129.474 403.517 128.113Z" fill="white"/>
<path d="M421.278 125.995C421.278 125.768 421.089 125.73 420.862 125.805C420.446 126.486 418.592 128.793 415.792 128.793C412.728 128.793 411.252 126.486 410.874 122.779H420.559C421.089 122.779 421.127 122.515 421.127 122.136C421.127 118.997 418.1 115.82 413.673 115.82C408.717 115.82 404.707 119.413 404.707 124.519C404.707 129.474 408.15 132.538 412.917 132.538C418.516 132.538 420.975 127.356 421.278 125.995ZM415.073 120.434C415.073 121.607 414.998 122.061 414.392 122.061H410.836C410.836 121.72 410.798 121.456 410.798 121.153C410.798 117.635 412.198 116.425 413.182 116.425C414.506 116.425 415.073 118.392 415.073 120.434Z" fill="white"/>
<path d="M437.18 126.751C437.18 123.952 435.175 122.742 433.132 121.796C430.976 120.85 428.781 120.17 428.781 118.43C428.781 117.598 429.538 116.539 431.165 116.539C432.451 116.539 433.586 117.295 434.381 118.203C435.175 119.111 435.705 120.17 435.894 120.737C436.083 121.456 436.348 121.191 436.348 120.775V116.425C436.348 116.085 436.235 116.085 436.008 116.085C435.781 116.085 435.289 116.312 434.608 116.312C433.927 116.312 432.413 115.896 430.597 115.896C427.192 115.896 423.863 117.976 423.863 121.569C423.863 124.292 425.641 125.616 427.571 126.486C429.954 127.659 432.716 128.113 432.716 129.853C432.716 130.912 431.808 131.895 430.181 131.895C428.403 131.895 426.965 130.571 425.944 129.058C425.074 127.734 424.506 126.335 424.279 125.541C424.128 124.973 423.75 125.238 423.75 125.578V131.857C423.75 132.235 423.787 132.311 423.977 132.311C424.166 132.311 424.695 131.933 425.83 131.933C427.911 131.933 428.138 132.462 430.749 132.462C434.04 132.462 437.18 129.815 437.18 126.751Z" fill="white"/>
<path d="M451.178 128.113C451.216 127.924 451.103 127.772 450.951 127.886C450.649 128.377 449.665 129.474 448.492 129.474C447.357 129.474 446.714 128.415 446.714 127.091V118.468H449.249C449.4 118.468 449.476 118.354 449.552 118.241L450.497 116.387C450.497 116.274 450.384 116.198 450.27 116.198H446.714V111.394C446.714 110.865 446.449 110.941 446.222 111.13L438.769 117.711C438.315 118.165 438.618 118.43 438.883 118.43H440.169V127.999C440.169 130.723 442.174 132.538 445.049 132.538C448.644 132.538 450.724 129.474 451.178 128.113Z" fill="white"/>
<path d="M464.777 119.489C464.777 111.621 458.951 101.712 454.751 101.712C454.562 101.712 453.881 101.674 453.881 102.203C453.881 102.544 454.146 102.695 454.335 102.771C455.659 103.678 456.643 104.813 457.513 106.553C459.102 109.73 459.518 115.631 459.518 119.451C459.518 124.179 458.951 130.533 456.681 134.051C456.038 135.034 455.168 135.677 454.373 136.207C454.146 136.32 453.919 136.472 453.919 136.812C453.919 137.342 454.6 137.342 454.789 137.342C459.481 137.342 464.777 127.886 464.777 119.489Z" fill="white"/>
<path d="M379.964 176.618L379.048 180.674C379.009 180.791 378.95 180.85 378.794 180.85H371.383C371.247 180.85 371.188 180.791 371.188 180.674C371.188 180.674 371.188 179.991 371.227 179.621C371.422 177.749 372.807 177.027 373.977 175.837C374.835 174.94 375.537 173.751 375.537 171.605C375.537 169.109 374.718 168.329 373.431 168.329C372.495 168.329 371.89 168.816 371.89 169.07C371.89 169.285 372.163 169.09 372.573 169.09C373.704 169.09 374.503 169.772 374.503 170.884C374.503 171.976 373.645 172.717 372.69 172.717C371.715 172.717 370.798 171.995 370.798 170.689C370.798 169.07 372.163 167.646 374.816 167.646C377.643 167.646 379.496 169.109 379.496 171.196C379.496 173.848 377.292 174.57 375.264 175.642C374.269 176.188 373.314 176.813 372.69 177.788C372.612 177.924 372.69 177.983 372.807 177.983H377.39C378.599 177.983 379.34 177.378 379.769 176.52C379.886 176.286 379.984 176.403 379.964 176.618ZM392.213 174.375C392.213 178.08 389.677 181.103 386.518 181.103C383.378 181.103 380.843 178.08 380.843 174.375C380.843 170.65 383.378 167.627 386.518 167.627C389.677 167.627 392.213 170.65 392.213 174.375ZM388.332 174.414C388.332 170.845 388.176 167.939 386.459 167.939C384.899 167.939 384.568 170.845 384.568 174.414C384.568 177.983 384.665 180.869 386.459 180.869C388.078 180.869 388.332 177.983 388.332 174.414ZM402.705 176.618L401.788 180.674C401.749 180.791 401.69 180.85 401.534 180.85H394.123C393.987 180.85 393.928 180.791 393.928 180.674C393.928 180.674 393.928 179.991 393.967 179.621C394.162 177.749 395.547 177.027 396.717 175.837C397.575 174.94 398.277 173.751 398.277 171.605C398.277 169.109 397.458 168.329 396.171 168.329C395.235 168.329 394.63 168.816 394.63 169.07C394.63 169.285 394.904 169.09 395.313 169.09C396.444 169.09 397.244 169.772 397.244 170.884C397.244 171.976 396.386 172.717 395.43 172.717C394.455 172.717 393.538 171.995 393.538 170.689C393.538 169.07 394.904 167.646 397.556 167.646C400.384 167.646 402.236 169.109 402.236 171.196C402.236 173.848 400.033 174.57 398.004 175.642C397.01 176.188 396.054 176.813 395.43 177.788C395.352 177.924 395.43 177.983 395.547 177.983H400.13C401.339 177.983 402.08 177.378 402.51 176.52C402.627 176.286 402.724 176.403 402.705 176.618ZM414.953 174.375C414.953 178.08 412.418 181.103 409.258 181.103C406.118 181.103 403.583 178.08 403.583 174.375C403.583 170.65 406.118 167.627 409.258 167.627C412.418 167.627 414.953 170.65 414.953 174.375ZM411.072 174.414C411.072 170.845 410.916 167.939 409.2 167.939C407.639 167.939 407.308 170.845 407.308 174.414C407.308 177.983 407.405 180.869 409.2 180.869C410.818 180.869 411.072 177.983 411.072 174.414Z" fill="white"/>
</g>
<defs>
<radialGradient id="paint0_radial_1957_71440" cx="0" cy="0" r="1" gradientUnits="userSpaceOnUse" gradientTransform="translate(102.933 392.434) rotate(-32.6173) scale(317.566 316.687)">
<stop stop-color="#8519E3"/>
<stop offset="1" stop-color="#B491FF"/>
</radialGradient>
<radialGradient id="paint1_radial_1957_71440" cx="0" cy="0" r="1" gradientUnits="userSpaceOnUse" gradientTransform="translate(606.52 386.972) rotate(-36.4225) scale(295.906 284.733)">
<stop stop-color="#595CFF"/>
<stop offset="1" stop-color="#C6F8FF"/>
</radialGradient>
<radialGradient id="paint2_radial_1957_71440" cx="0" cy="0" r="1" gradientUnits="userSpaceOnUse" gradientTransform="translate(346.655 433.452) rotate(-38.9629) scale(380.983 409.494)">
<stop stop-color="#0897FF"/>
<stop offset="1" stop-color="#3FE082"/>
</radialGradient>
<radialGradient id="paint3_radial_1957_71440" cx="0" cy="0" r="1" gradientUnits="userSpaceOnUse" gradientTransform="translate(879.857 366.111) rotate(-34.202) scale(228.365 225.186)">
<stop stop-color="#595CFF"/>
<stop offset="1" stop-color="#FFC8C8"/>
</radialGradient>
<clipPath id="clip0_1957_71440">
<rect x="63" y="45" width="203.08" height="151.735" rx="25" fill="white"/>
</clipPath>
<clipPath id="clip1_1957_71440">
<rect x="519.926" y="45" width="203.08" height="151.735" rx="25" fill="white"/>
</clipPath>
<clipPath id="clip2_1957_71440">
<rect x="748.006" y="45" width="203.08" height="151.735" rx="25" fill="white"/>
</clipPath>
<clipPath id="clip3_1957_71440">
<rect x="167.336" y="221.258" width="203.08" height="151.735" rx="25" fill="white"/>
</clipPath>
<clipPath id="clip4_1957_71440">
<rect x="624.262" y="221.258" width="203.846" height="151.735" rx="25" fill="white"/>
</clipPath>
<clipPath id="clip5_1957_71440">
<rect x="395.416" y="221.258" width="203.846" height="151.735" rx="25" fill="white"/>
</clipPath>
<clipPath id="clip6_1957_71440">
<rect x="853.107" y="221.258" width="203.08" height="151.735" rx="25" fill="white"/>
</clipPath>
<clipPath id="clip7_1957_71440">
<rect x="291.08" y="45" width="203.846" height="151.735" rx="25" fill="white"/>
</clipPath>
</defs>
</svg>
