<svg width="402" height="300" viewBox="0 0 402 300" fill="none" xmlns="http://www.w3.org/2000/svg">
<rect width="402" height="300" fill="url(#paint0_linear_1879_3690)"/>
<path d="M149.978 115.652H129.064V113.57H133.239V84.2817H129.064V82.1878H147.884V84.2817H149.978V86.3756H152.072V94.7383H149.978V98.926H152.072V101.02H154.165V111.477H152.072V113.57H149.978V115.652ZM137.427 96.8322H145.79V94.7383H147.884V86.3756H145.79V84.2817H137.427V96.8322ZM137.427 113.57H147.884V111.477H149.978V101.02H147.884V98.926H137.427V113.57Z" fill="white"/>
<path d="M175.627 115.652H165.171V113.57H163.077V111.477H160.983V107.289H158.902V101.02H160.983V96.8322H163.077V94.7383H165.171V92.6444H175.627V94.7383H177.721V96.8322H179.815V101.02H181.909V107.289H179.815V111.477H177.721V113.57H175.627V115.652ZM167.264 113.57H173.533V111.477H175.627V107.289H177.721V101.02H175.627V96.8322H173.533V94.7383H167.264V96.8322H165.171V101.02H163.077V107.289H165.171V111.477H167.264V113.57Z" fill="white"/>
<path d="M196.029 115.652H189.748V113.57H187.654V94.7383H185.573V92.6444H187.654V90.5505H189.748V88.4694H191.841V92.6444H198.123V94.7383H191.841V113.57H196.029V115.652ZM198.123 113.57H196.029V111.477H198.123V113.57Z" fill="white"/>
<path d="M212.231 115.652H205.949V113.57H203.855V94.7383H201.774V92.6444H203.855V90.5505H205.949V88.4694H208.043V92.6444H214.325V94.7383H208.043V113.57H212.231V115.652ZM214.325 113.57H212.231V111.477H214.325V113.57Z" fill="white"/>
<path d="M226.338 115.652H217.976V113.57H220.057V82.1878H217.976V80.0939H220.057V78.0001H222.151V75.9189H224.244V113.57H226.338V115.652Z" fill="white"/>
<path d="M246.715 115.652H236.258V113.57H234.164V111.477H232.07V107.289H229.989V101.02H232.07V96.8322H234.164V98.926H246.715V96.8322H244.621V94.7383H236.258V92.6444H246.715V94.7383H248.809V96.8322H250.903V101.02H234.164V107.289H236.258V111.477H238.352V113.57H246.715V115.652ZM236.258 96.8322H234.164V94.7383H236.258V96.8322ZM250.903 111.477H248.809V109.383H250.903V111.477ZM248.809 113.57H246.715V111.477H248.809V113.57Z" fill="white"/>
<path d="M262.929 115.652H254.566V113.57H256.647V96.8322H254.566V94.7383H256.647V92.6444H258.741V90.5505H260.835V94.7383H262.929V96.8322H260.835V113.57H262.929V115.652ZM278.62 115.652H270.245V113.57H272.339V96.8322H270.245V94.7383H262.929V92.6444H272.339V94.7383H274.433V96.8322H276.526V113.57H278.62V115.652Z" fill="white"/>
<path d="M299.035 115.652H288.579V113.57H286.485V111.477H284.391V107.289H282.31V101.02H284.391V96.8322H286.485V98.926H299.035V96.8322H296.941V94.7383H288.579V92.6444H299.035V94.7383H301.129V96.8322H303.223V101.02H286.485V107.289H288.579V111.477H290.672V113.57H299.035V115.652ZM288.579 96.8322H286.485V94.7383H288.579V96.8322ZM303.223 111.477H301.129V109.383H303.223V111.477ZM301.129 113.57H299.035V111.477H301.129V113.57Z" fill="white"/>
<path d="M324.162 115.652H313.705V113.57H311.611V111.477H309.517V107.289H307.436V101.02H309.517V96.8322H311.611V94.7383H313.705V92.6444H324.162V94.7383H326.256V96.8322H328.349V98.926H324.162V96.8322H322.068V94.7383H315.799V96.8322H313.705V101.02H311.611V107.289H313.705V111.477H315.799V113.57H324.162V115.652ZM328.349 111.477H326.256V109.383H328.349V111.477ZM326.256 113.57H324.162V111.477H326.256V113.57Z" fill="white"/>
<path d="M339.355 115.652H330.992V113.57H333.073V82.1878H330.992V80.0939H333.073V78.0001H335.167V75.9189H337.261V103.101H339.355V101.02H341.448V103.101H343.542V105.195H345.623V107.289H347.717V109.383H349.811V111.477H351.905V113.57H353.999V115.652H345.623V113.57H347.717V111.477H345.623V109.383H343.542V107.289H341.448V105.195H337.261V113.57H339.355V115.652ZM347.717 96.8322H345.623V94.7383H342.495V92.6444H351.905V94.7383H347.717V96.8322ZM345.623 98.926H343.542V96.8322H345.623V98.926ZM343.542 101.02H341.448V98.926H343.542V101.02Z" fill="white"/>
<path d="M131.439 132.262H130.117V121.549H131.417L137.282 129.96H137.349V121.549H138.67V132.262H137.371L131.506 123.88H131.439V132.262ZM143.748 132.395C141.61 132.395 140.17 130.859 140.17 128.401C140.17 125.936 141.61 124.407 143.748 124.407C145.879 124.407 147.319 125.936 147.319 128.401C147.319 130.859 145.879 132.395 143.748 132.395ZM143.748 131.259C145.114 131.259 146.005 130.22 146.005 128.401C146.005 126.582 145.114 125.543 143.748 125.543C142.382 125.543 141.484 126.582 141.484 128.401C141.484 130.22 142.382 131.259 143.748 131.259ZM149.041 122.677H150.333V124.541H151.833V125.602H150.333V130.19C150.333 130.896 150.63 131.215 151.291 131.215C151.439 131.215 151.736 131.193 151.825 131.178V132.262C151.67 132.299 151.313 132.321 151.009 132.321C149.591 132.321 149.041 131.742 149.041 130.257V125.602H147.891V124.541H149.041V122.677ZM153.926 123.167C153.481 123.167 153.117 122.803 153.117 122.358C153.117 121.905 153.481 121.549 153.926 121.549C154.379 121.549 154.736 121.905 154.736 122.358C154.736 122.803 154.379 123.167 153.926 123.167ZM153.281 132.262V124.541H154.572V132.262H153.281ZM156.733 132.262V125.602H155.656V124.541H156.733V123.68C156.733 122.195 157.423 121.489 158.849 121.489C159.138 121.489 159.45 121.519 159.636 121.549V122.596C159.48 122.573 159.264 122.551 159.049 122.551C158.351 122.551 158.017 122.922 158.017 123.687V124.541H159.598V125.602H158.025V132.262H156.733ZM161.647 123.167C161.202 123.167 160.838 122.803 160.838 122.358C160.838 121.905 161.202 121.549 161.647 121.549C162.1 121.549 162.457 121.905 162.457 122.358C162.457 122.803 162.1 123.167 161.647 123.167ZM161.002 132.262V124.541H162.293V132.262H161.002ZM170.452 127.072H169.19C169.005 126.233 168.351 125.543 167.216 125.543C165.879 125.543 164.973 126.649 164.973 128.401C164.973 130.198 165.894 131.259 167.23 131.259C168.285 131.259 168.975 130.703 169.198 129.775H170.467C170.267 131.311 168.975 132.395 167.223 132.395C165.085 132.395 163.659 130.888 163.659 128.401C163.659 125.966 165.077 124.407 167.208 124.407C169.138 124.407 170.289 125.684 170.452 127.072ZM173.912 132.395C172.375 132.395 171.343 131.467 171.343 130.079C171.343 128.758 172.36 127.926 174.142 127.822L176.355 127.696V127.05C176.355 126.107 175.731 125.543 174.662 125.543C173.667 125.543 173.043 126.011 172.88 126.768H171.633C171.722 125.432 172.865 124.407 174.692 124.407C176.503 124.407 177.646 125.387 177.646 126.924V132.262H176.421V130.933H176.392C175.931 131.816 174.951 132.395 173.912 132.395ZM174.202 131.297C175.419 131.297 176.355 130.443 176.355 129.329V128.698L174.291 128.824C173.251 128.891 172.657 129.351 172.657 130.079C172.657 130.814 173.274 131.297 174.202 131.297ZM179.703 122.677H180.995V124.541H182.494V125.602H180.995V130.19C180.995 130.896 181.292 131.215 181.952 131.215C182.101 131.215 182.398 131.193 182.487 131.178V132.262C182.331 132.299 181.975 132.321 181.67 132.321C180.252 132.321 179.703 131.742 179.703 130.257V125.602H178.552V124.541H179.703V122.677ZM184.588 123.167C184.142 123.167 183.779 122.803 183.779 122.358C183.779 121.905 184.142 121.549 184.588 121.549C185.041 121.549 185.397 121.905 185.397 122.358C185.397 122.803 185.041 123.167 184.588 123.167ZM183.942 132.262V124.541H185.234V132.262H183.942ZM190.178 132.395C188.04 132.395 186.6 130.859 186.6 128.401C186.6 125.936 188.04 124.407 190.178 124.407C192.309 124.407 193.749 125.936 193.749 128.401C193.749 130.859 192.309 132.395 190.178 132.395ZM190.178 131.259C191.544 131.259 192.435 130.22 192.435 128.401C192.435 126.582 191.544 125.543 190.178 125.543C188.812 125.543 187.914 126.582 187.914 128.401C187.914 130.22 188.812 131.259 190.178 131.259ZM195.056 132.262V124.541H196.273V125.773H196.303C196.734 124.942 197.558 124.407 198.753 124.407C200.446 124.407 201.426 125.498 201.426 127.25V132.262H200.134V127.481C200.134 126.233 199.547 125.55 198.359 125.55C197.142 125.55 196.348 126.412 196.348 127.718V132.262H195.056ZM202.94 126.671C202.94 125.35 204.106 124.407 205.776 124.407C207.469 124.407 208.597 125.402 208.649 126.768H207.417C207.32 125.959 206.726 125.461 205.776 125.461C204.833 125.461 204.21 125.929 204.21 126.605C204.21 127.139 204.603 127.503 205.464 127.711L206.689 128.008C208.248 128.386 208.813 128.995 208.813 130.101C208.813 131.445 207.543 132.395 205.821 132.395C204.009 132.395 202.881 131.482 202.732 130.035H204.024C204.18 130.918 204.774 131.341 205.821 131.341C206.867 131.341 207.513 130.896 207.513 130.198C207.513 129.641 207.209 129.322 206.325 129.106L205.101 128.81C203.645 128.461 202.94 127.785 202.94 126.671ZM213.69 122.677H214.982V124.541H216.482V125.602H214.982V130.19C214.982 130.896 215.279 131.215 215.94 131.215C216.088 131.215 216.385 131.193 216.474 131.178V132.262C216.318 132.299 215.962 132.321 215.658 132.321C214.24 132.321 213.69 131.742 213.69 130.257V125.602H212.539V124.541H213.69V122.677ZM217.929 132.262V121.549H219.221V125.773H219.251C219.681 124.912 220.528 124.407 221.701 124.407C223.393 124.407 224.418 125.55 224.418 127.273V132.262H223.126V127.51C223.126 126.285 222.51 125.55 221.3 125.55C220.015 125.55 219.221 126.426 219.221 127.763V132.262H217.929ZM231.181 130.049H232.451C232.228 131.401 230.921 132.395 229.236 132.395C227.024 132.395 225.68 130.859 225.68 128.431C225.68 126.033 227.046 124.407 229.177 124.407C231.263 124.407 232.547 125.922 232.547 128.26V128.75H227.009V128.824C227.009 130.302 227.878 131.274 229.266 131.274C230.246 131.274 230.966 130.777 231.181 130.049ZM229.154 125.528C227.944 125.528 227.098 126.456 227.016 127.74H231.211C231.181 126.449 230.372 125.528 229.154 125.528ZM236.972 132.262V124.541H238.19V125.803H238.219C238.472 124.949 239.184 124.407 240.09 124.407C240.313 124.407 240.506 124.444 240.61 124.459V125.714C240.506 125.677 240.231 125.639 239.919 125.639C238.917 125.639 238.264 126.36 238.264 127.451V132.262H236.972ZM242.377 123.167C241.931 123.167 241.568 122.803 241.568 122.358C241.568 121.905 241.931 121.549 242.377 121.549C242.83 121.549 243.186 121.905 243.186 122.358C243.186 122.803 242.83 123.167 242.377 123.167ZM241.731 132.262V124.541H243.023V132.262H241.731ZM247.952 135.172C246.252 135.172 244.908 134.214 244.693 132.9H246.022C246.274 133.605 247.039 134.073 248.004 134.073C249.341 134.073 250.15 133.301 250.15 132.15V130.933H250.12C249.645 131.772 248.732 132.321 247.648 132.321C245.68 132.321 244.389 130.769 244.389 128.372C244.389 125.951 245.68 124.407 247.678 124.407C248.769 124.407 249.675 124.942 250.187 125.84H250.209V124.541H251.442V132.106C251.442 133.947 250.083 135.172 247.952 135.172ZM247.908 131.185C249.251 131.185 250.15 130.072 250.15 128.372C250.15 126.671 249.251 125.543 247.908 125.543C246.579 125.543 245.71 126.642 245.71 128.372C245.71 130.101 246.579 131.185 247.908 131.185ZM253.194 132.262V121.549H254.485V125.773H254.515C254.946 124.912 255.792 124.407 256.965 124.407C258.658 124.407 259.682 125.55 259.682 127.273V132.262H258.39V127.51C258.39 126.285 257.774 125.55 256.564 125.55C255.28 125.55 254.485 126.426 254.485 127.763V132.262H253.194ZM261.739 122.677H263.03V124.541H264.53V125.602H263.03V130.19C263.03 130.896 263.327 131.215 263.988 131.215C264.137 131.215 264.434 131.193 264.523 131.178V132.262C264.367 132.299 264.01 132.321 263.706 132.321C262.288 132.321 261.739 131.742 261.739 130.257V125.602H260.588V124.541H261.739V122.677ZM278.851 124.541L276.698 132.262H275.384L273.639 126.285H273.61L271.873 132.262H270.558L268.398 124.541H269.682L271.227 130.821H271.256L273.001 124.541H274.248L276 130.821H276.03L277.574 124.541H278.851ZM282.021 132.395C280.484 132.395 279.452 131.467 279.452 130.079C279.452 128.758 280.47 127.926 282.251 127.822L284.464 127.696V127.05C284.464 126.107 283.84 125.543 282.771 125.543C281.776 125.543 281.153 126.011 280.989 126.768H279.742C279.831 125.432 280.974 124.407 282.801 124.407C284.612 124.407 285.756 125.387 285.756 126.924V132.262H284.531V130.933H284.501C284.041 131.816 283.061 132.395 282.021 132.395ZM282.311 131.297C283.528 131.297 284.464 130.443 284.464 129.329V128.698L282.4 128.824C281.36 128.891 280.767 129.351 280.767 130.079C280.767 130.814 281.383 131.297 282.311 131.297ZM288.042 135.15C287.886 135.15 287.626 135.135 287.485 135.105V134.021C287.626 134.051 287.827 134.058 287.99 134.058C288.71 134.058 289.111 133.709 289.408 132.811L289.586 132.269L286.736 124.541H288.116L290.255 130.97H290.277L292.415 124.541H293.774L290.737 132.804C290.076 134.608 289.438 135.15 288.042 135.15Z" fill="white"/>
<g filter="url(#filter0_b_1879_3690)">
<rect x="61.4258" y="89.0645" width="55.2596" height="42.9797" rx="6.3829" fill="#619698"/>
</g>
<g filter="url(#filter1_b_1879_3690)">
<rect x="47.8086" y="75.8594" width="55.2596" height="42.9797" rx="6.3829" fill="white" fill-opacity="0.8"/>
</g>
<defs>
<filter id="filter0_b_1879_3690" x="57.0996" y="84.7383" width="63.9121" height="51.6319" filterUnits="userSpaceOnUse" color-interpolation-filters="sRGB">
<feFlood flood-opacity="0" result="BackgroundImageFix"/>
<feGaussianBlur in="BackgroundImageFix" stdDeviation="2.16309"/>
<feComposite in2="SourceAlpha" operator="in" result="effect1_backgroundBlur_1879_3690"/>
<feBlend mode="normal" in="SourceGraphic" in2="effect1_backgroundBlur_1879_3690" result="shape"/>
</filter>
<filter id="filter1_b_1879_3690" x="43.4824" y="71.5332" width="63.9121" height="51.6319" filterUnits="userSpaceOnUse" color-interpolation-filters="sRGB">
<feFlood flood-opacity="0" result="BackgroundImageFix"/>
<feGaussianBlur in="BackgroundImageFix" stdDeviation="2.16309"/>
<feComposite in2="SourceAlpha" operator="in" result="effect1_backgroundBlur_1879_3690"/>
<feBlend mode="normal" in="SourceGraphic" in2="effect1_backgroundBlur_1879_3690" result="shape"/>
</filter>
<linearGradient id="paint0_linear_1879_3690" x1="19" y1="-66.5" x2="402" y2="365.5" gradientUnits="userSpaceOnUse">
<stop stop-color="#3C626C"/>
<stop offset="1" stop-color="#2B4C54"/>
</linearGradient>
</defs>
</svg>
