<svg width="402" height="300" viewBox="0 0 402 300" fill="none" xmlns="http://www.w3.org/2000/svg">
<rect width="402" height="300" fill="#474A35"/>
<path d="M277.405 134.495C271.214 134.495 267.832 130.662 267.832 124.701V120.973C267.832 114.949 271.214 111.2 277.405 111.2C283.616 111.2 286.999 114.949 286.999 120.973V124.701C286.999 130.662 283.595 134.495 277.405 134.495ZM277.405 129.208C278.617 129.208 279.213 128.197 279.213 126.028V119.688C279.213 117.498 278.617 116.466 277.405 116.466C276.214 116.466 275.618 117.498 275.618 119.688V126.028C275.618 128.197 276.214 129.208 277.405 129.208Z" fill="#F8E7D6"/>
<path d="M262.365 133.905H253.601L248.24 111.79H256.047L257.239 119.351C257.579 121.563 257.77 123.269 257.941 125.944H258.387C258.6 123.269 258.813 121.563 259.132 119.351L260.217 111.79H267.705L262.365 133.905Z" fill="#F8E7D6"/>
<path d="M247.114 110.084H239.477V104.776H247.114V110.084ZM247.114 133.905H239.477V111.79H247.114V133.905Z" fill="#F8E7D6"/>
<path d="M231.627 133.905H223.99V111.79H231.436C231.5 113.18 231.266 114.254 230.436 116.108L230.798 116.339C232.946 112.506 234.393 111.495 237.371 111.053L238.073 118.045C232.287 118.698 231.627 119.309 231.627 124.806V133.905Z" fill="#F8E7D6"/>
<path d="M212.651 134.474C206.29 134.474 203.248 131.252 203.248 124.554V121.142C203.248 114.444 206.311 111.222 212.672 111.222C218.841 111.222 221.947 113.981 221.989 120.426L214.374 120.952C214.352 117.456 213.821 116.445 212.672 116.445C211.544 116.445 211.034 117.456 211.034 119.647V126.071C211.034 128.24 211.566 129.251 212.714 129.251C213.863 129.251 214.416 128.156 214.416 124.449L222.181 125.017C222.053 131.631 218.713 134.474 212.651 134.474Z" fill="#F8E7D6"/>
<path d="M192.953 134.495C187.102 134.495 184.018 132.22 184.039 127.565L191.293 126.617C191.272 128.661 191.804 129.777 193.016 129.777C193.761 129.777 194.208 129.335 194.208 128.618C194.208 127.502 193.357 126.639 191.038 125.396L188.74 124.174C186.4 122.932 184.231 121.036 184.231 118.024C184.231 113.706 187.251 111.284 192.782 111.284C198.526 111.284 201.419 113.433 201.419 117.792L194.357 118.656C194.42 116.76 193.952 115.939 192.825 115.939C192.08 115.939 191.591 116.297 191.591 116.992C191.591 118.003 192.314 118.698 194.612 119.835L196.909 120.952C199.207 122.089 201.951 123.648 201.951 127.755C201.951 132.073 198.781 134.495 192.953 134.495Z" fill="#F8E7D6"/>
<path d="M176.955 110.084H169.318V104.776H176.955V110.084ZM176.955 133.905H169.318V111.79H176.955V133.905Z" fill="#F8E7D6"/>
<path d="M162.618 134.411C158.321 134.411 156.172 132.284 156.172 127.882V117.203H153.832V111.79H156.172V107.472L163.809 105.366V111.79H167.617V117.203H163.809V127.018C163.809 128.092 164.32 128.577 165.362 128.577C166.021 128.577 166.851 128.45 167.766 128.219L167.298 133.505C165.915 134.095 164.277 134.411 162.618 134.411Z" fill="#F8E7D6"/>
<path d="M217.676 62.6248C214.124 62.6248 212.039 60.329 212.039 56.8116V56.7274C212.039 51.5039 216.187 50.1349 219.463 49.2924L222.718 48.4499V46.3226C222.718 45.1642 222.356 44.5955 221.505 44.5955C220.548 44.5955 219.995 45.3537 220.038 48.3446L212.465 47.9655C212.379 42.384 215.294 39.3721 221.591 39.3721C227.185 39.3721 230.334 41.731 230.334 46.3858V56.264C230.334 57.275 230.632 57.4645 231.908 57.4645L231.142 62.4142C230.674 62.5405 229.993 62.6248 229.44 62.6248C225.377 62.6248 223.952 61.2979 224.314 57.7383L223.888 57.6541C223.165 60.9609 221.271 62.6248 217.676 62.6248ZM220.889 57.0222C222.059 57.0222 222.718 55.8427 222.718 54.0103V52.557L221.654 52.9151C220.591 53.2731 219.697 54.0735 219.697 55.3162V55.4636C219.697 56.5378 220.101 57.0222 220.889 57.0222Z" fill="#F8E7D6"/>
<path d="M205.104 62.0557H197.467V39.9403H204.912C204.976 41.3304 204.742 42.4046 203.912 44.2581L204.274 44.4897C206.423 40.6564 207.869 39.6454 210.847 39.2031L211.549 46.1958C205.763 46.8487 205.104 47.4595 205.104 52.9568V62.0557Z" fill="#F8E7D6"/>
<path d="M181.938 62.6248C178.386 62.6248 176.301 60.329 176.301 56.8116V56.7274C176.301 51.5039 180.449 50.1349 183.725 49.2924L186.98 48.4499V46.3226C186.98 45.1642 186.618 44.5955 185.767 44.5955C184.81 44.5955 184.257 45.3537 184.299 48.3446L176.726 47.9655C176.641 42.384 179.556 39.3721 185.852 39.3721C191.447 39.3721 194.595 41.731 194.595 46.3858V56.264C194.595 57.275 194.893 57.4645 196.17 57.4645L195.404 62.4142C194.936 62.5405 194.255 62.6248 193.702 62.6248C189.639 62.6248 188.214 61.2979 188.575 57.7383L188.15 57.6541C187.426 60.9609 185.533 62.6248 181.938 62.6248ZM185.15 57.0222C186.32 57.0222 186.98 55.8427 186.98 54.0103V52.557L185.916 52.9151C184.852 53.2731 183.959 54.0735 183.959 55.3162V55.4636C183.959 56.5378 184.363 57.0222 185.15 57.0222Z" fill="#F8E7D6"/>
<path d="M164.388 62.6456C157.071 62.6456 153.752 58.5384 153.752 49.9872V44.6373C153.752 36.1071 157.156 32 164.388 32C171.323 32 174.94 35.4121 175.004 43.6264L167.643 44.6584C167.643 39.5613 166.643 38.0027 164.537 38.0027C162.538 38.0027 161.559 39.5824 161.559 42.826V51.7564C161.559 55.021 162.538 56.6007 164.559 56.6007C166.452 56.6007 167.579 54.9157 167.643 49.4185L175.131 50.935C174.982 59.2545 171.111 62.6456 164.388 62.6456Z" fill="#F8E7D6"/>
<path d="M244.542 98.5496C240.989 98.5496 238.904 96.2538 238.904 92.7364V92.6522C238.904 87.4287 243.053 86.0597 246.329 85.2172L249.583 84.3747V82.2474C249.583 81.089 249.222 80.5203 248.371 80.5203C247.413 80.5203 246.86 81.2786 246.903 84.2694L239.33 83.8903C239.245 78.3088 242.159 75.2969 248.456 75.2969C254.051 75.2969 257.199 77.6558 257.199 82.3106V92.1888C257.199 93.1998 257.497 93.3893 258.773 93.3893L258.007 98.339C257.539 98.4653 256.859 98.5496 256.306 98.5496C252.242 98.5496 250.817 97.2227 251.179 93.6632L250.753 93.5789C250.03 96.8857 248.137 98.5496 244.542 98.5496ZM247.754 92.947C248.924 92.947 249.583 91.7675 249.583 89.9351V88.4818L248.52 88.8399C247.456 89.198 246.563 89.9983 246.563 91.241V91.3884C246.563 92.4626 246.967 92.947 247.754 92.947Z" fill="#B0A352"/>
<path d="M237.373 74.1592H229.736V68.8516H237.373V74.1592ZM237.373 97.9806H229.736V75.8653H237.373V97.9806Z" fill="#B0A352"/>
<path d="M218.207 91.4509L221.419 92.0617C224.653 92.6725 228.631 93.5571 228.631 98.7384C228.631 103.793 225.142 105.942 218.058 105.942C211.719 105.942 208.592 104.362 208.592 101.013C208.592 98.7595 209.634 97.4115 212.591 96.9481V96.4005C210.74 95.6844 209.443 94.4417 209.443 92.2934C209.443 90.461 210.677 89.1972 212.91 88.8181V88.3969C210.74 87.2174 209.613 85.2165 209.613 82.4573C209.613 77.8236 212.783 75.3383 218.633 75.3383C219.76 75.3383 220.781 75.4225 221.696 75.6121C220.207 71.5049 222.143 68.83 227.291 68.5352L227.822 74.6643C224.376 74.9591 223.44 75.2751 223.504 76.1386C226.184 77.2128 227.61 79.3612 227.61 82.4573C227.61 87.0699 224.44 89.5763 218.633 89.5763C217.335 89.5763 216.165 89.45 215.144 89.2183C214.761 89.3447 214.569 89.5342 214.569 89.8712C214.569 90.461 214.995 90.8401 218.207 91.4509ZM218.611 79.5507C217.59 79.5507 217.143 80.3721 217.143 82.4573C217.143 84.5425 217.59 85.3639 218.633 85.3639C219.632 85.3639 220.079 84.5425 220.079 82.4573C220.079 80.3721 219.632 79.5507 218.611 79.5507ZM218.526 100.866C221.377 100.866 222.419 100.592 222.419 99.5177C222.419 98.5699 221.824 98.1276 218.611 97.6221L215.399 97.1166C215.357 97.1166 215.335 97.0956 215.293 97.0956C214.335 97.6011 213.953 98.2119 213.953 98.9912C213.953 100.402 215.059 100.866 218.526 100.866Z" fill="#B0A352"/>
<path d="M197.529 91.4509L200.742 92.0617C203.975 92.6725 207.953 93.5571 207.953 98.7384C207.953 103.793 204.464 105.942 197.38 105.942C191.041 105.942 187.914 104.362 187.914 101.013C187.914 98.7595 188.956 97.4115 191.913 96.9481V96.4005C190.063 95.6844 188.765 94.4417 188.765 92.2934C188.765 90.461 189.999 89.1972 192.232 88.8181V88.3969C190.063 87.2174 188.935 85.2165 188.935 82.4573C188.935 77.8236 192.105 75.3383 197.955 75.3383C199.082 75.3383 200.103 75.4225 201.018 75.6121C199.529 71.5049 201.465 68.83 206.613 68.5352L207.145 74.6643C203.699 74.9591 202.763 75.2751 202.826 76.1386C205.507 77.2128 206.932 79.3612 206.932 82.4573C206.932 87.0699 203.762 89.5763 197.955 89.5763C196.657 89.5763 195.487 89.45 194.466 89.2183C194.083 89.3447 193.892 89.5342 193.892 89.8712C193.892 90.461 194.317 90.8401 197.529 91.4509ZM197.934 79.5507C196.912 79.5507 196.466 80.3721 196.466 82.4573C196.466 84.5425 196.912 85.3639 197.955 85.3639C198.955 85.3639 199.401 84.5425 199.401 82.4573C199.401 80.3721 198.955 79.5507 197.934 79.5507ZM197.848 100.866C200.699 100.866 201.741 100.592 201.741 99.5177C201.741 98.5699 201.146 98.1276 197.934 97.6221L194.721 97.1166C194.679 97.1166 194.658 97.0956 194.615 97.0956C193.658 97.6011 193.275 98.2119 193.275 98.9912C193.275 100.402 194.381 100.866 197.848 100.866Z" fill="#B0A352"/>
<path d="M177.682 98.5702C171.492 98.5702 168.109 94.7369 168.109 88.7763V85.0483C168.109 79.0245 171.492 75.2754 177.682 75.2754C183.894 75.2754 187.276 79.0245 187.276 85.0483V88.7763C187.276 94.7369 183.873 98.5702 177.682 98.5702ZM177.682 93.2836C178.895 93.2836 179.49 92.2726 179.49 90.1032V83.7635C179.49 81.573 178.895 80.541 177.682 80.541C176.491 80.541 175.895 81.573 175.895 83.7635V90.1032C175.895 92.2726 176.491 93.2836 177.682 93.2836Z" fill="#B0A352"/>
<path d="M166.194 74.1592H158.557V68.8516H166.194V74.1592ZM166.194 97.9806H158.557V75.8653H166.194V97.9806Z" fill="#B0A352"/>
<path d="M145.518 97.9803H137.881V68.4932H145.518V74.2221C145.518 76.1809 145.156 77.8869 144.241 80.0774L144.646 80.267C146.156 77.1076 148.305 75.5701 151.304 75.5701C154.75 75.5701 156.41 77.2761 156.41 80.8146V97.9803H148.773V82.5838C148.773 81.4043 148.347 80.8356 147.517 80.8356C146.199 80.8356 145.518 82.4153 145.518 85.2376V97.9803Z" fill="#B0A352"/>
<path d="M125.265 98.5704C117.947 98.5704 114.629 94.4632 114.629 85.912V80.5622C114.629 72.0319 118.033 67.9248 125.265 67.9248C132.2 67.9248 135.817 71.3369 135.881 79.5512L128.52 80.5832C128.52 75.4862 127.52 73.9275 125.414 73.9275C123.415 73.9275 122.436 75.5072 122.436 78.7508V87.6812C122.436 90.9458 123.415 92.5255 125.436 92.5255C127.329 92.5255 128.456 90.8405 128.52 85.3433L136.008 86.8598C135.859 95.1793 131.988 98.5704 125.265 98.5704Z" fill="#B0A352"/>
</svg>
