<svg width="402" height="300" viewBox="0 0 402 300" fill="none" xmlns="http://www.w3.org/2000/svg">
<rect width="402" height="300" fill="#474A35"/>
<path d="M277.405 140.495C271.214 140.495 267.832 136.662 267.832 130.701V126.973C267.832 120.949 271.214 117.2 277.405 117.2C283.616 117.2 286.999 120.949 286.999 126.973V130.701C286.999 136.662 283.595 140.495 277.405 140.495ZM277.405 135.208C278.617 135.208 279.213 134.197 279.213 132.028V125.688C279.213 123.498 278.617 122.466 277.405 122.466C276.214 122.466 275.618 123.498 275.618 125.688V132.028C275.618 134.197 276.214 135.208 277.405 135.208Z" fill="#F8E7D6"/>
<path d="M262.365 139.905H253.601L248.24 117.79H256.047L257.239 125.351C257.579 127.563 257.77 129.269 257.941 131.944H258.387C258.6 129.269 258.813 127.563 259.132 125.351L260.217 117.79H267.705L262.365 139.905Z" fill="#F8E7D6"/>
<path d="M247.114 116.084H239.477V110.776H247.114V116.084ZM247.114 139.905H239.477V117.79H247.114V139.905Z" fill="#F8E7D6"/>
<path d="M231.627 139.905H223.99V117.79H231.436C231.5 119.18 231.266 120.254 230.436 122.108L230.798 122.339C232.946 118.506 234.393 117.495 237.371 117.053L238.073 124.045C232.287 124.698 231.627 125.309 231.627 130.806V139.905Z" fill="#F8E7D6"/>
<path d="M212.651 140.474C206.29 140.474 203.248 137.252 203.248 130.554V127.142C203.248 120.444 206.311 117.222 212.672 117.222C218.841 117.222 221.947 119.981 221.989 126.426L214.374 126.952C214.352 123.456 213.821 122.445 212.672 122.445C211.544 122.445 211.034 123.456 211.034 125.647V132.071C211.034 134.24 211.566 135.251 212.714 135.251C213.863 135.251 214.416 134.156 214.416 130.449L222.181 131.017C222.053 137.631 218.713 140.474 212.651 140.474Z" fill="#F8E7D6"/>
<path d="M192.953 140.495C187.102 140.495 184.018 138.22 184.039 133.565L191.293 132.617C191.272 134.661 191.804 135.777 193.016 135.777C193.761 135.777 194.208 135.335 194.208 134.618C194.208 133.502 193.357 132.639 191.038 131.396L188.74 130.174C186.4 128.932 184.231 127.036 184.231 124.024C184.231 119.706 187.251 117.284 192.782 117.284C198.526 117.284 201.419 119.433 201.419 123.792L194.357 124.656C194.42 122.76 193.952 121.939 192.825 121.939C192.08 121.939 191.591 122.297 191.591 122.992C191.591 124.003 192.314 124.698 194.612 125.835L196.909 126.952C199.207 128.089 201.951 129.648 201.951 133.755C201.951 138.073 198.781 140.495 192.953 140.495Z" fill="#F8E7D6"/>
<path d="M176.955 116.084H169.318V110.776H176.955V116.084ZM176.955 139.905H169.318V117.79H176.955V139.905Z" fill="#F8E7D6"/>
<path d="M162.618 140.411C158.321 140.411 156.172 138.284 156.172 133.882V123.203H153.832V117.79H156.172V113.472L163.809 111.366V117.79H167.617V123.203H163.809V133.018C163.809 134.092 164.32 134.577 165.362 134.577C166.021 134.577 166.851 134.45 167.766 134.219L167.298 139.505C165.915 140.095 164.277 140.411 162.618 140.411Z" fill="#F8E7D6"/>
<path d="M217.676 68.6248C214.124 68.6248 212.039 66.329 212.039 62.8116V62.7274C212.039 57.5039 216.187 56.1349 219.463 55.2924L222.718 54.4499V52.3226C222.718 51.1642 222.356 50.5955 221.505 50.5955C220.548 50.5955 219.995 51.3537 220.038 54.3446L212.465 53.9655C212.379 48.384 215.294 45.3721 221.591 45.3721C227.185 45.3721 230.334 47.731 230.334 52.3858V62.264C230.334 63.275 230.632 63.4645 231.908 63.4645L231.142 68.4142C230.674 68.5405 229.993 68.6248 229.44 68.6248C225.377 68.6248 223.952 67.2979 224.314 63.7383L223.888 63.6541C223.165 66.9609 221.271 68.6248 217.676 68.6248ZM220.889 63.0222C222.059 63.0222 222.718 61.8427 222.718 60.0103V58.557L221.654 58.9151C220.591 59.2731 219.697 60.0735 219.697 61.3162V61.4636C219.697 62.5378 220.101 63.0222 220.889 63.0222Z" fill="#F8E7D6"/>
<path d="M205.104 68.0557H197.467V45.9403H204.912C204.976 47.3304 204.742 48.4046 203.912 50.2581L204.274 50.4897C206.423 46.6564 207.869 45.6454 210.847 45.2031L211.549 52.1958C205.763 52.8487 205.104 53.4595 205.104 58.9568V68.0557Z" fill="#F8E7D6"/>
<path d="M181.938 68.6248C178.386 68.6248 176.301 66.329 176.301 62.8116V62.7274C176.301 57.5039 180.449 56.1349 183.725 55.2924L186.98 54.4499V52.3226C186.98 51.1642 186.618 50.5955 185.767 50.5955C184.81 50.5955 184.257 51.3537 184.299 54.3446L176.726 53.9655C176.641 48.384 179.556 45.3721 185.852 45.3721C191.447 45.3721 194.595 47.731 194.595 52.3858V62.264C194.595 63.275 194.893 63.4645 196.17 63.4645L195.404 68.4142C194.936 68.5405 194.255 68.6248 193.702 68.6248C189.639 68.6248 188.214 67.2979 188.575 63.7383L188.15 63.6541C187.426 66.9609 185.533 68.6248 181.938 68.6248ZM185.15 63.0222C186.32 63.0222 186.98 61.8427 186.98 60.0103V58.557L185.916 58.9151C184.852 59.2731 183.959 60.0735 183.959 61.3162V61.4636C183.959 62.5378 184.363 63.0222 185.15 63.0222Z" fill="#F8E7D6"/>
<path d="M164.388 68.6456C157.071 68.6456 153.752 64.5384 153.752 55.9872V50.6373C153.752 42.1071 157.156 38 164.388 38C171.323 38 174.94 41.4121 175.004 49.6264L167.643 50.6584C167.643 45.5613 166.643 44.0027 164.537 44.0027C162.538 44.0027 161.559 45.5824 161.559 48.826V57.7564C161.559 61.021 162.538 62.6007 164.559 62.6007C166.452 62.6007 167.579 60.9157 167.643 55.4185L175.131 56.935C174.982 65.2545 171.111 68.6456 164.388 68.6456Z" fill="#F8E7D6"/>
<path d="M244.542 104.55C240.989 104.55 238.904 102.254 238.904 98.7364V98.6522C238.904 93.4287 243.053 92.0597 246.329 91.2172L249.583 90.3747V88.2474C249.583 87.089 249.222 86.5203 248.371 86.5203C247.413 86.5203 246.86 87.2786 246.903 90.2694L239.33 89.8903C239.245 84.3088 242.159 81.2969 248.456 81.2969C254.051 81.2969 257.199 83.6558 257.199 88.3106V98.1888C257.199 99.1998 257.497 99.3893 258.773 99.3893L258.007 104.339C257.539 104.465 256.859 104.55 256.306 104.55C252.242 104.55 250.817 103.223 251.179 99.6632L250.753 99.5789C250.03 102.886 248.137 104.55 244.542 104.55ZM247.754 98.947C248.924 98.947 249.583 97.7675 249.583 95.9351V94.4818L248.52 94.8399C247.456 95.198 246.563 95.9983 246.563 97.241V97.3884C246.563 98.4626 246.967 98.947 247.754 98.947Z" fill="#B0A352"/>
<path d="M237.373 80.1592H229.736V74.8516H237.373V80.1592ZM237.373 103.981H229.736V81.8653H237.373V103.981Z" fill="#B0A352"/>
<path d="M218.207 97.4509L221.419 98.0617C224.653 98.6725 228.631 99.5571 228.631 104.738C228.631 109.793 225.142 111.942 218.058 111.942C211.719 111.942 208.592 110.362 208.592 107.013C208.592 104.759 209.634 103.411 212.591 102.948V102.401C210.74 101.684 209.443 100.442 209.443 98.2934C209.443 96.461 210.677 95.1972 212.91 94.8181V94.3969C210.74 93.2174 209.613 91.2165 209.613 88.4573C209.613 83.8236 212.783 81.3383 218.633 81.3383C219.76 81.3383 220.781 81.4225 221.696 81.6121C220.207 77.5049 222.143 74.83 227.291 74.5352L227.822 80.6643C224.376 80.9591 223.44 81.2751 223.504 82.1386C226.184 83.2128 227.61 85.3612 227.61 88.4573C227.61 93.0699 224.44 95.5763 218.633 95.5763C217.335 95.5763 216.165 95.45 215.144 95.2183C214.761 95.3447 214.569 95.5342 214.569 95.8712C214.569 96.461 214.995 96.8401 218.207 97.4509ZM218.611 85.5507C217.59 85.5507 217.143 86.3721 217.143 88.4573C217.143 90.5425 217.59 91.3639 218.633 91.3639C219.632 91.3639 220.079 90.5425 220.079 88.4573C220.079 86.3721 219.632 85.5507 218.611 85.5507ZM218.526 106.866C221.377 106.866 222.419 106.592 222.419 105.518C222.419 104.57 221.824 104.128 218.611 103.622L215.399 103.117C215.357 103.117 215.335 103.096 215.293 103.096C214.335 103.601 213.953 104.212 213.953 104.991C213.953 106.402 215.059 106.866 218.526 106.866Z" fill="#B0A352"/>
<path d="M197.529 97.4509L200.742 98.0617C203.975 98.6725 207.953 99.5571 207.953 104.738C207.953 109.793 204.464 111.942 197.38 111.942C191.041 111.942 187.914 110.362 187.914 107.013C187.914 104.759 188.956 103.411 191.913 102.948V102.401C190.063 101.684 188.765 100.442 188.765 98.2934C188.765 96.461 189.999 95.1972 192.232 94.8181V94.3969C190.063 93.2174 188.935 91.2165 188.935 88.4573C188.935 83.8236 192.105 81.3383 197.955 81.3383C199.082 81.3383 200.103 81.4225 201.018 81.6121C199.529 77.5049 201.465 74.83 206.613 74.5352L207.145 80.6643C203.699 80.9591 202.763 81.2751 202.826 82.1386C205.507 83.2128 206.932 85.3612 206.932 88.4573C206.932 93.0699 203.762 95.5763 197.955 95.5763C196.657 95.5763 195.487 95.45 194.466 95.2183C194.083 95.3447 193.892 95.5342 193.892 95.8712C193.892 96.461 194.317 96.8401 197.529 97.4509ZM197.934 85.5507C196.912 85.5507 196.466 86.3721 196.466 88.4573C196.466 90.5425 196.912 91.3639 197.955 91.3639C198.955 91.3639 199.401 90.5425 199.401 88.4573C199.401 86.3721 198.955 85.5507 197.934 85.5507ZM197.848 106.866C200.699 106.866 201.741 106.592 201.741 105.518C201.741 104.57 201.146 104.128 197.934 103.622L194.721 103.117C194.679 103.117 194.658 103.096 194.615 103.096C193.658 103.601 193.275 104.212 193.275 104.991C193.275 106.402 194.381 106.866 197.848 106.866Z" fill="#B0A352"/>
<path d="M177.682 104.57C171.492 104.57 168.109 100.737 168.109 94.7763V91.0483C168.109 85.0245 171.492 81.2754 177.682 81.2754C183.894 81.2754 187.276 85.0245 187.276 91.0483V94.7763C187.276 100.737 183.873 104.57 177.682 104.57ZM177.682 99.2836C178.895 99.2836 179.49 98.2726 179.49 96.1032V89.7635C179.49 87.573 178.895 86.541 177.682 86.541C176.491 86.541 175.895 87.573 175.895 89.7635V96.1032C175.895 98.2726 176.491 99.2836 177.682 99.2836Z" fill="#B0A352"/>
<path d="M166.194 80.1592H158.557V74.8516H166.194V80.1592ZM166.194 103.981H158.557V81.8653H166.194V103.981Z" fill="#B0A352"/>
<path d="M145.518 103.98H137.881V74.4932H145.518V80.2221C145.518 82.1809 145.156 83.8869 144.241 86.0774L144.646 86.267C146.156 83.1076 148.305 81.5701 151.304 81.5701C154.75 81.5701 156.41 83.2761 156.41 86.8146V103.98H148.773V88.5838C148.773 87.4043 148.347 86.8356 147.517 86.8356C146.199 86.8356 145.518 88.4153 145.518 91.2376V103.98Z" fill="#B0A352"/>
<path d="M125.265 104.57C117.947 104.57 114.629 100.463 114.629 91.912V86.5622C114.629 78.0319 118.033 73.9248 125.265 73.9248C132.2 73.9248 135.817 77.3369 135.881 85.5512L128.52 86.5832C128.52 81.4862 127.52 79.9275 125.414 79.9275C123.415 79.9275 122.436 81.5072 122.436 84.7508V93.6812C122.436 96.9458 123.415 98.5255 125.436 98.5255C127.329 98.5255 128.456 96.8405 128.52 91.3433L136.008 92.8598C135.859 101.179 131.988 104.57 125.265 104.57Z" fill="#B0A352"/>
</svg>
