<svg width="402" height="250" viewBox="0 0 402 250" fill="none" xmlns="http://www.w3.org/2000/svg">
<g clip-path="url(#clip0_1879_3693)">
<rect width="402" height="250" fill="#3C83ED"/>
<g filter="url(#filter0_d_1879_3693)">
<path d="M90.4679 147.18C92.722 161.262 87.6298 164.838 80.7324 172.049C73.835 179.261 52.9848 192.328 31.4518 197.424C-61.1938 219.35 -97.2596 -25.948 -97.2596 -25.948C-95.8948 -24.6389 -90.4538 -18.4591 -79.6081 -4.21358C-66.0511 13.5933 -54.0451 12.8179 -51.2883 12.8349C-48.5316 12.8519 -40.5765 12.6738 -29.811 23.0936C-21.1986 31.4295 -21.661 43.5938 -22.9688 48.634C7.30057 29.3391 21.623 50.3812 24.4509 55.2889C27.2788 60.1965 29.7188 69.8339 38.6935 74.2855C47.6681 78.7372 60.5209 73.3929 73.1541 92.7748C83.2608 108.28 78.7767 123.167 75.7517 129.464C79.0459 129.037 88.4009 134.266 90.4679 147.18Z" fill="#CCE4FC"/>
</g>
<g filter="url(#filter1_d_1879_3693)">
<path d="M385.713 83.6564C401.977 85.3091 410.005 87.4735 442.368 68.7049C442.838 68.4326 443.456 68.4235 443.946 68.6971L453.69 74.1395C454.363 74.5153 454.638 75.2967 454.325 75.9445L410.4 166.954C410.232 167.304 409.911 167.568 409.516 167.68L144.33 243.488C143.243 243.799 142.156 242.898 142.378 241.853C145.524 226.999 153.263 194.101 162.837 163.953C175.476 124.149 230.246 105.527 259.156 115.164C282.824 123.053 298.737 123.163 309.465 119.655C328.665 113.375 338.08 95.1764 350.603 87.8722C360.394 82.1616 370.329 82.0931 385.713 83.6564Z" fill="#ABD2FA"/>
</g>
<path d="M125.002 33H119.739V48.5998C117.844 45.109 114.633 43.5272 110.475 43.5817C103.527 43.6363 99 48.1089 99 57.5452C99 66.9815 103.527 71.5087 110.475 71.5087C114.633 71.5087 117.844 69.9814 119.739 66.4906V71.1814H125.002V33ZM111.843 67.2542C107.159 67.2542 104.158 63.927 104.158 57.5452C104.158 51.1635 107.159 47.8908 111.843 47.8362C116.054 47.7817 119.739 50.2362 119.739 57.5452C119.739 64.8542 116.054 67.2542 111.843 67.2542Z" fill="white"/>
<path d="M128.155 33V39.0545H133.577V33H128.155ZM133.472 71.1814H128.26V43.909H133.472V71.1814Z" fill="white"/>
<path d="M136.266 63.8179L141.266 62.727C141.74 65.7269 144.372 67.1451 147.319 67.1451C150.372 67.1451 153.32 65.7269 153.32 62.4542C153.32 56.3452 136.739 63.2724 136.739 51.818C136.739 43.9635 144.53 43.5272 147.319 43.5272C149.951 43.5272 156.689 43.909 157.847 49.9635L153.109 51.3816C152.478 48.5453 150.267 47.5635 147.319 47.5635C144.319 47.5635 141.898 48.6544 141.898 51.818C141.898 58.1452 158.478 50.8362 158.478 62.4542C158.478 70.7996 150.214 71.5087 147.319 71.5087C144.688 71.5087 137.108 70.8542 136.266 63.8179Z" fill="white"/>
<path d="M175.472 43.4726H175.366C171.05 43.4726 168.155 45.109 166.471 48.9271V43.909H161.207V71.1814H166.471V60.9815C166.471 50.9998 169.418 48.2726 175.472 48.2726V43.4726Z" fill="white"/>
<path d="M200.279 43.909H195.015V54.1089C195.015 66.6542 189.278 67.0906 187.541 67.0906C184.225 67.0906 183.382 63.2724 183.382 59.2906V43.909H178.119V59.2906C178.119 64.4179 178.224 71.6178 185.593 71.6178C189.699 71.6178 193.067 69.6542 195.015 65.1269V71.1814H200.279V43.909Z" fill="white"/>
<path d="M217.988 43.5817C213.83 43.5272 210.619 45.109 208.724 48.5998V43.909H203.46L203.566 82.0904H208.724V66.4906C210.619 69.9814 213.83 71.5087 217.988 71.5087C224.936 71.5087 229.463 66.9815 229.463 57.5452C229.463 48.1089 224.936 43.6363 217.988 43.5817ZM216.619 67.2542C212.408 67.2542 208.724 64.8542 208.724 57.5452C208.724 50.2362 212.408 47.7817 216.619 47.8362C221.304 47.8908 224.304 51.1635 224.304 57.5452C224.304 63.927 221.304 67.2542 216.619 67.2542Z" fill="white"/>
<path d="M240.669 47.8908H244.985V43.5817H240.669V36.2727L235.458 38.4545V43.5817H231.142V47.8908H235.458V64.1997C235.458 69.5451 236.247 71.1814 242.774 71.1814H244.985V66.2178H242.774C241.511 66.2178 240.669 65.836 240.669 64.1997V47.8908Z" fill="white"/>
<path d="M247.718 33V39.0545H253.14V33H247.718ZM253.034 71.1814H247.823V43.909H253.034V71.1814Z" fill="white"/>
<path d="M280.041 43.909H274.514L267.935 64.1451L261.303 43.909H255.776L265.619 71.1814H270.198L280.041 43.909Z" fill="white"/>
<path d="M289.262 56.6943C290.441 57.3052 291.452 57.6543 292.167 57.7852C297.768 59.0506 302.189 58.1779 302.189 58.1779V52.4616C302.189 52.4616 283.24 55.1234 283.24 46.658C283.24 38.149 301.221 38.2363 301.81 39.8072C302.611 42.0326 299.368 42.949 296.21 43.7344C293.052 44.5635 290.904 45.0435 290.904 45.0435L294.483 50.1489C294.483 50.1489 304 47.9671 304 42.0326C304 36.0982 297.81 33.4364 293.094 33.4364C288.378 33.4364 281.093 36.2727 281.093 45.0871C281.093 50.7162 284.967 54.338 288.336 56.2579H283.83V71.1814H303.411V66.1633H289.262V56.6943Z" fill="white"/>
<g filter="url(#filter2_d_1879_3693)">
<path d="M561.368 213.29C562.505 232.741 539.053 496.518 539.35 441.104C539.351 440.931 539.224 440.724 539.053 440.699L-104.074 348.193C-104.166 348.18 -104.23 348.157 -104.283 348.081C-113.933 334.065 -133.715 127.87 -115.956 108.322C-101.817 92.758 -72.9168 99.6855 -59.9536 105.196C-59.7929 105.264 -59.6184 105.208 -59.5273 105.059C-54.7346 97.227 -36.3877 82.2278 0.226945 82.9213C31.2894 83.5096 48.8744 102.256 56.2752 116.045C58.0104 119.278 62.6211 120.493 65.7144 118.525C74.4285 112.981 89.6596 106.337 109.582 105.497C133.164 104.504 144.645 114.187 153.185 121.05C154.855 122.392 157.193 122.441 159.174 121.629C171.015 116.778 200.835 114.141 223.809 124.587C242.185 132.943 249.448 143.611 251.288 152.884C251.368 153.287 253.587 154.186 253.956 154.004C258.42 151.798 269.047 149.307 281.756 151.223C294.571 153.154 304.627 162.616 308.499 167.633C308.677 167.864 309.049 167.784 309.126 167.502C317.002 138.948 343.8 128.834 376.532 133.534C401.487 137.117 410.607 142.773 412.409 149.784C412.497 150.125 413.164 150.286 413.432 150.059C417.907 146.274 438.516 142.019 453.535 144.283C483.694 148.828 493.194 169.734 493.105 179.795C493.103 180.028 493.32 180.196 493.546 180.138C520.361 173.222 559.953 189.061 561.368 213.29Z" fill="#CCE4FC"/>
</g>
</g>
<defs>
<filter id="filter0_d_1879_3693" x="-136.698" y="-81.1622" width="267.145" height="303.637" filterUnits="userSpaceOnUse" color-interpolation-filters="sRGB">
<feFlood flood-opacity="0" result="BackgroundImageFix"/>
<feColorMatrix in="SourceAlpha" type="matrix" values="0 0 0 0 0 0 0 0 0 0 0 0 0 0 0 0 0 0 127 0" result="hardAlpha"/>
<feOffset dy="-15.7754"/>
<feGaussianBlur stdDeviation="19.7193"/>
<feComposite in2="hardAlpha" operator="out"/>
<feColorMatrix type="matrix" values="0 0 0 0 0.165278 0 0 0 0 0.381266 0 0 0 0 0.708333 0 0 0 0.8 0"/>
<feBlend mode="normal" in2="BackgroundImageFix" result="effect1_dropShadow_1879_3693"/>
<feBlend mode="normal" in="SourceGraphic" in2="effect1_dropShadow_1879_3693" result="shape"/>
</filter>
<filter id="filter1_d_1879_3693" x="110.849" y="24.3957" width="375.104" height="238.055" filterUnits="userSpaceOnUse" color-interpolation-filters="sRGB">
<feFlood flood-opacity="0" result="BackgroundImageFix"/>
<feColorMatrix in="SourceAlpha" type="matrix" values="0 0 0 0 0 0 0 0 0 0 0 0 0 0 0 0 0 0 127 0" result="hardAlpha"/>
<feOffset dy="-12.6001"/>
<feGaussianBlur stdDeviation="15.7501"/>
<feComposite in2="hardAlpha" operator="out"/>
<feColorMatrix type="matrix" values="0 0 0 0 0.165278 0 0 0 0 0.381266 0 0 0 0 0.708333 0 0 0 0.8 0"/>
<feBlend mode="normal" in2="BackgroundImageFix" result="effect1_dropShadow_1879_3693"/>
<feBlend mode="normal" in="SourceGraphic" in2="effect1_dropShadow_1879_3693" result="shape"/>
</filter>
<filter id="filter2_d_1879_3693" x="-166.352" y="22.3425" width="771.014" height="452.348" filterUnits="userSpaceOnUse" color-interpolation-filters="sRGB">
<feFlood flood-opacity="0" result="BackgroundImageFix"/>
<feColorMatrix in="SourceAlpha" type="matrix" values="0 0 0 0 0 0 0 0 0 0 0 0 0 0 0 0 0 0 127 0" result="hardAlpha"/>
<feOffset dy="-17.3017"/>
<feGaussianBlur stdDeviation="21.6271"/>
<feComposite in2="hardAlpha" operator="out"/>
<feColorMatrix type="matrix" values="0 0 0 0 0.165278 0 0 0 0 0.381266 0 0 0 0 0.708333 0 0 0 0.8 0"/>
<feBlend mode="normal" in2="BackgroundImageFix" result="effect1_dropShadow_1879_3693"/>
<feBlend mode="normal" in="SourceGraphic" in2="effect1_dropShadow_1879_3693" result="shape"/>
</filter>
<clipPath id="clip0_1879_3693">
<rect width="402" height="250" fill="white"/>
</clipPath>
</defs>
</svg>
