<svg width="402" height="250" viewBox="0 0 402 250" fill="none" xmlns="http://www.w3.org/2000/svg">
<rect width="402" height="250" fill="url(#paint0_radial_1879_3694)"/>
<path d="M102.782 45.7274C100.916 47.064 99.4843 48.6748 98.2745 51.2899C96.0761 55.96 95.4158 64.5818 95.4158 70.3103C95.4158 77.1513 96.1867 86.5495 99.4271 91.6639C100.305 93.1086 101.568 94.167 102.725 94.8893C102.999 95.0014 103.328 95.2795 103.328 95.7778C103.328 96.5581 102.393 96.5001 102.064 96.5001C95.7478 96.5001 88 82.652 88 70.3065C88 58.6833 95.6944 44.1707 102.122 44.1707C102.45 44.1707 103.385 44.1167 103.385 44.8931C103.385 45.3914 102.999 45.5613 102.782 45.7274Z" fill="white"/>
<path d="M123.332 89.3273C121.519 89.3273 119.649 88.8252 118.111 87.8247V94.7198C118.111 98.2234 120.527 99.3899 121.958 99.3899V100H104.539V99.3899C105.913 99.3899 108.714 97.9993 108.714 94.6078V72.6439C108.714 69.5846 106.955 68.8081 106.024 68.8081V68.2519L116.905 65.0265C117.508 64.8604 118.115 64.8024 118.115 65.8067V68.4759C119.985 66.3089 122.401 64.8604 125.313 64.8604C129.599 64.8604 134.324 67.9738 134.324 75.371C134.32 83.7108 128.992 89.3273 123.332 89.3273ZM120.806 68.6961C119.76 68.6961 118.829 69.4185 118.115 70.8631V85.5997C118.939 87.1024 120.092 87.7668 121.191 87.7668C123.39 87.7668 124.432 85.2637 124.432 77.8123C124.432 70.4189 122.451 68.6961 120.806 68.6961Z" fill="white"/>
<path d="M155.75 74.9764C153.223 74.9764 152.177 73.3656 151.574 72.0831C151.135 71.1368 150.971 70.3603 150.586 70.3603C150.2 70.3603 149.597 70.8046 148.884 72.3072V84.7647C148.884 87.3798 150.422 88.1563 151.082 88.2142V88.7705H136.521V88.2142C137.125 88.1601 139.269 87.0476 139.269 84.6566V72.4771C139.269 69.4757 137.399 68.9736 136.686 68.9736V68.4714L147.674 64.8558C148.387 64.6897 148.884 64.6318 148.884 65.6323V69.58C150.586 67.413 152.948 65.076 155.754 65.076C158.559 65.076 160.643 67.2469 160.643 69.9161C160.639 72.5312 158.662 74.9764 155.75 74.9764Z" fill="white"/>
<path d="M174.154 89.3271C167.23 89.3271 162.23 84.823 162.23 77.5378C162.23 70.0285 168.055 64.748 175.253 64.748C181.68 64.748 186.077 69.4182 186.077 74.0342C186.077 74.5905 186.024 74.9806 185.253 74.9806H171.184C171.734 80.431 173.875 83.8226 178.329 83.8226C182.394 83.8226 185.088 80.431 185.691 79.4306C186.02 79.3185 186.295 79.3765 186.295 79.7087C185.859 81.7058 182.287 89.3271 174.154 89.3271ZM174.539 65.6365C173.112 65.6365 171.077 67.4172 171.077 72.5895C171.077 73.0338 171.131 73.4239 171.131 73.9261H176.295C177.173 73.9261 177.283 73.2578 177.283 71.535C177.287 68.5259 176.463 65.6365 174.539 65.6365Z" fill="white"/>
<path d="M206.574 74.6439L201.795 88.7702H196.631L188.83 69.3055C187.841 66.9685 186.796 65.9681 186.246 65.9681V65.2998H200.589V65.9681C200.04 65.9681 198.501 67.1346 199.215 68.9154L203.226 79.9282L205.203 74.3658C205.806 72.7512 206.028 71.3065 206.028 70.082C206.028 67.5248 204.982 65.9681 203.501 65.9681V65.2998H213.115V65.9681C211.738 65.9681 208.497 69.0274 206.574 74.6439Z" fill="white"/>
<path d="M211.957 88.7713V88.2151C212.617 88.161 214.758 87.0485 214.758 84.6574V72.478C214.758 69.4766 212.835 68.9745 212.121 68.9745V68.4723L223.167 64.8567C223.827 64.6906 224.319 64.6327 224.319 65.6331V84.7656C224.319 87.3807 225.857 88.1571 226.518 88.2151V88.7713H211.957V88.7713ZM219.098 60.963C216.186 60.963 213.713 58.5719 213.713 55.5705C213.713 52.6232 216.186 50.1201 219.098 50.1201C222.064 50.1201 224.426 52.6232 224.426 55.5705C224.43 58.5719 222.067 60.963 219.098 60.963Z" fill="white"/>
<path d="M240.857 89.3271C233.933 89.3271 228.934 84.823 228.934 77.5378C228.934 70.0285 234.758 64.748 241.956 64.748C248.383 64.748 252.78 69.4182 252.78 74.0342C252.78 74.5905 252.727 74.9806 251.956 74.9806H237.891C238.441 80.431 240.582 83.8226 245.036 83.8226C249.101 83.8226 251.795 80.431 252.398 79.4306C252.727 79.3185 253.001 79.3765 253.001 79.7087C252.559 81.7058 248.99 89.3271 240.857 89.3271ZM241.242 65.6365C239.815 65.6365 237.781 67.4172 237.781 72.5895C237.781 73.0338 237.834 73.4239 237.834 73.9261H242.998C243.876 73.9261 243.987 73.2578 243.987 71.535C243.99 68.5259 243.166 65.6365 241.242 65.6365Z" fill="white"/>
<path d="M289.322 74.6439L284.543 88.7702H279.433L273.605 74.3117L268.716 88.7702H263.552L255.693 69.3055C254.758 66.9685 253.716 65.9681 253.109 65.9681V65.2998H267.452V65.9681C266.96 65.9681 265.418 67.0806 266.078 68.9154L270.143 79.9282L272.78 72.2529L271.517 69.3055C270.639 66.9685 269.155 65.9681 268.33 65.9681V65.2998H283.826V65.9681C283.223 65.9681 281.792 67.0806 282.398 68.9154L286.024 79.9282L287.891 74.3658C288.494 72.7512 288.715 71.3065 288.715 70.082C288.715 67.5248 287.669 65.9681 286.188 65.9681V65.2998H295.803V65.9681C294.486 65.9681 291.188 69.0274 289.322 74.6439Z" fill="white"/>
<path d="M298.493 96.3883C298.218 96.3883 297.229 96.3883 297.229 95.608C297.229 95.1059 297.557 94.8857 297.889 94.7196C299.042 93.9393 300.305 92.9968 301.241 91.5482C304.538 86.3759 305.363 77.0318 305.363 70.0826C305.363 64.4661 304.759 55.7902 302.45 51.1201C301.187 48.5629 299.76 46.8942 297.836 45.5577C297.561 45.4457 297.176 45.2255 297.176 44.7233C297.176 43.943 298.164 44.001 298.439 44.001C304.538 44.001 313 58.5715 313 70.1406C313 82.4861 305.305 96.3883 298.493 96.3883Z" fill="white"/>
<defs>
<radialGradient id="paint0_radial_1879_3694" cx="0" cy="0" r="1" gradientUnits="userSpaceOnUse" gradientTransform="translate(-96.1606 349.613) rotate(-34.0451) scale(705.042 718.976)">
<stop stop-color="#0897FF"/>
<stop offset="1" stop-color="#3FE082"/>
</radialGradient>
</defs>
</svg>
