<svg width="402" height="250" viewBox="0 0 402 250" fill="none" xmlns="http://www.w3.org/2000/svg">
<rect width="402" height="250" fill="#D92121"/>
<rect width="233.244" height="78.687" transform="translate(84.7559 36.6562)" fill="#D92121"/>
<path d="M94.2814 64.3857L94.166 44.424H110.32C115.474 44.424 119.359 45.4625 121.974 47.5394C124.628 49.6163 125.955 52.7125 125.955 56.8279C125.955 59.5587 125.282 61.828 123.935 63.6357C122.628 65.4049 120.685 66.6357 118.109 67.328L115.628 65.828C117.589 66.0588 119.185 66.578 120.416 67.3857C121.647 68.1549 122.589 69.2511 123.243 70.6742C123.897 72.0973 124.339 73.9242 124.57 76.155L124.743 78.2896C124.897 79.7896 125.07 81.0396 125.262 82.0396C125.493 83.0012 125.762 83.7897 126.07 84.4051H117.128C116.858 83.7897 116.628 82.9243 116.435 81.8089C116.243 80.6935 116.032 79.0781 115.801 76.9627C115.801 76.8088 115.782 76.655 115.743 76.5011C115.551 74.5396 115.243 73.0973 114.82 72.1742C114.397 71.2126 113.762 70.5588 112.916 70.2126C112.07 69.8665 110.82 69.6934 109.166 69.6934H102.878L102.993 84.4051H94.166L94.2814 64.3857ZM109.858 63.2318C111.551 63.2318 112.955 63.001 114.07 62.5395C115.224 62.078 116.089 61.4241 116.666 60.578C117.243 59.6933 117.532 58.6164 117.532 57.3472C117.532 55.4241 116.916 53.9817 115.685 53.0202C114.493 52.0202 112.628 51.5202 110.089 51.5202H102.878V63.2318H109.858Z" fill="white"/>
<path d="M127.69 64.3857L127.632 44.424H155.556V51.6356L136.402 51.6356L136.344 60.8087L153.652 60.8087V67.2703L136.344 67.2703L136.402 77.1358H156.075V84.4051H127.632L127.69 64.3857Z" fill="white"/>
<path d="M157.269 64.3857L157.211 44.424L184.269 44.424V51.6356H165.98L165.923 61.7318H182.423V68.5395H165.923L165.98 84.4051L157.211 84.4051L157.269 64.3857Z" fill="white"/>
<path d="M185.608 64.3857L185.55 44.424L213.474 44.424V51.6356L194.32 51.6356L194.262 60.8087H211.57V67.2703H194.262L194.32 77.1358L213.993 77.1358V84.4051L185.55 84.4051L185.608 64.3857Z" fill="white"/>
<path d="M215.245 64.3857L215.129 44.424H231.283C236.437 44.424 240.322 45.4625 242.937 47.5394C245.591 49.6163 246.918 52.7125 246.918 56.8279C246.918 59.5587 246.245 61.828 244.899 63.6357C243.591 65.4049 241.649 66.6357 239.072 67.328L236.591 65.828C238.552 66.0588 240.149 66.578 241.379 67.3857C242.61 68.1549 243.553 69.2511 244.206 70.6742C244.86 72.0973 245.303 73.9242 245.533 76.155L245.706 78.2896C245.86 79.7896 246.033 81.0396 246.226 82.0396C246.456 83.0012 246.726 83.7897 247.033 84.4051H238.091C237.822 83.7897 237.591 82.9243 237.399 81.8089C237.206 80.6935 236.995 79.0781 236.764 76.9627C236.764 76.8088 236.745 76.655 236.706 76.5011C236.514 74.5396 236.206 73.0973 235.783 72.1742C235.36 71.2126 234.726 70.5588 233.879 70.2126C233.033 69.8665 231.783 69.6934 230.129 69.6934H223.841L223.956 84.4051H215.129L215.245 64.3857ZM230.822 63.2318C232.514 63.2318 233.918 63.001 235.033 62.5395C236.187 62.078 237.052 61.4241 237.629 60.578C238.206 59.6933 238.495 58.6164 238.495 57.3472C238.495 55.4241 237.879 53.9817 236.649 53.0202C235.456 52.0202 233.591 51.5202 231.052 51.5202H223.841V63.2318H230.822Z" fill="white"/>
<path d="M255.479 66.2895L255.421 51.6356H245.094V44.424L274.575 44.424V51.6356H264.248L264.19 66.2895L264.248 84.4051H255.421L255.479 66.2895Z" fill="white"/>
<path d="M289.601 85.2704C285.678 85.2704 282.293 84.4435 279.447 82.7897C276.601 81.0973 274.409 78.6935 272.87 75.5781C271.37 72.4627 270.62 68.7319 270.62 64.3857C270.62 60.0395 271.37 56.3087 272.87 53.1933C274.409 50.0779 276.601 47.6932 279.447 46.0394C282.332 44.3855 285.716 43.5586 289.601 43.5586C293.563 43.5586 296.967 44.3855 299.813 46.0394C302.659 47.6548 304.851 50.0202 306.39 53.1356C307.928 56.251 308.697 60.001 308.697 64.3857C308.697 68.7319 307.928 72.4819 306.39 75.6358C304.851 78.7512 302.64 81.1358 299.755 82.7897C296.87 84.4435 293.486 85.2704 289.601 85.2704ZM289.601 78.0012C291.678 78.0012 293.486 77.4627 295.024 76.3858C296.563 75.3088 297.736 73.7704 298.543 71.7703C299.351 69.7319 299.755 67.2703 299.755 64.3857C299.755 61.4626 299.351 59.001 298.543 57.001C297.774 54.9625 296.62 53.4241 295.082 52.3856C293.582 51.3471 291.755 50.8279 289.601 50.8279C287.524 50.8279 285.716 51.3663 284.178 52.4433C282.678 53.4817 281.524 55.0202 280.716 57.0587C279.909 59.0587 279.505 61.501 279.505 64.3857C279.505 67.2703 279.909 69.7319 280.716 71.7703C281.524 73.7704 282.678 75.3088 284.178 76.3858C285.678 77.4627 287.486 78.0012 289.601 78.0012Z" fill="white"/>
<path d="M94.0424 102.953L94.0244 99.8304H95.7792C96.841 99.8304 97.6359 100.085 98.1638 100.595C98.6977 101.105 98.9647 101.858 98.9647 102.854C98.9647 103.94 98.7007 104.747 98.1728 105.275C97.6449 105.802 96.847 106.066 95.7792 106.066H94.0244L94.0424 102.953ZM95.7792 105.329C96.565 105.329 97.1499 105.128 97.5339 104.726C97.9238 104.324 98.1188 103.7 98.1188 102.854C98.1188 102.098 97.9238 101.528 97.5339 101.144C97.1439 100.76 96.559 100.568 95.7792 100.568H94.8613L94.8343 102.953L94.8613 105.329H95.7792ZM101.083 106.201C100.591 106.201 100.213 106.078 99.9492 105.832C99.6853 105.58 99.5533 105.254 99.5533 104.852C99.5533 104.498 99.6433 104.21 99.8233 103.988C100.003 103.766 100.288 103.601 100.678 103.493C101.074 103.385 101.596 103.331 102.244 103.331H102.658V103.205C102.658 102.767 102.571 102.431 102.397 102.197C102.223 101.963 101.935 101.846 101.533 101.846C101.239 101.846 100.999 101.912 100.813 102.044C100.633 102.17 100.504 102.329 100.426 102.521C100.348 102.707 100.312 102.899 100.318 103.097L99.6343 102.926C99.6343 102.602 99.7123 102.311 99.8682 102.053C100.024 101.795 100.246 101.591 100.534 101.441C100.822 101.291 101.155 101.216 101.533 101.216C102.157 101.216 102.622 101.369 102.928 101.675C103.24 101.981 103.396 102.434 103.396 103.034V105.131C103.396 105.293 103.423 105.41 103.477 105.481C103.537 105.547 103.642 105.58 103.792 105.58C103.84 105.58 103.885 105.577 103.927 105.571C103.975 105.559 104.02 105.547 104.062 105.535L104.071 105.526L104.188 106.048C104.092 106.084 103.993 106.111 103.891 106.129C103.795 106.147 103.696 106.156 103.594 106.156C103.348 106.156 103.156 106.084 103.018 105.94C102.88 105.796 102.811 105.589 102.811 105.32C102.811 105.278 102.811 105.242 102.811 105.212C102.811 105.182 102.814 105.152 102.82 105.122C102.82 105.104 102.82 105.092 102.82 105.086C102.826 105.08 102.829 105.068 102.829 105.05H102.811C102.649 105.41 102.424 105.691 102.136 105.895C101.848 106.099 101.497 106.201 101.083 106.201ZM101.191 105.553C101.437 105.553 101.671 105.487 101.893 105.356C102.121 105.224 102.304 105.041 102.442 104.807C102.586 104.567 102.658 104.294 102.658 103.988V103.898H102.442C101.938 103.898 101.533 103.925 101.227 103.979C100.927 104.033 100.702 104.129 100.552 104.267C100.408 104.405 100.336 104.597 100.336 104.843C100.336 105.059 100.411 105.233 100.561 105.365C100.717 105.49 100.927 105.553 101.191 105.553ZM104.745 102.899L104.727 99.8214H105.519L105.501 102.899L105.519 106.066H104.727L104.745 102.899ZM106.704 102.899L106.686 99.8214H107.478L107.46 102.899L107.478 106.066H106.686L106.704 102.899ZM110.545 106.201C110.095 106.201 109.702 106.099 109.366 105.895C109.036 105.691 108.781 105.404 108.601 105.032C108.421 104.654 108.331 104.213 108.331 103.709C108.331 103.205 108.415 102.767 108.583 102.395C108.757 102.017 109.003 101.726 109.321 101.522C109.645 101.318 110.029 101.216 110.473 101.216C110.965 101.216 111.361 101.342 111.661 101.594C111.961 101.84 112.174 102.167 112.3 102.575C112.425 102.977 112.488 103.424 112.488 103.916H108.961L108.979 103.286H112.102L111.679 103.592C111.715 103.268 111.691 102.977 111.607 102.719C111.523 102.455 111.382 102.248 111.184 102.098C110.992 101.948 110.758 101.873 110.482 101.873C110.062 101.873 109.729 102.029 109.483 102.341C109.243 102.647 109.123 103.103 109.123 103.709C109.123 104.279 109.252 104.729 109.51 105.059C109.768 105.383 110.113 105.544 110.545 105.544C110.875 105.544 111.145 105.443 111.355 105.239C111.571 105.035 111.712 104.747 111.778 104.375L112.461 104.555C112.414 104.855 112.309 105.131 112.147 105.383C111.991 105.628 111.775 105.826 111.499 105.976C111.229 106.126 110.911 106.201 110.545 106.201ZM115.571 103.781L115.553 101.333H116.336L116.318 102.053H116.336C116.462 101.813 116.651 101.615 116.903 101.459C117.161 101.297 117.452 101.216 117.776 101.216C118.082 101.216 118.343 101.303 118.559 101.477C118.781 101.645 118.94 101.9 119.036 102.242H119.054C119.204 101.93 119.414 101.681 119.684 101.495C119.954 101.309 120.259 101.216 120.601 101.216C121.027 101.216 121.363 101.375 121.609 101.693C121.861 102.005 121.987 102.476 121.987 103.106V103.781L122.005 106.066H121.213L121.231 103.781V103.115C121.231 102.701 121.153 102.392 120.997 102.188C120.841 101.984 120.631 101.882 120.367 101.882C120.157 101.882 119.96 101.948 119.774 102.08C119.588 102.206 119.438 102.389 119.324 102.629C119.21 102.863 119.153 103.13 119.153 103.43V103.781L119.171 106.066H118.379L118.397 103.781V103.115C118.397 102.707 118.319 102.401 118.163 102.197C118.007 101.987 117.8 101.882 117.542 101.882C117.332 101.882 117.131 101.948 116.939 102.08C116.753 102.206 116.603 102.389 116.489 102.629C116.375 102.863 116.318 103.13 116.318 103.43V103.781L116.336 106.066H115.553L115.571 103.781ZM124.414 106.201C123.922 106.201 123.544 106.078 123.281 105.832C123.017 105.58 122.885 105.254 122.885 104.852C122.885 104.498 122.975 104.21 123.155 103.988C123.335 103.766 123.619 103.601 124.009 103.493C124.405 103.385 124.927 103.331 125.575 103.331H125.989V103.205C125.989 102.767 125.902 102.431 125.728 102.197C125.554 101.963 125.266 101.846 124.864 101.846C124.57 101.846 124.33 101.912 124.144 102.044C123.964 102.17 123.835 102.329 123.757 102.521C123.679 102.707 123.643 102.899 123.649 103.097L122.966 102.926C122.966 102.602 123.044 102.311 123.2 102.053C123.356 101.795 123.577 101.591 123.865 101.441C124.153 101.291 124.486 101.216 124.864 101.216C125.488 101.216 125.953 101.369 126.259 101.675C126.571 101.981 126.727 102.434 126.727 103.034V105.131C126.727 105.293 126.754 105.41 126.808 105.481C126.868 105.547 126.973 105.58 127.123 105.58C127.171 105.58 127.216 105.577 127.258 105.571C127.306 105.559 127.351 105.547 127.393 105.535L127.402 105.526L127.519 106.048C127.423 106.084 127.324 106.111 127.222 106.129C127.126 106.147 127.027 106.156 126.925 106.156C126.679 106.156 126.487 106.084 126.349 105.94C126.211 105.796 126.142 105.589 126.142 105.32C126.142 105.278 126.142 105.242 126.142 105.212C126.142 105.182 126.145 105.152 126.151 105.122C126.151 105.104 126.151 105.092 126.151 105.086C126.157 105.08 126.16 105.068 126.16 105.05H126.142C125.98 105.41 125.755 105.691 125.467 105.895C125.179 106.099 124.828 106.201 124.414 106.201ZM124.522 105.553C124.768 105.553 125.002 105.487 125.224 105.356C125.452 105.224 125.635 105.041 125.773 104.807C125.917 104.567 125.989 104.294 125.989 103.988V103.898H125.773C125.269 103.898 124.864 103.925 124.558 103.979C124.258 104.033 124.033 104.129 123.883 104.267C123.739 104.405 123.667 104.597 123.667 104.843C123.667 105.059 123.742 105.233 123.892 105.365C124.048 105.49 124.258 105.553 124.522 105.553ZM128.076 103.781L128.058 101.333H128.85L128.832 102.053H128.85C128.976 101.813 129.171 101.615 129.435 101.459C129.705 101.297 130.02 101.216 130.38 101.216C130.914 101.216 131.316 101.381 131.586 101.711C131.861 102.035 131.999 102.542 131.999 103.232V103.781L132.017 106.066H131.226L131.244 103.781V103.241C131.244 102.785 131.145 102.446 130.947 102.224C130.755 101.996 130.488 101.882 130.146 101.882C129.906 101.882 129.684 101.948 129.48 102.08C129.282 102.206 129.123 102.386 129.003 102.62C128.889 102.854 128.832 103.124 128.832 103.43V103.781L128.85 106.066H128.058L128.076 103.781ZM133.191 103.7L133.173 101.333C133.352 101.333 133.484 101.333 133.568 101.333C133.658 101.333 133.79 101.333 133.964 101.333L133.946 103.7L133.964 106.066H133.173L133.191 103.7ZM133.568 100.775C133.406 100.775 133.284 100.736 133.2 100.658C133.122 100.574 133.083 100.448 133.083 100.28C133.083 100.118 133.122 99.9984 133.2 99.9204C133.284 99.8364 133.406 99.7944 133.568 99.7944C133.73 99.7944 133.85 99.8364 133.928 99.9204C134.012 99.9984 134.054 100.118 134.054 100.28C134.054 100.448 134.012 100.574 133.928 100.658C133.85 100.736 133.73 100.775 133.568 100.775ZM139.893 105.949C139.636 106.117 139.321 106.201 138.949 106.201C138.541 106.201 138.193 106.105 137.905 105.913C137.617 105.721 137.398 105.44 137.248 105.068C137.098 104.696 137.023 104.243 137.023 103.709C137.023 103.175 137.098 102.722 137.248 102.35C137.398 101.978 137.617 101.696 137.905 101.504C138.193 101.312 138.541 101.216 138.949 101.216C139.321 101.216 139.633 101.3 139.884 101.468C140.142 101.636 140.331 101.831 140.451 102.053H140.469L140.442 99.8214H141.261L141.243 103.349L141.261 106.066H140.442L140.46 105.365H140.442C140.334 105.58 140.151 105.775 139.893 105.949ZM138.157 105.077C138.385 105.395 138.712 105.553 139.138 105.553C139.36 105.553 139.57 105.499 139.768 105.392C139.965 105.284 140.13 105.092 140.262 104.816C140.4 104.54 140.469 104.165 140.469 103.691C140.469 103.283 140.409 102.944 140.289 102.674C140.169 102.398 140.007 102.194 139.804 102.062C139.606 101.93 139.384 101.864 139.138 101.864C138.712 101.864 138.385 102.023 138.157 102.341C137.929 102.659 137.815 103.115 137.815 103.709C137.815 104.303 137.929 104.759 138.157 105.077ZM142.453 103.7L142.435 101.333C142.615 101.333 142.747 101.333 142.831 101.333C142.921 101.333 143.053 101.333 143.227 101.333L143.209 103.7L143.227 106.066H142.435L142.453 103.7ZM142.831 100.775C142.669 100.775 142.546 100.736 142.462 100.658C142.384 100.574 142.345 100.448 142.345 100.28C142.345 100.118 142.384 99.9984 142.462 99.9204C142.546 99.8364 142.669 99.7944 142.831 99.7944C142.993 99.7944 143.113 99.8364 143.191 99.9204C143.275 99.9984 143.317 100.118 143.317 100.28C143.317 100.448 143.275 100.574 143.191 100.658C143.113 100.736 142.993 100.775 142.831 100.775ZM148.499 106.201C148.049 106.201 147.656 106.099 147.32 105.895C146.99 105.691 146.735 105.404 146.555 105.032C146.375 104.654 146.285 104.213 146.285 103.709C146.285 103.205 146.375 102.767 146.555 102.395C146.735 102.017 146.99 101.726 147.32 101.522C147.65 101.318 148.04 101.216 148.49 101.216C149.036 101.216 149.474 101.375 149.804 101.693C150.14 102.005 150.344 102.392 150.416 102.854L149.732 103.034C149.666 102.668 149.525 102.383 149.309 102.179C149.099 101.975 148.829 101.873 148.499 101.873C148.211 101.873 147.959 101.948 147.743 102.098C147.527 102.242 147.362 102.452 147.248 102.728C147.134 103.004 147.077 103.331 147.077 103.709C147.077 104.279 147.203 104.729 147.455 105.059C147.713 105.383 148.061 105.544 148.499 105.544C148.829 105.544 149.099 105.446 149.309 105.248C149.525 105.044 149.666 104.756 149.732 104.384L150.416 104.564C150.368 104.864 150.263 105.137 150.101 105.383C149.945 105.628 149.729 105.826 149.453 105.976C149.183 106.126 148.865 106.201 148.499 106.201ZM151.153 103.781L151.135 99.8214H151.926L151.908 102.053H151.926C152.052 101.813 152.247 101.615 152.511 101.459C152.781 101.297 153.096 101.216 153.456 101.216C153.99 101.216 154.392 101.381 154.662 101.711C154.938 102.035 155.076 102.542 155.076 103.232V103.781L155.094 106.066H154.302L154.32 103.781V103.241C154.32 102.785 154.221 102.446 154.023 102.224C153.831 101.996 153.564 101.882 153.222 101.882C152.982 101.882 152.76 101.948 152.556 102.08C152.358 102.206 152.199 102.386 152.079 102.62C151.965 102.854 151.908 103.124 151.908 103.43V103.781L151.926 106.066H151.135L151.153 103.781ZM156.267 103.7L156.249 101.333C156.429 101.333 156.561 101.333 156.645 101.333C156.735 101.333 156.867 101.333 157.041 101.333L157.023 103.7L157.041 106.066H156.249L156.267 103.7ZM156.645 100.775C156.483 100.775 156.36 100.736 156.276 100.658C156.198 100.574 156.159 100.448 156.159 100.28C156.159 100.118 156.198 99.9984 156.276 99.9204C156.36 99.8364 156.483 99.7944 156.645 99.7944C156.807 99.7944 156.927 99.8364 157.005 99.9204C157.089 99.9984 157.131 100.118 157.131 100.28C157.131 100.448 157.089 100.574 157.005 100.658C156.927 100.736 156.807 100.775 156.645 100.775ZM162.313 106.201C161.863 106.201 161.47 106.099 161.134 105.895C160.804 105.691 160.549 105.404 160.369 105.032C160.189 104.654 160.099 104.213 160.099 103.709C160.099 103.205 160.189 102.767 160.369 102.395C160.549 102.017 160.804 101.726 161.134 101.522C161.464 101.318 161.854 101.216 162.304 101.216C162.85 101.216 163.288 101.375 163.618 101.693C163.954 102.005 164.158 102.392 164.23 102.854L163.546 103.034C163.48 102.668 163.339 102.383 163.123 102.179C162.913 101.975 162.643 101.873 162.313 101.873C162.025 101.873 161.773 101.948 161.557 102.098C161.341 102.242 161.176 102.452 161.062 102.728C160.948 103.004 160.891 103.331 160.891 103.709C160.891 104.279 161.017 104.729 161.269 105.059C161.527 105.383 161.875 105.544 162.313 105.544C162.643 105.544 162.913 105.446 163.123 105.248C163.339 105.044 163.48 104.756 163.546 104.384L164.23 104.564C164.182 104.864 164.077 105.137 163.915 105.383C163.759 105.628 163.543 105.826 163.267 105.976C162.997 106.126 162.679 106.201 162.313 106.201ZM168.827 103.619L168.845 106.066H168.053L168.071 105.347H168.053C167.927 105.586 167.732 105.787 167.468 105.949C167.21 106.105 166.91 106.183 166.569 106.183C166.035 106.183 165.63 106.021 165.354 105.697C165.084 105.368 164.949 104.858 164.949 104.168V103.619L164.931 101.333H165.723L165.705 103.619V104.159C165.705 104.615 165.801 104.957 165.993 105.185C166.191 105.407 166.461 105.517 166.803 105.517C167.03 105.517 167.24 105.455 167.432 105.329C167.624 105.197 167.777 105.014 167.891 104.78C168.011 104.54 168.071 104.27 168.071 103.97V103.619L168.053 101.333H168.845L168.827 103.619ZM170.037 103.79L170.019 101.333H170.811L170.784 102.08H170.802C170.892 101.84 171.057 101.636 171.297 101.468C171.543 101.3 171.84 101.216 172.188 101.216C172.32 101.216 172.437 101.228 172.539 101.252L172.53 101.999C172.386 101.957 172.257 101.936 172.143 101.936C171.861 101.936 171.618 101.999 171.414 102.125C171.216 102.251 171.063 102.443 170.955 102.701C170.847 102.953 170.793 103.268 170.793 103.646V103.781L170.811 106.066H170.019L170.037 103.79ZM174.381 106.201C173.889 106.201 173.511 106.078 173.247 105.832C172.983 105.58 172.851 105.254 172.851 104.852C172.851 104.498 172.941 104.21 173.121 103.988C173.301 103.766 173.586 103.601 173.976 103.493C174.372 103.385 174.894 103.331 175.542 103.331H175.956V103.205C175.956 102.767 175.869 102.431 175.695 102.197C175.521 101.963 175.233 101.846 174.831 101.846C174.537 101.846 174.297 101.912 174.111 102.044C173.931 102.17 173.802 102.329 173.724 102.521C173.646 102.707 173.61 102.899 173.616 103.097L172.932 102.926C172.932 102.602 173.01 102.311 173.166 102.053C173.322 101.795 173.544 101.591 173.832 101.441C174.12 101.291 174.453 101.216 174.831 101.216C175.455 101.216 175.92 101.369 176.226 101.675C176.538 101.981 176.694 102.434 176.694 103.034V105.131C176.694 105.293 176.721 105.41 176.775 105.481C176.835 105.547 176.94 105.58 177.09 105.58C177.138 105.58 177.183 105.577 177.225 105.571C177.273 105.559 177.318 105.547 177.36 105.535L177.369 105.526L177.486 106.048C177.39 106.084 177.291 106.111 177.189 106.129C177.093 106.147 176.994 106.156 176.892 106.156C176.646 106.156 176.454 106.084 176.316 105.94C176.178 105.796 176.109 105.589 176.109 105.32C176.109 105.278 176.109 105.242 176.109 105.212C176.109 105.182 176.112 105.152 176.118 105.122C176.118 105.104 176.118 105.092 176.118 105.086C176.124 105.08 176.127 105.068 176.127 105.05H176.109C175.947 105.41 175.722 105.691 175.434 105.895C175.146 106.099 174.795 106.201 174.381 106.201ZM174.489 105.553C174.735 105.553 174.969 105.487 175.191 105.356C175.419 105.224 175.602 105.041 175.74 104.807C175.884 104.567 175.956 104.294 175.956 103.988V103.898H175.74C175.236 103.898 174.831 103.925 174.525 103.979C174.225 104.033 174 104.129 173.85 104.267C173.706 104.405 173.634 104.597 173.634 104.843C173.634 105.059 173.709 105.233 173.859 105.365C174.015 105.49 174.225 105.553 174.489 105.553Z" fill="white"/>
<path d="M247.804 106.201C247.288 106.201 246.847 106.075 246.482 105.823C246.122 105.565 245.846 105.194 245.654 104.708C245.462 104.216 245.366 103.625 245.366 102.935C245.366 102.257 245.462 101.678 245.654 101.198C245.846 100.718 246.122 100.352 246.482 100.1C246.847 99.8484 247.288 99.7224 247.804 99.7224C248.32 99.7224 248.758 99.8484 249.118 100.1C249.484 100.352 249.76 100.718 249.946 101.198C250.138 101.678 250.234 102.257 250.234 102.935C250.234 103.625 250.138 104.216 249.946 104.708C249.76 105.194 249.484 105.565 249.118 105.823C248.758 106.075 248.32 106.201 247.804 106.201ZM247.804 105.58C248.17 105.58 248.479 105.475 248.731 105.266C248.989 105.056 249.184 104.756 249.316 104.366C249.454 103.97 249.523 103.493 249.523 102.935C249.523 102.401 249.454 101.939 249.316 101.549C249.184 101.159 248.989 100.862 248.731 100.658C248.473 100.448 248.164 100.343 247.804 100.343C247.444 100.343 247.132 100.448 246.868 100.658C246.611 100.862 246.413 101.159 246.275 101.549C246.143 101.933 246.077 102.395 246.077 102.935C246.077 103.493 246.143 103.97 246.275 104.366C246.413 104.756 246.611 105.056 246.868 105.266C247.132 105.475 247.444 105.58 247.804 105.58ZM253.402 106.201C252.886 106.201 252.445 106.075 252.079 105.823C251.719 105.565 251.443 105.194 251.251 104.708C251.059 104.216 250.963 103.625 250.963 102.935C250.963 102.257 251.059 101.678 251.251 101.198C251.443 100.718 251.719 100.352 252.079 100.1C252.445 99.8484 252.886 99.7224 253.402 99.7224C253.918 99.7224 254.356 99.8484 254.716 100.1C255.082 100.352 255.358 100.718 255.544 101.198C255.736 101.678 255.832 102.257 255.832 102.935C255.832 103.625 255.736 104.216 255.544 104.708C255.358 105.194 255.082 105.565 254.716 105.823C254.356 106.075 253.918 106.201 253.402 106.201ZM253.402 105.58C253.768 105.58 254.077 105.475 254.329 105.266C254.587 105.056 254.782 104.756 254.914 104.366C255.052 103.97 255.121 103.493 255.121 102.935C255.121 102.401 255.052 101.939 254.914 101.549C254.782 101.159 254.587 100.862 254.329 100.658C254.071 100.448 253.762 100.343 253.402 100.343C253.042 100.343 252.73 100.448 252.466 100.658C252.208 100.862 252.01 101.159 251.872 101.549C251.74 101.933 251.674 102.395 251.674 102.935C251.674 103.493 251.74 103.97 251.872 104.366C252.01 104.756 252.208 105.056 252.466 105.266C252.73 105.475 253.042 105.58 253.402 105.58ZM258.906 99.5424H259.617L256.746 107.371H256.044L258.906 99.5424ZM264.615 106.201C263.835 106.201 263.223 106.03 262.779 105.688C262.336 105.347 262.069 104.867 261.979 104.249L263.103 103.961C263.187 104.345 263.343 104.633 263.571 104.825C263.805 105.011 264.141 105.104 264.579 105.104C264.921 105.104 265.182 105.035 265.362 104.897C265.542 104.753 265.632 104.564 265.632 104.33C265.632 104.174 265.59 104.042 265.506 103.934C265.428 103.82 265.299 103.724 265.119 103.646C264.939 103.562 264.699 103.49 264.399 103.43C263.643 103.274 263.085 103.046 262.725 102.746C262.366 102.44 262.186 102.02 262.186 101.486C262.186 101.108 262.273 100.787 262.447 100.523C262.62 100.253 262.869 100.049 263.193 99.9114C263.517 99.7674 263.904 99.6954 264.354 99.6954C265.074 99.6954 265.647 99.8574 266.073 100.181C266.499 100.505 266.76 100.946 266.856 101.504L265.695 101.801C265.659 101.507 265.53 101.264 265.308 101.072C265.086 100.88 264.789 100.784 264.417 100.784C264.129 100.784 263.904 100.847 263.742 100.973C263.58 101.099 263.499 101.27 263.499 101.486C263.499 101.63 263.538 101.756 263.616 101.864C263.694 101.966 263.82 102.056 263.994 102.134C264.168 102.206 264.411 102.275 264.723 102.341C265.263 102.449 265.695 102.59 266.019 102.764C266.343 102.938 266.58 103.154 266.73 103.412C266.886 103.664 266.964 103.973 266.964 104.339C266.964 104.741 266.862 105.083 266.658 105.365C266.454 105.64 266.175 105.85 265.821 105.994C265.467 106.132 265.065 106.201 264.615 106.201ZM270.327 106.201C269.715 106.201 269.187 106.072 268.743 105.814C268.299 105.55 267.957 105.176 267.717 104.69C267.483 104.204 267.366 103.622 267.366 102.944C267.366 102.266 267.486 101.684 267.726 101.198C267.966 100.712 268.308 100.34 268.752 100.082C269.202 99.8244 269.727 99.6954 270.327 99.6954C270.945 99.6954 271.475 99.8244 271.919 100.082C272.369 100.334 272.711 100.703 272.945 101.189C273.185 101.675 273.305 102.26 273.305 102.944C273.305 103.622 273.185 104.207 272.945 104.699C272.705 105.185 272.36 105.556 271.91 105.814C271.466 106.072 270.939 106.201 270.327 106.201ZM270.336 105.068C270.66 105.068 270.942 104.984 271.181 104.816C271.421 104.648 271.604 104.408 271.73 104.096C271.856 103.778 271.919 103.394 271.919 102.944C271.919 102.488 271.856 102.104 271.73 101.792C271.604 101.474 271.421 101.234 271.181 101.072C270.948 100.91 270.666 100.829 270.336 100.829C270.012 100.829 269.73 100.913 269.49 101.081C269.256 101.243 269.076 101.483 268.95 101.801C268.824 102.113 268.761 102.494 268.761 102.944C268.761 103.394 268.821 103.778 268.941 104.096C269.067 104.408 269.247 104.648 269.481 104.816C269.721 104.984 270.006 105.068 270.336 105.068ZM276.582 106.201C275.988 106.201 275.472 106.072 275.034 105.814C274.602 105.55 274.269 105.176 274.035 104.69C273.807 104.198 273.693 103.619 273.693 102.953C273.693 102.281 273.81 101.699 274.044 101.207C274.278 100.715 274.611 100.34 275.043 100.082C275.475 99.8244 275.991 99.6954 276.591 99.6954C277.089 99.6954 277.524 99.7854 277.896 99.9654C278.267 100.145 278.564 100.397 278.786 100.721C279.014 101.039 279.158 101.417 279.218 101.855L277.995 102.188C277.923 101.75 277.767 101.414 277.527 101.18C277.287 100.946 276.978 100.829 276.6 100.829C276.288 100.829 276.018 100.913 275.79 101.081C275.562 101.249 275.388 101.492 275.268 101.81C275.148 102.128 275.088 102.509 275.088 102.953C275.088 103.391 275.148 103.769 275.268 104.087C275.388 104.405 275.562 104.648 275.79 104.816C276.018 104.984 276.288 105.068 276.6 105.068C276.996 105.068 277.314 104.945 277.554 104.699C277.794 104.453 277.947 104.09 278.013 103.61L279.236 103.934C279.176 104.396 279.029 104.798 278.795 105.14C278.567 105.481 278.264 105.745 277.887 105.931C277.509 106.111 277.074 106.201 276.582 106.201ZM282.426 106.201C281.832 106.201 281.316 106.072 280.878 105.814C280.446 105.55 280.113 105.176 279.879 104.69C279.651 104.198 279.537 103.619 279.537 102.953C279.537 102.281 279.654 101.699 279.888 101.207C280.122 100.715 280.455 100.34 280.887 100.082C281.319 99.8244 281.835 99.6954 282.435 99.6954C282.932 99.6954 283.367 99.7854 283.739 99.9654C284.111 100.145 284.408 100.397 284.63 100.721C284.858 101.039 285.002 101.417 285.062 101.855L283.838 102.188C283.766 101.75 283.61 101.414 283.37 101.18C283.13 100.946 282.822 100.829 282.444 100.829C282.132 100.829 281.862 100.913 281.634 101.081C281.406 101.249 281.232 101.492 281.112 101.81C280.992 102.128 280.932 102.509 280.932 102.953C280.932 103.391 280.992 103.769 281.112 104.087C281.232 104.405 281.406 104.648 281.634 104.816C281.862 104.984 282.132 105.068 282.444 105.068C282.839 105.068 283.157 104.945 283.397 104.699C283.637 104.453 283.79 104.09 283.856 103.61L285.08 103.934C285.02 104.396 284.873 104.798 284.639 105.14C284.411 105.481 284.108 105.745 283.73 105.931C283.352 106.111 282.917 106.201 282.426 106.201ZM288.341 106.201C287.729 106.201 287.202 106.072 286.758 105.814C286.314 105.55 285.972 105.176 285.732 104.69C285.498 104.204 285.381 103.622 285.381 102.944C285.381 102.266 285.501 101.684 285.741 101.198C285.981 100.712 286.323 100.34 286.767 100.082C287.217 99.8244 287.741 99.6954 288.341 99.6954C288.959 99.6954 289.49 99.8244 289.934 100.082C290.384 100.334 290.726 100.703 290.96 101.189C291.2 101.675 291.32 102.26 291.32 102.944C291.32 103.622 291.2 104.207 290.96 104.699C290.72 105.185 290.375 105.556 289.925 105.814C289.481 106.072 288.953 106.201 288.341 106.201ZM288.35 105.068C288.674 105.068 288.956 104.984 289.196 104.816C289.436 104.648 289.619 104.408 289.745 104.096C289.871 103.778 289.934 103.394 289.934 102.944C289.934 102.488 289.871 102.104 289.745 101.792C289.619 101.474 289.436 101.234 289.196 101.072C288.962 100.91 288.68 100.829 288.35 100.829C288.026 100.829 287.744 100.913 287.504 101.081C287.271 101.243 287.091 101.483 286.965 101.801C286.839 102.113 286.776 102.494 286.776 102.944C286.776 103.394 286.836 103.778 286.956 104.096C287.082 104.408 287.262 104.648 287.495 104.816C287.735 104.984 288.02 105.068 288.35 105.068ZM292.041 102.944L292.014 99.8304H294.534C295.337 99.8304 295.943 99.9924 296.351 100.316C296.765 100.64 296.972 101.123 296.972 101.765C296.972 102.185 296.867 102.533 296.657 102.809C296.453 103.079 296.15 103.265 295.748 103.367L295.361 103.133C295.667 103.169 295.919 103.25 296.117 103.376C296.315 103.502 296.468 103.676 296.576 103.898C296.684 104.12 296.753 104.402 296.783 104.744L296.819 105.077C296.843 105.323 296.87 105.526 296.9 105.688C296.93 105.844 296.972 105.97 297.026 106.066H295.631C295.589 105.97 295.55 105.829 295.514 105.643C295.484 105.458 295.454 105.2 295.424 104.87C295.424 104.852 295.421 104.831 295.415 104.807C295.391 104.507 295.34 104.285 295.262 104.141C295.184 103.997 295.073 103.901 294.929 103.853C294.791 103.799 294.591 103.772 294.327 103.772H293.373L293.391 106.066H292.014L292.041 102.944ZM294.462 102.764C294.725 102.764 294.944 102.728 295.118 102.656C295.298 102.584 295.433 102.482 295.523 102.35C295.613 102.212 295.658 102.044 295.658 101.846C295.658 101.546 295.562 101.321 295.37 101.171C295.184 101.015 294.893 100.937 294.498 100.937H293.373V102.764H294.462ZM300.1 106.201C299.32 106.201 298.708 106.03 298.264 105.688C297.82 105.347 297.553 104.867 297.463 104.249L298.588 103.961C298.672 104.345 298.828 104.633 299.056 104.825C299.29 105.011 299.626 105.104 300.064 105.104C300.406 105.104 300.667 105.035 300.847 104.897C301.027 104.753 301.117 104.564 301.117 104.33C301.117 104.174 301.075 104.042 300.991 103.934C300.913 103.82 300.784 103.724 300.604 103.646C300.424 103.562 300.184 103.49 299.884 103.43C299.128 103.274 298.57 103.046 298.21 102.746C297.85 102.44 297.67 102.02 297.67 101.486C297.67 101.108 297.757 100.787 297.931 100.523C298.105 100.253 298.354 100.049 298.678 99.9114C299.002 99.7674 299.389 99.6954 299.839 99.6954C300.559 99.6954 301.132 99.8574 301.558 100.181C301.984 100.505 302.245 100.946 302.34 101.504L301.18 101.801C301.144 101.507 301.015 101.264 300.793 101.072C300.571 100.88 300.274 100.784 299.902 100.784C299.614 100.784 299.389 100.847 299.227 100.973C299.065 101.099 298.984 101.27 298.984 101.486C298.984 101.63 299.023 101.756 299.101 101.864C299.179 101.966 299.305 102.056 299.479 102.134C299.653 102.206 299.896 102.275 300.208 102.341C300.748 102.449 301.18 102.59 301.504 102.764C301.828 102.938 302.065 103.154 302.215 103.412C302.37 103.664 302.448 103.973 302.448 104.339C302.448 104.741 302.346 105.083 302.143 105.365C301.939 105.64 301.66 105.85 301.306 105.994C300.952 106.132 300.55 106.201 300.1 106.201ZM305.811 106.201C305.199 106.201 304.671 106.072 304.228 105.814C303.784 105.55 303.442 105.176 303.202 104.69C302.968 104.204 302.851 103.622 302.851 102.944C302.851 102.266 302.971 101.684 303.211 101.198C303.451 100.712 303.793 100.34 304.237 100.082C304.686 99.8244 305.211 99.6954 305.811 99.6954C306.429 99.6954 306.96 99.8244 307.404 100.082C307.854 100.334 308.196 100.703 308.43 101.189C308.67 101.675 308.79 102.26 308.79 102.944C308.79 103.622 308.67 104.207 308.43 104.699C308.19 105.185 307.845 105.556 307.395 105.814C306.951 106.072 306.423 106.201 305.811 106.201ZM305.82 105.068C306.144 105.068 306.426 104.984 306.666 104.816C306.906 104.648 307.089 104.408 307.215 104.096C307.341 103.778 307.404 103.394 307.404 102.944C307.404 102.488 307.341 102.104 307.215 101.792C307.089 101.474 306.906 101.234 306.666 101.072C306.432 100.91 306.15 100.829 305.82 100.829C305.496 100.829 305.214 100.913 304.974 101.081C304.74 101.243 304.56 101.483 304.435 101.801C304.309 102.113 304.246 102.494 304.246 102.944C304.246 103.394 304.306 103.778 304.426 104.096C304.551 104.408 304.731 104.648 304.965 104.816C305.205 104.984 305.49 105.068 305.82 105.068Z" fill="white"/>
<rect x="84.7559" y="36.6562" width="233.243" height="78.2973" stroke="white" stroke-width="0.835277"/>
<rect x="204.738" y="92.3066" width="113.262" height="22.5565" stroke="white" stroke-width="0.835277"/>
<path d="M204.738 92.7243L84.7571 92.7243V91.889L204.738 91.889V92.7243Z" fill="white"/>
</svg>
