<svg width="402" height="250" viewBox="0 0 402 250" fill="none" xmlns="http://www.w3.org/2000/svg">
<rect width="402" height="250" fill="#D92121"/>
<rect width="260.849" height="88" transform="translate(70.9531 32)" fill="#D92121"/>
<path d="M81.6056 63.0108L81.4766 40.6866H99.5424C105.306 40.6866 109.651 41.8479 112.576 44.1707C115.544 46.4934 117.028 49.9561 117.028 54.5586C117.028 57.6126 116.275 60.1504 114.769 62.172C113.307 64.1507 111.135 65.5271 108.253 66.3014L105.478 64.6238C107.672 64.8819 109.457 65.4626 110.834 66.3659C112.21 67.2262 113.264 68.4521 113.995 70.0436C114.726 71.6351 115.221 73.6783 115.479 76.1731L115.673 78.5604C115.845 80.2379 116.038 81.6358 116.253 82.7542C116.511 83.8296 116.813 84.7113 117.157 85.3996H107.156C106.855 84.7113 106.597 83.7435 106.382 82.4961C106.167 81.2487 105.93 79.4421 105.672 77.0764C105.672 76.9043 105.65 76.7323 105.607 76.5602C105.392 74.3665 105.048 72.7535 104.575 71.7211C104.102 70.6458 103.392 69.9145 102.446 69.5274C101.5 69.1403 100.102 68.9467 98.252 68.9467H91.2192L91.3483 85.3996H81.4766L81.6056 63.0108ZM99.0263 61.7204C100.919 61.7204 102.489 61.4623 103.736 60.9461C105.027 60.43 105.995 59.6987 106.64 58.7524C107.285 57.7631 107.608 56.5587 107.608 55.1392C107.608 52.9886 106.919 51.3755 105.543 50.3002C104.209 49.1818 102.123 48.6226 99.2843 48.6226H91.2192V61.7204H99.0263Z" fill="white"/>
<path d="M118.968 63.0108L118.904 40.6866L150.132 40.6866V48.7517L128.711 48.7517L128.646 59.0105L148.003 59.0105V66.2369L128.646 66.2369L128.711 77.2699L150.713 77.2699V85.3996L118.904 85.3996L118.968 63.0108Z" fill="white"/>
<path d="M152.048 63.0108L151.983 40.6866H182.244V48.7517H161.791L161.726 60.0428H180.179V67.6563H161.726L161.791 85.3996H151.983L152.048 63.0108Z" fill="white"/>
<path d="M183.741 63.0108L183.677 40.6866L214.905 40.6866V48.7517L193.484 48.7517L193.419 59.0105L212.776 59.0105V66.2369L193.419 66.2369L193.484 77.2699H215.486V85.3996L183.677 85.3996L183.741 63.0108Z" fill="white"/>
<path d="M216.885 63.0108L216.756 40.6866H234.822C240.586 40.6866 244.93 41.8479 247.855 44.1707C250.823 46.4934 252.307 49.9561 252.307 54.5586C252.307 57.6126 251.555 60.1504 250.049 62.172C248.587 64.1507 246.414 65.5271 243.532 66.3014L240.758 64.6238C242.952 64.8819 244.737 65.4626 246.113 66.3659C247.49 67.2262 248.544 68.4521 249.275 70.0436C250.006 71.6351 250.501 73.6783 250.759 76.1731L250.952 78.5604C251.124 80.2379 251.318 81.6358 251.533 82.7542C251.791 83.8296 252.092 84.7113 252.436 85.3996H242.436C242.135 84.7113 241.876 83.7435 241.661 82.4961C241.446 81.2487 241.21 79.4421 240.952 77.0764C240.952 76.9043 240.93 76.7323 240.887 76.5602C240.672 74.3665 240.328 72.7535 239.855 71.7211C239.382 70.6458 238.672 69.9145 237.726 69.5274C236.779 69.1403 235.381 68.9467 233.532 68.9467H226.499L226.628 85.3996H216.756L216.885 63.0108ZM234.306 61.7204C236.199 61.7204 237.769 61.4623 239.016 60.9461C240.306 60.43 241.274 59.6987 241.919 58.7524C242.565 57.7631 242.887 56.5587 242.887 55.1392C242.887 52.9886 242.199 51.3755 240.823 50.3002C239.489 49.1818 237.403 48.6226 234.564 48.6226L226.499 48.6226V61.7204H234.306Z" fill="white"/>
<path d="M261.881 65.14L261.817 48.7517H250.267V40.6866L283.238 40.6866V48.7517H271.688L271.624 65.14L271.688 85.3996H261.817L261.881 65.14Z" fill="white"/>
<path d="M300.042 86.3674C295.655 86.3674 291.87 85.4426 288.687 83.593C285.504 81.7004 283.052 79.012 281.331 75.5279C279.654 72.0437 278.815 67.8714 278.815 63.0108C278.815 58.1502 279.654 53.9779 281.331 50.4937C283.052 47.0096 285.504 44.3427 288.687 42.4931C291.913 40.6435 295.698 39.7187 300.042 39.7187C304.473 39.7187 308.279 40.6435 311.462 42.4931C314.645 44.2997 317.097 46.9451 318.818 50.4292C320.538 53.9134 321.399 58.1072 321.399 63.0108C321.399 67.8714 320.538 72.0652 318.818 75.5924C317.097 79.0765 314.624 81.7434 311.398 83.593C308.172 85.4426 304.387 86.3674 300.042 86.3674ZM300.042 78.2377C302.365 78.2377 304.387 77.6355 306.107 76.4312C307.828 75.2268 309.14 73.5062 310.043 71.2695C310.946 68.9897 311.398 66.2369 311.398 63.0108C311.398 59.7417 310.946 56.9889 310.043 54.7521C309.183 52.4724 307.892 50.7518 306.172 49.5905C304.494 48.4291 302.451 47.8484 300.042 47.8484C297.719 47.8484 295.698 48.4506 293.977 49.655C292.3 50.8163 291.009 52.5369 290.106 54.8166C289.203 57.0534 288.751 59.7848 288.751 63.0108C288.751 66.2369 289.203 68.9897 290.106 71.2695C291.009 73.5062 292.3 75.2268 293.977 76.4312C295.655 77.6355 297.676 78.2377 300.042 78.2377Z" fill="white"/>
<path d="M81.3398 106.196L81.3197 102.704H83.2821C84.4696 102.704 85.3586 102.989 85.949 103.559C86.5461 104.129 86.8446 104.971 86.8446 106.085C86.8446 107.299 86.5494 108.202 85.959 108.792C85.3686 109.383 84.4763 109.678 83.2821 109.678H81.3197L81.3398 106.196ZM83.2821 108.853C84.161 108.853 84.8151 108.628 85.2445 108.178C85.6806 107.729 85.8986 107.031 85.8986 106.085C85.8986 105.24 85.6806 104.602 85.2445 104.173C84.8084 103.744 84.1543 103.529 83.2821 103.529H82.2556L82.2254 106.196L82.2556 108.853H83.2821ZM89.2137 109.829C88.6636 109.829 88.2409 109.691 87.9457 109.416C87.6505 109.134 87.5029 108.769 87.5029 108.319C87.5029 107.923 87.6035 107.601 87.8048 107.353C88.0061 107.105 88.3248 106.92 88.7609 106.8C89.2037 106.679 89.7874 106.618 90.5119 106.618H90.9749V106.478C90.9749 105.988 90.8776 105.612 90.683 105.35C90.4885 105.089 90.1664 104.958 89.7169 104.958C89.3882 104.958 89.1198 105.032 88.9118 105.179C88.7105 105.32 88.5663 105.498 88.4791 105.713C88.3919 105.921 88.3516 106.135 88.3583 106.357L87.5935 106.166C87.5935 105.803 87.6807 105.478 87.8551 105.189C88.0296 104.901 88.2778 104.673 88.5998 104.505C88.9219 104.337 89.2942 104.253 89.7169 104.253C90.4147 104.253 90.9346 104.425 91.2768 104.767C91.6256 105.109 91.8001 105.615 91.8001 106.286V108.631C91.8001 108.812 91.8303 108.943 91.8906 109.024C91.9577 109.097 92.0751 109.134 92.2429 109.134C92.2965 109.134 92.3469 109.131 92.3938 109.124C92.4475 109.111 92.4978 109.097 92.5448 109.084L92.5548 109.074L92.6857 109.658C92.5783 109.698 92.4676 109.728 92.3536 109.748C92.2462 109.768 92.1355 109.778 92.0215 109.778C91.7464 109.778 91.5317 109.698 91.3774 109.537C91.2231 109.376 91.1459 109.144 91.1459 108.842C91.1459 108.795 91.1459 108.755 91.1459 108.722C91.1459 108.688 91.1493 108.655 91.156 108.621C91.156 108.601 91.156 108.588 91.156 108.581C91.1627 108.574 91.1661 108.561 91.1661 108.541H91.1459C90.9648 108.943 90.7132 109.258 90.3912 109.487C90.0691 109.715 89.6767 109.829 89.2137 109.829ZM89.3345 109.104C89.6096 109.104 89.8712 109.03 90.1195 108.883C90.3744 108.735 90.579 108.53 90.7333 108.269C90.8944 108 90.9749 107.695 90.9749 107.353V107.252H90.7333C90.1698 107.252 89.7169 107.283 89.3747 107.343C89.0393 107.403 88.7877 107.511 88.62 107.665C88.459 107.819 88.3784 108.034 88.3784 108.309C88.3784 108.551 88.4623 108.745 88.63 108.893C88.8045 109.034 89.0393 109.104 89.3345 109.104ZM93.3088 106.135L93.2887 102.694H94.1743L94.1542 106.135L94.1743 109.678H93.2887L93.3088 106.135ZM95.5004 106.135L95.4803 102.694H96.3659L96.3458 106.135L96.3659 109.678H95.4803L95.5004 106.135ZM99.7953 109.829C99.2921 109.829 98.8527 109.715 98.477 109.487C98.108 109.258 97.8228 108.936 97.6216 108.52C97.4203 108.098 97.3197 107.605 97.3197 107.041C97.3197 106.478 97.4136 105.988 97.6014 105.572C97.796 105.149 98.0711 104.824 98.4267 104.596C98.7889 104.368 99.2183 104.253 99.7148 104.253C100.265 104.253 100.708 104.394 101.043 104.676C101.379 104.951 101.617 105.317 101.758 105.773C101.899 106.223 101.969 106.722 101.969 107.273H98.0241L98.0442 106.568H101.536L101.063 106.91C101.104 106.548 101.077 106.223 100.983 105.934C100.889 105.639 100.731 105.407 100.51 105.24C100.295 105.072 100.033 104.988 99.7249 104.988C99.2552 104.988 98.8829 105.163 98.6078 105.511C98.3394 105.854 98.2053 106.363 98.2053 107.041C98.2053 107.678 98.3495 108.182 98.638 108.551C98.9265 108.913 99.3123 109.094 99.7953 109.094C100.164 109.094 100.466 108.98 100.701 108.752C100.943 108.524 101.1 108.202 101.174 107.786L101.939 107.987C101.885 108.323 101.768 108.631 101.587 108.913C101.412 109.188 101.171 109.409 100.862 109.577C100.56 109.745 100.205 109.829 99.7953 109.829ZM105.417 107.122L105.396 104.384H106.272L106.252 105.189H106.272C106.413 104.921 106.624 104.7 106.906 104.525C107.195 104.344 107.52 104.253 107.882 104.253C108.224 104.253 108.516 104.351 108.758 104.545C109.006 104.733 109.184 105.018 109.291 105.401H109.311C109.479 105.052 109.714 104.773 110.016 104.565C110.318 104.357 110.66 104.253 111.042 104.253C111.519 104.253 111.894 104.431 112.169 104.787C112.451 105.136 112.592 105.662 112.592 106.367V107.122L112.612 109.678H111.727L111.747 107.122V106.377C111.747 105.914 111.659 105.568 111.485 105.34C111.311 105.112 111.076 104.998 110.781 104.998C110.546 104.998 110.324 105.072 110.116 105.22C109.908 105.36 109.741 105.565 109.613 105.833C109.486 106.095 109.422 106.394 109.422 106.729V107.122L109.442 109.678H108.556L108.577 107.122V106.377C108.577 105.921 108.489 105.578 108.315 105.35C108.141 105.116 107.909 104.998 107.621 104.998C107.386 104.998 107.161 105.072 106.946 105.22C106.738 105.36 106.571 105.565 106.443 105.833C106.316 106.095 106.252 106.394 106.252 106.729V107.122L106.272 109.678H105.396L105.417 107.122ZM115.306 109.829C114.756 109.829 114.334 109.691 114.038 109.416C113.743 109.134 113.596 108.769 113.596 108.319C113.596 107.923 113.696 107.601 113.897 107.353C114.099 107.105 114.417 106.92 114.854 106.8C115.296 106.679 115.88 106.618 116.605 106.618H117.068V106.478C117.068 105.988 116.97 105.612 116.776 105.35C116.581 105.089 116.259 104.958 115.81 104.958C115.481 104.958 115.212 105.032 115.004 105.179C114.803 105.32 114.659 105.498 114.572 105.713C114.485 105.921 114.444 106.135 114.451 106.357L113.686 106.166C113.686 105.803 113.773 105.478 113.948 105.189C114.122 104.901 114.37 104.673 114.693 104.505C115.015 104.337 115.387 104.253 115.81 104.253C116.507 104.253 117.027 104.425 117.369 104.767C117.718 105.109 117.893 105.615 117.893 106.286V108.631C117.893 108.812 117.923 108.943 117.983 109.024C118.05 109.097 118.168 109.134 118.336 109.134C118.389 109.134 118.44 109.131 118.487 109.124C118.54 109.111 118.59 109.097 118.637 109.084L118.648 109.074L118.778 109.658C118.671 109.698 118.56 109.728 118.446 109.748C118.339 109.768 118.228 109.778 118.114 109.778C117.839 109.778 117.624 109.698 117.47 109.537C117.316 109.376 117.239 109.144 117.239 108.842C117.239 108.795 117.239 108.755 117.239 108.722C117.239 108.688 117.242 108.655 117.249 108.621C117.249 108.601 117.249 108.588 117.249 108.581C117.255 108.574 117.259 108.561 117.259 108.541H117.239C117.057 108.943 116.806 109.258 116.484 109.487C116.162 109.715 115.769 109.829 115.306 109.829ZM115.427 109.104C115.702 109.104 115.964 109.03 116.212 108.883C116.467 108.735 116.672 108.53 116.826 108.269C116.987 108 117.068 107.695 117.068 107.353V107.252H116.826C116.262 107.252 115.81 107.283 115.467 107.343C115.132 107.403 114.88 107.511 114.713 107.665C114.552 107.819 114.471 108.034 114.471 108.309C114.471 108.551 114.555 108.745 114.723 108.893C114.897 109.034 115.132 109.104 115.427 109.104ZM119.402 107.122L119.381 104.384H120.267L120.247 105.189H120.267C120.408 104.921 120.626 104.7 120.921 104.525C121.223 104.344 121.575 104.253 121.978 104.253C122.575 104.253 123.024 104.438 123.326 104.807C123.635 105.169 123.789 105.736 123.789 106.508V107.122L123.809 109.678H122.924L122.944 107.122V106.518C122.944 106.008 122.833 105.629 122.612 105.381C122.397 105.126 122.099 104.998 121.716 104.998C121.448 104.998 121.2 105.072 120.971 105.22C120.75 105.36 120.572 105.562 120.438 105.823C120.311 106.085 120.247 106.387 120.247 106.729V107.122L120.267 109.678H119.381L119.402 107.122ZM125.121 107.031L125.101 104.384C125.302 104.384 125.45 104.384 125.544 104.384C125.645 104.384 125.792 104.384 125.987 104.384L125.967 107.031L125.987 109.678H125.101L125.121 107.031ZM125.544 103.76C125.363 103.76 125.225 103.717 125.131 103.63C125.044 103.536 125 103.395 125 103.207C125 103.026 125.044 102.892 125.131 102.804C125.225 102.71 125.363 102.663 125.544 102.663C125.725 102.663 125.859 102.71 125.946 102.804C126.04 102.892 126.087 103.026 126.087 103.207C126.087 103.395 126.04 103.536 125.946 103.63C125.859 103.717 125.725 103.76 125.544 103.76ZM132.618 109.547C132.329 109.735 131.977 109.829 131.561 109.829C131.105 109.829 130.716 109.721 130.393 109.507C130.071 109.292 129.827 108.977 129.659 108.561C129.491 108.145 129.407 107.638 129.407 107.041C129.407 106.444 129.491 105.937 129.659 105.521C129.827 105.105 130.071 104.79 130.393 104.575C130.716 104.361 131.105 104.253 131.561 104.253C131.977 104.253 132.326 104.347 132.607 104.535C132.896 104.723 133.107 104.941 133.241 105.189H133.262L133.231 102.694H134.147L134.127 106.639L134.147 109.678H133.231L133.252 108.893H133.231C133.111 109.134 132.906 109.352 132.618 109.547ZM130.675 108.571C130.93 108.926 131.296 109.104 131.772 109.104C132.02 109.104 132.255 109.044 132.477 108.923C132.698 108.802 132.883 108.588 133.03 108.279C133.184 107.97 133.262 107.551 133.262 107.021C133.262 106.565 133.195 106.186 133.06 105.884C132.926 105.575 132.745 105.347 132.517 105.199C132.296 105.052 132.047 104.978 131.772 104.978C131.296 104.978 130.93 105.156 130.675 105.511C130.42 105.867 130.293 106.377 130.293 107.041C130.293 107.705 130.42 108.215 130.675 108.571ZM135.48 107.031L135.46 104.384C135.661 104.384 135.808 104.384 135.902 104.384C136.003 104.384 136.151 104.384 136.345 104.384L136.325 107.031L136.345 109.678H135.46L135.48 107.031ZM135.902 103.76C135.721 103.76 135.584 103.717 135.49 103.63C135.403 103.536 135.359 103.395 135.359 103.207C135.359 103.026 135.403 102.892 135.49 102.804C135.584 102.71 135.721 102.663 135.902 102.663C136.084 102.663 136.218 102.71 136.305 102.804C136.399 102.892 136.446 103.026 136.446 103.207C136.446 103.395 136.399 103.536 136.305 103.63C136.218 103.717 136.084 103.76 135.902 103.76ZM142.241 109.829C141.738 109.829 141.299 109.715 140.923 109.487C140.554 109.258 140.269 108.936 140.068 108.52C139.866 108.098 139.766 107.605 139.766 107.041C139.766 106.478 139.866 105.988 140.068 105.572C140.269 105.149 140.554 104.824 140.923 104.596C141.292 104.368 141.728 104.253 142.231 104.253C142.842 104.253 143.332 104.431 143.701 104.787C144.076 105.136 144.304 105.568 144.385 106.085L143.62 106.286C143.546 105.877 143.389 105.558 143.147 105.33C142.912 105.102 142.61 104.988 142.241 104.988C141.919 104.988 141.638 105.072 141.396 105.24C141.154 105.401 140.97 105.636 140.843 105.944C140.715 106.253 140.651 106.618 140.651 107.041C140.651 107.678 140.792 108.182 141.074 108.551C141.362 108.913 141.752 109.094 142.241 109.094C142.61 109.094 142.912 108.983 143.147 108.762C143.389 108.534 143.546 108.212 143.62 107.796L144.385 107.997C144.331 108.333 144.214 108.638 144.033 108.913C143.858 109.188 143.617 109.409 143.308 109.577C143.006 109.745 142.651 109.829 142.241 109.829ZM145.209 107.122L145.189 102.694H146.075L146.055 105.189H146.075C146.216 104.921 146.434 104.7 146.729 104.525C147.031 104.344 147.383 104.253 147.785 104.253C148.383 104.253 148.832 104.438 149.134 104.807C149.443 105.169 149.597 105.736 149.597 106.508V107.122L149.617 109.678H148.731L148.752 107.122V106.518C148.752 106.008 148.641 105.629 148.419 105.381C148.205 105.126 147.906 104.998 147.524 104.998C147.255 104.998 147.007 105.072 146.779 105.22C146.558 105.36 146.38 105.562 146.246 105.823C146.118 106.085 146.055 106.387 146.055 106.729V107.122L146.075 109.678H145.189L145.209 107.122ZM150.929 107.031L150.909 104.384C151.11 104.384 151.258 104.384 151.352 104.384C151.452 104.384 151.6 104.384 151.794 104.384L151.774 107.031L151.794 109.678H150.909L150.929 107.031ZM151.352 103.76C151.17 103.76 151.033 103.717 150.939 103.63C150.852 103.536 150.808 103.395 150.808 103.207C150.808 103.026 150.852 102.892 150.939 102.804C151.033 102.71 151.17 102.663 151.352 102.663C151.533 102.663 151.667 102.71 151.754 102.804C151.848 102.892 151.895 103.026 151.895 103.207C151.895 103.395 151.848 103.536 151.754 103.63C151.667 103.717 151.533 103.76 151.352 103.76ZM157.691 109.829C157.187 109.829 156.748 109.715 156.372 109.487C156.003 109.258 155.718 108.936 155.517 108.52C155.316 108.098 155.215 107.605 155.215 107.041C155.215 106.478 155.316 105.988 155.517 105.572C155.718 105.149 156.003 104.824 156.372 104.596C156.741 104.368 157.177 104.253 157.681 104.253C158.291 104.253 158.781 104.431 159.15 104.787C159.526 105.136 159.754 105.568 159.834 106.085L159.069 106.286C158.995 105.877 158.838 105.558 158.596 105.33C158.361 105.102 158.06 104.988 157.691 104.988C157.369 104.988 157.087 105.072 156.845 105.24C156.604 105.401 156.419 105.636 156.292 105.944C156.164 106.253 156.101 106.618 156.101 107.041C156.101 107.678 156.241 108.182 156.523 108.551C156.812 108.913 157.201 109.094 157.691 109.094C158.06 109.094 158.361 108.983 158.596 108.762C158.838 108.534 158.995 108.212 159.069 107.796L159.834 107.997C159.78 108.333 159.663 108.638 159.482 108.913C159.307 109.188 159.066 109.409 158.757 109.577C158.455 109.745 158.1 109.829 157.691 109.829ZM164.976 106.94L164.996 109.678H164.11L164.13 108.873H164.11C163.969 109.141 163.751 109.366 163.456 109.547C163.168 109.721 162.832 109.809 162.45 109.809C161.853 109.809 161.4 109.627 161.091 109.265C160.789 108.896 160.638 108.326 160.638 107.554V106.94L160.618 104.384H161.504L161.484 106.94V107.544C161.484 108.054 161.591 108.437 161.806 108.692C162.027 108.94 162.329 109.064 162.711 109.064C162.966 109.064 163.201 108.993 163.416 108.853C163.631 108.705 163.802 108.5 163.929 108.239C164.063 107.97 164.13 107.668 164.13 107.333V106.94L164.11 104.384H164.996L164.976 106.94ZM166.329 107.132L166.309 104.384H167.194L167.164 105.22H167.184C167.285 104.951 167.47 104.723 167.738 104.535C168.013 104.347 168.345 104.253 168.734 104.253C168.882 104.253 169.013 104.267 169.127 104.294L169.117 105.129C168.956 105.082 168.811 105.059 168.684 105.059C168.369 105.059 168.097 105.129 167.869 105.27C167.647 105.411 167.476 105.625 167.355 105.914C167.235 106.196 167.174 106.548 167.174 106.971V107.122L167.194 109.678H166.309L166.329 107.132ZM171.187 109.829C170.637 109.829 170.214 109.691 169.919 109.416C169.624 109.134 169.476 108.769 169.476 108.319C169.476 107.923 169.577 107.601 169.778 107.353C169.979 107.105 170.298 106.92 170.734 106.8C171.177 106.679 171.761 106.618 172.485 106.618H172.948V106.478C172.948 105.988 172.851 105.612 172.656 105.35C172.462 105.089 172.14 104.958 171.69 104.958C171.361 104.958 171.093 105.032 170.885 105.179C170.684 105.32 170.54 105.498 170.452 105.713C170.365 105.921 170.325 106.135 170.332 106.357L169.567 106.166C169.567 105.803 169.654 105.478 169.828 105.189C170.003 104.901 170.251 104.673 170.573 104.505C170.895 104.337 171.267 104.253 171.69 104.253C172.388 104.253 172.908 104.425 173.25 104.767C173.599 105.109 173.773 105.615 173.773 106.286V108.631C173.773 108.812 173.804 108.943 173.864 109.024C173.931 109.097 174.048 109.134 174.216 109.134C174.27 109.134 174.32 109.131 174.367 109.124C174.421 109.111 174.471 109.097 174.518 109.084L174.528 109.074L174.659 109.658C174.552 109.698 174.441 109.728 174.327 109.748C174.219 109.768 174.109 109.778 173.995 109.778C173.72 109.778 173.505 109.698 173.351 109.537C173.196 109.376 173.119 109.144 173.119 108.842C173.119 108.795 173.119 108.755 173.119 108.722C173.119 108.688 173.123 108.655 173.129 108.621C173.129 108.601 173.129 108.588 173.129 108.581C173.136 108.574 173.139 108.561 173.139 108.541H173.119C172.938 108.943 172.686 109.258 172.364 109.487C172.042 109.715 171.65 109.829 171.187 109.829ZM171.308 109.104C171.583 109.104 171.844 109.03 172.093 108.883C172.348 108.735 172.552 108.53 172.707 108.269C172.868 108 172.948 107.695 172.948 107.353V107.252H172.707C172.143 107.252 171.69 107.283 171.348 107.343C171.013 107.403 170.761 107.511 170.593 107.665C170.432 107.819 170.352 108.034 170.352 108.309C170.352 108.551 170.436 108.745 170.603 108.893C170.778 109.034 171.013 109.104 171.308 109.104Z" fill="white"/>
<path d="M253.297 109.829C252.72 109.829 252.227 109.688 251.818 109.406C251.416 109.118 251.107 108.702 250.892 108.158C250.678 107.608 250.57 106.947 250.57 106.176C250.57 105.417 250.678 104.77 250.892 104.233C251.107 103.697 251.416 103.287 251.818 103.006C252.227 102.724 252.72 102.583 253.297 102.583C253.874 102.583 254.364 102.724 254.767 103.006C255.176 103.287 255.485 103.697 255.693 104.233C255.907 104.77 256.015 105.417 256.015 106.176C256.015 106.947 255.907 107.608 255.693 108.158C255.485 108.702 255.176 109.118 254.767 109.406C254.364 109.688 253.874 109.829 253.297 109.829ZM253.297 109.134C253.707 109.134 254.052 109.017 254.334 108.782C254.622 108.547 254.841 108.212 254.988 107.776C255.142 107.333 255.22 106.8 255.22 106.176C255.22 105.578 255.142 105.062 254.988 104.626C254.841 104.19 254.622 103.858 254.334 103.63C254.045 103.395 253.7 103.277 253.297 103.277C252.895 103.277 252.546 103.395 252.251 103.63C251.962 103.858 251.741 104.19 251.587 104.626C251.439 105.055 251.365 105.572 251.365 106.176C251.365 106.8 251.439 107.333 251.587 107.776C251.741 108.212 251.962 108.547 252.251 108.782C252.546 109.017 252.895 109.134 253.297 109.134ZM259.558 109.829C258.981 109.829 258.488 109.688 258.078 109.406C257.676 109.118 257.367 108.702 257.153 108.158C256.938 107.608 256.83 106.947 256.83 106.176C256.83 105.417 256.938 104.77 257.153 104.233C257.367 103.697 257.676 103.287 258.078 103.006C258.488 102.724 258.981 102.583 259.558 102.583C260.135 102.583 260.624 102.724 261.027 103.006C261.436 103.287 261.745 103.697 261.953 104.233C262.168 104.77 262.275 105.417 262.275 106.176C262.275 106.947 262.168 107.608 261.953 108.158C261.745 108.702 261.436 109.118 261.027 109.406C260.624 109.688 260.135 109.829 259.558 109.829ZM259.558 109.134C259.967 109.134 260.312 109.017 260.594 108.782C260.883 108.547 261.101 108.212 261.248 107.776C261.403 107.333 261.48 106.8 261.48 106.176C261.48 105.578 261.403 105.062 261.248 104.626C261.101 104.19 260.883 103.858 260.594 103.63C260.306 103.395 259.96 103.277 259.558 103.277C259.155 103.277 258.806 103.395 258.511 103.63C258.223 103.858 258.001 104.19 257.847 104.626C257.699 105.055 257.625 105.572 257.625 106.176C257.625 106.8 257.699 107.333 257.847 107.776C258.001 108.212 258.223 108.547 258.511 108.782C258.806 109.017 259.155 109.134 259.558 109.134ZM265.713 102.382H266.508L263.298 111.137H262.513L265.713 102.382ZM272.098 109.829C271.226 109.829 270.541 109.637 270.045 109.255C269.548 108.873 269.25 108.336 269.149 107.645L270.407 107.323C270.501 107.752 270.676 108.074 270.931 108.289C271.192 108.497 271.568 108.601 272.058 108.601C272.44 108.601 272.732 108.524 272.933 108.369C273.134 108.208 273.235 107.997 273.235 107.735C273.235 107.561 273.188 107.413 273.094 107.293C273.007 107.165 272.863 107.058 272.661 106.971C272.46 106.877 272.192 106.796 271.856 106.729C271.011 106.555 270.387 106.3 269.985 105.964C269.582 105.622 269.381 105.152 269.381 104.555C269.381 104.133 269.478 103.774 269.673 103.479C269.867 103.177 270.146 102.949 270.508 102.794C270.87 102.633 271.303 102.553 271.806 102.553C272.611 102.553 273.252 102.734 273.728 103.096C274.205 103.458 274.496 103.952 274.604 104.575L273.306 104.908C273.265 104.579 273.121 104.307 272.873 104.092C272.625 103.878 272.292 103.77 271.877 103.77C271.554 103.77 271.303 103.841 271.122 103.982C270.941 104.123 270.85 104.314 270.85 104.555C270.85 104.716 270.894 104.857 270.981 104.978C271.068 105.092 271.209 105.193 271.404 105.28C271.598 105.36 271.87 105.438 272.219 105.511C272.822 105.632 273.306 105.79 273.668 105.984C274.03 106.179 274.295 106.42 274.463 106.709C274.637 106.991 274.725 107.336 274.725 107.746C274.725 108.195 274.61 108.577 274.382 108.893C274.154 109.201 273.842 109.436 273.446 109.597C273.051 109.752 272.601 109.829 272.098 109.829ZM278.485 109.829C277.801 109.829 277.211 109.684 276.714 109.396C276.218 109.101 275.835 108.681 275.567 108.138C275.305 107.595 275.174 106.944 275.174 106.186C275.174 105.428 275.309 104.777 275.577 104.233C275.845 103.69 276.228 103.274 276.724 102.985C277.227 102.697 277.814 102.553 278.485 102.553C279.176 102.553 279.77 102.697 280.267 102.985C280.77 103.267 281.152 103.68 281.414 104.223C281.682 104.767 281.816 105.421 281.816 106.186C281.816 106.944 281.682 107.598 281.414 108.148C281.145 108.692 280.76 109.107 280.257 109.396C279.76 109.684 279.17 109.829 278.485 109.829ZM278.495 108.561C278.858 108.561 279.173 108.467 279.441 108.279C279.71 108.091 279.914 107.823 280.055 107.474C280.196 107.118 280.267 106.689 280.267 106.186C280.267 105.676 280.196 105.246 280.055 104.898C279.914 104.542 279.71 104.274 279.441 104.092C279.18 103.911 278.864 103.821 278.495 103.821C278.133 103.821 277.818 103.915 277.549 104.102C277.288 104.284 277.086 104.552 276.946 104.908C276.805 105.256 276.734 105.682 276.734 106.186C276.734 106.689 276.801 107.118 276.936 107.474C277.076 107.823 277.278 108.091 277.539 108.279C277.808 108.467 278.126 108.561 278.495 108.561ZM285.481 109.829C284.817 109.829 284.24 109.684 283.75 109.396C283.267 109.101 282.894 108.681 282.633 108.138C282.378 107.588 282.25 106.94 282.25 106.196C282.25 105.444 282.381 104.794 282.643 104.243C282.905 103.693 283.277 103.274 283.76 102.985C284.243 102.697 284.82 102.553 285.491 102.553C286.048 102.553 286.534 102.653 286.95 102.855C287.366 103.056 287.698 103.338 287.946 103.7C288.201 104.056 288.362 104.478 288.429 104.968L287.061 105.34C286.98 104.851 286.806 104.475 286.537 104.213C286.269 103.952 285.924 103.821 285.501 103.821C285.152 103.821 284.85 103.915 284.595 104.102C284.34 104.29 284.146 104.562 284.012 104.918C283.877 105.273 283.81 105.699 283.81 106.196C283.81 106.685 283.877 107.108 284.012 107.464C284.146 107.819 284.34 108.091 284.595 108.279C284.85 108.467 285.152 108.561 285.501 108.561C285.944 108.561 286.299 108.423 286.568 108.148C286.836 107.873 287.007 107.467 287.081 106.93L288.45 107.293C288.382 107.809 288.218 108.259 287.956 108.641C287.702 109.024 287.363 109.319 286.94 109.527C286.517 109.728 286.031 109.829 285.481 109.829ZM292.016 109.829C291.352 109.829 290.775 109.684 290.285 109.396C289.802 109.101 289.43 108.681 289.168 108.138C288.913 107.588 288.786 106.94 288.786 106.196C288.786 105.444 288.917 104.794 289.178 104.243C289.44 103.693 289.812 103.274 290.295 102.985C290.778 102.697 291.355 102.553 292.026 102.553C292.583 102.553 293.07 102.653 293.486 102.855C293.901 103.056 294.234 103.338 294.482 103.7C294.737 104.056 294.898 104.478 294.965 104.968L293.596 105.34C293.516 104.851 293.341 104.475 293.073 104.213C292.805 103.952 292.459 103.821 292.036 103.821C291.688 103.821 291.386 103.915 291.131 104.102C290.876 104.29 290.681 104.562 290.547 104.918C290.413 105.273 290.346 105.699 290.346 106.196C290.346 106.685 290.413 107.108 290.547 107.464C290.681 107.819 290.876 108.091 291.131 108.279C291.386 108.467 291.688 108.561 292.036 108.561C292.479 108.561 292.835 108.423 293.103 108.148C293.371 107.873 293.543 107.467 293.616 106.93L294.985 107.293C294.918 107.809 294.754 108.259 294.492 108.641C294.237 109.024 293.898 109.319 293.475 109.527C293.053 109.728 292.566 109.829 292.016 109.829ZM298.632 109.829C297.948 109.829 297.357 109.684 296.861 109.396C296.365 109.101 295.982 108.681 295.714 108.138C295.452 107.595 295.321 106.944 295.321 106.186C295.321 105.428 295.455 104.777 295.724 104.233C295.992 103.69 296.375 103.274 296.871 102.985C297.374 102.697 297.961 102.553 298.632 102.553C299.323 102.553 299.917 102.697 300.413 102.985C300.917 103.267 301.299 103.68 301.561 104.223C301.829 104.767 301.963 105.421 301.963 106.186C301.963 106.944 301.829 107.598 301.561 108.148C301.292 108.692 300.907 109.107 300.403 109.396C299.907 109.684 299.317 109.829 298.632 109.829ZM298.642 108.561C299.005 108.561 299.32 108.467 299.588 108.279C299.857 108.091 300.061 107.823 300.202 107.474C300.343 107.118 300.413 106.689 300.413 106.186C300.413 105.676 300.343 105.246 300.202 104.898C300.061 104.542 299.857 104.274 299.588 104.092C299.327 103.911 299.011 103.821 298.642 103.821C298.28 103.821 297.965 103.915 297.696 104.102C297.435 104.284 297.233 104.552 297.092 104.908C296.952 105.256 296.881 105.682 296.881 106.186C296.881 106.689 296.948 107.118 297.082 107.474C297.223 107.823 297.425 108.091 297.686 108.279C297.955 108.467 298.273 108.561 298.642 108.561ZM302.77 106.186L302.739 102.704H305.557C306.456 102.704 307.134 102.885 307.59 103.247C308.053 103.609 308.284 104.149 308.284 104.867C308.284 105.337 308.167 105.726 307.932 106.035C307.704 106.337 307.365 106.545 306.916 106.659L306.483 106.397C306.825 106.437 307.107 106.528 307.328 106.669C307.55 106.81 307.721 107.004 307.842 107.252C307.962 107.501 308.04 107.816 308.073 108.198L308.113 108.571C308.14 108.846 308.17 109.074 308.204 109.255C308.238 109.429 308.284 109.57 308.345 109.678H306.785C306.738 109.57 306.694 109.413 306.654 109.205C306.621 108.997 306.587 108.708 306.554 108.339C306.554 108.319 306.55 108.296 306.543 108.269C306.517 107.933 306.46 107.685 306.372 107.524C306.285 107.363 306.161 107.256 306 107.202C305.846 107.142 305.621 107.112 305.326 107.112H304.259L304.279 109.678H302.739L302.77 106.186ZM305.477 105.984C305.772 105.984 306.017 105.944 306.211 105.864C306.413 105.783 306.564 105.669 306.664 105.521C306.765 105.367 306.815 105.179 306.815 104.958C306.815 104.622 306.708 104.371 306.493 104.203C306.285 104.029 305.96 103.941 305.517 103.941H304.259V105.984H305.477ZM311.782 109.829C310.91 109.829 310.226 109.637 309.729 109.255C309.233 108.873 308.934 108.336 308.834 107.645L310.092 107.323C310.186 107.752 310.36 108.074 310.615 108.289C310.877 108.497 311.252 108.601 311.742 108.601C312.125 108.601 312.416 108.524 312.618 108.369C312.819 108.208 312.92 107.997 312.92 107.735C312.92 107.561 312.873 107.413 312.779 107.293C312.691 107.165 312.547 107.058 312.346 106.971C312.145 106.877 311.876 106.796 311.541 106.729C310.695 106.555 310.072 106.3 309.669 105.964C309.266 105.622 309.065 105.152 309.065 104.555C309.065 104.133 309.162 103.774 309.357 103.479C309.552 103.177 309.83 102.949 310.192 102.794C310.555 102.633 310.987 102.553 311.491 102.553C312.296 102.553 312.936 102.734 313.413 103.096C313.889 103.458 314.181 103.952 314.288 104.575L312.99 104.908C312.95 104.579 312.805 104.307 312.557 104.092C312.309 103.878 311.977 103.77 311.561 103.77C311.239 103.77 310.987 103.841 310.806 103.982C310.625 104.123 310.534 104.314 310.534 104.555C310.534 104.716 310.578 104.857 310.665 104.978C310.753 105.092 310.893 105.193 311.088 105.28C311.283 105.36 311.554 105.438 311.903 105.511C312.507 105.632 312.99 105.79 313.352 105.984C313.715 106.179 313.98 106.42 314.147 106.709C314.322 106.991 314.409 107.336 314.409 107.746C314.409 108.195 314.295 108.577 314.067 108.893C313.839 109.201 313.527 109.436 313.131 109.597C312.735 109.752 312.286 109.829 311.782 109.829ZM318.17 109.829C317.485 109.829 316.895 109.684 316.399 109.396C315.902 109.101 315.52 108.681 315.251 108.138C314.99 107.595 314.859 106.944 314.859 106.186C314.859 105.428 314.993 104.777 315.261 104.233C315.53 103.69 315.912 103.274 316.409 102.985C316.912 102.697 317.499 102.553 318.17 102.553C318.861 102.553 319.455 102.697 319.951 102.985C320.454 103.267 320.837 103.68 321.098 104.223C321.367 104.767 321.501 105.421 321.501 106.186C321.501 106.944 321.367 107.598 321.098 108.148C320.83 108.692 320.444 109.107 319.941 109.396C319.444 109.684 318.854 109.829 318.17 109.829ZM318.18 108.561C318.542 108.561 318.857 108.467 319.126 108.279C319.394 108.091 319.599 107.823 319.74 107.474C319.881 107.118 319.951 106.689 319.951 106.186C319.951 105.676 319.881 105.246 319.74 104.898C319.599 104.542 319.394 104.274 319.126 104.092C318.864 103.911 318.549 103.821 318.18 103.821C317.818 103.821 317.502 103.915 317.234 104.102C316.972 104.284 316.771 104.552 316.63 104.908C316.489 105.256 316.419 105.682 316.419 106.186C316.419 106.689 316.486 107.118 316.62 107.474C316.761 107.823 316.962 108.091 317.224 108.279C317.492 108.467 317.811 108.561 318.18 108.561Z" fill="white"/>
<rect x="70.9531" y="32" width="260.849" height="87.5641" stroke="white" stroke-width="0.934135"/>
<rect x="205.135" y="94.2373" width="126.667" height="25.2261" stroke="white" stroke-width="0.934135"/>
<path d="M205.135 94.7044L70.9532 94.7044V93.7702L205.135 93.7702V94.7044Z" fill="white"/>
</svg>
