<svg width="606" height="400" viewBox="0 0 606 400" fill="none" xmlns="http://www.w3.org/2000/svg">
<rect width="606" height="400" rx="30" fill="url(#paint0_linear_848_30717)"/>
<mask id="path-2-inside-1_848_30717" fill="white">
<path d="M346.547 160.423L333.544 240.452H354.366L367.369 160.423H346.547ZM482.34 160.423H465.6C457.862 160.423 455.987 166.379 455.987 166.379L424.914 240.452H446.64L450.988 228.565H477.487L479.88 240.452H499L482.34 160.423ZM456.958 212.131L467.901 182.188L474.07 212.131H456.958ZM426.51 179.675L429.502 162.484C423.481 160.335 417.157 159.159 410.767 159C400.423 159 375.865 163.507 375.865 185.499C375.865 206.161 404.678 206.427 404.678 217.29C404.678 228.153 378.817 226.185 370.294 219.351L367.183 237.34C374.629 240.449 382.637 241.983 390.704 241.848C404.917 241.848 426.35 234.482 426.35 214.431C426.35 193.636 397.272 191.695 397.272 182.654C397.272 173.612 417.602 174.756 426.523 179.675"/>
</mask>
<path d="M346.547 160.423L333.544 240.452H354.366L367.369 160.423H346.547ZM482.34 160.423H465.6C457.862 160.423 455.987 166.379 455.987 166.379L424.914 240.452H446.64L450.988 228.565H477.487L479.88 240.452H499L482.34 160.423ZM456.958 212.131L467.901 182.188L474.07 212.131H456.958ZM426.51 179.675L429.502 162.484C423.481 160.335 417.157 159.159 410.767 159C400.423 159 375.865 163.507 375.865 185.499C375.865 206.161 404.678 206.427 404.678 217.29C404.678 228.153 378.817 226.185 370.294 219.351L367.183 237.34C374.629 240.449 382.637 241.983 390.704 241.848C404.917 241.848 426.35 234.482 426.35 214.431C426.35 193.636 397.272 191.695 397.272 182.654C397.272 173.612 417.602 174.756 426.523 179.675" fill="white"/>
<path d="M346.547 160.423V159.423H345.697L345.56 160.262L346.547 160.423ZM333.544 240.452L332.557 240.291L332.368 241.452H333.544V240.452ZM354.366 240.452V241.452H355.216L355.353 240.612L354.366 240.452ZM367.369 160.423L368.356 160.583L368.545 159.423H367.369V160.423ZM482.34 160.423L483.319 160.219L483.153 159.423H482.34V160.423ZM455.987 166.379L456.909 166.766L456.927 166.724L456.941 166.68L455.987 166.379ZM424.914 240.452L423.992 240.065L423.411 241.452H424.914V240.452ZM446.64 240.452V241.452H447.339L447.579 240.795L446.64 240.452ZM450.988 228.565V227.565H450.289L450.049 228.221L450.988 228.565ZM477.487 228.565L478.467 228.368L478.306 227.565H477.487V228.565ZM479.88 240.452L478.9 240.649L479.062 241.452H479.88V240.452ZM499 240.452V241.452H500.23L499.979 240.248L499 240.452ZM456.958 212.131L456.019 211.788L455.528 213.131H456.958V212.131ZM467.901 182.188L468.88 181.987L468.17 178.539L466.961 181.845L467.901 182.188ZM474.07 212.131V213.131H475.297L475.049 211.929L474.07 212.131ZM429.502 162.484L430.487 162.655L430.631 161.825L429.838 161.542L429.502 162.484ZM410.767 159L410.792 158L410.78 158H410.767V159ZM370.294 219.351L370.92 218.571L369.598 217.51L369.309 219.18L370.294 219.351ZM367.183 237.34L366.198 237.17L366.062 237.956L366.798 238.263L367.183 237.34ZM390.704 241.848V240.848H390.695L390.687 240.848L390.704 241.848ZM345.56 160.262L332.557 240.291L334.531 240.612L347.535 160.583L345.56 160.262ZM333.544 241.452H354.366V239.452H333.544V241.452ZM355.353 240.612L368.356 160.583L366.382 160.262L353.379 240.291L355.353 240.612ZM367.369 159.423H346.547V161.423H367.369V159.423ZM482.34 159.423H465.6V161.423H482.34V159.423ZM465.6 159.423C461.439 159.423 458.782 161.037 457.172 162.707C456.377 163.531 455.849 164.356 455.518 164.979C455.352 165.292 455.235 165.555 455.157 165.746C455.118 165.841 455.089 165.919 455.069 165.975C455.059 166.004 455.051 166.027 455.045 166.044C455.042 166.053 455.04 166.06 455.038 166.066C455.037 166.069 455.036 166.071 455.035 166.074C455.035 166.075 455.035 166.076 455.034 166.077C455.034 166.077 455.034 166.078 455.034 166.078C455.034 166.079 455.033 166.079 455.987 166.379C456.941 166.68 456.941 166.68 456.941 166.681C456.941 166.681 456.941 166.681 456.941 166.681C456.94 166.682 456.94 166.682 456.94 166.683C456.94 166.684 456.94 166.684 456.94 166.684C456.94 166.684 456.94 166.683 456.941 166.68C456.943 166.675 456.946 166.665 456.952 166.65C456.963 166.619 456.982 166.568 457.009 166.501C457.064 166.366 457.153 166.164 457.284 165.918C457.547 165.424 457.971 164.76 458.612 164.095C459.874 162.786 462.023 161.423 465.6 161.423V159.423ZM455.065 165.992L423.992 240.065L425.837 240.838L456.909 166.766L455.065 165.992ZM424.914 241.452H446.64V239.452H424.914V241.452ZM447.579 240.795L451.927 228.908L450.049 228.221L445.701 240.108L447.579 240.795ZM450.988 229.565H477.487V227.565H450.988V229.565ZM476.507 228.762L478.9 240.649L480.861 240.254L478.467 228.368L476.507 228.762ZM479.88 241.452H499V239.452H479.88V241.452ZM499.979 240.248L483.319 160.219L481.361 160.626L498.021 240.655L499.979 240.248ZM457.897 212.474L468.84 182.532L466.961 181.845L456.019 211.788L457.897 212.474ZM466.921 182.39L473.091 212.333L475.049 211.929L468.88 181.987L466.921 182.39ZM474.07 211.131H456.958V213.131H474.07V211.131ZM427.495 179.847L430.487 162.655L428.516 162.312L425.525 179.504L427.495 179.847ZM429.838 161.542C423.718 159.358 417.289 158.162 410.792 158L410.743 160C417.026 160.156 423.245 161.313 429.165 163.425L429.838 161.542ZM410.767 158C405.492 158 396.594 159.143 388.975 163.116C381.309 167.114 374.865 174.033 374.865 185.499H376.865C376.865 174.973 382.701 168.643 389.9 164.889C397.146 161.111 405.698 160 410.767 160V158ZM374.865 185.499C374.865 196.433 382.553 201.92 389.785 205.943C393.479 207.998 396.957 209.628 399.606 211.467C402.241 213.297 403.678 215.089 403.678 217.29H405.678C405.678 214.059 403.513 211.745 400.746 209.824C397.993 207.912 394.267 206.148 390.758 204.195C383.584 200.204 376.865 195.227 376.865 185.499H374.865ZM403.678 217.29C403.678 219.505 402.401 221.128 400.069 222.255C397.702 223.4 394.372 223.951 390.681 223.957C387.006 223.962 383.063 223.427 379.522 222.474C375.966 221.516 372.899 220.158 370.92 218.571L369.669 220.131C371.95 221.961 375.313 223.411 379.002 224.405C382.708 225.403 386.827 225.963 390.684 225.957C394.522 225.951 398.191 225.385 400.939 224.056C403.722 222.711 405.678 220.506 405.678 217.29H403.678ZM369.309 219.18L366.198 237.17L368.168 237.511L371.28 219.521L369.309 219.18ZM366.798 238.263C374.371 241.425 382.515 242.985 390.72 242.848L390.687 240.848C382.758 240.981 374.886 239.473 367.568 236.418L366.798 238.263ZM390.704 242.848C397.953 242.848 407.054 240.975 414.377 236.512C421.736 232.028 427.35 224.885 427.35 214.431H425.35C425.35 224.028 420.248 230.593 413.337 234.804C406.39 239.037 397.668 240.848 390.704 240.848V242.848ZM427.35 214.431C427.35 203.449 419.623 197.508 412.313 193.27C410.478 192.206 408.642 191.234 406.948 190.319C405.243 189.397 403.686 188.535 402.362 187.671C399.627 185.887 398.272 184.335 398.272 182.654H396.272C396.272 185.493 398.552 187.574 401.269 189.346C402.671 190.261 404.294 191.158 405.997 192.078C407.711 193.004 409.509 193.956 411.31 195C418.539 199.191 425.35 204.618 425.35 214.431H427.35ZM398.272 182.654C398.272 180.861 399.242 179.53 401.057 178.565C402.913 177.579 405.562 177.041 408.589 176.929C414.646 176.704 421.771 178.197 426.04 180.551L427.006 178.8C422.354 176.234 414.853 174.695 408.515 174.93C405.345 175.047 402.353 175.611 400.118 176.799C397.843 178.009 396.272 179.926 396.272 182.654H398.272Z" fill="white" mask="url(#path-2-inside-1_848_30717)"/>
<path d="M283.984 239.951L266.938 178.319C269.086 179.73 271.156 181.257 273.14 182.892C279.259 187.996 284.601 193.966 288.997 200.613L288.999 200.616C290.888 203.422 292.319 205.862 293.217 207.535L295.569 215.556L296 217.024L296.519 215.585L316.264 160.87L337.676 160.908L304.942 239.951H283.984Z" fill="white" stroke="white"/>
<path d="M274.909 176.924L274.909 176.924L274.902 176.918C271.988 174.573 268.917 172.428 265.713 170.498C260.407 167.296 254.761 164.694 248.879 162.742C248.431 162.579 247.994 162.443 247.518 162.32L246.439 162.004L245.845 161.819L245.835 161.816L245.824 161.813L245.066 161.614L245.066 161.614L245.062 161.613L244.438 161.453L244.377 161.438H244.328L244.424 161.108H276.956V161.108L276.966 161.108C278.349 161.079 279.726 161.295 281.034 161.746L281.041 161.748L281.048 161.75C281.225 161.806 281.399 161.87 281.57 161.944L281.588 161.952L281.607 161.959C281.764 162.013 281.915 162.083 282.058 162.168L282.073 162.177L282.09 162.185C283.195 162.739 284.154 163.545 284.89 164.537C285.626 165.53 286.119 166.682 286.329 167.899L286.328 167.899L286.33 167.91L291.721 195.75C287.071 188.69 281.408 182.346 274.909 176.924Z" fill="white" stroke="white"/>
<mask id="path-6-inside-2_848_30717" fill="white">
<path d="M154.978 197.451V197.212C163.487 194.646 170.587 189.514 170.587 179.462C170.587 171.285 164.737 165.567 157.969 163.227C152.143 161.264 146.021 160.324 139.874 160.448C139.581 160.448 139.235 160.448 138.85 160.448H90.3989L90 161.778C97.0298 163.511 103.777 166.238 110.037 169.875C110.53 170.163 110.921 170.596 111.159 171.115C111.397 171.633 111.469 172.213 111.367 172.774L99.0679 238.35C99.0601 238.383 99.0592 238.418 99.0651 238.451C99.071 238.485 99.0837 238.517 99.1023 238.545C99.1209 238.574 99.1452 238.599 99.1735 238.617C99.2019 238.636 99.2338 238.649 99.2674 238.656C106.874 239.897 114.577 240.449 122.283 240.304C136.988 240.304 148.21 238.563 155.443 234.255C162.676 229.947 167.715 223.964 167.715 214.63C167.715 205.854 162.69 199.911 154.978 197.451M128.931 224.043C126.766 224.092 124.6 224.021 122.442 223.831C122.406 223.826 122.37 223.814 122.338 223.795C122.306 223.776 122.278 223.751 122.256 223.721C122.233 223.692 122.217 223.658 122.208 223.622C122.199 223.586 122.197 223.548 122.203 223.512L125.381 206.439C125.393 206.378 125.427 206.324 125.475 206.285C125.524 206.246 125.585 206.225 125.647 206.227H130.088C138.145 206.227 145.285 207.157 145.285 214.63C145.285 221.65 137.307 224.11 128.931 224.11M134.688 191.136H129.011C128.971 191.136 128.931 191.128 128.895 191.112C128.859 191.095 128.826 191.071 128.801 191.04C128.775 191.009 128.757 190.973 128.747 190.935C128.738 190.896 128.737 190.856 128.745 190.817L131.404 177.414C131.412 177.361 131.437 177.311 131.475 177.273C131.513 177.234 131.563 177.209 131.617 177.201C133.818 176.884 136.041 176.737 138.265 176.763C143.995 176.763 149.008 178.092 149.008 183.411C149.008 188.543 143.291 191.136 134.768 191.136"/>
</mask>
<path d="M154.978 197.451V197.212C163.487 194.646 170.587 189.514 170.587 179.462C170.587 171.285 164.737 165.567 157.969 163.227C152.143 161.264 146.021 160.324 139.874 160.448C139.581 160.448 139.235 160.448 138.85 160.448H90.3989L90 161.778C97.0298 163.511 103.777 166.238 110.037 169.875C110.53 170.163 110.921 170.596 111.159 171.115C111.397 171.633 111.469 172.213 111.367 172.774L99.0679 238.35C99.0601 238.383 99.0592 238.418 99.0651 238.451C99.071 238.485 99.0837 238.517 99.1023 238.545C99.1209 238.574 99.1452 238.599 99.1735 238.617C99.2019 238.636 99.2338 238.649 99.2674 238.656C106.874 239.897 114.577 240.449 122.283 240.304C136.988 240.304 148.21 238.563 155.443 234.255C162.676 229.947 167.715 223.964 167.715 214.63C167.715 205.854 162.69 199.911 154.978 197.451M128.931 224.043C126.766 224.092 124.6 224.021 122.442 223.831C122.406 223.826 122.37 223.814 122.338 223.795C122.306 223.776 122.278 223.751 122.256 223.721C122.233 223.692 122.217 223.658 122.208 223.622C122.199 223.586 122.197 223.548 122.203 223.512L125.381 206.439C125.393 206.378 125.427 206.324 125.475 206.285C125.524 206.246 125.585 206.225 125.647 206.227H130.088C138.145 206.227 145.285 207.157 145.285 214.63C145.285 221.65 137.307 224.11 128.931 224.11M134.688 191.136H129.011C128.971 191.136 128.931 191.128 128.895 191.112C128.859 191.095 128.826 191.071 128.801 191.04C128.775 191.009 128.757 190.973 128.747 190.935C128.738 190.896 128.737 190.856 128.745 190.817L131.404 177.414C131.412 177.361 131.437 177.311 131.475 177.273C131.513 177.234 131.563 177.209 131.617 177.201C133.818 176.884 136.041 176.737 138.265 176.763C143.995 176.763 149.008 178.092 149.008 183.411C149.008 188.543 143.291 191.136 134.768 191.136" fill="white"/>
<path d="M154.978 197.212L154.689 196.255L153.978 196.469V197.212H154.978ZM157.969 163.227L158.296 162.282L158.289 162.28L157.969 163.227ZM139.874 160.448L139.874 161.448H139.884L139.894 161.448L139.874 160.448ZM90.3989 160.448V159.448H89.6548L89.4411 160.161L90.3989 160.448ZM90 161.778L89.0422 161.491L88.7402 162.497L89.7606 162.749L90 161.778ZM110.037 169.875L110.542 169.012L110.54 169.011L110.037 169.875ZM111.367 172.774L112.35 172.958L112.35 172.954L111.367 172.774ZM99.0679 238.35L100.042 238.578L100.047 238.556L100.051 238.534L99.0679 238.35ZM99.2674 238.656L99.0831 239.639L99.0947 239.641L99.1063 239.643L99.2674 238.656ZM122.283 240.304V239.304H122.273L122.264 239.305L122.283 240.304ZM122.442 223.831L122.311 224.822L122.333 224.825L122.354 224.827L122.442 223.831ZM122.203 223.512L121.22 223.329L121.217 223.344L121.215 223.36L122.203 223.512ZM125.381 206.439L124.401 206.24L124.399 206.248L124.398 206.256L125.381 206.439ZM125.647 206.227L125.627 207.226L125.637 207.227H125.647V206.227ZM129.011 191.136V190.136H129.001L128.99 190.136L129.011 191.136ZM128.745 190.817L129.724 191.017L129.726 191.011L128.745 190.817ZM131.404 177.414L132.385 177.609L132.389 177.585L132.393 177.561L131.404 177.414ZM131.617 177.201L131.474 176.212L131.47 176.212L131.617 177.201ZM138.265 176.763L138.253 177.763H138.265V176.763ZM155.978 197.451V197.212H153.978V197.451H155.978ZM155.267 198.169C159.61 196.859 163.685 194.87 166.683 191.848C169.707 188.801 171.587 184.752 171.587 179.462H169.587C169.587 184.223 167.917 187.766 165.264 190.44C162.585 193.139 158.855 194.998 154.689 196.255L155.267 198.169ZM171.587 179.462C171.587 170.734 165.335 164.716 158.296 162.282L157.643 164.172C164.139 166.419 169.587 171.835 169.587 179.462H171.587ZM158.289 162.28C152.353 160.28 146.116 159.322 139.853 159.449L139.894 161.448C145.925 161.326 151.933 162.249 157.65 164.175L158.289 162.28ZM139.874 159.448C139.58 159.448 139.236 159.448 138.85 159.448V161.448C139.236 161.448 139.58 161.448 139.874 161.448L139.874 159.448ZM138.85 159.448H90.3989V161.448H138.85V159.448ZM89.4411 160.161L89.0422 161.491L90.9578 162.065L91.3567 160.736L89.4411 160.161ZM89.7606 162.749C96.6982 164.46 103.357 167.15 109.535 170.74L110.54 169.011C104.197 165.326 97.3615 162.563 90.2394 160.807L89.7606 162.749ZM109.532 170.738C109.847 170.923 110.098 171.2 110.25 171.532L112.068 170.698C111.745 169.993 111.212 169.404 110.542 169.012L109.532 170.738ZM110.25 171.532C110.402 171.864 110.449 172.234 110.383 172.594L112.35 172.954C112.49 172.191 112.392 171.403 112.068 170.698L110.25 171.532ZM110.384 172.589L98.085 238.166L100.051 238.534L112.35 172.958L110.384 172.589ZM98.0942 238.122C98.0556 238.287 98.0509 238.458 98.0802 238.624L100.05 238.278C100.067 238.377 100.065 238.479 100.042 238.578L98.0942 238.122ZM98.0802 238.624C98.1095 238.791 98.1723 238.95 98.2647 239.092L99.9399 237.999C99.995 238.084 100.032 238.179 100.05 238.278L98.0802 238.624ZM98.2647 239.092C98.3571 239.233 98.4772 239.355 98.6179 239.449L99.7292 237.786C99.8131 237.842 99.8848 237.915 99.9399 237.999L98.2647 239.092ZM98.6179 239.449C98.7586 239.543 98.9168 239.607 99.0831 239.639L99.4516 237.673C99.5508 237.691 99.6452 237.73 99.7292 237.786L98.6179 239.449ZM99.1063 239.643C106.772 240.894 114.536 241.45 122.302 241.304L122.264 239.305C114.618 239.448 106.976 238.9 99.4284 237.669L99.1063 239.643ZM122.283 241.304C137.015 241.304 148.474 239.569 155.955 235.114L154.931 233.396C147.946 237.556 136.962 239.304 122.283 239.304V241.304ZM155.955 235.114C163.382 230.691 168.715 224.427 168.715 214.63H166.715C166.715 223.5 161.971 229.203 154.931 233.396L155.955 235.114ZM168.715 214.63C168.715 210.043 167.399 206.144 165.032 203.063C162.668 199.987 159.3 197.78 155.282 196.499L154.674 198.404C158.367 199.582 161.368 201.577 163.446 204.281C165.519 206.981 166.715 210.441 166.715 214.63H168.715ZM128.908 223.044C126.78 223.092 124.651 223.022 122.53 222.835L122.354 224.827C124.548 225.021 126.751 225.093 128.953 225.043L128.908 223.044ZM122.574 222.839C122.669 222.852 122.76 222.883 122.843 222.932L121.833 224.658C121.98 224.744 122.142 224.8 122.311 224.822L122.574 222.839ZM122.843 222.932C122.926 222.98 122.998 223.045 123.056 223.121L121.456 224.321C121.558 224.458 121.686 224.572 121.833 224.658L122.843 222.932ZM123.056 223.121C123.113 223.198 123.155 223.286 123.178 223.379L121.238 223.865C121.28 224.03 121.354 224.185 121.456 224.321L123.056 223.121ZM123.178 223.379C123.201 223.472 123.206 223.568 123.192 223.663L121.215 223.36C121.189 223.528 121.197 223.7 121.238 223.865L123.178 223.379ZM123.186 223.695L126.364 206.622L124.398 206.256L121.22 223.329L123.186 223.695ZM126.361 206.639C126.326 206.808 126.234 206.958 126.1 207.066L124.851 205.504C124.619 205.689 124.46 205.949 124.401 206.24L126.361 206.639ZM126.1 207.066C125.966 207.173 125.798 207.23 125.627 207.226L125.667 205.227C125.371 205.221 125.082 205.319 124.851 205.504L126.1 207.066ZM125.647 207.227H130.088V205.227H125.647V207.227ZM130.088 207.227C134.124 207.227 137.736 207.468 140.322 208.549C141.592 209.079 142.564 209.792 143.224 210.737C143.881 211.677 144.285 212.927 144.285 214.63H146.285C146.285 212.597 145.797 210.928 144.863 209.592C143.933 208.26 142.616 207.34 141.093 206.703C138.095 205.45 134.108 205.227 130.088 205.227V207.227ZM144.285 214.63C144.285 217.658 142.608 219.731 139.809 221.105C136.962 222.502 133.048 223.11 128.931 223.11V225.11C133.191 225.11 137.453 224.488 140.69 222.9C143.973 221.289 146.285 218.622 146.285 214.63H144.285ZM134.688 190.136H129.011V192.136H134.688V190.136ZM128.99 190.136C129.101 190.134 129.21 190.156 129.31 190.202L128.48 192.022C128.653 192.1 128.841 192.139 129.031 192.135L128.99 190.136ZM129.31 190.202C129.41 190.248 129.499 190.315 129.569 190.4L128.033 191.68C128.154 191.826 128.307 191.943 128.48 192.022L129.31 190.202ZM129.569 190.4C129.64 190.484 129.69 190.584 129.717 190.691L127.778 191.179C127.824 191.363 127.911 191.534 128.033 191.68L129.569 190.4ZM129.717 190.691C129.744 190.797 129.747 190.909 129.724 191.017L127.765 190.616C127.727 190.802 127.731 190.995 127.778 191.179L129.717 190.691ZM129.726 191.011L132.385 177.609L130.423 177.219L127.764 190.622L129.726 191.011ZM132.393 177.561C132.369 177.72 132.296 177.866 132.182 177.98L130.768 176.566C130.578 176.755 130.454 177.001 130.415 177.267L132.393 177.561ZM132.182 177.98C132.069 178.093 131.922 178.167 131.764 178.191L131.47 176.212C131.204 176.252 130.958 176.376 130.768 176.566L132.182 177.98ZM131.759 178.191C133.91 177.881 136.081 177.738 138.253 177.763L138.276 175.763C136.001 175.737 133.726 175.887 131.474 176.212L131.759 178.191ZM138.265 177.763C141.088 177.763 143.58 178.096 145.334 178.984C146.194 179.42 146.849 179.975 147.293 180.668C147.735 181.357 148.008 182.244 148.008 183.411H150.008C150.008 181.918 149.654 180.644 148.977 179.588C148.302 178.536 147.346 177.762 146.237 177.2C144.052 176.094 141.172 175.763 138.265 175.763V177.763ZM148.008 183.411C148.008 185.514 146.874 187.147 144.625 188.309C142.331 189.495 138.952 190.136 134.768 190.136V192.136C139.106 192.136 142.848 191.48 145.543 190.086C148.283 188.669 150.008 186.439 150.008 183.411H148.008Z" fill="white" mask="url(#path-6-inside-2_848_30717)"/>
<mask id="path-8-inside-3_848_30717" fill="white">
<path d="M253.169 198.195C252.252 211.677 246.946 222.766 238.543 230.252C230.14 237.737 219.264 241.553 206.487 240.689C186.822 239.359 173.246 225.332 174.736 203.035C175.693 189.433 181.224 178.251 189.667 170.765C193.996 166.935 199.054 164.019 204.537 162.191C210.021 160.364 215.816 159.662 221.578 160.128C241.522 161.458 254.818 174.993 253.209 198.142M204.878 182.186C199.559 187.199 196.182 195.137 195.57 203.035C194.746 215.586 199.838 223.178 210.475 223.909C212.842 224.017 215.205 223.63 217.414 222.774C219.623 221.918 221.63 220.611 223.306 218.937C228.412 214.137 231.776 206.319 232.334 198.062C233.105 186.774 229.595 177.785 218.227 177.001C215.759 176.886 213.295 177.288 210.991 178.181C208.688 179.074 206.597 180.438 204.851 182.186"/>
</mask>
<path d="M253.169 198.195C252.252 211.677 246.946 222.766 238.543 230.252C230.14 237.737 219.264 241.553 206.487 240.689C186.822 239.359 173.246 225.332 174.736 203.035C175.693 189.433 181.224 178.251 189.667 170.765C193.996 166.935 199.054 164.019 204.537 162.191C210.021 160.364 215.816 159.662 221.578 160.128C241.522 161.458 254.818 174.993 253.209 198.142M204.878 182.186C199.559 187.199 196.182 195.137 195.57 203.035C194.746 215.586 199.838 223.178 210.475 223.909C212.842 224.017 215.205 223.63 217.414 222.774C219.623 221.918 221.63 220.611 223.306 218.937C228.412 214.137 231.776 206.319 232.334 198.062C233.105 186.774 229.595 177.785 218.227 177.001C215.759 176.886 213.295 177.288 210.991 178.181C208.688 179.074 206.597 180.438 204.851 182.186" fill="white"/>
<path d="M206.487 240.689L206.554 239.691L206.554 239.691L206.487 240.689ZM174.736 203.035L173.738 202.964L173.738 202.968L174.736 203.035ZM189.667 170.765L189.004 170.016L189.004 170.017L189.667 170.765ZM221.578 160.128L221.497 161.125L221.504 161.126L221.511 161.126L221.578 160.128ZM195.57 203.035L194.573 202.957L194.573 202.969L195.57 203.035ZM210.475 223.909L210.407 224.907L210.418 224.908L210.43 224.908L210.475 223.909ZM223.306 218.937L222.621 218.208L222.61 218.219L222.599 218.229L223.306 218.937ZM232.334 198.062L231.336 197.994L231.336 197.994L232.334 198.062ZM218.227 177.001L218.296 176.003L218.285 176.003L218.273 176.002L218.227 177.001ZM252.171 198.127C251.269 211.382 246.062 222.215 237.878 229.505L239.208 230.998C247.831 223.317 253.234 211.972 254.167 198.263L252.171 198.127ZM237.878 229.505C229.686 236.803 219.077 240.538 206.554 239.691L206.419 241.687C219.451 242.568 230.595 238.672 239.208 230.998L237.878 229.505ZM206.554 239.691C196.945 239.042 188.896 235.298 183.43 229.065C177.966 222.836 175.004 214.028 175.733 203.101L173.738 202.968C172.978 214.338 176.059 223.694 181.926 230.384C187.792 237.072 196.363 241.007 206.419 241.687L206.554 239.691ZM175.733 203.105C176.674 189.738 182.102 178.809 190.33 171.513L189.004 170.017C180.346 177.693 174.712 189.128 173.738 202.964L175.733 203.105ZM190.33 171.514C194.558 167.774 199.498 164.925 204.853 163.14L204.221 161.243C198.61 163.113 193.434 166.097 189.004 170.016L190.33 171.514ZM204.853 163.14C210.209 161.355 215.87 160.67 221.497 161.125L221.658 159.131C215.763 158.654 209.832 159.372 204.221 161.243L204.853 163.14ZM221.511 161.126C231.272 161.777 239.313 165.404 244.722 171.61C250.128 177.813 253.001 186.705 252.211 198.072L254.206 198.211C255.025 186.43 252.055 176.98 246.229 170.296C240.406 163.614 231.827 159.809 221.644 159.13L221.511 161.126ZM204.192 181.459C198.661 186.671 195.201 194.858 194.573 202.957L196.567 203.112C197.163 195.416 200.457 187.727 205.564 182.914L204.192 181.459ZM194.573 202.969C194.152 209.373 195.228 214.667 197.907 218.479C200.61 222.328 204.845 224.525 210.407 224.907L210.544 222.912C205.469 222.563 201.839 220.598 199.543 217.33C197.222 214.026 196.165 209.247 196.568 203.1L194.573 202.969ZM210.43 224.908C212.935 225.022 215.437 224.613 217.776 223.707L217.053 221.842C214.973 222.648 212.749 223.012 210.521 222.91L210.43 224.908ZM217.776 223.707C220.114 222.8 222.238 221.417 224.013 219.644L222.599 218.229C221.021 219.805 219.133 221.036 217.053 221.842L217.776 223.707ZM223.991 219.665C229.315 214.66 232.76 206.587 233.332 198.129L231.336 197.994C230.791 206.05 227.509 213.613 222.621 218.208L223.991 219.665ZM233.332 198.13C233.724 192.393 233.043 187.09 230.695 183.087C228.31 179.017 224.276 176.416 218.296 176.003L218.158 177.999C223.546 178.37 226.951 180.655 228.97 184.098C231.027 187.607 231.716 192.443 231.336 197.994L233.332 198.13ZM218.273 176.002C215.667 175.881 213.063 176.305 210.63 177.249L211.353 179.113C213.526 178.271 215.852 177.892 218.18 178L218.273 176.002ZM210.63 177.249C208.197 178.192 205.987 179.633 204.143 181.48L205.559 182.893C207.206 181.243 209.179 179.956 211.353 179.113L210.63 177.249Z" fill="white" mask="url(#path-8-inside-3_848_30717)"/>
<defs>
<linearGradient id="paint0_linear_848_30717" x1="24.4609" y1="-141.667" x2="710.258" y2="328.85" gradientUnits="userSpaceOnUse">
<stop stop-color="#FFB26A"/>
<stop offset="1" stop-color="#FF4466"/>
</linearGradient>
</defs>
</svg>
