<svg width="205" height="60" viewBox="0 0 205 60" fill="none" xmlns="http://www.w3.org/2000/svg">
<path d="M10.8565 43.1561C5.39923 43.1561 1.27724 39.0922 1.27724 32.6189C1.27724 26.5811 5.13798 22.6042 10.6823 22.6042C15.3849 22.6042 18.1135 25.507 18.1135 27.4809C18.1135 28.4969 17.3878 29.2226 16.3719 29.2226C13.6142 29.2226 13.6722 24.2588 9.66636 24.2588C6.58938 24.2588 4.93478 27.0745 4.93478 31.4288C4.93478 37.4376 8.38913 40.1372 11.9015 40.1372C14.3689 40.1372 15.7332 39.2664 16.9234 37.9601C17.2717 37.6118 17.533 37.4666 17.7942 37.4666C18.2877 37.4666 18.549 37.7859 18.549 38.1923C18.549 38.6277 18.4038 38.947 18.2587 39.2664C17.4749 40.8339 15.3268 43.1561 10.8565 43.1561ZM21.5103 42.7207C20.6104 42.7207 20.175 42.5175 20.175 41.966C20.175 41.1242 21.8006 41.1242 21.8006 39.963V25.0136C21.8296 24.5201 21.6264 24.2298 21.3942 24.0556C20.4653 23.5621 20.0299 23.388 20.0299 22.8074C20.0299 22.1107 22.8746 21.0367 23.7745 21.0367C24.7614 21.0367 24.9937 21.4721 25.0227 22.43V30.5289H25.1098C26.0967 28.9614 27.6642 27.8003 29.8994 27.8003C34.2827 27.8003 34.8923 30.9353 34.8923 35.3476V39.963C34.8923 41.1242 36.5178 41.1532 36.5178 41.995C36.5178 42.5465 36.0534 42.7497 35.1825 42.7497H31.2637C30.3639 42.7497 29.9284 42.5465 29.9284 41.995C29.9284 41.1532 31.554 41.1242 31.554 39.963V35.4637C31.554 31.9803 30.5671 30.2676 28.5931 30.2676C26.329 30.2676 25.1678 32.1835 25.1678 34.6799L25.1388 39.934C25.1388 41.0951 26.7644 41.1242 26.7644 41.966C26.7644 42.5175 26.2999 42.7207 25.4291 42.7207H21.5103ZM51.0954 38.4245C51.4437 38.4245 51.705 38.6858 51.705 39.0922C51.705 39.3244 51.6469 39.5857 51.5018 39.8469C50.689 41.7047 48.599 43.1561 45.9574 43.1561C41.3419 43.1561 38.294 40.1082 38.294 35.6378C38.294 31.1095 41.371 27.8293 45.6962 27.8293C49.6149 27.8293 51.705 30.2676 51.705 33.5188C51.705 34.738 51.1534 35.2895 49.8472 35.2895H41.7774C42.0676 38.3665 44.0125 40.4855 46.8282 40.4855C48.3087 40.4855 49.2666 39.905 50.3116 38.8309C50.6019 38.5407 50.8051 38.4245 51.0954 38.4245ZM45.2898 29.2807C43.3739 29.2807 41.9225 31.0804 41.7483 33.9252H48.1635C48.2216 33.751 48.2506 33.3156 48.2506 33.0834C48.2506 30.7611 47.3508 29.2807 45.2898 29.2807ZM61.6358 43.1561C56.7881 43.1561 53.8853 39.905 53.8853 35.7249C53.8853 30.8482 57.2235 27.7712 61.5777 27.7712C64.9159 27.7712 67.4124 29.8903 67.4124 31.632C67.4124 32.5318 66.8318 33.1705 65.9319 33.1705C64.6257 33.1705 64.1612 31.9222 63.4645 30.8772C62.884 30.0064 62.2744 29.2517 60.7939 29.2517C58.5298 29.2517 57.3686 31.5449 57.3686 34.0413C57.3686 37.6118 59.3716 40.4855 62.3615 40.4855C64.2193 40.4855 65.2933 39.7308 66.1642 38.8309C66.4544 38.5407 66.6576 38.4245 66.9189 38.4245C67.2962 38.4245 67.5285 38.7439 67.5285 39.0632C67.5285 39.4115 67.4124 39.7018 67.2962 39.963C66.6867 41.2983 64.8869 43.1561 61.6358 43.1561ZM82.6276 40.2243C83.1211 41.0371 84.2532 40.95 84.2532 41.8789C84.2532 42.4595 83.8468 42.7207 83.1501 42.7207H79.0862C78.3024 42.7207 77.9831 42.2853 77.9831 41.8208C77.9831 41.1532 78.7959 41.0661 78.7959 40.6887C78.7959 40.3694 78.4766 39.905 78.0122 39.1793L76.3575 36.6538C75.6318 36.9441 74.9061 37.2054 74.1804 37.4376V39.934C74.1804 41.0951 75.806 41.1242 75.806 41.966C75.806 42.5175 75.3706 42.7207 74.4707 42.7207H70.5519C69.6521 42.7207 69.2166 42.5175 69.2166 41.966C69.2166 41.1242 70.8422 41.0951 70.8422 39.934V25.1877C70.8422 24.491 70.668 24.1427 70.2326 23.7944C69.4489 23.2138 69.0425 23.1848 69.0425 22.6332C69.0425 21.8205 72.0324 21.0367 72.9032 21.0367C73.8611 21.0367 74.1514 21.5302 74.1514 22.4591L74.1804 35.6959C77.2574 34.767 80.2763 32.9673 80.2763 31.719C80.2763 31.1385 78.9991 31.0804 78.9991 29.6871C78.9991 28.3808 80.0731 27.7712 81.1182 27.7712C82.2503 27.7712 83.1501 28.555 83.1501 29.8903C83.1501 32.0964 81.4375 33.8962 79.1442 35.2605L82.6276 40.2243ZM116.912 39.934C116.912 41.0951 118.537 41.1242 118.537 41.966C118.537 42.5175 118.073 42.7207 117.202 42.7207H113.254C112.383 42.7207 111.948 42.5175 111.948 41.966C111.948 41.1242 113.544 41.0951 113.544 39.934V35.1444C113.544 32.3577 112.935 30.2676 110.671 30.2676C108.639 30.2676 107.158 31.8061 107.158 34.2735V34.6509V39.934C107.158 41.0951 108.755 41.1242 108.755 41.966C108.755 42.5175 108.319 42.7207 107.448 42.7207H103.501C102.63 42.7207 102.165 42.5175 102.165 41.966C102.165 41.1242 103.791 41.0951 103.791 39.934V34.9121C103.791 31.8932 102.746 30.2676 101.12 30.2676C98.5659 30.2676 97.3467 32.1545 97.3467 34.738V39.934C97.3467 41.0951 98.9723 41.1242 98.9723 41.966C98.9723 42.5175 98.5368 42.7207 97.637 42.7207H93.7182C92.8473 42.7207 92.3829 42.5175 92.3829 41.966C92.3829 41.1242 94.0085 41.0951 94.0085 39.934L94.0375 31.7771C94.0375 31.2836 93.8633 30.9643 93.6021 30.8192C92.7022 30.2967 92.2377 30.1515 92.2377 29.571C92.2377 28.8743 94.8503 27.8003 95.9533 27.8003C96.9403 27.8003 97.1725 28.2357 97.2016 29.1936V30.5289H97.3177C98.5659 28.613 100.424 27.8003 102.223 27.8003C104.894 27.8003 106.171 29.0194 106.752 30.9643C108.116 28.555 110.148 27.8003 111.948 27.8003C116.244 27.8003 116.912 30.9353 116.912 34.8831V39.934ZM123.157 48.4973C120.951 48.4973 119.558 47.4813 119.558 46.3202C119.558 45.2461 120.283 44.7817 121.009 44.7817C122.083 44.7817 122.286 46.4073 123.941 46.4073C125.595 46.4073 126.844 44.4624 127.947 41.8789C127.743 41.9369 127.627 41.966 127.366 41.966C125.711 41.966 124.754 41.2403 124.057 39.8759C122.896 37.5247 121.502 33.6639 120.312 30.7611C119.935 29.8903 118.774 29.8322 118.774 28.9033C118.774 28.2647 119.267 28.2066 120.138 28.2066H124.492C125.537 28.2066 125.77 28.4098 125.77 28.9323C125.77 29.8032 124.028 29.7161 124.26 30.674C124.783 32.4738 125.973 36.0733 126.815 38.0762C127.134 38.7729 127.482 39.4115 128.15 39.4115C128.817 39.4115 129.311 38.947 129.921 37.2634C130.472 35.812 131.053 34.1284 131.053 33.1124C131.082 31.3417 130.298 30.9353 130.298 29.5419C130.298 28.4098 131.169 27.7422 132.388 27.7422C133.636 27.7422 134.362 28.3518 134.362 29.6C134.362 30.5579 133.607 31.632 133.172 33.1414C132.678 34.738 132.33 35.6378 131.807 37.0892C131.024 39.2954 129.979 41.4144 129.05 43.2142C127.453 46.3492 126.06 48.4973 123.157 48.4973Z" fill="#007EBB"/>
<g clip-path="url(#clip0_1898_3865)">
<path fill-rule="evenodd" clip-rule="evenodd" d="M151.667 60H198.333C202.015 60 205 57.0152 205 53.3333V6.66667C205 2.98477 202.015 0 198.333 0H151.667C147.985 0 145 2.98477 145 6.66667V53.3333C145 57.0152 147.985 60 151.667 60Z" fill="#007EBB"/>
<path fill-rule="evenodd" clip-rule="evenodd" d="M196.669 51.6673H187.766V36.5024C187.766 32.3446 186.186 30.0211 182.895 30.0211C179.315 30.0211 177.444 32.4391 177.444 36.5024V51.6673H168.864V22.7784H177.444V26.6698C177.444 26.6698 180.024 21.8958 186.155 21.8958C192.282 21.8958 196.669 25.6377 196.669 33.3767V51.6673ZM158.627 18.9957C155.704 18.9957 153.336 16.6087 153.336 13.6648C153.336 10.7209 155.704 8.33398 158.627 8.33398C161.55 8.33398 163.917 10.7209 163.917 13.6648C163.917 16.6087 161.55 18.9957 158.627 18.9957ZM154.196 51.6673H163.144V22.7784H154.196V51.6673Z" fill="white"/>
</g>
<defs>
<clipPath id="clip0_1898_3865">
<rect width="60" height="60" fill="white" transform="translate(145)"/>
</clipPath>
</defs>
</svg>
