<svg width="143" height="143" viewBox="0 0 143 143" fill="none" xmlns="http://www.w3.org/2000/svg">
<g clip-path="url(#clip0_842_30652)">
<rect width="143" height="143" fill="#F41515"/>
<rect width="143" height="143" fill="white"/>
<path d="M71 36C51.11 36 35 52.0587 35 71.8853C35 87.7645 45.305 101.177 59.615 105.931C61.415 106.245 62.09 105.169 62.09 104.227C62.09 103.375 62.045 100.549 62.045 97.5433C53 99.203 50.66 95.3453 49.94 93.3267C49.535 92.295 47.78 89.1102 46.25 88.2579C44.99 87.5851 43.19 85.9254 46.205 85.8805C49.04 85.8357 51.065 88.4822 51.74 89.5588C54.98 94.9864 60.155 93.4613 62.225 92.5193C62.54 90.1868 63.485 88.6168 64.52 87.7197C56.51 86.8225 48.14 83.7274 48.14 70.0013C48.14 66.0988 49.535 62.8691 51.83 60.3571C51.47 59.46 50.21 55.7818 52.19 50.8475C52.19 50.8475 55.205 49.9055 62.09 54.5258C64.97 53.7184 68.03 53.3146 71.09 53.3146C74.15 53.3146 77.21 53.7184 80.09 54.5258C86.975 49.8607 89.99 50.8475 89.99 50.8475C91.97 55.7818 90.71 59.46 90.35 60.3571C92.645 62.8691 94.04 66.0539 94.04 70.0013C94.04 83.7723 85.625 86.8225 77.615 87.7197C78.92 88.8411 80.045 90.9942 80.045 94.3584C80.045 99.1581 80 103.016 80 104.227C80 105.169 80.675 106.29 82.475 105.931C89.6217 103.526 95.8318 98.9481 100.231 92.8406C104.631 86.7331 106.998 79.4042 107 71.8853C107 52.0587 90.89 36 71 36Z" fill="#171516"/>
</g>
<defs>
<clipPath id="clip0_842_30652">
<rect width="143" height="143" fill="white"/>
</clipPath>
</defs>
</svg>
