<svg width="143" height="143" viewBox="0 0 143 143" fill="none" xmlns="http://www.w3.org/2000/svg">
<rect width="143" height="143" fill="white"/>
<path d="M72.0239 36C56.9924 36 52.5963 36.0155 51.7418 36.0864C48.657 36.3428 46.7375 36.8285 44.6464 37.8697C43.0348 38.6699 41.7638 39.5975 40.5094 40.8979C38.225 43.2693 36.8404 46.1868 36.3392 49.6547C36.0956 51.3383 36.0247 51.6816 36.0103 60.2812C36.0047 63.1477 36.0103 66.9202 36.0103 71.9804C36.0103 86.9997 36.0269 91.3914 36.0989 92.2442C36.3481 95.2459 36.8188 97.1344 37.8157 99.2001C39.7208 103.154 43.3593 106.123 47.6458 107.23C49.13 107.612 50.7693 107.823 52.8737 107.923C53.7654 107.961 62.8534 107.989 71.9469 107.989C81.0404 107.989 90.134 107.978 91.0034 107.934C93.4402 107.819 94.8552 107.629 96.4197 107.225C100.734 106.112 104.306 103.187 106.25 99.1779C107.227 97.162 107.723 95.2016 107.947 92.3567C107.996 91.7364 108.016 81.847 108.016 71.971C108.016 62.0932 107.994 52.2222 107.946 51.6019C107.718 48.711 107.223 46.7671 106.214 44.7125C105.386 43.0306 104.467 41.7746 103.132 40.4903C100.75 38.2152 97.8369 36.8307 94.3656 36.3301C92.6837 36.0869 92.3486 36.015 83.7425 36H72.0239Z" fill="url(#paint0_radial_842_30663)"/>
<path d="M72.0239 36C56.9924 36 52.5963 36.0155 51.7418 36.0864C48.657 36.3428 46.7375 36.8285 44.6464 37.8697C43.0348 38.6699 41.7638 39.5975 40.5094 40.8979C38.225 43.2693 36.8404 46.1868 36.3392 49.6547C36.0956 51.3383 36.0247 51.6816 36.0103 60.2812C36.0047 63.1477 36.0103 66.9202 36.0103 71.9804C36.0103 86.9997 36.0269 91.3914 36.0989 92.2442C36.3481 95.2459 36.8188 97.1344 37.8157 99.2001C39.7208 103.154 43.3593 106.123 47.6458 107.23C49.13 107.612 50.7693 107.823 52.8737 107.923C53.7654 107.961 62.8534 107.989 71.9469 107.989C81.0404 107.989 90.134 107.978 91.0034 107.934C93.4402 107.819 94.8552 107.629 96.4197 107.225C100.734 106.112 104.306 103.187 106.25 99.1779C107.227 97.162 107.723 95.2016 107.947 92.3567C107.996 91.7364 108.016 81.847 108.016 71.971C108.016 62.0932 107.994 52.2222 107.946 51.6019C107.718 48.711 107.223 46.7671 106.214 44.7125C105.386 43.0306 104.467 41.7746 103.132 40.4903C100.75 38.2152 97.8369 36.8307 94.3656 36.3301C92.6837 36.0869 92.3486 36.015 83.7425 36H72.0239Z" fill="url(#paint1_radial_842_30663)"/>
<path d="M72.0074 45.415C64.7879 45.415 63.8819 45.4466 61.0464 45.5756C58.2164 45.7052 56.2848 46.1533 54.5945 46.8106C52.8462 47.4896 51.3631 48.3979 49.8855 49.876C48.4068 51.3535 47.4986 52.8366 46.8174 54.5844C46.1584 56.2752 45.7098 58.2075 45.5824 61.0363C45.4556 63.8718 45.4224 64.7784 45.4224 71.9978C45.4224 79.2173 45.4545 80.1206 45.583 82.956C45.7131 85.786 46.1611 87.7177 46.818 89.4079C47.4975 91.1563 48.4057 92.6394 49.8838 94.117C51.3609 95.5956 52.8439 96.5061 54.5912 97.185C56.2825 97.8424 58.2148 98.2904 61.0442 98.42C63.8797 98.5491 64.7852 98.5806 72.0041 98.5806C79.2241 98.5806 80.1273 98.5491 82.9628 98.42C85.7928 98.2904 87.7267 97.8424 89.418 97.185C91.1658 96.5061 92.6467 95.5956 94.1237 94.117C95.6024 92.6394 96.5106 91.1563 97.1918 89.4085C97.8453 87.7177 98.2939 85.7855 98.4268 82.9566C98.5542 80.1211 98.5874 79.2173 98.5874 71.9978C98.5874 64.7784 98.5542 63.8724 98.4268 61.0369C98.2939 58.2069 97.8453 56.2752 97.1918 54.585C96.5106 52.8366 95.6024 51.3535 94.1237 49.876C92.6451 48.3973 91.1664 47.4891 89.4163 46.8106C87.7217 46.1533 85.7889 45.7052 82.9589 45.5756C80.1234 45.4466 79.2207 45.415 71.9991 45.415H72.0074ZM69.6227 50.2055C70.3305 50.2044 71.1202 50.2055 72.0074 50.2055C79.105 50.2055 79.9462 50.231 82.749 50.3583C85.3409 50.4768 86.7475 50.9099 87.6846 51.2738C88.9251 51.7556 89.8096 52.3316 90.7394 53.2619C91.6698 54.1923 92.2458 55.0784 92.7287 56.319C93.0925 57.2549 93.5262 58.6616 93.6441 61.2534C93.7715 64.0557 93.7992 64.8975 93.7992 71.9917C93.7992 79.086 93.7715 79.9278 93.6441 82.7301C93.5256 85.3219 93.0925 86.7286 92.7287 87.6645C92.2469 88.9051 91.6698 89.7884 90.7394 90.7182C89.809 91.6486 88.9257 92.2246 87.6846 92.7064C86.7487 93.0719 85.3409 93.5039 82.749 93.6224C79.9468 93.7498 79.105 93.7775 72.0074 93.7775C64.9092 93.7775 64.068 93.7498 61.2657 93.6224C58.6739 93.5028 57.2672 93.0697 56.3296 92.7058C55.0891 92.224 54.203 91.6481 53.2726 90.7177C52.3422 89.7873 51.7662 88.9034 51.2833 87.6623C50.9195 86.7264 50.4858 85.3197 50.3679 82.7279C50.2405 79.9256 50.215 79.0838 50.215 71.9851C50.215 64.8864 50.2405 64.049 50.3679 61.2468C50.4864 58.6549 50.9195 57.2483 51.2833 56.3112C51.7651 55.0707 52.3422 54.1846 53.2726 53.2542C54.203 52.3238 55.0891 51.7478 56.3296 51.2649C57.2667 50.8994 58.6739 50.4674 61.2657 50.3484C63.718 50.2376 64.6683 50.2044 69.6227 50.1988V50.2055ZM86.1971 54.6193C84.4359 54.6193 83.0071 56.0465 83.0071 57.8082C83.0071 59.5693 84.4359 60.9981 86.1971 60.9981C87.9582 60.9981 89.387 59.5693 89.387 57.8082C89.387 56.0471 87.9582 54.6182 86.1971 54.6182V54.6193ZM72.0074 58.3465C64.4684 58.3465 58.356 64.4588 58.356 71.9978C58.356 79.5368 64.4684 85.6464 72.0074 85.6464C79.5464 85.6464 85.6565 79.5368 85.6565 71.9978C85.6565 64.4588 79.5458 58.3465 72.0068 58.3465H72.0074ZM72.0074 63.1369C76.9008 63.1369 80.8683 67.1038 80.8683 71.9978C80.8683 76.8913 76.9008 80.8588 72.0074 80.8588C67.1134 80.8588 63.1464 76.8913 63.1464 71.9978C63.1464 67.1038 67.1134 63.1369 72.0074 63.1369V63.1369Z" fill="white"/>
<defs>
<radialGradient id="paint0_radial_842_30663" cx="0" cy="0" r="1" gradientUnits="userSpaceOnUse" gradientTransform="translate(55.1352 113.534) rotate(-90) scale(71.3464 66.3759)">
<stop stop-color="#FFDD55"/>
<stop offset="0.1" stop-color="#FFDD55"/>
<stop offset="0.5" stop-color="#FF543E"/>
<stop offset="1" stop-color="#C837AB"/>
</radialGradient>
<radialGradient id="paint1_radial_842_30663" cx="0" cy="0" r="1" gradientUnits="userSpaceOnUse" gradientTransform="translate(23.946 41.186) rotate(78.6776) scale(31.8925 131.495)">
<stop stop-color="#3771C8"/>
<stop offset="0.128" stop-color="#3771C8"/>
<stop offset="1" stop-color="#6600FF" stop-opacity="0"/>
</radialGradient>
</defs>
</svg>
