<svg width="83" height="86" viewBox="0 0 83 86" fill="none" xmlns="http://www.w3.org/2000/svg">
<path d="M2.20404 81.7129C1.51471 81.7129 1.14707 81.552 1.14707 81.1155C1.14707 80.4491 2.47977 80.4261 2.47977 79.507V68.2479C2.47977 67.2599 1.10111 67.4207 1.10111 66.6395C1.10111 66.2719 1.35386 66.0651 2.0432 66.0651H3.92737C5.21412 66.111 5.62772 67.145 6.31706 68.6156L9.85563 75.9914L14.1295 66.9382C14.4512 66.3408 14.8648 66.0651 15.7839 66.0651H17.9438C18.725 66.0651 18.9778 66.2948 18.9778 66.6855C18.9778 67.3978 17.5991 67.3059 17.5991 68.225V79.53C17.5991 80.4951 18.9089 80.4261 18.9089 81.1155C18.9089 81.5061 18.6561 81.7129 17.9208 81.7129H14.5431C13.8078 81.7129 13.555 81.5061 13.555 81.1155C13.555 80.4261 14.8648 80.4951 14.8648 79.53V68.5926L10.8896 76.9795C10.2692 78.3122 10.0394 78.5879 9.28118 78.5879C8.52292 78.5879 8.29314 78.4271 7.76465 77.3471L3.88142 69.19V79.507C3.88142 80.4261 5.21412 80.4491 5.21412 81.1155C5.21412 81.552 4.84648 81.7129 4.15715 81.7129H2.20404ZM23.879 82.0576C21.834 82.0576 20.6392 80.7708 20.6392 79.1624C20.6392 77.1173 22.5693 76.2442 25.3956 75.1413C27.3717 74.406 27.7853 73.8545 27.7853 72.7746C27.7853 71.8095 27.3257 70.9363 25.97 70.9363C24.7982 70.9363 23.9939 71.7176 23.4425 72.8665C23.1438 73.5788 22.7991 73.9924 22.1557 73.9924C21.5583 73.9924 21.0528 73.5788 21.0528 72.8435C21.0528 71.5338 23.0289 69.8794 26.0849 69.8794C29.3707 69.8794 30.5656 71.4648 30.5885 74.4519V79.2313C30.5885 80.7248 31.8753 80.1734 31.8753 81.0925C31.8753 81.621 31.2089 82.0576 30.1979 82.0576C28.9341 82.0576 28.084 81.2304 28.084 80.1964V79.8517H27.9921C27.0729 81.3452 25.8551 82.0576 23.879 82.0576ZM25.0969 80.2423C26.5674 80.2423 27.9921 79.1164 27.9921 76.7727V75.4859L25.7173 76.3821C23.925 77.0944 23.3276 77.7377 23.3276 78.6798C23.3276 79.6449 24.0169 80.2423 25.0969 80.2423ZM35.8241 68.5696C34.859 68.5696 34.0318 67.9263 34.0318 66.9152C34.0318 65.9042 34.859 65.2608 35.8241 65.2608C36.7661 65.2608 37.5704 65.9042 37.5704 66.9152C37.5704 67.9263 36.7661 68.5696 35.8241 68.5696ZM34.3535 81.7129C33.6641 81.7129 33.2965 81.552 33.2965 81.1155C33.2965 80.4491 34.5833 80.4261 34.5833 79.507V73.1882C34.5833 72.6367 34.4454 72.361 34.1007 72.0852C33.4803 71.6257 33.1586 71.6027 33.1586 71.1661C33.1586 70.5227 35.1807 69.9023 36.0538 69.9023C36.9959 69.9023 37.2257 70.293 37.2257 71.0282V79.507C37.2257 80.4261 38.5124 80.4491 38.5124 81.1155C38.5124 81.552 38.1678 81.7129 37.4555 81.7129H34.3535ZM40.9009 81.7129C40.1886 81.7129 39.8439 81.552 39.8439 81.1155C39.8439 80.4491 41.1307 80.4261 41.1307 79.507V67.8343C41.1307 67.2829 40.9928 67.0071 40.6481 66.7314C40.0277 66.2719 39.706 66.2489 39.706 65.8123C39.706 65.1689 42.0727 64.5485 42.7851 64.5485C43.5433 64.5485 43.7501 64.9391 43.7731 65.6744V79.507C43.7731 80.4261 45.0598 80.4491 45.0598 81.1155C45.0598 81.552 44.6922 81.7129 44.0029 81.7129H40.9009ZM53.2083 81.7129C52.519 81.7129 52.1513 81.552 52.1513 81.1155C52.1513 80.4491 53.4841 80.4261 53.4841 79.507V68.2479C53.4841 67.2599 52.1054 67.4207 52.1054 66.6395C52.1054 66.2719 52.3581 66.0651 53.0475 66.0651H54.9317C56.2184 66.111 56.632 67.145 57.3213 68.6156L60.8599 75.9914L65.1338 66.9382C65.4555 66.3408 65.8691 66.0651 66.7882 66.0651H68.9481C69.7293 66.0651 69.9821 66.2948 69.9821 66.6855C69.9821 67.3978 68.6034 67.3059 68.6034 68.225V79.53C68.6034 80.4951 69.9131 80.4261 69.9131 81.1155C69.9131 81.5061 69.6604 81.7129 68.9251 81.7129H65.5474C64.8121 81.7129 64.5593 81.5061 64.5593 81.1155C64.5593 80.4261 65.8691 80.4951 65.8691 79.53V68.5926L61.8939 76.9795C61.2735 78.3122 61.0437 78.5879 60.2855 78.5879C59.5272 78.5879 59.2974 78.4271 58.7689 77.3471L54.8857 69.19V79.507C54.8857 80.4261 56.2184 80.4491 56.2184 81.1155C56.2184 81.552 55.8508 81.7129 55.1614 81.7129H53.2083ZM81.5977 78.3122C81.8734 78.3122 82.0802 78.519 82.0802 78.8407C82.0802 79.0245 82.0342 79.2313 81.9194 79.4381C81.276 80.9087 79.6216 82.0576 77.5306 82.0576C73.8772 82.0576 71.4645 79.6449 71.4645 76.1063C71.4645 72.5218 73.9001 69.9253 77.3238 69.9253C80.4258 69.9253 82.0802 71.8554 82.0802 74.4289C82.0802 75.394 81.6436 75.8306 80.6096 75.8306H74.2218C74.4516 78.2662 75.9911 79.9436 78.2199 79.9436C79.3918 79.9436 80.1501 79.4841 80.9773 78.6339C81.207 78.4041 81.3679 78.3122 81.5977 78.3122ZM77.0021 71.0742C75.4856 71.0742 74.3367 72.4988 74.1988 74.7506H79.2769C79.3229 74.6128 79.3459 74.2681 79.3459 74.0843C79.3459 72.2461 78.6335 71.0742 77.0021 71.0742Z" fill="#EA4335"/>
<g clip-path="url(#clip0_1898_3873)">
<path d="M13.3051 48.1931H23.5279V23.3662L8.92383 12.4131V43.8119C8.92383 46.2362 10.8881 48.1931 13.3051 48.1931Z" fill="#4285F4"/>
<path d="M58.5781 48.1931H68.801C71.2253 48.1931 73.1822 46.2289 73.1822 43.8119V12.4131L58.5781 23.3662" fill="#34A853"/>
<path d="M58.5781 4.38097V23.3663L73.1822 12.4132V6.57158C73.1822 1.15346 66.9974 -1.93531 62.6673 1.3141" fill="#FBBC04"/>
<path d="M23.5293 23.3662V4.38086L41.0542 17.5246L58.5792 4.38086V23.3662L41.0542 36.5099" fill="#EA4335"/>
<path d="M8.92383 6.57158V12.4132L23.5279 23.3663V4.38097L19.4388 1.3141C15.1014 -1.93531 8.92383 1.15346 8.92383 6.57158Z" fill="#C5221F"/>
</g>
<defs>
<clipPath id="clip0_1898_3873">
<rect width="64.2581" height="48.1936" fill="white" transform="translate(8.92578)"/>
</clipPath>
</defs>
</svg>
