<svg width="143" height="143" viewBox="0 0 143 143" fill="none" xmlns="http://www.w3.org/2000/svg">
<g clip-path="url(#clip0_842_30649)">
<rect width="143" height="143" fill="#F41515"/>
<rect width="143" height="143" fill="white"/>
<g clip-path="url(#clip1_842_30649)">
<path d="M101.742 36.002H41.2407C38.3519 36.002 36 38.2939 36 41.1162V101.874C36 104.703 38.3519 107 41.2407 107H101.746C104.641 107 107 104.703 107 101.874V41.1162C107 38.2939 104.641 36.002 101.742 36.002Z" fill="#0177B5"/>
<path d="M46.5279 62.6184H57.0781V96.4987H46.5279V62.6184ZM51.7952 45.7559C55.1611 45.7559 57.8968 48.4916 57.8968 51.8574C57.8968 55.2233 55.1611 57.9656 51.7974 57.9656C50.1783 57.9621 48.6265 57.3175 47.4814 56.1728C46.3363 55.0282 45.6911 53.4765 45.687 51.8574C45.687 51.0556 45.8451 50.2616 46.1521 49.5209C46.4591 48.7802 46.9092 48.1073 47.4765 47.5406C48.0438 46.9739 48.7172 46.5246 49.4582 46.2184C50.1993 45.9122 50.9934 45.755 51.7952 45.7559ZM63.6655 62.6184H73.7653V67.2489H73.9051C75.3118 64.5864 78.7464 61.7775 83.8895 61.7775C94.5528 61.7775 96.5208 68.7954 96.5208 77.9166V96.5009H85.9973V80.02C85.9973 76.0928 85.9263 71.0341 80.5258 71.0341C75.0455 71.0341 74.2024 75.3163 74.2024 79.7316V96.492H63.6811V62.6117L63.6655 62.6184Z" fill="white"/>
</g>
</g>
<defs>
<clipPath id="clip0_842_30649">
<rect width="143" height="143" fill="white"/>
</clipPath>
<clipPath id="clip1_842_30649">
<rect width="71" height="71" fill="white" transform="translate(36 36)"/>
</clipPath>
</defs>
</svg>
