<svg width="143" height="143" viewBox="0 0 143 143" fill="none" xmlns="http://www.w3.org/2000/svg">
<g clip-path="url(#clip0_842_30655)">
<rect width="143" height="143" fill="#F41515"/>
<rect width="143" height="143" fill="white"/>
<path d="M40.8409 98.2626H52.1364V70.8308L36 58.7285V93.4217C36 96.0963 38.1663 98.2626 40.8409 98.2626Z" fill="#4285F4"/>
<path d="M90.8638 98.2626H102.159C104.834 98.2626 107 96.0963 107 93.4217V58.7285L90.8638 70.8308V98.2626Z" fill="#34A853"/>
<path d="M90.8638 49.854V70.8313L107 58.729V52.2744C107 46.2919 100.17 42.875 95.382 46.4653L90.8638 49.854Z" fill="#FBBC04"/>
<path d="M52.1362 70.8308V49.8535L71.4999 64.3763L90.8635 49.8535V70.8308L71.4999 85.3535L52.1362 70.8308Z" fill="#EA4335"/>
<path d="M36 52.2744V58.729L52.1364 70.8313V49.854L47.6182 46.4653C42.8297 42.875 36 46.2919 36 52.2744V52.2744Z" fill="#C5221F"/>
</g>
<defs>
<clipPath id="clip0_842_30655">
<rect width="143" height="143" fill="white"/>
</clipPath>
</defs>
</svg>
