<svg width="143" height="143" viewBox="0 0 143 143" fill="none" xmlns="http://www.w3.org/2000/svg">
<g clip-path="url(#clip0_847_30697)">
<rect width="143" height="143" fill="white"/>
<rect width="143" height="143" fill="white"/>
<g clip-path="url(#clip1_847_30697)">
<path d="M71.4983 36.1172C51.9526 36.1172 36.1069 51.9624 36.1069 71.5082C36.1069 91.0547 51.9526 106.899 71.4983 106.899C91.0461 106.899 106.89 91.0547 106.89 71.5082C106.89 51.9637 91.0461 36.1189 71.4979 36.1189L71.4983 36.1172V36.1172ZM87.7286 87.1611C87.0947 88.2008 85.7338 88.5304 84.6942 87.8923C76.3846 82.8166 65.924 81.6671 53.6046 84.4817C52.4175 84.7522 51.2342 84.0084 50.9637 82.8208C50.6919 81.6333 51.4328 80.4499 52.6229 80.1795C66.1044 77.0981 77.6686 78.4256 86.9975 84.1267C88.0371 84.7649 88.3667 86.1215 87.7286 87.1611V87.1611ZM92.0604 77.5233C91.2617 78.8228 89.5627 79.2328 88.2653 78.434C78.7522 72.5854 64.2508 70.892 52.9986 74.3076C51.5393 74.7484 49.998 73.926 49.5551 72.4692C49.1156 71.0099 49.9384 69.4716 51.3952 69.0278C64.2483 65.1279 80.2271 67.017 91.1518 73.7303C92.4492 74.529 92.8592 76.228 92.0604 77.5237V77.5233ZM92.4323 67.4886C81.0258 60.7136 62.2066 60.0907 51.3161 63.396C49.5674 63.9264 47.718 62.9391 47.188 61.1903C46.658 59.4407 47.6444 57.5926 49.3945 57.0609C61.896 53.2658 82.6783 53.999 95.8107 61.7951C97.3871 62.7287 97.9027 64.7602 96.9687 66.3311C96.039 67.9041 94.0019 68.4226 92.434 67.4886H92.4323Z" fill="#1ED760"/>
</g>
</g>
<defs>
<clipPath id="clip0_847_30697">
<rect width="143" height="143" fill="white"/>
</clipPath>
<clipPath id="clip1_847_30697">
<rect width="71" height="71" fill="white" transform="translate(36 36)"/>
</clipPath>
</defs>
</svg>
