<svg width="650" height="200" viewBox="0 0 650 200" fill="none" xmlns="http://www.w3.org/2000/svg">
<g clip-path="url(#clip0_2004_86349)">
<rect width="650" height="200" fill="#EB493A"/>
<g clip-path="url(#clip1_2004_86349)">
<rect width="676" height="615.911" transform="translate(-26 -128.967)" fill="#25454D"/>
<g opacity="0.5" filter="url(#filter0_f_2004_86349)">
<circle cx="130.794" cy="183.213" r="139.425" fill="#619698"/>
</g>
<g opacity="0.5" filter="url(#filter1_f_2004_86349)">
<circle cx="649.793" cy="25.7931" r="229.793" fill="#619698"/>
</g>
<g opacity="0.5" filter="url(#filter2_f_2004_86349)">
<circle cx="720.793" cy="-0.20694" r="173.793" fill="#619698"/>
</g>
<path d="M267.448 94.5081H245.25V92.2992H249.681V61.2114H245.25V58.9889H265.225V61.2114H267.448V63.4339H269.67V72.3103H267.448V76.7553H269.67V78.9778H271.893V90.0767H269.67V92.2992H267.448V94.5081ZM254.126 74.5328H263.003V72.3103H265.225V63.4339H263.003V61.2114H254.126V74.5328ZM254.126 92.2992H265.225V90.0767H267.448V78.9778H265.225V76.7553H254.126V92.2992Z" fill="white"/>
<path d="M294.673 94.5081H283.574V92.2992H281.351V90.0767H279.129V85.6317H276.92V78.9778H279.129V74.5328H281.351V72.3103H283.574V70.0878H294.673V72.3103H296.895V74.5328H299.118V78.9778H301.34V85.6317H299.118V90.0767H296.895V92.2992H294.673V94.5081ZM285.796 92.2992H292.45V90.0767H294.673V85.6317H296.895V78.9778H294.673V74.5328H292.45V72.3103H285.796V74.5328H283.574V78.9778H281.351V85.6317H283.574V90.0767H285.796V92.2992Z" fill="white"/>
<path d="M316.328 94.5081H309.661V92.2992H307.438V72.3103H305.229V70.0878H307.438V67.8653H309.661V65.6564H311.883V70.0878H318.551V72.3103H311.883V92.2992H316.328V94.5081ZM318.551 92.2992H316.328V90.0767H318.551V92.2992Z" fill="white"/>
<path d="M333.525 94.5081H326.857V92.2992H324.635V72.3103H322.426V70.0878H324.635V67.8653H326.857V65.6564H329.08V70.0878H335.747V72.3103H329.08V92.2992H333.525V94.5081ZM335.747 92.2992H333.525V90.0767H335.747V92.2992Z" fill="white"/>
<path d="M348.499 94.5081H339.623V92.2992H341.831V58.9889H339.623V56.7664H341.831V54.5439H344.054V52.335H346.276V92.2992H348.499V94.5081Z" fill="white"/>
<path d="M370.127 94.5081H359.028V92.2992H356.806V90.0767H354.583V85.6317H352.374V78.9778H354.583V74.5328H356.806V76.7553H370.127V74.5328H367.905V72.3103H359.028V70.0878H370.127V72.3103H372.35V74.5328H374.572V78.9778H356.806V85.6317H359.028V90.0767H361.251V92.2992H370.127V94.5081ZM359.028 74.5328H356.806V72.3103H359.028V74.5328ZM374.572 90.0767H372.35V87.8542H374.572V90.0767ZM372.35 92.2992H370.127V90.0767H372.35V92.2992Z" fill="white"/>
<path d="M387.337 94.5081H378.461V92.2992H380.67V74.5328H378.461V72.3103H380.67V70.0878H382.892V67.8653H385.115V72.3103H387.337V74.5328H385.115V92.2992H387.337V94.5081ZM403.992 94.5081H395.102V92.2992H397.325V74.5328H395.102V72.3103H387.337V70.0878H397.325V72.3103H399.547V74.5328H401.77V92.2992H403.992V94.5081Z" fill="white"/>
<path d="M425.661 94.5081H414.562V92.2992H412.34V90.0767H410.117V85.6317H407.908V78.9778H410.117V74.5328H412.34V76.7553H425.661V74.5328H423.439V72.3103H414.562V70.0878H425.661V72.3103H427.884V74.5328H430.106V78.9778H412.34V85.6317H414.562V90.0767H416.785V92.2992H425.661V94.5081ZM414.562 74.5328H412.34V72.3103H414.562V74.5328ZM430.106 90.0767H427.884V87.8542H430.106V90.0767ZM427.884 92.2992H425.661V90.0767H427.884V92.2992Z" fill="white"/>
<path d="M452.331 94.5081H441.232V92.2992H439.01V90.0767H436.787V85.6317H434.578V78.9778H436.787V74.5328H439.01V72.3103H441.232V70.0878H452.331V72.3103H454.554V74.5328H456.776V76.7553H452.331V74.5328H450.109V72.3103H443.455V74.5328H441.232V78.9778H439.01V85.6317H441.232V90.0767H443.455V92.2992H452.331V94.5081ZM456.776 90.0767H454.554V87.8542H456.776V90.0767ZM454.554 92.2992H452.331V90.0767H454.554V92.2992Z" fill="white"/>
<path d="M468.457 94.5081H459.581V92.2992H461.79V58.9889H459.581V56.7664H461.79V54.5439H464.012V52.335H466.235V81.1867H468.457V78.9778H470.68V81.1867H472.902V83.4092H475.111V85.6317H477.334V87.8542H479.556V90.0767H481.779V92.2992H484.001V94.5081H475.111V92.2992H477.334V90.0767H475.111V87.8542H472.902V85.6317H470.68V83.4092H466.235V92.2992H468.457V94.5081ZM477.334 74.5328H475.111V72.3103H471.791V70.0878H481.779V72.3103H477.334V74.5328ZM475.111 76.7553H472.902V74.5328H475.111V76.7553ZM472.902 78.9778H470.68V76.7553H472.902V78.9778Z" fill="white"/>
<path d="M247.77 111.462H246.367V100.091H247.746L253.971 109.019H254.042V100.091H255.445V111.462H254.066L247.84 102.565H247.77V111.462ZM260.835 111.604C258.565 111.604 257.037 109.973 257.037 107.364C257.037 104.748 258.565 103.125 260.835 103.125C263.096 103.125 264.625 104.748 264.625 107.364C264.625 109.973 263.096 111.604 260.835 111.604ZM260.835 110.398C262.285 110.398 263.23 109.295 263.23 107.364C263.23 105.434 262.285 104.33 260.835 104.33C259.385 104.33 258.431 105.434 258.431 107.364C258.431 109.295 259.385 110.398 260.835 110.398ZM266.453 101.289H267.824V103.267H269.416V104.393H267.824V109.263C267.824 110.012 268.14 110.351 268.841 110.351C268.999 110.351 269.314 110.327 269.408 110.311V111.462C269.243 111.501 268.865 111.525 268.541 111.525C267.036 111.525 266.453 110.91 266.453 109.334V104.393H265.232V103.267H266.453V101.289ZM271.638 101.809C271.166 101.809 270.779 101.423 270.779 100.95C270.779 100.469 271.166 100.091 271.638 100.091C272.119 100.091 272.497 100.469 272.497 100.95C272.497 101.423 272.119 101.809 271.638 101.809ZM270.953 111.462V103.267H272.324V111.462H270.953ZM274.617 111.462V104.393H273.474V103.267H274.617V102.353C274.617 100.777 275.35 100.028 276.863 100.028C277.17 100.028 277.501 100.059 277.698 100.091V101.202C277.533 101.178 277.304 101.155 277.076 101.155C276.335 101.155 275.98 101.549 275.98 102.36V103.267H277.659V104.393H275.988V111.462H274.617ZM279.834 101.809C279.361 101.809 278.975 101.423 278.975 100.95C278.975 100.469 279.361 100.091 279.834 100.091C280.314 100.091 280.693 100.469 280.693 100.95C280.693 101.423 280.314 101.809 279.834 101.809ZM279.148 111.462V103.267H280.519V111.462H279.148ZM289.179 105.954H287.84C287.643 105.063 286.949 104.33 285.744 104.33C284.325 104.33 283.364 105.505 283.364 107.364C283.364 109.271 284.341 110.398 285.759 110.398C286.878 110.398 287.611 109.807 287.848 108.822H289.195C288.982 110.453 287.611 111.604 285.752 111.604C283.482 111.604 281.969 110.004 281.969 107.364C281.969 104.78 283.474 103.125 285.736 103.125C287.785 103.125 289.006 104.48 289.179 105.954ZM292.852 111.604C291.22 111.604 290.125 110.619 290.125 109.145C290.125 107.743 291.205 106.86 293.096 106.75L295.444 106.616V105.93C295.444 104.929 294.782 104.33 293.647 104.33C292.591 104.33 291.93 104.827 291.756 105.631H290.432C290.527 104.212 291.74 103.125 293.679 103.125C295.602 103.125 296.815 104.165 296.815 105.796V111.462H295.515V110.051H295.483C294.995 110.989 293.955 111.604 292.852 111.604ZM293.159 110.438C294.451 110.438 295.444 109.531 295.444 108.349V107.679L293.253 107.813C292.15 107.884 291.52 108.373 291.52 109.145C291.52 109.925 292.174 110.438 293.159 110.438ZM298.998 101.289H300.369V103.267H301.961V104.393H300.369V109.263C300.369 110.012 300.684 110.351 301.386 110.351C301.543 110.351 301.858 110.327 301.953 110.311V111.462C301.788 111.501 301.409 111.525 301.086 111.525C299.581 111.525 298.998 110.91 298.998 109.334V104.393H297.777V103.267H298.998V101.289ZM304.183 101.809C303.71 101.809 303.324 101.423 303.324 100.95C303.324 100.469 303.71 100.091 304.183 100.091C304.664 100.091 305.042 100.469 305.042 100.95C305.042 101.423 304.664 101.809 304.183 101.809ZM303.498 111.462V103.267H304.869V111.462H303.498ZM310.117 111.604C307.847 111.604 306.319 109.973 306.319 107.364C306.319 104.748 307.847 103.125 310.117 103.125C312.378 103.125 313.907 104.748 313.907 107.364C313.907 109.973 312.378 111.604 310.117 111.604ZM310.117 110.398C311.567 110.398 312.512 109.295 312.512 107.364C312.512 105.434 311.567 104.33 310.117 104.33C308.667 104.33 307.713 105.434 307.713 107.364C307.713 109.295 308.667 110.398 310.117 110.398ZM315.294 111.462V103.267H316.586V104.575H316.618C317.075 103.692 317.95 103.125 319.218 103.125C321.015 103.125 322.055 104.283 322.055 106.143V111.462H320.684V106.387C320.684 105.063 320.061 104.338 318.801 104.338C317.508 104.338 316.665 105.252 316.665 106.639V111.462H315.294ZM323.663 105.528C323.663 104.126 324.9 103.125 326.673 103.125C328.47 103.125 329.667 104.181 329.722 105.631H328.414C328.312 104.772 327.682 104.244 326.673 104.244C325.672 104.244 325.01 104.74 325.01 105.457C325.01 106.025 325.428 106.411 326.342 106.631L327.642 106.947C329.297 107.349 329.896 107.995 329.896 109.169C329.896 110.595 328.548 111.604 326.72 111.604C324.797 111.604 323.6 110.635 323.442 109.098H324.813C324.979 110.036 325.609 110.485 326.72 110.485C327.831 110.485 328.517 110.012 328.517 109.271C328.517 108.68 328.194 108.341 327.256 108.113L325.956 107.798C324.411 107.427 323.663 106.71 323.663 105.528ZM335.073 101.289H336.444V103.267H338.036V104.393H336.444V109.263C336.444 110.012 336.759 110.351 337.461 110.351C337.618 110.351 337.934 110.327 338.028 110.311V111.462C337.863 111.501 337.484 111.525 337.161 111.525C335.656 111.525 335.073 110.91 335.073 109.334V104.393H333.852V103.267H335.073V101.289ZM339.573 111.462V100.091H340.944V104.575H340.975C341.432 103.661 342.331 103.125 343.576 103.125C345.372 103.125 346.46 104.338 346.46 106.166V111.462H345.089V106.419C345.089 105.118 344.435 104.338 343.15 104.338C341.787 104.338 340.944 105.268 340.944 106.687V111.462H339.573ZM353.639 109.114H354.986C354.75 110.548 353.363 111.604 351.574 111.604C349.226 111.604 347.799 109.973 347.799 107.396C347.799 104.851 349.249 103.125 351.511 103.125C353.725 103.125 355.088 104.732 355.088 107.215V107.735H349.21V107.813C349.21 109.382 350.132 110.414 351.605 110.414C352.646 110.414 353.41 109.886 353.639 109.114ZM351.487 104.315C350.203 104.315 349.304 105.3 349.218 106.663H353.67C353.639 105.292 352.78 104.315 351.487 104.315ZM359.785 111.462V103.267H361.077V104.606H361.109C361.377 103.7 362.133 103.125 363.095 103.125C363.331 103.125 363.536 103.164 363.646 103.18V104.512C363.536 104.472 363.244 104.433 362.913 104.433C361.85 104.433 361.156 105.197 361.156 106.356V111.462H359.785ZM365.522 101.809C365.049 101.809 364.663 101.423 364.663 100.95C364.663 100.469 365.049 100.091 365.522 100.091C366.002 100.091 366.381 100.469 366.381 100.95C366.381 101.423 366.002 101.809 365.522 101.809ZM364.836 111.462V103.267H366.207V111.462H364.836ZM371.44 114.551C369.635 114.551 368.209 113.534 367.98 112.14H369.391C369.659 112.888 370.47 113.385 371.495 113.385C372.913 113.385 373.772 112.565 373.772 111.344V110.051H373.741C373.236 110.942 372.267 111.525 371.117 111.525C369.028 111.525 367.657 109.878 367.657 107.333C367.657 104.764 369.028 103.125 371.148 103.125C372.306 103.125 373.268 103.692 373.812 104.646H373.835V103.267H375.143V111.296C375.143 113.251 373.701 114.551 371.44 114.551ZM371.392 110.319C372.819 110.319 373.772 109.137 373.772 107.333C373.772 105.528 372.819 104.33 371.392 104.33C369.982 104.33 369.06 105.497 369.06 107.333C369.06 109.169 369.982 110.319 371.392 110.319ZM377.003 111.462V100.091H378.374V104.575H378.406C378.863 103.661 379.761 103.125 381.006 103.125C382.803 103.125 383.89 104.338 383.89 106.166V111.462H382.519V106.419C382.519 105.118 381.865 104.338 380.581 104.338C379.217 104.338 378.374 105.268 378.374 106.687V111.462H377.003ZM386.073 101.289H387.444V103.267H389.036V104.393H387.444V109.263C387.444 110.012 387.759 110.351 388.461 110.351C388.618 110.351 388.933 110.327 389.028 110.311V111.462C388.863 111.501 388.484 111.525 388.161 111.525C386.656 111.525 386.073 110.91 386.073 109.334V104.393H384.852V103.267H386.073V101.289ZM404.237 103.267L401.951 111.462H400.557L398.705 105.118H398.673L396.829 111.462H395.435L393.141 103.267H394.505L396.144 109.933H396.175L398.027 103.267H399.351L401.211 109.933H401.242L402.881 103.267H404.237ZM407.601 111.604C405.97 111.604 404.875 110.619 404.875 109.145C404.875 107.743 405.954 106.86 407.846 106.75L410.194 106.616V105.93C410.194 104.929 409.532 104.33 408.397 104.33C407.341 104.33 406.679 104.827 406.506 105.631H405.182C405.277 104.212 406.49 103.125 408.429 103.125C410.352 103.125 411.565 104.165 411.565 105.796V111.462H410.265V110.051H410.233C409.745 110.989 408.705 111.604 407.601 111.604ZM407.909 110.438C409.201 110.438 410.194 109.531 410.194 108.349V107.679L408.003 107.813C406.9 107.884 406.27 108.373 406.27 109.145C406.27 109.925 406.924 110.438 407.909 110.438ZM413.992 114.527C413.827 114.527 413.551 114.512 413.401 114.48V113.329C413.551 113.361 413.764 113.369 413.937 113.369C414.701 113.369 415.127 112.999 415.442 112.045L415.631 111.47L412.605 103.267H414.071L416.34 110.091H416.364L418.634 103.267H420.076L416.853 112.037C416.151 113.952 415.474 114.527 413.992 114.527Z" fill="white"/>
<g filter="url(#filter3_b_2004_86349)">
<rect x="173.453" y="66.2861" width="58.654" height="45.6198" rx="6.77498" fill="#619698"/>
</g>
<g filter="url(#filter4_b_2004_86349)">
<rect x="159" y="52.2705" width="58.654" height="45.6198" rx="6.77498" fill="white" fill-opacity="0.8"/>
</g>
</g>
</g>
<defs>
<filter id="filter0_f_2004_86349" x="-149.464" y="-97.0452" width="560.516" height="560.516" filterUnits="userSpaceOnUse" color-interpolation-filters="sRGB">
<feFlood flood-opacity="0" result="BackgroundImageFix"/>
<feBlend mode="normal" in="SourceGraphic" in2="BackgroundImageFix" result="shape"/>
<feGaussianBlur stdDeviation="70.4167" result="effect1_foregroundBlur_2004_86349"/>
</filter>
<filter id="filter1_f_2004_86349" x="279.167" y="-344.833" width="741.253" height="741.253" filterUnits="userSpaceOnUse" color-interpolation-filters="sRGB">
<feFlood flood-opacity="0" result="BackgroundImageFix"/>
<feBlend mode="normal" in="SourceGraphic" in2="BackgroundImageFix" result="shape"/>
<feGaussianBlur stdDeviation="70.4167" result="effect1_foregroundBlur_2004_86349"/>
</filter>
<filter id="filter2_f_2004_86349" x="440.487" y="-280.513" width="560.611" height="560.611" filterUnits="userSpaceOnUse" color-interpolation-filters="sRGB">
<feFlood flood-opacity="0" result="BackgroundImageFix"/>
<feBlend mode="normal" in="SourceGraphic" in2="BackgroundImageFix" result="shape"/>
<feGaussianBlur stdDeviation="53.2563" result="effect1_foregroundBlur_2004_86349"/>
</filter>
<filter id="filter3_b_2004_86349" x="168.861" y="61.6942" width="67.8382" height="54.804" filterUnits="userSpaceOnUse" color-interpolation-filters="sRGB">
<feFlood flood-opacity="0" result="BackgroundImageFix"/>
<feGaussianBlur in="BackgroundImageFix" stdDeviation="2.29596"/>
<feComposite in2="SourceAlpha" operator="in" result="effect1_backgroundBlur_2004_86349"/>
<feBlend mode="normal" in="SourceGraphic" in2="effect1_backgroundBlur_2004_86349" result="shape"/>
</filter>
<filter id="filter4_b_2004_86349" x="154.408" y="47.6786" width="67.8382" height="54.804" filterUnits="userSpaceOnUse" color-interpolation-filters="sRGB">
<feFlood flood-opacity="0" result="BackgroundImageFix"/>
<feGaussianBlur in="BackgroundImageFix" stdDeviation="2.29596"/>
<feComposite in2="SourceAlpha" operator="in" result="effect1_backgroundBlur_2004_86349"/>
<feBlend mode="normal" in="SourceGraphic" in2="effect1_backgroundBlur_2004_86349" result="shape"/>
</filter>
<clipPath id="clip0_2004_86349">
<rect width="650" height="200" fill="white"/>
</clipPath>
<clipPath id="clip1_2004_86349">
<rect width="676" height="615.911" fill="white" transform="translate(-26 -128.967)"/>
</clipPath>
</defs>
</svg>
