<svg width="385" height="300" viewBox="0 0 385 300" fill="none" xmlns="http://www.w3.org/2000/svg">
<g clip-path="url(#clip0_1955_65375)">
<rect width="385" height="300" fill="#3C83ED"/>
<path d="M198.421 89H194.287V101.233C192.799 98.4957 190.278 97.2553 187.012 97.298C181.555 97.3408 178 100.848 178 108.248C178 115.648 181.555 119.198 187.012 119.198C190.278 119.198 192.799 118 194.287 115.263V118.941H198.421V89ZM188.087 115.862C184.408 115.862 182.051 113.253 182.051 108.248C182.051 103.244 184.408 100.677 188.087 100.634C191.394 100.592 194.287 102.516 194.287 108.248C194.287 113.98 191.394 115.862 188.087 115.862Z" fill="white"/>
<path d="M200.898 89V93.7479H205.155V89H200.898ZM205.073 118.941H200.98V97.5547H205.073V118.941Z" fill="white"/>
<path d="M207.267 113.167L211.194 112.312C211.566 114.664 213.633 115.776 215.948 115.776C218.346 115.776 220.661 114.664 220.661 112.098C220.661 107.307 207.639 112.739 207.639 103.757C207.639 97.5975 213.757 97.2553 215.948 97.2553C218.015 97.2553 223.307 97.5547 224.216 102.303L220.496 103.415C220 101.19 218.263 100.421 215.948 100.421C213.592 100.421 211.69 101.276 211.69 103.757C211.69 108.719 224.712 102.987 224.712 112.098C224.712 118.642 218.222 119.198 215.948 119.198C213.881 119.198 207.929 118.685 207.267 113.167Z" fill="white"/>
<path d="M238.058 97.2125H237.976C234.586 97.2125 232.312 98.4957 230.989 101.49V97.5547H226.855V118.941H230.989V110.943C230.989 103.115 233.304 100.977 238.058 100.977V97.2125Z" fill="white"/>
<path d="M257.541 97.5547H253.407V105.553C253.407 115.391 248.901 115.733 247.537 115.733C244.932 115.733 244.271 112.739 244.271 109.617V97.5547H240.137V109.617C240.137 113.638 240.22 119.284 246.007 119.284C249.232 119.284 251.877 117.744 253.407 114.194V118.941H257.541V97.5547Z" fill="white"/>
<path d="M271.449 97.298C268.183 97.2553 265.662 98.4957 264.173 101.233V97.5547H260.039L260.122 127.496H264.173V115.263C265.662 118 268.183 119.198 271.449 119.198C276.906 119.198 280.461 115.648 280.461 108.248C280.461 100.848 276.906 97.3408 271.449 97.298ZM270.374 115.862C267.067 115.862 264.173 113.98 264.173 108.248C264.173 102.516 267.067 100.592 270.374 100.634C274.053 100.677 276.41 103.244 276.41 108.248C276.41 113.253 274.053 115.862 270.374 115.862Z" fill="white"/>
<path d="M289.262 100.677H292.652V97.298H289.262V91.5664L285.169 93.2773V97.298H281.779V100.677H285.169V113.466C285.169 117.658 285.789 118.941 290.915 118.941H292.652V115.049H290.915C289.923 115.049 289.262 114.75 289.262 113.466V100.677Z" fill="white"/>
<path d="M294.798 89V93.7479H299.056V89H294.798ZM298.973 118.941H294.881V97.5547H298.973V118.941Z" fill="white"/>
<path d="M320.184 97.5547H315.843L310.676 113.424L305.467 97.5547H301.126L308.857 118.941H312.453L320.184 97.5547Z" fill="white"/>
<path d="M327.425 107.581C328.351 108.06 329.145 108.334 329.707 108.436C334.105 109.429 337.578 108.744 337.578 108.744V104.262C337.578 104.262 322.696 106.349 322.696 99.7105C322.696 93.0378 336.817 93.1063 337.28 94.3381C337.909 96.0833 335.362 96.8019 332.882 97.4178C330.402 98.068 328.715 98.4444 328.715 98.4444L331.526 102.448C331.526 102.448 339 100.737 339 96.0833C339 91.4295 334.139 89.3422 330.435 89.3422C326.731 89.3422 321.009 91.5664 321.009 98.4786C321.009 102.893 324.052 105.733 326.698 107.239H323.159V118.941H338.537V115.006H327.425V107.581Z" fill="white"/>
<path d="M179.057 142.789H180.64V130.239H179.057V142.789Z" fill="white"/>
<path d="M190.21 136.69C190.21 136.18 190.175 135.776 189.876 135.143C189.735 134.809 189.542 134.545 189.278 134.317C188.785 133.878 187.783 133.491 186.463 133.491C184.809 133.491 183.701 134.018 183.155 135.073C182.997 135.372 182.891 135.793 182.821 136.373H184.404C184.457 136.039 184.475 135.916 184.704 135.495C184.967 135.055 185.583 134.792 186.498 134.792C187.853 134.792 188.627 135.266 188.627 136.11C188.627 136.795 188.486 137.024 187.448 137.323C187.29 137.375 186.956 137.428 186.445 137.481C185.953 137.533 185.495 137.604 185.055 137.692C184.616 137.78 184.176 137.903 183.701 138.078C182.786 138.43 182.188 139.238 182.188 140.381C182.188 141.541 182.715 143 185.495 143C187.237 143 188.398 142.226 188.68 140.768H188.697C188.697 141.805 188.715 142.472 188.768 142.789H190.351C190.263 142.472 190.21 142.068 190.21 141.558V136.69ZM188.627 138.57C188.627 140.873 187.624 141.769 185.671 141.769C184.528 141.769 183.824 141.189 183.824 140.346C183.824 139.221 184.492 138.834 186.111 138.535C187.783 138.201 188.469 137.903 188.627 137.112V138.57Z" fill="white"/>
<path d="M196.447 140.117C196.517 141.154 196.904 141.91 197.608 142.349C198.312 142.789 199.191 143 200.247 143C201.602 143 202.78 142.736 203.625 141.84C204.065 141.383 204.276 140.82 204.276 140.135C204.276 139.309 203.959 138.676 203.326 138.307C202.71 137.938 202.165 137.744 201.303 137.551C201.144 137.516 200.916 137.463 200.599 137.41L199.895 137.27L199.314 137.094C198.699 136.883 198.329 136.567 198.329 135.987C198.329 135.143 199.209 134.774 200.247 134.774C201.426 134.774 202.147 135.055 202.411 136.18H203.871C203.731 135.125 203.361 134.422 202.745 134.053C202.147 133.684 201.285 133.491 200.141 133.491C199.244 133.491 198.452 133.719 197.766 134.159C197.08 134.598 196.746 135.231 196.746 136.075C196.816 137.217 197.274 137.744 198.188 138.131C198.875 138.395 199.191 138.465 200.018 138.623C200.388 138.693 200.652 138.746 200.828 138.799C201.021 138.834 201.25 138.904 201.531 138.992C201.813 139.08 202.024 139.186 202.147 139.291C202.429 139.502 202.692 139.854 202.692 140.328C202.692 140.838 202.446 141.189 201.971 141.4C201.496 141.611 200.951 141.717 200.317 141.717C198.857 141.717 198.065 141.189 197.977 140.117H196.447Z" fill="white"/>
<path d="M208.372 133.702V132.208C208.372 131.768 208.618 131.557 209.111 131.557H210.008V130.239H208.829C207.615 130.239 206.841 130.977 206.841 131.979V133.702H205.328V134.985H206.841V142.789H208.389V134.985H210.113V133.702H208.372Z" fill="white"/>
<path d="M213.286 130.239H211.667V132.067H213.286V130.239ZM211.685 142.789H213.268V133.702H211.685V142.789Z" fill="white"/>
<path d="M221.976 135.512H221.905C221.571 134.194 220.357 133.491 219.002 133.491C217.665 133.491 216.645 133.948 215.923 134.862C215.22 135.758 214.868 136.901 214.868 138.272C214.868 139.625 215.22 140.768 215.941 141.664C216.662 142.56 217.683 143 219.02 143C220.41 143 221.377 142.349 221.958 141.049H221.993V142.789H223.524V130.239H221.94L221.976 135.512ZM219.213 141.681C218.263 141.681 217.577 141.348 217.137 140.68C216.697 139.994 216.486 139.168 216.486 138.166C216.486 137.235 216.715 136.444 217.173 135.811C217.648 135.161 218.334 134.844 219.249 134.844C220.955 134.844 221.923 136.11 221.976 137.99V138.113C221.976 139.115 221.765 139.977 221.325 140.662C220.902 141.348 220.199 141.681 219.213 141.681Z" fill="white"/>
<path d="M232.958 136.69C232.958 136.18 232.923 135.776 232.624 135.143C232.483 134.809 232.29 134.545 232.026 134.317C231.533 133.878 230.53 133.491 229.211 133.491C227.557 133.491 226.448 134.018 225.903 135.073C225.745 135.372 225.639 135.793 225.569 136.373H227.152C227.205 136.039 227.222 135.916 227.451 135.495C227.715 135.055 228.331 134.792 229.246 134.792C230.6 134.792 231.375 135.266 231.375 136.11C231.375 136.795 231.234 137.024 230.196 137.323C230.037 137.375 229.703 137.428 229.193 137.481C228.7 137.533 228.243 137.604 227.803 137.692C227.363 137.78 226.923 137.903 226.448 138.078C225.533 138.43 224.935 139.238 224.935 140.381C224.935 141.541 225.463 143 228.243 143C229.985 143 231.146 142.226 231.427 140.768H231.445C231.445 141.805 231.463 142.472 231.515 142.789H233.099C233.011 142.472 232.958 142.068 232.958 141.558V136.69ZM231.375 138.57C231.375 140.873 230.372 141.769 228.419 141.769C227.275 141.769 226.571 141.189 226.571 140.346C226.571 139.221 227.24 138.834 228.859 138.535C230.53 138.201 231.216 137.903 231.375 137.112V138.57Z" fill="white"/>
<path d="M246.408 135.512H246.337C246.003 134.194 244.789 133.491 243.434 133.491C242.097 133.491 241.077 133.948 240.355 134.862C239.652 135.758 239.3 136.901 239.3 138.272C239.3 139.625 239.652 140.768 240.373 141.664C241.094 142.56 242.115 143 243.452 143C244.842 143 245.81 142.349 246.39 141.049H246.425V142.789H247.956V130.239H246.373L246.408 135.512ZM243.646 141.681C242.695 141.681 242.009 141.348 241.569 140.68C241.13 139.994 240.918 139.168 240.918 138.166C240.918 137.235 241.147 136.444 241.605 135.811C242.08 135.161 242.766 134.844 243.681 134.844C245.387 134.844 246.355 136.11 246.408 137.99V138.113C246.408 139.115 246.197 139.977 245.757 140.662C245.335 141.348 244.631 141.681 243.646 141.681Z" fill="white"/>
<path d="M251.549 130.239H249.93V132.067H251.549V130.239ZM249.948 142.789H251.531V133.702H249.948V142.789Z" fill="white"/>
<path d="M263.571 133.667C261.865 133.385 260.457 134.141 259.947 135.969H259.912V133.702H258.416V142.789H260V138.746C260 136.092 261.372 134.809 263.571 135.161V133.667Z" fill="white"/>
<path d="M266.566 130.239H264.947V132.067H266.566V130.239ZM264.965 142.789H266.548V133.702H264.965V142.789Z" fill="white"/>
<path d="M276.821 136.444C276.733 135.547 276.329 134.844 275.607 134.299C274.886 133.755 273.954 133.491 272.828 133.491C271.455 133.491 270.347 133.948 269.485 134.879C268.64 135.793 268.218 136.936 268.218 138.324C268.218 139.713 268.605 140.855 269.397 141.717C270.188 142.578 271.279 143 272.634 143C275.044 143 276.434 142.103 276.909 139.836H275.379C275.097 141.154 274.2 141.681 272.669 141.681C271.772 141.681 271.051 141.348 270.54 140.68C270.03 140.012 269.766 139.221 269.766 138.324C269.766 137.34 270.03 136.514 270.54 135.829C271.068 135.143 271.807 134.792 272.775 134.792C274.13 134.792 274.974 135.336 275.273 136.444H276.821Z" fill="white"/>
<path d="M277.82 138.254C277.82 139.625 278.225 140.768 279.016 141.664C279.808 142.56 280.916 143 282.306 143C283.696 143 284.805 142.56 285.596 141.664C286.388 140.768 286.793 139.625 286.793 138.254C286.793 136.866 286.388 135.741 285.596 134.844C284.805 133.948 283.696 133.491 282.306 133.491C280.916 133.491 279.808 133.948 279.016 134.844C278.225 135.741 277.82 136.866 277.82 138.254ZM285.209 138.254C285.209 139.309 284.928 140.152 284.365 140.768C283.819 141.383 283.133 141.681 282.306 141.681C281.479 141.681 280.793 141.383 280.23 140.768C279.685 140.152 279.403 139.309 279.403 138.254C279.403 137.182 279.685 136.338 280.23 135.723C280.793 135.108 281.479 134.792 282.306 134.792C283.133 134.792 283.819 135.108 284.365 135.723C284.928 136.338 285.209 137.182 285.209 138.254Z" fill="white"/>
<path d="M287.887 140.117C287.957 141.154 288.344 141.91 289.048 142.349C289.752 142.789 290.631 143 291.687 143C293.042 143 294.22 142.736 295.065 141.84C295.505 141.383 295.716 140.82 295.716 140.135C295.716 139.309 295.399 138.676 294.766 138.307C294.15 137.938 293.605 137.744 292.743 137.551C292.584 137.516 292.356 137.463 292.039 137.41L291.335 137.27L290.754 137.094C290.139 136.883 289.769 136.567 289.769 135.987C289.769 135.143 290.649 134.774 291.687 134.774C292.866 134.774 293.587 135.055 293.851 136.18H295.311C295.171 135.125 294.801 134.422 294.185 134.053C293.587 133.684 292.725 133.491 291.581 133.491C290.684 133.491 289.892 133.719 289.206 134.159C288.52 134.598 288.186 135.231 288.186 136.075C288.256 137.217 288.714 137.744 289.628 138.131C290.315 138.395 290.631 138.465 291.458 138.623C291.828 138.693 292.092 138.746 292.268 138.799C292.461 138.834 292.69 138.904 292.971 138.992C293.253 139.08 293.464 139.186 293.587 139.291C293.869 139.502 294.133 139.854 294.133 140.328C294.133 140.838 293.886 141.189 293.411 141.4C292.936 141.611 292.391 141.717 291.757 141.717C290.297 141.717 289.505 141.189 289.417 140.117H287.887Z" fill="white"/>
<path d="M301.413 133.702H299.6V130.802H299.548L298.052 131.54V133.702H296.557V135.002H298.052V141.049C298.052 142.156 298.422 142.789 299.548 142.789H301.325V141.453H300.269C299.724 141.453 299.6 141.312 299.6 140.891V135.002H301.413V133.702Z" fill="white"/>
<path d="M308.157 133.667C306.451 133.385 305.043 134.141 304.533 135.969H304.498V133.702H303.002V142.789H304.586V138.746C304.586 136.092 305.958 134.809 308.157 135.161V133.667Z" fill="white"/>
<path d="M315.796 138.518C315.796 140.785 314.882 141.681 313.105 141.681C311.767 141.681 311.011 141.119 311.011 139.52V133.702H309.427V139.678C309.427 141.717 310.589 143 312.893 143C314.301 143 315.427 142.279 315.849 140.82H315.884V142.789H317.38V133.702H315.796V138.518Z" fill="white"/>
<path d="M321.031 130.239H319.412V132.067H321.031V130.239ZM319.43 142.789H321.013V133.702H319.43V142.789Z" fill="white"/>
<path d="M328.225 133.667C326.519 133.385 325.111 134.141 324.601 135.969H324.566V133.702H323.07V142.789H324.654V138.746C324.654 136.092 326.026 134.809 328.225 135.161V133.667Z" fill="white"/>
<path d="M333.577 133.491C332.293 133.491 331.202 133.948 330.34 134.844C329.478 135.741 329.038 136.866 329.038 138.219C329.126 141.101 330.745 143 333.63 143C335.741 143 337.254 141.892 337.659 139.906H336.111C335.847 141.084 334.914 141.681 333.63 141.681C331.783 141.681 330.78 140.697 330.622 138.711H337.817C337.923 136.496 336.867 133.491 333.577 133.491ZM330.674 137.375C330.956 135.829 332.099 134.792 333.577 134.792C335.073 134.792 336.128 135.899 336.216 137.375H330.674Z" fill="white"/>
<g filter="url(#filter0_d_1955_65375)">
<path d="M208.552 220.879C214.842 224.083 218.294 232.598 219.233 236.456L224.426 270.427L-14.4225 272.801C-15.461 228.295 -7.5983 220.577 1.45123 213.311C15.9898 201.638 29.4899 195.955 49.8143 195.807C70.1387 195.658 85.419 209.604 91.3531 218.357C97.2873 227.11 102.628 227.258 104.112 227.258C105.595 227.258 114.793 226.071 121.172 215.834C127.551 205.598 134.969 198.477 144.167 198.032C153.365 197.587 161.672 206.043 170.425 214.054C179.178 222.065 185.112 218.95 190.156 218.357C195.2 217.763 200.689 216.873 208.552 220.879Z" fill="#72B4F7"/>
</g>
<path d="M72.9092 114.946H70.377V422H72.9092V114.946Z" fill="white"/>
<path d="M112.458 114.946H109.926V422H112.458V114.946Z" fill="white"/>
<path d="M110.184 221.409V218.798H72.4222V221.409H110.184Z" fill="white"/>
<path d="M110.184 197.639V195.027H72.4222V197.639H110.184Z" fill="white"/>
<path d="M110.184 173.862V171.251H72.4222V173.862H110.184Z" fill="white"/>
<path d="M110.184 245.182V242.57H72.4222V245.182H110.184Z" fill="white"/>
<path d="M110.178 268.952V266.341H72.4163V268.952H110.178Z" fill="white"/>
<path d="M110.178 292.723V290.111H72.4164V292.723H110.178Z" fill="white"/>
<path d="M103.842 139.815C100.301 143.555 98.5588 156.756 98.5588 156.756L92.235 173.404C92.049 173.894 91.9645 174.417 91.9866 174.941C92.0088 175.465 92.1372 175.978 92.364 176.451C92.5909 176.924 92.9114 177.346 93.3061 177.691C93.7009 178.036 94.1616 178.297 94.6605 178.459C95.2831 178.658 95.9459 178.696 96.5874 178.571C97.229 178.446 97.8287 178.161 98.3311 177.743L99.5485 176.721C99.9713 176.368 100.488 176.145 101.035 176.08L103.238 175.815C103.944 175.728 104.625 175.493 105.236 175.127L107.531 173.734C107.85 173.542 108.127 173.289 108.346 172.989C108.566 172.689 108.723 172.348 108.809 171.986L109.102 170.751C109.137 170.59 109.137 170.423 109.102 170.262C109.067 170.102 108.999 169.95 108.9 169.818C108.802 169.686 108.677 169.576 108.533 169.497C108.389 169.417 108.229 169.369 108.065 169.357L106.244 169.222C106.138 169.213 106.035 169.179 105.944 169.124C105.853 169.069 105.776 168.993 105.719 168.903C105.662 168.813 105.626 168.711 105.615 168.605C105.604 168.5 105.617 168.392 105.654 168.293L117.958 137.728C118.53 136.307 118.707 134.758 118.472 133.244C118.236 131.73 117.596 130.308 116.619 129.128L105.761 115.979C105.638 115.829 105.562 115.647 105.542 115.454C105.522 115.262 105.559 115.068 105.649 114.896C105.738 114.725 105.877 114.583 106.046 114.49C106.216 114.397 106.409 114.355 106.602 114.371L112.108 114.836C112.325 114.854 112.544 114.821 112.746 114.739C112.948 114.657 113.128 114.529 113.272 114.365C113.416 114.201 113.519 114.005 113.573 113.794C113.628 113.583 113.632 113.362 113.585 113.149L103.698 67.3028C103.518 66.4499 103.644 65.5611 104.054 64.7916C104.463 64.0221 105.13 63.421 105.937 63.0932C112.568 60.454 116.42 56.8763 118.283 54.7296C118.726 54.2193 119.009 53.5904 119.098 52.9207C119.187 52.251 119.078 51.5698 118.785 50.9614L113.362 39.6288C113.068 39.0147 112.635 38.4772 112.098 38.0583L109.64 36.1486C109.092 35.7228 108.458 35.4216 107.782 35.2658L104.831 34.5967C103.898 34.3853 102.925 34.4319 102.016 34.7315L94.0146 37.3799C93.8603 37.4305 93.723 37.5228 93.618 37.6467C93.5131 37.7705 93.4444 37.921 93.4199 38.0815V38.0815C93.4009 38.1997 93.4062 38.3205 93.4353 38.4366C93.4645 38.5527 93.5169 38.6616 93.5895 38.7568C93.6621 38.852 93.7533 38.9314 93.8575 38.9903C93.9617 39.0491 94.0768 39.0861 94.1958 39.0991L101.579 39.9169C101.974 39.9619 102.349 40.1102 102.668 40.3467C102.987 40.5833 103.238 40.8998 103.396 41.2643L106.922 49.4327C106.991 49.5914 107.026 49.7622 107.028 49.9349C107.029 50.1076 106.996 50.2789 106.93 50.4386C106.864 50.5984 106.767 50.7433 106.645 50.865C106.522 50.9867 106.376 51.0827 106.216 51.1473L102.499 52.6434C101.896 52.8895 101.258 53.0385 100.608 53.0848L97.6342 53.3032C96.8409 53.3608 96.0519 53.1443 95.3992 52.6899L92.5092 50.664C92.3138 50.5262 92.1666 50.3306 92.0883 50.1047C92.0099 49.8788 92.0044 49.634 92.0724 49.4049L93.4152 44.9489C93.5138 44.6205 93.525 44.2719 93.4476 43.9378C93.3702 43.6037 93.2068 43.2956 92.9738 43.0439L92.4441 42.4678C92.2565 42.2665 92.1212 42.0224 92.0499 41.7567C91.9786 41.491 91.9736 41.2118 92.0352 40.9437L92.6625 38.1838C92.8687 37.2843 92.7328 36.3402 92.2815 35.5353L91.3522 33.8533C90.7177 32.7165 89.8477 31.7284 88.8003 30.9551C87.753 30.1819 86.5525 29.6413 85.2793 29.3695L84.4802 29.2023C83.0112 28.8882 81.4875 28.9405 80.0435 29.3546C78.5995 29.7687 77.2796 30.5318 76.2003 31.5766V31.5766C73.9514 33.7511 71.9488 37.1848 72.5853 40.2514L74.6995 45.2788C74.7893 45.7108 74.9264 46.1315 75.1084 46.5334L76.7021 49.9996C76.7335 50.066 76.7487 50.1389 76.7465 50.2123C76.7443 50.2858 76.7247 50.3576 76.6893 50.422C76.654 50.4864 76.6038 50.5415 76.5431 50.5827C76.4823 50.624 76.4126 50.6503 76.3397 50.6594V50.6594C76.1805 50.6779 76.0288 50.7373 75.8994 50.8317C75.7699 50.9261 75.6671 51.0525 75.6009 51.1984L73.7423 55.1432C73.3607 55.9524 72.8508 56.6945 72.2322 57.3409L67.4139 62.3683C66.5021 63.3159 65.8036 64.4475 65.3652 65.6873C64.9268 66.927 64.7588 68.2463 64.8723 69.5563L66.099 83.4352C66.1782 84.3492 66.3765 85.2489 66.6891 86.1115L69.1796 93.0114C69.8589 94.8999 70.0194 96.9361 69.6442 98.9077L68.1248 106.797C67.8426 108.271 67.7334 109.773 67.7996 111.272L68.148 119.171C68.2288 120.98 68.8485 122.725 69.9276 124.18L70.8987 125.494C72.163 127.199 72.8544 129.26 72.8734 131.381L73.4635 190.233C73.4823 192.054 73.8433 193.856 74.5276 195.544L75.8657 198.857C76.2607 199.837 76.4091 200.9 76.2979 201.951L76.2235 202.611C76.1358 203.425 76.3583 204.242 76.8467 204.899C77.335 205.557 78.0533 206.005 78.858 206.156V206.156C79.2912 206.237 79.7363 206.229 80.1663 206.132C80.5963 206.036 81.0022 205.853 81.3594 205.595C81.7166 205.337 82.0176 205.009 82.2442 204.631C82.4707 204.253 82.6181 203.833 82.6774 203.396C82.8461 202.114 83.4773 200.938 84.4523 200.088C86.1582 198.496 87.5595 196.607 88.5876 194.512C88.7093 194.278 88.7605 194.013 88.7349 193.75C88.7092 193.487 88.6079 193.237 88.4432 193.031C88.2785 192.824 88.0574 192.67 87.8068 192.587C87.5561 192.503 87.2867 192.494 87.0311 192.561V192.561C86.9568 192.579 86.8794 192.581 86.8042 192.567C86.729 192.553 86.6578 192.523 86.5952 192.479C86.5326 192.435 86.4803 192.378 86.4416 192.312C86.403 192.246 86.379 192.172 86.3713 192.096L85.1678 172.293C85.1082 171.273 85.116 170.25 85.1911 169.231L86.743 148.253C86.8514 146.806 87.0391 145.367 87.3052 143.941L89.9629 129.797C90.0029 129.583 90.0968 129.383 90.2358 129.216C90.3748 129.048 90.5543 128.919 90.7572 128.84C90.9601 128.762 91.1797 128.736 91.3953 128.766C91.6108 128.796 91.8151 128.881 91.9888 129.012L103.707 137.84C103.855 137.954 103.977 138.099 104.065 138.264C104.153 138.429 104.205 138.611 104.218 138.797C104.23 138.984 104.204 139.171 104.139 139.346C104.074 139.522 103.973 139.681 103.842 139.815V139.815Z" fill="#00122E"/>
<g filter="url(#filter1_d_1955_65375)">
<path d="M359.743 283.196C368.841 290.605 372.726 295.13 400.506 295.329C400.593 295.329 400.675 295.379 400.712 295.457L404.749 303.813C404.822 303.963 404.713 304.138 404.545 304.138L143.529 304.138C143.33 304.138 143.213 303.913 143.349 303.767C151.042 295.492 173.112 266.132 192.326 249.509C216.719 228.405 257.391 237.409 270.632 254.87C281.472 269.165 290.956 275.385 298.864 277.239C313.016 280.558 326.347 272.314 336.934 272.384C345.211 272.438 351.19 276.232 359.743 283.196Z" fill="#ABD2FA"/>
</g>
<g filter="url(#filter2_d_1955_65375)">
<path d="M65.0576 228.387C68.8946 238.819 65.6779 242.777 61.6857 249.979C57.6935 257.181 44.2804 272.16 29.134 281.098C-36.0331 319.552 -100.505 137.1 -100.505 137.1C-99.2936 137.803 -94.3161 141.353 -84.0973 149.927C-71.3238 160.645 -62.5605 157.268 -60.5183 156.645C-58.476 156.021 -52.6178 154.045 -43.0477 159.662C-35.3916 164.156 -33.8597 173.724 -34.0508 177.946C-14.6282 155.947 -0.789999 169.004 2.05826 172.168C4.90653 175.332 8.19645 182.264 15.5222 183.653C22.848 185.042 31.5339 177.917 43.8666 190.073C53.7327 199.798 52.7084 212.411 51.4404 218.008C53.8118 216.915 61.5389 218.821 65.0576 228.387Z" fill="#ABD2FA"/>
</g>
<g filter="url(#filter3_d_1955_65375)">
<path d="M231.815 273.748C233.568 286.022 215.047 305.747 210.564 307.525C210.56 307.526 210.555 307.527 210.551 307.527L-46.0238 308.839C-46.0372 308.84 -46.0491 308.834 -46.0565 308.822C-50.936 301.376 -63.7692 281.18 -57.6513 266.993C-52.7649 255.661 -40.1858 257.303 -34.4655 259.553C-34.4434 259.562 -34.4203 259.55 -34.4143 259.527C-33.0078 254.134 -26.3729 242.639 -10.9601 239.468C4.43646 236.3 13.6052 251.265 16.3009 259.228C16.3121 259.261 16.3556 259.265 16.3716 259.234C18.4652 255.16 25.2504 246.364 36.0381 243.11C46.8463 239.85 57.8001 245.777 61.9914 249.195C62.0167 249.215 62.0531 249.198 62.0554 249.165C62.3345 245.283 73.5578 239.227 84.8355 244.059C93.6793 247.849 97.9378 260.643 99.0678 267.045C99.0763 267.093 99.2776 267.107 99.3 267.063C100.184 265.357 104.967 261.706 111.359 261.674C116.973 261.646 121.895 266.962 123.723 269.717C123.744 269.749 123.792 269.733 123.795 269.695C125.091 250.505 134.971 235.01 148.99 234.791C160.063 234.618 164.759 243.734 165.784 248.514C165.793 248.557 165.865 248.556 165.878 248.514C166.734 245.759 175.631 240.474 182.403 240.44C195.409 240.375 200.708 253.036 201.224 259.369C201.227 259.399 201.261 259.414 201.286 259.397C211.981 252.245 229.627 258.425 231.815 273.748Z" fill="#CCE4FC"/>
</g>
</g>
<defs>
<filter id="filter0_d_1955_65375" x="-20.1851" y="187.868" width="250.28" height="88.3341" filterUnits="userSpaceOnUse" color-interpolation-filters="sRGB">
<feFlood flood-opacity="0" result="BackgroundImageFix"/>
<feColorMatrix in="SourceAlpha" type="matrix" values="0 0 0 0 0 0 0 0 0 0 0 0 0 0 0 0 0 0 127 0" result="hardAlpha"/>
<feOffset dy="-2.26779"/>
<feGaussianBlur stdDeviation="2.83473"/>
<feComposite in2="hardAlpha" operator="out"/>
<feColorMatrix type="matrix" values="0 0 0 0 0.165278 0 0 0 0 0.381266 0 0 0 0 0.708333 0 0 0 0.8 0"/>
<feBlend mode="normal" in2="BackgroundImageFix" result="effect1_dropShadow_1955_65375"/>
<feBlend mode="normal" in="SourceGraphic" in2="effect1_dropShadow_1955_65375" result="shape"/>
</filter>
<filter id="filter1_d_1955_65375" x="138.361" y="230.34" width="271.34" height="76.7552" filterUnits="userSpaceOnUse" color-interpolation-filters="sRGB">
<feFlood flood-opacity="0" result="BackgroundImageFix"/>
<feColorMatrix in="SourceAlpha" type="matrix" values="0 0 0 0 0 0 0 0 0 0 0 0 0 0 0 0 0 0 127 0" result="hardAlpha"/>
<feOffset dy="-1.97193"/>
<feGaussianBlur stdDeviation="2.46492"/>
<feComposite in2="hardAlpha" operator="out"/>
<feColorMatrix type="matrix" values="0 0 0 0 0.165278 0 0 0 0 0.381266 0 0 0 0 0.708333 0 0 0 0.8 0"/>
<feBlend mode="normal" in2="BackgroundImageFix" result="effect1_dropShadow_1955_65375"/>
<feBlend mode="normal" in="SourceGraphic" in2="effect1_dropShadow_1955_65375" result="shape"/>
</filter>
<filter id="filter2_d_1955_65375" x="-105.436" y="130.199" width="177.145" height="159.181" filterUnits="userSpaceOnUse" color-interpolation-filters="sRGB">
<feFlood flood-opacity="0" result="BackgroundImageFix"/>
<feColorMatrix in="SourceAlpha" type="matrix" values="0 0 0 0 0 0 0 0 0 0 0 0 0 0 0 0 0 0 127 0" result="hardAlpha"/>
<feOffset dy="-1.97193"/>
<feGaussianBlur stdDeviation="2.46492"/>
<feComposite in2="hardAlpha" operator="out"/>
<feColorMatrix type="matrix" values="0 0 0 0 0.165278 0 0 0 0 0.381266 0 0 0 0 0.708333 0 0 0 0.8 0"/>
<feBlend mode="normal" in2="BackgroundImageFix" result="effect1_dropShadow_1955_65375"/>
<feBlend mode="normal" in="SourceGraphic" in2="effect1_dropShadow_1955_65375" result="shape"/>
</filter>
<filter id="filter3_d_1955_65375" x="-64.2013" y="227.886" width="301.063" height="83.9114" filterUnits="userSpaceOnUse" color-interpolation-filters="sRGB">
<feFlood flood-opacity="0" result="BackgroundImageFix"/>
<feColorMatrix in="SourceAlpha" type="matrix" values="0 0 0 0 0 0 0 0 0 0 0 0 0 0 0 0 0 0 127 0" result="hardAlpha"/>
<feOffset dy="-1.97193"/>
<feGaussianBlur stdDeviation="2.46492"/>
<feComposite in2="hardAlpha" operator="out"/>
<feColorMatrix type="matrix" values="0 0 0 0 0.165278 0 0 0 0 0.381266 0 0 0 0 0.708333 0 0 0 0.8 0"/>
<feBlend mode="normal" in2="BackgroundImageFix" result="effect1_dropShadow_1955_65375"/>
<feBlend mode="normal" in="SourceGraphic" in2="effect1_dropShadow_1955_65375" result="shape"/>
</filter>
<clipPath id="clip0_1955_65375">
<rect width="385" height="300" fill="white"/>
</clipPath>
</defs>
</svg>
