<svg width="143" height="143" viewBox="0 0 143 143" fill="none" xmlns="http://www.w3.org/2000/svg">
<rect width="143" height="143" rx="50" fill="url(#paint0_linear_631_28217)"/>
<path d="M73.9113 108.5C84.1113 108.5 91.7113 105.1 96.6113 101.1C99.3113 98.7002 99.9113 96.6002 99.9113 94.3002L100.011 84.3002C100.011 79.6002 105.311 80.4002 105.311 76.8002C105.311 75.3002 104.611 74.1002 102.611 74.1002L84.8113 74.0002C82.8113 74.0002 81.9113 75.2002 81.9113 76.7002C81.9113 80.4002 88.0113 79.7002 88.0113 84.2002L88.1113 96.0002C86.1113 97.2002 83.4113 97.9002 79.4113 97.9002C65.8113 97.9002 55.2113 86.4002 55.2113 65.5002C55.2113 52.4002 60.0113 44.7002 68.8113 44.7002C81.8113 44.7002 80.7113 61.7002 91.8113 61.7002C96.2113 61.7002 98.8113 58.3002 98.8113 54.8002C98.8113 47.7002 89.8113 37.7002 72.2113 37.7002C52.8113 37.7002 39.6113 52.1002 39.6113 71.6002C39.6113 94.9002 54.3113 108.5 73.9113 108.5Z" fill="white"/>
<defs>
<linearGradient id="paint0_linear_631_28217" x1="5.77214" y1="-50.6458" x2="203.274" y2="38.7951" gradientUnits="userSpaceOnUse">
<stop stop-color="#FFB26A"/>
<stop offset="1" stop-color="#FF4466"/>
</linearGradient>
</defs>
</svg>
