<svg width="1300" height="800" viewBox="0 0 1300 800" fill="none" xmlns="http://www.w3.org/2000/svg">
<g clip-path="url(#clip0_1962_16713)">
<rect width="1300" height="800" rx="40" fill="white"/>
<path d="M83.124 97.54H87.964V124.82H103.892V129H83.124V97.54ZM115.913 129.66C113.625 129.66 111.63 129.161 109.929 128.164C108.257 127.167 106.966 125.773 106.057 123.984C105.148 122.165 104.693 120.097 104.693 117.78C104.693 115.463 105.148 113.395 106.057 111.576C106.966 109.757 108.257 108.349 109.929 107.352C111.63 106.355 113.64 105.856 115.957 105.856C118.245 105.856 120.225 106.355 121.897 107.352C123.569 108.349 124.86 109.757 125.769 111.576C126.678 113.365 127.133 115.419 127.133 117.736C127.133 120.083 126.678 122.165 125.769 123.984C124.86 125.773 123.554 127.167 121.853 128.164C120.181 129.161 118.201 129.66 115.913 129.66ZM115.957 126.096C117.424 126.096 118.656 125.744 119.653 125.04C120.68 124.307 121.428 123.309 121.897 122.048C122.396 120.787 122.645 119.349 122.645 117.736C122.645 115.301 122.073 113.321 120.929 111.796C119.785 110.241 118.128 109.464 115.957 109.464C114.461 109.464 113.2 109.816 112.173 110.52C111.176 111.224 110.428 112.207 109.929 113.468C109.43 114.729 109.181 116.167 109.181 117.78C109.181 120.244 109.753 122.253 110.897 123.808C112.041 125.333 113.728 126.096 115.957 126.096ZM140.439 137.052C138.385 137.052 136.625 136.744 135.159 136.128C133.692 135.512 132.563 134.661 131.771 133.576C130.979 132.52 130.509 131.303 130.363 129.924H134.851C135.085 131.039 135.643 131.919 136.523 132.564C137.432 133.209 138.737 133.532 140.439 133.532C142.521 133.532 144.076 133.048 145.103 132.08C146.129 131.112 146.643 129.587 146.643 127.504V106.56H150.955V127.24C150.955 130.525 150.031 132.975 148.183 134.588C146.364 136.231 143.783 137.052 140.439 137.052ZM139.647 127.856C137.74 127.856 136.039 127.445 134.543 126.624C133.047 125.773 131.873 124.527 131.023 122.884C130.172 121.212 129.747 119.217 129.747 116.9C129.747 114.553 130.172 112.559 131.023 110.916C131.873 109.273 133.047 108.027 134.543 107.176C136.039 106.325 137.74 105.9 139.647 105.9C141.289 105.9 142.668 106.223 143.783 106.868C144.897 107.484 145.821 108.261 146.555 109.2H146.951V124.468H146.555C145.851 125.495 144.941 126.316 143.827 126.932C142.712 127.548 141.319 127.856 139.647 127.856ZM140.439 124.292C141.729 124.292 142.829 124.013 143.739 123.456C144.677 122.899 145.381 122.077 145.851 120.992C146.349 119.877 146.599 118.513 146.599 116.9C146.599 115.287 146.349 113.923 145.851 112.808C145.381 111.693 144.677 110.872 143.739 110.344C142.829 109.787 141.729 109.508 140.439 109.508C139.06 109.508 137.901 109.831 136.963 110.476C136.053 111.092 135.364 111.957 134.895 113.072C134.455 114.187 134.235 115.463 134.235 116.9C134.235 119.1 134.763 120.889 135.819 122.268C136.875 123.617 138.415 124.292 140.439 124.292ZM165.8 129.66C163.512 129.66 161.517 129.161 159.816 128.164C158.144 127.167 156.853 125.773 155.944 123.984C155.034 122.165 154.58 120.097 154.58 117.78C154.58 115.463 155.034 113.395 155.944 111.576C156.853 109.757 158.144 108.349 159.816 107.352C161.517 106.355 163.526 105.856 165.844 105.856C168.132 105.856 170.112 106.355 171.784 107.352C173.456 108.349 174.746 109.757 175.656 111.576C176.565 113.365 177.02 115.419 177.02 117.736C177.02 120.083 176.565 122.165 175.656 123.984C174.746 125.773 173.441 127.167 171.74 128.164C170.068 129.161 168.088 129.66 165.8 129.66ZM165.844 126.096C167.31 126.096 168.542 125.744 169.54 125.04C170.566 124.307 171.314 123.309 171.784 122.048C172.282 120.787 172.532 119.349 172.532 117.736C172.532 115.301 171.96 113.321 170.816 111.796C169.672 110.241 168.014 109.464 165.844 109.464C164.348 109.464 163.086 109.816 162.06 110.52C161.062 111.224 160.314 112.207 159.816 113.468C159.317 114.729 159.068 116.167 159.068 117.78C159.068 120.244 159.64 122.253 160.784 123.808C161.928 125.333 163.614 126.096 165.844 126.096ZM187.652 129.264C186.332 129.264 185.247 129.073 184.396 128.692C183.545 128.281 182.885 127.607 182.416 126.668C181.947 125.7 181.712 124.365 181.712 122.664V99.344H186.024V122.796C186.024 123.588 186.097 124.189 186.244 124.6C186.42 125.011 186.684 125.304 187.036 125.48C187.388 125.627 187.887 125.7 188.532 125.7C189.031 125.7 189.647 125.641 190.38 125.524V129C189.412 129.176 188.503 129.264 187.652 129.264ZM178.456 106.56H190.336V110.124H178.456V106.56ZM196.828 136.876C195.977 136.876 195.053 136.773 194.056 136.568V133.048C194.819 133.136 195.435 133.18 195.904 133.18C196.579 133.18 197.195 133.048 197.752 132.784C198.339 132.52 198.881 132.065 199.38 131.42C199.879 130.775 200.26 129.895 200.524 128.78L191.46 106.56H196.168L202.724 123.72H202.812L208.972 106.56H213.504L204.616 129.528C203.912 131.376 203.179 132.828 202.416 133.884C201.683 134.94 200.861 135.703 199.952 136.172C199.043 136.641 198.001 136.876 196.828 136.876ZM227.447 129.616C225.833 129.616 224.44 129.308 223.267 128.692C222.123 128.076 221.213 127.255 220.539 126.228H219.395V109.2H220.539C221.243 108.261 222.167 107.484 223.311 106.868C224.484 106.223 225.863 105.9 227.447 105.9C229.353 105.9 231.069 106.384 232.595 107.352C234.12 108.291 235.323 109.669 236.203 111.488C237.083 113.277 237.523 115.375 237.523 117.78C237.523 120.185 237.083 122.283 236.203 124.072C235.323 125.861 234.12 127.24 232.595 128.208C231.069 129.147 229.353 129.616 227.447 129.616ZM216.139 106.56H220.451V136.788H216.139V106.56ZM226.743 126.052C228.092 126.052 229.236 125.685 230.175 124.952C231.143 124.189 231.847 123.177 232.287 121.916C232.756 120.655 232.991 119.276 232.991 117.78C232.991 116.255 232.756 114.861 232.287 113.6C231.847 112.339 231.143 111.341 230.175 110.608C229.236 109.875 228.092 109.508 226.743 109.508C225.452 109.508 224.337 109.845 223.399 110.52C222.46 111.165 221.741 112.119 221.243 113.38C220.744 114.612 220.495 116.079 220.495 117.78C220.495 119.452 220.744 120.919 221.243 122.18C221.741 123.412 222.46 124.365 223.399 125.04C224.337 125.715 225.452 126.052 226.743 126.052ZM251.177 129.66C248.859 129.66 246.865 129.161 245.193 128.164C243.521 127.137 242.245 125.715 241.365 123.896C240.514 122.077 240.089 120.024 240.089 117.736C240.089 115.389 240.529 113.321 241.409 111.532C242.318 109.743 243.609 108.349 245.28 107.352C246.953 106.355 248.918 105.856 251.177 105.856C253.406 105.856 255.313 106.325 256.897 107.264C258.51 108.203 259.727 109.537 260.549 111.268C261.399 112.969 261.825 114.979 261.825 117.296C261.825 118.117 261.81 118.66 261.781 118.924H242.245V115.536H257.337C257.337 114.363 257.073 113.307 256.545 112.368C256.046 111.429 255.313 110.696 254.345 110.168C253.406 109.64 252.306 109.376 251.045 109.376C249.813 109.376 248.698 109.655 247.701 110.212C246.703 110.769 245.926 111.561 245.369 112.588C244.811 113.585 244.533 114.744 244.533 116.064C244.533 116.944 244.533 117.824 244.533 118.704C244.533 120.024 244.782 121.256 245.28 122.4C245.809 123.515 246.571 124.424 247.569 125.128C248.566 125.803 249.798 126.14 251.265 126.14C252.467 126.14 253.479 125.92 254.301 125.48C255.151 125.04 255.797 124.527 256.237 123.94C256.677 123.324 256.985 122.708 257.161 122.092H261.561C260.915 124.38 259.727 126.213 257.997 127.592C256.266 128.971 253.993 129.66 251.177 129.66ZM284.561 129.66C282.361 129.66 280.425 129.161 278.753 128.164C277.081 127.137 275.79 125.729 274.881 123.94C273.972 122.151 273.517 120.097 273.517 117.78C273.517 115.463 273.972 113.409 274.881 111.62C275.79 109.801 277.066 108.393 278.709 107.396C280.381 106.399 282.317 105.9 284.517 105.9C286.394 105.9 288.066 106.281 289.533 107.044C291 107.777 292.173 108.819 293.053 110.168C293.933 111.488 294.461 112.999 294.637 114.7H290.193C290.105 113.82 289.87 112.984 289.489 112.192C289.108 111.4 288.506 110.755 287.685 110.256C286.893 109.728 285.852 109.464 284.561 109.464C283.036 109.464 281.789 109.845 280.821 110.608C279.853 111.371 279.134 112.383 278.665 113.644C278.225 114.905 278.005 116.284 278.005 117.78C278.005 119.276 278.225 120.655 278.665 121.916C279.134 123.148 279.853 124.145 280.821 124.908C281.789 125.671 283.036 126.052 284.561 126.052C285.852 126.052 286.908 125.803 287.729 125.304C288.55 124.776 289.137 124.116 289.489 123.324C289.87 122.503 290.105 121.623 290.193 120.684H294.637C294.549 122.415 294.065 123.955 293.185 125.304C292.305 126.653 291.117 127.724 289.621 128.516C288.125 129.279 286.438 129.66 284.561 129.66ZM308.112 129.66C305.824 129.66 303.829 129.161 302.128 128.164C300.456 127.167 299.165 125.773 298.256 123.984C297.347 122.165 296.892 120.097 296.892 117.78C296.892 115.463 297.347 113.395 298.256 111.576C299.165 109.757 300.456 108.349 302.128 107.352C303.829 106.355 305.839 105.856 308.156 105.856C310.444 105.856 312.424 106.355 314.096 107.352C315.768 108.349 317.059 109.757 317.968 111.576C318.877 113.365 319.332 115.419 319.332 117.736C319.332 120.083 318.877 122.165 317.968 123.984C317.059 125.773 315.753 127.167 314.052 128.164C312.38 129.161 310.4 129.66 308.112 129.66ZM308.156 126.096C309.623 126.096 310.855 125.744 311.852 125.04C312.879 124.307 313.627 123.309 314.096 122.048C314.595 120.787 314.844 119.349 314.844 117.736C314.844 115.301 314.272 113.321 313.128 111.796C311.984 110.241 310.327 109.464 308.156 109.464C306.66 109.464 305.399 109.816 304.372 110.52C303.375 111.224 302.627 112.207 302.128 113.468C301.629 114.729 301.38 116.167 301.38 117.78C301.38 120.244 301.952 122.253 303.096 123.808C304.24 125.333 305.927 126.096 308.156 126.096ZM337.962 114.612C337.962 113.057 337.581 111.84 336.818 110.96C336.085 110.051 334.941 109.596 333.386 109.596C332.183 109.596 331.113 109.831 330.174 110.3C329.265 110.769 328.561 111.429 328.062 112.28C327.563 113.131 327.314 114.113 327.314 115.228H325.818V109.376H327.402C328.106 108.379 329.059 107.557 330.262 106.912C331.494 106.237 333.005 105.9 334.794 105.9C336.994 105.9 338.783 106.545 340.162 107.836C341.57 109.127 342.274 110.989 342.274 113.424V129H337.962V114.612ZM323.002 106.56H327.314V129H323.002V106.56ZM355.78 129.616C353.55 129.616 351.673 129.279 350.148 128.604C348.622 127.9 347.464 126.932 346.672 125.7C345.909 124.468 345.498 123.075 345.44 121.52H349.796C349.854 122.429 350.089 123.236 350.5 123.94C350.94 124.615 351.585 125.157 352.436 125.568C353.286 125.949 354.386 126.14 355.736 126.14C357.496 126.14 358.728 125.832 359.432 125.216C360.165 124.571 360.532 123.779 360.532 122.84C360.532 122.077 360.312 121.461 359.872 120.992C359.432 120.523 358.889 120.185 358.244 119.98C357.598 119.745 356.704 119.511 355.56 119.276C355.266 119.217 354.958 119.159 354.636 119.1C354.46 119.041 354.269 118.997 354.064 118.968C352.48 118.587 351.145 118.176 350.06 117.736C348.974 117.267 348.065 116.607 347.332 115.756C346.598 114.876 346.232 113.747 346.232 112.368C346.232 111.077 346.569 109.948 347.244 108.98C347.918 107.983 348.901 107.22 350.192 106.692C351.482 106.164 353.008 105.9 354.768 105.9C356.762 105.9 358.434 106.223 359.784 106.868C361.162 107.484 362.204 108.335 362.908 109.42C363.641 110.505 364.066 111.723 364.184 113.072H359.828C359.622 111.987 359.153 111.107 358.42 110.432C357.716 109.728 356.528 109.376 354.856 109.376C353.477 109.376 352.436 109.64 351.732 110.168C351.057 110.667 350.72 111.341 350.72 112.192C350.72 112.837 350.91 113.351 351.292 113.732C351.673 114.113 352.157 114.407 352.744 114.612C353.36 114.788 354.225 114.993 355.34 115.228C355.604 115.287 355.956 115.36 356.396 115.448C358.185 115.888 359.666 116.343 360.84 116.812C362.013 117.252 362.996 117.941 363.788 118.88C364.609 119.819 365.02 121.065 365.02 122.62C365.02 124.087 364.653 125.348 363.92 126.404C363.216 127.431 362.16 128.223 360.752 128.78C359.373 129.337 357.716 129.616 355.78 129.616ZM375.554 129.264C374.234 129.264 373.149 129.073 372.298 128.692C371.448 128.281 370.788 127.607 370.318 126.668C369.849 125.7 369.614 124.365 369.614 122.664V99.344H373.926V122.796C373.926 123.588 374 124.189 374.146 124.6C374.322 125.011 374.586 125.304 374.938 125.48C375.29 125.627 375.789 125.7 376.434 125.7C376.933 125.7 377.549 125.641 378.282 125.524V129C377.314 129.176 376.405 129.264 375.554 129.264ZM366.358 106.56H378.238V110.124H366.358V106.56ZM383.058 110.828H386.226C386.842 109.303 387.634 108.129 388.602 107.308C389.6 106.457 390.817 106.032 392.254 106.032C393.017 106.032 393.706 106.076 394.322 106.164V110.3C393.794 110.212 393.31 110.168 392.87 110.168C391.58 110.168 390.421 110.476 389.394 111.092C388.368 111.708 387.561 112.559 386.974 113.644C386.417 114.729 386.138 115.976 386.138 117.384L383.058 110.828ZM381.826 106.56H386.138V129H381.826V106.56ZM404.427 129.616C402.227 129.616 400.423 128.985 399.015 127.724C397.636 126.433 396.947 124.556 396.947 122.092V106.56H401.259V120.904C401.259 122.488 401.626 123.735 402.359 124.644C403.122 125.524 404.28 125.964 405.835 125.964C407.038 125.964 408.094 125.729 409.003 125.26C409.942 124.791 410.66 124.131 411.159 123.28C411.658 122.429 411.907 121.447 411.907 120.332H411.995V126.184H411.819C411.115 127.181 410.147 128.003 408.915 128.648C407.712 129.293 406.216 129.616 404.427 129.616ZM411.907 106.56H416.219V129H411.907V106.56ZM430.913 129.66C428.713 129.66 426.777 129.161 425.105 128.164C423.433 127.137 422.142 125.729 421.233 123.94C420.323 122.151 419.869 120.097 419.869 117.78C419.869 115.463 420.323 113.409 421.233 111.62C422.142 109.801 423.418 108.393 425.061 107.396C426.733 106.399 428.669 105.9 430.869 105.9C432.746 105.9 434.418 106.281 435.885 107.044C437.351 107.777 438.525 108.819 439.405 110.168C440.285 111.488 440.813 112.999 440.989 114.7H436.545C436.457 113.82 436.222 112.984 435.841 112.192C435.459 111.4 434.858 110.755 434.037 110.256C433.245 109.728 432.203 109.464 430.913 109.464C429.387 109.464 428.141 109.845 427.173 110.608C426.205 111.371 425.486 112.383 425.017 113.644C424.577 114.905 424.357 116.284 424.357 117.78C424.357 119.276 424.577 120.655 425.017 121.916C425.486 123.148 426.205 124.145 427.173 124.908C428.141 125.671 429.387 126.052 430.913 126.052C432.203 126.052 433.259 125.803 434.081 125.304C434.902 124.776 435.489 124.116 435.841 123.324C436.222 122.503 436.457 121.623 436.545 120.684H440.989C440.901 122.415 440.417 123.955 439.537 125.304C438.657 126.653 437.469 127.724 435.973 128.516C434.477 129.279 432.79 129.66 430.913 129.66ZM451.652 129.264C450.332 129.264 449.247 129.073 448.396 128.692C447.545 128.281 446.885 127.607 446.416 126.668C445.947 125.7 445.712 124.365 445.712 122.664V99.344H450.024V122.796C450.024 123.588 450.097 124.189 450.244 124.6C450.42 125.011 450.684 125.304 451.036 125.48C451.388 125.627 451.887 125.7 452.532 125.7C453.031 125.7 453.647 125.641 454.38 125.524V129C453.412 129.176 452.503 129.264 451.652 129.264ZM442.456 106.56H454.336V110.124H442.456V106.56ZM457.924 106.56H462.236V129H457.924V106.56ZM457.66 97.892H462.544V102.556H457.66V97.892ZM477.108 129.66C474.82 129.66 472.826 129.161 471.124 128.164C469.452 127.167 468.162 125.773 467.252 123.984C466.343 122.165 465.888 120.097 465.888 117.78C465.888 115.463 466.343 113.395 467.252 111.576C468.162 109.757 469.452 108.349 471.124 107.352C472.826 106.355 474.835 105.856 477.152 105.856C479.44 105.856 481.42 106.355 483.092 107.352C484.764 108.349 486.055 109.757 486.964 111.576C487.874 113.365 488.328 115.419 488.328 117.736C488.328 120.083 487.874 122.165 486.964 123.984C486.055 125.773 484.75 127.167 483.048 128.164C481.376 129.161 479.396 129.66 477.108 129.66ZM477.152 126.096C478.619 126.096 479.851 125.744 480.848 125.04C481.875 124.307 482.623 123.309 483.092 122.048C483.591 120.787 483.84 119.349 483.84 117.736C483.84 115.301 483.268 113.321 482.124 111.796C480.98 110.241 479.323 109.464 477.152 109.464C475.656 109.464 474.395 109.816 473.368 110.52C472.371 111.224 471.623 112.207 471.124 113.468C470.626 114.729 470.376 116.167 470.376 117.78C470.376 120.244 470.948 122.253 472.092 123.808C473.236 125.333 474.923 126.096 477.152 126.096ZM506.958 114.612C506.958 113.057 506.577 111.84 505.814 110.96C505.081 110.051 503.937 109.596 502.382 109.596C501.179 109.596 500.109 109.831 499.17 110.3C498.261 110.769 497.557 111.429 497.058 112.28C496.559 113.131 496.31 114.113 496.31 115.228H494.814V109.376H496.398C497.102 108.379 498.055 107.557 499.258 106.912C500.49 106.237 502.001 105.9 503.79 105.9C505.99 105.9 507.779 106.545 509.158 107.836C510.566 109.127 511.27 110.989 511.27 113.424V129H506.958V114.612ZM491.998 106.56H496.31V129H491.998V106.56Z" fill="url(#paint0_linear_1962_16713)"/>
<path d="M82.128 59.98H84.172V78.208H94.952V80H82.128V59.98ZM102.166 80.392C100.766 80.392 99.5435 80.0747 98.4982 79.44C97.4715 78.8053 96.6782 77.9187 96.1182 76.78C95.5768 75.6413 95.3062 74.344 95.3062 72.888C95.3062 71.4133 95.5768 70.1067 96.1182 68.968C96.6782 67.8293 97.4715 66.9427 98.4982 66.308C99.5435 65.6733 100.766 65.356 102.166 65.356C103.566 65.356 104.779 65.6733 105.806 66.308C106.851 66.9427 107.645 67.8293 108.186 68.968C108.746 70.1067 109.026 71.4133 109.026 72.888C109.026 74.3627 108.746 75.6693 108.186 76.808C107.645 77.928 106.851 78.8053 105.806 79.44C104.779 80.0747 103.566 80.392 102.166 80.392ZM102.166 78.796C103.249 78.796 104.154 78.544 104.882 78.04C105.629 77.5173 106.189 76.808 106.562 75.912C106.935 75.016 107.122 73.9987 107.122 72.86C107.122 71.1427 106.693 69.7333 105.834 68.632C104.994 67.512 103.771 66.952 102.166 66.952C101.102 66.952 100.187 67.2133 99.4222 67.736C98.6755 68.2587 98.1155 68.968 97.7422 69.864C97.3875 70.76 97.2102 71.768 97.2102 72.888C97.2102 74.6053 97.6302 76.024 98.4702 77.144C99.3288 78.2453 100.561 78.796 102.166 78.796ZM117.418 85.124C116.167 85.124 115.094 84.9373 114.198 84.564C113.302 84.1907 112.611 83.668 112.126 82.996C111.641 82.3427 111.361 81.596 111.286 80.756H113.19C113.339 81.596 113.759 82.268 114.45 82.772C115.159 83.276 116.158 83.528 117.446 83.528C118.921 83.528 120.05 83.1827 120.834 82.492C121.637 81.82 122.038 80.7747 122.038 79.356V65.72H123.83V79.104C123.83 81.0827 123.261 82.576 122.122 83.584C121.002 84.6107 119.434 85.124 117.418 85.124ZM117.166 79.328C115.99 79.328 114.926 79.0667 113.974 78.544C113.041 78.0213 112.294 77.2373 111.734 76.192C111.174 75.1467 110.894 73.8587 110.894 72.328C110.894 70.816 111.174 69.5467 111.734 68.52C112.294 67.4747 113.041 66.6907 113.974 66.168C114.926 65.6453 115.99 65.384 117.166 65.384C118.305 65.384 119.266 65.6267 120.05 66.112C120.853 66.5787 121.497 67.1947 121.982 67.96H122.094V76.696H121.982C121.515 77.4987 120.881 78.1427 120.078 78.628C119.294 79.0947 118.323 79.328 117.166 79.328ZM117.418 77.732C118.314 77.732 119.107 77.536 119.798 77.144C120.489 76.7333 121.03 76.1267 121.422 75.324C121.833 74.5027 122.038 73.504 122.038 72.328C122.038 71.152 121.833 70.1627 121.422 69.36C121.03 68.5573 120.489 67.96 119.798 67.568C119.107 67.176 118.314 66.98 117.418 66.98C116.447 66.98 115.617 67.204 114.926 67.652C114.235 68.0813 113.703 68.7067 113.33 69.528C112.975 70.3307 112.798 71.264 112.798 72.328C112.798 73.9893 113.209 75.3053 114.03 76.276C114.851 77.2467 115.981 77.732 117.418 77.732ZM133.256 80.392C131.856 80.392 130.633 80.0747 129.588 79.44C128.561 78.8053 127.768 77.9187 127.208 76.78C126.667 75.6413 126.396 74.344 126.396 72.888C126.396 71.4133 126.667 70.1067 127.208 68.968C127.768 67.8293 128.561 66.9427 129.588 66.308C130.633 65.6733 131.856 65.356 133.256 65.356C134.656 65.356 135.869 65.6733 136.896 66.308C137.941 66.9427 138.735 67.8293 139.276 68.968C139.836 70.1067 140.116 71.4133 140.116 72.888C140.116 74.3627 139.836 75.6693 139.276 76.808C138.735 77.928 137.941 78.8053 136.896 79.44C135.869 80.0747 134.656 80.392 133.256 80.392ZM133.256 78.796C134.339 78.796 135.244 78.544 135.972 78.04C136.719 77.5173 137.279 76.808 137.652 75.912C138.025 75.016 138.212 73.9987 138.212 72.86C138.212 71.1427 137.783 69.7333 136.924 68.632C136.084 67.512 134.861 66.952 133.256 66.952C132.192 66.952 131.277 67.2133 130.512 67.736C129.765 68.2587 129.205 68.968 128.832 69.864C128.477 70.76 128.3 71.768 128.3 72.888C128.3 74.6053 128.72 76.024 129.56 77.144C130.419 78.2453 131.651 78.796 133.256 78.796Z" fill="#211F54"/>
<path d="M502.005 351.906H356.787V497.273H502.005V351.906Z" fill="#EAE9FF"/>
<path d="M667.127 351.906H530.297V497.273H667.127V351.906Z" fill="#EAE9FF"/>
<path d="M789.013 351.906H695.449V497.273H789.013V351.906Z" fill="#EAE9FF"/>
<path d="M943.676 351.699H798.459V497.066H943.676V351.699Z" fill="#EAE9FF"/>
<path d="M943.676 351.699H356.787V497.259H943.676V351.699Z" stroke="#BEC9FF" stroke-width="0.859049" stroke-miterlimit="10"/>
<path d="M356.787 424.583C356.708 414.883 358.683 405.276 362.583 396.394C366.311 387.755 371.633 379.895 378.271 373.227C384.879 366.628 392.687 361.354 401.275 357.687C410.186 353.873 419.778 351.906 429.471 351.906C439.163 351.906 448.756 353.873 457.666 357.687C466.28 361.306 474.097 366.586 480.67 373.227C487.296 379.874 492.573 387.741 496.209 396.394C500.102 405.278 502.077 414.883 502.005 424.583V480.348C502.02 482.606 501.553 484.841 500.634 486.904C499.844 488.906 498.646 490.722 497.118 492.237C495.539 493.795 493.678 495.039 491.635 495.903C489.573 496.821 487.338 497.288 485.08 497.273C481.411 497.37 477.833 496.119 475.023 493.757C473.417 492.402 472.082 490.753 471.09 488.9C470.174 487.101 469.666 485.122 469.6 483.105V483.105C463.846 487.485 457.481 490.999 450.709 493.534C443.937 496.083 436.758 497.376 429.523 497.348C419.84 497.403 410.248 495.482 401.334 491.701C383.949 484.149 370.096 470.254 362.598 452.845C358.703 443.935 356.724 434.306 356.787 424.583V424.583ZM389.847 424.583C389.824 429.866 390.862 435.099 392.902 439.973C396.957 449.505 404.544 457.097 414.073 461.159C423.933 465.212 434.993 465.212 444.853 461.159C449.573 459.141 453.866 456.244 457.502 452.622C461.063 448.965 463.907 444.675 465.89 439.973C467.898 435.092 468.911 429.86 468.87 424.583C468.908 414.095 464.8 404.017 457.443 396.543C453.84 392.949 449.561 390.103 444.853 388.17C440.01 386.02 434.763 384.928 429.463 384.967C424.166 384.953 418.924 386.044 414.073 388.17C404.512 392.101 396.899 399.66 392.902 409.192C390.844 414.06 389.805 419.298 389.847 424.583V424.583Z" fill="#005AE0"/>
<path d="M798.459 424.583C798.387 414.884 800.362 405.279 804.254 396.395C807.982 387.752 813.31 379.891 819.957 373.227C826.565 366.629 834.373 361.354 842.961 357.688C851.857 353.841 861.457 351.892 871.149 351.967C880.847 351.89 890.453 353.86 899.338 357.748C907.954 361.363 915.771 366.643 922.341 373.287C928.972 379.934 934.254 387.801 937.895 396.454C941.783 405.339 943.753 414.945 943.676 424.643V480.409C943.621 484.855 941.879 489.115 938.804 492.327C937.225 493.885 935.365 495.129 933.321 495.993C931.258 496.909 929.024 497.377 926.766 497.363C923.095 497.471 919.514 496.219 916.709 493.847C915.098 492.492 913.759 490.844 912.761 488.99C911.852 487.189 911.344 485.211 911.271 483.195C905.514 487.569 899.15 491.083 892.38 493.624C885.609 496.173 878.429 497.466 871.194 497.438C861.511 497.495 851.919 495.574 843.006 491.791C825.625 484.233 811.774 470.34 804.269 452.935C800.369 443.995 798.39 434.336 798.459 424.583V424.583ZM831.534 424.583C831.493 429.86 832.506 435.093 834.513 439.974C838.582 449.522 846.199 457.117 855.759 461.159C865.619 465.213 876.68 465.213 886.54 461.159C891.271 459.185 895.566 456.298 899.181 452.663C902.796 449.027 905.659 444.716 907.606 439.974C909.62 435.095 910.633 429.861 910.586 424.583C910.7 416.801 908.467 409.164 904.178 402.669C899.888 396.174 893.742 391.122 886.54 388.171C881.695 386.022 876.449 384.931 871.149 384.968C865.852 384.952 860.61 386.043 855.759 388.171C846.201 392.1 838.593 399.661 834.603 409.193C832.548 414.062 831.504 419.298 831.534 424.583V424.583Z" fill="#005AE0"/>
<path d="M563.447 427.026C563.338 431.893 564.205 436.732 565.996 441.258C567.787 445.785 570.466 449.907 573.876 453.382C577.25 456.745 581.235 459.435 585.616 461.308C590.247 463.252 595.224 464.235 600.246 464.198C605.124 464.287 609.962 463.3 614.415 461.308C618.444 459.397 622.028 456.661 624.933 453.278C627.92 449.732 630.196 445.645 631.638 441.239C633.281 436.538 634.103 431.589 634.066 426.609V368.355C634.062 366.151 634.529 363.972 635.437 361.964C636.3 360.008 637.546 358.245 639.102 356.779C640.693 355.277 642.553 354.089 644.585 353.278C646.596 352.363 648.782 351.895 650.991 351.907C655.282 352.015 659.37 353.758 662.418 356.779C663.957 358.225 665.153 359.996 665.92 361.964C666.73 363.997 667.145 366.166 667.141 368.355V426.102C667.199 435.533 665.491 444.892 662.106 453.695C659.016 462.058 654.364 469.759 648.399 476.385C642.434 482.839 635.228 488.023 627.213 491.627C618.741 495.445 609.539 497.372 600.246 497.273C590.823 497.34 581.487 495.469 572.818 491.776C556.111 484.437 542.859 470.966 535.795 454.142C532.112 445.527 530.241 436.246 530.297 426.877V368.355C530.293 366.166 530.708 363.997 531.519 361.964C532.362 360.037 533.548 358.28 535.02 356.779C536.505 355.287 538.266 354.098 540.205 353.278C542.265 352.354 544.502 351.886 546.76 351.907C548.969 351.897 551.155 352.364 553.166 353.278C555.164 354.07 556.979 355.261 558.5 356.779C560.022 358.23 561.203 360.001 561.957 361.964C562.905 363.963 563.413 366.142 563.447 368.355V427.026Z" fill="#005AE0"/>
<path d="M728.509 480.766C728.488 485.09 726.796 489.238 723.786 492.342C722.325 493.795 720.621 494.98 718.75 495.844C716.774 496.671 714.65 497.087 712.508 497.065C710.217 497.077 707.943 496.662 705.804 495.844C703.842 494.983 702.039 493.8 700.47 492.342C698.944 490.917 697.705 489.212 696.82 487.322C695.896 485.261 695.428 483.025 695.449 480.766V427.95C695.391 417.793 697.42 407.733 701.408 398.391C705.327 389.354 710.912 381.136 717.871 374.166C724.826 367.225 733.05 361.687 742.097 357.852C751.367 353.791 761.386 351.715 771.507 351.758H771.82C777.302 351.758 781.514 353.333 784.454 356.481C785.977 358.022 787.169 359.859 787.956 361.878C788.743 363.897 789.107 366.056 789.028 368.222C789.048 370.48 788.581 372.716 787.657 374.777C786.758 376.794 785.46 378.608 783.843 380.111C782.229 381.583 780.374 382.767 778.36 383.612C776.277 384.431 774.058 384.846 771.82 384.834H771.507C765.8 384.817 760.149 385.957 754.895 388.186C749.835 390.34 745.234 393.439 741.337 397.319C737.441 401.236 734.291 405.831 732.04 410.876C729.696 416.099 728.502 421.764 728.539 427.488L728.509 480.766Z" fill="#005AE0"/>
<path d="M501.777 179.062V669.794" stroke="#BEC9FF" stroke-width="0.859049" stroke-miterlimit="10"/>
<path d="M468.489 179.062V669.794" stroke="#BEC9FF" stroke-width="0.859049" stroke-miterlimit="10" stroke-dasharray="1.72 1.72"/>
<path d="M390.101 179.062V669.794" stroke="#BEC9FF" stroke-width="0.859049" stroke-miterlimit="10" stroke-dasharray="1.72 1.72"/>
<path d="M530.77 179.062V669.794" stroke="#BEC9FF" stroke-width="0.859049" stroke-miterlimit="10"/>
<path d="M562.984 179.062V669.794" stroke="#BEC9FF" stroke-width="0.859049" stroke-miterlimit="10" stroke-dasharray="1.72 1.72"/>
<path d="M633.856 179.062V669.794" stroke="#BEC9FF" stroke-width="0.859049" stroke-miterlimit="10" stroke-dasharray="1.72 1.72"/>
<path d="M667.144 179.062V669.794" stroke="#BEC9FF" stroke-width="0.859049" stroke-miterlimit="10"/>
<path d="M1262.04 351.945H37.8907" stroke="#BEC9FF" stroke-width="0.859049" stroke-miterlimit="10"/>
<path d="M1262.04 385.234H37.8907" stroke="#BEC9FF" stroke-width="0.859049" stroke-miterlimit="10"/>
<path d="M1262.04 423.891H37.8907" stroke="#BEC9FF" stroke-width="0.859049" stroke-miterlimit="10" stroke-dasharray="1.72 1.72"/>
<path d="M1262.04 464.695H37.8907" stroke="#BEC9FF" stroke-width="0.859049" stroke-miterlimit="10"/>
<path d="M1262.04 496.91H37.8907" stroke="#BEC9FF" stroke-width="0.859049" stroke-miterlimit="10"/>
<path d="M944.187 179.062V669.794" stroke="#BEC9FF" stroke-width="0.859049" stroke-miterlimit="10"/>
<path d="M910.899 179.062V669.794" stroke="#BEC9FF" stroke-width="0.859049" stroke-miterlimit="10" stroke-dasharray="1.72 1.72"/>
<path d="M831.437 179.062V669.794" stroke="#BEC9FF" stroke-width="0.859049" stroke-miterlimit="10" stroke-dasharray="1.72 1.72"/>
<path d="M798.149 179.062V669.794" stroke="#BEC9FF" stroke-width="0.859049" stroke-miterlimit="10"/>
<path d="M788.485 179.062V669.794" stroke="#BEC9FF" stroke-width="0.859049" stroke-miterlimit="10"/>
<path d="M756.27 179.062V669.794" stroke="#BEC9FF" stroke-width="0.859049" stroke-miterlimit="10" stroke-dasharray="1.72 1.72"/>
<path d="M728.351 179.062V669.794" stroke="#BEC9FF" stroke-width="0.859049" stroke-miterlimit="10" stroke-dasharray="1.72 1.72"/>
<path d="M695.063 179.062V669.794" stroke="#BEC9FF" stroke-width="0.859049" stroke-miterlimit="10"/>
<path d="M356.813 179.062V669.794" stroke="#BEC9FF" stroke-width="0.859049" stroke-miterlimit="10"/>
<path d="M598.727 497.068C636.511 497.068 667.141 466.437 667.141 428.653C667.141 390.869 636.511 360.238 598.727 360.238C560.942 360.238 530.312 390.869 530.312 428.653C530.312 466.437 560.942 497.068 598.727 497.068Z" stroke="#BEC9FF" stroke-width="0.859049" stroke-miterlimit="10"/>
<path d="M598.727 464.006C618.253 464.006 634.082 448.177 634.082 428.651C634.082 409.126 618.253 393.297 598.727 393.297C579.201 393.297 563.373 409.126 563.373 428.651C563.373 448.177 579.201 464.006 598.727 464.006Z" stroke="#BEC9FF" stroke-width="0.859049" stroke-miterlimit="10"/>
<path d="M871.075 497.246C911.171 497.246 943.676 464.741 943.676 424.644C943.676 384.548 911.171 352.043 871.075 352.043C830.978 352.043 798.473 384.548 798.473 424.644C798.473 464.741 830.978 497.246 871.075 497.246Z" stroke="#BEC9FF" stroke-width="0.859049" stroke-miterlimit="10"/>
<path d="M871.074 464.184C892.912 464.184 910.616 446.481 910.616 424.643C910.616 402.805 892.912 385.102 871.074 385.102C849.236 385.102 831.533 402.805 831.533 424.643C831.533 446.481 849.236 464.184 871.074 464.184Z" stroke="#BEC9FF" stroke-width="0.859049" stroke-miterlimit="10"/>
<path d="M711.971 497.278C721.105 497.278 728.509 489.874 728.509 480.741C728.509 471.607 721.105 464.203 711.971 464.203C702.838 464.203 695.434 471.607 695.434 480.741C695.434 489.874 702.838 497.278 711.971 497.278Z" stroke="#BEC9FF" stroke-width="0.859049" stroke-miterlimit="10"/>
<path d="M772.475 384.774C781.609 384.774 789.013 377.37 789.013 368.237C789.013 359.103 781.609 351.699 772.475 351.699C763.342 351.699 755.938 359.103 755.938 368.237C755.938 377.37 763.342 384.774 772.475 384.774Z" stroke="#BEC9FF" stroke-width="0.859049" stroke-miterlimit="10"/>
<path d="M927.154 497.278C936.287 497.278 943.691 489.874 943.691 480.741C943.691 471.607 936.287 464.203 927.154 464.203C918.02 464.203 910.616 471.607 910.616 480.741C910.616 489.874 918.02 497.278 927.154 497.278Z" stroke="#BEC9FF" stroke-width="0.859049" stroke-miterlimit="10"/>
<path d="M429.388 497.246C469.485 497.246 501.99 464.741 501.99 424.644C501.99 384.548 469.485 352.043 429.388 352.043C389.292 352.043 356.787 384.548 356.787 424.644C356.787 464.741 389.292 497.246 429.388 497.246Z" stroke="#BEC9FF" stroke-width="0.859049" stroke-miterlimit="10"/>
<path d="M429.388 464.184C451.226 464.184 468.929 446.481 468.929 424.643C468.929 402.805 451.226 385.102 429.388 385.102C407.55 385.102 389.847 402.805 389.847 424.643C389.847 446.481 407.55 464.184 429.388 464.184Z" stroke="#BEC9FF" stroke-width="0.859049" stroke-miterlimit="10"/>
<path d="M485.467 497.278C494.601 497.278 502.005 489.874 502.005 480.741C502.005 471.607 494.601 464.203 485.467 464.203C476.334 464.203 468.93 471.607 468.93 480.741C468.93 489.874 476.334 497.278 485.467 497.278Z" stroke="#BEC9FF" stroke-width="0.859049" stroke-miterlimit="10"/>
<path d="M650.231 384.97C659.365 384.97 666.769 377.565 666.769 368.432C666.769 359.299 659.365 351.895 650.231 351.895C641.098 351.895 633.694 359.299 633.694 368.432C633.694 377.565 641.098 384.97 650.231 384.97Z" stroke="#BEC9FF" stroke-width="0.859049" stroke-miterlimit="10"/>
<path d="M546.835 384.97C555.968 384.97 563.372 377.565 563.372 368.432C563.372 359.299 555.968 351.895 546.835 351.895C537.701 351.895 530.297 359.299 530.297 368.432C530.297 377.565 537.701 384.97 546.835 384.97Z" stroke="#BEC9FF" stroke-width="0.859049" stroke-miterlimit="10"/>
<rect x="-106" y="139.332" width="1513" height="192.212" fill="url(#paint1_linear_1962_16713)"/>
<rect x="1407" y="740.668" width="1513" height="214.762" transform="rotate(-180 1407 740.668)" fill="url(#paint2_linear_1962_16713)"/>
<rect x="29.3002" y="700.938" width="545.496" height="266.305" transform="rotate(-90 29.3002 700.938)" fill="url(#paint3_linear_1962_16713)"/>
<rect x="1275.99" y="155.441" width="545.496" height="266.305" transform="rotate(90 1275.99 155.441)" fill="url(#paint4_linear_1962_16713)"/>
<path opacity="0.15" d="M0 730H1300" stroke="#A0A3BD" stroke-width="2" stroke-linecap="round"/>
<path d="M83.5832 760.997H88.1432C89.2739 760.997 90.1592 761.253 90.7992 761.765C91.4392 762.277 91.7592 762.981 91.7592 763.877C91.7592 764.517 91.5939 765.035 91.2632 765.429C90.9432 765.813 90.5059 766.101 89.9512 766.293V766.325C90.6339 766.443 91.1832 766.747 91.5992 767.237C92.0152 767.728 92.2232 768.368 92.2232 769.157C92.2232 769.861 92.0685 770.459 91.7592 770.949C91.4499 771.44 91.0125 771.813 90.4472 772.069C89.8819 772.315 89.2152 772.438 88.4472 772.438H83.5832V760.997ZM88.4792 771.413C89.0765 771.413 89.5619 771.323 89.9352 771.141C90.3085 770.949 90.5805 770.688 90.7512 770.357C90.9219 770.027 91.0072 769.627 91.0072 769.157C91.0072 768.485 90.8045 767.947 90.3992 767.541C89.9939 767.136 89.4552 766.933 88.7832 766.933H84.7512V771.413H88.4792ZM88.3672 765.909C88.8792 765.909 89.2952 765.829 89.6152 765.669C89.9459 765.509 90.1805 765.291 90.3192 765.013C90.4685 764.725 90.5432 764.384 90.5432 763.99C90.5432 763.381 90.3619 762.901 89.9992 762.549C89.6365 762.197 89.0925 762.021 88.3672 762.021H84.7512V765.909H88.3672ZM94.0374 765.941H94.8054C95.0294 765.365 95.3334 764.912 95.7174 764.581C96.1014 764.251 96.5708 764.085 97.1254 764.085C97.3921 764.085 97.6268 764.101 97.8294 764.133V765.157C97.6588 765.125 97.4934 765.109 97.3334 765.109C96.8534 765.109 96.4161 765.232 96.0214 765.477C95.6268 765.712 95.3174 766.043 95.0934 766.469C94.8801 766.885 94.7734 767.355 94.7734 767.877L94.0374 765.941ZM93.7334 764.277H94.7734V772.438H93.7334V764.277ZM100.833 772.646C100.022 772.646 99.3715 772.438 98.8808 772.021C98.4008 771.605 98.1608 771.056 98.1608 770.373C98.1608 769.808 98.2888 769.349 98.5448 768.997C98.8008 768.645 99.1635 768.373 99.6328 768.181C100.113 767.989 100.742 767.824 101.521 767.685C101.649 767.664 101.798 767.643 101.969 767.621C102.395 767.536 102.726 767.456 102.961 767.381C103.195 767.296 103.382 767.179 103.521 767.029C103.659 766.869 103.729 766.651 103.729 766.373C103.729 765.936 103.574 765.595 103.265 765.349C102.966 765.104 102.502 764.981 101.873 764.981C101.35 764.981 100.929 765.045 100.609 765.173C100.289 765.291 100.054 765.477 99.9048 765.733C99.7661 765.989 99.6808 766.325 99.6488 766.741H98.5448C98.5875 765.952 98.8808 765.312 99.4248 764.821C99.9688 764.32 100.795 764.069 101.905 764.069C102.747 764.069 103.43 764.277 103.953 764.693C104.475 765.099 104.737 765.755 104.737 766.661V770.741C104.737 771.083 104.769 771.328 104.833 771.477C104.907 771.627 105.03 771.701 105.201 771.701C105.254 771.701 105.329 771.696 105.425 771.685V772.438C105.211 772.48 105.03 772.502 104.881 772.502C104.518 772.502 104.241 772.411 104.049 772.229C103.867 772.037 103.761 771.696 103.729 771.205H103.697C103.409 771.675 103.025 772.032 102.545 772.277C102.065 772.523 101.494 772.646 100.833 772.646ZM100.961 771.733C101.515 771.733 102.001 771.643 102.417 771.461C102.833 771.269 103.153 770.997 103.377 770.645C103.611 770.283 103.729 769.861 103.729 769.381V767.861C103.622 768.011 103.387 768.139 103.025 768.245C102.673 768.352 102.214 768.453 101.649 768.549C101.083 768.645 100.63 768.763 100.289 768.901C99.9475 769.04 99.6861 769.221 99.5048 769.445C99.3341 769.669 99.2488 769.947 99.2488 770.277C99.2488 770.757 99.3875 771.12 99.6648 771.365C99.9421 771.611 100.374 771.733 100.961 771.733ZM112.316 766.933C112.316 766.368 112.166 765.904 111.868 765.541C111.569 765.179 111.089 764.997 110.428 764.997C109.926 764.997 109.478 765.104 109.084 765.317C108.7 765.52 108.396 765.803 108.172 766.165C107.958 766.517 107.852 766.891 107.852 767.285H107.388V765.445H107.884C108.15 765.051 108.513 764.725 108.972 764.469C109.441 764.213 110.012 764.085 110.684 764.085C111.462 764.085 112.097 764.309 112.588 764.757C113.089 765.205 113.34 765.856 113.34 766.709V772.438H112.316V766.933ZM106.812 764.277H107.852V772.438H106.812V764.277ZM118.354 772.646C117.693 772.646 117.085 772.475 116.53 772.133C115.986 771.781 115.554 771.285 115.234 770.645C114.925 769.995 114.77 769.232 114.77 768.357C114.77 767.493 114.925 766.741 115.234 766.101C115.554 765.451 115.986 764.955 116.53 764.613C117.085 764.261 117.693 764.085 118.354 764.085C119.026 764.085 119.586 764.229 120.034 764.517C120.493 764.795 120.85 765.173 121.106 765.653H121.506V771.109H121.106C120.84 771.568 120.477 771.941 120.018 772.229C119.57 772.507 119.016 772.646 118.354 772.646ZM118.482 771.733C119.005 771.733 119.469 771.6 119.874 771.333C120.28 771.056 120.589 770.661 120.802 770.149C121.026 769.637 121.138 769.04 121.138 768.357C121.138 767.685 121.026 767.093 120.802 766.581C120.589 766.069 120.28 765.68 119.874 765.413C119.469 765.136 119.005 764.997 118.482 764.997C117.938 764.997 117.464 765.147 117.058 765.445C116.664 765.744 116.365 766.149 116.162 766.661C115.96 767.173 115.858 767.739 115.858 768.357C115.858 768.987 115.96 769.557 116.162 770.069C116.365 770.581 116.664 770.987 117.058 771.285C117.453 771.584 117.928 771.733 118.482 771.733ZM121.138 760.997H122.178V772.438H121.138V760.997ZM132.472 772.646C131.374 772.646 130.435 772.395 129.656 771.893C128.888 771.381 128.302 770.683 127.896 769.797C127.502 768.901 127.304 767.877 127.304 766.725C127.304 765.595 127.523 764.581 127.96 763.685C128.398 762.779 129.016 762.069 129.816 761.557C130.627 761.045 131.56 760.789 132.616 760.789C133.512 760.789 134.286 760.939 134.936 761.237C135.598 761.525 136.126 761.941 136.52 762.485C136.915 763.029 137.182 763.664 137.32 764.389H136.12C135.95 763.568 135.555 762.933 134.936 762.485C134.318 762.037 133.544 761.813 132.616 761.813C131.71 761.813 130.947 762.048 130.328 762.517C129.72 762.987 129.267 763.595 128.968 764.341C128.67 765.088 128.52 765.883 128.52 766.725C128.52 767.6 128.648 768.405 128.904 769.141C129.171 769.877 129.598 770.475 130.184 770.933C130.771 771.392 131.534 771.621 132.472 771.621C133.208 771.621 133.87 771.456 134.456 771.125C135.043 770.784 135.502 770.309 135.832 769.701C136.174 769.083 136.344 768.384 136.344 767.605H132.552V766.565H137.512V772.438H136.712L136.36 770.405H136.328C135.955 771.109 135.454 771.659 134.824 772.053C134.195 772.448 133.411 772.646 132.472 772.646ZM141.888 772.63C141.11 772.63 140.47 772.405 139.968 771.957C139.467 771.509 139.216 770.859 139.216 770.005V764.277H140.256V769.781C140.256 770.347 140.406 770.811 140.704 771.173C141.003 771.536 141.483 771.717 142.144 771.717C142.646 771.717 143.088 771.616 143.472 771.413C143.867 771.2 144.171 770.917 144.384 770.565C144.608 770.203 144.72 769.824 144.72 769.429H144.752V771.285H144.688C144.422 771.669 144.054 771.989 143.584 772.245C143.126 772.502 142.56 772.63 141.888 772.63ZM144.72 764.277H145.744V772.438H144.72V764.277ZM147.671 764.277H148.711V772.438H147.671V764.277ZM147.511 761.301H148.855V762.645H147.511V761.301ZM153.776 772.646C153.115 772.646 152.507 772.475 151.952 772.133C151.408 771.781 150.976 771.285 150.656 770.645C150.347 769.995 150.192 769.232 150.192 768.357C150.192 767.493 150.347 766.741 150.656 766.101C150.976 765.451 151.408 764.955 151.952 764.613C152.507 764.261 153.115 764.085 153.776 764.085C154.448 764.085 155.008 764.229 155.456 764.517C155.915 764.795 156.272 765.173 156.528 765.653H156.928V771.109H156.528C156.261 771.568 155.899 771.941 155.44 772.229C154.992 772.507 154.437 772.646 153.776 772.646ZM153.904 771.733C154.427 771.733 154.891 771.6 155.296 771.333C155.701 771.056 156.011 770.661 156.224 770.149C156.448 769.637 156.56 769.04 156.56 768.357C156.56 767.685 156.448 767.093 156.224 766.581C156.011 766.069 155.701 765.68 155.296 765.413C154.891 765.136 154.427 764.997 153.904 764.997C153.36 764.997 152.885 765.147 152.48 765.445C152.085 765.744 151.787 766.149 151.584 766.661C151.381 767.173 151.28 767.739 151.28 768.357C151.28 768.987 151.381 769.557 151.584 770.069C151.787 770.581 152.085 770.987 152.48 771.285C152.875 771.584 153.349 771.733 153.904 771.733ZM156.56 760.997H157.6V772.438H156.56V760.997ZM162.986 772.662C162.176 772.662 161.477 772.48 160.89 772.117C160.304 771.744 159.856 771.232 159.546 770.581C159.248 769.931 159.098 769.189 159.098 768.357C159.098 767.504 159.258 766.752 159.578 766.101C159.898 765.451 160.352 764.949 160.938 764.597C161.525 764.245 162.208 764.069 162.986 764.069C163.754 764.069 164.416 764.24 164.97 764.581C165.525 764.912 165.946 765.371 166.234 765.957C166.522 766.544 166.666 767.221 166.666 767.989C166.666 768.288 166.661 768.48 166.65 768.565H159.61V767.653H165.562C165.562 767.163 165.456 766.715 165.242 766.309C165.04 765.893 164.741 765.568 164.346 765.333C163.952 765.088 163.482 764.965 162.938 764.965C162.405 764.965 161.925 765.093 161.498 765.349C161.082 765.605 160.757 765.952 160.522 766.389C160.298 766.816 160.186 767.296 160.186 767.829C160.186 768.064 160.186 768.299 160.186 768.533C160.186 769.109 160.288 769.643 160.49 770.133C160.704 770.624 161.018 771.019 161.434 771.317C161.861 771.616 162.384 771.765 163.002 771.765C163.514 771.765 163.946 771.669 164.298 771.477C164.661 771.275 164.933 771.04 165.114 770.773C165.296 770.496 165.424 770.219 165.498 769.941H166.554C166.341 770.752 165.936 771.408 165.338 771.91C164.741 772.411 163.957 772.662 162.986 772.662ZM168.124 760.997H169.164V772.438H168.124V760.997ZM171.093 764.277H172.133V772.438H171.093V764.277ZM170.933 761.301H172.277V762.645H170.933V761.301ZM179.55 766.933C179.55 766.368 179.401 765.904 179.102 765.541C178.803 765.179 178.323 764.997 177.662 764.997C177.161 764.997 176.713 765.104 176.318 765.317C175.934 765.52 175.63 765.803 175.406 766.165C175.193 766.517 175.086 766.891 175.086 767.285H174.622V765.445H175.118C175.385 765.051 175.747 764.725 176.206 764.469C176.675 764.213 177.246 764.085 177.918 764.085C178.697 764.085 179.331 764.309 179.822 764.757C180.323 765.205 180.574 765.856 180.574 766.709V772.438H179.55V766.933ZM174.046 764.277H175.086V772.438H174.046V764.277ZM185.893 772.662C185.082 772.662 184.383 772.48 183.797 772.117C183.21 771.744 182.762 771.232 182.453 770.581C182.154 769.931 182.005 769.189 182.005 768.357C182.005 767.504 182.165 766.752 182.485 766.101C182.805 765.451 183.258 764.949 183.845 764.597C184.431 764.245 185.114 764.069 185.893 764.069C186.661 764.069 187.322 764.24 187.877 764.581C188.431 764.912 188.853 765.371 189.141 765.957C189.429 766.544 189.573 767.221 189.573 767.989C189.573 768.288 189.567 768.48 189.557 768.565H182.517V767.653H188.469C188.469 767.163 188.362 766.715 188.149 766.309C187.946 765.893 187.647 765.568 187.253 765.333C186.858 765.088 186.389 764.965 185.845 764.965C185.311 764.965 184.831 765.093 184.405 765.349C183.989 765.605 183.663 765.952 183.429 766.389C183.205 766.816 183.093 767.296 183.093 767.829C183.093 768.064 183.093 768.299 183.093 768.533C183.093 769.109 183.194 769.643 183.397 770.133C183.61 770.624 183.925 771.019 184.341 771.317C184.767 771.616 185.29 771.765 185.909 771.765C186.421 771.765 186.853 771.669 187.205 771.477C187.567 771.275 187.839 771.04 188.021 770.773C188.202 770.496 188.33 770.219 188.405 769.941H189.461C189.247 770.752 188.842 771.408 188.245 771.91C187.647 772.411 186.863 772.662 185.893 772.662ZM194.038 772.646C193.292 772.646 192.652 772.523 192.118 772.277C191.585 772.032 191.18 771.691 190.902 771.253C190.625 770.816 190.476 770.32 190.454 769.765H191.542C191.564 770.149 191.665 770.491 191.846 770.789C192.028 771.088 192.3 771.323 192.662 771.493C193.036 771.653 193.5 771.733 194.054 771.733C194.78 771.733 195.308 771.595 195.638 771.317C195.969 771.029 196.134 770.667 196.134 770.229C196.134 769.888 196.044 769.621 195.862 769.429C195.692 769.237 195.478 769.093 195.222 768.997C194.966 768.901 194.614 768.8 194.166 768.693C194.038 768.661 193.91 768.635 193.782 768.613C193.718 768.592 193.644 768.571 193.558 768.549C192.961 768.4 192.47 768.251 192.086 768.101C191.702 767.941 191.382 767.717 191.126 767.429C190.881 767.131 190.758 766.747 190.758 766.277C190.758 765.829 190.87 765.44 191.094 765.109C191.318 764.779 191.649 764.528 192.086 764.358C192.524 764.176 193.046 764.085 193.654 764.085C194.337 764.085 194.913 764.197 195.382 764.421C195.852 764.635 196.209 764.928 196.454 765.301C196.71 765.675 196.865 766.096 196.918 766.565H195.83C195.734 766.107 195.526 765.733 195.206 765.445C194.897 765.147 194.38 764.997 193.654 764.997C193.078 764.997 192.63 765.104 192.31 765.317C192.001 765.531 191.846 765.829 191.846 766.213C191.846 766.501 191.932 766.736 192.102 766.917C192.273 767.088 192.486 767.221 192.742 767.317C193.009 767.403 193.377 767.499 193.846 767.605C193.932 767.616 194.044 767.643 194.182 767.685C194.833 767.845 195.366 768.011 195.782 768.181C196.198 768.341 196.545 768.581 196.822 768.901C197.1 769.221 197.238 769.648 197.238 770.181C197.238 770.683 197.11 771.12 196.854 771.493C196.598 771.856 196.23 772.139 195.75 772.341C195.27 772.544 194.7 772.646 194.038 772.646Z" fill="#211F54"/>
<path d="M1200.89 774.211C1200.89 773.539 1201.01 772.92 1201.27 772.355C1201.54 771.779 1201.91 771.262 1202.39 770.803C1202.88 770.334 1203.47 769.907 1204.15 769.523C1204.3 769.438 1204.44 769.352 1204.57 769.267C1205.28 768.883 1205.81 768.568 1206.15 768.323C1206.5 768.078 1206.77 767.79 1206.97 767.459C1207.17 767.118 1207.27 766.702 1207.27 766.211C1207.27 765.806 1207.2 765.438 1207.05 765.107C1206.91 764.776 1206.67 764.504 1206.34 764.291C1206.01 764.078 1205.58 763.971 1205.05 763.971C1204.43 763.971 1203.92 764.099 1203.53 764.355C1203.14 764.611 1202.86 764.958 1202.68 765.395C1202.5 765.832 1202.41 766.328 1202.41 766.883H1201.21C1201.21 766.147 1201.35 765.486 1201.64 764.899C1201.93 764.302 1202.36 763.827 1202.93 763.475C1203.51 763.123 1204.22 762.947 1205.06 762.947C1205.7 762.947 1206.28 763.075 1206.79 763.331C1207.31 763.587 1207.72 763.96 1208.02 764.451C1208.33 764.942 1208.49 765.523 1208.49 766.195C1208.49 766.824 1208.34 767.379 1208.05 767.859C1207.77 768.328 1207.41 768.723 1206.98 769.043C1206.57 769.363 1206.02 769.715 1205.35 770.099L1205.22 770.163L1205.03 770.275C1204.48 770.584 1204.02 770.862 1203.67 771.107C1203.32 771.352 1203.01 771.646 1202.74 771.987C1202.49 772.328 1202.33 772.718 1202.28 773.155V773.187H1208.37V774.211H1200.89ZM1214.08 774.419C1213.15 774.419 1212.37 774.168 1211.75 773.667C1211.13 773.155 1210.67 772.472 1210.37 771.619C1210.07 770.755 1209.92 769.779 1209.92 768.691C1209.92 767.603 1210.07 766.627 1210.37 765.763C1210.67 764.899 1211.13 764.216 1211.75 763.715C1212.37 763.203 1213.15 762.947 1214.08 762.947C1215.03 762.947 1215.82 763.203 1216.44 763.715C1217.05 764.216 1217.51 764.899 1217.81 765.763C1218.11 766.627 1218.26 767.603 1218.26 768.691C1218.26 769.779 1218.11 770.755 1217.81 771.619C1217.51 772.472 1217.05 773.155 1216.44 773.667C1215.82 774.168 1215.03 774.419 1214.08 774.419ZM1214.08 773.395C1214.79 773.395 1215.36 773.187 1215.8 772.771C1216.23 772.344 1216.55 771.784 1216.74 771.091C1216.94 770.387 1217.04 769.587 1217.04 768.691C1217.04 767.304 1216.8 766.174 1216.32 765.299C1215.85 764.414 1215.11 763.971 1214.08 763.971C1213.39 763.971 1212.83 764.184 1212.39 764.611C1211.95 765.038 1211.63 765.603 1211.43 766.307C1211.24 767 1211.14 767.795 1211.14 768.691C1211.14 770.078 1211.37 771.208 1211.84 772.083C1212.31 772.958 1213.06 773.395 1214.08 773.395Z" fill="#211F54"/>
<path fill-rule="evenodd" clip-rule="evenodd" d="M660.784 777.578C661.224 777.123 661.472 776.516 661.476 775.884V768.076C661.47 767.238 661.645 766.409 661.989 765.645C662.319 764.907 662.78 764.235 663.351 763.662C663.922 763.093 664.597 762.639 665.338 762.323C666.108 761.997 666.936 761.831 667.773 761.833H667.819C668.146 761.835 668.472 761.775 668.777 761.656C669.074 761.533 669.346 761.359 669.583 761.142C669.819 760.923 670.008 760.659 670.14 760.366C670.275 760.065 670.344 759.739 670.34 759.409C670.352 759.092 670.299 758.776 670.183 758.481C670.068 758.185 669.893 757.917 669.67 757.691C669.239 757.23 668.622 757 667.819 757H667.773C666.289 756.993 664.821 757.296 663.463 757.892C662.138 758.451 660.933 759.258 659.913 760.27C658.894 761.293 658.077 762.498 657.504 763.823C656.921 765.19 656.623 766.662 656.631 768.148V775.88C656.628 776.209 656.696 776.536 656.832 776.837C656.964 777.117 657.149 777.368 657.378 777.578C657.608 777.79 657.872 777.963 658.159 778.09C658.473 778.21 658.806 778.27 659.142 778.269C659.456 778.272 659.767 778.211 660.057 778.09C660.327 777.962 660.572 777.789 660.784 777.578ZM607.85 763.54C607.279 764.84 606.99 766.245 607 767.664C606.991 769.082 607.278 770.487 607.843 771.788C608.942 774.335 610.972 776.368 613.52 777.473C614.827 778.025 616.234 778.305 617.653 778.297C618.715 778.307 619.769 778.123 620.764 777.754C621.756 777.383 622.689 776.869 623.533 776.229C623.542 776.524 623.617 776.815 623.751 777.079C623.897 777.35 624.093 777.592 624.33 777.789C624.741 778.135 625.266 778.318 625.804 778.302C626.134 778.305 626.461 778.236 626.762 778.101C627.063 777.976 627.336 777.795 627.568 777.567C628.018 777.097 628.274 776.474 628.282 775.823V767.664C628.292 766.245 628.003 764.84 627.432 763.54C626.9 762.273 626.127 761.122 625.155 760.15C624.193 759.176 623.047 758.402 621.784 757.872C620.482 757.304 619.074 757.017 617.653 757.029C616.232 757.02 614.824 757.307 613.52 757.872C612.26 758.409 611.116 759.182 610.149 760.15C609.175 761.125 608.395 762.275 607.85 763.54ZM612.282 769.916C611.988 769.202 611.84 768.436 611.845 767.664C611.84 766.891 611.992 766.125 612.293 765.412C612.879 764.017 613.995 762.91 615.398 762.337C616.108 762.024 616.877 761.864 617.653 761.868C618.43 761.862 619.199 762.021 619.908 762.337C620.601 762.618 621.23 763.035 621.76 763.562C622.835 764.656 623.434 766.131 623.426 767.664C623.432 768.436 623.283 769.202 622.989 769.916C622.414 771.313 621.309 772.427 619.915 773.015C618.47 773.608 616.849 773.608 615.404 773.015C614.717 772.711 614.09 772.288 613.55 771.766C613.021 771.23 612.591 770.603 612.282 769.916ZM672.576 763.54C672.007 764.84 671.718 766.245 671.729 767.664C671.722 769.086 672.014 770.494 672.585 771.797C673.685 774.343 675.715 776.376 678.262 777.482C679.569 778.034 680.974 778.314 682.393 778.306C683.453 778.311 684.505 778.122 685.498 777.75C686.489 777.378 687.422 776.864 688.266 776.224C688.276 776.52 688.351 776.81 688.484 777.074C688.631 777.346 688.827 777.587 689.063 777.785C689.474 778.131 689.999 778.314 690.537 778.297C690.868 778.301 691.196 778.232 691.498 778.097C691.791 777.972 692.059 777.792 692.286 777.567C692.736 777.097 692.992 776.474 693 775.823V767.664C693.011 766.245 692.722 764.84 692.153 763.54C691.622 762.273 690.852 761.121 689.884 760.146C688.921 759.173 687.774 758.401 686.511 757.872C685.208 757.304 683.801 757.017 682.38 757.029C680.959 757.02 679.552 757.307 678.249 757.872C676.989 758.409 675.845 759.182 674.878 760.15C673.903 761.125 673.122 762.275 672.576 763.54ZM677.011 769.916C676.717 769.202 676.568 768.436 676.574 767.664C676.565 766.892 676.714 766.126 677.011 765.412C677.597 764.017 678.713 762.91 680.116 762.337C680.826 762.024 681.595 761.865 682.371 761.868C683.148 761.861 683.917 762.021 684.626 762.337C685.683 762.768 686.584 763.506 687.214 764.457C687.843 765.407 688.171 766.525 688.155 767.664C688.158 768.437 688.006 769.203 687.707 769.916C687.417 770.604 687.001 771.231 686.48 771.766C685.945 772.294 685.317 772.718 684.626 773.015C683.181 773.608 681.56 773.608 680.116 773.015C679.429 772.71 678.802 772.287 678.262 771.766C677.74 771.227 677.317 770.601 677.011 769.916ZM637.275 768.021C637.27 768.753 637.406 769.479 637.677 770.16C637.949 770.797 638.335 771.379 638.817 771.877C639.322 772.385 639.924 772.787 640.587 773.059C641.251 773.331 641.962 773.467 642.679 773.46C643.394 773.472 644.103 773.328 644.755 773.037C645.348 772.755 645.874 772.353 646.301 771.856C646.741 771.338 647.074 770.74 647.284 770.094C647.525 769.407 647.647 768.682 647.642 767.954V759.437C647.64 759.114 647.709 758.794 647.843 758.5C647.968 758.214 648.15 757.957 648.378 757.743C648.611 757.523 648.883 757.348 649.181 757.229C649.476 757.096 649.796 757.028 650.12 757.028C650.436 757.026 650.749 757.095 651.035 757.229C651.323 757.342 651.583 757.518 651.795 757.743C652.02 757.954 652.196 758.212 652.308 758.5C652.427 758.798 652.488 759.116 652.487 759.437V767.886C652.495 769.265 652.245 770.634 651.749 771.921C651.297 773.146 650.615 774.273 649.74 775.243C648.866 776.188 647.81 776.946 646.635 777.473C645.393 778.03 644.045 778.311 642.683 778.297C641.301 778.307 639.931 778.032 638.659 777.49C636.212 776.415 634.271 774.445 633.234 771.984C632.695 770.723 632.421 769.364 632.43 767.993V759.437C632.429 759.116 632.489 758.798 632.607 758.5C632.731 758.218 632.906 757.962 633.122 757.743C633.339 757.524 633.596 757.349 633.88 757.229C634.182 757.095 634.51 757.026 634.841 757.028C635.164 757.028 635.484 757.096 635.78 757.229C636.072 757.346 636.338 757.521 636.561 757.743C636.786 757.955 636.961 758.213 637.074 758.5C637.207 758.794 637.276 759.114 637.275 759.437V768.021Z" fill="url(#paint5_linear_1962_16713)"/>
</g>
<defs>
<linearGradient id="paint0_linear_1962_16713" x1="80" y1="87" x2="440.685" y2="277.68" gradientUnits="userSpaceOnUse">
<stop stop-color="#F2906F"/>
<stop offset="0.299721" stop-color="#E75C76"/>
<stop offset="0.648425" stop-color="#AA69D9"/>
<stop offset="1" stop-color="#2F70E0"/>
</linearGradient>
<linearGradient id="paint1_linear_1962_16713" x1="650.5" y1="139.332" x2="650.5" y2="331.544" gradientUnits="userSpaceOnUse">
<stop stop-color="white"/>
<stop offset="1" stop-color="white" stop-opacity="0"/>
</linearGradient>
<linearGradient id="paint2_linear_1962_16713" x1="2163.5" y1="740.668" x2="2163.5" y2="955.43" gradientUnits="userSpaceOnUse">
<stop stop-color="white"/>
<stop offset="1" stop-color="white" stop-opacity="0"/>
</linearGradient>
<linearGradient id="paint3_linear_1962_16713" x1="302.048" y1="700.938" x2="302.048" y2="967.243" gradientUnits="userSpaceOnUse">
<stop stop-color="white"/>
<stop offset="1" stop-color="white" stop-opacity="0"/>
</linearGradient>
<linearGradient id="paint4_linear_1962_16713" x1="1548.74" y1="155.441" x2="1548.74" y2="421.747" gradientUnits="userSpaceOnUse">
<stop stop-color="white"/>
<stop offset="1" stop-color="white" stop-opacity="0"/>
</linearGradient>
<linearGradient id="paint5_linear_1962_16713" x1="607" y1="757" x2="692.836" y2="778.946" gradientUnits="userSpaceOnUse">
<stop stop-color="#F2906F"/>
<stop offset="0.299721" stop-color="#E75C76"/>
<stop offset="0.648425" stop-color="#AA69D9"/>
<stop offset="1" stop-color="#2F70E0"/>
</linearGradient>
<clipPath id="clip0_1962_16713">
<rect width="1300" height="800" rx="40" fill="white"/>
</clipPath>
</defs>
</svg>
