<svg width="1300" height="800" viewBox="0 0 1300 800" fill="none" xmlns="http://www.w3.org/2000/svg">
<g clip-path="url(#clip0_1966_26563)">
<rect width="1300" height="800" rx="40" fill="white"/>
<path d="M83.124 97.54H96.236C99.3747 97.54 101.868 98.3173 103.716 99.872C105.593 101.397 106.532 103.744 106.532 106.912C106.532 109.024 106.092 110.784 105.212 112.192C104.361 113.571 103.159 114.597 101.604 115.272C100.079 115.917 98.2893 116.24 96.236 116.24H87.964V129H83.124V97.54ZM96.016 112.06C97.248 112.06 98.26 111.884 99.052 111.532C99.8733 111.151 100.489 110.579 100.9 109.816C101.311 109.053 101.516 108.085 101.516 106.912C101.516 105.152 101.061 103.847 100.152 102.996C99.2427 102.145 97.864 101.72 96.016 101.72H87.964V112.06H96.016ZM114.964 129.616C112.705 129.616 110.916 129.029 109.596 127.856C108.276 126.683 107.616 125.128 107.616 123.192C107.616 121.579 107.997 120.288 108.76 119.32C109.523 118.323 110.564 117.56 111.884 117.032C113.204 116.475 114.905 116.005 116.988 115.624C117.34 115.536 117.721 115.463 118.132 115.404C119.247 115.169 120.097 114.949 120.684 114.744C121.3 114.539 121.784 114.245 122.136 113.864C122.488 113.483 122.664 112.969 122.664 112.324C122.664 111.415 122.327 110.696 121.652 110.168C121.007 109.611 119.921 109.332 118.396 109.332C117.105 109.332 116.079 109.479 115.316 109.772C114.583 110.036 114.04 110.476 113.688 111.092C113.365 111.708 113.16 112.529 113.072 113.556H108.672C108.789 111.239 109.655 109.376 111.268 107.968C112.881 106.56 115.316 105.856 118.572 105.856C121.095 105.856 123.104 106.472 124.6 107.704C126.125 108.907 126.888 110.872 126.888 113.6V123.896C126.888 124.747 126.961 125.377 127.108 125.788C127.284 126.169 127.563 126.36 127.944 126.36C128.12 126.331 128.296 126.316 128.472 126.316V128.956C127.651 129.132 126.917 129.22 126.272 129.22C125.157 129.22 124.321 128.971 123.764 128.472C123.207 127.944 122.855 127.064 122.708 125.832H122.62C121.857 127.035 120.831 127.973 119.54 128.648C118.249 129.293 116.724 129.616 114.964 129.616ZM115.932 126.14C117.223 126.14 118.381 125.92 119.408 125.48C120.435 125.04 121.227 124.38 121.784 123.5C122.371 122.591 122.664 121.505 122.664 120.244V117.032C122.341 117.325 121.74 117.604 120.86 117.868C120.009 118.132 118.968 118.396 117.736 118.66C116.357 118.924 115.257 119.247 114.436 119.628C113.644 119.98 113.057 120.42 112.676 120.948C112.295 121.476 112.104 122.121 112.104 122.884C112.104 123.969 112.412 124.791 113.028 125.348C113.644 125.876 114.612 126.14 115.932 126.14ZM134.351 136.876C133.501 136.876 132.577 136.773 131.579 136.568V133.048C132.342 133.136 132.958 133.18 133.427 133.18C134.102 133.18 134.718 133.048 135.275 132.784C135.862 132.52 136.405 132.065 136.903 131.42C137.402 130.775 137.783 129.895 138.047 128.78L128.983 106.56H133.691L140.247 123.72H140.335L146.495 106.56H151.027L142.139 129.528C141.435 131.376 140.702 132.828 139.939 133.884C139.206 134.94 138.385 135.703 137.475 136.172C136.566 136.641 135.525 136.876 134.351 136.876ZM162.878 129.66C160.59 129.66 158.595 129.161 156.894 128.164C155.222 127.167 153.931 125.773 153.022 123.984C152.112 122.165 151.658 120.097 151.658 117.78C151.658 115.463 152.112 113.395 153.022 111.576C153.931 109.757 155.222 108.349 156.894 107.352C158.595 106.355 160.604 105.856 162.922 105.856C165.21 105.856 167.19 106.355 168.862 107.352C170.534 108.349 171.824 109.757 172.734 111.576C173.643 113.365 174.098 115.419 174.098 117.736C174.098 120.083 173.643 122.165 172.734 123.984C171.824 125.773 170.519 127.167 168.818 128.164C167.146 129.161 165.166 129.66 162.878 129.66ZM162.922 126.096C164.388 126.096 165.62 125.744 166.618 125.04C167.644 124.307 168.392 123.309 168.862 122.048C169.36 120.787 169.61 119.349 169.61 117.736C169.61 115.301 169.038 113.321 167.894 111.796C166.75 110.241 165.092 109.464 162.922 109.464C161.426 109.464 160.164 109.816 159.138 110.52C158.14 111.224 157.392 112.207 156.894 113.468C156.395 114.729 156.146 116.167 156.146 117.78C156.146 120.244 156.718 122.253 157.862 123.808C159.006 125.333 160.692 126.096 162.922 126.096ZM178.793 103.832C178.793 102.131 179.013 100.811 179.453 99.872C179.922 98.904 180.568 98.2293 181.389 97.848C182.24 97.4373 183.31 97.232 184.601 97.232C185.364 97.232 186.273 97.32 187.329 97.496V100.972C186.449 100.884 185.833 100.84 185.481 100.84C184.865 100.84 184.381 100.928 184.029 101.104C183.706 101.251 183.472 101.529 183.325 101.94C183.208 102.321 183.149 102.923 183.149 103.744V129H178.793V103.832ZM175.713 106.56H187.329V110.124H175.713V106.56ZM191.641 103.832C191.641 102.131 191.861 100.811 192.301 99.872C192.77 98.904 193.415 98.2293 194.237 97.848C195.087 97.4373 196.158 97.232 197.449 97.232C198.211 97.232 199.121 97.32 200.177 97.496V100.972C199.297 100.884 198.681 100.84 198.329 100.84C197.713 100.84 197.229 100.928 196.877 101.104C196.554 101.251 196.319 101.529 196.173 101.94C196.055 102.321 195.997 102.923 195.997 103.744V129H191.641V103.832ZM188.561 106.56H200.177V110.124H188.561V106.56ZM212.245 97.54H217.085V124.82H233.013V129H212.245V97.54ZM245.034 129.66C242.746 129.66 240.751 129.161 239.05 128.164C237.378 127.167 236.087 125.773 235.178 123.984C234.269 122.165 233.814 120.097 233.814 117.78C233.814 115.463 234.269 113.395 235.178 111.576C236.087 109.757 237.378 108.349 239.05 107.352C240.751 106.355 242.761 105.856 245.078 105.856C247.366 105.856 249.346 106.355 251.018 107.352C252.69 108.349 253.981 109.757 254.89 111.576C255.799 113.365 256.254 115.419 256.254 117.736C256.254 120.083 255.799 122.165 254.89 123.984C253.981 125.773 252.675 127.167 250.974 128.164C249.302 129.161 247.322 129.66 245.034 129.66ZM245.078 126.096C246.545 126.096 247.777 125.744 248.774 125.04C249.801 124.307 250.549 123.309 251.018 122.048C251.517 120.787 251.766 119.349 251.766 117.736C251.766 115.301 251.194 113.321 250.05 111.796C248.906 110.241 247.249 109.464 245.078 109.464C243.582 109.464 242.321 109.816 241.294 110.52C240.297 111.224 239.549 112.207 239.05 113.468C238.551 114.729 238.302 116.167 238.302 117.78C238.302 120.244 238.874 122.253 240.018 123.808C241.162 125.333 242.849 126.096 245.078 126.096ZM269.56 137.052C267.507 137.052 265.747 136.744 264.28 136.128C262.813 135.512 261.684 134.661 260.892 133.576C260.1 132.52 259.631 131.303 259.484 129.924H263.972C264.207 131.039 264.764 131.919 265.644 132.564C266.553 133.209 267.859 133.532 269.56 133.532C271.643 133.532 273.197 133.048 274.224 132.08C275.251 131.112 275.764 129.587 275.764 127.504V106.56H280.076V127.24C280.076 130.525 279.152 132.975 277.304 134.588C275.485 136.231 272.904 137.052 269.56 137.052ZM268.768 127.856C266.861 127.856 265.16 127.445 263.664 126.624C262.168 125.773 260.995 124.527 260.144 122.884C259.293 121.212 258.868 119.217 258.868 116.9C258.868 114.553 259.293 112.559 260.144 110.916C260.995 109.273 262.168 108.027 263.664 107.176C265.16 106.325 266.861 105.9 268.768 105.9C270.411 105.9 271.789 106.223 272.904 106.868C274.019 107.484 274.943 108.261 275.676 109.2H276.072V124.468H275.676C274.972 125.495 274.063 126.316 272.948 126.932C271.833 127.548 270.44 127.856 268.768 127.856ZM269.56 124.292C270.851 124.292 271.951 124.013 272.86 123.456C273.799 122.899 274.503 122.077 274.972 120.992C275.471 119.877 275.72 118.513 275.72 116.9C275.72 115.287 275.471 113.923 274.972 112.808C274.503 111.693 273.799 110.872 272.86 110.344C271.951 109.787 270.851 109.508 269.56 109.508C268.181 109.508 267.023 109.831 266.084 110.476C265.175 111.092 264.485 111.957 264.016 113.072C263.576 114.187 263.356 115.463 263.356 116.9C263.356 119.1 263.884 120.889 264.94 122.268C265.996 123.617 267.536 124.292 269.56 124.292ZM294.921 129.66C292.633 129.66 290.638 129.161 288.937 128.164C287.265 127.167 285.974 125.773 285.065 123.984C284.155 122.165 283.701 120.097 283.701 117.78C283.701 115.463 284.155 113.395 285.065 111.576C285.974 109.757 287.265 108.349 288.937 107.352C290.638 106.355 292.647 105.856 294.965 105.856C297.253 105.856 299.233 106.355 300.905 107.352C302.577 108.349 303.867 109.757 304.777 111.576C305.686 113.365 306.141 115.419 306.141 117.736C306.141 120.083 305.686 122.165 304.777 123.984C303.867 125.773 302.562 127.167 300.861 128.164C299.189 129.161 297.209 129.66 294.921 129.66ZM294.965 126.096C296.431 126.096 297.663 125.744 298.661 125.04C299.687 124.307 300.435 123.309 300.905 122.048C301.403 120.787 301.653 119.349 301.653 117.736C301.653 115.301 301.081 113.321 299.937 111.796C298.793 110.241 297.135 109.464 294.965 109.464C293.469 109.464 292.207 109.816 291.181 110.52C290.183 111.224 289.435 112.207 288.937 113.468C288.438 114.729 288.189 116.167 288.189 117.78C288.189 120.244 288.761 122.253 289.905 123.808C291.049 125.333 292.735 126.096 294.965 126.096ZM316.773 129.264C315.453 129.264 314.368 129.073 313.517 128.692C312.666 128.281 312.006 127.607 311.537 126.668C311.068 125.7 310.833 124.365 310.833 122.664V99.344H315.145V122.796C315.145 123.588 315.218 124.189 315.365 124.6C315.541 125.011 315.805 125.304 316.157 125.48C316.509 125.627 317.008 125.7 317.653 125.7C318.152 125.7 318.768 125.641 319.501 125.524V129C318.533 129.176 317.624 129.264 316.773 129.264ZM307.577 106.56H319.457V110.124H307.577V106.56ZM325.949 136.876C325.098 136.876 324.174 136.773 323.177 136.568V133.048C323.94 133.136 324.556 133.18 325.025 133.18C325.7 133.18 326.316 133.048 326.873 132.784C327.46 132.52 328.002 132.065 328.501 131.42C329 130.775 329.381 129.895 329.645 128.78L320.581 106.56H325.289L331.845 123.72H331.933L338.093 106.56H342.625L333.737 129.528C333.033 131.376 332.3 132.828 331.537 133.884C330.804 134.94 329.982 135.703 329.073 136.172C328.164 136.641 327.122 136.876 325.949 136.876ZM356.568 129.616C354.955 129.616 353.561 129.308 352.388 128.692C351.244 128.076 350.335 127.255 349.66 126.228H348.516V109.2H349.66C350.364 108.261 351.288 107.484 352.432 106.868C353.605 106.223 354.984 105.9 356.568 105.9C358.475 105.9 360.191 106.384 361.716 107.352C363.241 108.291 364.444 109.669 365.324 111.488C366.204 113.277 366.644 115.375 366.644 117.78C366.644 120.185 366.204 122.283 365.324 124.072C364.444 125.861 363.241 127.24 361.716 128.208C360.191 129.147 358.475 129.616 356.568 129.616ZM345.26 106.56H349.572V136.788H345.26V106.56ZM355.864 126.052C357.213 126.052 358.357 125.685 359.296 124.952C360.264 124.189 360.968 123.177 361.408 121.916C361.877 120.655 362.112 119.276 362.112 117.78C362.112 116.255 361.877 114.861 361.408 113.6C360.968 112.339 360.264 111.341 359.296 110.608C358.357 109.875 357.213 109.508 355.864 109.508C354.573 109.508 353.459 109.845 352.52 110.52C351.581 111.165 350.863 112.119 350.364 113.38C349.865 114.612 349.616 116.079 349.616 117.78C349.616 119.452 349.865 120.919 350.364 122.18C350.863 123.412 351.581 124.365 352.52 125.04C353.459 125.715 354.573 126.052 355.864 126.052ZM380.298 129.66C377.98 129.66 375.986 129.161 374.314 128.164C372.642 127.137 371.366 125.715 370.486 123.896C369.635 122.077 369.21 120.024 369.21 117.736C369.21 115.389 369.65 113.321 370.53 111.532C371.439 109.743 372.73 108.349 374.402 107.352C376.074 106.355 378.039 105.856 380.298 105.856C382.527 105.856 384.434 106.325 386.018 107.264C387.631 108.203 388.848 109.537 389.67 111.268C390.52 112.969 390.946 114.979 390.946 117.296C390.946 118.117 390.931 118.66 390.902 118.924H371.366V115.536H386.458C386.458 114.363 386.194 113.307 385.666 112.368C385.167 111.429 384.434 110.696 383.466 110.168C382.527 109.64 381.427 109.376 380.166 109.376C378.934 109.376 377.819 109.655 376.822 110.212C375.824 110.769 375.047 111.561 374.49 112.588C373.932 113.585 373.654 114.744 373.654 116.064C373.654 116.944 373.654 117.824 373.654 118.704C373.654 120.024 373.903 121.256 374.402 122.4C374.93 123.515 375.692 124.424 376.69 125.128C377.687 125.803 378.919 126.14 380.386 126.14C381.588 126.14 382.6 125.92 383.422 125.48C384.272 125.04 384.918 124.527 385.358 123.94C385.798 123.324 386.106 122.708 386.282 122.092H390.682C390.036 124.38 388.848 126.213 387.118 127.592C385.387 128.971 383.114 129.66 380.298 129.66ZM417.686 129.616C414.753 129.616 412.172 128.927 409.942 127.548C407.742 126.14 406.026 124.204 404.794 121.74C403.592 119.247 402.99 116.431 402.99 113.292C402.99 110.124 403.592 107.308 404.794 104.844C406.026 102.351 407.757 100.415 409.986 99.036C412.216 97.628 414.797 96.924 417.73 96.924C420.282 96.924 422.526 97.4227 424.462 98.42C426.428 99.388 427.982 100.737 429.126 102.468C430.27 104.169 430.974 106.091 431.238 108.232H426.178C425.944 107.029 425.518 105.9 424.902 104.844C424.316 103.788 423.421 102.908 422.218 102.204C421.045 101.471 419.52 101.104 417.642 101.104C415.413 101.104 413.58 101.661 412.142 102.776C410.734 103.891 409.693 105.357 409.018 107.176C408.373 108.995 408.05 111.019 408.05 113.248C408.05 115.477 408.373 117.516 409.018 119.364C409.693 121.183 410.734 122.649 412.142 123.764C413.58 124.879 415.413 125.436 417.642 125.436C419.549 125.436 421.118 125.069 422.35 124.336C423.612 123.573 424.536 122.605 425.122 121.432C425.709 120.229 426.061 118.939 426.178 117.56H431.238C431.004 119.907 430.314 122.004 429.17 123.852C428.026 125.671 426.472 127.093 424.506 128.12C422.541 129.117 420.268 129.616 417.686 129.616ZM444.839 129.66C442.551 129.66 440.556 129.161 438.855 128.164C437.183 127.167 435.892 125.773 434.983 123.984C434.073 122.165 433.619 120.097 433.619 117.78C433.619 115.463 434.073 113.395 434.983 111.576C435.892 109.757 437.183 108.349 438.855 107.352C440.556 106.355 442.565 105.856 444.883 105.856C447.171 105.856 449.151 106.355 450.823 107.352C452.495 108.349 453.785 109.757 454.695 111.576C455.604 113.365 456.059 115.419 456.059 117.736C456.059 120.083 455.604 122.165 454.695 123.984C453.785 125.773 452.48 127.167 450.779 128.164C449.107 129.161 447.127 129.66 444.839 129.66ZM444.883 126.096C446.349 126.096 447.581 125.744 448.579 125.04C449.605 124.307 450.353 123.309 450.823 122.048C451.321 120.787 451.571 119.349 451.571 117.736C451.571 115.301 450.999 113.321 449.855 111.796C448.711 110.241 447.053 109.464 444.883 109.464C443.387 109.464 442.125 109.816 441.099 110.52C440.101 111.224 439.353 112.207 438.855 113.468C438.356 114.729 438.107 116.167 438.107 117.78C438.107 120.244 438.679 122.253 439.823 123.808C440.967 125.333 442.653 126.096 444.883 126.096ZM474.689 114.612C474.689 113.057 474.307 111.84 473.545 110.96C472.811 110.051 471.667 109.596 470.113 109.596C468.91 109.596 467.839 109.831 466.901 110.3C465.991 110.769 465.287 111.429 464.789 112.28C464.29 113.131 464.041 114.113 464.041 115.228H462.545V109.376H464.129C464.833 108.379 465.786 107.557 466.989 106.912C468.221 106.237 469.731 105.9 471.521 105.9C473.721 105.9 475.51 106.545 476.889 107.836C478.297 109.127 479.001 110.989 479.001 113.424V129H474.689V114.612ZM459.729 106.56H464.041V129H459.729V106.56ZM492.506 129.616C490.277 129.616 488.4 129.279 486.874 128.604C485.349 127.9 484.19 126.932 483.398 125.7C482.636 124.468 482.225 123.075 482.166 121.52H486.522C486.581 122.429 486.816 123.236 487.226 123.94C487.666 124.615 488.312 125.157 489.162 125.568C490.013 125.949 491.113 126.14 492.462 126.14C494.222 126.14 495.454 125.832 496.158 125.216C496.892 124.571 497.258 123.779 497.258 122.84C497.258 122.077 497.038 121.461 496.598 120.992C496.158 120.523 495.616 120.185 494.97 119.98C494.325 119.745 493.43 119.511 492.286 119.276C491.993 119.217 491.685 119.159 491.362 119.1C491.186 119.041 490.996 118.997 490.79 118.968C489.206 118.587 487.872 118.176 486.786 117.736C485.701 117.267 484.792 116.607 484.058 115.756C483.325 114.876 482.958 113.747 482.958 112.368C482.958 111.077 483.296 109.948 483.97 108.98C484.645 107.983 485.628 107.22 486.918 106.692C488.209 106.164 489.734 105.9 491.494 105.9C493.489 105.9 495.161 106.223 496.51 106.868C497.889 107.484 498.93 108.335 499.634 109.42C500.368 110.505 500.793 111.723 500.91 113.072H496.554C496.349 111.987 495.88 111.107 495.146 110.432C494.442 109.728 493.254 109.376 491.582 109.376C490.204 109.376 489.162 109.64 488.458 110.168C487.784 110.667 487.446 111.341 487.446 112.192C487.446 112.837 487.637 113.351 488.018 113.732C488.4 114.113 488.884 114.407 489.47 114.612C490.086 114.788 490.952 114.993 492.066 115.228C492.33 115.287 492.682 115.36 493.122 115.448C494.912 115.888 496.393 116.343 497.566 116.812C498.74 117.252 499.722 117.941 500.514 118.88C501.336 119.819 501.746 121.065 501.746 122.62C501.746 124.087 501.38 125.348 500.646 126.404C499.942 127.431 498.886 128.223 497.478 128.78C496.1 129.337 494.442 129.616 492.506 129.616ZM512.281 129.264C510.961 129.264 509.875 129.073 509.025 128.692C508.174 128.281 507.514 127.607 507.045 126.668C506.575 125.7 506.341 124.365 506.341 122.664V99.344H510.653V122.796C510.653 123.588 510.726 124.189 510.873 124.6C511.049 125.011 511.313 125.304 511.665 125.48C512.017 125.627 512.515 125.7 513.161 125.7C513.659 125.7 514.275 125.641 515.009 125.524V129C514.041 129.176 513.131 129.264 512.281 129.264ZM503.085 106.56H514.965V110.124H503.085V106.56ZM519.785 110.828H522.953C523.569 109.303 524.361 108.129 525.329 107.308C526.326 106.457 527.543 106.032 528.981 106.032C529.743 106.032 530.433 106.076 531.049 106.164V110.3C530.521 110.212 530.037 110.168 529.597 110.168C528.306 110.168 527.147 110.476 526.121 111.092C525.094 111.708 524.287 112.559 523.701 113.644C523.143 114.729 522.865 115.976 522.865 117.384L519.785 110.828ZM518.553 106.56H522.865V129H518.553V106.56ZM541.154 129.616C538.954 129.616 537.15 128.985 535.742 127.724C534.363 126.433 533.674 124.556 533.674 122.092V106.56H537.986V120.904C537.986 122.488 538.352 123.735 539.086 124.644C539.848 125.524 541.007 125.964 542.562 125.964C543.764 125.964 544.82 125.729 545.73 125.26C546.668 124.791 547.387 124.131 547.886 123.28C548.384 122.429 548.634 121.447 548.634 120.332H548.722V126.184H548.546C547.842 127.181 546.874 128.003 545.642 128.648C544.439 129.293 542.943 129.616 541.154 129.616ZM548.634 106.56H552.946V129H548.634V106.56ZM567.639 129.66C565.439 129.66 563.503 129.161 561.831 128.164C560.159 127.137 558.869 125.729 557.959 123.94C557.05 122.151 556.595 120.097 556.595 117.78C556.595 115.463 557.05 113.409 557.959 111.62C558.869 109.801 560.145 108.393 561.787 107.396C563.459 106.399 565.395 105.9 567.595 105.9C569.473 105.9 571.145 106.281 572.611 107.044C574.078 107.777 575.251 108.819 576.131 110.168C577.011 111.488 577.539 112.999 577.715 114.7H573.271C573.183 113.82 572.949 112.984 572.567 112.192C572.186 111.4 571.585 110.755 570.763 110.256C569.971 109.728 568.93 109.464 567.639 109.464C566.114 109.464 564.867 109.845 563.899 110.608C562.931 111.371 562.213 112.383 561.743 113.644C561.303 114.905 561.083 116.284 561.083 117.78C561.083 119.276 561.303 120.655 561.743 121.916C562.213 123.148 562.931 124.145 563.899 124.908C564.867 125.671 566.114 126.052 567.639 126.052C568.93 126.052 569.986 125.803 570.807 125.304C571.629 124.776 572.215 124.116 572.567 123.324C572.949 122.503 573.183 121.623 573.271 120.684H577.715C577.627 122.415 577.143 123.955 576.263 125.304C575.383 126.653 574.195 127.724 572.699 128.516C571.203 129.279 569.517 129.66 567.639 129.66ZM588.378 129.264C587.058 129.264 585.973 129.073 585.122 128.692C584.272 128.281 583.612 127.607 583.142 126.668C582.673 125.7 582.438 124.365 582.438 122.664V99.344H586.75V122.796C586.75 123.588 586.824 124.189 586.97 124.6C587.146 125.011 587.41 125.304 587.762 125.48C588.114 125.627 588.613 125.7 589.258 125.7C589.757 125.7 590.373 125.641 591.106 125.524V129C590.138 129.176 589.229 129.264 588.378 129.264ZM579.182 106.56H591.062V110.124H579.182V106.56ZM594.65 106.56H598.962V129H594.65V106.56ZM594.386 97.892H599.27V102.556H594.386V97.892ZM613.835 129.66C611.547 129.66 609.552 129.161 607.851 128.164C606.179 127.167 604.888 125.773 603.979 123.984C603.069 122.165 602.615 120.097 602.615 117.78C602.615 115.463 603.069 113.395 603.979 111.576C604.888 109.757 606.179 108.349 607.851 107.352C609.552 106.355 611.561 105.856 613.879 105.856C616.167 105.856 618.147 106.355 619.819 107.352C621.491 108.349 622.781 109.757 623.691 111.576C624.6 113.365 625.055 115.419 625.055 117.736C625.055 120.083 624.6 122.165 623.691 123.984C622.781 125.773 621.476 127.167 619.775 128.164C618.103 129.161 616.123 129.66 613.835 129.66ZM613.879 126.096C615.345 126.096 616.577 125.744 617.575 125.04C618.601 124.307 619.349 123.309 619.819 122.048C620.317 120.787 620.567 119.349 620.567 117.736C620.567 115.301 619.995 113.321 618.851 111.796C617.707 110.241 616.049 109.464 613.879 109.464C612.383 109.464 611.121 109.816 610.095 110.52C609.097 111.224 608.349 112.207 607.851 113.468C607.352 114.729 607.103 116.167 607.103 117.78C607.103 120.244 607.675 122.253 608.819 123.808C609.963 125.333 611.649 126.096 613.879 126.096ZM643.685 114.612C643.685 113.057 643.303 111.84 642.541 110.96C641.807 110.051 640.663 109.596 639.109 109.596C637.906 109.596 636.835 109.831 635.897 110.3C634.987 110.769 634.283 111.429 633.785 112.28C633.286 113.131 633.037 114.113 633.037 115.228H631.541V109.376H633.125C633.829 108.379 634.782 107.557 635.985 106.912C637.217 106.237 638.727 105.9 640.517 105.9C642.717 105.9 644.506 106.545 645.885 107.836C647.293 109.127 647.997 110.989 647.997 113.424V129H643.685V114.612ZM628.725 106.56H633.037V129H628.725V106.56Z" fill="url(#paint0_linear_1966_26563)"/>
<path d="M82.128 59.98H84.172V78.208H94.952V80H82.128V59.98ZM102.166 80.392C100.766 80.392 99.5435 80.0747 98.4982 79.44C97.4715 78.8053 96.6782 77.9187 96.1182 76.78C95.5768 75.6413 95.3062 74.344 95.3062 72.888C95.3062 71.4133 95.5768 70.1067 96.1182 68.968C96.6782 67.8293 97.4715 66.9427 98.4982 66.308C99.5435 65.6733 100.766 65.356 102.166 65.356C103.566 65.356 104.779 65.6733 105.806 66.308C106.851 66.9427 107.645 67.8293 108.186 68.968C108.746 70.1067 109.026 71.4133 109.026 72.888C109.026 74.3627 108.746 75.6693 108.186 76.808C107.645 77.928 106.851 78.8053 105.806 79.44C104.779 80.0747 103.566 80.392 102.166 80.392ZM102.166 78.796C103.249 78.796 104.154 78.544 104.882 78.04C105.629 77.5173 106.189 76.808 106.562 75.912C106.935 75.016 107.122 73.9987 107.122 72.86C107.122 71.1427 106.693 69.7333 105.834 68.632C104.994 67.512 103.771 66.952 102.166 66.952C101.102 66.952 100.187 67.2133 99.4222 67.736C98.6755 68.2587 98.1155 68.968 97.7422 69.864C97.3875 70.76 97.2102 71.768 97.2102 72.888C97.2102 74.6053 97.6302 76.024 98.4702 77.144C99.3288 78.2453 100.561 78.796 102.166 78.796ZM117.418 85.124C116.167 85.124 115.094 84.9373 114.198 84.564C113.302 84.1907 112.611 83.668 112.126 82.996C111.641 82.3427 111.361 81.596 111.286 80.756H113.19C113.339 81.596 113.759 82.268 114.45 82.772C115.159 83.276 116.158 83.528 117.446 83.528C118.921 83.528 120.05 83.1827 120.834 82.492C121.637 81.82 122.038 80.7747 122.038 79.356V65.72H123.83V79.104C123.83 81.0827 123.261 82.576 122.122 83.584C121.002 84.6107 119.434 85.124 117.418 85.124ZM117.166 79.328C115.99 79.328 114.926 79.0667 113.974 78.544C113.041 78.0213 112.294 77.2373 111.734 76.192C111.174 75.1467 110.894 73.8587 110.894 72.328C110.894 70.816 111.174 69.5467 111.734 68.52C112.294 67.4747 113.041 66.6907 113.974 66.168C114.926 65.6453 115.99 65.384 117.166 65.384C118.305 65.384 119.266 65.6267 120.05 66.112C120.853 66.5787 121.497 67.1947 121.982 67.96H122.094V76.696H121.982C121.515 77.4987 120.881 78.1427 120.078 78.628C119.294 79.0947 118.323 79.328 117.166 79.328ZM117.418 77.732C118.314 77.732 119.107 77.536 119.798 77.144C120.489 76.7333 121.03 76.1267 121.422 75.324C121.833 74.5027 122.038 73.504 122.038 72.328C122.038 71.152 121.833 70.1627 121.422 69.36C121.03 68.5573 120.489 67.96 119.798 67.568C119.107 67.176 118.314 66.98 117.418 66.98C116.447 66.98 115.617 67.204 114.926 67.652C114.235 68.0813 113.703 68.7067 113.33 69.528C112.975 70.3307 112.798 71.264 112.798 72.328C112.798 73.9893 113.209 75.3053 114.03 76.276C114.851 77.2467 115.981 77.732 117.418 77.732ZM133.256 80.392C131.856 80.392 130.633 80.0747 129.588 79.44C128.561 78.8053 127.768 77.9187 127.208 76.78C126.667 75.6413 126.396 74.344 126.396 72.888C126.396 71.4133 126.667 70.1067 127.208 68.968C127.768 67.8293 128.561 66.9427 129.588 66.308C130.633 65.6733 131.856 65.356 133.256 65.356C134.656 65.356 135.869 65.6733 136.896 66.308C137.941 66.9427 138.735 67.8293 139.276 68.968C139.836 70.1067 140.116 71.4133 140.116 72.888C140.116 74.3627 139.836 75.6693 139.276 76.808C138.735 77.928 137.941 78.8053 136.896 79.44C135.869 80.0747 134.656 80.392 133.256 80.392ZM133.256 78.796C134.339 78.796 135.244 78.544 135.972 78.04C136.719 77.5173 137.279 76.808 137.652 75.912C138.025 75.016 138.212 73.9987 138.212 72.86C138.212 71.1427 137.783 69.7333 136.924 68.632C136.084 67.512 134.861 66.952 133.256 66.952C132.192 66.952 131.277 67.2133 130.512 67.736C129.765 68.2587 129.205 68.968 128.832 69.864C128.477 70.76 128.3 71.768 128.3 72.888C128.3 74.6053 128.72 76.024 129.56 77.144C130.419 78.2453 131.651 78.796 133.256 78.796Z" fill="#211F54"/>
<path d="M429.5 532C488.871 532 537 483.871 537 424.5C537 365.129 488.871 317 429.5 317C370.129 317 322 365.129 322 424.5C322 483.871 370.129 532 429.5 532Z" fill="#FCFCFF" stroke="#BEC9FF" stroke-width="0.859049" stroke-miterlimit="10"/>
<path d="M944 352H357V497H944V352Z" fill="#EAE9FF"/>
<path d="M943.676 351.699H356.787V497.259H943.676V351.699Z" stroke="#BEC9FF" stroke-width="0.859049" stroke-miterlimit="10"/>
<path d="M356.787 424.583C356.708 414.883 358.683 405.276 362.583 396.394C366.311 387.755 371.633 379.895 378.271 373.227C384.879 366.628 392.687 361.354 401.275 357.687C410.186 353.873 419.778 351.906 429.471 351.906C439.163 351.906 448.756 353.873 457.666 357.687C466.28 361.306 474.097 366.586 480.67 373.227C487.296 379.874 492.573 387.741 496.209 396.394C500.102 405.278 502.077 414.883 502.005 424.583V480.348C502.02 482.606 501.553 484.841 500.634 486.904C499.844 488.906 498.646 490.722 497.118 492.237C495.539 493.795 493.678 495.039 491.635 495.903C489.573 496.821 487.338 497.288 485.08 497.273C481.411 497.37 477.833 496.119 475.023 493.757C473.417 492.402 472.082 490.753 471.09 488.9C470.174 487.101 469.666 485.122 469.6 483.105V483.105C463.846 487.485 457.481 490.999 450.709 493.534C443.937 496.083 436.758 497.376 429.523 497.348C419.84 497.403 410.248 495.482 401.334 491.701C383.949 484.149 370.096 470.254 362.598 452.845C358.703 443.935 356.724 434.306 356.787 424.583V424.583ZM389.847 424.583C389.824 429.866 390.862 435.099 392.902 439.973C396.957 449.505 404.544 457.097 414.073 461.159C423.933 465.212 434.993 465.212 444.853 461.159C449.573 459.141 453.866 456.244 457.502 452.622C461.063 448.965 463.907 444.675 465.89 439.973C467.898 435.092 468.911 429.86 468.87 424.583C468.908 414.095 464.8 404.017 457.443 396.543C453.84 392.949 449.561 390.103 444.853 388.17C440.01 386.02 434.763 384.928 429.463 384.967C424.166 384.953 418.924 386.044 414.073 388.17C404.512 392.101 396.899 399.66 392.902 409.192C390.844 414.06 389.805 419.298 389.847 424.583V424.583Z" fill="#005AE0"/>
<path d="M798.459 424.583C798.387 414.884 800.362 405.279 804.254 396.395C807.982 387.752 813.31 379.891 819.957 373.227C826.565 366.629 834.373 361.354 842.961 357.688C851.857 353.841 861.457 351.892 871.149 351.967C880.847 351.89 890.453 353.86 899.338 357.748C907.954 361.363 915.771 366.643 922.341 373.287C928.972 379.934 934.254 387.801 937.895 396.454C941.783 405.339 943.753 414.945 943.676 424.643V480.409C943.621 484.855 941.879 489.115 938.804 492.327C937.225 493.885 935.365 495.129 933.321 495.993C931.258 496.909 929.024 497.377 926.766 497.363C923.095 497.471 919.514 496.219 916.709 493.847C915.098 492.492 913.759 490.844 912.761 488.99C911.852 487.189 911.344 485.211 911.271 483.195C905.514 487.569 899.15 491.083 892.38 493.624C885.609 496.173 878.429 497.466 871.194 497.438C861.511 497.495 851.919 495.574 843.006 491.791C825.625 484.233 811.774 470.34 804.269 452.935C800.369 443.995 798.39 434.336 798.459 424.583V424.583ZM831.534 424.583C831.493 429.86 832.506 435.093 834.513 439.974C838.582 449.522 846.199 457.117 855.759 461.159C865.619 465.213 876.68 465.213 886.54 461.159C891.271 459.185 895.566 456.298 899.181 452.663C902.796 449.027 905.659 444.716 907.606 439.974C909.62 435.095 910.633 429.861 910.586 424.583C910.7 416.801 908.467 409.164 904.178 402.669C899.888 396.174 893.742 391.122 886.54 388.171C881.695 386.022 876.449 384.931 871.149 384.968C865.852 384.952 860.61 386.043 855.759 388.171C846.201 392.1 838.593 399.661 834.603 409.193C832.548 414.062 831.504 419.298 831.534 424.583V424.583Z" fill="#005AE0"/>
<path d="M563.447 427.026C563.338 431.893 564.205 436.732 565.996 441.258C567.787 445.785 570.466 449.907 573.876 453.382C577.25 456.745 581.235 459.435 585.616 461.308C590.247 463.252 595.224 464.235 600.246 464.198C605.124 464.287 609.962 463.3 614.415 461.308C618.444 459.397 622.028 456.661 624.933 453.278C627.92 449.732 630.196 445.645 631.638 441.239C633.281 436.538 634.103 431.589 634.066 426.609V368.355C634.062 366.151 634.529 363.972 635.437 361.964C636.3 360.008 637.546 358.245 639.102 356.779C640.693 355.277 642.553 354.089 644.585 353.278C646.596 352.363 648.782 351.895 650.991 351.907C655.282 352.015 659.37 353.758 662.418 356.779C663.957 358.225 665.153 359.996 665.92 361.964C666.73 363.997 667.145 366.166 667.141 368.355V426.102C667.199 435.533 665.491 444.892 662.106 453.695C659.016 462.058 654.364 469.759 648.399 476.385C642.434 482.839 635.228 488.023 627.213 491.627C618.741 495.445 609.539 497.372 600.246 497.273C590.823 497.34 581.487 495.469 572.818 491.776C556.111 484.437 542.859 470.966 535.795 454.142C532.112 445.527 530.241 436.246 530.297 426.877V368.355C530.293 366.166 530.708 363.997 531.519 361.964C532.362 360.037 533.548 358.28 535.02 356.779C536.505 355.287 538.266 354.098 540.205 353.278C542.265 352.354 544.502 351.886 546.76 351.907C548.969 351.897 551.155 352.364 553.166 353.278C555.164 354.07 556.979 355.261 558.5 356.779C560.022 358.23 561.203 360.001 561.957 361.964C562.905 363.963 563.413 366.142 563.447 368.355V427.026Z" fill="#005AE0"/>
<path d="M728.509 480.766C728.488 485.09 726.796 489.238 723.786 492.342C722.325 493.795 720.621 494.98 718.75 495.844C716.774 496.671 714.65 497.087 712.508 497.065C710.217 497.077 707.943 496.662 705.804 495.844C703.842 494.983 702.039 493.8 700.47 492.342C698.944 490.917 697.705 489.212 696.82 487.322C695.896 485.261 695.428 483.025 695.449 480.766V427.95C695.391 417.793 697.42 407.733 701.408 398.391C705.327 389.354 710.912 381.136 717.871 374.166C724.826 367.225 733.05 361.687 742.097 357.852C751.367 353.791 761.386 351.715 771.507 351.758H771.82C777.302 351.758 781.514 353.333 784.454 356.481C785.977 358.022 787.169 359.859 787.956 361.878C788.743 363.897 789.107 366.056 789.028 368.222C789.048 370.48 788.581 372.716 787.657 374.777C786.758 376.794 785.46 378.608 783.843 380.111C782.229 381.583 780.374 382.767 778.36 383.612C776.277 384.431 774.058 384.846 771.82 384.834H771.507C765.8 384.817 760.149 385.957 754.895 388.186C749.835 390.34 745.234 393.439 741.337 397.319C737.441 401.236 734.291 405.831 732.04 410.876C729.696 416.099 728.502 421.764 728.539 427.488L728.509 480.766Z" fill="#005AE0"/>
<path d="M501.777 179.062V669.794" stroke="#BEC9FF" stroke-width="0.859049" stroke-miterlimit="10"/>
<path d="M468.489 179.062V669.794" stroke="#BEC9FF" stroke-width="0.859049" stroke-miterlimit="10" stroke-dasharray="1.72 1.72"/>
<path d="M390.101 179.062V669.794" stroke="#BEC9FF" stroke-width="0.859049" stroke-miterlimit="10" stroke-dasharray="1.72 1.72"/>
<path d="M530.77 179.062V669.794" stroke="#BEC9FF" stroke-width="0.859049" stroke-miterlimit="10"/>
<path d="M1262 497L38 497" stroke="#BEC9FF" stroke-width="0.859049" stroke-miterlimit="10"/>
<path d="M1262 526L38 526" stroke="#BEC9FF" stroke-width="0.859049" stroke-miterlimit="10"/>
<path d="M1262 570L38 570" stroke="#BEC9FF" stroke-width="0.859049" stroke-miterlimit="10"/>
<path d="M562.984 179.062V669.794" stroke="#BEC9FF" stroke-width="0.859049" stroke-miterlimit="10" stroke-dasharray="1.72 1.72"/>
<path d="M633.856 179.062V669.794" stroke="#BEC9FF" stroke-width="0.859049" stroke-miterlimit="10" stroke-dasharray="1.72 1.72"/>
<path d="M667.144 179.062V669.794" stroke="#BEC9FF" stroke-width="0.859049" stroke-miterlimit="10"/>
<path d="M1262.04 351.945H37.8907" stroke="#BEC9FF" stroke-width="0.859049" stroke-miterlimit="10"/>
<path d="M1262.04 385.234H37.8907" stroke="#BEC9FF" stroke-width="0.859049" stroke-miterlimit="10"/>
<path d="M1262.04 423.891H37.8907" stroke="#BEC9FF" stroke-width="0.859049" stroke-miterlimit="10" stroke-dasharray="1.72 1.72"/>
<path d="M1262.04 464.695H37.8907" stroke="#BEC9FF" stroke-width="0.859049" stroke-miterlimit="10"/>
<path d="M944.187 179.062V669.794" stroke="#BEC9FF" stroke-width="0.859049" stroke-miterlimit="10"/>
<path d="M910.899 179.062V669.794" stroke="#BEC9FF" stroke-width="0.859049" stroke-miterlimit="10" stroke-dasharray="1.72 1.72"/>
<path d="M831.437 179.062V669.794" stroke="#BEC9FF" stroke-width="0.859049" stroke-miterlimit="10" stroke-dasharray="1.72 1.72"/>
<path d="M798.149 179.062V669.794" stroke="#BEC9FF" stroke-width="0.859049" stroke-miterlimit="10"/>
<path d="M788.485 179.062V669.794" stroke="#BEC9FF" stroke-width="0.859049" stroke-miterlimit="10"/>
<path d="M756.27 179.062V669.794" stroke="#BEC9FF" stroke-width="0.859049" stroke-miterlimit="10" stroke-dasharray="1.72 1.72"/>
<path d="M728.351 179.062V669.794" stroke="#BEC9FF" stroke-width="0.859049" stroke-miterlimit="10" stroke-dasharray="1.72 1.72"/>
<path d="M695.063 179.062V669.794" stroke="#BEC9FF" stroke-width="0.859049" stroke-miterlimit="10"/>
<path d="M356.813 179.062V669.794" stroke="#BEC9FF" stroke-width="0.859049" stroke-miterlimit="10"/>
<path d="M598.727 497.068C636.511 497.068 667.141 466.437 667.141 428.653C667.141 390.869 636.511 360.238 598.727 360.238C560.942 360.238 530.312 390.869 530.312 428.653C530.312 466.437 560.942 497.068 598.727 497.068Z" stroke="#BEC9FF" stroke-width="0.859049" stroke-miterlimit="10"/>
<path d="M598.727 464.006C618.253 464.006 634.082 448.177 634.082 428.651C634.082 409.126 618.253 393.297 598.727 393.297C579.201 393.297 563.373 409.126 563.373 428.651C563.373 448.177 579.201 464.006 598.727 464.006Z" stroke="#BEC9FF" stroke-width="0.859049" stroke-miterlimit="10"/>
<path d="M871.075 497.246C911.171 497.246 943.676 464.741 943.676 424.644C943.676 384.548 911.171 352.043 871.075 352.043C830.978 352.043 798.473 384.548 798.473 424.644C798.473 464.741 830.978 497.246 871.075 497.246Z" stroke="#BEC9FF" stroke-width="0.859049" stroke-miterlimit="10"/>
<path d="M871.074 464.184C892.912 464.184 910.616 446.481 910.616 424.643C910.616 402.805 892.912 385.102 871.074 385.102C849.236 385.102 831.533 402.805 831.533 424.643C831.533 446.481 849.236 464.184 871.074 464.184Z" stroke="#BEC9FF" stroke-width="0.859049" stroke-miterlimit="10"/>
<path d="M711.971 497.278C721.105 497.278 728.509 489.874 728.509 480.741C728.509 471.607 721.105 464.203 711.971 464.203C702.838 464.203 695.434 471.607 695.434 480.741C695.434 489.874 702.838 497.278 711.971 497.278Z" stroke="#BEC9FF" stroke-width="0.859049" stroke-miterlimit="10"/>
<path d="M772.475 384.774C781.609 384.774 789.013 377.37 789.013 368.237C789.013 359.103 781.609 351.699 772.475 351.699C763.342 351.699 755.938 359.103 755.938 368.237C755.938 377.37 763.342 384.774 772.475 384.774Z" stroke="#BEC9FF" stroke-width="0.859049" stroke-miterlimit="10"/>
<path d="M927.154 497.278C936.287 497.278 943.691 489.874 943.691 480.741C943.691 471.607 936.287 464.203 927.154 464.203C918.02 464.203 910.616 471.607 910.616 480.741C910.616 489.874 918.02 497.278 927.154 497.278Z" stroke="#BEC9FF" stroke-width="0.859049" stroke-miterlimit="10"/>
<path d="M429.388 497.246C469.485 497.246 501.99 464.741 501.99 424.644C501.99 384.548 469.485 352.043 429.388 352.043C389.292 352.043 356.787 384.548 356.787 424.644C356.787 464.741 389.292 497.246 429.388 497.246Z" stroke="#BEC9FF" stroke-width="0.859049" stroke-miterlimit="10"/>
<path d="M429.388 464.184C451.226 464.184 468.929 446.481 468.929 424.643C468.929 402.805 451.226 385.102 429.388 385.102C407.55 385.102 389.847 402.805 389.847 424.643C389.847 446.481 407.55 464.184 429.388 464.184Z" stroke="#BEC9FF" stroke-width="0.859049" stroke-miterlimit="10"/>
<path d="M485.467 497.278C494.601 497.278 502.005 489.874 502.005 480.741C502.005 471.607 494.601 464.203 485.467 464.203C476.334 464.203 468.93 471.607 468.93 480.741C468.93 489.874 476.334 497.278 485.467 497.278Z" stroke="#BEC9FF" stroke-width="0.859049" stroke-miterlimit="10"/>
<path d="M650.231 384.97C659.365 384.97 666.769 377.565 666.769 368.432C666.769 359.299 659.365 351.895 650.231 351.895C641.098 351.895 633.694 359.299 633.694 368.432C633.694 377.565 641.098 384.97 650.231 384.97Z" stroke="#BEC9FF" stroke-width="0.859049" stroke-miterlimit="10"/>
<path d="M546.835 384.97C555.968 384.97 563.372 377.565 563.372 368.432C563.372 359.299 555.968 351.895 546.835 351.895C537.701 351.895 530.297 359.299 530.297 368.432C530.297 377.565 537.701 384.97 546.835 384.97Z" stroke="#BEC9FF" stroke-width="0.859049" stroke-miterlimit="10"/>
<rect x="-106" y="139.332" width="1513" height="192.212" fill="url(#paint1_linear_1966_26563)"/>
<rect x="29.3002" y="700.938" width="545.496" height="266.305" transform="rotate(-90 29.3002 700.938)" fill="url(#paint2_linear_1966_26563)"/>
<rect x="1275.99" y="155.441" width="545.496" height="266.305" transform="rotate(90 1275.99 155.441)" fill="url(#paint3_linear_1966_26563)"/>
<path d="M357.075 569.672L943.956 569.672V525.96L357.075 525.96V569.672Z" fill="#EAE9FF" stroke="#BEC9FF" stroke-width="0.86" stroke-miterlimit="10"/>
<path d="M357.06 547.768V515.23C357.057 514.542 357.183 513.86 357.432 513.219C357.689 512.612 358.047 512.053 358.49 511.565C358.935 511.065 359.484 510.668 360.099 510.403C360.719 510.133 361.389 509.996 362.066 510.001C362.748 509.988 363.424 510.126 364.047 510.403C364.624 510.649 365.134 511.026 365.537 511.505C366.005 511.974 366.366 512.538 366.595 513.159C366.851 513.798 366.978 514.482 366.967 515.171V529.473C368.703 528.346 370.589 527.468 372.569 526.866C377.445 525.347 382.703 525.621 387.393 527.641C390.038 528.749 392.438 530.369 394.455 532.408C396.471 534.447 398.065 536.864 399.143 539.521C400.222 542.179 400.764 545.023 400.74 547.89C400.715 550.758 400.123 553.593 398.999 556.231C397.911 558.839 396.322 561.208 394.321 563.203C392.337 565.209 389.985 566.813 387.393 567.926C381.954 570.171 375.848 570.171 370.409 567.926C365.153 565.67 360.962 561.484 358.699 556.231C357.561 553.55 356.983 550.665 357 547.753L357.06 547.768ZM367.027 547.768C367.023 549.359 367.337 550.934 367.951 552.402C369.17 555.306 371.489 557.609 374.402 558.808C375.87 559.418 377.445 559.732 379.035 559.732C380.625 559.732 382.2 559.418 383.669 558.808C385.073 558.196 386.352 557.327 387.438 556.246C388.525 555.13 389.381 553.811 389.956 552.364C390.531 550.917 390.815 549.37 390.79 547.813C390.801 546.227 390.486 544.655 389.866 543.195C389.284 541.76 388.411 540.462 387.304 539.381C386.22 538.308 384.94 537.453 383.535 536.863C382.073 536.224 380.496 535.895 378.901 535.895C377.306 535.895 375.729 536.224 374.268 536.863C372.852 537.46 371.559 538.314 370.454 539.381C369.388 540.478 368.539 541.767 367.951 543.18C367.329 544.645 367.014 546.222 367.027 547.813V547.768Z" fill="#005AE0"/>
<path d="M415.924 552.272C416.315 553.393 416.884 554.444 417.608 555.385C418.34 556.292 419.192 557.094 420.14 557.769C421.1 558.416 422.149 558.918 423.254 559.259C424.419 559.604 425.629 559.775 426.845 559.766C429.552 559.923 432.218 559.038 434.294 557.292C435.062 556.712 435.955 556.32 436.901 556.145C437.684 556.022 438.485 556.083 439.24 556.324C439.761 556.512 440.234 556.812 440.626 557.203C441.041 557.558 441.398 557.975 441.684 558.44C441.986 558.931 442.202 559.47 442.324 560.034C442.473 560.587 442.504 561.166 442.414 561.732C442.34 562.342 442.153 562.934 441.862 563.475C441.546 564.057 441.109 564.565 440.581 564.965C439.855 565.61 439.089 566.207 438.287 566.753C437.346 567.349 436.348 567.848 435.307 568.243C434.091 568.701 432.834 569.04 431.553 569.256C430.01 569.539 428.443 569.673 426.875 569.658C423.945 569.677 421.041 569.105 418.338 567.975C413.09 565.729 408.9 561.561 406.628 556.324C405.478 553.63 404.885 550.731 404.885 547.802C404.885 544.873 405.478 541.974 406.628 539.28C408.893 534.053 413.088 529.901 418.338 527.689C421.022 526.554 423.908 525.969 426.822 525.969C429.737 525.969 432.622 526.554 435.307 527.689C437.906 528.775 440.277 530.342 442.294 532.308C444.318 534.251 445.938 536.575 447.062 539.146C448.228 541.797 448.851 544.654 448.894 547.549C448.917 548.184 448.806 548.817 448.57 549.407C448.334 549.997 447.978 550.531 447.524 550.976C447.051 551.415 446.495 551.756 445.888 551.978C445.282 552.201 444.638 552.3 443.993 552.272H415.924ZM438.6 544.018C438.28 542.792 437.729 541.639 436.976 540.621C436.257 539.626 435.375 538.76 434.368 538.059C433.342 537.35 432.211 536.807 431.016 536.45C429.733 536.079 428.404 535.893 427.068 535.898C425.715 535.894 424.369 536.095 423.075 536.494C421.884 536.881 420.755 537.438 419.723 538.148C418.744 538.852 417.892 539.719 417.205 540.71C416.51 541.712 416.005 542.834 415.716 544.018H438.6Z" fill="#005AE0"/>
<path d="M485.336 548.601C485.327 550.072 485.611 551.531 486.171 552.892C486.732 554.252 487.557 555.488 488.599 556.527C489.635 557.518 490.848 558.306 492.174 558.851C493.595 559.418 495.114 559.702 496.644 559.685C498.139 559.696 499.62 559.397 500.994 558.806C502.323 558.235 503.527 557.41 504.54 556.378C505.555 555.332 506.364 554.103 506.924 552.758C507.514 551.342 507.808 549.821 507.788 548.288V531.453C507.789 530.804 507.931 530.164 508.205 529.576C508.474 528.978 508.847 528.433 509.308 527.967C509.769 527.515 510.316 527.16 510.917 526.924C511.534 526.642 512.205 526.499 512.883 526.506C513.538 526.498 514.185 526.641 514.775 526.924C515.342 527.158 515.851 527.514 516.265 527.967C517.2 528.888 517.735 530.14 517.755 531.453V548.497C517.764 550.934 517.345 553.355 516.518 555.648C515.706 557.841 514.56 559.897 513.122 561.741C511.669 563.553 509.934 565.118 507.982 566.375C505.988 567.63 503.797 568.542 501.501 569.071V579.619C501.506 580.296 501.369 580.966 501.099 581.586C500.861 582.177 500.501 582.71 500.041 583.15C499.58 583.607 499.033 583.966 498.432 584.208C497.842 584.477 497.202 584.614 496.554 584.61C495.892 584.633 495.232 584.52 494.616 584.277C493.999 584.035 493.439 583.668 492.97 583.2C492.5 582.732 492.132 582.173 491.888 581.557C491.643 580.941 491.528 580.282 491.549 579.619V569.027C489.267 568.466 487.096 567.524 485.127 566.241C481.218 563.69 478.238 559.943 476.635 555.558C475.825 553.293 475.417 550.903 475.428 548.497V531.453C475.428 530.809 475.555 530.171 475.801 529.576C476.064 528.985 476.421 528.442 476.859 527.967C477.287 527.53 477.792 527.176 478.349 526.924C478.952 526.656 479.602 526.512 480.262 526.501C480.922 526.49 481.577 526.611 482.189 526.859C482.801 527.106 483.356 527.474 483.823 527.941C484.289 528.408 484.657 528.964 484.904 529.576C485.186 530.161 485.328 530.803 485.321 531.453L485.336 548.601Z" fill="#005AE0"/>
<path d="M533.815 547.815C533.805 549.406 534.119 550.983 534.739 552.448C535.951 555.321 538.24 557.605 541.115 558.81C542.584 559.42 544.159 559.733 545.749 559.733C547.339 559.733 548.914 559.42 550.382 558.81C551.805 558.205 553.099 557.336 554.196 556.247C555.264 555.148 556.118 553.86 556.714 552.448C557.328 550.981 557.642 549.405 557.638 547.815C557.633 544.663 556.398 541.637 554.196 539.382C553.101 538.303 551.805 537.447 550.382 536.864C548.924 536.216 547.345 535.885 545.749 535.896C544.154 535.892 542.575 536.222 541.115 536.864C539.7 537.462 538.407 538.316 537.301 539.382C536.213 540.479 535.343 541.774 534.739 543.196C534.112 544.654 533.797 546.228 533.815 547.815V547.815ZM523.848 547.815C523.824 544.896 524.424 542.006 525.606 539.337C526.726 536.74 528.329 534.379 530.329 532.38C532.313 530.386 534.666 528.798 537.257 527.702C541.255 526.008 545.668 525.548 549.929 526.382C554.19 527.215 558.104 529.304 561.169 532.38C563.166 534.373 564.755 536.736 565.847 539.337C566.997 542.016 567.59 544.9 567.59 547.815C567.59 550.729 566.997 553.614 565.847 556.292C564.759 558.9 563.17 561.269 561.169 563.264C559.185 565.27 556.833 566.874 554.241 567.987C548.802 570.232 542.696 570.232 537.257 567.987C534.673 566.859 532.323 565.257 530.329 563.264C528.324 561.263 526.721 558.896 525.606 556.292C524.403 553.627 523.778 550.738 523.774 547.815H523.848Z" fill="#005AE0"/>
<path d="M583.591 548.543C583.571 550.072 583.85 551.59 584.411 553.012C584.973 554.319 585.765 555.515 586.75 556.543C587.794 557.581 589.033 558.402 590.396 558.96C591.759 559.517 593.218 559.8 594.691 559.791C596.163 559.813 597.622 559.513 598.966 558.912C600.182 558.34 601.26 557.512 602.125 556.484C603.036 555.425 603.725 554.194 604.151 552.863C604.647 551.452 604.895 549.964 604.881 548.468V531.454C604.876 530.79 605.018 530.134 605.298 529.532C605.564 528.968 605.939 528.461 606.401 528.042C606.883 527.596 607.444 527.243 608.055 527C608.656 526.719 609.313 526.577 609.976 526.582C610.626 526.575 611.268 526.718 611.854 527C612.445 527.229 612.978 527.585 613.418 528.042C613.875 528.456 614.236 528.964 614.476 529.532C614.719 530.144 614.845 530.796 614.848 531.454V548.275C614.875 551.109 614.369 553.924 613.358 556.573C612.426 559.088 611.026 561.403 609.231 563.396C607.386 565.399 605.141 566.992 602.642 568.073C600.142 569.153 597.443 569.697 594.72 569.669C591.886 569.689 589.078 569.131 586.467 568.03C583.977 566.935 581.717 565.378 579.807 563.441C577.91 561.495 576.394 559.211 575.337 556.707C574.229 554.113 573.666 551.319 573.684 548.498V531.454C573.679 530.795 573.806 530.142 574.056 529.532C574.316 528.976 574.674 528.471 575.114 528.042C575.539 527.602 576.045 527.248 576.604 527C577.226 526.717 577.902 526.575 578.585 526.582C579.249 526.577 579.906 526.719 580.507 527C581.108 527.236 581.655 527.591 582.116 528.042C582.574 528.456 582.935 528.964 583.174 529.532C583.446 530.137 583.588 530.791 583.591 531.454V548.543Z" fill="#005AE0"/>
<path d="M632.89 564.216C632.899 564.9 632.756 565.576 632.473 566.198C632.24 566.758 631.895 567.265 631.46 567.688C631.033 568.129 630.528 568.488 629.97 568.745C629.369 568.988 628.726 569.11 628.078 569.103C627.405 569.115 626.736 568.989 626.113 568.733C625.491 568.477 624.927 568.096 624.457 567.613C624.001 567.189 623.627 566.684 623.355 566.123C623.079 565.499 622.937 564.824 622.938 564.142V549.348C622.911 546.275 623.525 543.231 624.741 540.409C625.925 537.696 627.602 535.225 629.687 533.123C631.786 531.039 634.264 529.375 636.987 528.222C639.781 526.998 642.801 526.373 645.852 526.389H645.941C646.638 526.344 647.337 526.447 647.992 526.691C648.646 526.935 649.242 527.314 649.74 527.804C650.2 528.267 650.56 528.82 650.798 529.427C651.036 530.034 651.148 530.683 651.126 531.335C651.133 532.014 650.99 532.685 650.709 533.302C650.439 533.911 650.049 534.458 649.561 534.911C649.074 535.355 648.515 535.712 647.908 535.969C647.28 536.21 646.613 536.332 645.941 536.326H645.852C644.163 536.325 642.491 536.657 640.931 537.304C639.372 537.951 637.955 538.9 636.764 540.096C635.591 541.27 634.641 542.648 633.963 544.163C633.258 545.737 632.897 547.444 632.905 549.169L632.89 564.216Z" fill="#005AE0"/>
<path d="M686.033 552.265C686.404 553.389 686.963 554.442 687.687 555.379C688.777 556.778 690.178 557.903 691.779 558.666C693.38 559.429 695.136 559.808 696.909 559.774C699.617 559.934 702.284 559.049 704.358 557.301C705.128 556.723 706.02 556.331 706.966 556.154C707.754 556.031 708.559 556.093 709.32 556.332C709.836 556.521 710.304 556.821 710.69 557.212C711.109 557.562 711.467 557.98 711.748 558.448C712.05 558.939 712.267 559.478 712.389 560.042C712.538 560.596 712.568 561.174 712.478 561.741C712.412 562.352 712.224 562.945 711.927 563.484C711.616 564.069 711.178 564.578 710.646 564.974C709.923 565.622 709.156 566.219 708.351 566.761C707.411 567.358 706.413 567.857 705.372 568.251C704.15 568.709 702.888 569.048 701.602 569.264C700.059 569.548 698.493 569.682 696.924 569.667C693.994 569.684 691.091 569.112 688.387 567.983C683.149 565.724 678.963 561.56 676.677 556.332C675.527 553.638 674.934 550.74 674.934 547.811C674.934 544.881 675.527 541.983 676.677 539.289C677.794 536.7 679.403 534.352 681.415 532.376C683.41 530.375 685.779 528.785 688.387 527.698C691.074 526.562 693.962 525.977 696.879 525.977C699.797 525.977 702.684 526.562 705.372 527.698C707.964 528.788 710.329 530.354 712.344 532.316C714.372 534.256 715.993 536.58 717.112 539.155C718.279 541.815 718.907 544.682 718.959 547.587C718.986 548.224 718.876 548.859 718.637 549.45C718.398 550.041 718.035 550.574 717.573 551.014C717.101 551.454 716.545 551.796 715.939 552.019C715.332 552.241 714.688 552.34 714.042 552.31L686.033 552.265ZM708.709 544.011C708.383 542.791 707.837 541.64 707.1 540.615C706.372 539.623 705.486 538.757 704.478 538.052C703.438 537.339 702.291 536.796 701.081 536.443C699.798 536.072 698.468 535.886 697.133 535.892C695.779 535.888 694.433 536.089 693.14 536.488C691.949 536.875 690.82 537.432 689.788 538.141C688.812 538.85 687.961 539.716 687.27 540.704C686.56 541.707 686.031 542.826 685.706 544.011H708.709Z" fill="#005AE0"/>
<path d="M765.933 564.32C765.941 564.998 765.798 565.67 765.516 566.287C765.274 566.838 764.936 567.343 764.518 567.777C764.074 568.221 763.541 568.566 762.954 568.79C762.359 569.036 761.721 569.163 761.077 569.162C760.399 569.164 759.726 569.037 759.095 568.79C758.499 568.558 757.953 568.214 757.486 567.777C757.036 567.347 756.663 566.843 756.384 566.287C756.114 565.667 755.977 564.997 755.981 564.32V547.262C755.962 547.078 755.962 546.894 755.981 546.71C755.927 545.256 755.598 543.826 755.013 542.494C754.489 541.219 753.725 540.055 752.763 539.067C751.832 538.081 750.706 537.3 749.456 536.773C748.145 536.183 746.722 535.883 745.284 535.894C743.798 535.882 742.327 536.181 740.964 536.773C739.679 537.304 738.521 538.101 737.567 539.112C736.622 540.161 735.875 541.372 735.362 542.688C734.835 544.077 734.572 545.552 734.587 547.038V564.32C734.595 564.994 734.468 565.663 734.215 566.287C733.967 566.846 733.612 567.352 733.172 567.777C732.749 568.212 732.242 568.557 731.682 568.79C731.082 569.037 730.439 569.164 729.79 569.162C729.132 569.159 728.48 569.033 727.868 568.79C727.262 568.552 726.702 568.209 726.214 567.777C725.764 567.347 725.391 566.843 725.112 566.287C724.842 565.667 724.705 564.997 724.709 564.32V547.038C724.645 541.479 726.788 536.121 730.669 532.14C732.546 530.235 734.778 528.716 737.239 527.67C739.816 526.559 742.597 525.996 745.403 526.016C748.144 525.993 750.86 526.53 753.386 527.593C755.912 528.656 758.194 530.224 760.093 532.199C763.911 536.221 766.044 541.552 766.053 547.098V564.38L765.933 564.32Z" fill="#005AE0"/>
<path d="M782.933 552.272C783.315 553.392 783.873 554.443 784.586 555.386C785.313 556.292 786.16 557.094 787.104 557.77C788.071 558.413 789.124 558.915 790.233 559.26C791.393 559.604 792.598 559.775 793.809 559.766C796.517 559.929 799.185 559.044 801.258 557.293C802.031 556.712 802.929 556.32 803.88 556.146C804.663 556.023 805.464 556.085 806.219 556.325C806.737 556.509 807.206 556.81 807.59 557.204C808.013 557.55 808.371 557.969 808.647 558.44C808.956 558.929 809.173 559.469 809.288 560.034C809.449 560.586 809.485 561.166 809.392 561.733C809.312 562.342 809.125 562.932 808.841 563.476C808.519 564.059 808.078 564.566 807.545 564.966C806.825 565.617 806.058 566.215 805.251 566.754C804.313 567.354 803.314 567.853 802.271 568.243C801.051 568.703 799.788 569.043 798.502 569.257C796.959 569.54 795.392 569.674 793.824 569.659C790.894 569.675 787.991 569.103 785.287 567.975C782.687 566.851 780.322 565.249 778.314 563.252C776.317 561.262 774.715 558.911 773.591 556.325C772.441 553.631 771.849 550.732 771.849 547.803C771.849 544.874 772.441 541.975 773.591 539.281C775.857 534.059 780.045 529.909 785.287 527.69C787.974 526.554 790.861 525.969 793.779 525.969C796.696 525.969 799.584 526.554 802.271 527.69C804.867 528.773 807.234 530.34 809.243 532.308C811.276 534.247 812.902 536.572 814.026 539.147C815.196 541.806 815.819 544.674 815.858 547.579C815.88 548.214 815.77 548.847 815.534 549.437C815.298 550.027 814.942 550.561 814.488 551.006C814.013 551.447 813.454 551.789 812.845 552.011C812.237 552.234 811.589 552.333 810.942 552.302L782.933 552.272ZM805.608 544.019C805.282 542.798 804.737 541.647 803.999 540.622C803.276 539.631 802.395 538.765 801.392 538.059C800.352 537.347 799.205 536.803 797.995 536.45C796.712 536.081 795.382 535.895 794.047 535.899C792.694 535.895 791.347 536.096 790.054 536.495C788.861 536.876 787.731 537.433 786.702 538.149C785.718 538.852 784.861 539.719 784.169 540.711C783.479 541.716 782.975 542.836 782.679 544.019H805.608Z" fill="#005AE0"/>
<path d="M831.635 564.216C831.637 564.898 831.495 565.573 831.218 566.197C830.978 566.754 830.634 567.259 830.205 567.687C829.774 568.124 829.27 568.482 828.715 568.745C828.119 568.986 827.481 569.108 826.838 569.103C826.165 569.115 825.496 568.989 824.874 568.732C824.251 568.476 823.688 568.095 823.218 567.613C822.757 567.193 822.383 566.687 822.115 566.123C821.832 565.501 821.689 564.825 821.698 564.141V549.347C821.674 546.276 822.282 543.233 823.486 540.408C824.671 537.691 826.353 535.22 828.447 533.123C830.546 531.039 833.024 529.375 835.747 528.221C838.537 526.999 841.552 526.375 844.597 526.389H844.701C845.399 526.345 846.097 526.448 846.752 526.692C847.406 526.936 848.002 527.315 848.501 527.804C848.96 528.267 849.32 528.819 849.558 529.426C849.797 530.034 849.908 530.683 849.886 531.335C849.886 532.013 849.744 532.682 849.469 533.302C849.195 533.907 848.805 534.454 848.322 534.911C847.834 535.354 847.275 535.712 846.668 535.968C846.041 536.21 845.374 536.331 844.701 536.326H844.597C842.882 536.322 841.184 536.667 839.606 537.339C838.076 537.987 836.686 538.923 835.509 540.095C834.341 541.274 833.392 542.651 832.708 544.163C832.008 545.738 831.653 547.445 831.665 549.168L831.635 564.216Z" fill="#005AE0"/>
<path d="M851.436 547.815C851.415 544.898 852.008 542.009 853.179 539.337C854.303 536.743 855.905 534.382 857.902 532.38C859.891 530.393 862.243 528.805 864.829 527.702C868.827 526.008 873.24 525.548 877.501 526.382C881.762 527.215 885.677 529.304 888.741 532.38C890.743 534.372 892.337 536.735 893.434 539.337C894.605 542.009 895.199 544.898 895.178 547.815C895.185 549.977 894.859 552.128 894.209 554.191C893.599 556.166 892.716 558.047 891.587 559.778C892.705 561.025 893.579 562.47 894.165 564.039C894.892 566.069 895.235 568.216 895.178 570.371C895.236 572.822 894.764 575.256 893.792 577.507C892.992 579.424 891.769 581.135 890.216 582.513C888.735 583.861 886.982 584.877 885.076 585.493C883.153 586.126 881.142 586.448 879.117 586.446C877.847 586.447 876.579 586.373 875.318 586.223C874.092 586.104 872.857 586.134 871.638 586.312C870.946 586.453 870.272 586.667 869.627 586.953C868.91 587.312 868.232 587.741 867.601 588.234C866.951 588.823 866.133 589.193 865.261 589.292C864.456 589.387 863.639 589.29 862.878 589.009C862.095 588.731 861.387 588.278 860.807 587.683C860.214 587.134 859.772 586.441 859.526 585.672C859.272 584.886 859.241 584.045 859.436 583.243C859.674 582.263 860.192 581.373 860.926 580.681C861.693 579.982 862.543 579.381 863.459 578.893C864.477 578.324 865.55 577.859 866.662 577.507C868.088 577.089 869.549 576.8 871.027 576.643C872.383 576.554 873.888 576.509 875.571 576.509C877.07 576.533 878.567 576.408 880.041 576.137C881.095 575.987 882.108 575.628 883.02 575.079C883.757 574.645 884.336 573.987 884.674 573.202C885.035 572.334 885.208 571.4 885.181 570.46C885.22 569.663 885.093 568.867 884.808 568.121C884.645 567.649 884.414 567.202 884.123 566.795C881.192 568.441 877.926 569.4 874.571 569.599C871.216 569.797 867.859 569.231 864.755 567.943C862.183 566.812 859.837 565.227 857.827 563.264C855.827 561.259 854.224 558.893 853.104 556.292C851.963 553.614 851.394 550.726 851.436 547.815V547.815ZM861.388 547.815C861.382 549.391 861.696 550.952 862.312 552.403C862.928 553.802 863.797 555.074 864.874 556.158C865.984 557.23 867.276 558.098 868.688 558.72C870.157 559.33 871.731 559.644 873.322 559.644C874.912 559.644 876.486 559.33 877.955 558.72C879.377 558.116 880.672 557.246 881.769 556.158C882.842 555.08 883.697 553.805 884.287 552.403C884.897 550.945 885.212 549.381 885.212 547.8C885.212 546.219 884.897 544.654 884.287 543.196C883.709 541.77 882.853 540.474 881.769 539.382C880.674 538.303 879.378 537.447 877.955 536.864C876.497 536.216 874.917 535.885 873.322 535.896C871.727 535.894 870.149 536.223 868.688 536.864C867.275 537.466 865.982 538.319 864.874 539.382C863.786 540.479 862.916 541.774 862.312 543.196C861.692 544.657 861.377 546.228 861.388 547.815V547.815Z" fill="#005AE0"/>
<path d="M911.596 548.601C911.584 550.109 911.878 551.604 912.46 552.996C913.015 554.319 913.827 555.518 914.851 556.523C915.874 557.528 917.087 558.32 918.419 558.851C919.84 559.418 921.359 559.702 922.889 559.685C924.384 559.695 925.865 559.396 927.239 558.806C928.568 558.235 929.772 557.41 930.785 556.378C931.8 555.332 932.609 554.103 933.169 552.758C933.759 551.342 934.053 549.821 934.033 548.288V531.453C934.034 530.804 934.176 530.164 934.45 529.576C934.719 528.978 935.092 528.433 935.552 527.967C936.014 527.515 936.561 527.16 937.161 526.924C937.778 526.642 938.45 526.499 939.128 526.506C939.782 526.499 940.43 526.642 941.02 526.924C941.587 527.158 942.096 527.514 942.51 527.967C943.445 528.888 943.98 530.14 944 531.453V548.497C944.009 550.934 943.59 553.355 942.763 555.648C941.951 557.841 940.805 559.897 939.366 561.741C937.914 563.553 936.178 565.118 934.226 566.375C932.232 567.63 930.042 568.542 927.746 569.071V579.619C927.75 580.296 927.613 580.966 927.343 581.586C927.106 582.177 926.746 582.71 926.286 583.15C925.825 583.607 925.278 583.966 924.677 584.208C924.087 584.477 923.447 584.614 922.799 584.61C922.137 584.633 921.477 584.52 920.861 584.277C920.244 584.035 919.684 583.668 919.214 583.2C918.745 582.732 918.377 582.173 918.132 581.557C917.888 580.941 917.773 580.282 917.793 579.619V569.027C915.507 568.465 913.332 567.523 911.357 566.241C909.425 564.975 907.705 563.411 906.262 561.607C904.817 559.786 903.675 557.743 902.88 555.558C902.07 553.293 901.662 550.903 901.673 548.497V531.453C901.673 530.809 901.799 530.171 902.046 529.576C902.309 528.985 902.666 528.442 903.104 527.967C903.554 527.522 904.085 527.168 904.668 526.924C905.271 526.656 905.922 526.512 906.581 526.501C907.241 526.49 907.897 526.611 908.508 526.859C909.12 527.106 909.676 527.474 910.142 527.941C910.608 528.408 910.976 528.964 911.223 529.576C911.505 530.161 911.648 530.803 911.64 531.453L911.596 548.601Z" fill="#005AE0"/>
<path opacity="0.15" d="M0 730H1300" stroke="#A0A3BD" stroke-width="2" stroke-linecap="round"/>
<path d="M83.5832 760.997H88.1432C89.2739 760.997 90.1592 761.253 90.7992 761.765C91.4392 762.277 91.7592 762.981 91.7592 763.877C91.7592 764.517 91.5939 765.035 91.2632 765.429C90.9432 765.813 90.5059 766.101 89.9512 766.293V766.325C90.6339 766.443 91.1832 766.747 91.5992 767.237C92.0152 767.728 92.2232 768.368 92.2232 769.157C92.2232 769.861 92.0685 770.459 91.7592 770.949C91.4499 771.44 91.0125 771.813 90.4472 772.069C89.8819 772.315 89.2152 772.438 88.4472 772.438H83.5832V760.997ZM88.4792 771.413C89.0765 771.413 89.5619 771.323 89.9352 771.141C90.3085 770.949 90.5805 770.688 90.7512 770.357C90.9219 770.027 91.0072 769.627 91.0072 769.157C91.0072 768.485 90.8045 767.947 90.3992 767.541C89.9939 767.136 89.4552 766.933 88.7832 766.933H84.7512V771.413H88.4792ZM88.3672 765.909C88.8792 765.909 89.2952 765.829 89.6152 765.669C89.9459 765.509 90.1805 765.291 90.3192 765.013C90.4685 764.725 90.5432 764.384 90.5432 763.99C90.5432 763.381 90.3619 762.901 89.9992 762.549C89.6365 762.197 89.0925 762.021 88.3672 762.021H84.7512V765.909H88.3672ZM94.0374 765.941H94.8054C95.0294 765.365 95.3334 764.912 95.7174 764.581C96.1014 764.251 96.5708 764.085 97.1254 764.085C97.3921 764.085 97.6268 764.101 97.8294 764.133V765.157C97.6588 765.125 97.4934 765.109 97.3334 765.109C96.8534 765.109 96.4161 765.232 96.0214 765.477C95.6268 765.712 95.3174 766.043 95.0934 766.469C94.8801 766.885 94.7734 767.355 94.7734 767.877L94.0374 765.941ZM93.7334 764.277H94.7734V772.438H93.7334V764.277ZM100.833 772.646C100.022 772.646 99.3715 772.438 98.8808 772.021C98.4008 771.605 98.1608 771.056 98.1608 770.373C98.1608 769.808 98.2888 769.349 98.5448 768.997C98.8008 768.645 99.1635 768.373 99.6328 768.181C100.113 767.989 100.742 767.824 101.521 767.685C101.649 767.664 101.798 767.643 101.969 767.621C102.395 767.536 102.726 767.456 102.961 767.381C103.195 767.296 103.382 767.179 103.521 767.029C103.659 766.869 103.729 766.651 103.729 766.373C103.729 765.936 103.574 765.595 103.265 765.349C102.966 765.104 102.502 764.981 101.873 764.981C101.35 764.981 100.929 765.045 100.609 765.173C100.289 765.291 100.054 765.477 99.9048 765.733C99.7661 765.989 99.6808 766.325 99.6488 766.741H98.5448C98.5875 765.952 98.8808 765.312 99.4248 764.821C99.9688 764.32 100.795 764.069 101.905 764.069C102.747 764.069 103.43 764.277 103.953 764.693C104.475 765.099 104.737 765.755 104.737 766.661V770.741C104.737 771.083 104.769 771.328 104.833 771.477C104.907 771.627 105.03 771.701 105.201 771.701C105.254 771.701 105.329 771.696 105.425 771.685V772.438C105.211 772.48 105.03 772.502 104.881 772.502C104.518 772.502 104.241 772.411 104.049 772.229C103.867 772.037 103.761 771.696 103.729 771.205H103.697C103.409 771.675 103.025 772.032 102.545 772.277C102.065 772.523 101.494 772.646 100.833 772.646ZM100.961 771.733C101.515 771.733 102.001 771.643 102.417 771.461C102.833 771.269 103.153 770.997 103.377 770.645C103.611 770.283 103.729 769.861 103.729 769.381V767.861C103.622 768.011 103.387 768.139 103.025 768.245C102.673 768.352 102.214 768.453 101.649 768.549C101.083 768.645 100.63 768.763 100.289 768.901C99.9475 769.04 99.6861 769.221 99.5048 769.445C99.3341 769.669 99.2488 769.947 99.2488 770.277C99.2488 770.757 99.3875 771.12 99.6648 771.365C99.9421 771.611 100.374 771.733 100.961 771.733ZM112.316 766.933C112.316 766.368 112.166 765.904 111.868 765.541C111.569 765.179 111.089 764.997 110.428 764.997C109.926 764.997 109.478 765.104 109.084 765.317C108.7 765.52 108.396 765.803 108.172 766.165C107.958 766.517 107.852 766.891 107.852 767.285H107.388V765.445H107.884C108.15 765.051 108.513 764.725 108.972 764.469C109.441 764.213 110.012 764.085 110.684 764.085C111.462 764.085 112.097 764.309 112.588 764.757C113.089 765.205 113.34 765.856 113.34 766.709V772.438H112.316V766.933ZM106.812 764.277H107.852V772.438H106.812V764.277ZM118.354 772.646C117.693 772.646 117.085 772.475 116.53 772.133C115.986 771.781 115.554 771.285 115.234 770.645C114.925 769.995 114.77 769.232 114.77 768.357C114.77 767.493 114.925 766.741 115.234 766.101C115.554 765.451 115.986 764.955 116.53 764.613C117.085 764.261 117.693 764.085 118.354 764.085C119.026 764.085 119.586 764.229 120.034 764.517C120.493 764.795 120.85 765.173 121.106 765.653H121.506V771.109H121.106C120.84 771.568 120.477 771.941 120.018 772.229C119.57 772.507 119.016 772.646 118.354 772.646ZM118.482 771.733C119.005 771.733 119.469 771.6 119.874 771.333C120.28 771.056 120.589 770.661 120.802 770.149C121.026 769.637 121.138 769.04 121.138 768.357C121.138 767.685 121.026 767.093 120.802 766.581C120.589 766.069 120.28 765.68 119.874 765.413C119.469 765.136 119.005 764.997 118.482 764.997C117.938 764.997 117.464 765.147 117.058 765.445C116.664 765.744 116.365 766.149 116.162 766.661C115.96 767.173 115.858 767.739 115.858 768.357C115.858 768.987 115.96 769.557 116.162 770.069C116.365 770.581 116.664 770.987 117.058 771.285C117.453 771.584 117.928 771.733 118.482 771.733ZM121.138 760.997H122.178V772.438H121.138V760.997ZM132.472 772.646C131.374 772.646 130.435 772.395 129.656 771.893C128.888 771.381 128.302 770.683 127.896 769.797C127.502 768.901 127.304 767.877 127.304 766.725C127.304 765.595 127.523 764.581 127.96 763.685C128.398 762.779 129.016 762.069 129.816 761.557C130.627 761.045 131.56 760.789 132.616 760.789C133.512 760.789 134.286 760.939 134.936 761.237C135.598 761.525 136.126 761.941 136.52 762.485C136.915 763.029 137.182 763.664 137.32 764.389H136.12C135.95 763.568 135.555 762.933 134.936 762.485C134.318 762.037 133.544 761.813 132.616 761.813C131.71 761.813 130.947 762.048 130.328 762.517C129.72 762.987 129.267 763.595 128.968 764.341C128.67 765.088 128.52 765.883 128.52 766.725C128.52 767.6 128.648 768.405 128.904 769.141C129.171 769.877 129.598 770.475 130.184 770.933C130.771 771.392 131.534 771.621 132.472 771.621C133.208 771.621 133.87 771.456 134.456 771.125C135.043 770.784 135.502 770.309 135.832 769.701C136.174 769.083 136.344 768.384 136.344 767.605H132.552V766.565H137.512V772.438H136.712L136.36 770.405H136.328C135.955 771.109 135.454 771.659 134.824 772.053C134.195 772.448 133.411 772.646 132.472 772.646ZM141.888 772.63C141.11 772.63 140.47 772.405 139.968 771.957C139.467 771.509 139.216 770.859 139.216 770.005V764.277H140.256V769.781C140.256 770.347 140.406 770.811 140.704 771.173C141.003 771.536 141.483 771.717 142.144 771.717C142.646 771.717 143.088 771.616 143.472 771.413C143.867 771.2 144.171 770.917 144.384 770.565C144.608 770.203 144.72 769.824 144.72 769.429H144.752V771.285H144.688C144.422 771.669 144.054 771.989 143.584 772.245C143.126 772.502 142.56 772.63 141.888 772.63ZM144.72 764.277H145.744V772.438H144.72V764.277ZM147.671 764.277H148.711V772.438H147.671V764.277ZM147.511 761.301H148.855V762.645H147.511V761.301ZM153.776 772.646C153.115 772.646 152.507 772.475 151.952 772.133C151.408 771.781 150.976 771.285 150.656 770.645C150.347 769.995 150.192 769.232 150.192 768.357C150.192 767.493 150.347 766.741 150.656 766.101C150.976 765.451 151.408 764.955 151.952 764.613C152.507 764.261 153.115 764.085 153.776 764.085C154.448 764.085 155.008 764.229 155.456 764.517C155.915 764.795 156.272 765.173 156.528 765.653H156.928V771.109H156.528C156.261 771.568 155.899 771.941 155.44 772.229C154.992 772.507 154.437 772.646 153.776 772.646ZM153.904 771.733C154.427 771.733 154.891 771.6 155.296 771.333C155.701 771.056 156.011 770.661 156.224 770.149C156.448 769.637 156.56 769.04 156.56 768.357C156.56 767.685 156.448 767.093 156.224 766.581C156.011 766.069 155.701 765.68 155.296 765.413C154.891 765.136 154.427 764.997 153.904 764.997C153.36 764.997 152.885 765.147 152.48 765.445C152.085 765.744 151.787 766.149 151.584 766.661C151.381 767.173 151.28 767.739 151.28 768.357C151.28 768.987 151.381 769.557 151.584 770.069C151.787 770.581 152.085 770.987 152.48 771.285C152.875 771.584 153.349 771.733 153.904 771.733ZM156.56 760.997H157.6V772.438H156.56V760.997ZM162.986 772.662C162.176 772.662 161.477 772.48 160.89 772.117C160.304 771.744 159.856 771.232 159.546 770.581C159.248 769.931 159.098 769.189 159.098 768.357C159.098 767.504 159.258 766.752 159.578 766.101C159.898 765.451 160.352 764.949 160.938 764.597C161.525 764.245 162.208 764.069 162.986 764.069C163.754 764.069 164.416 764.24 164.97 764.581C165.525 764.912 165.946 765.371 166.234 765.957C166.522 766.544 166.666 767.221 166.666 767.989C166.666 768.288 166.661 768.48 166.65 768.565H159.61V767.653H165.562C165.562 767.163 165.456 766.715 165.242 766.309C165.04 765.893 164.741 765.568 164.346 765.333C163.952 765.088 163.482 764.965 162.938 764.965C162.405 764.965 161.925 765.093 161.498 765.349C161.082 765.605 160.757 765.952 160.522 766.389C160.298 766.816 160.186 767.296 160.186 767.829C160.186 768.064 160.186 768.299 160.186 768.533C160.186 769.109 160.288 769.643 160.49 770.133C160.704 770.624 161.018 771.019 161.434 771.317C161.861 771.616 162.384 771.765 163.002 771.765C163.514 771.765 163.946 771.669 164.298 771.477C164.661 771.275 164.933 771.04 165.114 770.773C165.296 770.496 165.424 770.219 165.498 769.941H166.554C166.341 770.752 165.936 771.408 165.338 771.91C164.741 772.411 163.957 772.662 162.986 772.662ZM168.124 760.997H169.164V772.438H168.124V760.997ZM171.093 764.277H172.133V772.438H171.093V764.277ZM170.933 761.301H172.277V762.645H170.933V761.301ZM179.55 766.933C179.55 766.368 179.401 765.904 179.102 765.541C178.803 765.179 178.323 764.997 177.662 764.997C177.161 764.997 176.713 765.104 176.318 765.317C175.934 765.52 175.63 765.803 175.406 766.165C175.193 766.517 175.086 766.891 175.086 767.285H174.622V765.445H175.118C175.385 765.051 175.747 764.725 176.206 764.469C176.675 764.213 177.246 764.085 177.918 764.085C178.697 764.085 179.331 764.309 179.822 764.757C180.323 765.205 180.574 765.856 180.574 766.709V772.438H179.55V766.933ZM174.046 764.277H175.086V772.438H174.046V764.277ZM185.893 772.662C185.082 772.662 184.383 772.48 183.797 772.117C183.21 771.744 182.762 771.232 182.453 770.581C182.154 769.931 182.005 769.189 182.005 768.357C182.005 767.504 182.165 766.752 182.485 766.101C182.805 765.451 183.258 764.949 183.845 764.597C184.431 764.245 185.114 764.069 185.893 764.069C186.661 764.069 187.322 764.24 187.877 764.581C188.431 764.912 188.853 765.371 189.141 765.957C189.429 766.544 189.573 767.221 189.573 767.989C189.573 768.288 189.567 768.48 189.557 768.565H182.517V767.653H188.469C188.469 767.163 188.362 766.715 188.149 766.309C187.946 765.893 187.647 765.568 187.253 765.333C186.858 765.088 186.389 764.965 185.845 764.965C185.311 764.965 184.831 765.093 184.405 765.349C183.989 765.605 183.663 765.952 183.429 766.389C183.205 766.816 183.093 767.296 183.093 767.829C183.093 768.064 183.093 768.299 183.093 768.533C183.093 769.109 183.194 769.643 183.397 770.133C183.61 770.624 183.925 771.019 184.341 771.317C184.767 771.616 185.29 771.765 185.909 771.765C186.421 771.765 186.853 771.669 187.205 771.477C187.567 771.275 187.839 771.04 188.021 770.773C188.202 770.496 188.33 770.219 188.405 769.941H189.461C189.247 770.752 188.842 771.408 188.245 771.91C187.647 772.411 186.863 772.662 185.893 772.662ZM194.038 772.646C193.292 772.646 192.652 772.523 192.118 772.277C191.585 772.032 191.18 771.691 190.902 771.253C190.625 770.816 190.476 770.32 190.454 769.765H191.542C191.564 770.149 191.665 770.491 191.846 770.789C192.028 771.088 192.3 771.323 192.662 771.493C193.036 771.653 193.5 771.733 194.054 771.733C194.78 771.733 195.308 771.595 195.638 771.317C195.969 771.029 196.134 770.667 196.134 770.229C196.134 769.888 196.044 769.621 195.862 769.429C195.692 769.237 195.478 769.093 195.222 768.997C194.966 768.901 194.614 768.8 194.166 768.693C194.038 768.661 193.91 768.635 193.782 768.613C193.718 768.592 193.644 768.571 193.558 768.549C192.961 768.4 192.47 768.251 192.086 768.101C191.702 767.941 191.382 767.717 191.126 767.429C190.881 767.131 190.758 766.747 190.758 766.277C190.758 765.829 190.87 765.44 191.094 765.109C191.318 764.779 191.649 764.528 192.086 764.358C192.524 764.176 193.046 764.085 193.654 764.085C194.337 764.085 194.913 764.197 195.382 764.421C195.852 764.635 196.209 764.928 196.454 765.301C196.71 765.675 196.865 766.096 196.918 766.565H195.83C195.734 766.107 195.526 765.733 195.206 765.445C194.897 765.147 194.38 764.997 193.654 764.997C193.078 764.997 192.63 765.104 192.31 765.317C192.001 765.531 191.846 765.829 191.846 766.213C191.846 766.501 191.932 766.736 192.102 766.917C192.273 767.088 192.486 767.221 192.742 767.317C193.009 767.403 193.377 767.499 193.846 767.605C193.932 767.616 194.044 767.643 194.182 767.685C194.833 767.845 195.366 768.011 195.782 768.181C196.198 768.341 196.545 768.581 196.822 768.901C197.1 769.221 197.238 769.648 197.238 770.181C197.238 770.683 197.11 771.12 196.854 771.493C196.598 771.856 196.23 772.139 195.75 772.341C195.27 772.544 194.7 772.646 194.038 772.646Z" fill="#211F54"/>
<path d="M1205.78 774.211C1205.78 773.539 1205.91 772.92 1206.16 772.355C1206.43 771.779 1206.8 771.262 1207.28 770.803C1207.77 770.334 1208.36 769.907 1209.04 769.523C1209.19 769.438 1209.33 769.352 1209.46 769.267C1210.17 768.883 1210.7 768.568 1211.04 768.323C1211.39 768.078 1211.67 767.79 1211.86 767.459C1212.06 767.118 1212.16 766.702 1212.16 766.211C1212.16 765.806 1212.09 765.438 1211.94 765.107C1211.8 764.776 1211.56 764.504 1211.23 764.291C1210.9 764.078 1210.47 763.971 1209.94 763.971C1209.32 763.971 1208.81 764.099 1208.42 764.355C1208.03 764.611 1207.75 764.958 1207.57 765.395C1207.39 765.832 1207.3 766.328 1207.3 766.883H1206.1C1206.1 766.147 1206.24 765.486 1206.53 764.899C1206.82 764.302 1207.25 763.827 1207.83 763.475C1208.4 763.123 1209.11 762.947 1209.95 762.947C1210.59 762.947 1211.17 763.075 1211.68 763.331C1212.2 763.587 1212.61 763.96 1212.91 764.451C1213.22 764.942 1213.38 765.523 1213.38 766.195C1213.38 766.824 1213.23 767.379 1212.95 767.859C1212.66 768.328 1212.3 768.723 1211.87 769.043C1211.46 769.363 1210.91 769.715 1210.24 770.099L1210.11 770.163L1209.92 770.275C1209.37 770.584 1208.91 770.862 1208.56 771.107C1208.21 771.352 1207.9 771.646 1207.63 771.987C1207.38 772.328 1207.22 772.718 1207.17 773.155V773.187H1213.27V774.211H1205.78ZM1216.54 765.491C1216.3 765.747 1215.99 765.918 1215.63 766.003C1215.28 766.088 1214.82 766.131 1214.25 766.131V765.155C1214.88 765.144 1215.37 765.07 1215.73 764.931C1216.08 764.782 1216.33 764.568 1216.48 764.291C1216.63 764.014 1216.72 763.635 1216.77 763.155H1217.71V774.211H1216.54V765.491Z" fill="#211F54"/>
<path fill-rule="evenodd" clip-rule="evenodd" d="M660.784 777.578C661.224 777.123 661.472 776.516 661.476 775.884V768.076C661.47 767.238 661.645 766.409 661.989 765.645C662.319 764.907 662.78 764.235 663.351 763.662C663.922 763.093 664.597 762.639 665.338 762.323C666.108 761.997 666.936 761.831 667.773 761.833H667.819C668.146 761.835 668.472 761.775 668.777 761.656C669.074 761.533 669.346 761.359 669.583 761.142C669.819 760.923 670.008 760.659 670.14 760.366C670.275 760.065 670.344 759.739 670.34 759.409C670.352 759.092 670.299 758.776 670.183 758.481C670.068 758.185 669.893 757.917 669.67 757.691C669.239 757.23 668.622 757 667.819 757H667.773C666.289 756.993 664.821 757.296 663.463 757.892C662.138 758.451 660.933 759.258 659.913 760.27C658.894 761.293 658.077 762.498 657.504 763.823C656.921 765.19 656.623 766.662 656.631 768.148V775.88C656.628 776.209 656.696 776.536 656.832 776.837C656.964 777.117 657.149 777.368 657.378 777.578C657.608 777.79 657.872 777.963 658.159 778.09C658.473 778.21 658.806 778.27 659.142 778.269C659.456 778.272 659.767 778.211 660.057 778.09C660.327 777.962 660.572 777.789 660.784 777.578ZM607.85 763.54C607.279 764.84 606.99 766.245 607 767.664C606.991 769.082 607.278 770.487 607.843 771.788C608.942 774.335 610.972 776.368 613.52 777.473C614.827 778.025 616.234 778.305 617.653 778.297C618.715 778.307 619.769 778.123 620.764 777.754C621.756 777.383 622.689 776.869 623.533 776.229C623.542 776.524 623.617 776.815 623.751 777.079C623.897 777.35 624.093 777.592 624.33 777.789C624.741 778.135 625.266 778.318 625.804 778.302C626.134 778.305 626.461 778.236 626.762 778.101C627.063 777.976 627.336 777.795 627.568 777.567C628.018 777.097 628.274 776.474 628.282 775.823V767.664C628.292 766.245 628.003 764.84 627.432 763.54C626.9 762.273 626.127 761.122 625.155 760.15C624.193 759.176 623.047 758.402 621.784 757.872C620.482 757.304 619.074 757.017 617.653 757.029C616.232 757.02 614.824 757.307 613.52 757.872C612.26 758.409 611.116 759.182 610.149 760.15C609.175 761.125 608.395 762.275 607.85 763.54ZM612.282 769.916C611.988 769.202 611.84 768.436 611.845 767.664C611.84 766.891 611.992 766.125 612.293 765.412C612.879 764.017 613.995 762.91 615.398 762.337C616.108 762.024 616.877 761.864 617.653 761.868C618.43 761.862 619.199 762.021 619.908 762.337C620.601 762.618 621.23 763.035 621.76 763.562C622.835 764.656 623.434 766.131 623.426 767.664C623.432 768.436 623.283 769.202 622.989 769.916C622.414 771.313 621.309 772.427 619.915 773.015C618.47 773.608 616.849 773.608 615.404 773.015C614.717 772.711 614.09 772.288 613.55 771.766C613.021 771.23 612.591 770.603 612.282 769.916ZM672.576 763.54C672.007 764.84 671.718 766.245 671.729 767.664C671.722 769.086 672.014 770.494 672.585 771.797C673.685 774.343 675.715 776.376 678.262 777.482C679.569 778.034 680.974 778.314 682.393 778.306C683.453 778.311 684.505 778.122 685.498 777.75C686.489 777.378 687.422 776.864 688.266 776.224C688.276 776.52 688.351 776.81 688.484 777.074C688.631 777.346 688.827 777.587 689.063 777.785C689.474 778.131 689.999 778.314 690.537 778.297C690.868 778.301 691.196 778.232 691.498 778.097C691.791 777.972 692.059 777.792 692.286 777.567C692.736 777.097 692.992 776.474 693 775.823V767.664C693.011 766.245 692.722 764.84 692.153 763.54C691.622 762.273 690.852 761.121 689.884 760.146C688.921 759.173 687.774 758.401 686.511 757.872C685.208 757.304 683.801 757.017 682.38 757.029C680.959 757.02 679.552 757.307 678.249 757.872C676.989 758.409 675.845 759.182 674.878 760.15C673.903 761.125 673.122 762.275 672.576 763.54ZM677.011 769.916C676.717 769.202 676.568 768.436 676.574 767.664C676.565 766.892 676.714 766.126 677.011 765.412C677.597 764.017 678.713 762.91 680.116 762.337C680.826 762.024 681.595 761.865 682.371 761.868C683.148 761.861 683.917 762.021 684.626 762.337C685.683 762.768 686.584 763.506 687.214 764.457C687.843 765.407 688.171 766.525 688.155 767.664C688.158 768.437 688.006 769.203 687.707 769.916C687.417 770.604 687.001 771.231 686.48 771.766C685.945 772.294 685.317 772.718 684.626 773.015C683.181 773.608 681.56 773.608 680.116 773.015C679.429 772.71 678.802 772.287 678.262 771.766C677.74 771.227 677.317 770.601 677.011 769.916ZM637.275 768.021C637.27 768.753 637.406 769.479 637.677 770.16C637.949 770.797 638.335 771.379 638.817 771.877C639.322 772.385 639.924 772.787 640.587 773.059C641.251 773.331 641.962 773.467 642.679 773.46C643.394 773.472 644.103 773.328 644.755 773.037C645.348 772.755 645.874 772.353 646.301 771.856C646.741 771.338 647.074 770.74 647.284 770.094C647.525 769.407 647.647 768.682 647.642 767.954V759.437C647.64 759.114 647.709 758.794 647.843 758.5C647.968 758.214 648.15 757.957 648.378 757.743C648.611 757.523 648.883 757.348 649.181 757.229C649.476 757.096 649.796 757.028 650.12 757.028C650.436 757.026 650.749 757.095 651.035 757.229C651.323 757.342 651.583 757.518 651.795 757.743C652.02 757.954 652.196 758.212 652.308 758.5C652.427 758.798 652.488 759.116 652.487 759.437V767.886C652.495 769.265 652.245 770.634 651.749 771.921C651.297 773.146 650.615 774.273 649.74 775.243C648.866 776.188 647.81 776.946 646.635 777.473C645.393 778.03 644.045 778.311 642.683 778.297C641.301 778.307 639.931 778.032 638.659 777.49C636.212 776.415 634.271 774.445 633.234 771.984C632.695 770.723 632.421 769.364 632.43 767.993V759.437C632.429 759.116 632.489 758.798 632.607 758.5C632.731 758.218 632.906 757.962 633.122 757.743C633.339 757.524 633.596 757.349 633.88 757.229C634.182 757.095 634.51 757.026 634.841 757.028C635.164 757.028 635.484 757.096 635.78 757.229C636.072 757.346 636.338 757.521 636.561 757.743C636.786 757.955 636.961 758.213 637.074 758.5C637.207 758.794 637.276 759.114 637.275 759.437V768.021Z" fill="url(#paint4_linear_1966_26563)"/>
</g>
<defs>
<linearGradient id="paint0_linear_1966_26563" x1="80" y1="87" x2="489.204" y2="371.618" gradientUnits="userSpaceOnUse">
<stop stop-color="#F2906F"/>
<stop offset="0.299721" stop-color="#E75C76"/>
<stop offset="0.648425" stop-color="#AA69D9"/>
<stop offset="1" stop-color="#2F70E0"/>
</linearGradient>
<linearGradient id="paint1_linear_1966_26563" x1="650.5" y1="139.332" x2="650.5" y2="331.544" gradientUnits="userSpaceOnUse">
<stop stop-color="white"/>
<stop offset="1" stop-color="white" stop-opacity="0"/>
</linearGradient>
<linearGradient id="paint2_linear_1966_26563" x1="302.048" y1="700.938" x2="302.048" y2="967.243" gradientUnits="userSpaceOnUse">
<stop stop-color="white"/>
<stop offset="1" stop-color="white" stop-opacity="0"/>
</linearGradient>
<linearGradient id="paint3_linear_1966_26563" x1="1548.74" y1="155.441" x2="1548.74" y2="421.747" gradientUnits="userSpaceOnUse">
<stop stop-color="white"/>
<stop offset="1" stop-color="white" stop-opacity="0"/>
</linearGradient>
<linearGradient id="paint4_linear_1966_26563" x1="607" y1="757" x2="692.836" y2="778.946" gradientUnits="userSpaceOnUse">
<stop stop-color="#F2906F"/>
<stop offset="0.299721" stop-color="#E75C76"/>
<stop offset="0.648425" stop-color="#AA69D9"/>
<stop offset="1" stop-color="#2F70E0"/>
</linearGradient>
<clipPath id="clip0_1966_26563">
<rect width="1300" height="800" rx="40" fill="white"/>
</clipPath>
</defs>
</svg>
