<svg width="1300" height="800" viewBox="0 0 1300 800" fill="none" xmlns="http://www.w3.org/2000/svg">
<g clip-path="url(#clip0_1962_16138)">
<rect width="1300" height="800" rx="40" fill="#9E64F8"/>
<rect x="-150" width="474.776" height="729" fill="#F87E51"/>
<rect x="651.05" width="325.731" height="729" fill="#9E64F8"/>
<rect x="324.776" width="326.273" height="729" fill="#FF5759"/>
<rect x="977.323" width="447.677" height="729" fill="#005AE0"/>
<path d="M67.632 659.882L62.016 673.09C61.8947 673.419 61.704 673.679 61.444 673.87C61.2013 674.043 60.9327 674.13 60.638 674.13C60.17 674.13 59.8233 674 59.598 673.74C59.3727 673.48 59.26 673.159 59.26 672.778C59.26 672.622 59.286 672.457 59.338 672.284L65.812 656.736C65.9507 656.389 66.1587 656.121 66.436 655.93C66.7307 655.739 67.0427 655.661 67.372 655.696C67.684 655.696 67.97 655.791 68.23 655.982C68.5073 656.155 68.7067 656.407 68.828 656.736L75.224 671.972C75.3107 672.197 75.354 672.405 75.354 672.596C75.354 673.064 75.198 673.437 74.886 673.714C74.5913 673.991 74.262 674.13 73.898 674.13C73.586 674.13 73.3 674.035 73.04 673.844C72.7973 673.653 72.6067 673.393 72.468 673.064L66.878 660.038L67.632 659.882ZM62.822 669.918L64.252 666.928H71.272L71.766 669.918H62.822ZM87.3636 660.09C87.8142 660.09 88.1869 660.246 88.4816 660.558C88.7762 660.853 88.9236 661.225 88.9236 661.676V668.28C88.9236 670.117 88.4122 671.573 87.3896 672.648C86.3669 673.723 84.8936 674.26 82.9696 674.26C81.0456 674.26 79.5722 673.723 78.5496 672.648C77.5442 671.573 77.0416 670.117 77.0416 668.28V661.676C77.0416 661.225 77.1889 660.853 77.4836 660.558C77.7782 660.246 78.1509 660.09 78.6016 660.09C79.0522 660.09 79.4249 660.246 79.7196 660.558C80.0142 660.853 80.1616 661.225 80.1616 661.676V668.28C80.1616 669.337 80.3956 670.126 80.8636 670.646C81.3316 671.149 82.0336 671.4 82.9696 671.4C83.9229 671.4 84.6336 671.149 85.1016 670.646C85.5696 670.126 85.8036 669.337 85.8036 668.28V661.676C85.8036 661.225 85.9509 660.853 86.2456 660.558C86.5402 660.246 86.9129 660.09 87.3636 660.09ZM93.8613 674C93.4107 674 93.038 673.853 92.7433 673.558C92.4487 673.246 92.3013 672.865 92.3013 672.414V661.676C92.3013 661.225 92.4487 660.853 92.7433 660.558C93.038 660.246 93.4107 660.09 93.8613 660.09C94.312 660.09 94.6847 660.246 94.9793 660.558C95.274 660.853 95.4213 661.225 95.4213 661.676V664.12L95.2393 662.378C95.43 661.962 95.6727 661.598 95.9673 661.286C96.2793 660.957 96.626 660.688 97.0073 660.48C97.3887 660.255 97.796 660.09 98.2293 659.986C98.6627 659.882 99.096 659.83 99.5293 659.83C100.049 659.83 100.483 659.977 100.829 660.272C101.193 660.567 101.375 660.913 101.375 661.312C101.375 661.884 101.228 662.3 100.933 662.56C100.639 662.803 100.318 662.924 99.9713 662.924C99.642 662.924 99.3387 662.863 99.0613 662.742C98.8013 662.621 98.498 662.56 98.1513 662.56C97.8393 662.56 97.5187 662.638 97.1893 662.794C96.8773 662.933 96.5827 663.158 96.3053 663.47C96.0453 663.782 95.8287 664.172 95.6553 664.64C95.4993 665.091 95.4213 665.628 95.4213 666.252V672.414C95.4213 672.865 95.274 673.246 94.9793 673.558C94.6847 673.853 94.312 674 93.8613 674ZM114.658 659.83C115.109 659.83 115.481 659.977 115.776 660.272C116.071 660.567 116.218 660.948 116.218 661.416V672.414C116.218 672.865 116.071 673.246 115.776 673.558C115.481 673.853 115.109 674 114.658 674C114.207 674 113.835 673.853 113.54 673.558C113.245 673.246 113.098 672.865 113.098 672.414V671.14L113.67 671.374C113.67 671.599 113.549 671.877 113.306 672.206C113.063 672.518 112.734 672.83 112.318 673.142C111.902 673.454 111.408 673.723 110.836 673.948C110.281 674.156 109.675 674.26 109.016 674.26C107.82 674.26 106.737 673.957 105.766 673.35C104.795 672.726 104.024 671.877 103.452 670.802C102.897 669.71 102.62 668.462 102.62 667.058C102.62 665.637 102.897 664.389 103.452 663.314C104.024 662.222 104.787 661.373 105.74 660.766C106.693 660.142 107.751 659.83 108.912 659.83C109.657 659.83 110.342 659.943 110.966 660.168C111.59 660.393 112.127 660.679 112.578 661.026C113.046 661.373 113.401 661.728 113.644 662.092C113.904 662.439 114.034 662.733 114.034 662.976L113.098 663.314V661.416C113.098 660.965 113.245 660.593 113.54 660.298C113.835 659.986 114.207 659.83 114.658 659.83ZM109.406 671.4C110.169 671.4 110.836 671.209 111.408 670.828C111.98 670.447 112.422 669.927 112.734 669.268C113.063 668.609 113.228 667.873 113.228 667.058C113.228 666.226 113.063 665.481 112.734 664.822C112.422 664.163 111.98 663.643 111.408 663.262C110.836 662.881 110.169 662.69 109.406 662.69C108.661 662.69 108.002 662.881 107.43 663.262C106.858 663.643 106.407 664.163 106.078 664.822C105.766 665.481 105.61 666.226 105.61 667.058C105.61 667.873 105.766 668.609 106.078 669.268C106.407 669.927 106.858 670.447 107.43 670.828C108.002 671.209 108.661 671.4 109.406 671.4ZM127.032 659.83C128.315 659.83 129.286 660.099 129.944 660.636C130.62 661.173 131.08 661.893 131.322 662.794C131.582 663.678 131.712 664.666 131.712 665.758V672.414C131.712 672.865 131.565 673.246 131.27 673.558C130.976 673.853 130.603 674 130.152 674C129.702 674 129.329 673.853 129.034 673.558C128.74 673.246 128.592 672.865 128.592 672.414V665.758C128.592 665.186 128.514 664.675 128.358 664.224C128.22 663.756 127.96 663.383 127.578 663.106C127.197 662.829 126.651 662.69 125.94 662.69C125.247 662.69 124.658 662.829 124.172 663.106C123.704 663.383 123.34 663.756 123.08 664.224C122.838 664.675 122.716 665.186 122.716 665.758V672.414C122.716 672.865 122.569 673.246 122.274 673.558C121.98 673.853 121.607 674 121.156 674C120.706 674 120.333 673.853 120.038 673.558C119.744 673.246 119.596 672.865 119.596 672.414V661.676C119.596 661.225 119.744 660.853 120.038 660.558C120.333 660.246 120.706 660.09 121.156 660.09C121.607 660.09 121.98 660.246 122.274 660.558C122.569 660.853 122.716 661.225 122.716 661.676V662.794L122.326 662.716C122.482 662.421 122.708 662.109 123.002 661.78C123.297 661.433 123.644 661.113 124.042 660.818C124.441 660.523 124.892 660.289 125.394 660.116C125.897 659.925 126.443 659.83 127.032 659.83ZM140.857 659.83C141.585 659.83 142.252 659.943 142.859 660.168C143.465 660.393 143.985 660.679 144.419 661.026C144.869 661.373 145.216 661.728 145.459 662.092C145.719 662.439 145.849 662.733 145.849 662.976L145.173 663.314V661.416C145.173 660.965 145.32 660.593 145.615 660.298C145.909 659.986 146.282 659.83 146.733 659.83C147.183 659.83 147.556 659.977 147.851 660.272C148.145 660.567 148.293 660.948 148.293 661.416V672.986C148.293 674.494 147.963 675.699 147.305 676.6C146.663 677.519 145.814 678.177 144.757 678.576C143.699 678.992 142.564 679.2 141.351 679.2C141.004 679.2 140.553 679.157 139.999 679.07C139.444 678.983 138.915 678.879 138.413 678.758C137.91 678.637 137.529 678.524 137.269 678.42C136.749 678.195 136.385 677.909 136.177 677.562C135.986 677.233 135.951 676.877 136.073 676.496C136.229 675.993 136.48 675.647 136.827 675.456C137.173 675.283 137.537 675.265 137.919 675.404C138.092 675.456 138.378 675.56 138.777 675.716C139.175 675.872 139.609 676.011 140.077 676.132C140.562 676.271 140.987 676.34 141.351 676.34C142.651 676.34 143.613 676.08 144.237 675.56C144.861 675.04 145.173 674.321 145.173 673.402V671.14L145.485 671.374C145.485 671.599 145.363 671.877 145.121 672.206C144.895 672.518 144.575 672.83 144.159 673.142C143.76 673.454 143.283 673.723 142.729 673.948C142.174 674.156 141.585 674.26 140.961 674.26C139.73 674.26 138.621 673.957 137.633 673.35C136.645 672.726 135.865 671.877 135.293 670.802C134.721 669.71 134.435 668.462 134.435 667.058C134.435 665.637 134.721 664.389 135.293 663.314C135.865 662.222 136.636 661.373 137.607 660.766C138.577 660.142 139.661 659.83 140.857 659.83ZM141.351 662.69C140.571 662.69 139.886 662.881 139.297 663.262C138.707 663.643 138.248 664.163 137.919 664.822C137.589 665.481 137.425 666.226 137.425 667.058C137.425 667.873 137.589 668.609 137.919 669.268C138.248 669.927 138.707 670.447 139.297 670.828C139.886 671.209 140.571 671.4 141.351 671.4C142.148 671.4 142.841 671.209 143.431 670.828C144.02 670.447 144.479 669.927 144.809 669.268C145.138 668.609 145.303 667.873 145.303 667.058C145.303 666.226 145.138 665.481 144.809 664.822C144.479 664.163 144.02 663.643 143.431 663.262C142.841 662.881 142.148 662.69 141.351 662.69ZM157.709 674.26C156.235 674.26 154.953 673.957 153.861 673.35C152.786 672.726 151.954 671.885 151.365 670.828C150.793 669.771 150.507 668.575 150.507 667.24C150.507 665.68 150.819 664.354 151.443 663.262C152.084 662.153 152.916 661.303 153.939 660.714C154.961 660.125 156.045 659.83 157.189 659.83C158.073 659.83 158.905 660.012 159.685 660.376C160.482 660.74 161.184 661.243 161.791 661.884C162.397 662.508 162.874 663.236 163.221 664.068C163.585 664.9 163.767 665.784 163.767 666.72C163.749 667.136 163.585 667.474 163.273 667.734C162.961 667.994 162.597 668.124 162.181 668.124H152.249L151.469 665.524H161.011L160.439 666.044V665.342C160.404 664.839 160.222 664.389 159.893 663.99C159.581 663.591 159.182 663.279 158.697 663.054C158.229 662.811 157.726 662.69 157.189 662.69C156.669 662.69 156.183 662.759 155.733 662.898C155.282 663.037 154.892 663.271 154.563 663.6C154.233 663.929 153.973 664.371 153.783 664.926C153.592 665.481 153.497 666.183 153.497 667.032C153.497 667.968 153.687 668.765 154.069 669.424C154.467 670.065 154.97 670.559 155.577 670.906C156.201 671.235 156.859 671.4 157.553 671.4C158.194 671.4 158.705 671.348 159.087 671.244C159.468 671.14 159.771 671.019 159.997 670.88C160.239 670.724 160.456 670.594 160.647 670.49C160.959 670.334 161.253 670.256 161.531 670.256C161.912 670.256 162.224 670.386 162.467 670.646C162.727 670.906 162.857 671.209 162.857 671.556C162.857 672.024 162.614 672.449 162.129 672.83C161.678 673.211 161.045 673.549 160.231 673.844C159.416 674.121 158.575 674.26 157.709 674.26Z" fill="white"/>
<path d="M65.8066 683.939H67.1647L64.8627 695.383H63.5212L65.8066 683.939ZM59.679 690.828H67.5456L67.3137 692.17H59.4306L59.679 690.828ZM62.5938 683.939H63.9352L61.6332 695.383H60.2918L62.5938 683.939ZM60.2752 687.036H68.1418L67.8768 688.394H60.0102L60.2752 687.036ZM69.7341 683.542H77.9484V685.115H71.5558V688.676H76.7229V690.249H71.5558V695.383H69.7341V683.542ZM82.9567 695.615C82.1176 695.615 81.3668 695.488 80.7043 695.234C80.0419 694.969 79.5174 694.577 79.131 694.058C78.7556 693.539 78.5679 692.904 78.5679 692.153C78.5679 691.657 78.6618 691.226 78.8495 690.862C79.0482 690.486 79.3022 690.177 79.6113 689.934C79.9315 689.691 80.2958 689.482 80.7043 689.305V689.272C80.2296 689.018 79.8487 688.698 79.5616 688.311C79.2745 687.914 79.131 687.417 79.131 686.821C79.131 686.18 79.2911 685.623 79.6113 685.148C79.9425 684.673 80.3952 684.314 80.9693 684.072C81.5545 683.829 82.2169 683.707 82.9567 683.707C83.7074 683.707 84.3699 683.829 84.944 684.072C85.5292 684.314 85.9818 684.673 86.302 685.148C86.6332 685.623 86.7988 686.18 86.7988 686.821C86.7988 687.417 86.6498 687.914 86.3517 688.311C86.0646 688.698 85.6892 689.018 85.2255 689.272V689.305C85.8659 689.581 86.3793 689.945 86.7657 690.398C87.1632 690.851 87.3619 691.436 87.3619 692.153C87.3619 692.904 87.1687 693.539 86.7823 694.058C86.3959 694.577 85.8714 694.969 85.209 695.234C84.5576 695.488 83.8068 695.615 82.9567 695.615ZM82.9567 694.124C83.4866 694.124 83.9393 694.041 84.3147 693.876C84.7011 693.71 84.9937 693.473 85.1924 693.164C85.3911 692.854 85.4905 692.485 85.4905 692.054C85.4905 691.623 85.3911 691.259 85.1924 690.961C84.9937 690.652 84.7011 690.42 84.3147 690.265C83.9393 690.1 83.4866 690.017 82.9567 690.017C82.4267 690.017 81.9685 690.1 81.5821 690.265C81.2067 690.42 80.9196 690.652 80.7209 690.961C80.5222 691.259 80.4228 691.623 80.4228 692.054C80.4228 692.485 80.5222 692.854 80.7209 693.164C80.9196 693.473 81.2067 693.71 81.5821 693.876C81.9685 694.041 82.4267 694.124 82.9567 694.124ZM82.9567 688.593C83.3983 688.593 83.7681 688.532 84.0662 688.411C84.3754 688.278 84.6072 688.085 84.7618 687.831C84.9274 687.577 85.0102 687.262 85.0102 686.887C85.0102 686.324 84.8336 685.899 84.4803 685.612C84.127 685.314 83.6191 685.165 82.9567 685.165C82.5261 685.165 82.1562 685.231 81.8471 685.363C81.549 685.496 81.3171 685.689 81.1515 685.943C80.9969 686.197 80.9196 686.512 80.9196 686.887C80.9196 687.45 81.0963 687.875 81.4496 688.162C81.8029 688.449 82.3052 688.593 82.9567 688.593ZM89.7403 695.383C89.7403 694.179 89.9556 692.932 90.3861 691.64C90.8167 690.348 91.3688 689.161 92.0423 688.079C92.7268 686.986 93.4224 686.131 94.129 685.512V685.479H88.0345V683.939H96.0832V685.314C95.2331 686.031 94.4657 686.948 93.7812 688.063C93.1077 689.167 92.5777 690.359 92.1913 691.64C91.8159 692.921 91.6282 694.168 91.6282 695.383H89.7403ZM97.6164 683.542H105.996V685.115H99.4381V688.477H105.185V690.05H99.4381V693.81H106.162V695.383H97.6164V683.542ZM111.547 695.615C110.663 695.615 109.902 695.455 109.261 695.134C108.632 694.814 108.146 694.384 107.804 693.843C107.462 693.291 107.279 692.689 107.257 692.037H109.079C109.145 692.623 109.366 693.108 109.742 693.495C110.128 693.881 110.697 694.074 111.447 694.074C111.944 694.074 112.369 693.975 112.723 693.776C113.087 693.578 113.368 693.285 113.567 692.899C113.766 692.512 113.865 692.037 113.865 691.474C113.865 690.69 113.667 690.105 113.269 689.719C112.872 689.332 112.303 689.139 111.563 689.139C111.088 689.139 110.647 689.228 110.238 689.404C109.841 689.57 109.51 689.824 109.245 690.166H107.406L108.632 683.939H115.14V685.479H110.006L109.377 688.642V688.676C109.686 688.355 110.056 688.112 110.487 687.947C110.928 687.77 111.447 687.682 112.044 687.682C112.761 687.682 113.396 687.847 113.948 688.179C114.511 688.499 114.947 688.946 115.256 689.52C115.566 690.094 115.72 690.746 115.72 691.474C115.72 692.302 115.538 693.031 115.174 693.66C114.82 694.29 114.323 694.776 113.683 695.118C113.043 695.449 112.331 695.615 111.547 695.615ZM118.853 686.887C118.621 687.097 118.306 687.24 117.909 687.318C117.512 687.395 117.026 687.433 116.452 687.433V685.976C117.114 685.954 117.639 685.871 118.025 685.728C118.411 685.584 118.693 685.374 118.87 685.098C119.046 684.811 119.162 684.425 119.217 683.939H120.642V695.383H118.853V686.887Z" fill="white"/>
<path d="M376.2 672.414C376.2 672.865 376.035 673.246 375.706 673.558C375.377 673.853 374.995 674 374.562 674C374.077 674 373.687 673.853 373.392 673.558C373.097 673.246 372.95 672.865 372.95 672.414V657.386C372.95 656.935 373.106 656.563 373.418 656.268C373.73 655.956 374.129 655.8 374.614 655.8C375.03 655.8 375.394 655.956 375.706 656.268C376.035 656.563 376.2 656.935 376.2 657.386V672.414ZM387.286 659.83C388.569 659.83 389.539 660.099 390.198 660.636C390.874 661.173 391.333 661.893 391.576 662.794C391.836 663.678 391.966 664.666 391.966 665.758V672.414C391.966 672.865 391.819 673.246 391.524 673.558C391.229 673.853 390.857 674 390.406 674C389.955 674 389.583 673.853 389.288 673.558C388.993 673.246 388.846 672.865 388.846 672.414V665.758C388.846 665.186 388.768 664.675 388.612 664.224C388.473 663.756 388.213 663.383 387.832 663.106C387.451 662.829 386.905 662.69 386.194 662.69C385.501 662.69 384.911 662.829 384.426 663.106C383.958 663.383 383.594 663.756 383.334 664.224C383.091 664.675 382.97 665.186 382.97 665.758V672.414C382.97 672.865 382.823 673.246 382.528 673.558C382.233 673.853 381.861 674 381.41 674C380.959 674 380.587 673.853 380.292 673.558C379.997 673.246 379.85 672.865 379.85 672.414V661.676C379.85 661.225 379.997 660.853 380.292 660.558C380.587 660.246 380.959 660.09 381.41 660.09C381.861 660.09 382.233 660.246 382.528 660.558C382.823 660.853 382.97 661.225 382.97 661.676V662.794L382.58 662.716C382.736 662.421 382.961 662.109 383.256 661.78C383.551 661.433 383.897 661.113 384.296 660.818C384.695 660.523 385.145 660.289 385.648 660.116C386.151 659.925 386.697 659.83 387.286 659.83ZM402.488 654.76C402.87 654.76 403.242 654.812 403.606 654.916C403.97 655.02 404.274 655.193 404.516 655.436C404.759 655.661 404.88 655.965 404.88 656.346C404.88 656.779 404.75 657.126 404.49 657.386C404.248 657.629 403.962 657.75 403.632 657.75C403.476 657.75 403.242 657.715 402.93 657.646C402.618 657.559 402.315 657.516 402.02 657.516C401.587 657.516 401.249 657.611 401.006 657.802C400.781 657.993 400.625 658.218 400.538 658.478C400.452 658.721 400.408 658.937 400.408 659.128V672.414C400.408 672.865 400.261 673.246 399.966 673.558C399.672 673.853 399.299 674 398.848 674C398.398 674 398.025 673.853 397.73 673.558C397.436 673.246 397.288 672.865 397.288 672.414V659.154C397.288 657.923 397.722 656.883 398.588 656.034C399.455 655.185 400.755 654.76 402.488 654.76ZM402.774 660.35C403.19 660.35 403.537 660.489 403.814 660.766C404.092 661.026 404.23 661.364 404.23 661.78C404.23 662.196 404.092 662.543 403.814 662.82C403.537 663.08 403.19 663.21 402.774 663.21H395.884C395.468 663.21 395.122 663.08 394.844 662.82C394.567 662.543 394.428 662.196 394.428 661.78C394.428 661.364 394.567 661.026 394.844 660.766C395.122 660.489 395.468 660.35 395.884 660.35H402.774ZM408.248 674C407.797 674 407.425 673.853 407.13 673.558C406.835 673.246 406.688 672.865 406.688 672.414V661.676C406.688 661.225 406.835 660.853 407.13 660.558C407.425 660.246 407.797 660.09 408.248 660.09C408.699 660.09 409.071 660.246 409.366 660.558C409.661 660.853 409.808 661.225 409.808 661.676V664.12L409.626 662.378C409.817 661.962 410.059 661.598 410.354 661.286C410.666 660.957 411.013 660.688 411.394 660.48C411.775 660.255 412.183 660.09 412.616 659.986C413.049 659.882 413.483 659.83 413.916 659.83C414.436 659.83 414.869 659.977 415.216 660.272C415.58 660.567 415.762 660.913 415.762 661.312C415.762 661.884 415.615 662.3 415.32 662.56C415.025 662.803 414.705 662.924 414.358 662.924C414.029 662.924 413.725 662.863 413.448 662.742C413.188 662.621 412.885 662.56 412.538 662.56C412.226 662.56 411.905 662.638 411.576 662.794C411.264 662.933 410.969 663.158 410.692 663.47C410.432 663.782 410.215 664.172 410.042 664.64C409.886 665.091 409.808 665.628 409.808 666.252V672.414C409.808 672.865 409.661 673.246 409.366 673.558C409.071 673.853 408.699 674 408.248 674ZM429.045 659.83C429.495 659.83 429.868 659.977 430.163 660.272C430.457 660.567 430.605 660.948 430.605 661.416V672.414C430.605 672.865 430.457 673.246 430.163 673.558C429.868 673.853 429.495 674 429.045 674C428.594 674 428.221 673.853 427.927 673.558C427.632 673.246 427.485 672.865 427.485 672.414V671.14L428.057 671.374C428.057 671.599 427.935 671.877 427.693 672.206C427.45 672.518 427.121 672.83 426.705 673.142C426.289 673.454 425.795 673.723 425.223 673.948C424.668 674.156 424.061 674.26 423.403 674.26C422.207 674.26 421.123 673.957 420.153 673.35C419.182 672.726 418.411 671.877 417.839 670.802C417.284 669.71 417.007 668.462 417.007 667.058C417.007 665.637 417.284 664.389 417.839 663.314C418.411 662.222 419.173 661.373 420.127 660.766C421.08 660.142 422.137 659.83 423.299 659.83C424.044 659.83 424.729 659.943 425.353 660.168C425.977 660.393 426.514 660.679 426.965 661.026C427.433 661.373 427.788 661.728 428.031 662.092C428.291 662.439 428.421 662.733 428.421 662.976L427.485 663.314V661.416C427.485 660.965 427.632 660.593 427.927 660.298C428.221 659.986 428.594 659.83 429.045 659.83ZM423.793 671.4C424.555 671.4 425.223 671.209 425.795 670.828C426.367 670.447 426.809 669.927 427.121 669.268C427.45 668.609 427.615 667.873 427.615 667.058C427.615 666.226 427.45 665.481 427.121 664.822C426.809 664.163 426.367 663.643 425.795 663.262C425.223 662.881 424.555 662.69 423.793 662.69C423.047 662.69 422.389 662.881 421.817 663.262C421.245 663.643 420.794 664.163 420.465 664.822C420.153 665.481 419.997 666.226 419.997 667.058C419.997 667.873 420.153 668.609 420.465 669.268C420.794 669.927 421.245 670.447 421.817 670.828C422.389 671.209 423.047 671.4 423.793 671.4ZM435.543 674C435.092 674 434.72 673.853 434.425 673.558C434.13 673.246 433.983 672.865 433.983 672.414V661.676C433.983 661.225 434.13 660.853 434.425 660.558C434.72 660.246 435.092 660.09 435.543 660.09C435.994 660.09 436.366 660.246 436.661 660.558C436.956 660.853 437.103 661.225 437.103 661.676V664.12L436.921 662.378C437.112 661.962 437.354 661.598 437.649 661.286C437.961 660.957 438.308 660.688 438.689 660.48C439.07 660.255 439.478 660.09 439.911 659.986C440.344 659.882 440.778 659.83 441.211 659.83C441.731 659.83 442.164 659.977 442.511 660.272C442.875 660.567 443.057 660.913 443.057 661.312C443.057 661.884 442.91 662.3 442.615 662.56C442.32 662.803 442 662.924 441.653 662.924C441.324 662.924 441.02 662.863 440.743 662.742C440.483 662.621 440.18 662.56 439.833 662.56C439.521 662.56 439.2 662.638 438.871 662.794C438.559 662.933 438.264 663.158 437.987 663.47C437.727 663.782 437.51 664.172 437.337 664.64C437.181 665.091 437.103 665.628 437.103 666.252V672.414C437.103 672.865 436.956 673.246 436.661 673.558C436.366 673.853 435.994 674 435.543 674ZM451.224 674.26C449.751 674.26 448.468 673.957 447.376 673.35C446.302 672.726 445.47 671.885 444.88 670.828C444.308 669.771 444.022 668.575 444.022 667.24C444.022 665.68 444.334 664.354 444.958 663.262C445.6 662.153 446.432 661.303 447.454 660.714C448.477 660.125 449.56 659.83 450.704 659.83C451.588 659.83 452.42 660.012 453.2 660.376C453.998 660.74 454.7 661.243 455.306 661.884C455.913 662.508 456.39 663.236 456.736 664.068C457.1 664.9 457.282 665.784 457.282 666.72C457.265 667.136 457.1 667.474 456.788 667.734C456.476 667.994 456.112 668.124 455.696 668.124H445.764L444.984 665.524H454.526L453.954 666.044V665.342C453.92 664.839 453.738 664.389 453.408 663.99C453.096 663.591 452.698 663.279 452.212 663.054C451.744 662.811 451.242 662.69 450.704 662.69C450.184 662.69 449.699 662.759 449.248 662.898C448.798 663.037 448.408 663.271 448.078 663.6C447.749 663.929 447.489 664.371 447.298 664.926C447.108 665.481 447.012 666.183 447.012 667.032C447.012 667.968 447.203 668.765 447.584 669.424C447.983 670.065 448.486 670.559 449.092 670.906C449.716 671.235 450.375 671.4 451.068 671.4C451.71 671.4 452.221 671.348 452.602 671.244C452.984 671.14 453.287 671.019 453.512 670.88C453.755 670.724 453.972 670.594 454.162 670.49C454.474 670.334 454.769 670.256 455.046 670.256C455.428 670.256 455.74 670.386 455.982 670.646C456.242 670.906 456.372 671.209 456.372 671.556C456.372 672.024 456.13 672.449 455.644 672.83C455.194 673.211 454.561 673.549 453.746 673.844C452.932 674.121 452.091 674.26 451.224 674.26ZM471.396 654.76C471.847 654.76 472.22 654.907 472.514 655.202C472.809 655.497 472.956 655.878 472.956 656.346V672.414C472.956 672.865 472.809 673.246 472.514 673.558C472.22 673.853 471.847 674 471.396 674C470.946 674 470.573 673.853 470.278 673.558C469.984 673.246 469.836 672.865 469.836 672.414V671.14L470.408 671.374C470.408 671.599 470.287 671.877 470.044 672.206C469.802 672.518 469.472 672.83 469.056 673.142C468.64 673.454 468.146 673.723 467.574 673.948C467.02 674.156 466.413 674.26 465.754 674.26C464.558 674.26 463.475 673.957 462.504 673.35C461.534 672.726 460.762 671.877 460.19 670.802C459.636 669.71 459.358 668.462 459.358 667.058C459.358 665.637 459.636 664.389 460.19 663.314C460.762 662.222 461.525 661.373 462.478 660.766C463.432 660.142 464.489 659.83 465.65 659.83C466.396 659.83 467.08 659.943 467.704 660.168C468.328 660.393 468.866 660.679 469.316 661.026C469.784 661.373 470.14 661.728 470.382 662.092C470.642 662.439 470.772 662.733 470.772 662.976L469.836 663.314V656.346C469.836 655.895 469.984 655.523 470.278 655.228C470.573 654.916 470.946 654.76 471.396 654.76ZM466.144 671.4C466.907 671.4 467.574 671.209 468.146 670.828C468.718 670.447 469.16 669.927 469.472 669.268C469.802 668.609 469.966 667.873 469.966 667.058C469.966 666.226 469.802 665.481 469.472 664.822C469.16 664.163 468.718 663.643 468.146 663.262C467.574 662.881 466.907 662.69 466.144 662.69C465.399 662.69 464.74 662.881 464.168 663.262C463.596 663.643 463.146 664.163 462.816 664.822C462.504 665.481 462.348 666.226 462.348 667.058C462.348 667.873 462.504 668.609 462.816 669.268C463.146 669.927 463.596 670.447 464.168 670.828C464.74 671.209 465.399 671.4 466.144 671.4Z" fill="white"/>
<path d="M377.807 683.939H379.165L376.863 695.383H375.521L377.807 683.939ZM371.679 690.828H379.546L379.314 692.17H371.431L371.679 690.828ZM374.594 683.939H375.935L373.633 695.383H372.292L374.594 683.939ZM372.275 687.036H380.142L379.877 688.394H372.01L372.275 687.036ZM381.734 683.542H389.948V685.115H383.556V688.676H388.723V690.249H383.556V695.383H381.734V683.542ZM391.406 683.542H399.62V685.115H393.227V688.676H398.394V690.249H393.227V695.383H391.406V683.542ZM404.495 695.615C403.612 695.615 402.85 695.455 402.209 695.134C401.58 694.814 401.094 694.384 400.752 693.843C400.41 693.291 400.228 692.689 400.206 692.037H402.027C402.093 692.623 402.314 693.108 402.69 693.495C403.076 693.881 403.645 694.074 404.395 694.074C404.892 694.074 405.317 693.975 405.671 693.776C406.035 693.578 406.317 693.285 406.515 692.899C406.714 692.512 406.813 692.037 406.813 691.474C406.813 690.69 406.615 690.105 406.217 689.719C405.82 689.332 405.251 689.139 404.511 689.139C404.037 689.139 403.595 689.228 403.187 689.404C402.789 689.57 402.458 689.824 402.193 690.166H400.355L401.58 683.939H408.089V685.479H402.955L402.325 688.642V688.676C402.634 688.355 403.004 688.112 403.435 687.947C403.877 687.77 404.395 687.682 404.992 687.682C405.709 687.682 406.344 687.847 406.896 688.179C407.459 688.499 407.895 688.946 408.205 689.52C408.514 690.094 408.668 690.746 408.668 691.474C408.668 692.302 408.486 693.031 408.122 693.66C407.768 694.29 407.272 694.776 406.631 695.118C405.991 695.449 405.279 695.615 404.495 695.615ZM411.137 695.383C411.137 694.179 411.352 692.932 411.783 691.64C412.213 690.348 412.765 689.161 413.439 688.079C414.123 686.986 414.819 686.131 415.526 685.512V685.479H409.431V683.939H417.48V685.314C416.63 686.031 415.862 686.948 415.178 688.063C414.504 689.167 413.974 690.359 413.588 691.64C413.212 692.921 413.025 694.168 413.025 695.383H411.137ZM422.495 695.615C421.612 695.615 420.85 695.455 420.21 695.134C419.581 694.814 419.095 694.384 418.753 693.843C418.41 693.291 418.228 692.689 418.206 692.037H420.028C420.094 692.623 420.315 693.108 420.69 693.495C421.077 693.881 421.645 694.074 422.396 694.074C422.893 694.074 423.318 693.975 423.671 693.776C424.036 693.578 424.317 693.285 424.516 692.899C424.715 692.512 424.814 692.037 424.814 691.474C424.814 690.69 424.615 690.105 424.218 689.719C423.82 689.332 423.252 689.139 422.512 689.139C422.037 689.139 421.596 689.228 421.187 689.404C420.79 689.57 420.458 689.824 420.193 690.166H418.355L419.581 683.939H426.089V685.479H420.955L420.326 688.642V688.676C420.635 688.355 421.005 688.112 421.436 687.947C421.877 687.77 422.396 687.682 422.992 687.682C423.71 687.682 424.345 687.847 424.897 688.179C425.46 688.499 425.896 688.946 426.205 689.52C426.514 690.094 426.669 690.746 426.669 691.474C426.669 692.302 426.487 693.031 426.122 693.66C425.769 694.29 425.272 694.776 424.632 695.118C423.991 695.449 423.279 695.615 422.495 695.615ZM431.986 695.615C431.29 695.615 430.672 695.477 430.131 695.201C429.59 694.925 429.154 694.549 428.823 694.074C428.503 693.589 428.304 693.059 428.227 692.485H430.081C430.159 692.992 430.352 693.395 430.661 693.694C430.97 693.981 431.417 694.124 432.002 694.124C432.676 694.124 433.206 693.942 433.592 693.578C433.99 693.202 434.271 692.722 434.437 692.137C434.603 691.552 434.685 690.895 434.685 690.166V690L434.636 689.984C434.437 690.304 434.189 690.575 433.89 690.795C433.603 691.016 433.272 691.187 432.897 691.309C432.521 691.43 432.118 691.491 431.688 691.491C430.959 691.491 430.308 691.331 429.734 691.011C429.17 690.69 428.729 690.243 428.409 689.669C428.088 689.095 427.928 688.433 427.928 687.682C427.928 686.942 428.094 686.269 428.425 685.661C428.756 685.054 429.231 684.579 429.85 684.237C430.468 683.884 431.191 683.707 432.019 683.707C433.576 683.707 434.707 684.232 435.414 685.28C436.121 686.329 436.474 687.781 436.474 689.636C436.474 690.873 436.297 691.944 435.944 692.849C435.591 693.754 435.077 694.444 434.404 694.919C433.741 695.383 432.935 695.615 431.986 695.615ZM431.953 689.984C432.461 689.984 432.908 689.885 433.294 689.686C433.681 689.476 433.973 689.189 434.172 688.825C434.382 688.449 434.487 688.024 434.487 687.549C434.487 687.075 434.393 686.666 434.205 686.324C434.017 685.971 433.741 685.695 433.377 685.496C433.013 685.297 432.571 685.198 432.052 685.198C431.566 685.198 431.152 685.297 430.81 685.496C430.468 685.695 430.203 685.971 430.015 686.324C429.838 686.677 429.75 687.097 429.75 687.582C429.75 688.322 429.949 688.907 430.346 689.338C430.744 689.769 431.279 689.984 431.953 689.984Z" fill="white"/>
<path d="M704.872 655.774C705.323 655.774 705.687 655.93 705.964 656.242C706.241 656.537 706.38 656.909 706.38 657.36V666.772C706.38 668.211 706.068 669.485 705.444 670.594C704.837 671.703 703.997 672.57 702.922 673.194C701.847 673.818 700.599 674.13 699.178 674.13C697.757 674.13 696.5 673.818 695.408 673.194C694.333 672.57 693.484 671.703 692.86 670.594C692.253 669.485 691.95 668.211 691.95 666.772V657.36C691.95 656.909 692.106 656.537 692.418 656.242C692.73 655.93 693.129 655.774 693.614 655.774C694.013 655.774 694.368 655.93 694.68 656.242C695.009 656.537 695.174 656.909 695.174 657.36V666.772C695.174 667.639 695.356 668.393 695.72 669.034C696.101 669.658 696.595 670.143 697.202 670.49C697.826 670.837 698.485 671.01 699.178 671.01C699.923 671.01 700.617 670.837 701.258 670.49C701.899 670.143 702.419 669.658 702.818 669.034C703.217 668.393 703.416 667.639 703.416 666.772V657.36C703.416 656.909 703.546 656.537 703.806 656.242C704.066 655.93 704.421 655.774 704.872 655.774ZM713.402 672.414C713.402 672.865 713.246 673.246 712.934 673.558C712.639 673.853 712.267 674 711.816 674C711.383 674 711.019 673.853 710.724 673.558C710.429 673.246 710.282 672.865 710.282 672.414V656.346C710.282 655.895 710.429 655.523 710.724 655.228C711.036 654.916 711.417 654.76 711.868 654.76C712.319 654.76 712.683 654.916 712.96 655.228C713.255 655.523 713.402 655.895 713.402 656.346V672.414ZM717.11 660.35H723.272C723.688 660.35 724.034 660.489 724.312 660.766C724.589 661.043 724.728 661.39 724.728 661.806C724.728 662.205 724.589 662.543 724.312 662.82C724.034 663.08 723.688 663.21 723.272 663.21H717.11C716.694 663.21 716.347 663.071 716.07 662.794C715.792 662.517 715.654 662.17 715.654 661.754C715.654 661.355 715.792 661.026 716.07 660.766C716.347 660.489 716.694 660.35 717.11 660.35ZM719.892 657.1C720.342 657.1 720.706 657.256 720.984 657.568C721.278 657.863 721.426 658.235 721.426 658.686V670.256C721.426 670.499 721.469 670.698 721.556 670.854C721.66 671.01 721.79 671.123 721.946 671.192C722.119 671.261 722.301 671.296 722.492 671.296C722.7 671.296 722.89 671.261 723.064 671.192C723.237 671.105 723.436 671.062 723.662 671.062C723.904 671.062 724.121 671.175 724.312 671.4C724.52 671.625 724.624 671.937 724.624 672.336C724.624 672.821 724.355 673.22 723.818 673.532C723.298 673.844 722.734 674 722.128 674C721.764 674 721.356 673.974 720.906 673.922C720.472 673.853 720.056 673.705 719.658 673.48C719.276 673.237 718.956 672.873 718.696 672.388C718.436 671.903 718.306 671.235 718.306 670.386V658.686C718.306 658.235 718.453 657.863 718.748 657.568C719.06 657.256 719.441 657.1 719.892 657.1ZM729.152 674C728.702 674 728.329 673.853 728.034 673.558C727.74 673.246 727.592 672.865 727.592 672.414V661.676C727.592 661.225 727.74 660.853 728.034 660.558C728.329 660.246 728.702 660.09 729.152 660.09C729.603 660.09 729.976 660.246 730.27 660.558C730.565 660.853 730.712 661.225 730.712 661.676V664.12L730.53 662.378C730.721 661.962 730.964 661.598 731.258 661.286C731.57 660.957 731.917 660.688 732.298 660.48C732.68 660.255 733.087 660.09 733.52 659.986C733.954 659.882 734.387 659.83 734.82 659.83C735.34 659.83 735.774 659.977 736.12 660.272C736.484 660.567 736.666 660.913 736.666 661.312C736.666 661.884 736.519 662.3 736.224 662.56C735.93 662.803 735.609 662.924 735.262 662.924C734.933 662.924 734.63 662.863 734.352 662.742C734.092 662.621 733.789 662.56 733.442 662.56C733.13 662.56 732.81 662.638 732.48 662.794C732.168 662.933 731.874 663.158 731.596 663.47C731.336 663.782 731.12 664.172 730.946 664.64C730.79 665.091 730.712 665.628 730.712 666.252V672.414C730.712 672.865 730.565 673.246 730.27 673.558C729.976 673.853 729.603 674 729.152 674ZM749.949 659.83C750.4 659.83 750.772 659.977 751.067 660.272C751.362 660.567 751.509 660.948 751.509 661.416V672.414C751.509 672.865 751.362 673.246 751.067 673.558C750.772 673.853 750.4 674 749.949 674C749.498 674 749.126 673.853 748.831 673.558C748.536 673.246 748.389 672.865 748.389 672.414V671.14L748.961 671.374C748.961 671.599 748.84 671.877 748.597 672.206C748.354 672.518 748.025 672.83 747.609 673.142C747.193 673.454 746.699 673.723 746.127 673.948C745.572 674.156 744.966 674.26 744.307 674.26C743.111 674.26 742.028 673.957 741.057 673.35C740.086 672.726 739.315 671.877 738.743 670.802C738.188 669.71 737.911 668.462 737.911 667.058C737.911 665.637 738.188 664.389 738.743 663.314C739.315 662.222 740.078 661.373 741.031 660.766C741.984 660.142 743.042 659.83 744.203 659.83C744.948 659.83 745.633 659.943 746.257 660.168C746.881 660.393 747.418 660.679 747.869 661.026C748.337 661.373 748.692 661.728 748.935 662.092C749.195 662.439 749.325 662.733 749.325 662.976L748.389 663.314V661.416C748.389 660.965 748.536 660.593 748.831 660.298C749.126 659.986 749.498 659.83 749.949 659.83ZM744.697 671.4C745.46 671.4 746.127 671.209 746.699 670.828C747.271 670.447 747.713 669.927 748.025 669.268C748.354 668.609 748.519 667.873 748.519 667.058C748.519 666.226 748.354 665.481 748.025 664.822C747.713 664.163 747.271 663.643 746.699 663.262C746.127 662.881 745.46 662.69 744.697 662.69C743.952 662.69 743.293 662.881 742.721 663.262C742.149 663.643 741.698 664.163 741.369 664.822C741.057 665.481 740.901 666.226 740.901 667.058C740.901 667.873 741.057 668.609 741.369 669.268C741.698 669.927 742.149 670.447 742.721 670.828C743.293 671.209 743.952 671.4 744.697 671.4ZM767.697 655.748C768.13 655.748 768.503 655.895 768.815 656.19C769.144 656.467 769.309 656.823 769.309 657.256C769.309 657.481 769.257 657.715 769.153 657.958L762.731 672.986C762.575 673.333 762.35 673.593 762.055 673.766C761.778 673.922 761.492 674 761.197 674C760.92 673.983 760.651 673.896 760.391 673.74C760.131 673.567 759.932 673.324 759.793 673.012L753.371 657.932C753.319 657.828 753.284 657.724 753.267 657.62C753.25 657.499 753.241 657.386 753.241 657.282C753.241 656.779 753.423 656.398 753.787 656.138C754.151 655.861 754.498 655.722 754.827 655.722C755.486 655.722 755.962 656.06 756.257 656.736L761.951 670.126L761.041 670.152L766.267 656.736C766.562 656.077 767.038 655.748 767.697 655.748ZM774.71 672.414C774.71 672.865 774.563 673.246 774.268 673.558C773.973 673.853 773.601 674 773.15 674C772.699 674 772.327 673.853 772.032 673.558C771.737 673.246 771.59 672.865 771.59 672.414V661.676C771.59 661.225 771.737 660.853 772.032 660.558C772.327 660.246 772.699 660.09 773.15 660.09C773.601 660.09 773.973 660.246 774.268 660.558C774.563 660.853 774.71 661.225 774.71 661.676V672.414ZM773.124 658.4C772.535 658.4 772.119 658.305 771.876 658.114C771.633 657.923 771.512 657.585 771.512 657.1V656.606C771.512 656.103 771.642 655.765 771.902 655.592C772.179 655.401 772.595 655.306 773.15 655.306C773.757 655.306 774.181 655.401 774.424 655.592C774.667 655.783 774.788 656.121 774.788 656.606V657.1C774.788 657.603 774.658 657.949 774.398 658.14C774.138 658.313 773.713 658.4 773.124 658.4ZM791.411 667.058C791.411 668.479 791.09 669.736 790.449 670.828C789.825 671.903 788.975 672.743 787.901 673.35C786.843 673.957 785.656 674.26 784.339 674.26C783.021 674.26 781.825 673.957 780.751 673.35C779.693 672.743 778.844 671.903 778.203 670.828C777.579 669.736 777.267 668.479 777.267 667.058C777.267 665.637 777.579 664.389 778.203 663.314C778.844 662.222 779.693 661.373 780.751 660.766C781.825 660.142 783.021 659.83 784.339 659.83C785.656 659.83 786.843 660.142 787.901 660.766C788.975 661.373 789.825 662.222 790.449 663.314C791.09 664.389 791.411 665.637 791.411 667.058ZM788.291 667.058C788.291 666.174 788.109 665.411 787.745 664.77C787.398 664.111 786.921 663.6 786.315 663.236C785.725 662.872 785.067 662.69 784.339 662.69C783.611 662.69 782.943 662.872 782.337 663.236C781.747 663.6 781.271 664.111 780.907 664.77C780.56 665.411 780.387 666.174 780.387 667.058C780.387 667.925 780.56 668.687 780.907 669.346C781.271 669.987 781.747 670.49 782.337 670.854C782.943 671.218 783.611 671.4 784.339 671.4C785.067 671.4 785.725 671.218 786.315 670.854C786.921 670.49 787.398 669.987 787.745 669.346C788.109 668.687 788.291 667.925 788.291 667.058ZM797.521 672.414C797.521 672.865 797.365 673.246 797.053 673.558C796.759 673.853 796.386 674 795.935 674C795.502 674 795.138 673.853 794.843 673.558C794.549 673.246 794.401 672.865 794.401 672.414V656.346C794.401 655.895 794.549 655.523 794.843 655.228C795.155 654.916 795.537 654.76 795.987 654.76C796.438 654.76 796.802 654.916 797.079 655.228C797.374 655.523 797.521 655.895 797.521 656.346V672.414ZM807.447 674.26C805.974 674.26 804.691 673.957 803.599 673.35C802.524 672.726 801.692 671.885 801.103 670.828C800.531 669.771 800.245 668.575 800.245 667.24C800.245 665.68 800.557 664.354 801.181 663.262C801.822 662.153 802.654 661.303 803.677 660.714C804.7 660.125 805.783 659.83 806.927 659.83C807.811 659.83 808.643 660.012 809.423 660.376C810.22 660.74 810.922 661.243 811.529 661.884C812.136 662.508 812.612 663.236 812.959 664.068C813.323 664.9 813.505 665.784 813.505 666.72C813.488 667.136 813.323 667.474 813.011 667.734C812.699 667.994 812.335 668.124 811.919 668.124H801.987L801.207 665.524H810.749L810.177 666.044V665.342C810.142 664.839 809.96 664.389 809.631 663.99C809.319 663.591 808.92 663.279 808.435 663.054C807.967 662.811 807.464 662.69 806.927 662.69C806.407 662.69 805.922 662.759 805.471 662.898C805.02 663.037 804.63 663.271 804.301 663.6C803.972 663.929 803.712 664.371 803.521 664.926C803.33 665.481 803.235 666.183 803.235 667.032C803.235 667.968 803.426 668.765 803.807 669.424C804.206 670.065 804.708 670.559 805.315 670.906C805.939 671.235 806.598 671.4 807.291 671.4C807.932 671.4 808.444 671.348 808.825 671.244C809.206 671.14 809.51 671.019 809.735 670.88C809.978 670.724 810.194 670.594 810.385 670.49C810.697 670.334 810.992 670.256 811.269 670.256C811.65 670.256 811.962 670.386 812.205 670.646C812.465 670.906 812.595 671.209 812.595 671.556C812.595 672.024 812.352 672.449 811.867 672.83C811.416 673.211 810.784 673.549 809.969 673.844C809.154 674.121 808.314 674.26 807.447 674.26ZM816.387 660.35H822.549C822.965 660.35 823.312 660.489 823.589 660.766C823.866 661.043 824.005 661.39 824.005 661.806C824.005 662.205 823.866 662.543 823.589 662.82C823.312 663.08 822.965 663.21 822.549 663.21H816.387C815.971 663.21 815.624 663.071 815.347 662.794C815.07 662.517 814.931 662.17 814.931 661.754C814.931 661.355 815.07 661.026 815.347 660.766C815.624 660.489 815.971 660.35 816.387 660.35ZM819.169 657.1C819.62 657.1 819.984 657.256 820.261 657.568C820.556 657.863 820.703 658.235 820.703 658.686V670.256C820.703 670.499 820.746 670.698 820.833 670.854C820.937 671.01 821.067 671.123 821.223 671.192C821.396 671.261 821.578 671.296 821.769 671.296C821.977 671.296 822.168 671.261 822.341 671.192C822.514 671.105 822.714 671.062 822.939 671.062C823.182 671.062 823.398 671.175 823.589 671.4C823.797 671.625 823.901 671.937 823.901 672.336C823.901 672.821 823.632 673.22 823.095 673.532C822.575 673.844 822.012 674 821.405 674C821.041 674 820.634 673.974 820.183 673.922C819.75 673.853 819.334 673.705 818.935 673.48C818.554 673.237 818.233 672.873 817.973 672.388C817.713 671.903 817.583 671.235 817.583 670.386V658.686C817.583 658.235 817.73 657.863 818.025 657.568C818.337 657.256 818.718 657.1 819.169 657.1Z" fill="white"/>
<path d="M696.807 683.939H698.165L695.863 695.383H694.521L696.807 683.939ZM690.679 690.828H698.546L698.314 692.17H690.431L690.679 690.828ZM693.594 683.939H694.935L692.633 695.383H691.292L693.594 683.939ZM691.275 687.036H699.142L698.877 688.394H691.01L691.275 687.036ZM704.278 695.615C703.583 695.615 702.964 695.477 702.423 695.201C701.882 694.925 701.446 694.549 701.115 694.074C700.795 693.589 700.596 693.059 700.519 692.485H702.374C702.451 692.992 702.644 693.395 702.953 693.694C703.262 693.981 703.71 694.124 704.295 694.124C704.968 694.124 705.498 693.942 705.885 693.578C706.282 693.202 706.564 692.722 706.729 692.137C706.895 691.552 706.978 690.895 706.978 690.166V690L706.928 689.984C706.729 690.304 706.481 690.575 706.183 690.795C705.896 691.016 705.564 691.187 705.189 691.309C704.814 691.43 704.411 691.491 703.98 691.491C703.251 691.491 702.6 691.331 702.026 691.011C701.463 690.69 701.021 690.243 700.701 689.669C700.381 689.095 700.221 688.433 700.221 687.682C700.221 686.942 700.386 686.269 700.718 685.661C701.049 685.054 701.524 684.579 702.142 684.237C702.76 683.884 703.483 683.707 704.311 683.707C705.868 683.707 707 684.232 707.706 685.28C708.413 686.329 708.766 687.781 708.766 689.636C708.766 690.873 708.59 691.944 708.236 692.849C707.883 693.754 707.37 694.444 706.696 694.919C706.034 695.383 705.228 695.615 704.278 695.615ZM704.245 689.984C704.753 689.984 705.2 689.885 705.587 689.686C705.973 689.476 706.266 689.189 706.464 688.825C706.674 688.449 706.779 688.024 706.779 687.549C706.779 687.075 706.685 686.666 706.497 686.324C706.31 685.971 706.034 685.695 705.669 685.496C705.305 685.297 704.863 685.198 704.344 685.198C703.859 685.198 703.445 685.297 703.102 685.496C702.76 685.695 702.495 685.971 702.307 686.324C702.131 686.677 702.042 687.097 702.042 687.582C702.042 688.322 702.241 688.907 702.639 689.338C703.036 689.769 703.572 689.984 704.245 689.984ZM710.681 683.542H719.06V685.115H712.502V688.477H718.249V690.05H712.502V693.81H719.226V695.383H710.681V683.542ZM724.845 695.615C723.288 695.615 722.157 695.09 721.45 694.041C720.743 692.992 720.39 691.541 720.39 689.686C720.39 688.449 720.567 687.378 720.92 686.473C721.273 685.568 721.781 684.883 722.444 684.419C723.117 683.945 723.923 683.707 724.862 683.707C725.557 683.707 726.175 683.845 726.716 684.121C727.268 684.397 727.705 684.778 728.025 685.264C728.356 685.739 728.555 686.263 728.621 686.837H726.783C726.705 686.329 726.512 685.932 726.203 685.645C725.894 685.347 725.447 685.198 724.862 685.198C724.188 685.198 723.653 685.385 723.255 685.761C722.858 686.125 722.576 686.6 722.41 687.185C722.256 687.77 722.179 688.427 722.179 689.156V689.321L722.228 689.338C722.427 689.018 722.67 688.747 722.957 688.526C723.255 688.306 723.592 688.135 723.967 688.013C724.343 687.892 724.746 687.831 725.176 687.831C725.905 687.831 726.551 687.991 727.114 688.311C727.688 688.631 728.135 689.079 728.455 689.653C728.775 690.227 728.936 690.889 728.936 691.64C728.936 692.38 728.77 693.053 728.439 693.66C728.108 694.268 727.633 694.748 727.014 695.101C726.396 695.444 725.673 695.615 724.845 695.615ZM724.795 694.124C725.292 694.124 725.712 694.025 726.054 693.826C726.396 693.627 726.656 693.351 726.832 692.998C727.02 692.645 727.114 692.225 727.114 691.739C727.114 691 726.915 690.414 726.518 689.984C726.12 689.553 725.585 689.338 724.911 689.338C724.392 689.338 723.94 689.443 723.553 689.653C723.178 689.851 722.885 690.138 722.675 690.514C722.477 690.878 722.377 691.298 722.377 691.772C722.377 692.247 722.471 692.661 722.659 693.015C722.847 693.357 723.123 693.627 723.487 693.826C723.851 694.025 724.287 694.124 724.795 694.124ZM735.455 692.766H730.006V691.11L735.455 683.939H737.243V691.226H738.85V692.766H737.243V695.383H735.455V692.766ZM735.455 691.226V686.241L731.662 691.226H735.455ZM740.52 683.542H748.734V685.115H742.341V688.676H747.509V690.249H742.341V695.383H740.52V683.542ZM753.742 695.615C752.903 695.615 752.152 695.488 751.49 695.234C750.828 694.969 750.303 694.577 749.917 694.058C749.541 693.539 749.354 692.904 749.354 692.153C749.354 691.657 749.447 691.226 749.635 690.862C749.834 690.486 750.088 690.177 750.397 689.934C750.717 689.691 751.081 689.482 751.49 689.305V689.272C751.015 689.018 750.634 688.698 750.347 688.311C750.06 687.914 749.917 687.417 749.917 686.821C749.917 686.18 750.077 685.623 750.397 685.148C750.728 684.673 751.181 684.314 751.755 684.072C752.34 683.829 753.003 683.707 753.742 683.707C754.493 683.707 755.156 683.829 755.73 684.072C756.315 684.314 756.767 684.673 757.088 685.148C757.419 685.623 757.584 686.18 757.584 686.821C757.584 687.417 757.435 687.914 757.137 688.311C756.85 688.698 756.475 689.018 756.011 689.272V689.305C756.652 689.581 757.165 689.945 757.551 690.398C757.949 690.851 758.148 691.436 758.148 692.153C758.148 692.904 757.954 693.539 757.568 694.058C757.181 694.577 756.657 694.969 755.995 695.234C755.343 695.488 754.592 695.615 753.742 695.615ZM753.742 694.124C754.272 694.124 754.725 694.041 755.1 693.876C755.487 693.71 755.779 693.473 755.978 693.164C756.177 692.854 756.276 692.485 756.276 692.054C756.276 691.623 756.177 691.259 755.978 690.961C755.779 690.652 755.487 690.42 755.1 690.265C754.725 690.1 754.272 690.017 753.742 690.017C753.212 690.017 752.754 690.1 752.368 690.265C751.992 690.42 751.705 690.652 751.507 690.961C751.308 691.259 751.208 691.623 751.208 692.054C751.208 692.485 751.308 692.854 751.507 693.164C751.705 693.473 751.992 693.71 752.368 693.876C752.754 694.041 753.212 694.124 753.742 694.124ZM753.742 688.593C754.184 688.593 754.554 688.532 754.852 688.411C755.161 688.278 755.393 688.085 755.547 687.831C755.713 687.577 755.796 687.262 755.796 686.887C755.796 686.324 755.619 685.899 755.266 685.612C754.913 685.314 754.405 685.165 753.742 685.165C753.312 685.165 752.942 685.231 752.633 685.363C752.335 685.496 752.103 685.689 751.937 685.943C751.783 686.197 751.705 686.512 751.705 686.887C751.705 687.45 751.882 687.875 752.235 688.162C752.589 688.449 753.091 688.593 753.742 688.593Z" fill="white"/>
<path d="M1035.69 656.684C1036.14 656.909 1036.4 657.265 1036.47 657.75C1036.56 658.235 1036.44 658.677 1036.11 659.076C1035.88 659.388 1035.59 659.561 1035.22 659.596C1034.88 659.631 1034.52 659.561 1034.16 659.388C1033.74 659.197 1033.3 659.05 1032.83 658.946C1032.38 658.842 1031.9 658.79 1031.4 658.79C1030.46 658.79 1029.62 658.937 1028.88 659.232C1028.15 659.527 1027.53 659.951 1027.01 660.506C1026.49 661.043 1026.09 661.685 1025.81 662.43C1025.55 663.175 1025.42 663.999 1025.42 664.9C1025.42 665.957 1025.57 666.876 1025.86 667.656C1026.17 668.436 1026.6 669.086 1027.14 669.606C1027.67 670.126 1028.31 670.516 1029.03 670.776C1029.76 671.019 1030.55 671.14 1031.4 671.14C1031.87 671.14 1032.34 671.097 1032.8 671.01C1033.27 670.923 1033.72 670.767 1034.16 670.542C1034.52 670.369 1034.88 670.308 1035.22 670.36C1035.59 670.412 1035.89 670.594 1036.13 670.906C1036.48 671.339 1036.6 671.79 1036.5 672.258C1036.41 672.709 1036.15 673.038 1035.72 673.246C1035.27 673.471 1034.8 673.662 1034.31 673.818C1033.84 673.957 1033.37 674.061 1032.88 674.13C1032.4 674.217 1031.9 674.26 1031.4 674.26C1030.15 674.26 1028.96 674.061 1027.84 673.662C1026.73 673.263 1025.73 672.674 1024.85 671.894C1023.98 671.114 1023.3 670.143 1022.79 668.982C1022.29 667.803 1022.04 666.443 1022.04 664.9C1022.04 663.565 1022.27 662.335 1022.72 661.208C1023.18 660.081 1023.83 659.111 1024.67 658.296C1025.52 657.464 1026.51 656.823 1027.66 656.372C1028.8 655.904 1030.05 655.67 1031.4 655.67C1032.16 655.67 1032.91 655.757 1033.64 655.93C1034.36 656.103 1035.05 656.355 1035.69 656.684ZM1052.48 667.058C1052.48 668.479 1052.16 669.736 1051.52 670.828C1050.9 671.903 1050.05 672.743 1048.97 673.35C1047.92 673.957 1046.73 674.26 1045.41 674.26C1044.1 674.26 1042.9 673.957 1041.82 673.35C1040.77 672.743 1039.92 671.903 1039.28 670.828C1038.65 669.736 1038.34 668.479 1038.34 667.058C1038.34 665.637 1038.65 664.389 1039.28 663.314C1039.92 662.222 1040.77 661.373 1041.82 660.766C1042.9 660.142 1044.1 659.83 1045.41 659.83C1046.73 659.83 1047.92 660.142 1048.97 660.766C1050.05 661.373 1050.9 662.222 1051.52 663.314C1052.16 664.389 1052.48 665.637 1052.48 667.058ZM1049.36 667.058C1049.36 666.174 1049.18 665.411 1048.82 664.77C1048.47 664.111 1048 663.6 1047.39 663.236C1046.8 662.872 1046.14 662.69 1045.41 662.69C1044.68 662.69 1044.02 662.872 1043.41 663.236C1042.82 663.6 1042.34 664.111 1041.98 664.77C1041.63 665.411 1041.46 666.174 1041.46 667.058C1041.46 667.925 1041.63 668.687 1041.98 669.346C1042.34 669.987 1042.82 670.49 1043.41 670.854C1044.02 671.218 1044.68 671.4 1045.41 671.4C1046.14 671.4 1046.8 671.218 1047.39 670.854C1048 670.49 1048.47 669.987 1048.82 669.346C1049.18 668.687 1049.36 667.925 1049.36 667.058ZM1058.6 672.414C1058.6 672.865 1058.44 673.246 1058.13 673.558C1057.83 673.853 1057.46 674 1057.01 674C1056.58 674 1056.21 673.853 1055.92 673.558C1055.62 673.246 1055.48 672.865 1055.48 672.414V656.346C1055.48 655.895 1055.62 655.523 1055.92 655.228C1056.23 654.916 1056.61 654.76 1057.06 654.76C1057.51 654.76 1057.88 654.916 1058.15 655.228C1058.45 655.523 1058.6 655.895 1058.6 656.346V672.414ZM1073.36 654.76C1073.81 654.76 1074.18 654.907 1074.48 655.202C1074.77 655.497 1074.92 655.878 1074.92 656.346V672.414C1074.92 672.865 1074.77 673.246 1074.48 673.558C1074.18 673.853 1073.81 674 1073.36 674C1072.91 674 1072.53 673.853 1072.24 673.558C1071.94 673.246 1071.8 672.865 1071.8 672.414V671.14L1072.37 671.374C1072.37 671.599 1072.25 671.877 1072.01 672.206C1071.76 672.518 1071.43 672.83 1071.02 673.142C1070.6 673.454 1070.11 673.723 1069.54 673.948C1068.98 674.156 1068.37 674.26 1067.72 674.26C1066.52 674.26 1065.44 673.957 1064.47 673.35C1063.49 672.726 1062.72 671.877 1062.15 670.802C1061.6 669.71 1061.32 668.462 1061.32 667.058C1061.32 665.637 1061.6 664.389 1062.15 663.314C1062.72 662.222 1063.49 661.373 1064.44 660.766C1065.39 660.142 1066.45 659.83 1067.61 659.83C1068.36 659.83 1069.04 659.943 1069.67 660.168C1070.29 660.393 1070.83 660.679 1071.28 661.026C1071.75 661.373 1072.1 661.728 1072.34 662.092C1072.6 662.439 1072.73 662.733 1072.73 662.976L1071.8 663.314V656.346C1071.8 655.895 1071.94 655.523 1072.24 655.228C1072.53 654.916 1072.91 654.76 1073.36 654.76ZM1068.11 671.4C1068.87 671.4 1069.54 671.209 1070.11 670.828C1070.68 670.447 1071.12 669.927 1071.43 669.268C1071.76 668.609 1071.93 667.873 1071.93 667.058C1071.93 666.226 1071.76 665.481 1071.43 664.822C1071.12 664.163 1070.68 663.643 1070.11 663.262C1069.54 662.881 1068.87 662.69 1068.11 662.69C1067.36 662.69 1066.7 662.881 1066.13 663.262C1065.56 663.643 1065.11 664.163 1064.78 664.822C1064.47 665.481 1064.31 666.226 1064.31 667.058C1064.31 667.873 1064.47 668.609 1064.78 669.268C1065.11 669.927 1065.56 670.447 1066.13 670.828C1066.7 671.209 1067.36 671.4 1068.11 671.4ZM1086.69 655.8C1088.36 655.8 1089.6 656.19 1090.41 656.97C1091.23 657.75 1091.63 658.903 1091.63 660.428C1091.63 661.243 1091.43 661.962 1091.04 662.586C1090.64 663.193 1090.05 663.669 1089.27 664.016C1088.49 664.345 1087.53 664.51 1086.38 664.51L1086.49 663.34C1087.02 663.34 1087.64 663.418 1088.33 663.574C1089.02 663.713 1089.69 663.973 1090.33 664.354C1090.99 664.718 1091.53 665.238 1091.95 665.914C1092.38 666.573 1092.6 667.422 1092.6 668.462C1092.6 669.606 1092.4 670.542 1092.02 671.27C1091.66 671.998 1091.17 672.561 1090.57 672.96C1089.96 673.359 1089.31 673.636 1088.62 673.792C1087.92 673.931 1087.26 674 1086.62 674H1080.14C1079.69 674 1079.31 673.853 1079 673.558C1078.7 673.246 1078.56 672.865 1078.56 672.414V657.386C1078.56 656.935 1078.7 656.563 1079 656.268C1079.31 655.956 1079.69 655.8 1080.14 655.8H1086.69ZM1086.23 658.868H1081.6L1081.94 658.452V663.158L1081.62 662.924H1086.3C1086.81 662.924 1087.26 662.759 1087.66 662.43C1088.05 662.101 1088.25 661.624 1088.25 661C1088.25 660.255 1088.06 659.717 1087.68 659.388C1087.32 659.041 1086.83 658.868 1086.23 658.868ZM1086.43 665.992H1081.7L1081.94 665.784V671.27L1081.68 671.01H1086.62C1087.41 671.01 1088.05 670.802 1088.51 670.386C1088.98 669.953 1089.22 669.311 1089.22 668.462C1089.22 667.682 1089.06 667.119 1088.75 666.772C1088.44 666.425 1088.06 666.209 1087.63 666.122C1087.2 666.035 1086.8 665.992 1086.43 665.992ZM1098.64 672.414C1098.64 672.865 1098.48 673.246 1098.17 673.558C1097.87 673.853 1097.5 674 1097.05 674C1096.62 674 1096.25 673.853 1095.96 673.558C1095.66 673.246 1095.52 672.865 1095.52 672.414V656.346C1095.52 655.895 1095.66 655.523 1095.96 655.228C1096.27 654.916 1096.65 654.76 1097.1 654.76C1097.55 654.76 1097.92 654.916 1098.19 655.228C1098.49 655.523 1098.64 655.895 1098.64 656.346V672.414ZM1112.46 660.09C1112.91 660.09 1113.28 660.246 1113.58 660.558C1113.87 660.853 1114.02 661.225 1114.02 661.676V668.28C1114.02 670.117 1113.51 671.573 1112.49 672.648C1111.46 673.723 1109.99 674.26 1108.07 674.26C1106.14 674.26 1104.67 673.723 1103.65 672.648C1102.64 671.573 1102.14 670.117 1102.14 668.28V661.676C1102.14 661.225 1102.28 660.853 1102.58 660.558C1102.87 660.246 1103.25 660.09 1103.7 660.09C1104.15 660.09 1104.52 660.246 1104.82 660.558C1105.11 660.853 1105.26 661.225 1105.26 661.676V668.28C1105.26 669.337 1105.49 670.126 1105.96 670.646C1106.43 671.149 1107.13 671.4 1108.07 671.4C1109.02 671.4 1109.73 671.149 1110.2 670.646C1110.67 670.126 1110.9 669.337 1110.9 668.28V661.676C1110.9 661.225 1111.05 660.853 1111.34 660.558C1111.64 660.246 1112.01 660.09 1112.46 660.09ZM1123.95 674.26C1122.48 674.26 1121.19 673.957 1120.1 673.35C1119.03 672.726 1118.19 671.885 1117.61 670.828C1117.03 669.771 1116.75 668.575 1116.75 667.24C1116.75 665.68 1117.06 664.354 1117.68 663.262C1118.32 662.153 1119.16 661.303 1120.18 660.714C1121.2 660.125 1122.29 659.83 1123.43 659.83C1124.31 659.83 1125.15 660.012 1125.93 660.376C1126.72 660.74 1127.42 661.243 1128.03 661.884C1128.64 662.508 1129.11 663.236 1129.46 664.068C1129.83 664.9 1130.01 665.784 1130.01 666.72C1129.99 667.136 1129.83 667.474 1129.51 667.734C1129.2 667.994 1128.84 668.124 1128.42 668.124H1118.49L1117.71 665.524H1127.25L1126.68 666.044V665.342C1126.64 664.839 1126.46 664.389 1126.13 663.99C1125.82 663.591 1125.42 663.279 1124.94 663.054C1124.47 662.811 1123.97 662.69 1123.43 662.69C1122.91 662.69 1122.42 662.759 1121.97 662.898C1121.52 663.037 1121.13 663.271 1120.8 663.6C1120.47 663.929 1120.21 664.371 1120.02 664.926C1119.83 665.481 1119.74 666.183 1119.74 667.032C1119.74 667.968 1119.93 668.765 1120.31 669.424C1120.71 670.065 1121.21 670.559 1121.82 670.906C1122.44 671.235 1123.1 671.4 1123.79 671.4C1124.43 671.4 1124.95 671.348 1125.33 671.244C1125.71 671.14 1126.01 671.019 1126.24 670.88C1126.48 670.724 1126.7 670.594 1126.89 670.49C1127.2 670.334 1127.49 670.256 1127.77 670.256C1128.15 670.256 1128.46 670.386 1128.71 670.646C1128.97 670.906 1129.1 671.209 1129.1 671.556C1129.1 672.024 1128.85 672.449 1128.37 672.83C1127.92 673.211 1127.29 673.549 1126.47 673.844C1125.66 674.121 1124.82 674.26 1123.95 674.26Z" fill="white"/>
<path d="M1027.81 683.939H1029.16L1026.86 695.383H1025.52L1027.81 683.939ZM1021.68 690.828H1029.55L1029.31 692.17H1021.43L1021.68 690.828ZM1024.59 683.939H1025.94L1023.63 695.383H1022.29L1024.59 683.939ZM1022.28 687.036H1030.14L1029.88 688.394H1022.01L1022.28 687.036ZM1035.82 695.615C1034.8 695.615 1033.94 695.355 1033.26 694.836C1032.57 694.317 1032.07 693.611 1031.75 692.716C1031.43 691.822 1031.27 690.806 1031.27 689.669C1031.27 688.532 1031.43 687.516 1031.75 686.622C1032.07 685.717 1032.57 685.004 1033.26 684.486C1033.94 683.967 1034.8 683.707 1035.82 683.707C1036.85 683.707 1037.7 683.967 1038.38 684.486C1039.06 685.004 1039.56 685.717 1039.88 686.622C1040.2 687.516 1040.36 688.532 1040.36 689.669C1040.36 690.806 1040.2 691.822 1039.88 692.716C1039.56 693.611 1039.06 694.317 1038.38 694.836C1037.7 695.355 1036.85 695.615 1035.82 695.615ZM1035.82 694.074C1036.48 694.074 1037 693.881 1037.38 693.495C1037.78 693.097 1038.06 692.573 1038.23 691.922C1038.4 691.259 1038.49 690.508 1038.49 689.669C1038.49 688.355 1038.28 687.29 1037.86 686.473C1037.45 685.656 1036.77 685.247 1035.82 685.247C1035.16 685.247 1034.63 685.446 1034.23 685.844C1033.85 686.241 1033.57 686.771 1033.39 687.433C1033.22 688.085 1033.14 688.83 1033.14 689.669C1033.14 690.983 1033.35 692.048 1033.75 692.866C1034.17 693.671 1034.86 694.074 1035.82 694.074ZM1046.34 695.615C1045.31 695.615 1044.45 695.355 1043.77 694.836C1043.09 694.317 1042.58 693.611 1042.26 692.716C1041.94 691.822 1041.78 690.806 1041.78 689.669C1041.78 688.532 1041.94 687.516 1042.26 686.622C1042.58 685.717 1043.09 685.004 1043.77 684.486C1044.45 683.967 1045.31 683.707 1046.34 683.707C1047.36 683.707 1048.21 683.967 1048.89 684.486C1049.57 685.004 1050.07 685.717 1050.39 686.622C1050.71 687.516 1050.87 688.532 1050.87 689.669C1050.87 690.806 1050.71 691.822 1050.39 692.716C1050.07 693.611 1049.57 694.317 1048.89 694.836C1048.21 695.355 1047.36 695.615 1046.34 695.615ZM1046.34 694.074C1046.99 694.074 1047.51 693.881 1047.89 693.495C1048.29 693.097 1048.57 692.573 1048.74 691.922C1048.92 691.259 1049 690.508 1049 689.669C1049 688.355 1048.79 687.29 1048.37 686.473C1047.97 685.656 1047.29 685.247 1046.34 685.247C1045.67 685.247 1045.14 685.446 1044.75 685.844C1044.36 686.241 1044.08 686.771 1043.9 687.433C1043.74 688.085 1043.65 688.83 1043.65 689.669C1043.65 690.983 1043.86 692.048 1044.27 692.866C1044.69 693.671 1045.38 694.074 1046.34 694.074ZM1056.44 695.615C1055.55 695.615 1054.79 695.455 1054.15 695.134C1053.52 694.814 1053.04 694.384 1052.69 693.843C1052.35 693.291 1052.17 692.689 1052.15 692.037H1053.97C1054.03 692.623 1054.26 693.108 1054.63 693.495C1055.02 693.881 1055.59 694.074 1056.34 694.074C1056.83 694.074 1057.26 693.975 1057.61 693.776C1057.98 693.578 1058.26 693.285 1058.46 692.899C1058.65 692.512 1058.75 692.037 1058.75 691.474C1058.75 690.69 1058.56 690.105 1058.16 689.719C1057.76 689.332 1057.19 689.139 1056.45 689.139C1055.98 689.139 1055.54 689.228 1055.13 689.404C1054.73 689.57 1054.4 689.824 1054.13 690.166H1052.3L1053.52 683.939H1060.03V685.479H1054.9L1054.27 688.642V688.676C1054.58 688.355 1054.95 688.112 1055.38 687.947C1055.82 687.77 1056.34 687.682 1056.93 687.682C1057.65 687.682 1058.28 687.847 1058.84 688.179C1059.4 688.499 1059.84 688.946 1060.15 689.52C1060.45 690.094 1060.61 690.746 1060.61 691.474C1060.61 692.302 1060.43 693.031 1060.06 693.66C1059.71 694.29 1059.21 694.776 1058.57 695.118C1057.93 695.449 1057.22 695.615 1056.44 695.615ZM1065.52 683.542H1067.49L1071.93 695.383H1069.94L1068.96 692.534H1064.01L1063.03 695.383H1061.11L1065.52 683.542ZM1068.45 690.994L1066.51 685.231H1066.48L1064.56 690.994H1068.45ZM1073.15 683.542H1081.53V685.115H1074.97V688.477H1080.72V690.05H1074.97V693.81H1081.7V695.383H1073.15V683.542ZM1087.38 695.615C1086.36 695.615 1085.5 695.355 1084.82 694.836C1084.13 694.317 1083.63 693.611 1083.31 692.716C1082.99 691.822 1082.83 690.806 1082.83 689.669C1082.83 688.532 1082.99 687.516 1083.31 686.622C1083.63 685.717 1084.13 685.004 1084.82 684.486C1085.5 683.967 1086.36 683.707 1087.38 683.707C1088.41 683.707 1089.26 683.967 1089.93 684.486C1090.62 685.004 1091.12 685.717 1091.44 686.622C1091.76 687.516 1091.92 688.532 1091.92 689.669C1091.92 690.806 1091.76 691.822 1091.44 692.716C1091.12 693.611 1090.62 694.317 1089.93 694.836C1089.26 695.355 1088.41 695.615 1087.38 695.615ZM1087.38 694.074C1088.04 694.074 1088.55 693.881 1088.94 693.495C1089.34 693.097 1089.62 692.573 1089.79 691.922C1089.96 691.259 1090.05 690.508 1090.05 689.669C1090.05 688.355 1089.84 687.29 1089.42 686.473C1089.01 685.656 1088.33 685.247 1087.38 685.247C1086.72 685.247 1086.19 685.446 1085.79 685.844C1085.41 686.241 1085.13 686.771 1084.95 687.433C1084.78 688.085 1084.7 688.83 1084.7 689.669C1084.7 690.983 1084.91 692.048 1085.31 692.866C1085.73 693.671 1086.42 694.074 1087.38 694.074Z" fill="white"/>
<rect width="1300" height="70" transform="translate(0 730)" fill="white"/>
<path opacity="0.15" d="M0 730H1300" stroke="#A0A3BD" stroke-width="2" stroke-linecap="round"/>
<path d="M87.2714 772.646C86.3327 772.646 85.554 772.395 84.9354 771.893C84.3167 771.381 83.858 770.699 83.5594 769.845C83.2607 768.981 83.1114 768.005 83.1114 766.917C83.1114 765.829 83.2607 764.853 83.5594 763.99C83.858 763.125 84.3167 762.443 84.9354 761.941C85.554 761.429 86.3327 761.173 87.2714 761.173C88.2207 761.173 89.0047 761.429 89.6234 761.941C90.242 762.443 90.7007 763.125 90.9994 763.99C91.298 764.853 91.4474 765.829 91.4474 766.917C91.4474 768.005 91.298 768.981 90.9994 769.845C90.7007 770.699 90.242 771.381 89.6234 771.893C89.0047 772.395 88.2207 772.646 87.2714 772.646ZM87.2714 771.621C87.9754 771.621 88.546 771.413 88.9834 770.997C89.4207 770.571 89.7354 770.011 89.9274 769.317C90.13 768.613 90.2314 767.813 90.2314 766.917C90.2314 765.531 89.9914 764.4 89.5114 763.525C89.042 762.64 88.2954 762.197 87.2714 762.197C86.578 762.197 86.0127 762.411 85.5754 762.837C85.138 763.264 84.818 763.829 84.6154 764.533C84.4234 765.227 84.3274 766.021 84.3274 766.917C84.3274 768.304 84.562 769.435 85.0314 770.309C85.5007 771.184 86.2474 771.621 87.2714 771.621ZM92.6835 772.438C92.6835 771.765 92.8115 771.147 93.0675 770.581C93.3342 770.005 93.7075 769.488 94.1875 769.029C94.6782 768.56 95.2648 768.133 95.9475 767.749C96.0968 767.664 96.2355 767.579 96.3635 767.493C97.0782 767.109 97.6062 766.795 97.9475 766.549C98.2995 766.304 98.5715 766.016 98.7635 765.685C98.9662 765.344 99.0675 764.928 99.0675 764.438C99.0675 764.032 98.9928 763.664 98.8435 763.333C98.7048 763.003 98.4702 762.731 98.1395 762.517C97.8088 762.304 97.3768 762.197 96.8435 762.197C96.2248 762.197 95.7182 762.325 95.3235 762.581C94.9395 762.837 94.6568 763.184 94.4755 763.622C94.2942 764.059 94.2035 764.555 94.2035 765.109H93.0035C93.0035 764.373 93.1475 763.712 93.4355 763.125C93.7235 762.528 94.1555 762.053 94.7315 761.701C95.3075 761.349 96.0168 761.173 96.8595 761.173C97.4995 761.173 98.0755 761.301 98.5875 761.557C99.1102 761.813 99.5208 762.187 99.8195 762.677C100.129 763.168 100.284 763.749 100.284 764.421C100.284 765.051 100.14 765.605 99.8515 766.085C99.5635 766.555 99.2062 766.949 98.7795 767.269C98.3635 767.589 97.8195 767.941 97.1475 768.326L97.0195 768.389L96.8275 768.501C96.2728 768.811 95.8195 769.088 95.4675 769.333C95.1155 769.579 94.8062 769.872 94.5395 770.213C94.2835 770.555 94.1288 770.944 94.0755 771.382V771.413H100.172V772.438H92.6835ZM101.753 771.093H103.097V772.438H101.753V771.093ZM112.793 772.646C111.694 772.646 110.755 772.395 109.977 771.893C109.209 771.381 108.622 770.683 108.217 769.797C107.822 768.901 107.625 767.877 107.625 766.725C107.625 765.595 107.843 764.581 108.281 763.685C108.718 762.779 109.337 762.069 110.137 761.557C110.947 761.045 111.881 760.789 112.937 760.789C113.833 760.789 114.606 760.939 115.257 761.237C115.918 761.525 116.446 761.941 116.841 762.485C117.235 763.029 117.502 763.664 117.641 764.389H116.441C116.27 763.568 115.875 762.933 115.257 762.485C114.638 762.037 113.865 761.813 112.937 761.813C112.03 761.813 111.267 762.048 110.649 762.517C110.041 762.987 109.587 763.595 109.289 764.341C108.99 765.088 108.841 765.883 108.841 766.725C108.841 767.6 108.969 768.405 109.225 769.141C109.491 769.877 109.918 770.475 110.505 770.933C111.091 771.392 111.854 771.621 112.793 771.621C113.529 771.621 114.19 771.456 114.777 771.125C115.363 770.784 115.822 770.309 116.153 769.701C116.494 769.083 116.665 768.384 116.665 767.605H112.873V766.565H117.833V772.438H117.033L116.681 770.405H116.649C116.275 771.109 115.774 771.659 115.145 772.053C114.515 772.448 113.731 772.646 112.793 772.646ZM119.905 765.941H120.673C120.897 765.365 121.201 764.912 121.585 764.581C121.969 764.251 122.438 764.085 122.993 764.085C123.259 764.085 123.494 764.101 123.697 764.133V765.157C123.526 765.125 123.361 765.109 123.201 765.109C122.721 765.109 122.283 765.232 121.889 765.477C121.494 765.712 121.185 766.043 120.961 766.469C120.747 766.885 120.641 767.355 120.641 767.877L119.905 765.941ZM119.601 764.277H120.641V772.438H119.601V764.277ZM126.7 772.646C125.889 772.646 125.239 772.438 124.748 772.021C124.268 771.605 124.028 771.056 124.028 770.373C124.028 769.808 124.156 769.349 124.412 768.997C124.668 768.645 125.031 768.373 125.5 768.181C125.98 767.989 126.609 767.824 127.388 767.685C127.516 767.664 127.665 767.643 127.836 767.621C128.263 767.536 128.593 767.456 128.828 767.381C129.063 767.296 129.249 767.179 129.388 767.029C129.527 766.869 129.596 766.651 129.596 766.373C129.596 765.936 129.441 765.595 129.132 765.349C128.833 765.104 128.369 764.981 127.74 764.981C127.217 764.981 126.796 765.045 126.476 765.173C126.156 765.291 125.921 765.477 125.772 765.733C125.633 765.989 125.548 766.325 125.516 766.741H124.412C124.455 765.952 124.748 765.312 125.292 764.821C125.836 764.32 126.663 764.069 127.772 764.069C128.615 764.069 129.297 764.277 129.82 764.693C130.343 765.099 130.604 765.755 130.604 766.661V770.741C130.604 771.083 130.636 771.328 130.7 771.477C130.775 771.627 130.897 771.701 131.068 771.701C131.121 771.701 131.196 771.696 131.292 771.685V772.438C131.079 772.48 130.897 772.502 130.748 772.502C130.385 772.502 130.108 772.411 129.916 772.229C129.735 772.037 129.628 771.696 129.596 771.205H129.564C129.276 771.675 128.892 772.032 128.412 772.277C127.932 772.523 127.361 772.646 126.7 772.646ZM126.828 771.733C127.383 771.733 127.868 771.643 128.284 771.461C128.7 771.269 129.02 770.997 129.244 770.645C129.479 770.283 129.596 769.861 129.596 769.381V767.861C129.489 768.011 129.255 768.139 128.892 768.245C128.54 768.352 128.081 768.453 127.516 768.549C126.951 768.645 126.497 768.763 126.156 768.901C125.815 769.04 125.553 769.221 125.372 769.445C125.201 769.669 125.116 769.947 125.116 770.277C125.116 770.757 125.255 771.12 125.532 771.365C125.809 771.611 126.241 771.733 126.828 771.733ZM136.503 772.63C135.841 772.63 135.281 772.491 134.823 772.213C134.375 771.925 134.017 771.541 133.751 771.061H133.351V765.605H133.751C134.017 765.147 134.38 764.779 134.839 764.501C135.297 764.213 135.852 764.069 136.503 764.069C137.175 764.069 137.783 764.245 138.327 764.597C138.871 764.939 139.303 765.435 139.623 766.085C139.943 766.725 140.103 767.483 140.103 768.357C140.103 769.221 139.943 769.979 139.623 770.629C139.303 771.269 138.871 771.765 138.327 772.117C137.783 772.459 137.175 772.63 136.503 772.63ZM132.679 764.277H133.719V775.27H132.679V764.277ZM136.391 771.717C136.935 771.717 137.404 771.568 137.799 771.269C138.193 770.971 138.492 770.565 138.695 770.053C138.908 769.541 139.015 768.976 139.015 768.357C139.015 767.728 138.908 767.157 138.695 766.645C138.492 766.133 138.193 765.728 137.799 765.429C137.404 765.131 136.935 764.981 136.391 764.981C135.868 764.981 135.404 765.12 134.999 765.397C134.593 765.664 134.279 766.053 134.055 766.565C133.831 767.077 133.719 767.675 133.719 768.357C133.719 769.029 133.831 769.621 134.055 770.133C134.279 770.645 134.593 771.04 134.999 771.317C135.404 771.584 135.868 771.717 136.391 771.717ZM147.089 766.933C147.089 766.368 146.94 765.904 146.641 765.541C146.342 765.179 145.862 764.997 145.201 764.997C144.7 764.997 144.252 765.104 143.857 765.317C143.473 765.52 143.169 765.803 142.945 766.165C142.732 766.517 142.625 766.891 142.625 767.285H142.161V765.445H142.657C142.924 765.051 143.286 764.725 143.745 764.469C144.214 764.213 144.785 764.085 145.457 764.085C146.236 764.085 146.87 764.309 147.361 764.757C147.862 765.205 148.113 765.856 148.113 766.709V772.438H147.089V766.933ZM141.585 760.997H142.625V772.438H141.585V760.997ZM149.976 764.277H151.016V772.438H149.976V764.277ZM149.816 761.301H151.16V762.645H149.816V761.301ZM156.385 772.646C155.617 772.646 154.934 772.469 154.337 772.117C153.75 771.755 153.291 771.248 152.961 770.597C152.641 769.947 152.481 769.2 152.481 768.357C152.481 767.525 152.641 766.784 152.961 766.133C153.291 765.483 153.75 764.981 154.337 764.629C154.934 764.267 155.617 764.085 156.385 764.085C157.035 764.085 157.611 764.219 158.113 764.485C158.625 764.752 159.03 765.12 159.329 765.589C159.638 766.048 159.825 766.565 159.889 767.141H158.801C158.779 766.8 158.678 766.464 158.497 766.133C158.326 765.803 158.065 765.531 157.713 765.317C157.361 765.104 156.918 764.997 156.385 764.997C155.755 764.997 155.227 765.157 154.801 765.477C154.385 765.787 154.075 766.197 153.873 766.709C153.67 767.221 153.569 767.771 153.569 768.357C153.569 768.955 153.67 769.509 153.873 770.021C154.075 770.533 154.385 770.949 154.801 771.269C155.227 771.589 155.755 771.749 156.385 771.749C156.918 771.749 157.361 771.637 157.713 771.413C158.075 771.189 158.342 770.912 158.513 770.581C158.683 770.251 158.779 769.899 158.801 769.525H159.889C159.857 770.112 159.686 770.645 159.377 771.125C159.067 771.595 158.651 771.968 158.129 772.245C157.617 772.512 157.035 772.646 156.385 772.646ZM165.029 760.997H172.789V762.021H166.197V765.957H172.085V766.981H166.197V771.413H172.965V772.438H165.029V760.997ZM174.351 760.997H175.391V772.438H174.351V760.997ZM180.775 772.662C179.965 772.662 179.266 772.48 178.679 772.117C178.093 771.744 177.645 771.232 177.335 770.581C177.037 769.931 176.887 769.189 176.887 768.357C176.887 767.504 177.047 766.752 177.367 766.101C177.687 765.451 178.141 764.949 178.727 764.597C179.314 764.245 179.997 764.069 180.775 764.069C181.543 764.069 182.205 764.24 182.759 764.581C183.314 764.912 183.735 765.371 184.023 765.957C184.311 766.544 184.455 767.221 184.455 767.989C184.455 768.288 184.45 768.48 184.439 768.565H177.399V767.653H183.351C183.351 767.163 183.245 766.715 183.031 766.309C182.829 765.893 182.53 765.568 182.135 765.333C181.741 765.088 181.271 764.965 180.727 764.965C180.194 764.965 179.714 765.093 179.287 765.349C178.871 765.605 178.546 765.952 178.311 766.389C178.087 766.816 177.975 767.296 177.975 767.829C177.975 768.064 177.975 768.299 177.975 768.533C177.975 769.109 178.077 769.643 178.279 770.133C178.493 770.624 178.807 771.019 179.223 771.317C179.65 771.616 180.173 771.765 180.791 771.765C181.303 771.765 181.735 771.669 182.087 771.477C182.45 771.275 182.722 771.04 182.903 770.773C183.085 770.496 183.213 770.219 183.287 769.941H184.343C184.13 770.752 183.725 771.408 183.127 771.91C182.53 772.411 181.746 772.662 180.775 772.662ZM190.841 766.933C190.841 766.336 190.729 765.867 190.505 765.525C190.281 765.173 189.86 764.997 189.241 764.997C188.782 764.997 188.377 765.104 188.025 765.317C187.684 765.531 187.417 765.813 187.225 766.165C187.044 766.517 186.953 766.891 186.953 767.285H186.553V765.429H186.985C187.241 765.045 187.572 764.725 187.977 764.469C188.382 764.213 188.878 764.085 189.465 764.085C190.041 764.085 190.51 764.213 190.873 764.469C191.236 764.725 191.497 765.099 191.657 765.589H191.689C191.977 765.141 192.345 764.779 192.793 764.501C193.252 764.224 193.78 764.085 194.377 764.085C195.166 764.085 195.764 764.315 196.169 764.773C196.585 765.221 196.793 765.867 196.793 766.709V772.438H195.753V766.933C195.753 766.336 195.641 765.867 195.417 765.525C195.204 765.173 194.788 764.997 194.169 764.997C193.71 764.997 193.305 765.104 192.953 765.317C192.612 765.531 192.345 765.813 192.153 766.165C191.972 766.517 191.881 766.891 191.881 767.285V772.438H190.841V766.933ZM185.913 764.277H186.953V772.438H185.913V764.277ZM202.104 772.662C201.293 772.662 200.594 772.48 200.008 772.117C199.421 771.744 198.973 771.232 198.664 770.581C198.365 769.931 198.215 769.189 198.215 768.357C198.215 767.504 198.376 766.752 198.696 766.101C199.016 765.451 199.469 764.949 200.056 764.597C200.642 764.245 201.325 764.069 202.104 764.069C202.872 764.069 203.533 764.24 204.088 764.581C204.642 764.912 205.064 765.371 205.352 765.957C205.64 766.544 205.784 767.221 205.784 767.989C205.784 768.288 205.778 768.48 205.767 768.565H198.728V767.653H204.68C204.68 767.163 204.573 766.715 204.36 766.309C204.157 765.893 203.858 765.568 203.464 765.333C203.069 765.088 202.6 764.965 202.056 764.965C201.522 764.965 201.042 765.093 200.616 765.349C200.2 765.605 199.874 765.952 199.64 766.389C199.416 766.816 199.304 767.296 199.304 767.829C199.304 768.064 199.304 768.299 199.304 768.533C199.304 769.109 199.405 769.643 199.608 770.133C199.821 770.624 200.136 771.019 200.552 771.317C200.978 771.616 201.501 771.765 202.12 771.765C202.632 771.765 203.064 771.669 203.416 771.477C203.778 771.275 204.05 771.04 204.232 770.773C204.413 770.496 204.541 770.219 204.616 769.941H205.672C205.458 770.752 205.053 771.408 204.456 771.91C203.858 772.411 203.074 772.662 202.104 772.662ZM212.745 766.933C212.745 766.368 212.596 765.904 212.297 765.541C211.999 765.179 211.519 764.997 210.857 764.997C210.356 764.997 209.908 765.104 209.513 765.317C209.129 765.52 208.825 765.803 208.601 766.165C208.388 766.517 208.281 766.891 208.281 767.285H207.817V765.445H208.313C208.58 765.051 208.943 764.725 209.401 764.469C209.871 764.213 210.441 764.085 211.113 764.085C211.892 764.085 212.527 764.309 213.017 764.757C213.519 765.205 213.769 765.856 213.769 766.709V772.438H212.745V766.933ZM207.241 764.277H208.281V772.438H207.241V764.277ZM217.922 772.502C217.495 772.502 217.143 772.443 216.866 772.325C216.588 772.197 216.37 771.979 216.21 771.669C216.06 771.349 215.986 770.901 215.986 770.326V761.557H217.026V770.341C217.026 770.693 217.058 770.955 217.122 771.125C217.186 771.296 217.287 771.419 217.426 771.493C217.575 771.557 217.788 771.589 218.066 771.589C218.226 771.589 218.434 771.579 218.69 771.557V772.438C218.412 772.48 218.156 772.502 217.922 772.502ZM214.786 764.277H218.69V765.189H214.786V764.277ZM223.046 772.646C222.299 772.646 221.659 772.523 221.126 772.277C220.593 772.032 220.187 771.691 219.91 771.253C219.633 770.816 219.483 770.32 219.462 769.765H220.55C220.571 770.149 220.673 770.491 220.854 770.789C221.035 771.088 221.307 771.323 221.67 771.493C222.043 771.653 222.507 771.733 223.062 771.733C223.787 771.733 224.315 771.595 224.646 771.317C224.977 771.029 225.142 770.667 225.142 770.229C225.142 769.888 225.051 769.621 224.87 769.429C224.699 769.237 224.486 769.093 224.23 768.997C223.974 768.901 223.622 768.8 223.174 768.693C223.046 768.661 222.918 768.635 222.79 768.613C222.726 768.592 222.651 768.571 222.566 768.549C221.969 768.4 221.478 768.251 221.094 768.101C220.71 767.941 220.39 767.717 220.134 767.429C219.889 767.131 219.766 766.747 219.766 766.277C219.766 765.829 219.878 765.44 220.102 765.109C220.326 764.779 220.657 764.528 221.094 764.358C221.531 764.176 222.054 764.085 222.662 764.085C223.345 764.085 223.921 764.197 224.39 764.421C224.859 764.635 225.217 764.928 225.462 765.301C225.718 765.675 225.873 766.096 225.926 766.565H224.838C224.742 766.107 224.534 765.733 224.214 765.445C223.905 765.147 223.387 764.997 222.662 764.997C222.086 764.997 221.638 765.104 221.318 765.317C221.009 765.531 220.854 765.829 220.854 766.213C220.854 766.501 220.939 766.736 221.11 766.917C221.281 767.088 221.494 767.221 221.75 767.317C222.017 767.403 222.385 767.499 222.854 767.605C222.939 767.616 223.051 767.643 223.19 767.685C223.841 767.845 224.374 768.011 224.79 768.181C225.206 768.341 225.553 768.581 225.83 768.901C226.107 769.221 226.246 769.648 226.246 770.181C226.246 770.683 226.118 771.12 225.862 771.493C225.606 771.856 225.238 772.139 224.758 772.341C224.278 772.544 223.707 772.646 223.046 772.646Z" fill="#211F54"/>
<path d="M1206.46 771.523H1201.06V770.499L1206.46 763.155H1207.62V770.499H1209.18V771.523H1207.62V774.211H1206.46V771.523ZM1206.46 770.499V764.803L1202.26 770.499H1206.46ZM1214.47 774.419C1213.59 774.419 1212.82 774.264 1212.18 773.955C1211.54 773.646 1211.05 773.198 1210.71 772.611C1210.38 772.024 1210.22 771.326 1210.22 770.515H1211.43C1211.43 771.102 1211.53 771.608 1211.74 772.035C1211.94 772.462 1212.26 772.798 1212.7 773.043C1213.14 773.278 1213.71 773.395 1214.39 773.395C1215.01 773.395 1215.52 773.31 1215.91 773.139C1216.32 772.958 1216.61 772.702 1216.79 772.371C1216.98 772.03 1217.08 771.624 1217.08 771.155C1217.08 770.622 1216.96 770.195 1216.73 769.875C1216.49 769.544 1216.2 769.31 1215.83 769.171C1215.47 769.022 1215.08 768.947 1214.66 768.947H1213.48V767.923H1214.6C1215.02 767.923 1215.38 767.848 1215.69 767.699C1216 767.55 1216.24 767.326 1216.41 767.027C1216.58 766.728 1216.66 766.366 1216.66 765.939C1216.66 765.587 1216.58 765.267 1216.42 764.979C1216.28 764.68 1216.04 764.44 1215.7 764.259C1215.37 764.067 1214.96 763.971 1214.46 763.971C1213.44 763.971 1212.73 764.206 1212.33 764.675C1211.93 765.134 1211.74 765.715 1211.74 766.419H1210.52C1210.52 765.736 1210.67 765.139 1210.97 764.627C1211.27 764.104 1211.71 763.694 1212.3 763.395C1212.88 763.096 1213.6 762.947 1214.46 762.947C1215.06 762.947 1215.63 763.064 1216.15 763.299C1216.68 763.534 1217.09 763.88 1217.4 764.339C1217.72 764.787 1217.88 765.32 1217.88 765.939C1217.88 766.536 1217.74 767.032 1217.45 767.427C1217.16 767.822 1216.73 768.136 1216.15 768.371V768.403C1216.88 768.616 1217.42 768.963 1217.77 769.443C1218.12 769.912 1218.3 770.483 1218.3 771.155C1218.3 771.838 1218.14 772.424 1217.82 772.915C1217.51 773.406 1217.06 773.779 1216.49 774.035C1215.91 774.291 1215.24 774.419 1214.47 774.419Z" fill="#211F54"/>
<path fill-rule="evenodd" clip-rule="evenodd" d="M660.784 777.578C661.224 777.123 661.472 776.516 661.476 775.884V768.076C661.47 767.238 661.645 766.409 661.989 765.645C662.319 764.907 662.78 764.235 663.351 763.662C663.922 763.093 664.597 762.639 665.338 762.323C666.108 761.997 666.936 761.831 667.773 761.833H667.819C668.146 761.835 668.472 761.775 668.777 761.656C669.074 761.533 669.346 761.359 669.583 761.142C669.819 760.923 670.008 760.659 670.14 760.366C670.275 760.065 670.344 759.739 670.34 759.409C670.352 759.092 670.299 758.776 670.183 758.481C670.068 758.185 669.893 757.917 669.67 757.691C669.239 757.23 668.622 757 667.819 757H667.773C666.289 756.993 664.821 757.296 663.463 757.892C662.138 758.451 660.933 759.258 659.913 760.27C658.894 761.293 658.077 762.498 657.504 763.823C656.921 765.19 656.623 766.662 656.631 768.148V775.88C656.628 776.209 656.696 776.536 656.832 776.837C656.964 777.117 657.149 777.368 657.378 777.578C657.608 777.79 657.872 777.963 658.159 778.09C658.473 778.21 658.806 778.27 659.142 778.269C659.456 778.272 659.767 778.211 660.057 778.09C660.327 777.962 660.572 777.789 660.784 777.578ZM607.85 763.54C607.279 764.84 606.99 766.245 607 767.664C606.991 769.082 607.278 770.487 607.843 771.788C608.942 774.335 610.972 776.368 613.52 777.473C614.827 778.025 616.234 778.305 617.653 778.297C618.715 778.307 619.769 778.123 620.764 777.754C621.756 777.383 622.689 776.869 623.533 776.229C623.542 776.524 623.617 776.815 623.751 777.079C623.897 777.35 624.093 777.592 624.33 777.789C624.741 778.135 625.266 778.318 625.804 778.302C626.134 778.305 626.461 778.236 626.762 778.101C627.063 777.976 627.336 777.795 627.568 777.567C628.018 777.097 628.274 776.474 628.282 775.823V767.664C628.292 766.245 628.003 764.84 627.432 763.54C626.9 762.273 626.127 761.122 625.155 760.15C624.193 759.176 623.047 758.402 621.784 757.872C620.482 757.304 619.074 757.017 617.653 757.029C616.232 757.02 614.824 757.307 613.52 757.872C612.26 758.409 611.116 759.182 610.149 760.15C609.175 761.125 608.395 762.275 607.85 763.54ZM612.282 769.916C611.988 769.202 611.84 768.436 611.845 767.664C611.84 766.891 611.992 766.125 612.293 765.412C612.879 764.017 613.995 762.91 615.398 762.337C616.108 762.024 616.877 761.864 617.653 761.868C618.43 761.862 619.199 762.021 619.908 762.337C620.601 762.618 621.23 763.035 621.76 763.562C622.835 764.656 623.434 766.131 623.426 767.664C623.432 768.436 623.283 769.202 622.989 769.916C622.414 771.313 621.309 772.427 619.915 773.015C618.47 773.608 616.849 773.608 615.404 773.015C614.717 772.711 614.09 772.288 613.55 771.766C613.021 771.23 612.591 770.603 612.282 769.916ZM672.576 763.54C672.007 764.84 671.718 766.245 671.729 767.664C671.722 769.086 672.014 770.494 672.585 771.797C673.685 774.343 675.715 776.376 678.262 777.482C679.569 778.034 680.974 778.314 682.393 778.306C683.453 778.311 684.505 778.122 685.498 777.75C686.489 777.378 687.422 776.864 688.266 776.224C688.276 776.52 688.351 776.81 688.484 777.074C688.631 777.346 688.827 777.587 689.063 777.785C689.474 778.131 689.999 778.314 690.537 778.297C690.868 778.301 691.196 778.232 691.498 778.097C691.791 777.972 692.059 777.792 692.286 777.567C692.736 777.097 692.992 776.474 693 775.823V767.664C693.011 766.245 692.722 764.84 692.153 763.54C691.622 762.273 690.852 761.121 689.884 760.146C688.921 759.173 687.774 758.401 686.511 757.872C685.208 757.304 683.801 757.017 682.38 757.029C680.959 757.02 679.552 757.307 678.249 757.872C676.989 758.409 675.845 759.182 674.878 760.15C673.903 761.125 673.122 762.275 672.576 763.54ZM677.011 769.916C676.717 769.202 676.568 768.436 676.574 767.664C676.565 766.892 676.714 766.126 677.011 765.412C677.597 764.017 678.713 762.91 680.116 762.337C680.826 762.024 681.595 761.865 682.371 761.868C683.148 761.861 683.917 762.021 684.626 762.337C685.683 762.768 686.584 763.506 687.214 764.457C687.843 765.407 688.171 766.525 688.155 767.664C688.158 768.437 688.006 769.203 687.707 769.916C687.417 770.604 687.001 771.231 686.48 771.766C685.945 772.294 685.317 772.718 684.626 773.015C683.181 773.608 681.56 773.608 680.116 773.015C679.429 772.71 678.802 772.287 678.262 771.766C677.74 771.227 677.317 770.601 677.011 769.916ZM637.275 768.021C637.27 768.753 637.406 769.479 637.677 770.16C637.949 770.797 638.335 771.379 638.817 771.877C639.322 772.385 639.924 772.787 640.587 773.059C641.251 773.331 641.962 773.467 642.679 773.46C643.394 773.472 644.103 773.328 644.755 773.037C645.348 772.755 645.874 772.353 646.301 771.856C646.741 771.338 647.074 770.74 647.284 770.094C647.525 769.407 647.647 768.682 647.642 767.954V759.437C647.64 759.114 647.709 758.794 647.843 758.5C647.968 758.214 648.15 757.957 648.378 757.743C648.611 757.523 648.883 757.348 649.181 757.229C649.476 757.096 649.796 757.028 650.12 757.028C650.436 757.026 650.749 757.095 651.035 757.229C651.323 757.342 651.583 757.518 651.795 757.743C652.02 757.954 652.196 758.212 652.308 758.5C652.427 758.798 652.488 759.116 652.487 759.437V767.886C652.495 769.265 652.245 770.634 651.749 771.921C651.297 773.146 650.615 774.273 649.74 775.243C648.866 776.188 647.81 776.946 646.635 777.473C645.393 778.03 644.045 778.311 642.683 778.297C641.301 778.307 639.931 778.032 638.659 777.49C636.212 776.415 634.271 774.445 633.234 771.984C632.695 770.723 632.421 769.364 632.43 767.993V759.437C632.429 759.116 632.489 758.798 632.607 758.5C632.731 758.218 632.906 757.962 633.122 757.743C633.339 757.524 633.596 757.349 633.88 757.229C634.182 757.095 634.51 757.026 634.841 757.028C635.164 757.028 635.484 757.096 635.78 757.229C636.072 757.346 636.338 757.521 636.561 757.743C636.786 757.955 636.961 758.213 637.074 758.5C637.207 758.794 637.276 759.114 637.275 759.437V768.021Z" fill="url(#paint0_linear_1962_16138)"/>
</g>
<defs>
<linearGradient id="paint0_linear_1962_16138" x1="607" y1="757" x2="692.836" y2="778.946" gradientUnits="userSpaceOnUse">
<stop stop-color="#F2906F"/>
<stop offset="0.299721" stop-color="#E75C76"/>
<stop offset="0.648425" stop-color="#AA69D9"/>
<stop offset="1" stop-color="#2F70E0"/>
</linearGradient>
<clipPath id="clip0_1962_16138">
<rect width="1300" height="800" rx="40" fill="white"/>
</clipPath>
</defs>
</svg>
