<svg width="1300" height="800" viewBox="0 0 1300 800" fill="none" xmlns="http://www.w3.org/2000/svg">
<g clip-path="url(#clip0_1966_26885)">
<rect width="1300" height="800" rx="40" fill="white"/>
<path d="M83.124 97.54H87.964V124.82H103.892V129H83.124V97.54ZM115.913 129.66C113.625 129.66 111.63 129.161 109.929 128.164C108.257 127.167 106.966 125.773 106.057 123.984C105.148 122.165 104.693 120.097 104.693 117.78C104.693 115.463 105.148 113.395 106.057 111.576C106.966 109.757 108.257 108.349 109.929 107.352C111.63 106.355 113.64 105.856 115.957 105.856C118.245 105.856 120.225 106.355 121.897 107.352C123.569 108.349 124.86 109.757 125.769 111.576C126.678 113.365 127.133 115.419 127.133 117.736C127.133 120.083 126.678 122.165 125.769 123.984C124.86 125.773 123.554 127.167 121.853 128.164C120.181 129.161 118.201 129.66 115.913 129.66ZM115.957 126.096C117.424 126.096 118.656 125.744 119.653 125.04C120.68 124.307 121.428 123.309 121.897 122.048C122.396 120.787 122.645 119.349 122.645 117.736C122.645 115.301 122.073 113.321 120.929 111.796C119.785 110.241 118.128 109.464 115.957 109.464C114.461 109.464 113.2 109.816 112.173 110.52C111.176 111.224 110.428 112.207 109.929 113.468C109.43 114.729 109.181 116.167 109.181 117.78C109.181 120.244 109.753 122.253 110.897 123.808C112.041 125.333 113.728 126.096 115.957 126.096ZM140.439 137.052C138.385 137.052 136.625 136.744 135.159 136.128C133.692 135.512 132.563 134.661 131.771 133.576C130.979 132.52 130.509 131.303 130.363 129.924H134.851C135.085 131.039 135.643 131.919 136.523 132.564C137.432 133.209 138.737 133.532 140.439 133.532C142.521 133.532 144.076 133.048 145.103 132.08C146.129 131.112 146.643 129.587 146.643 127.504V106.56H150.955V127.24C150.955 130.525 150.031 132.975 148.183 134.588C146.364 136.231 143.783 137.052 140.439 137.052ZM139.647 127.856C137.74 127.856 136.039 127.445 134.543 126.624C133.047 125.773 131.873 124.527 131.023 122.884C130.172 121.212 129.747 119.217 129.747 116.9C129.747 114.553 130.172 112.559 131.023 110.916C131.873 109.273 133.047 108.027 134.543 107.176C136.039 106.325 137.74 105.9 139.647 105.9C141.289 105.9 142.668 106.223 143.783 106.868C144.897 107.484 145.821 108.261 146.555 109.2H146.951V124.468H146.555C145.851 125.495 144.941 126.316 143.827 126.932C142.712 127.548 141.319 127.856 139.647 127.856ZM140.439 124.292C141.729 124.292 142.829 124.013 143.739 123.456C144.677 122.899 145.381 122.077 145.851 120.992C146.349 119.877 146.599 118.513 146.599 116.9C146.599 115.287 146.349 113.923 145.851 112.808C145.381 111.693 144.677 110.872 143.739 110.344C142.829 109.787 141.729 109.508 140.439 109.508C139.06 109.508 137.901 109.831 136.963 110.476C136.053 111.092 135.364 111.957 134.895 113.072C134.455 114.187 134.235 115.463 134.235 116.9C134.235 119.1 134.763 120.889 135.819 122.268C136.875 123.617 138.415 124.292 140.439 124.292ZM165.8 129.66C163.512 129.66 161.517 129.161 159.816 128.164C158.144 127.167 156.853 125.773 155.944 123.984C155.034 122.165 154.58 120.097 154.58 117.78C154.58 115.463 155.034 113.395 155.944 111.576C156.853 109.757 158.144 108.349 159.816 107.352C161.517 106.355 163.526 105.856 165.844 105.856C168.132 105.856 170.112 106.355 171.784 107.352C173.456 108.349 174.746 109.757 175.656 111.576C176.565 113.365 177.02 115.419 177.02 117.736C177.02 120.083 176.565 122.165 175.656 123.984C174.746 125.773 173.441 127.167 171.74 128.164C170.068 129.161 168.088 129.66 165.8 129.66ZM165.844 126.096C167.31 126.096 168.542 125.744 169.54 125.04C170.566 124.307 171.314 123.309 171.784 122.048C172.282 120.787 172.532 119.349 172.532 117.736C172.532 115.301 171.96 113.321 170.816 111.796C169.672 110.241 168.014 109.464 165.844 109.464C164.348 109.464 163.086 109.816 162.06 110.52C161.062 111.224 160.314 112.207 159.816 113.468C159.317 114.729 159.068 116.167 159.068 117.78C159.068 120.244 159.64 122.253 160.784 123.808C161.928 125.333 163.614 126.096 165.844 126.096ZM187.652 129.264C186.332 129.264 185.247 129.073 184.396 128.692C183.545 128.281 182.885 127.607 182.416 126.668C181.947 125.7 181.712 124.365 181.712 122.664V99.344H186.024V122.796C186.024 123.588 186.097 124.189 186.244 124.6C186.42 125.011 186.684 125.304 187.036 125.48C187.388 125.627 187.887 125.7 188.532 125.7C189.031 125.7 189.647 125.641 190.38 125.524V129C189.412 129.176 188.503 129.264 187.652 129.264ZM178.456 106.56H190.336V110.124H178.456V106.56ZM196.828 136.876C195.977 136.876 195.053 136.773 194.056 136.568V133.048C194.819 133.136 195.435 133.18 195.904 133.18C196.579 133.18 197.195 133.048 197.752 132.784C198.339 132.52 198.881 132.065 199.38 131.42C199.879 130.775 200.26 129.895 200.524 128.78L191.46 106.56H196.168L202.724 123.72H202.812L208.972 106.56H213.504L204.616 129.528C203.912 131.376 203.179 132.828 202.416 133.884C201.683 134.94 200.861 135.703 199.952 136.172C199.043 136.641 198.001 136.876 196.828 136.876ZM227.447 129.616C225.833 129.616 224.44 129.308 223.267 128.692C222.123 128.076 221.213 127.255 220.539 126.228H219.395V109.2H220.539C221.243 108.261 222.167 107.484 223.311 106.868C224.484 106.223 225.863 105.9 227.447 105.9C229.353 105.9 231.069 106.384 232.595 107.352C234.12 108.291 235.323 109.669 236.203 111.488C237.083 113.277 237.523 115.375 237.523 117.78C237.523 120.185 237.083 122.283 236.203 124.072C235.323 125.861 234.12 127.24 232.595 128.208C231.069 129.147 229.353 129.616 227.447 129.616ZM216.139 106.56H220.451V136.788H216.139V106.56ZM226.743 126.052C228.092 126.052 229.236 125.685 230.175 124.952C231.143 124.189 231.847 123.177 232.287 121.916C232.756 120.655 232.991 119.276 232.991 117.78C232.991 116.255 232.756 114.861 232.287 113.6C231.847 112.339 231.143 111.341 230.175 110.608C229.236 109.875 228.092 109.508 226.743 109.508C225.452 109.508 224.337 109.845 223.399 110.52C222.46 111.165 221.741 112.119 221.243 113.38C220.744 114.612 220.495 116.079 220.495 117.78C220.495 119.452 220.744 120.919 221.243 122.18C221.741 123.412 222.46 124.365 223.399 125.04C224.337 125.715 225.452 126.052 226.743 126.052ZM251.177 129.66C248.859 129.66 246.865 129.161 245.193 128.164C243.521 127.137 242.245 125.715 241.365 123.896C240.514 122.077 240.089 120.024 240.089 117.736C240.089 115.389 240.529 113.321 241.409 111.532C242.318 109.743 243.609 108.349 245.28 107.352C246.953 106.355 248.918 105.856 251.177 105.856C253.406 105.856 255.313 106.325 256.897 107.264C258.51 108.203 259.727 109.537 260.549 111.268C261.399 112.969 261.825 114.979 261.825 117.296C261.825 118.117 261.81 118.66 261.781 118.924H242.245V115.536H257.337C257.337 114.363 257.073 113.307 256.545 112.368C256.046 111.429 255.313 110.696 254.345 110.168C253.406 109.64 252.306 109.376 251.045 109.376C249.813 109.376 248.698 109.655 247.701 110.212C246.703 110.769 245.926 111.561 245.369 112.588C244.811 113.585 244.533 114.744 244.533 116.064C244.533 116.944 244.533 117.824 244.533 118.704C244.533 120.024 244.782 121.256 245.28 122.4C245.809 123.515 246.571 124.424 247.569 125.128C248.566 125.803 249.798 126.14 251.265 126.14C252.467 126.14 253.479 125.92 254.301 125.48C255.151 125.04 255.797 124.527 256.237 123.94C256.677 123.324 256.985 122.708 257.161 122.092H261.561C260.915 124.38 259.727 126.213 257.997 127.592C256.266 128.971 253.993 129.66 251.177 129.66ZM275.937 110.828H279.105C279.721 109.303 280.513 108.129 281.481 107.308C282.478 106.457 283.696 106.032 285.133 106.032C285.896 106.032 286.585 106.076 287.201 106.164V110.3C286.673 110.212 286.189 110.168 285.749 110.168C284.458 110.168 283.3 110.476 282.273 111.092C281.246 111.708 280.44 112.559 279.853 113.644C279.296 114.729 279.017 115.976 279.017 117.384L275.937 110.828ZM274.705 106.56H279.017V129H274.705V106.56ZM299.001 129.66C296.683 129.66 294.689 129.161 293.017 128.164C291.345 127.137 290.069 125.715 289.189 123.896C288.338 122.077 287.913 120.024 287.913 117.736C287.913 115.389 288.353 113.321 289.233 111.532C290.142 109.743 291.433 108.349 293.105 107.352C294.777 106.355 296.742 105.856 299.001 105.856C301.23 105.856 303.137 106.325 304.721 107.264C306.334 108.203 307.551 109.537 308.373 111.268C309.223 112.969 309.649 114.979 309.649 117.296C309.649 118.117 309.634 118.66 309.605 118.924H290.069V115.536H305.161C305.161 114.363 304.897 113.307 304.369 112.368C303.87 111.429 303.137 110.696 302.169 110.168C301.23 109.64 300.13 109.376 298.869 109.376C297.637 109.376 296.522 109.655 295.525 110.212C294.527 110.769 293.75 111.561 293.193 112.588C292.635 113.585 292.357 114.744 292.357 116.064C292.357 116.944 292.357 117.824 292.357 118.704C292.357 120.024 292.606 121.256 293.105 122.4C293.633 123.515 294.395 124.424 295.393 125.128C296.39 125.803 297.622 126.14 299.089 126.14C300.291 126.14 301.303 125.92 302.125 125.48C302.975 125.04 303.621 124.527 304.061 123.94C304.501 123.324 304.809 122.708 304.985 122.092H309.385C308.739 124.38 307.551 126.213 305.821 127.592C304.09 128.971 301.817 129.66 299.001 129.66ZM322.266 129.616C320.359 129.616 318.643 129.147 317.118 128.208C315.593 127.24 314.39 125.861 313.51 124.072C312.63 122.283 312.19 120.185 312.19 117.78C312.19 115.375 312.63 113.277 313.51 111.488C314.39 109.669 315.593 108.291 317.118 107.352C318.643 106.384 320.359 105.9 322.266 105.9C323.879 105.9 325.258 106.223 326.402 106.868C327.546 107.484 328.47 108.291 329.174 109.288H330.318V126.36H329.174C328.47 127.299 327.531 128.076 326.358 128.692C325.214 129.308 323.85 129.616 322.266 129.616ZM322.97 126.052C324.261 126.052 325.375 125.715 326.314 125.04C327.253 124.365 327.971 123.412 328.47 122.18C328.969 120.919 329.218 119.452 329.218 117.78C329.218 116.079 328.969 114.612 328.47 113.38C327.971 112.119 327.253 111.165 326.314 110.52C325.375 109.845 324.261 109.508 322.97 109.508C321.621 109.508 320.462 109.875 319.494 110.608C318.555 111.341 317.851 112.339 317.382 113.6C316.913 114.861 316.678 116.255 316.678 117.78C316.678 119.276 316.913 120.655 317.382 121.916C317.851 123.177 318.555 124.189 319.494 124.952C320.462 125.685 321.621 126.052 322.97 126.052ZM329.262 97.54H333.574V129H329.262V97.54ZM345.732 129.616C343.532 129.616 341.728 128.985 340.32 127.724C338.941 126.433 338.252 124.556 338.252 122.092V106.56H342.564V120.904C342.564 122.488 342.93 123.735 343.664 124.644C344.426 125.524 345.585 125.964 347.14 125.964C348.342 125.964 349.398 125.729 350.308 125.26C351.246 124.791 351.965 124.131 352.464 123.28C352.962 122.429 353.212 121.447 353.212 120.332H353.3V126.184H353.124C352.42 127.181 351.452 128.003 350.22 128.648C349.017 129.293 347.521 129.616 345.732 129.616ZM353.212 106.56H357.524V129H353.212V106.56ZM372.217 129.66C370.017 129.66 368.081 129.161 366.409 128.164C364.737 127.137 363.447 125.729 362.537 123.94C361.628 122.151 361.173 120.097 361.173 117.78C361.173 115.463 361.628 113.409 362.537 111.62C363.447 109.801 364.723 108.393 366.365 107.396C368.037 106.399 369.973 105.9 372.173 105.9C374.051 105.9 375.723 106.281 377.189 107.044C378.656 107.777 379.829 108.819 380.709 110.168C381.589 111.488 382.117 112.999 382.293 114.7H377.849C377.761 113.82 377.527 112.984 377.145 112.192C376.764 111.4 376.163 110.755 375.341 110.256C374.549 109.728 373.508 109.464 372.217 109.464C370.692 109.464 369.445 109.845 368.477 110.608C367.509 111.371 366.791 112.383 366.321 113.644C365.881 114.905 365.661 116.284 365.661 117.78C365.661 119.276 365.881 120.655 366.321 121.916C366.791 123.148 367.509 124.145 368.477 124.908C369.445 125.671 370.692 126.052 372.217 126.052C373.508 126.052 374.564 125.803 375.385 125.304C376.207 124.776 376.793 124.116 377.145 123.324C377.527 122.503 377.761 121.623 377.849 120.684H382.293C382.205 122.415 381.721 123.955 380.841 125.304C379.961 126.653 378.773 127.724 377.277 128.516C375.781 129.279 374.095 129.66 372.217 129.66ZM392.957 129.264C391.637 129.264 390.551 129.073 389.701 128.692C388.85 128.281 388.19 127.607 387.721 126.668C387.251 125.7 387.017 124.365 387.017 122.664V99.344H391.329V122.796C391.329 123.588 391.402 124.189 391.549 124.6C391.725 125.011 391.989 125.304 392.341 125.48C392.693 125.627 393.191 125.7 393.837 125.7C394.335 125.7 394.951 125.641 395.685 125.524V129C394.717 129.176 393.807 129.264 392.957 129.264ZM383.761 106.56H395.641V110.124H383.761V106.56ZM399.229 106.56H403.541V129H399.229V106.56ZM398.965 97.892H403.849V102.556H398.965V97.892ZM418.413 129.66C416.125 129.66 414.13 129.161 412.429 128.164C410.757 127.167 409.466 125.773 408.557 123.984C407.648 122.165 407.193 120.097 407.193 117.78C407.193 115.463 407.648 113.395 408.557 111.576C409.466 109.757 410.757 108.349 412.429 107.352C414.13 106.355 416.14 105.856 418.457 105.856C420.745 105.856 422.725 106.355 424.397 107.352C426.069 108.349 427.36 109.757 428.269 111.576C429.178 113.365 429.633 115.419 429.633 117.736C429.633 120.083 429.178 122.165 428.269 123.984C427.36 125.773 426.054 127.167 424.353 128.164C422.681 129.161 420.701 129.66 418.413 129.66ZM418.457 126.096C419.924 126.096 421.156 125.744 422.153 125.04C423.18 124.307 423.928 123.309 424.397 122.048C424.896 120.787 425.145 119.349 425.145 117.736C425.145 115.301 424.573 113.321 423.429 111.796C422.285 110.241 420.628 109.464 418.457 109.464C416.961 109.464 415.7 109.816 414.673 110.52C413.676 111.224 412.928 112.207 412.429 113.468C411.93 114.729 411.681 116.167 411.681 117.78C411.681 120.244 412.253 122.253 413.397 123.808C414.541 125.333 416.228 126.096 418.457 126.096ZM448.263 114.612C448.263 113.057 447.881 111.84 447.119 110.96C446.385 110.051 445.241 109.596 443.687 109.596C442.484 109.596 441.413 109.831 440.475 110.3C439.565 110.769 438.861 111.429 438.363 112.28C437.864 113.131 437.615 114.113 437.615 115.228H436.119V109.376H437.703C438.407 108.379 439.36 107.557 440.563 106.912C441.795 106.237 443.305 105.9 445.095 105.9C447.295 105.9 449.084 106.545 450.463 107.836C451.871 109.127 452.575 110.989 452.575 113.424V129H448.263V114.612ZM433.303 106.56H437.615V129H433.303V106.56Z" fill="url(#paint0_linear_1966_26885)"/>
<path d="M82.128 59.98H84.172V78.208H94.952V80H82.128V59.98ZM102.166 80.392C100.766 80.392 99.5435 80.0747 98.4982 79.44C97.4715 78.8053 96.6782 77.9187 96.1182 76.78C95.5768 75.6413 95.3062 74.344 95.3062 72.888C95.3062 71.4133 95.5768 70.1067 96.1182 68.968C96.6782 67.8293 97.4715 66.9427 98.4982 66.308C99.5435 65.6733 100.766 65.356 102.166 65.356C103.566 65.356 104.779 65.6733 105.806 66.308C106.851 66.9427 107.645 67.8293 108.186 68.968C108.746 70.1067 109.026 71.4133 109.026 72.888C109.026 74.3627 108.746 75.6693 108.186 76.808C107.645 77.928 106.851 78.8053 105.806 79.44C104.779 80.0747 103.566 80.392 102.166 80.392ZM102.166 78.796C103.249 78.796 104.154 78.544 104.882 78.04C105.629 77.5173 106.189 76.808 106.562 75.912C106.935 75.016 107.122 73.9987 107.122 72.86C107.122 71.1427 106.693 69.7333 105.834 68.632C104.994 67.512 103.771 66.952 102.166 66.952C101.102 66.952 100.187 67.2133 99.4222 67.736C98.6755 68.2587 98.1155 68.968 97.7422 69.864C97.3875 70.76 97.2102 71.768 97.2102 72.888C97.2102 74.6053 97.6302 76.024 98.4702 77.144C99.3288 78.2453 100.561 78.796 102.166 78.796ZM117.418 85.124C116.167 85.124 115.094 84.9373 114.198 84.564C113.302 84.1907 112.611 83.668 112.126 82.996C111.641 82.3427 111.361 81.596 111.286 80.756H113.19C113.339 81.596 113.759 82.268 114.45 82.772C115.159 83.276 116.158 83.528 117.446 83.528C118.921 83.528 120.05 83.1827 120.834 82.492C121.637 81.82 122.038 80.7747 122.038 79.356V65.72H123.83V79.104C123.83 81.0827 123.261 82.576 122.122 83.584C121.002 84.6107 119.434 85.124 117.418 85.124ZM117.166 79.328C115.99 79.328 114.926 79.0667 113.974 78.544C113.041 78.0213 112.294 77.2373 111.734 76.192C111.174 75.1467 110.894 73.8587 110.894 72.328C110.894 70.816 111.174 69.5467 111.734 68.52C112.294 67.4747 113.041 66.6907 113.974 66.168C114.926 65.6453 115.99 65.384 117.166 65.384C118.305 65.384 119.266 65.6267 120.05 66.112C120.853 66.5787 121.497 67.1947 121.982 67.96H122.094V76.696H121.982C121.515 77.4987 120.881 78.1427 120.078 78.628C119.294 79.0947 118.323 79.328 117.166 79.328ZM117.418 77.732C118.314 77.732 119.107 77.536 119.798 77.144C120.489 76.7333 121.03 76.1267 121.422 75.324C121.833 74.5027 122.038 73.504 122.038 72.328C122.038 71.152 121.833 70.1627 121.422 69.36C121.03 68.5573 120.489 67.96 119.798 67.568C119.107 67.176 118.314 66.98 117.418 66.98C116.447 66.98 115.617 67.204 114.926 67.652C114.235 68.0813 113.703 68.7067 113.33 69.528C112.975 70.3307 112.798 71.264 112.798 72.328C112.798 73.9893 113.209 75.3053 114.03 76.276C114.851 77.2467 115.981 77.732 117.418 77.732ZM133.256 80.392C131.856 80.392 130.633 80.0747 129.588 79.44C128.561 78.8053 127.768 77.9187 127.208 76.78C126.667 75.6413 126.396 74.344 126.396 72.888C126.396 71.4133 126.667 70.1067 127.208 68.968C127.768 67.8293 128.561 66.9427 129.588 66.308C130.633 65.6733 131.856 65.356 133.256 65.356C134.656 65.356 135.869 65.6733 136.896 66.308C137.941 66.9427 138.735 67.8293 139.276 68.968C139.836 70.1067 140.116 71.4133 140.116 72.888C140.116 74.3627 139.836 75.6693 139.276 76.808C138.735 77.928 137.941 78.8053 136.896 79.44C135.869 80.0747 134.656 80.392 133.256 80.392ZM133.256 78.796C134.339 78.796 135.244 78.544 135.972 78.04C136.719 77.5173 137.279 76.808 137.652 75.912C138.025 75.016 138.212 73.9987 138.212 72.86C138.212 71.1427 137.783 69.7333 136.924 68.632C136.084 67.512 134.861 66.952 133.256 66.952C132.192 66.952 131.277 67.2133 130.512 67.736C129.765 68.2587 129.205 68.968 128.832 69.864C128.477 70.76 128.3 71.768 128.3 72.888C128.3 74.6053 128.72 76.024 129.56 77.144C130.419 78.2453 131.651 78.796 133.256 78.796Z" fill="#211F54"/>
<path fill-rule="evenodd" clip-rule="evenodd" d="M280.085 446.678C281.723 444.983 282.645 442.723 282.66 440.367V411.272C282.64 408.151 283.291 405.062 284.569 402.215C285.796 399.464 287.514 396.959 289.638 394.823C291.761 392.705 294.27 391.013 297.029 389.836C299.894 388.622 302.975 388 306.086 388.008H306.256C307.476 388.018 308.686 387.794 309.822 387.35C310.925 386.89 311.939 386.241 312.82 385.433C313.697 384.618 314.401 383.635 314.891 382.542C315.395 381.421 315.649 380.205 315.638 378.976C315.682 377.795 315.483 376.618 315.054 375.518C314.625 374.417 313.975 373.415 313.144 372.575C311.542 370.859 309.246 370 306.256 370H306.086C300.567 369.973 295.105 371.105 290.052 373.323C285.124 375.406 280.641 378.414 276.844 382.184C273.055 385.998 270.016 390.489 267.885 395.424C265.714 400.518 264.608 406.002 264.636 411.54V440.35C264.624 441.579 264.879 442.796 265.383 443.916C265.874 444.96 266.564 445.898 267.414 446.678C268.272 447.47 269.254 448.115 270.322 448.587C271.489 449.033 272.728 449.259 273.977 449.253C275.145 449.264 276.303 449.038 277.381 448.587C278.384 448.109 279.299 447.464 280.085 446.678ZM80.001 409.738C79.9619 404.45 81.0385 399.213 83.1607 394.37C85.1912 389.659 88.0931 385.373 91.7138 381.739C95.3125 378.133 99.57 375.252 104.255 373.251C109.106 371.146 114.343 370.075 119.631 370.108C124.918 370.064 130.154 371.135 134.999 373.251C139.7 375.224 143.962 378.109 147.541 381.739C151.155 385.362 154.032 389.651 156.013 394.37C158.135 399.213 159.211 404.45 159.172 409.738V440.141C159.142 442.565 158.193 444.888 156.516 446.639C155.654 447.488 154.636 448.164 153.519 448.629C152.398 449.133 151.182 449.388 149.953 449.376C147.953 449.437 146 448.757 144.47 447.467C143.589 446.731 142.858 445.832 142.318 444.819C141.818 443.836 141.54 442.754 141.506 441.652C138.367 444.037 134.897 445.952 131.206 447.337C127.503 448.712 123.581 449.397 119.631 449.36C114.351 449.39 109.119 448.345 104.255 446.29C94.7768 442.172 87.2245 434.597 83.1364 425.106C81.0336 420.257 79.9658 415.023 80.001 409.738ZM98.0251 409.738C98.0041 412.615 98.5563 415.467 99.6496 418.129C100.801 420.689 102.399 423.024 104.369 425.025C106.376 426.969 108.711 428.545 111.265 429.679C116.641 431.889 122.671 431.889 128.046 429.679C133.233 427.488 137.343 423.336 139.483 418.129C140.577 415.467 141.129 412.615 141.107 409.738C141.137 404.025 138.909 398.531 134.91 394.451C132.94 392.487 130.598 390.936 128.022 389.886C125.382 388.712 122.521 388.117 119.631 388.14C116.743 388.126 113.884 388.722 111.241 389.886C106.024 392.025 101.869 396.147 99.6903 401.347C98.5721 404.002 98.0056 406.857 98.0251 409.738ZM80.0013 459.007V476.747V476.771C79.9898 478.364 80.305 479.943 80.9273 481.409C81.5421 482.825 82.4153 484.114 83.5022 485.211C84.6003 486.297 85.8925 487.168 87.3117 487.777C88.7668 488.389 90.3308 488.698 91.9091 488.687C93.4997 488.701 95.0759 488.385 96.539 487.761C99.3964 486.54 101.668 484.257 102.875 481.393C103.502 479.929 103.825 478.352 103.825 476.759C103.825 475.166 103.502 473.59 102.875 472.125C101.665 469.275 99.3926 467.008 96.539 465.806C95.08 465.166 93.5021 464.842 91.9091 464.855C90.7385 464.85 89.5741 465.025 88.457 465.375C87.3802 465.708 86.355 466.189 85.411 466.805V459.007C85.4127 458.632 85.3438 458.26 85.2079 457.911C85.0803 457.573 84.8839 457.266 84.6312 457.009C84.3976 456.745 84.1055 456.539 83.7784 456.408C83.4418 456.255 83.0759 456.177 82.7062 456.18C82.3342 456.18 81.9663 456.258 81.6259 456.408C81.3153 456.548 81.0384 456.753 80.8136 457.009C80.5575 457.27 80.3511 457.576 80.2044 457.911C80.0648 458.259 79.9958 458.632 80.0013 459.007ZM85.4353 476.767L85.4354 476.747V476.771L85.4353 476.767ZM85.9065 474.245C85.5809 475.045 85.4206 475.903 85.4353 476.767C85.433 477.627 85.6014 478.479 85.9309 479.273C86.2636 480.048 86.7312 480.757 87.3117 481.369C87.9142 481.953 88.6155 482.426 89.383 482.766C91.003 483.437 92.8233 483.437 94.4434 482.766C95.2057 482.43 95.8996 481.956 96.4903 481.369C97.1001 480.77 97.5828 480.054 97.9094 479.264C98.236 478.474 98.3998 477.626 98.391 476.771C98.3986 475.904 98.23 475.045 97.8955 474.245C97.5728 473.466 97.0947 472.762 96.4903 472.174C95.9028 471.589 95.2078 471.123 94.4434 470.801C93.6453 470.453 92.7839 470.273 91.9132 470.273C91.0424 470.273 90.1811 470.453 89.383 470.801C87.8162 471.447 86.5671 472.685 85.9065 474.245ZM112.995 480.9C112.606 480.382 112.302 479.807 112.093 479.194L127.356 479.259C127.707 479.278 128.059 479.225 128.389 479.105C128.72 478.985 129.023 478.8 129.281 478.56C129.533 478.321 129.73 478.03 129.861 477.708C129.991 477.386 130.051 477.039 130.036 476.692C130.015 475.108 129.675 473.545 129.037 472.095C128.427 470.69 127.54 469.422 126.43 468.367C125.336 467.291 124.046 466.436 122.628 465.849C121.163 465.229 119.589 464.91 117.999 464.91C116.408 464.91 114.834 465.229 113.369 465.849C111.951 466.434 110.66 467.29 109.567 468.367C108.473 469.449 107.596 470.731 106.984 472.144C106.357 473.612 106.034 475.193 106.034 476.79C106.034 478.387 106.357 479.967 106.984 481.436C107.606 482.843 108.482 484.123 109.567 485.213C110.661 486.301 111.951 487.172 113.369 487.78C114.846 488.391 116.432 488.695 118.031 488.673C118.886 488.682 119.74 488.608 120.582 488.454C121.283 488.337 121.971 488.152 122.637 487.901C123.205 487.688 123.75 487.416 124.261 487.089C124.701 486.795 125.12 486.47 125.512 486.114C125.804 485.901 126.043 485.623 126.211 485.302C126.373 485.008 126.475 484.685 126.511 484.352C126.568 484.044 126.552 483.726 126.462 483.426C126.403 483.116 126.285 482.821 126.113 482.557C125.962 482.3 125.767 482.071 125.536 481.883C125.329 481.665 125.073 481.501 124.789 481.403C124.377 481.272 123.941 481.239 123.514 481.306C122.995 481.401 122.506 481.615 122.084 481.931C120.952 482.882 119.499 483.364 118.023 483.28C117.363 483.28 116.707 483.187 116.074 483.003C115.469 482.815 114.895 482.542 114.368 482.191C113.853 481.826 113.391 481.391 112.995 480.9ZM123.579 472.85C123.981 473.409 124.278 474.037 124.456 474.702L111.882 474.735C112.241 473.445 113.029 472.316 114.116 471.534C114.683 471.132 115.307 470.817 115.968 470.6C116.673 470.384 117.407 470.274 118.145 470.275C118.873 470.272 119.598 470.373 120.297 470.576C120.958 470.765 121.584 471.061 122.149 471.453C122.703 471.833 123.186 472.306 123.579 472.85ZM149.937 477.218C149.926 478.054 150.086 478.883 150.408 479.655C150.713 480.372 151.154 481.023 151.708 481.572C152.274 482.116 152.938 482.549 153.665 482.847C154.44 483.156 155.268 483.311 156.102 483.302C156.92 483.308 157.73 483.145 158.482 482.823C159.203 482.509 159.856 482.06 160.407 481.499C160.959 480.928 161.4 480.258 161.706 479.525C162.03 478.754 162.193 477.924 162.186 477.088V467.853C162.182 467.498 162.26 467.148 162.413 466.829C162.557 466.502 162.761 466.204 163.014 465.952C163.261 465.702 163.557 465.505 163.883 465.375C164.224 465.228 164.592 465.153 164.964 465.156C165.671 465.172 166.344 465.464 166.84 465.968C167.095 466.215 167.298 466.51 167.437 466.837C167.577 467.163 167.65 467.514 167.652 467.869V477.161C167.661 478.49 167.433 479.811 166.978 481.06C166.541 482.259 165.916 483.38 165.126 484.382C163.534 486.396 161.302 487.806 158.799 488.378V494.129C158.802 494.499 158.725 494.865 158.571 495.201C158.443 495.513 158.246 495.79 157.994 496.014C157.747 496.267 157.448 496.464 157.117 496.59C156.798 496.744 156.448 496.822 156.094 496.818C155.733 496.829 155.374 496.766 155.038 496.634C154.702 496.501 154.397 496.301 154.142 496.046C153.886 495.792 153.685 495.487 153.552 495.152C153.418 494.817 153.354 494.458 153.365 494.097V488.322C152.119 488.017 150.934 487.501 149.864 486.795C148.81 486.107 147.873 485.257 147.086 484.277C146.299 483.282 145.673 482.169 145.234 480.979C144.799 479.742 144.579 478.44 144.584 477.129V467.853C144.58 467.501 144.649 467.153 144.787 466.829C144.928 466.506 145.123 466.209 145.364 465.952C145.595 465.709 145.871 465.513 146.176 465.375C146.517 465.227 146.885 465.152 147.256 465.156C147.617 465.155 147.974 465.23 148.304 465.375C148.633 465.506 148.931 465.702 149.182 465.952C149.432 466.202 149.628 466.5 149.758 466.829C149.907 467.15 149.985 467.499 149.986 467.853L149.937 477.218ZM176.822 479.298C176.49 478.498 176.322 477.639 176.327 476.772C176.319 475.905 176.488 475.046 176.822 474.246C177.483 472.686 178.732 471.448 180.299 470.802C181.095 470.453 181.955 470.274 182.825 470.274C183.697 470.27 184.561 470.45 185.359 470.802C186.54 471.286 187.548 472.114 188.252 473.179C188.956 474.244 189.324 475.496 189.307 476.772C189.312 477.639 189.143 478.498 188.811 479.298C188.161 480.863 186.921 482.109 185.359 482.767C183.739 483.438 181.919 483.438 180.299 482.767C178.737 482.101 177.491 480.859 176.822 479.298ZM171.843 472.151C171.204 473.607 170.881 475.182 170.893 476.772C170.877 478.376 171.201 479.965 171.843 481.435C173.073 484.291 175.348 486.57 178.203 487.803C179.669 488.414 181.241 488.728 182.829 488.728C184.417 488.728 185.989 488.414 187.455 487.803C190.312 486.581 192.584 484.298 193.79 481.435C194.417 479.975 194.741 478.402 194.741 476.813C194.741 475.224 194.417 473.651 193.79 472.191C193.19 470.773 192.325 469.483 191.24 468.39C190.157 467.303 188.871 466.439 187.455 465.847C185.993 465.221 184.419 464.897 182.829 464.897C181.239 464.897 179.665 465.221 178.203 465.847C176.795 466.435 175.51 467.284 174.418 468.349C173.331 469.445 172.458 470.734 171.843 472.151ZM203.465 477.169C203.46 477.99 203.615 478.804 203.92 479.565C204.213 480.291 204.647 480.951 205.196 481.509C205.745 482.066 206.399 482.51 207.12 482.814C207.891 483.139 208.72 483.302 209.557 483.294C210.357 483.306 211.15 483.143 211.88 482.814C212.542 482.498 213.131 482.047 213.61 481.49C214.1 480.91 214.473 480.24 214.706 479.517C214.985 478.735 215.122 477.91 215.113 477.08V467.853C215.112 467.492 215.186 467.135 215.332 466.805C215.478 466.486 215.682 466.197 215.933 465.952C216.196 465.706 216.501 465.511 216.835 465.375C217.167 465.229 217.527 465.154 217.891 465.156C218.598 465.172 219.271 465.464 219.767 465.968C220.016 466.208 220.21 466.499 220.335 466.821C220.472 467.153 220.541 467.51 220.539 467.869V477.039C220.554 478.582 220.278 480.114 219.726 481.555C219.223 482.932 218.459 484.197 217.476 485.284C216.503 486.336 215.329 487.184 214.024 487.777C212.633 488.402 211.123 488.718 209.597 488.703C208.047 488.705 206.513 488.39 205.089 487.777C202.35 486.575 200.176 484.369 199.014 481.612C198.41 480.198 198.103 478.675 198.112 477.137V467.853C198.111 467.494 198.177 467.139 198.307 466.805C198.447 466.488 198.642 466.2 198.884 465.952C199.129 465.707 199.418 465.512 199.737 465.375C200.075 465.228 200.44 465.153 200.809 465.156C201.172 465.154 201.532 465.229 201.865 465.375C202.193 465.507 202.491 465.703 202.742 465.952C202.991 466.191 203.185 466.483 203.31 466.805C203.463 467.133 203.541 467.491 203.538 467.853L203.465 477.169ZM229.604 487.618C230.099 487.109 230.376 486.427 230.375 485.717L230.391 477.562C230.387 476.624 230.584 475.697 230.968 474.841C231.338 474.013 231.855 473.259 232.495 472.616C233.138 471.983 233.892 471.476 234.721 471.121C235.584 470.755 236.512 470.568 237.45 470.569H237.499C237.868 470.572 238.234 470.506 238.579 470.374C238.91 470.234 239.215 470.039 239.481 469.797C239.744 469.548 239.957 469.25 240.106 468.92C240.253 468.582 240.328 468.216 240.325 467.848C240.339 467.493 240.28 467.139 240.152 466.807C240.023 466.476 239.828 466.175 239.578 465.923C239.306 465.654 238.98 465.447 238.621 465.314C238.263 465.181 237.88 465.125 237.499 465.151H237.45C235.79 465.142 234.146 465.483 232.625 466.15C231.138 466.774 229.786 467.682 228.645 468.822C227.5 469.963 226.582 471.311 225.94 472.794C225.284 474.335 224.952 475.994 224.966 477.668V485.734C224.962 486.103 225.039 486.469 225.193 486.806C225.339 487.113 225.543 487.388 225.794 487.618C226.049 487.858 226.343 488.053 226.663 488.195C227.017 488.325 227.391 488.391 227.768 488.39C228.118 488.392 228.466 488.326 228.791 488.195C229.092 488.049 229.367 487.854 229.604 487.618ZM259.348 479.192C259.556 479.805 259.861 480.381 260.25 480.898C260.647 481.391 261.112 481.826 261.631 482.189C262.154 482.541 262.726 482.815 263.328 483.002C263.962 483.185 264.618 483.278 265.278 483.278C266.754 483.363 268.207 482.88 269.339 481.93C269.761 481.614 270.25 481.4 270.768 481.304C271.195 481.237 271.632 481.271 272.044 481.402C272.329 481.501 272.588 481.665 272.799 481.881C273.261 482.286 273.585 482.826 273.725 483.424C273.806 483.726 273.823 484.041 273.774 484.35C273.734 484.683 273.632 485.005 273.473 485.3C273.301 485.618 273.063 485.895 272.775 486.113C272.378 486.466 271.957 486.792 271.516 487.087C271.004 487.414 270.46 487.687 269.891 487.9C269.228 488.149 268.543 488.334 267.844 488.452C267 488.606 266.144 488.679 265.286 488.671C263.688 488.681 262.104 488.366 260.631 487.745C257.775 486.521 255.494 484.252 254.255 481.402C253.628 479.933 253.305 478.352 253.305 476.755C253.305 475.158 253.628 473.578 254.255 472.109C255.484 469.258 257.769 466.993 260.631 465.79C262.096 465.171 263.671 464.852 265.261 464.852C266.852 464.852 268.426 465.171 269.891 465.79C271.308 466.377 272.599 467.232 273.693 468.308C274.803 469.363 275.689 470.631 276.3 472.036C276.938 473.486 277.278 475.05 277.299 476.634C277.311 476.98 277.251 477.325 277.122 477.646C276.994 477.968 276.799 478.259 276.552 478.502C276.292 478.741 275.987 478.926 275.656 479.046C275.324 479.166 274.971 479.218 274.619 479.2L259.348 479.192ZM271.694 474.7C271.519 474.034 271.222 473.406 270.817 472.848C270.425 472.306 269.945 471.834 269.396 471.451C268.829 471.063 268.204 470.767 267.544 470.574C266.844 470.372 266.119 470.271 265.391 470.274C264.653 470.271 263.92 470.381 263.214 470.598C262.565 470.81 261.95 471.113 261.387 471.5C260.852 471.886 260.386 472.358 260.006 472.897C259.63 473.445 259.355 474.056 259.194 474.7H271.694ZM302.691 486.845C302.841 486.504 302.918 486.137 302.918 485.765H303.024V476.35C303.023 473.326 301.86 470.418 299.775 468.228C298.767 467.186 297.56 466.357 296.225 465.791C294.812 465.193 293.293 464.885 291.758 464.885C290.223 464.885 288.704 465.193 287.291 465.791C285.949 466.363 284.733 467.19 283.708 468.228C281.602 470.404 280.435 473.321 280.459 476.35V485.756C280.455 486.129 280.533 486.498 280.687 486.837C280.838 487.14 281.042 487.415 281.288 487.649C281.556 487.881 281.861 488.068 282.19 488.201C282.523 488.331 282.879 488.398 283.237 488.396C283.588 488.399 283.936 488.333 284.261 488.201C284.579 488.076 284.869 487.888 285.114 487.649C285.355 487.416 285.55 487.141 285.69 486.837C285.825 486.492 285.893 486.126 285.893 485.756V476.342C285.885 475.532 286.028 474.728 286.316 473.971C286.574 473.26 286.959 472.602 287.453 472.029C287.97 471.475 288.602 471.039 289.305 470.754C290.045 470.431 290.845 470.268 291.652 470.275C292.439 470.269 293.217 470.433 293.935 470.754C294.616 471.041 295.23 471.467 295.738 472.005C296.26 472.544 296.674 473.178 296.956 473.873C297.28 474.598 297.46 475.378 297.484 476.172C297.473 476.272 297.473 476.372 297.484 476.472V485.765C297.48 486.137 297.558 486.506 297.712 486.845C297.863 487.149 298.067 487.423 298.313 487.657C298.569 487.893 298.867 488.08 299.19 488.209C299.532 488.341 299.896 488.407 300.262 488.404C300.613 488.407 300.961 488.341 301.286 488.209C301.604 488.084 301.894 487.896 302.139 487.657C302.367 487.419 302.554 487.145 302.691 486.845ZM312.186 479.192C312.387 479.808 312.692 480.385 313.087 480.898C313.482 481.391 313.944 481.826 314.46 482.189C314.984 482.54 315.556 482.814 316.158 483.002C316.794 483.185 317.453 483.278 318.115 483.278C319.591 483.361 321.043 482.879 322.177 481.93C322.595 481.613 323.082 481.399 323.598 481.304C324.028 481.237 324.467 481.271 324.881 481.402C325.163 481.503 325.419 481.667 325.629 481.881C325.857 482.072 326.052 482.3 326.205 482.555C326.373 482.822 326.491 483.116 326.555 483.424C326.636 483.726 326.653 484.041 326.603 484.35C326.567 484.684 326.465 485.007 326.303 485.3C326.136 485.621 325.897 485.899 325.604 486.113C325.21 486.466 324.792 486.792 324.353 487.087C323.841 487.413 323.297 487.685 322.729 487.9C322.063 488.149 321.375 488.334 320.674 488.452C319.833 488.606 318.979 488.68 318.123 488.671C316.525 488.683 314.941 488.368 313.469 487.745C312.05 487.136 310.758 486.265 309.66 485.179C308.577 484.088 307.704 482.808 307.085 481.402C306.458 479.933 306.135 478.352 306.135 476.755C306.135 475.158 306.458 473.578 307.085 472.109C308.314 469.255 310.602 466.989 313.469 465.79C314.934 465.171 316.509 464.852 318.099 464.852C319.69 464.852 321.264 465.171 322.729 465.79C324.144 466.381 325.434 467.236 326.53 468.308C327.635 469.366 328.519 470.633 329.13 472.036C329.767 473.486 330.107 475.05 330.129 476.634C330.144 476.98 330.086 477.326 329.957 477.648C329.828 477.971 329.632 478.262 329.381 478.502C329.123 478.741 328.82 478.926 328.49 479.046C328.159 479.166 327.808 479.218 327.456 479.2L312.186 479.192ZM324.548 474.7C324.371 474.035 324.073 473.408 323.671 472.848C323.276 472.306 322.793 471.834 322.242 471.451C321.675 471.063 321.049 470.767 320.39 470.574C319.69 470.372 318.965 470.27 318.237 470.274C317.499 470.271 316.765 470.381 316.06 470.598C315.411 470.81 314.795 471.113 314.233 471.5C313.151 472.286 312.367 473.413 312.007 474.7H324.548ZM338.503 486.787C338.657 486.451 338.735 486.085 338.731 485.715L338.788 477.544C338.783 476.606 338.98 475.678 339.364 474.823C339.734 473.995 340.252 473.24 340.891 472.597C341.532 471.963 342.287 471.456 343.117 471.103C343.98 470.737 344.909 470.549 345.846 470.55H345.895C346.259 470.558 346.62 470.494 346.959 470.362C347.298 470.23 347.607 470.031 347.869 469.779C348.135 469.532 348.347 469.233 348.494 468.901C348.648 468.565 348.725 468.199 348.721 467.829C348.734 467.475 348.674 467.121 348.545 466.79C348.417 466.459 348.223 466.158 347.974 465.904C347.702 465.636 347.376 465.428 347.017 465.295C346.659 465.162 346.276 465.107 345.895 465.133H345.846C344.169 465.118 342.508 465.459 340.973 466.132C339.486 466.758 338.135 467.665 336.992 468.804C335.852 469.947 334.938 471.295 334.296 472.776C333.639 474.316 333.308 475.975 333.321 477.65V485.715C333.318 486.084 333.393 486.449 333.54 486.787C333.69 487.093 333.893 487.368 334.141 487.6C334.401 487.838 334.697 488.033 335.019 488.176C335.372 488.307 335.746 488.373 336.123 488.371C336.474 488.374 336.822 488.308 337.147 488.176C337.448 488.03 337.722 487.836 337.959 487.6C338.19 487.365 338.374 487.09 338.503 486.787ZM349.526 476.773C349.513 475.183 349.837 473.608 350.476 472.151C351.091 470.733 351.967 469.443 353.059 468.35C354.143 467.268 355.426 466.405 356.836 465.807C358.299 465.18 359.874 464.857 361.466 464.857C363.058 464.857 364.633 465.18 366.096 465.807C367.508 466.401 368.791 467.265 369.873 468.35C370.958 469.443 371.823 470.733 372.423 472.151C373.53 474.721 373.68 477.603 372.846 480.274C372.516 481.35 372.037 482.375 371.424 483.32C372.031 484 372.505 484.788 372.821 485.643C373.612 488.028 373.543 490.614 372.626 492.953C372.182 493.993 371.514 494.922 370.669 495.674C369.865 496.415 368.909 496.97 367.867 497.299C366.819 497.648 365.722 497.826 364.618 497.827C363.923 497.827 363.228 497.786 362.538 497.705C361.873 497.632 361.201 497.648 360.54 497.754C360.159 497.825 359.788 497.942 359.435 498.103C359.045 498.299 358.675 498.533 358.331 498.801C357.977 499.124 357.531 499.326 357.055 499.378C356.616 499.429 356.171 499.376 355.756 499.224C355.332 499.07 354.949 498.823 354.635 498.501C354.312 498.2 354.069 497.823 353.928 497.404C353.798 496.975 353.781 496.518 353.879 496.08C354.02 495.539 354.317 495.05 354.732 494.675C355.147 494.294 355.608 493.967 356.105 493.7C356.662 493.391 357.25 493.141 357.86 492.953C358.636 492.72 359.433 492.562 360.239 492.482C360.971 492.433 361.799 492.401 362.676 492.401C363.493 492.412 364.309 492.346 365.113 492.206C365.687 492.123 366.24 491.927 366.738 491.629C367.132 491.384 367.445 491.028 367.639 490.606C367.832 490.129 367.926 489.617 367.915 489.103C367.933 488.671 367.864 488.241 367.712 487.836C367.618 487.578 367.492 487.332 367.339 487.105C366.46 487.611 365.517 487.999 364.536 488.258C363.524 488.528 362.481 488.662 361.434 488.656C359.843 488.666 358.268 488.351 356.804 487.73C355.4 487.121 354.12 486.259 353.027 485.188C351.935 484.094 351.058 482.805 350.444 481.387C349.819 479.929 349.507 478.358 349.526 476.773ZM354.96 476.773C354.954 477.632 355.122 478.483 355.455 479.275C355.794 480.037 356.271 480.731 356.86 481.322C357.464 481.908 358.169 482.381 358.94 482.719C359.741 483.051 360.599 483.222 361.466 483.222C362.333 483.222 363.191 483.051 363.992 482.719C364.767 482.387 365.472 481.913 366.072 481.322C366.654 480.732 367.12 480.037 367.444 479.275C367.778 478.479 367.95 477.624 367.95 476.761C367.95 475.897 367.778 475.043 367.444 474.247C367.124 473.474 366.658 472.771 366.072 472.175C365.475 471.586 364.768 471.12 363.992 470.803C363.197 470.45 362.336 470.27 361.466 470.275C360.596 470.273 359.736 470.452 358.94 470.803C357.369 471.445 356.116 472.684 355.455 474.247C355.121 475.047 354.952 475.906 354.96 476.773ZM382.804 479.655C382.48 478.884 382.317 478.054 382.325 477.218L382.317 467.853C382.319 467.5 382.244 467.15 382.098 466.829C381.967 466.5 381.771 466.202 381.521 465.952C381.271 465.702 380.972 465.506 380.644 465.375C380.314 465.23 379.957 465.155 379.596 465.156C379.224 465.152 378.856 465.227 378.515 465.375C378.212 465.516 377.936 465.711 377.703 465.952C377.468 466.212 377.276 466.508 377.135 466.829C376.997 467.153 376.927 467.501 376.931 467.853V477.129C376.927 478.44 377.146 479.742 377.581 480.979C378.453 483.368 380.078 485.41 382.211 486.795C383.282 487.501 384.466 488.017 385.712 488.322V494.097C385.702 494.458 385.766 494.817 385.899 495.152C386.033 495.487 386.234 495.792 386.489 496.046C386.745 496.301 387.05 496.501 387.386 496.634C387.721 496.766 388.081 496.829 388.441 496.818C388.795 496.822 389.146 496.744 389.465 496.59C389.794 496.462 390.093 496.265 390.342 496.014C390.594 495.79 390.791 495.513 390.919 495.201C391.072 494.865 391.15 494.499 391.146 494.129V488.378C393.649 487.806 395.881 486.396 397.474 484.382C398.264 483.38 398.889 482.259 399.326 481.06C399.78 479.811 400.008 478.49 400 477.161V467.869C400.003 467.517 399.936 467.168 399.804 466.842C399.671 466.515 399.476 466.219 399.228 465.968C398.732 465.464 398.059 465.172 397.352 465.156C396.98 465.153 396.612 465.228 396.271 465.375C395.945 465.505 395.649 465.702 395.402 465.952C395.149 466.204 394.945 466.502 394.801 466.829C394.648 467.148 394.57 467.498 394.574 467.853V477.088C394.581 477.924 394.418 478.754 394.095 479.525C393.788 480.258 393.348 480.928 392.795 481.499C392.244 482.06 391.591 482.509 390.87 482.823C390.118 483.145 389.308 483.308 388.49 483.302C387.656 483.31 386.828 483.155 386.053 482.847C385.33 482.547 384.668 482.115 384.104 481.572C383.551 481.023 383.109 480.372 382.804 479.655ZM323.956 394.37C321.836 399.214 320.762 404.451 320.804 409.738C320.78 415.037 321.864 420.283 323.988 425.138C328.08 434.627 335.631 442.201 345.107 446.322C349.968 448.378 355.197 449.422 360.475 449.393C364.419 449.411 368.333 448.709 372.025 447.321C375.715 445.934 379.185 444.019 382.325 441.635C382.363 442.738 382.64 443.819 383.137 444.803C383.681 445.814 384.411 446.712 385.29 447.451C386.82 448.741 388.772 449.421 390.772 449.36C392.004 449.372 393.223 449.117 394.346 448.613C395.44 448.146 396.435 447.477 397.279 446.639C398.955 444.888 399.905 442.565 399.935 440.141V409.738C399.977 404.451 398.903 399.214 396.783 394.37C394.811 389.65 391.945 385.355 388.344 381.723C384.76 378.1 380.495 375.221 375.794 373.251C370.95 371.134 365.713 370.063 360.426 370.108C355.141 370.075 349.907 371.146 345.058 373.251C340.373 375.252 336.116 378.133 332.517 381.739C328.891 385.371 325.986 389.657 323.956 394.37ZM340.453 418.129C339.359 415.467 338.807 412.615 338.828 409.738C338.796 406.86 339.349 404.005 340.453 401.347C342.632 396.147 346.786 392.025 352.003 389.886C354.647 388.722 357.505 388.127 360.394 388.14C363.283 388.116 366.145 388.711 368.784 389.886C372.714 391.492 376.069 394.246 378.41 397.787C380.752 401.328 381.972 405.493 381.911 409.738C381.923 412.618 381.357 415.471 380.246 418.129C379.166 420.691 377.618 423.03 375.681 425.025C373.691 426.991 371.352 428.569 368.784 429.679C363.409 431.889 357.379 431.889 352.003 429.679C349.451 428.541 347.117 426.966 345.107 425.025C343.166 423.015 341.591 420.681 340.453 418.129ZM192.629 411.069C192.61 413.796 193.117 416.502 194.124 419.037C195.137 421.41 196.574 423.579 198.364 425.438C200.244 427.33 202.484 428.827 204.952 429.84C207.419 430.853 210.065 431.361 212.733 431.335C215.392 431.38 218.028 430.842 220.457 429.759C222.661 428.709 224.62 427.209 226.208 425.357C227.842 423.428 229.084 421.198 229.863 418.793C230.762 416.231 231.213 413.533 231.195 410.817V379.082C231.19 377.878 231.445 376.686 231.943 375.589C232.41 374.525 233.087 373.567 233.933 372.771C234.8 371.949 235.814 371.299 236.922 370.854C238.02 370.36 239.211 370.105 240.415 370.107C241.591 370.098 242.754 370.354 243.818 370.854C244.89 371.276 245.856 371.931 246.645 372.771C247.484 373.556 248.136 374.519 248.553 375.589C248.999 376.7 249.225 377.886 249.219 379.082V410.565C249.251 415.704 248.32 420.804 246.474 425.6C244.791 430.163 242.255 434.365 239.001 437.979C235.751 441.499 231.822 444.326 227.451 446.289C222.83 448.365 217.814 449.412 212.749 449.359C207.606 449.395 202.51 448.372 197.779 446.354C188.675 442.347 181.452 435.004 177.594 425.836C175.589 421.136 174.572 416.073 174.605 410.963V379.082C174.601 377.887 174.824 376.701 175.263 375.589C175.725 374.541 176.374 373.585 177.18 372.771C177.985 371.954 178.943 371.302 179.999 370.854C181.123 370.354 182.342 370.099 183.572 370.107C184.777 370.105 185.967 370.36 187.065 370.854C188.155 371.289 189.144 371.941 189.973 372.771C190.81 373.558 191.462 374.52 191.882 375.589C192.376 376.687 192.631 377.878 192.629 379.082V411.069Z" fill="#005AE0"/>
<path fill-rule="evenodd" clip-rule="evenodd" d="M662.973 439.156C664.258 437.827 664.981 436.054 664.993 434.205V411.379C664.978 408.93 665.488 406.507 666.491 404.274C667.454 402.115 668.801 400.15 670.467 398.475C672.134 396.813 674.102 395.485 676.266 394.562C678.514 393.609 680.931 393.121 683.372 393.128H683.505C684.462 393.135 685.412 392.96 686.303 392.612C687.168 392.251 687.964 391.742 688.654 391.108C689.343 390.468 689.895 389.697 690.279 388.839C690.675 387.96 690.875 387.006 690.866 386.042C690.9 385.116 690.744 384.192 690.407 383.329C690.071 382.465 689.561 381.68 688.909 381.02C687.652 379.674 685.85 379 683.505 379H683.372C679.042 378.979 674.757 379.867 670.792 381.607C666.926 383.241 663.409 385.601 660.431 388.559C657.458 391.551 655.074 395.074 653.402 398.946C651.698 402.942 650.831 407.245 650.853 411.589V434.192C650.843 435.156 651.043 436.111 651.439 436.99C651.824 437.809 652.365 438.545 653.032 439.156C653.705 439.778 654.476 440.284 655.314 440.654C656.229 441.004 657.201 441.181 658.181 441.176C659.098 441.185 660.006 441.008 660.851 440.654C661.639 440.279 662.357 439.773 662.973 439.156ZM508.48 398.119C506.815 401.919 505.97 406.027 506.001 410.176C505.973 414.322 506.811 418.428 508.461 422.232C511.668 429.678 517.593 435.622 525.029 438.852C528.845 440.464 532.949 441.284 537.092 441.26C540.19 441.29 543.268 440.752 546.173 439.674C549.068 438.587 551.79 437.084 554.253 435.213C554.28 436.078 554.498 436.927 554.89 437.698C555.314 438.493 555.888 439.198 556.579 439.776C557.779 440.788 559.311 441.321 560.88 441.273C561.844 441.282 562.799 441.082 563.678 440.687C564.555 440.322 565.353 439.792 566.029 439.126C567.345 437.752 568.089 435.93 568.113 434.028V410.176C568.144 406.027 567.299 401.919 565.634 398.119C564.08 394.417 561.823 391.052 558.988 388.21C556.181 385.361 552.836 383.098 549.149 381.551C545.348 379.891 541.24 379.05 537.092 379.084C532.943 379.059 528.835 379.899 525.029 381.551C521.353 383.12 518.013 385.381 515.19 388.21C512.349 391.061 510.073 394.423 508.48 398.119ZM521.416 416.758C520.558 414.671 520.125 412.433 520.141 410.176C520.126 407.916 520.57 405.676 521.448 403.593C523.157 399.513 526.417 396.279 530.509 394.601C532.583 393.688 534.826 393.221 537.092 393.231C539.359 393.213 541.603 393.68 543.675 394.601C545.696 395.425 547.533 396.642 549.079 398.183C552.216 401.383 553.964 405.693 553.941 410.176C553.957 412.433 553.524 414.671 552.666 416.758C550.988 420.844 547.763 424.101 543.694 425.82C539.477 427.554 534.746 427.554 530.528 425.82C528.524 424.93 526.693 423.694 525.118 422.169C523.573 420.599 522.319 418.767 521.416 416.758ZM697.391 398.119C695.728 401.919 694.886 406.028 694.919 410.176C694.899 414.333 695.75 418.449 697.417 422.258C700.627 429.702 706.551 435.644 713.985 438.877C717.799 440.49 721.901 441.309 726.042 441.286C729.136 441.3 732.207 440.75 735.103 439.661C737.998 438.573 740.72 437.07 743.184 435.2C743.214 436.065 743.431 436.913 743.821 437.686C744.247 438.478 744.82 439.183 745.509 439.763C746.71 440.775 748.242 441.308 749.811 441.26C750.777 441.27 751.734 441.07 752.615 440.674C753.473 440.308 754.253 439.783 754.915 439.126C756.231 437.752 756.975 435.93 756.999 434.028V410.176C757.032 406.028 756.189 401.919 754.526 398.119C752.979 394.416 750.731 391.047 747.905 388.197C745.094 385.355 741.748 383.096 738.06 381.551C734.259 379.89 730.151 379.05 726.003 379.084C721.857 379.059 717.75 379.899 713.947 381.551C710.271 383.12 706.931 385.381 704.108 388.21C701.263 391.059 698.984 394.421 697.391 398.119ZM710.333 416.758C709.476 414.671 709.042 412.433 709.059 410.176C709.034 407.918 709.467 405.678 710.333 403.593C712.043 399.513 715.302 396.279 719.395 394.601C721.469 393.688 723.712 393.222 725.978 393.231C728.245 393.212 730.489 393.679 732.561 394.601C735.644 395.862 738.275 398.022 740.112 400.8C741.949 403.578 742.906 406.845 742.858 410.176C742.868 412.435 742.424 414.674 741.552 416.758C740.706 418.769 739.491 420.604 737.971 422.169C736.41 423.711 734.575 424.949 732.561 425.82C728.343 427.554 723.612 427.554 719.395 425.82C717.393 424.927 715.562 423.692 713.985 422.169C712.462 420.592 711.226 418.761 710.333 416.758ZM594.361 411.22C594.346 413.36 594.744 415.482 595.534 417.471C596.329 419.333 597.456 421.035 598.86 422.493C600.335 423.978 602.092 425.152 604.029 425.947C605.965 426.741 608.04 427.14 610.133 427.119C612.219 427.155 614.288 426.733 616.193 425.883C617.922 425.059 619.459 423.883 620.705 422.429C621.987 420.916 622.961 419.167 623.573 417.28C624.278 415.27 624.631 413.153 624.618 411.022V386.125C624.613 385.18 624.813 384.245 625.204 383.385C625.57 382.55 626.101 381.798 626.765 381.174C627.445 380.529 628.241 380.019 629.11 379.67C629.972 379.282 630.906 379.082 631.85 379.084C632.773 379.077 633.686 379.277 634.521 379.67C635.362 380.001 636.119 380.515 636.738 381.174C637.397 381.789 637.908 382.545 638.236 383.385C638.585 384.256 638.762 385.187 638.758 386.125V410.825C638.783 414.857 638.053 418.857 636.604 422.62C635.284 426.2 633.295 429.496 630.742 432.332C628.192 435.093 625.109 437.311 621.68 438.851C618.055 440.48 614.12 441.302 610.146 441.26C606.111 441.288 602.113 440.485 598.401 438.902C591.259 435.758 585.592 429.998 582.566 422.805C580.993 419.117 580.195 415.146 580.221 411.137V386.125C580.218 385.187 580.393 384.257 580.737 383.385C581.099 382.562 581.609 381.813 582.241 381.174C582.873 380.533 583.624 380.022 584.452 379.67C585.335 379.278 586.29 379.078 587.256 379.084C588.201 379.082 589.135 379.282 589.996 379.67C590.851 380.011 591.627 380.523 592.278 381.174C592.934 381.791 593.445 382.546 593.775 383.385C594.163 384.246 594.362 385.181 594.361 386.125V411.22Z" fill="#005AE0"/>
<path fill-rule="evenodd" clip-rule="evenodd" d="M959.966 426.16C960.759 425.339 961.206 424.243 961.214 423.101V409.001C961.204 407.489 961.52 405.992 962.139 404.612C962.734 403.279 963.566 402.065 964.595 401.03C965.624 400.004 966.84 399.183 968.177 398.613C969.566 398.024 971.059 397.723 972.566 397.727H972.649C973.24 397.732 973.827 397.624 974.377 397.408C974.912 397.185 975.403 396.871 975.83 396.479C976.255 396.084 976.596 395.608 976.833 395.078C977.078 394.535 977.201 393.945 977.196 393.35C977.217 392.778 977.12 392.207 976.912 391.674C976.705 391.14 976.39 390.655 975.987 390.248C975.21 389.416 974.098 389 972.649 389H972.566C969.892 388.987 967.245 389.535 964.796 390.61C962.408 391.62 960.235 393.078 958.395 394.905C956.559 396.753 955.086 398.929 954.053 401.321C953.001 403.79 952.465 406.448 952.479 409.131V423.094C952.473 423.689 952.597 424.279 952.841 424.822C953.079 425.328 953.413 425.782 953.825 426.16C954.241 426.544 954.717 426.856 955.234 427.085C955.8 427.301 956.4 427.411 957.006 427.408C957.572 427.413 958.133 427.304 958.655 427.085C959.142 426.854 959.585 426.541 959.966 426.16ZM864.532 400.81C863.503 403.157 862.982 405.695 863 408.257C862.983 410.818 863.501 413.355 864.52 415.705C866.501 420.304 870.161 423.976 874.755 425.971C877.112 426.967 879.647 427.474 882.206 427.459C884.12 427.477 886.021 427.145 887.816 426.479C889.604 425.808 891.286 424.879 892.807 423.723C892.824 424.258 892.958 424.782 893.201 425.259C893.463 425.749 893.817 426.185 894.244 426.542C894.985 427.167 895.931 427.496 896.901 427.467C897.496 427.472 898.086 427.349 898.629 427.105C899.171 426.879 899.664 426.552 900.082 426.14C900.894 425.292 901.354 424.166 901.369 422.991V408.257C901.388 405.695 900.866 403.157 899.837 400.81C898.878 398.523 897.483 396.444 895.732 394.688C893.998 392.929 891.932 391.531 889.654 390.575C887.306 389.549 884.768 389.03 882.206 389.051C879.643 389.036 877.106 389.554 874.755 390.575C872.484 391.544 870.421 392.941 868.677 394.688C866.922 396.45 865.516 398.526 864.532 400.81ZM872.523 412.324C871.993 411.034 871.725 409.651 871.735 408.257C871.726 406.861 872.001 405.478 872.542 404.191C873.598 401.671 875.612 399.673 878.14 398.637C879.421 398.072 880.806 397.784 882.206 397.79C883.607 397.779 884.993 398.068 886.273 398.637C887.521 399.145 888.656 399.897 889.611 400.849C891.549 402.826 892.628 405.488 892.614 408.257C892.624 409.651 892.357 411.034 891.827 412.324C890.79 414.847 888.798 416.859 886.284 417.921C883.679 418.992 880.757 418.992 878.152 417.921C876.914 417.372 875.782 416.608 874.81 415.666C873.855 414.696 873.081 413.564 872.523 412.324ZM981.227 400.81C980.199 403.157 979.679 405.695 979.699 408.257C979.687 410.825 980.213 413.368 981.242 415.721C983.225 420.319 986.885 423.99 991.477 425.987C993.833 426.983 996.367 427.489 998.925 427.475C1000.84 427.484 1002.73 427.143 1004.52 426.471C1006.31 425.799 1007.99 424.87 1009.51 423.716C1009.53 424.25 1009.67 424.774 1009.91 425.251C1010.17 425.741 1010.52 426.176 1010.95 426.534C1011.69 427.159 1012.64 427.489 1013.61 427.459C1014.2 427.465 1014.8 427.341 1015.34 427.097C1015.87 426.871 1016.35 426.546 1016.76 426.14C1017.57 425.292 1018.03 424.166 1018.05 422.991V408.257C1018.07 405.695 1017.55 403.157 1016.52 400.81C1015.56 398.522 1014.18 396.441 1012.43 394.681C1010.69 392.925 1008.63 391.529 1006.35 390.575C1004 389.549 1001.46 389.03 998.901 389.051C996.34 389.036 993.803 389.554 991.453 390.575C989.183 391.544 987.12 392.941 985.376 394.688C983.618 396.448 982.21 398.525 981.227 400.81ZM989.222 412.324C988.692 411.034 988.424 409.652 988.434 408.257C988.419 406.862 988.686 405.479 989.222 404.191C990.278 401.671 992.291 399.673 994.819 398.637C996.1 398.073 997.486 397.784 998.885 397.79C1000.29 397.779 1001.67 398.067 1002.95 398.637C1004.86 399.415 1006.48 400.749 1007.62 402.466C1008.75 404.182 1009.34 406.2 1009.31 408.257C1009.32 409.653 1009.04 411.036 1008.51 412.324C1007.98 413.566 1007.23 414.699 1006.29 415.666C1005.33 416.618 1004.2 417.383 1002.95 417.921C1000.35 418.992 997.424 418.992 994.819 417.921C993.582 417.37 992.451 416.606 991.477 415.666C990.536 414.691 989.773 413.56 989.222 412.324ZM917.583 408.902C917.573 410.224 917.819 411.535 918.307 412.764C918.798 413.914 919.494 414.965 920.362 415.866C921.273 416.783 922.358 417.508 923.554 417.999C924.75 418.49 926.033 418.736 927.325 418.724C928.614 418.746 929.892 418.485 931.069 417.96C932.137 417.451 933.086 416.724 933.856 415.826C934.648 414.892 935.249 413.811 935.627 412.646C936.063 411.404 936.281 410.096 936.273 408.78V393.401C936.27 392.817 936.394 392.24 936.635 391.708C936.861 391.192 937.189 390.728 937.599 390.342C938.02 389.944 938.511 389.629 939.048 389.413C939.58 389.174 940.157 389.05 940.741 389.051C941.311 389.047 941.874 389.171 942.39 389.413C942.91 389.618 943.378 389.935 943.76 390.342C944.167 390.722 944.483 391.189 944.685 391.708C944.901 392.246 945.01 392.821 945.008 393.401V408.658C945.023 411.149 944.572 413.62 943.677 415.944C942.862 418.156 941.633 420.192 940.056 421.944C938.48 423.65 936.576 425.019 934.458 425.971C932.219 426.977 929.788 427.484 927.333 427.459C924.841 427.476 922.371 426.98 920.078 426.002C915.666 424.06 912.166 420.502 910.296 416.059C909.325 413.781 908.832 411.327 908.848 408.851V393.401C908.846 392.821 908.954 392.247 909.167 391.708C909.39 391.2 909.705 390.737 910.096 390.342C910.486 389.946 910.95 389.63 911.462 389.413C912.007 389.171 912.597 389.047 913.194 389.051C913.777 389.05 914.354 389.174 914.886 389.413C915.414 389.624 915.894 389.94 916.296 390.342C916.701 390.723 917.017 391.19 917.221 391.708C917.46 392.24 917.583 392.817 917.583 393.401V408.902Z" fill="#005AE0"/>
<rect x="1124" y="382" width="56" height="56" rx="28" fill="#005AE0"/>
<path d="M1137.14 409.861C1137.12 407.896 1137.52 405.95 1138.31 404.15C1139.07 402.399 1140.14 400.807 1141.49 399.456C1142.83 398.116 1144.41 397.045 1146.15 396.302C1147.95 395.519 1149.9 395.121 1151.86 395.133C1153.83 395.117 1155.78 395.515 1157.58 396.302C1159.32 397.035 1160.91 398.107 1162.24 399.456C1163.58 400.802 1164.65 402.397 1165.39 404.15C1166.17 405.95 1166.57 407.896 1166.56 409.861V421.16C1166.55 422.061 1166.2 422.924 1165.57 423.575C1165.25 423.891 1164.87 424.142 1164.46 424.315C1164.04 424.502 1163.59 424.597 1163.13 424.593C1162.39 424.615 1161.66 424.363 1161.1 423.883V423.883C1160.44 423.339 1160.15 422.492 1160.07 421.646C1160.03 421.271 1160.02 420.899 1160.01 420.596C1160 420.449 1159.79 420.402 1159.72 420.53C1158.88 421.994 1157.39 423.375 1156.17 423.835C1154.79 424.346 1153.33 424.6 1151.86 424.587C1149.9 424.598 1147.96 424.209 1146.15 423.445C1142.63 421.915 1139.82 419.1 1138.3 415.573C1137.52 413.771 1137.12 411.826 1137.14 409.861ZM1143.84 409.861C1143.83 410.931 1144.03 411.991 1144.44 412.98C1144.87 413.931 1145.46 414.799 1146.19 415.543C1146.94 416.265 1147.81 416.851 1148.76 417.272C1150.75 418.093 1152.99 418.093 1154.99 417.272C1156.92 416.458 1158.45 414.915 1159.24 412.98C1159.65 411.991 1159.85 410.931 1159.85 409.861C1159.86 407.738 1159.03 405.697 1157.54 404.18C1156.81 403.45 1155.94 402.874 1154.98 402.484C1154 402.047 1152.94 401.826 1151.86 401.835C1150.79 401.83 1149.73 402.051 1148.75 402.484C1146.81 403.279 1145.26 404.811 1144.45 406.743C1144.04 407.73 1143.83 408.791 1143.84 409.861Z" fill="white"/>
<path d="M-130 410H1430.5" stroke="#BEC9FF"/>
<rect x="80.5" y="370.5" width="319" height="118" stroke="#BEC9FF"/>
<rect x="80.5" y="194.5" width="319" height="470" stroke="#BEC9FF"/>
<rect x="506.5" y="379.5" width="250" height="61" stroke="#BEC9FF"/>
<rect x="506.5" y="194.5" width="250" height="470" stroke="#BEC9FF"/>
<rect x="863.5" y="194.5" width="154" height="470" stroke="#BEC9FF"/>
<rect x="1136.5" y="194.5" width="30" height="470" stroke="#BEC9FF"/>
<rect x="863.5" y="389.5" width="154" height="37" stroke="#BEC9FF"/>
<rect x="1136.5" y="395.5" width="30" height="29" stroke="#BEC9FF"/>
<rect x="2" y="194" width="1297" height="166" fill="url(#paint1_linear_1966_26885)"/>
<rect width="1297" height="176" transform="matrix(1 0 0 -1 2 665)" fill="url(#paint2_linear_1966_26885)"/>
<path opacity="0.15" d="M0 730H1300" stroke="#A0A3BD" stroke-width="2" stroke-linecap="round"/>
<path d="M83.5832 760.997H88.1432C89.2739 760.997 90.1592 761.253 90.7992 761.765C91.4392 762.277 91.7592 762.981 91.7592 763.877C91.7592 764.517 91.5939 765.035 91.2632 765.429C90.9432 765.813 90.5059 766.101 89.9512 766.293V766.325C90.6339 766.443 91.1832 766.747 91.5992 767.237C92.0152 767.728 92.2232 768.368 92.2232 769.157C92.2232 769.861 92.0685 770.459 91.7592 770.949C91.4499 771.44 91.0125 771.813 90.4472 772.069C89.8819 772.315 89.2152 772.438 88.4472 772.438H83.5832V760.997ZM88.4792 771.413C89.0765 771.413 89.5619 771.323 89.9352 771.141C90.3085 770.949 90.5805 770.688 90.7512 770.357C90.9219 770.027 91.0072 769.627 91.0072 769.157C91.0072 768.485 90.8045 767.947 90.3992 767.541C89.9939 767.136 89.4552 766.933 88.7832 766.933H84.7512V771.413H88.4792ZM88.3672 765.909C88.8792 765.909 89.2952 765.829 89.6152 765.669C89.9459 765.509 90.1805 765.291 90.3192 765.013C90.4685 764.725 90.5432 764.384 90.5432 763.99C90.5432 763.381 90.3619 762.901 89.9992 762.549C89.6365 762.197 89.0925 762.021 88.3672 762.021H84.7512V765.909H88.3672ZM94.0374 765.941H94.8054C95.0294 765.365 95.3334 764.912 95.7174 764.581C96.1014 764.251 96.5708 764.085 97.1254 764.085C97.3921 764.085 97.6268 764.101 97.8294 764.133V765.157C97.6588 765.125 97.4934 765.109 97.3334 765.109C96.8534 765.109 96.4161 765.232 96.0214 765.477C95.6268 765.712 95.3174 766.043 95.0934 766.469C94.8801 766.885 94.7734 767.355 94.7734 767.877L94.0374 765.941ZM93.7334 764.277H94.7734V772.438H93.7334V764.277ZM100.833 772.646C100.022 772.646 99.3715 772.438 98.8808 772.021C98.4008 771.605 98.1608 771.056 98.1608 770.373C98.1608 769.808 98.2888 769.349 98.5448 768.997C98.8008 768.645 99.1635 768.373 99.6328 768.181C100.113 767.989 100.742 767.824 101.521 767.685C101.649 767.664 101.798 767.643 101.969 767.621C102.395 767.536 102.726 767.456 102.961 767.381C103.195 767.296 103.382 767.179 103.521 767.029C103.659 766.869 103.729 766.651 103.729 766.373C103.729 765.936 103.574 765.595 103.265 765.349C102.966 765.104 102.502 764.981 101.873 764.981C101.35 764.981 100.929 765.045 100.609 765.173C100.289 765.291 100.054 765.477 99.9048 765.733C99.7661 765.989 99.6808 766.325 99.6488 766.741H98.5448C98.5875 765.952 98.8808 765.312 99.4248 764.821C99.9688 764.32 100.795 764.069 101.905 764.069C102.747 764.069 103.43 764.277 103.953 764.693C104.475 765.099 104.737 765.755 104.737 766.661V770.741C104.737 771.083 104.769 771.328 104.833 771.477C104.907 771.627 105.03 771.701 105.201 771.701C105.254 771.701 105.329 771.696 105.425 771.685V772.438C105.211 772.48 105.03 772.502 104.881 772.502C104.518 772.502 104.241 772.411 104.049 772.229C103.867 772.037 103.761 771.696 103.729 771.205H103.697C103.409 771.675 103.025 772.032 102.545 772.277C102.065 772.523 101.494 772.646 100.833 772.646ZM100.961 771.733C101.515 771.733 102.001 771.643 102.417 771.461C102.833 771.269 103.153 770.997 103.377 770.645C103.611 770.283 103.729 769.861 103.729 769.381V767.861C103.622 768.011 103.387 768.139 103.025 768.245C102.673 768.352 102.214 768.453 101.649 768.549C101.083 768.645 100.63 768.763 100.289 768.901C99.9475 769.04 99.6861 769.221 99.5048 769.445C99.3341 769.669 99.2488 769.947 99.2488 770.277C99.2488 770.757 99.3875 771.12 99.6648 771.365C99.9421 771.611 100.374 771.733 100.961 771.733ZM112.316 766.933C112.316 766.368 112.166 765.904 111.868 765.541C111.569 765.179 111.089 764.997 110.428 764.997C109.926 764.997 109.478 765.104 109.084 765.317C108.7 765.52 108.396 765.803 108.172 766.165C107.958 766.517 107.852 766.891 107.852 767.285H107.388V765.445H107.884C108.15 765.051 108.513 764.725 108.972 764.469C109.441 764.213 110.012 764.085 110.684 764.085C111.462 764.085 112.097 764.309 112.588 764.757C113.089 765.205 113.34 765.856 113.34 766.709V772.438H112.316V766.933ZM106.812 764.277H107.852V772.438H106.812V764.277ZM118.354 772.646C117.693 772.646 117.085 772.475 116.53 772.133C115.986 771.781 115.554 771.285 115.234 770.645C114.925 769.995 114.77 769.232 114.77 768.357C114.77 767.493 114.925 766.741 115.234 766.101C115.554 765.451 115.986 764.955 116.53 764.613C117.085 764.261 117.693 764.085 118.354 764.085C119.026 764.085 119.586 764.229 120.034 764.517C120.493 764.795 120.85 765.173 121.106 765.653H121.506V771.109H121.106C120.84 771.568 120.477 771.941 120.018 772.229C119.57 772.507 119.016 772.646 118.354 772.646ZM118.482 771.733C119.005 771.733 119.469 771.6 119.874 771.333C120.28 771.056 120.589 770.661 120.802 770.149C121.026 769.637 121.138 769.04 121.138 768.357C121.138 767.685 121.026 767.093 120.802 766.581C120.589 766.069 120.28 765.68 119.874 765.413C119.469 765.136 119.005 764.997 118.482 764.997C117.938 764.997 117.464 765.147 117.058 765.445C116.664 765.744 116.365 766.149 116.162 766.661C115.96 767.173 115.858 767.739 115.858 768.357C115.858 768.987 115.96 769.557 116.162 770.069C116.365 770.581 116.664 770.987 117.058 771.285C117.453 771.584 117.928 771.733 118.482 771.733ZM121.138 760.997H122.178V772.438H121.138V760.997ZM132.472 772.646C131.374 772.646 130.435 772.395 129.656 771.893C128.888 771.381 128.302 770.683 127.896 769.797C127.502 768.901 127.304 767.877 127.304 766.725C127.304 765.595 127.523 764.581 127.96 763.685C128.398 762.779 129.016 762.069 129.816 761.557C130.627 761.045 131.56 760.789 132.616 760.789C133.512 760.789 134.286 760.939 134.936 761.237C135.598 761.525 136.126 761.941 136.52 762.485C136.915 763.029 137.182 763.664 137.32 764.389H136.12C135.95 763.568 135.555 762.933 134.936 762.485C134.318 762.037 133.544 761.813 132.616 761.813C131.71 761.813 130.947 762.048 130.328 762.517C129.72 762.987 129.267 763.595 128.968 764.341C128.67 765.088 128.52 765.883 128.52 766.725C128.52 767.6 128.648 768.405 128.904 769.141C129.171 769.877 129.598 770.475 130.184 770.933C130.771 771.392 131.534 771.621 132.472 771.621C133.208 771.621 133.87 771.456 134.456 771.125C135.043 770.784 135.502 770.309 135.832 769.701C136.174 769.083 136.344 768.384 136.344 767.605H132.552V766.565H137.512V772.438H136.712L136.36 770.405H136.328C135.955 771.109 135.454 771.659 134.824 772.053C134.195 772.448 133.411 772.646 132.472 772.646ZM141.888 772.63C141.11 772.63 140.47 772.405 139.968 771.957C139.467 771.509 139.216 770.859 139.216 770.005V764.277H140.256V769.781C140.256 770.347 140.406 770.811 140.704 771.173C141.003 771.536 141.483 771.717 142.144 771.717C142.646 771.717 143.088 771.616 143.472 771.413C143.867 771.2 144.171 770.917 144.384 770.565C144.608 770.203 144.72 769.824 144.72 769.429H144.752V771.285H144.688C144.422 771.669 144.054 771.989 143.584 772.245C143.126 772.502 142.56 772.63 141.888 772.63ZM144.72 764.277H145.744V772.438H144.72V764.277ZM147.671 764.277H148.711V772.438H147.671V764.277ZM147.511 761.301H148.855V762.645H147.511V761.301ZM153.776 772.646C153.115 772.646 152.507 772.475 151.952 772.133C151.408 771.781 150.976 771.285 150.656 770.645C150.347 769.995 150.192 769.232 150.192 768.357C150.192 767.493 150.347 766.741 150.656 766.101C150.976 765.451 151.408 764.955 151.952 764.613C152.507 764.261 153.115 764.085 153.776 764.085C154.448 764.085 155.008 764.229 155.456 764.517C155.915 764.795 156.272 765.173 156.528 765.653H156.928V771.109H156.528C156.261 771.568 155.899 771.941 155.44 772.229C154.992 772.507 154.437 772.646 153.776 772.646ZM153.904 771.733C154.427 771.733 154.891 771.6 155.296 771.333C155.701 771.056 156.011 770.661 156.224 770.149C156.448 769.637 156.56 769.04 156.56 768.357C156.56 767.685 156.448 767.093 156.224 766.581C156.011 766.069 155.701 765.68 155.296 765.413C154.891 765.136 154.427 764.997 153.904 764.997C153.36 764.997 152.885 765.147 152.48 765.445C152.085 765.744 151.787 766.149 151.584 766.661C151.381 767.173 151.28 767.739 151.28 768.357C151.28 768.987 151.381 769.557 151.584 770.069C151.787 770.581 152.085 770.987 152.48 771.285C152.875 771.584 153.349 771.733 153.904 771.733ZM156.56 760.997H157.6V772.438H156.56V760.997ZM162.986 772.662C162.176 772.662 161.477 772.48 160.89 772.117C160.304 771.744 159.856 771.232 159.546 770.581C159.248 769.931 159.098 769.189 159.098 768.357C159.098 767.504 159.258 766.752 159.578 766.101C159.898 765.451 160.352 764.949 160.938 764.597C161.525 764.245 162.208 764.069 162.986 764.069C163.754 764.069 164.416 764.24 164.97 764.581C165.525 764.912 165.946 765.371 166.234 765.957C166.522 766.544 166.666 767.221 166.666 767.989C166.666 768.288 166.661 768.48 166.65 768.565H159.61V767.653H165.562C165.562 767.163 165.456 766.715 165.242 766.309C165.04 765.893 164.741 765.568 164.346 765.333C163.952 765.088 163.482 764.965 162.938 764.965C162.405 764.965 161.925 765.093 161.498 765.349C161.082 765.605 160.757 765.952 160.522 766.389C160.298 766.816 160.186 767.296 160.186 767.829C160.186 768.064 160.186 768.299 160.186 768.533C160.186 769.109 160.288 769.643 160.49 770.133C160.704 770.624 161.018 771.019 161.434 771.317C161.861 771.616 162.384 771.765 163.002 771.765C163.514 771.765 163.946 771.669 164.298 771.477C164.661 771.275 164.933 771.04 165.114 770.773C165.296 770.496 165.424 770.219 165.498 769.941H166.554C166.341 770.752 165.936 771.408 165.338 771.91C164.741 772.411 163.957 772.662 162.986 772.662ZM168.124 760.997H169.164V772.438H168.124V760.997ZM171.093 764.277H172.133V772.438H171.093V764.277ZM170.933 761.301H172.277V762.645H170.933V761.301ZM179.55 766.933C179.55 766.368 179.401 765.904 179.102 765.541C178.803 765.179 178.323 764.997 177.662 764.997C177.161 764.997 176.713 765.104 176.318 765.317C175.934 765.52 175.63 765.803 175.406 766.165C175.193 766.517 175.086 766.891 175.086 767.285H174.622V765.445H175.118C175.385 765.051 175.747 764.725 176.206 764.469C176.675 764.213 177.246 764.085 177.918 764.085C178.697 764.085 179.331 764.309 179.822 764.757C180.323 765.205 180.574 765.856 180.574 766.709V772.438H179.55V766.933ZM174.046 764.277H175.086V772.438H174.046V764.277ZM185.893 772.662C185.082 772.662 184.383 772.48 183.797 772.117C183.21 771.744 182.762 771.232 182.453 770.581C182.154 769.931 182.005 769.189 182.005 768.357C182.005 767.504 182.165 766.752 182.485 766.101C182.805 765.451 183.258 764.949 183.845 764.597C184.431 764.245 185.114 764.069 185.893 764.069C186.661 764.069 187.322 764.24 187.877 764.581C188.431 764.912 188.853 765.371 189.141 765.957C189.429 766.544 189.573 767.221 189.573 767.989C189.573 768.288 189.567 768.48 189.557 768.565H182.517V767.653H188.469C188.469 767.163 188.362 766.715 188.149 766.309C187.946 765.893 187.647 765.568 187.253 765.333C186.858 765.088 186.389 764.965 185.845 764.965C185.311 764.965 184.831 765.093 184.405 765.349C183.989 765.605 183.663 765.952 183.429 766.389C183.205 766.816 183.093 767.296 183.093 767.829C183.093 768.064 183.093 768.299 183.093 768.533C183.093 769.109 183.194 769.643 183.397 770.133C183.61 770.624 183.925 771.019 184.341 771.317C184.767 771.616 185.29 771.765 185.909 771.765C186.421 771.765 186.853 771.669 187.205 771.477C187.567 771.275 187.839 771.04 188.021 770.773C188.202 770.496 188.33 770.219 188.405 769.941H189.461C189.247 770.752 188.842 771.408 188.245 771.91C187.647 772.411 186.863 772.662 185.893 772.662ZM194.038 772.646C193.292 772.646 192.652 772.523 192.118 772.277C191.585 772.032 191.18 771.691 190.902 771.253C190.625 770.816 190.476 770.32 190.454 769.765H191.542C191.564 770.149 191.665 770.491 191.846 770.789C192.028 771.088 192.3 771.323 192.662 771.493C193.036 771.653 193.5 771.733 194.054 771.733C194.78 771.733 195.308 771.595 195.638 771.317C195.969 771.029 196.134 770.667 196.134 770.229C196.134 769.888 196.044 769.621 195.862 769.429C195.692 769.237 195.478 769.093 195.222 768.997C194.966 768.901 194.614 768.8 194.166 768.693C194.038 768.661 193.91 768.635 193.782 768.613C193.718 768.592 193.644 768.571 193.558 768.549C192.961 768.4 192.47 768.251 192.086 768.101C191.702 767.941 191.382 767.717 191.126 767.429C190.881 767.131 190.758 766.747 190.758 766.277C190.758 765.829 190.87 765.44 191.094 765.109C191.318 764.779 191.649 764.528 192.086 764.358C192.524 764.176 193.046 764.085 193.654 764.085C194.337 764.085 194.913 764.197 195.382 764.421C195.852 764.635 196.209 764.928 196.454 765.301C196.71 765.675 196.865 766.096 196.918 766.565H195.83C195.734 766.107 195.526 765.733 195.206 765.445C194.897 765.147 194.38 764.997 193.654 764.997C193.078 764.997 192.63 765.104 192.31 765.317C192.001 765.531 191.846 765.829 191.846 766.213C191.846 766.501 191.932 766.736 192.102 766.917C192.273 767.088 192.486 767.221 192.742 767.317C193.009 767.403 193.377 767.499 193.846 767.605C193.932 767.616 194.044 767.643 194.182 767.685C194.833 767.845 195.366 768.011 195.782 768.181C196.198 768.341 196.545 768.581 196.822 768.901C197.1 769.221 197.238 769.648 197.238 770.181C197.238 770.683 197.11 771.12 196.854 771.493C196.598 771.856 196.23 772.139 195.75 772.341C195.27 772.544 194.7 772.646 194.038 772.646Z" fill="#211F54"/>
<path d="M1201.36 774.211C1201.36 773.539 1201.48 772.92 1201.74 772.355C1202.01 771.779 1202.38 771.262 1202.86 770.803C1203.35 770.334 1203.94 769.907 1204.62 769.523C1204.77 769.438 1204.91 769.352 1205.04 769.267C1205.75 768.883 1206.28 768.568 1206.62 768.323C1206.97 768.078 1207.24 767.79 1207.44 767.459C1207.64 767.118 1207.74 766.702 1207.74 766.211C1207.74 765.806 1207.66 765.438 1207.52 765.107C1207.38 764.776 1207.14 764.504 1206.81 764.291C1206.48 764.078 1206.05 763.971 1205.52 763.971C1204.9 763.971 1204.39 764.099 1204 764.355C1203.61 764.611 1203.33 764.958 1203.15 765.395C1202.97 765.832 1202.88 766.328 1202.88 766.883H1201.68C1201.68 766.147 1201.82 765.486 1202.11 764.899C1202.4 764.302 1202.83 763.827 1203.4 763.475C1203.98 763.123 1204.69 762.947 1205.53 762.947C1206.17 762.947 1206.75 763.075 1207.26 763.331C1207.78 763.587 1208.19 763.96 1208.49 764.451C1208.8 764.942 1208.96 765.523 1208.96 766.195C1208.96 766.824 1208.81 767.379 1208.52 767.859C1208.24 768.328 1207.88 768.723 1207.45 769.043C1207.04 769.363 1206.49 769.715 1205.82 770.099L1205.69 770.163L1205.5 770.275C1204.94 770.584 1204.49 770.862 1204.14 771.107C1203.79 771.352 1203.48 771.646 1203.21 771.987C1202.96 772.328 1202.8 772.718 1202.75 773.155V773.187H1208.84V774.211H1201.36ZM1214.47 774.419C1213.59 774.419 1212.82 774.264 1212.18 773.955C1211.54 773.646 1211.05 773.198 1210.71 772.611C1210.38 772.024 1210.22 771.326 1210.22 770.515H1211.43C1211.43 771.102 1211.53 771.608 1211.74 772.035C1211.94 772.462 1212.26 772.798 1212.7 773.043C1213.14 773.278 1213.71 773.395 1214.39 773.395C1215.01 773.395 1215.52 773.31 1215.91 773.139C1216.32 772.958 1216.61 772.702 1216.79 772.371C1216.98 772.03 1217.08 771.624 1217.08 771.155C1217.08 770.622 1216.96 770.195 1216.73 769.875C1216.49 769.544 1216.2 769.31 1215.83 769.171C1215.47 769.022 1215.08 768.947 1214.66 768.947H1213.48V767.923H1214.6C1215.02 767.923 1215.38 767.848 1215.69 767.699C1216 767.55 1216.24 767.326 1216.41 767.027C1216.58 766.728 1216.66 766.366 1216.66 765.939C1216.66 765.587 1216.58 765.267 1216.42 764.979C1216.28 764.68 1216.04 764.44 1215.7 764.259C1215.37 764.067 1214.96 763.971 1214.46 763.971C1213.44 763.971 1212.73 764.206 1212.33 764.675C1211.93 765.134 1211.74 765.715 1211.74 766.419H1210.52C1210.52 765.736 1210.67 765.139 1210.97 764.627C1211.27 764.104 1211.71 763.694 1212.3 763.395C1212.88 763.096 1213.6 762.947 1214.46 762.947C1215.06 762.947 1215.63 763.064 1216.15 763.299C1216.68 763.534 1217.09 763.88 1217.4 764.339C1217.72 764.787 1217.88 765.32 1217.88 765.939C1217.88 766.536 1217.74 767.032 1217.45 767.427C1217.16 767.822 1216.73 768.136 1216.15 768.371V768.403C1216.88 768.616 1217.42 768.963 1217.77 769.443C1218.12 769.912 1218.3 770.483 1218.3 771.155C1218.3 771.838 1218.14 772.424 1217.82 772.915C1217.51 773.406 1217.06 773.779 1216.49 774.035C1215.91 774.291 1215.24 774.419 1214.47 774.419Z" fill="#211F54"/>
<path fill-rule="evenodd" clip-rule="evenodd" d="M660.784 777.578C661.224 777.123 661.472 776.516 661.476 775.884V768.076C661.47 767.238 661.645 766.409 661.989 765.645C662.319 764.907 662.78 764.235 663.351 763.662C663.922 763.093 664.597 762.639 665.338 762.323C666.108 761.997 666.936 761.831 667.773 761.833H667.819C668.146 761.835 668.472 761.775 668.777 761.656C669.074 761.533 669.346 761.359 669.583 761.142C669.819 760.923 670.008 760.659 670.14 760.366C670.275 760.065 670.344 759.739 670.34 759.409C670.352 759.092 670.299 758.776 670.183 758.481C670.068 758.185 669.893 757.917 669.67 757.691C669.239 757.23 668.622 757 667.819 757H667.773C666.289 756.993 664.821 757.296 663.463 757.892C662.138 758.451 660.933 759.258 659.913 760.27C658.894 761.293 658.077 762.498 657.504 763.823C656.921 765.19 656.623 766.662 656.631 768.148V775.88C656.628 776.209 656.696 776.536 656.832 776.837C656.964 777.117 657.149 777.368 657.378 777.578C657.608 777.79 657.872 777.963 658.159 778.09C658.473 778.21 658.806 778.27 659.142 778.269C659.456 778.272 659.767 778.211 660.057 778.09C660.327 777.962 660.572 777.789 660.784 777.578ZM607.85 763.54C607.279 764.84 606.99 766.245 607 767.664C606.991 769.082 607.278 770.487 607.843 771.788C608.942 774.335 610.972 776.368 613.52 777.473C614.827 778.025 616.234 778.305 617.653 778.297C618.715 778.307 619.769 778.123 620.764 777.754C621.756 777.383 622.689 776.869 623.533 776.229C623.542 776.524 623.617 776.815 623.751 777.079C623.897 777.35 624.093 777.592 624.33 777.789C624.741 778.135 625.266 778.318 625.804 778.302C626.134 778.305 626.461 778.236 626.762 778.101C627.063 777.976 627.336 777.795 627.568 777.567C628.018 777.097 628.274 776.474 628.282 775.823V767.664C628.292 766.245 628.003 764.84 627.432 763.54C626.9 762.273 626.127 761.122 625.155 760.15C624.193 759.176 623.047 758.402 621.784 757.872C620.482 757.304 619.074 757.017 617.653 757.029C616.232 757.02 614.824 757.307 613.52 757.872C612.26 758.409 611.116 759.182 610.149 760.15C609.175 761.125 608.395 762.275 607.85 763.54ZM612.282 769.916C611.988 769.202 611.84 768.436 611.845 767.664C611.84 766.891 611.992 766.125 612.293 765.412C612.879 764.017 613.995 762.91 615.398 762.337C616.108 762.024 616.877 761.864 617.653 761.868C618.43 761.862 619.199 762.021 619.908 762.337C620.601 762.618 621.23 763.035 621.76 763.562C622.835 764.656 623.434 766.131 623.426 767.664C623.432 768.436 623.283 769.202 622.989 769.916C622.414 771.313 621.309 772.427 619.915 773.015C618.47 773.608 616.849 773.608 615.404 773.015C614.717 772.711 614.09 772.288 613.55 771.766C613.021 771.23 612.591 770.603 612.282 769.916ZM672.576 763.54C672.007 764.84 671.718 766.245 671.729 767.664C671.722 769.086 672.014 770.494 672.585 771.797C673.685 774.343 675.715 776.376 678.262 777.482C679.569 778.034 680.974 778.314 682.393 778.306C683.453 778.311 684.505 778.122 685.498 777.75C686.489 777.378 687.422 776.864 688.266 776.224C688.276 776.52 688.351 776.81 688.484 777.074C688.631 777.346 688.827 777.587 689.063 777.785C689.474 778.131 689.999 778.314 690.537 778.297C690.868 778.301 691.196 778.232 691.498 778.097C691.791 777.972 692.059 777.792 692.286 777.567C692.736 777.097 692.992 776.474 693 775.823V767.664C693.011 766.245 692.722 764.84 692.153 763.54C691.622 762.273 690.852 761.121 689.884 760.146C688.921 759.173 687.774 758.401 686.511 757.872C685.208 757.304 683.801 757.017 682.38 757.029C680.959 757.02 679.552 757.307 678.249 757.872C676.989 758.409 675.845 759.182 674.878 760.15C673.903 761.125 673.122 762.275 672.576 763.54ZM677.011 769.916C676.717 769.202 676.568 768.436 676.574 767.664C676.565 766.892 676.714 766.126 677.011 765.412C677.597 764.017 678.713 762.91 680.116 762.337C680.826 762.024 681.595 761.865 682.371 761.868C683.148 761.861 683.917 762.021 684.626 762.337C685.683 762.768 686.584 763.506 687.214 764.457C687.843 765.407 688.171 766.525 688.155 767.664C688.158 768.437 688.006 769.203 687.707 769.916C687.417 770.604 687.001 771.231 686.48 771.766C685.945 772.294 685.317 772.718 684.626 773.015C683.181 773.608 681.56 773.608 680.116 773.015C679.429 772.71 678.802 772.287 678.262 771.766C677.74 771.227 677.317 770.601 677.011 769.916ZM637.275 768.021C637.27 768.753 637.406 769.479 637.677 770.16C637.949 770.797 638.335 771.379 638.817 771.877C639.322 772.385 639.924 772.787 640.587 773.059C641.251 773.331 641.962 773.467 642.679 773.46C643.394 773.472 644.103 773.328 644.755 773.037C645.348 772.755 645.874 772.353 646.301 771.856C646.741 771.338 647.074 770.74 647.284 770.094C647.525 769.407 647.647 768.682 647.642 767.954V759.437C647.64 759.114 647.709 758.794 647.843 758.5C647.968 758.214 648.15 757.957 648.378 757.743C648.611 757.523 648.883 757.348 649.181 757.229C649.476 757.096 649.796 757.028 650.12 757.028C650.436 757.026 650.749 757.095 651.035 757.229C651.323 757.342 651.583 757.518 651.795 757.743C652.02 757.954 652.196 758.212 652.308 758.5C652.427 758.798 652.488 759.116 652.487 759.437V767.886C652.495 769.265 652.245 770.634 651.749 771.921C651.297 773.146 650.615 774.273 649.74 775.243C648.866 776.188 647.81 776.946 646.635 777.473C645.393 778.03 644.045 778.311 642.683 778.297C641.301 778.307 639.931 778.032 638.659 777.49C636.212 776.415 634.271 774.445 633.234 771.984C632.695 770.723 632.421 769.364 632.43 767.993V759.437C632.429 759.116 632.489 758.798 632.607 758.5C632.731 758.218 632.906 757.962 633.122 757.743C633.339 757.524 633.596 757.349 633.88 757.229C634.182 757.095 634.51 757.026 634.841 757.028C635.164 757.028 635.484 757.096 635.78 757.229C636.072 757.346 636.338 757.521 636.561 757.743C636.786 757.955 636.961 758.213 637.074 758.5C637.207 758.794 637.276 759.114 637.275 759.437V768.021Z" fill="url(#paint3_linear_1966_26885)"/>
</g>
<defs>
<linearGradient id="paint0_linear_1966_26885" x1="80" y1="87" x2="409.914" y2="237.702" gradientUnits="userSpaceOnUse">
<stop stop-color="#F2906F"/>
<stop offset="0.299721" stop-color="#E75C76"/>
<stop offset="0.648425" stop-color="#AA69D9"/>
<stop offset="1" stop-color="#2F70E0"/>
</linearGradient>
<linearGradient id="paint1_linear_1966_26885" x1="650.5" y1="194" x2="650.5" y2="360" gradientUnits="userSpaceOnUse">
<stop stop-color="white"/>
<stop offset="1" stop-color="white" stop-opacity="0"/>
</linearGradient>
<linearGradient id="paint2_linear_1966_26885" x1="648.5" y1="0" x2="648.5" y2="176" gradientUnits="userSpaceOnUse">
<stop stop-color="white"/>
<stop offset="1" stop-color="white" stop-opacity="0"/>
</linearGradient>
<linearGradient id="paint3_linear_1966_26885" x1="607" y1="757" x2="692.836" y2="778.946" gradientUnits="userSpaceOnUse">
<stop stop-color="#F2906F"/>
<stop offset="0.299721" stop-color="#E75C76"/>
<stop offset="0.648425" stop-color="#AA69D9"/>
<stop offset="1" stop-color="#2F70E0"/>
</linearGradient>
<clipPath id="clip0_1966_26885">
<rect width="1300" height="800" rx="40" fill="white"/>
</clipPath>
</defs>
</svg>
