<svg width="1300" height="800" viewBox="0 0 1300 800" fill="none" xmlns="http://www.w3.org/2000/svg">
<g clip-path="url(#clip0_1966_26669)">
<rect width="1300" height="800" rx="40" fill="white"/>
<path d="M1010 223H291V342H1010V223Z" fill="#EAE9FF"/>
<path d="M410 223H291V626H410V223Z" fill="#EAE9FF"/>
<path d="M1011 223H891V626H1011V223Z" fill="#EAE9FF"/>
<path d="M1010 507H291V626H1010V507Z" fill="#EAE9FF"/>
<g opacity="0.3">
<path d="M290.737 282.611C290.672 274.655 292.292 266.775 295.49 259.49C298.548 252.404 302.913 245.957 308.358 240.488C313.778 235.075 320.182 230.749 327.226 227.742C334.535 224.613 342.403 223 350.353 223C358.304 223 366.171 224.613 373.48 227.742C380.546 230.71 386.957 235.041 392.348 240.488C397.783 245.94 402.111 252.393 405.094 259.49C408.287 266.777 409.907 274.655 409.848 282.611V328.351C409.86 330.203 409.477 332.036 408.723 333.728C408.075 335.37 407.093 336.86 405.839 338.103C404.544 339.381 403.018 340.401 401.342 341.109C399.651 341.863 397.817 342.246 395.965 342.234C392.956 342.313 390.022 341.287 387.717 339.35C386.399 338.238 385.304 336.886 384.491 335.366C383.74 333.89 383.322 332.267 383.269 330.612V330.612C378.549 334.205 373.329 337.087 367.773 339.166C362.219 341.258 356.331 342.318 350.396 342.295C342.454 342.34 334.587 340.764 327.275 337.663C313.015 331.469 301.653 320.072 295.503 305.793C292.308 298.484 290.684 290.587 290.737 282.611V282.611ZM317.854 282.611C317.834 286.944 318.686 291.237 320.359 295.234C323.685 303.053 329.908 309.28 337.724 312.612C345.811 315.936 354.883 315.936 362.971 312.612C366.842 310.957 370.363 308.581 373.346 305.609C376.266 302.61 378.599 299.091 380.226 295.234C381.872 291.231 382.703 286.939 382.67 282.611C382.701 274.009 379.332 265.743 373.297 259.612C370.342 256.664 366.832 254.33 362.971 252.745C358.998 250.981 354.694 250.085 350.347 250.117C346.002 250.106 341.703 251.001 337.724 252.745C329.882 255.968 323.638 262.169 320.359 269.987C318.671 273.98 317.819 278.276 317.854 282.611V282.611Z" fill="#005AE0"/>
<path d="M891.961 282.611C891.897 274.655 893.517 266.775 896.715 259.49C899.773 252.404 904.138 245.957 909.583 240.488C915.003 235.075 921.407 230.749 928.451 227.742C935.76 224.613 943.628 223 951.578 223C959.528 223 967.396 224.613 974.705 227.742C981.77 230.71 988.182 235.041 993.573 240.488C999.008 245.94 1003.34 252.393 1006.32 259.49C1009.51 266.777 1011.13 274.655 1011.07 282.611V328.351C1011.08 330.203 1010.7 332.036 1009.95 333.728C1009.3 335.37 1008.32 336.86 1007.06 338.103C1005.77 339.381 1004.24 340.401 1002.57 341.109C1000.88 341.863 999.042 342.246 997.19 342.234C994.18 342.313 991.246 341.287 988.941 339.35C987.624 338.238 986.529 336.886 985.715 335.366C984.964 333.89 984.547 332.267 984.493 330.612V330.612C979.774 334.205 974.553 337.087 968.998 339.166C963.444 341.258 957.555 342.318 951.621 342.295C943.679 342.34 935.811 340.764 928.5 337.663C914.24 331.469 902.878 320.072 896.727 305.793C893.533 298.484 891.909 290.587 891.961 282.611V282.611ZM919.078 282.611C919.059 286.944 919.91 291.237 921.583 295.234C924.909 303.053 931.132 309.28 938.948 312.612C947.036 315.936 956.108 315.936 964.195 312.612C968.067 310.957 971.588 308.581 974.57 305.609C977.491 302.61 979.824 299.091 981.45 295.234C983.097 291.231 983.928 286.939 983.894 282.611C983.925 274.009 980.556 265.743 974.521 259.612C971.566 256.664 968.057 254.33 964.195 252.745C960.222 250.981 955.919 250.085 951.572 250.117C947.227 250.106 942.928 251.001 938.948 252.745C931.107 255.968 924.862 262.169 921.583 269.987C919.896 273.98 919.043 278.276 919.078 282.611V282.611Z" fill="#005AE0"/>
<path d="M891.961 566.611C891.897 558.655 893.517 550.775 896.715 543.49C899.773 536.404 904.138 529.957 909.583 524.488C915.003 519.075 921.407 514.749 928.451 511.742C935.76 508.613 943.628 507 951.578 507C959.528 507 967.396 508.613 974.705 511.742C981.77 514.71 988.182 519.041 993.573 524.488C999.008 529.94 1003.34 536.393 1006.32 543.49C1009.51 550.777 1011.13 558.655 1011.07 566.611V612.351C1011.08 614.203 1010.7 616.036 1009.95 617.728C1009.3 619.37 1008.32 620.86 1007.06 622.103C1005.77 623.381 1004.24 624.401 1002.57 625.109C1000.88 625.863 999.042 626.246 997.19 626.234C994.18 626.313 991.246 625.287 988.941 623.35C987.624 622.238 986.529 620.886 985.715 619.366C984.964 617.89 984.547 616.267 984.493 614.612V614.612C979.774 618.205 974.553 621.087 968.998 623.166C963.444 625.258 957.555 626.318 951.621 626.295C943.679 626.34 935.811 624.764 928.5 621.663C914.24 615.469 902.878 604.072 896.727 589.793C893.533 582.484 891.909 574.587 891.961 566.611V566.611ZM919.078 566.611C919.059 570.944 919.91 575.237 921.583 579.234C924.909 587.053 931.132 593.28 938.948 596.612C947.036 599.936 956.108 599.936 964.195 596.612C968.067 594.957 971.588 592.581 974.57 589.609C977.491 586.61 979.824 583.091 981.45 579.234C983.097 575.231 983.928 570.939 983.894 566.611C983.925 558.009 980.556 549.743 974.521 543.612C971.566 540.664 968.057 538.33 964.195 536.745C960.222 534.981 955.919 534.085 951.572 534.117C947.227 534.106 942.928 535.001 938.948 536.745C931.107 539.968 924.862 546.169 921.583 553.987C919.896 557.98 919.043 562.276 919.078 566.611V566.611Z" fill="#005AE0"/>
<path d="M290.737 566.611C290.672 558.655 292.292 550.775 295.49 543.49C298.548 536.404 302.913 529.957 308.358 524.488C313.778 519.075 320.182 514.749 327.226 511.742C334.535 508.613 342.403 507 350.353 507C358.304 507 366.171 508.613 373.48 511.742C380.546 514.71 386.957 519.041 392.348 524.488C397.783 529.94 402.111 536.393 405.094 543.49C408.287 550.777 409.907 558.655 409.848 566.611V612.351C409.86 614.203 409.477 616.036 408.723 617.728C408.075 619.37 407.093 620.86 405.839 622.103C404.544 623.381 403.018 624.401 401.342 625.109C399.651 625.863 397.817 626.246 395.965 626.234C392.956 626.313 390.022 625.287 387.717 623.35C386.399 622.238 385.304 620.886 384.491 619.366C383.74 617.89 383.322 616.267 383.269 614.612V614.612C378.549 618.205 373.329 621.087 367.773 623.166C362.219 625.258 356.331 626.318 350.396 626.295C342.454 626.34 334.587 624.764 327.275 621.663C313.015 615.469 301.653 604.072 295.503 589.793C292.308 582.484 290.684 574.587 290.737 566.611V566.611ZM317.854 566.611C317.834 570.944 318.686 575.237 320.359 579.234C323.685 587.053 329.908 593.28 337.724 596.612C345.811 599.936 354.883 599.936 362.971 596.612C366.842 594.957 370.363 592.581 373.346 589.609C376.266 586.61 378.599 583.091 380.226 579.234C381.872 575.231 382.703 570.939 382.67 566.611C382.701 558.009 379.332 549.743 373.297 543.612C370.342 540.664 366.832 538.33 362.971 536.745C358.998 534.981 354.694 534.085 350.347 534.117C346.002 534.106 341.703 535.001 337.724 536.745C329.882 539.968 323.638 546.169 320.359 553.987C318.671 557.98 317.819 562.276 317.854 566.611V566.611Z" fill="#005AE0"/>
</g>
<path d="M1220 460.375L80 460.375" stroke="#BEC9FF" stroke-width="0.704613" stroke-miterlimit="10"/>
<path d="M1220 507L80 507" stroke="#BEC9FF" stroke-width="0.704613" stroke-miterlimit="10"/>
<path d="M1220 342.375L80 342.375" stroke="#BEC9FF" stroke-width="0.704613" stroke-miterlimit="10"/>
<path d="M1220 223.375L80 223.375" stroke="#BEC9FF" stroke-width="0.704613" stroke-miterlimit="10"/>
<path d="M1220 626L80 626" stroke="#BEC9FF" stroke-width="0.704613" stroke-miterlimit="10"/>
<path d="M469.042 433.947C486.954 433.947 501.475 419.427 501.475 401.515C501.475 383.603 486.954 369.082 469.042 369.082C451.13 369.082 436.61 383.603 436.61 401.515C436.61 419.427 451.13 433.947 469.042 433.947Z" stroke="#BEC9FF" stroke-width="0.704613" stroke-miterlimit="10"/>
<path d="M409.493 401.466C409.428 393.51 411.048 385.631 414.247 378.346C417.304 371.259 421.67 364.813 427.115 359.343C432.534 353.931 438.939 349.605 445.983 346.597C453.292 343.469 461.159 341.855 469.11 341.855C477.06 341.855 484.928 343.469 492.237 346.597C499.302 349.565 505.713 353.896 511.105 359.343C516.539 364.796 520.868 371.248 523.85 378.346C527.043 385.633 528.663 393.511 528.604 401.466V447.207C528.616 449.059 528.233 450.892 527.48 452.584C526.832 454.226 525.849 455.716 524.596 456.959C523.301 458.236 521.775 459.256 520.099 459.965C518.407 460.718 516.574 461.101 514.722 461.089C511.712 461.168 508.778 460.142 506.473 458.205C505.155 457.093 504.061 455.741 503.247 454.221C502.496 452.745 502.079 451.123 502.025 449.468V449.468C497.305 453.061 492.085 455.943 486.53 458.022C480.976 460.113 475.087 461.173 469.152 461.15C461.211 461.196 453.343 459.62 446.032 456.519C431.772 450.324 420.409 438.927 414.259 424.648C411.064 417.34 409.441 409.442 409.493 401.466V401.466ZM436.61 401.466C436.59 405.8 437.442 410.093 439.115 414.09C442.441 421.908 448.664 428.135 456.48 431.467C464.567 434.792 473.64 434.792 481.727 431.467C485.598 429.812 489.119 427.436 492.102 424.465C495.022 421.466 497.356 417.947 498.982 414.09C500.629 410.087 501.459 405.795 501.426 401.466C501.457 392.864 498.088 384.598 492.053 378.468C489.098 375.52 485.588 373.186 481.727 371.6C477.754 369.836 473.45 368.94 469.104 368.973C464.759 368.961 460.459 369.856 456.48 371.6C448.638 374.824 442.394 381.024 439.115 388.843C437.428 392.836 436.575 397.132 436.61 401.466V401.466Z" fill="#005AE0"/>
<path d="M771.763 401.466C771.704 393.51 773.323 385.632 776.516 378.345C779.574 371.256 783.944 364.808 789.396 359.342C794.816 353.93 801.22 349.604 808.264 346.597C815.561 343.441 823.436 341.843 831.385 341.904C839.34 341.841 847.218 343.457 854.506 346.646C861.573 349.611 867.985 353.942 873.374 359.391C878.813 364.843 883.145 371.296 886.132 378.394C889.321 385.682 890.937 393.56 890.873 401.515V447.255C890.828 450.902 889.4 454.396 886.877 457.031C885.582 458.309 884.056 459.329 882.38 460.037C880.688 460.789 878.855 461.173 877.003 461.162C873.992 461.25 871.055 460.223 868.755 458.278C867.434 457.166 866.335 455.814 865.516 454.294C864.771 452.816 864.354 451.194 864.294 449.54C859.572 453.129 854.352 456.01 848.799 458.094C843.245 460.186 837.356 461.246 831.422 461.223C823.48 461.27 815.612 459.694 808.301 456.591C794.045 450.392 782.684 438.996 776.528 424.721C773.33 417.388 771.706 409.466 771.763 401.466V401.466ZM798.892 401.466C798.858 405.794 799.689 410.086 801.336 414.089C804.673 421.921 810.921 428.151 818.762 431.466C826.849 434.791 835.921 434.791 844.009 431.466C847.889 429.847 851.413 427.479 854.378 424.497C857.342 421.516 859.691 417.979 861.288 414.089C862.94 410.088 863.771 405.795 863.732 401.466C863.826 395.082 861.994 388.818 858.476 383.491C854.958 378.164 849.916 374.02 844.009 371.599C840.035 369.837 835.732 368.942 831.385 368.972C827.04 368.959 822.741 369.854 818.762 371.599C810.922 374.822 804.682 381.024 801.409 388.842C799.724 392.836 798.867 397.131 798.892 401.466V401.466Z" fill="#005AE0"/>
<path d="M579 403.471C578.911 407.462 579.622 411.432 581.091 415.144C582.56 418.857 584.758 422.238 587.554 425.088C590.322 427.847 593.59 430.053 597.184 431.589C600.982 433.184 605.065 433.99 609.184 433.96C613.185 434.033 617.153 433.224 620.805 431.589C624.111 430.022 627.05 427.778 629.433 425.003C631.882 422.095 633.749 418.742 634.932 415.129C636.28 411.273 636.954 407.213 636.924 403.128V355.347C636.921 353.54 637.304 351.752 638.048 350.105C638.756 348.501 639.778 347.055 641.054 345.852C642.359 344.62 643.885 343.646 645.552 342.98C647.201 342.23 648.994 341.847 650.806 341.856C654.326 341.944 657.678 343.374 660.179 345.852C661.441 347.038 662.422 348.491 663.051 350.105C663.716 351.772 664.056 353.552 664.053 355.347V402.713C664.1 410.449 662.699 418.125 659.923 425.345C657.388 432.205 653.573 438.521 648.68 443.956C643.787 449.25 637.877 453.502 631.303 456.458C624.354 459.59 616.806 461.17 609.184 461.089C601.455 461.144 593.797 459.609 586.686 456.58C572.983 450.561 562.113 439.511 556.319 425.711C553.299 418.645 551.764 411.033 551.81 403.348V355.347C551.807 353.552 552.147 351.772 552.812 350.105C553.503 348.525 554.477 347.084 555.684 345.852C556.902 344.629 558.346 343.653 559.936 342.98C561.627 342.223 563.461 341.839 565.313 341.856C567.125 341.848 568.918 342.231 570.568 342.98C572.206 343.63 573.695 344.607 574.943 345.852C576.191 347.042 577.159 348.495 577.778 350.105C578.556 351.745 578.973 353.532 579 355.347V403.471Z" fill="#005AE0"/>
<path d="M714.389 447.55C714.371 451.097 712.983 454.499 710.515 457.045C709.316 458.237 707.918 459.209 706.384 459.917C704.763 460.596 703.021 460.937 701.264 460.919C699.385 460.928 697.52 460.589 695.765 459.917C694.156 459.212 692.677 458.241 691.39 457.045C690.139 455.876 689.123 454.478 688.396 452.927C687.638 451.237 687.255 449.403 687.272 447.55V404.229C687.224 395.898 688.888 387.646 692.16 379.984C695.374 372.572 699.955 365.831 705.663 360.114C711.367 354.421 718.113 349.878 725.533 346.733C733.137 343.402 741.355 341.699 749.656 341.735H749.913C754.41 341.735 757.864 343.026 760.276 345.609C761.525 346.873 762.503 348.379 763.148 350.035C763.793 351.691 764.093 353.462 764.027 355.238C764.044 357.091 763.661 358.925 762.903 360.615C762.166 362.269 761.101 363.757 759.775 364.99C758.451 366.197 756.93 367.169 755.278 367.862C753.569 368.534 751.748 368.874 749.913 368.864H749.656C744.975 368.85 740.34 369.786 736.031 371.613C731.881 373.38 728.107 375.923 724.91 379.105C721.715 382.318 719.131 386.086 717.285 390.225C715.362 394.509 714.383 399.155 714.413 403.851L714.389 447.55Z" fill="#005AE0"/>
<path d="M409.717 489.131V462.442C409.714 461.878 409.818 461.318 410.022 460.793C410.233 460.295 410.526 459.836 410.89 459.436C411.255 459.026 411.705 458.7 412.21 458.483C412.718 458.261 413.268 458.149 413.823 458.153C414.382 458.143 414.937 458.255 415.448 458.483C415.921 458.684 416.339 458.994 416.67 459.387C417.054 459.771 417.35 460.234 417.538 460.744C417.748 461.268 417.851 461.829 417.843 462.393V474.125C419.267 473.2 420.813 472.48 422.438 471.986C426.437 470.74 430.75 470.965 434.597 472.622C436.766 473.53 438.735 474.859 440.389 476.532C442.043 478.204 443.35 480.187 444.234 482.367C445.119 484.546 445.564 486.879 445.544 489.231C445.524 491.583 445.038 493.908 444.116 496.072C443.224 498.211 441.92 500.154 440.279 501.791C438.652 503.436 436.723 504.751 434.597 505.665C430.136 507.506 425.127 507.506 420.666 505.665C416.355 503.814 412.917 500.381 411.061 496.072C410.128 493.873 409.654 491.507 409.668 489.119L409.717 489.131ZM417.892 489.131C417.888 490.436 418.146 491.728 418.65 492.931C419.65 495.313 421.552 497.202 423.941 498.186C425.145 498.686 426.437 498.944 427.741 498.944C429.046 498.944 430.337 498.686 431.542 498.186C432.694 497.684 433.743 496.971 434.633 496.084C435.525 495.169 436.227 494.087 436.699 492.9C437.171 491.713 437.403 490.445 437.383 489.168C437.392 487.866 437.134 486.577 436.625 485.379C436.147 484.203 435.432 483.138 434.523 482.251C433.634 481.371 432.585 480.67 431.432 480.186C430.233 479.662 428.939 479.392 427.631 479.392C426.323 479.392 425.029 479.662 423.831 480.186C422.67 480.676 421.61 481.376 420.703 482.251C419.828 483.151 419.132 484.209 418.65 485.367C418.139 486.569 417.882 487.862 417.892 489.168V489.131Z" fill="#005AE0"/>
<path d="M457.999 492.824C458.32 493.744 458.786 494.606 459.38 495.378C459.98 496.122 460.679 496.779 461.457 497.334C462.244 497.864 463.104 498.275 464.011 498.556C464.967 498.839 465.959 498.979 466.956 498.971C469.177 499.1 471.363 498.374 473.066 496.943C473.696 496.467 474.428 496.145 475.205 496.002C475.847 495.901 476.504 495.951 477.123 496.148C477.55 496.303 477.938 496.549 478.26 496.869C478.6 497.16 478.893 497.502 479.127 497.883C479.375 498.287 479.553 498.729 479.653 499.191C479.775 499.645 479.8 500.12 479.726 500.584C479.665 501.085 479.512 501.569 479.274 502.014C479.014 502.491 478.656 502.908 478.223 503.236C477.628 503.764 476.999 504.254 476.341 504.702C475.57 505.191 474.751 505.601 473.897 505.924C472.9 506.3 471.868 506.578 470.818 506.755C469.552 506.987 468.267 507.098 466.98 507.085C464.577 507.101 462.196 506.631 459.978 505.704C455.674 503.863 452.237 500.443 450.373 496.148C449.43 493.939 448.944 491.561 448.944 489.158C448.944 486.756 449.43 484.378 450.373 482.168C452.231 477.881 455.672 474.475 459.978 472.661C462.18 471.73 464.547 471.25 466.938 471.25C469.328 471.25 471.695 471.73 473.897 472.661C476.029 473.551 477.974 474.837 479.628 476.449C481.288 478.044 482.617 479.95 483.539 482.058C484.495 484.232 485.006 486.576 485.042 488.951C485.06 489.471 484.969 489.99 484.776 490.474C484.582 490.958 484.29 491.397 483.917 491.761C483.529 492.122 483.073 492.401 482.576 492.584C482.079 492.766 481.55 492.848 481.021 492.824H457.999ZM476.598 486.054C476.336 485.049 475.883 484.103 475.266 483.268C474.676 482.452 473.953 481.742 473.127 481.166C472.285 480.585 471.358 480.14 470.378 479.847C469.325 479.543 468.235 479.39 467.139 479.394C466.029 479.391 464.925 479.556 463.864 479.883C462.887 480.201 461.961 480.658 461.115 481.24C460.311 481.817 459.613 482.528 459.05 483.342C458.479 484.163 458.065 485.083 457.828 486.054H476.598Z" fill="#005AE0"/>
<path d="M514.932 489.815C514.925 491.022 515.158 492.218 515.617 493.335C516.076 494.451 516.753 495.464 517.608 496.316C518.458 497.129 519.453 497.776 520.541 498.223C521.706 498.688 522.952 498.92 524.207 498.907C525.433 498.916 526.648 498.67 527.775 498.186C528.865 497.718 529.853 497.041 530.683 496.194C531.516 495.336 532.179 494.329 532.639 493.225C533.123 492.064 533.364 490.816 533.347 489.559V475.75C533.348 475.218 533.465 474.692 533.69 474.21C533.91 473.72 534.216 473.273 534.594 472.89C534.972 472.52 535.421 472.229 535.914 472.035C536.42 471.804 536.97 471.687 537.527 471.693C538.063 471.686 538.595 471.803 539.079 472.035C539.544 472.227 539.961 472.519 540.301 472.89C541.067 473.646 541.506 474.673 541.523 475.75V489.73C541.53 491.729 541.187 493.714 540.508 495.595C539.842 497.394 538.902 499.08 537.722 500.593C536.531 502.079 535.107 503.363 533.506 504.394C531.871 505.424 530.074 506.171 528.191 506.606V515.257C528.194 515.812 528.082 516.362 527.861 516.87C527.666 517.355 527.37 517.793 526.993 518.154C526.615 518.528 526.166 518.823 525.673 519.021C525.19 519.241 524.665 519.354 524.133 519.351C523.59 519.37 523.049 519.277 522.543 519.078C522.037 518.879 521.578 518.578 521.193 518.194C520.808 517.811 520.506 517.352 520.306 516.847C520.105 516.342 520.01 515.801 520.028 515.257V506.569C518.156 506.109 516.375 505.337 514.761 504.284C511.554 502.192 509.11 499.118 507.795 495.522C507.131 493.663 506.796 491.703 506.805 489.73V475.75C506.805 475.222 506.909 474.698 507.111 474.21C507.327 473.726 507.62 473.28 507.978 472.89C508.33 472.532 508.744 472.242 509.201 472.035C509.695 471.815 510.229 471.697 510.77 471.688C511.311 471.679 511.849 471.779 512.35 471.982C512.852 472.185 513.308 472.487 513.69 472.87C514.073 473.252 514.375 473.708 514.577 474.21C514.808 474.69 514.926 475.217 514.92 475.75L514.932 489.815Z" fill="#005AE0"/>
<path d="M554.696 489.166C554.687 490.471 554.945 491.764 555.453 492.967C556.447 495.323 558.325 497.196 560.683 498.185C561.888 498.685 563.18 498.942 564.484 498.942C565.788 498.942 567.08 498.685 568.284 498.185C569.451 497.689 570.513 496.976 571.413 496.083C572.289 495.181 572.989 494.125 573.478 492.967C573.981 491.763 574.239 490.471 574.236 489.166C574.231 486.581 573.219 484.099 571.413 482.25C570.514 481.364 569.452 480.663 568.284 480.184C567.088 479.652 565.793 479.381 564.484 479.39C563.175 479.387 561.881 479.657 560.683 480.184C559.523 480.675 558.462 481.375 557.555 482.25C556.662 483.149 555.949 484.211 555.453 485.378C554.939 486.574 554.681 487.864 554.696 489.166V489.166ZM546.52 489.166C546.501 486.772 546.993 484.402 547.962 482.213C548.881 480.083 550.195 478.146 551.836 476.506C553.464 474.871 555.394 473.568 557.518 472.669C560.797 471.279 564.417 470.902 567.912 471.586C571.407 472.27 574.618 473.983 577.132 476.506C578.77 478.141 580.073 480.079 580.969 482.213C581.912 484.41 582.399 486.775 582.399 489.166C582.399 491.557 581.912 493.923 580.969 496.119C580.077 498.259 578.773 500.202 577.132 501.838C575.505 503.484 573.575 504.799 571.449 505.712C566.988 507.553 561.98 507.553 557.518 505.712C555.399 504.787 553.472 503.473 551.836 501.838C550.192 500.197 548.877 498.255 547.962 496.119C546.975 493.934 546.463 491.564 546.459 489.166H546.52Z" fill="#005AE0"/>
<path d="M595.523 489.767C595.507 491.021 595.735 492.266 596.195 493.433C596.657 494.505 597.307 495.486 598.114 496.329C598.97 497.18 599.987 497.854 601.105 498.311C602.222 498.768 603.42 499 604.627 498.993C605.835 499.011 607.032 498.765 608.134 498.272C609.132 497.803 610.016 497.123 610.725 496.28C611.472 495.411 612.037 494.402 612.387 493.31C612.794 492.153 612.997 490.933 612.986 489.705V475.75C612.981 475.206 613.098 474.667 613.328 474.174C613.546 473.711 613.853 473.295 614.232 472.952C614.628 472.586 615.088 472.296 615.589 472.096C616.082 471.867 616.621 471.75 617.165 471.754C617.698 471.748 618.225 471.865 618.705 472.096C619.189 472.285 619.627 472.577 619.988 472.952C620.363 473.291 620.659 473.708 620.855 474.174C621.055 474.675 621.159 475.21 621.161 475.75V489.547C621.183 491.872 620.768 494.181 619.939 496.353C619.174 498.416 618.026 500.315 616.554 501.95C615.04 503.593 613.199 504.899 611.149 505.786C609.099 506.672 606.885 507.118 604.652 507.095C602.327 507.111 600.024 506.654 597.882 505.75C595.839 504.852 593.986 503.575 592.419 501.987C590.863 500.39 589.62 498.517 588.753 496.463C587.844 494.336 587.382 492.044 587.397 489.73V475.75C587.393 475.21 587.497 474.674 587.702 474.174C587.915 473.717 588.209 473.303 588.57 472.952C588.918 472.59 589.333 472.3 589.792 472.096C590.302 471.865 590.857 471.748 591.417 471.754C591.962 471.75 592.5 471.867 592.994 472.096C593.486 472.29 593.935 472.581 594.313 472.952C594.688 473.291 594.985 473.708 595.181 474.174C595.404 474.669 595.521 475.207 595.523 475.75V489.767Z" fill="#005AE0"/>
<path d="M635.959 502.621C635.966 503.181 635.849 503.737 635.617 504.246C635.426 504.706 635.143 505.122 634.786 505.468C634.436 505.831 634.021 506.125 633.564 506.336C633.071 506.535 632.544 506.635 632.012 506.629C631.46 506.639 630.911 506.536 630.401 506.326C629.89 506.115 629.428 505.803 629.043 505.407C628.668 505.059 628.361 504.645 628.138 504.185C627.912 503.673 627.795 503.12 627.796 502.56V490.426C627.774 487.905 628.278 485.408 629.275 483.093C630.246 480.868 631.622 478.842 633.332 477.118C635.053 475.408 637.086 474.044 639.32 473.097C641.611 472.093 644.088 471.581 646.591 471.594H646.664C647.236 471.558 647.809 471.642 648.346 471.842C648.883 472.042 649.372 472.353 649.78 472.755C650.157 473.135 650.452 473.588 650.648 474.086C650.843 474.584 650.935 475.117 650.916 475.651C650.922 476.208 650.805 476.758 650.574 477.264C650.354 477.764 650.033 478.213 649.633 478.584C649.234 478.948 648.775 479.241 648.277 479.452C647.762 479.65 647.215 479.749 646.664 479.745H646.591C645.206 479.744 643.834 480.016 642.555 480.547C641.276 481.078 640.114 481.856 639.136 482.837C638.174 483.8 637.396 484.931 636.839 486.173C636.261 487.464 635.965 488.864 635.971 490.279L635.959 502.621Z" fill="#005AE0"/>
<path d="M679.549 492.82C679.853 493.743 680.311 494.606 680.905 495.374C681.799 496.522 682.948 497.445 684.261 498.071C685.574 498.696 687.015 499.007 688.469 498.979C690.691 499.111 692.878 498.384 694.579 496.951C695.21 496.477 695.942 496.155 696.718 496.01C697.364 495.91 698.025 495.96 698.649 496.156C699.072 496.311 699.456 496.557 699.773 496.877C700.117 497.165 700.41 497.508 700.641 497.892C700.888 498.295 701.066 498.737 701.166 499.199C701.288 499.653 701.313 500.128 701.239 500.592C701.185 501.094 701.031 501.58 700.787 502.022C700.532 502.502 700.173 502.92 699.736 503.244C699.143 503.776 698.515 504.266 697.854 504.711C697.083 505.2 696.264 505.609 695.41 505.933C694.409 506.308 693.374 506.586 692.319 506.764C691.053 506.996 689.768 507.106 688.482 507.093C686.079 507.108 683.697 506.638 681.48 505.713C677.183 503.859 673.75 500.444 671.875 496.156C670.931 493.947 670.445 491.569 670.445 489.167C670.445 486.764 670.931 484.386 671.875 482.177C672.791 480.053 674.111 478.127 675.761 476.507C677.397 474.865 679.34 473.562 681.48 472.669C683.684 471.738 686.052 471.258 688.445 471.258C690.838 471.258 693.206 471.738 695.41 472.669C697.537 473.564 699.477 474.849 701.129 476.458C702.793 478.048 704.123 479.955 705.04 482.067C705.998 484.249 706.513 486.6 706.555 488.983C706.577 489.506 706.487 490.027 706.291 490.512C706.095 490.996 705.798 491.434 705.419 491.794C705.031 492.155 704.575 492.436 704.078 492.618C703.581 492.801 703.052 492.882 702.523 492.857L679.549 492.82ZM698.148 486.05C697.88 485.049 697.433 484.105 696.828 483.264C696.231 482.451 695.504 481.741 694.677 481.162C693.824 480.578 692.884 480.132 691.891 479.843C690.839 479.538 689.748 479.386 688.653 479.391C687.543 479.387 686.438 479.552 685.378 479.879C684.401 480.197 683.475 480.654 682.628 481.236C681.828 481.817 681.13 482.527 680.563 483.338C679.981 484.161 679.547 485.079 679.28 486.05H698.148Z" fill="#005AE0"/>
<path d="M745.085 502.707C745.09 503.264 744.974 503.815 744.742 504.321C744.544 504.773 744.266 505.187 743.924 505.543C743.559 505.907 743.122 506.19 742.641 506.374C742.152 506.576 741.629 506.679 741.101 506.679C740.545 506.68 739.993 506.577 739.476 506.374C738.987 506.183 738.539 505.901 738.156 505.543C737.787 505.19 737.481 504.777 737.252 504.321C737.03 503.812 736.918 503.262 736.922 502.707V488.715C736.906 488.565 736.906 488.414 736.922 488.263C736.877 487.071 736.608 485.897 736.127 484.805C735.698 483.759 735.071 482.805 734.282 481.994C733.518 481.186 732.594 480.545 731.569 480.113C730.494 479.628 729.327 479.382 728.148 479.392C726.929 479.381 725.722 479.627 724.604 480.113C723.55 480.548 722.6 481.202 721.818 482.031C721.042 482.891 720.43 483.885 720.009 484.964C719.577 486.103 719.361 487.314 719.374 488.532V502.707C719.38 503.26 719.276 503.808 719.068 504.321C718.865 504.779 718.574 505.194 718.213 505.543C717.866 505.9 717.45 506.182 716.991 506.374C716.499 506.576 715.971 506.68 715.439 506.679C714.899 506.677 714.364 506.573 713.862 506.374C713.365 506.178 712.906 505.897 712.506 505.543C712.137 505.19 711.831 504.777 711.602 504.321C711.38 503.812 711.268 503.262 711.272 502.707V488.532C711.218 483.972 712.976 479.577 716.16 476.312C717.699 474.75 719.53 473.504 721.549 472.646C723.663 471.735 725.943 471.273 728.245 471.29C730.493 471.271 732.721 471.711 734.793 472.583C736.865 473.455 738.737 474.74 740.294 476.361C743.426 479.66 745.175 484.033 745.182 488.581V502.756L745.085 502.707Z" fill="#005AE0"/>
<path d="M759.028 492.825C759.341 493.743 759.799 494.605 760.384 495.379C760.98 496.122 761.675 496.78 762.45 497.334C763.242 497.862 764.106 498.274 765.016 498.556C765.968 498.838 766.956 498.978 767.949 498.972C770.17 499.105 772.358 498.379 774.059 496.943C774.693 496.467 775.429 496.144 776.209 496.002C776.852 495.902 777.508 495.952 778.128 496.149C778.553 496.3 778.937 496.547 779.252 496.87C779.599 497.154 779.893 497.497 780.12 497.884C780.373 498.284 780.551 498.727 780.645 499.191C780.778 499.644 780.807 500.12 780.731 500.585C780.665 501.084 780.512 501.568 780.279 502.014C780.015 502.492 779.652 502.909 779.216 503.236C778.625 503.771 777.996 504.261 777.334 504.703C776.564 505.195 775.745 505.604 774.89 505.925C773.889 506.302 772.853 506.58 771.798 506.756C770.532 506.988 769.248 507.099 767.961 507.086C765.558 507.099 763.177 506.629 760.959 505.705C758.827 504.783 756.887 503.469 755.24 501.831C753.602 500.198 752.287 498.27 751.366 496.149C750.423 493.939 749.937 491.561 749.937 489.159C749.937 486.756 750.423 484.379 751.366 482.169C753.224 477.886 756.659 474.482 760.959 472.662C763.163 471.73 765.531 471.25 767.924 471.25C770.317 471.25 772.686 471.73 774.89 472.662C777.019 473.55 778.96 474.836 780.609 476.45C782.276 478.04 783.61 479.947 784.531 482.059C785.491 484.24 786.002 486.593 786.034 488.976C786.053 489.496 785.962 490.015 785.768 490.499C785.575 490.983 785.283 491.421 784.91 491.786C784.52 492.148 784.063 492.428 783.563 492.611C783.064 492.793 782.533 492.874 782.002 492.849L759.028 492.825ZM777.627 486.055C777.359 485.054 776.912 484.11 776.307 483.269C775.714 482.456 774.992 481.746 774.169 481.167C773.316 480.582 772.375 480.137 771.383 479.847C770.33 479.544 769.24 479.392 768.144 479.395C767.034 479.392 765.93 479.556 764.869 479.884C763.89 480.196 762.963 480.653 762.12 481.24C761.312 481.817 760.61 482.528 760.042 483.342C759.476 484.166 759.063 485.085 758.82 486.055H777.627Z" fill="#005AE0"/>
<path d="M798.975 502.621C798.976 503.181 798.86 503.734 798.633 504.246C798.436 504.702 798.154 505.117 797.802 505.468C797.449 505.827 797.035 506.12 796.58 506.336C796.091 506.534 795.568 506.633 795.04 506.629C794.488 506.639 793.94 506.535 793.429 506.325C792.919 506.115 792.456 505.803 792.071 505.407C791.693 505.062 791.386 504.647 791.167 504.185C790.934 503.675 790.817 503.12 790.825 502.56V490.425C790.804 487.906 791.304 485.41 792.291 483.093C793.263 480.865 794.643 478.838 796.36 477.117C798.082 475.408 800.114 474.043 802.348 473.097C804.636 472.094 807.109 471.582 809.607 471.594H809.692C810.264 471.558 810.837 471.643 811.374 471.843C811.911 472.043 812.4 472.354 812.808 472.755C813.185 473.135 813.481 473.587 813.676 474.086C813.872 474.584 813.963 475.116 813.945 475.651C813.945 476.207 813.828 476.756 813.603 477.264C813.378 477.761 813.058 478.209 812.662 478.584C812.262 478.948 811.803 479.241 811.305 479.452C810.791 479.65 810.244 479.749 809.692 479.745H809.607C808.2 479.742 806.807 480.024 805.513 480.576C804.258 481.107 803.118 481.875 802.153 482.836C801.194 483.803 800.416 484.933 799.855 486.173C799.281 487.465 798.99 488.865 799 490.279L798.975 502.621Z" fill="#005AE0"/>
<path d="M815.216 489.166C815.199 486.774 815.686 484.404 816.646 482.213C817.568 480.084 818.882 478.149 820.52 476.506C822.152 474.876 824.08 473.574 826.202 472.669C829.481 471.279 833.101 470.902 836.596 471.586C840.091 472.27 843.302 473.983 845.815 476.506C847.457 478.14 848.765 480.078 849.665 482.213C850.624 484.404 851.112 486.774 851.094 489.166C851.101 490.94 850.833 492.704 850.3 494.396C849.799 496.016 849.075 497.559 848.149 498.979C849.066 500.002 849.783 501.187 850.263 502.474C850.86 504.139 851.141 505.9 851.094 507.667C851.142 509.678 850.755 511.674 849.958 513.521C849.301 515.092 848.299 516.496 847.025 517.627C845.81 518.732 844.372 519.565 842.809 520.071C841.232 520.59 839.582 520.854 837.921 520.853C836.88 520.853 835.839 520.792 834.805 520.67C833.8 520.572 832.786 520.596 831.787 520.743C831.219 520.858 830.666 521.034 830.137 521.268C829.549 521.563 828.993 521.915 828.475 522.319C827.942 522.802 827.271 523.106 826.556 523.187C825.895 523.265 825.225 523.185 824.601 522.955C823.959 522.727 823.378 522.355 822.903 521.867C822.416 521.417 822.054 520.849 821.852 520.217C821.644 519.573 821.618 518.883 821.778 518.225C821.974 517.421 822.398 516.691 823 516.124C823.629 515.55 824.327 515.058 825.078 514.657C825.913 514.19 826.793 513.81 827.705 513.521C828.875 513.177 830.073 512.94 831.286 512.812C832.398 512.739 833.632 512.702 835.013 512.702C836.242 512.721 837.47 512.619 838.679 512.396C839.543 512.274 840.374 511.979 841.123 511.529C841.727 511.173 842.202 510.633 842.479 509.989C842.775 509.278 842.917 508.511 842.895 507.741C842.927 507.087 842.823 506.433 842.589 505.822C842.455 505.434 842.266 505.068 842.027 504.734C839.623 506.085 836.944 506.871 834.192 507.034C831.44 507.197 828.687 506.732 826.141 505.675C824.032 504.748 822.107 503.448 820.459 501.838C818.818 500.194 817.503 498.253 816.585 496.119C815.648 493.922 815.182 491.554 815.216 489.166V489.166ZM823.379 489.166C823.374 490.459 823.632 491.74 824.137 492.93C824.642 494.077 825.355 495.121 826.239 496.009C827.149 496.889 828.208 497.6 829.367 498.111C830.572 498.611 831.863 498.869 833.167 498.869C834.472 498.869 835.763 498.611 836.968 498.111C838.135 497.616 839.196 496.902 840.096 496.009C840.977 495.126 841.678 494.08 842.161 492.93C842.662 491.734 842.92 490.45 842.92 489.154C842.92 487.857 842.662 486.574 842.161 485.378C841.688 484.208 840.986 483.145 840.096 482.25C839.198 481.364 838.135 480.663 836.968 480.184C835.772 479.652 834.476 479.381 833.167 479.39C831.859 479.388 830.565 479.659 829.367 480.184C828.208 480.678 827.148 481.377 826.239 482.25C825.346 483.149 824.632 484.211 824.137 485.378C823.628 486.576 823.37 487.865 823.379 489.166V489.166Z" fill="#005AE0"/>
<path d="M864.561 489.815C864.551 491.052 864.792 492.279 865.269 493.42C865.724 494.505 866.391 495.489 867.23 496.313C868.07 497.138 869.065 497.787 870.157 498.223C871.323 498.688 872.569 498.92 873.823 498.907C875.05 498.915 876.265 498.669 877.392 498.186C878.482 497.718 879.47 497.041 880.3 496.194C881.133 495.336 881.796 494.329 882.255 493.225C882.739 492.064 882.981 490.816 882.964 489.559V475.75C882.965 475.218 883.082 474.692 883.306 474.21C883.527 473.72 883.833 473.273 884.211 472.89C884.589 472.52 885.038 472.229 885.53 472.035C886.036 471.804 886.587 471.687 887.143 471.693C887.68 471.687 888.211 471.804 888.695 472.035C889.16 472.227 889.578 472.519 889.917 472.89C890.684 473.646 891.123 474.673 891.139 475.75V489.73C891.147 491.729 890.803 493.714 890.125 495.595C889.458 497.394 888.519 499.08 887.339 500.593C886.148 502.079 884.724 503.363 883.123 504.394C881.487 505.424 879.691 506.171 877.807 506.606V515.257C877.811 515.812 877.699 516.362 877.477 516.87C877.283 517.355 876.987 517.793 876.61 518.154C876.232 518.528 875.783 518.823 875.29 519.021C874.807 519.241 874.281 519.354 873.75 519.351C873.207 519.37 872.666 519.277 872.16 519.078C871.654 518.879 871.195 518.578 870.81 518.194C870.425 517.811 870.123 517.352 869.922 516.847C869.722 516.342 869.627 515.801 869.644 515.257V506.569C867.769 506.108 865.985 505.336 864.365 504.284C862.78 503.245 861.37 501.963 860.186 500.483C859.001 498.989 858.064 497.314 857.412 495.522C856.748 493.663 856.413 491.703 856.422 489.73V475.75C856.422 475.222 856.526 474.698 856.728 474.21C856.943 473.726 857.236 473.28 857.595 472.89C857.964 472.526 858.4 472.236 858.878 472.035C859.373 471.815 859.907 471.697 860.448 471.688C860.989 471.679 861.526 471.779 862.028 471.982C862.53 472.185 862.986 472.487 863.368 472.87C863.751 473.252 864.052 473.708 864.255 474.21C864.486 474.69 864.603 475.217 864.597 475.75L864.561 489.815Z" fill="#005AE0"/>
<path d="M891 120V716" stroke="#BEC9FF" stroke-width="0.704613" stroke-miterlimit="10"/>
<path d="M1011 120V716" stroke="#BEC9FF" stroke-width="0.704613" stroke-miterlimit="10"/>
<path d="M291 120V716" stroke="#BEC9FF" stroke-width="0.704613" stroke-miterlimit="10"/>
<path d="M410 120V716" stroke="#BEC9FF" stroke-width="0.704613" stroke-miterlimit="10"/>
<rect x="80" y="697" width="545" height="200" transform="rotate(-90 80 697)" fill="url(#paint0_linear_1966_26669)"/>
<rect x="1220" y="152" width="545" height="200" transform="rotate(90 1220 152)" fill="url(#paint1_linear_1966_26669)"/>
<rect x="1309" y="723" width="1414" height="51.9999" transform="rotate(-180 1309 723)" fill="url(#paint2_linear_1966_26669)"/>
<rect x="-105" y="113" width="1414" height="72" fill="url(#paint3_linear_1966_26669)"/>
<path d="M94.96 129.616C92.32 129.616 89.9733 129.176 87.92 128.296C85.8667 127.387 84.2387 126.096 83.036 124.424C81.8333 122.752 81.1733 120.743 81.056 118.396H86.072C86.1893 119.863 86.5707 121.124 87.216 122.18C87.8613 123.207 88.8147 124.013 90.076 124.6C91.3373 125.187 92.9213 125.48 94.828 125.48C96.4413 125.48 97.732 125.275 98.7 124.864C99.6973 124.424 100.401 123.837 100.812 123.104C101.223 122.341 101.428 121.447 101.428 120.42C101.428 119.217 101.135 118.279 100.548 117.604C99.9907 116.9 99.2133 116.357 98.216 115.976C97.2187 115.595 95.664 115.14 93.552 114.612C93.3467 114.553 93.0387 114.48 92.628 114.392C90.4867 113.835 88.712 113.263 87.304 112.676C85.896 112.06 84.708 111.18 83.74 110.036C82.772 108.863 82.288 107.352 82.288 105.504C82.288 103.715 82.728 102.175 83.608 100.884C84.488 99.5933 85.7493 98.6107 87.392 97.936C89.064 97.2613 91.0293 96.924 93.288 96.924C95.664 96.924 97.7467 97.32 99.536 98.112C101.355 98.8747 102.777 100.004 103.804 101.5C104.86 102.996 105.461 104.8 105.608 106.912H100.592C100.299 104.976 99.5653 103.524 98.392 102.556C97.248 101.559 95.5613 101.06 93.332 101.06C91.3667 101.06 89.8707 101.412 88.844 102.116C87.8467 102.82 87.348 103.861 87.348 105.24C87.348 106.325 87.6413 107.191 88.228 107.836C88.8147 108.481 89.5627 108.98 90.472 109.332C91.4107 109.655 92.7013 110.021 94.344 110.432C94.4613 110.461 94.5787 110.491 94.696 110.52C94.784 110.549 94.872 110.579 94.96 110.608C97.5413 111.253 99.5947 111.884 101.12 112.5C102.675 113.116 103.951 114.04 104.948 115.272C105.975 116.504 106.488 118.132 106.488 120.156C106.488 122.004 106.063 123.647 105.212 125.084C104.361 126.492 103.071 127.607 101.34 128.428C99.6387 129.22 97.512 129.616 94.96 129.616ZM116.339 129.616C114.08 129.616 112.291 129.029 110.971 127.856C109.651 126.683 108.991 125.128 108.991 123.192C108.991 121.579 109.372 120.288 110.135 119.32C110.898 118.323 111.939 117.56 113.259 117.032C114.579 116.475 116.28 116.005 118.363 115.624C118.715 115.536 119.096 115.463 119.507 115.404C120.622 115.169 121.472 114.949 122.059 114.744C122.675 114.539 123.159 114.245 123.511 113.864C123.863 113.483 124.039 112.969 124.039 112.324C124.039 111.415 123.702 110.696 123.027 110.168C122.382 109.611 121.296 109.332 119.771 109.332C118.48 109.332 117.454 109.479 116.691 109.772C115.958 110.036 115.415 110.476 115.063 111.092C114.74 111.708 114.535 112.529 114.447 113.556H110.047C110.164 111.239 111.03 109.376 112.643 107.968C114.256 106.56 116.691 105.856 119.947 105.856C122.47 105.856 124.479 106.472 125.975 107.704C127.5 108.907 128.263 110.872 128.263 113.6V123.896C128.263 124.747 128.336 125.377 128.483 125.788C128.659 126.169 128.938 126.36 129.319 126.36C129.495 126.331 129.671 126.316 129.847 126.316V128.956C129.026 129.132 128.292 129.22 127.647 129.22C126.532 129.22 125.696 128.971 125.139 128.472C124.582 127.944 124.23 127.064 124.083 125.832H123.995C123.232 127.035 122.206 127.973 120.915 128.648C119.624 129.293 118.099 129.616 116.339 129.616ZM117.307 126.14C118.598 126.14 119.756 125.92 120.783 125.48C121.81 125.04 122.602 124.38 123.159 123.5C123.746 122.591 124.039 121.505 124.039 120.244V117.032C123.716 117.325 123.115 117.604 122.235 117.868C121.384 118.132 120.343 118.396 119.111 118.66C117.732 118.924 116.632 119.247 115.811 119.628C115.019 119.98 114.432 120.42 114.051 120.948C113.67 121.476 113.479 122.121 113.479 122.884C113.479 123.969 113.787 124.791 114.403 125.348C115.019 125.876 115.987 126.14 117.307 126.14ZM134.621 103.832C134.621 102.131 134.841 100.811 135.281 99.872C135.751 98.904 136.396 98.2293 137.217 97.848C138.068 97.4373 139.139 97.232 140.429 97.232C141.192 97.232 142.101 97.32 143.157 97.496V100.972C142.277 100.884 141.661 100.84 141.309 100.84C140.693 100.84 140.209 100.928 139.857 101.104C139.535 101.251 139.3 101.529 139.153 101.94C139.036 102.321 138.977 102.923 138.977 103.744V129H134.621V103.832ZM131.541 106.56H143.157V110.124H131.541V106.56ZM155.356 129.66C153.039 129.66 151.044 129.161 149.372 128.164C147.7 127.137 146.424 125.715 145.544 123.896C144.694 122.077 144.268 120.024 144.268 117.736C144.268 115.389 144.708 113.321 145.588 111.532C146.498 109.743 147.788 108.349 149.46 107.352C151.132 106.355 153.098 105.856 155.356 105.856C157.586 105.856 159.492 106.325 161.076 107.264C162.69 108.203 163.907 109.537 164.728 111.268C165.579 112.969 166.004 114.979 166.004 117.296C166.004 118.117 165.99 118.66 165.96 118.924H146.424V115.536H161.516C161.516 114.363 161.252 113.307 160.724 112.368C160.226 111.429 159.492 110.696 158.524 110.168C157.586 109.64 156.486 109.376 155.224 109.376C153.992 109.376 152.878 109.655 151.88 110.212C150.883 110.769 150.106 111.561 149.548 112.588C148.991 113.585 148.712 114.744 148.712 116.064C148.712 116.944 148.712 117.824 148.712 118.704C148.712 120.024 148.962 121.256 149.46 122.4C149.988 123.515 150.751 124.424 151.748 125.128C152.746 125.803 153.978 126.14 155.444 126.14C156.647 126.14 157.659 125.92 158.48 125.48C159.331 125.04 159.976 124.527 160.416 123.94C160.856 123.324 161.164 122.708 161.34 122.092H165.74C165.095 124.38 163.907 126.213 162.176 127.592C160.446 128.971 158.172 129.66 155.356 129.66ZM177.433 124.82L195.517 101.808V101.72H178.313V97.54H201.457V101.72L183.373 124.732V124.82H201.897V129H177.433V124.82ZM214.483 129.66C212.195 129.66 210.201 129.161 208.499 128.164C206.827 127.167 205.537 125.773 204.627 123.984C203.718 122.165 203.263 120.097 203.263 117.78C203.263 115.463 203.718 113.395 204.627 111.576C205.537 109.757 206.827 108.349 208.499 107.352C210.201 106.355 212.21 105.856 214.527 105.856C216.815 105.856 218.795 106.355 220.467 107.352C222.139 108.349 223.43 109.757 224.339 111.576C225.249 113.365 225.703 115.419 225.703 117.736C225.703 120.083 225.249 122.165 224.339 123.984C223.43 125.773 222.125 127.167 220.423 128.164C218.751 129.161 216.771 129.66 214.483 129.66ZM214.527 126.096C215.994 126.096 217.226 125.744 218.223 125.04C219.25 124.307 219.998 123.309 220.467 122.048C220.966 120.787 221.215 119.349 221.215 117.736C221.215 115.301 220.643 113.321 219.499 111.796C218.355 110.241 216.698 109.464 214.527 109.464C213.031 109.464 211.77 109.816 210.743 110.52C209.746 111.224 208.998 112.207 208.499 113.468C208.001 114.729 207.751 116.167 207.751 117.78C207.751 120.244 208.323 122.253 209.467 123.808C210.611 125.333 212.298 126.096 214.527 126.096ZM244.333 114.612C244.333 113.057 243.952 111.84 243.189 110.96C242.456 110.051 241.312 109.596 239.757 109.596C238.554 109.596 237.484 109.831 236.545 110.3C235.636 110.769 234.932 111.429 234.433 112.28C233.934 113.131 233.685 114.113 233.685 115.228H232.189V109.376H233.773C234.477 108.379 235.43 107.557 236.633 106.912C237.865 106.237 239.376 105.9 241.165 105.9C243.365 105.9 245.154 106.545 246.533 107.836C247.941 109.127 248.645 110.989 248.645 113.424V129H244.333V114.612ZM229.373 106.56H233.685V129H229.373V106.56ZM263.251 129.66C260.933 129.66 258.939 129.161 257.267 128.164C255.595 127.137 254.319 125.715 253.439 123.896C252.588 122.077 252.163 120.024 252.163 117.736C252.163 115.389 252.603 113.321 253.483 111.532C254.392 109.743 255.683 108.349 257.355 107.352C259.027 106.355 260.992 105.856 263.251 105.856C265.48 105.856 267.387 106.325 268.971 107.264C270.584 108.203 271.801 109.537 272.623 111.268C273.473 112.969 273.899 114.979 273.899 117.296C273.899 118.117 273.884 118.66 273.855 118.924H254.319V115.536H269.411C269.411 114.363 269.147 113.307 268.619 112.368C268.12 111.429 267.387 110.696 266.419 110.168C265.48 109.64 264.38 109.376 263.119 109.376C261.887 109.376 260.772 109.655 259.775 110.212C258.777 110.769 258 111.561 257.443 112.588C256.885 113.585 256.607 114.744 256.607 116.064C256.607 116.944 256.607 117.824 256.607 118.704C256.607 120.024 256.856 121.256 257.355 122.4C257.883 123.515 258.645 124.424 259.643 125.128C260.64 125.803 261.872 126.14 263.339 126.14C264.541 126.14 265.553 125.92 266.375 125.48C267.225 125.04 267.871 124.527 268.311 123.94C268.751 123.324 269.059 122.708 269.235 122.092H273.635C272.989 124.38 271.801 126.213 270.071 127.592C268.34 128.971 266.067 129.66 263.251 129.66Z" fill="url(#paint4_linear_1966_26669)"/>
<path d="M82.128 59.98H84.172V78.208H94.952V80H82.128V59.98ZM102.166 80.392C100.766 80.392 99.5435 80.0747 98.4982 79.44C97.4715 78.8053 96.6782 77.9187 96.1182 76.78C95.5768 75.6413 95.3062 74.344 95.3062 72.888C95.3062 71.4133 95.5768 70.1067 96.1182 68.968C96.6782 67.8293 97.4715 66.9427 98.4982 66.308C99.5435 65.6733 100.766 65.356 102.166 65.356C103.566 65.356 104.779 65.6733 105.806 66.308C106.851 66.9427 107.645 67.8293 108.186 68.968C108.746 70.1067 109.026 71.4133 109.026 72.888C109.026 74.3627 108.746 75.6693 108.186 76.808C107.645 77.928 106.851 78.8053 105.806 79.44C104.779 80.0747 103.566 80.392 102.166 80.392ZM102.166 78.796C103.249 78.796 104.154 78.544 104.882 78.04C105.629 77.5173 106.189 76.808 106.562 75.912C106.935 75.016 107.122 73.9987 107.122 72.86C107.122 71.1427 106.693 69.7333 105.834 68.632C104.994 67.512 103.771 66.952 102.166 66.952C101.102 66.952 100.187 67.2133 99.4222 67.736C98.6755 68.2587 98.1155 68.968 97.7422 69.864C97.3875 70.76 97.2102 71.768 97.2102 72.888C97.2102 74.6053 97.6302 76.024 98.4702 77.144C99.3288 78.2453 100.561 78.796 102.166 78.796ZM117.418 85.124C116.167 85.124 115.094 84.9373 114.198 84.564C113.302 84.1907 112.611 83.668 112.126 82.996C111.641 82.3427 111.361 81.596 111.286 80.756H113.19C113.339 81.596 113.759 82.268 114.45 82.772C115.159 83.276 116.158 83.528 117.446 83.528C118.921 83.528 120.05 83.1827 120.834 82.492C121.637 81.82 122.038 80.7747 122.038 79.356V65.72H123.83V79.104C123.83 81.0827 123.261 82.576 122.122 83.584C121.002 84.6107 119.434 85.124 117.418 85.124ZM117.166 79.328C115.99 79.328 114.926 79.0667 113.974 78.544C113.041 78.0213 112.294 77.2373 111.734 76.192C111.174 75.1467 110.894 73.8587 110.894 72.328C110.894 70.816 111.174 69.5467 111.734 68.52C112.294 67.4747 113.041 66.6907 113.974 66.168C114.926 65.6453 115.99 65.384 117.166 65.384C118.305 65.384 119.266 65.6267 120.05 66.112C120.853 66.5787 121.497 67.1947 121.982 67.96H122.094V76.696H121.982C121.515 77.4987 120.881 78.1427 120.078 78.628C119.294 79.0947 118.323 79.328 117.166 79.328ZM117.418 77.732C118.314 77.732 119.107 77.536 119.798 77.144C120.489 76.7333 121.03 76.1267 121.422 75.324C121.833 74.5027 122.038 73.504 122.038 72.328C122.038 71.152 121.833 70.1627 121.422 69.36C121.03 68.5573 120.489 67.96 119.798 67.568C119.107 67.176 118.314 66.98 117.418 66.98C116.447 66.98 115.617 67.204 114.926 67.652C114.235 68.0813 113.703 68.7067 113.33 69.528C112.975 70.3307 112.798 71.264 112.798 72.328C112.798 73.9893 113.209 75.3053 114.03 76.276C114.851 77.2467 115.981 77.732 117.418 77.732ZM133.256 80.392C131.856 80.392 130.633 80.0747 129.588 79.44C128.561 78.8053 127.768 77.9187 127.208 76.78C126.667 75.6413 126.396 74.344 126.396 72.888C126.396 71.4133 126.667 70.1067 127.208 68.968C127.768 67.8293 128.561 66.9427 129.588 66.308C130.633 65.6733 131.856 65.356 133.256 65.356C134.656 65.356 135.869 65.6733 136.896 66.308C137.941 66.9427 138.735 67.8293 139.276 68.968C139.836 70.1067 140.116 71.4133 140.116 72.888C140.116 74.3627 139.836 75.6693 139.276 76.808C138.735 77.928 137.941 78.8053 136.896 79.44C135.869 80.0747 134.656 80.392 133.256 80.392ZM133.256 78.796C134.339 78.796 135.244 78.544 135.972 78.04C136.719 77.5173 137.279 76.808 137.652 75.912C138.025 75.016 138.212 73.9987 138.212 72.86C138.212 71.1427 137.783 69.7333 136.924 68.632C136.084 67.512 134.861 66.952 133.256 66.952C132.192 66.952 131.277 67.2133 130.512 67.736C129.765 68.2587 129.205 68.968 128.832 69.864C128.477 70.76 128.3 71.768 128.3 72.888C128.3 74.6053 128.72 76.024 129.56 77.144C130.419 78.2453 131.651 78.796 133.256 78.796Z" fill="#211F54"/>
<path opacity="0.15" d="M0 730H1300" stroke="#A0A3BD" stroke-width="2" stroke-linecap="round"/>
<path d="M83.5832 760.997H88.1432C89.2739 760.997 90.1592 761.253 90.7992 761.765C91.4392 762.277 91.7592 762.981 91.7592 763.877C91.7592 764.517 91.5939 765.035 91.2632 765.429C90.9432 765.813 90.5059 766.101 89.9512 766.293V766.325C90.6339 766.443 91.1832 766.747 91.5992 767.237C92.0152 767.728 92.2232 768.368 92.2232 769.157C92.2232 769.861 92.0685 770.459 91.7592 770.949C91.4499 771.44 91.0125 771.813 90.4472 772.069C89.8819 772.315 89.2152 772.438 88.4472 772.438H83.5832V760.997ZM88.4792 771.413C89.0765 771.413 89.5619 771.323 89.9352 771.141C90.3085 770.949 90.5805 770.688 90.7512 770.357C90.9219 770.027 91.0072 769.627 91.0072 769.157C91.0072 768.485 90.8045 767.947 90.3992 767.541C89.9939 767.136 89.4552 766.933 88.7832 766.933H84.7512V771.413H88.4792ZM88.3672 765.909C88.8792 765.909 89.2952 765.829 89.6152 765.669C89.9459 765.509 90.1805 765.291 90.3192 765.013C90.4685 764.725 90.5432 764.384 90.5432 763.99C90.5432 763.381 90.3619 762.901 89.9992 762.549C89.6365 762.197 89.0925 762.021 88.3672 762.021H84.7512V765.909H88.3672ZM94.0374 765.941H94.8054C95.0294 765.365 95.3334 764.912 95.7174 764.581C96.1014 764.251 96.5708 764.085 97.1254 764.085C97.3921 764.085 97.6268 764.101 97.8294 764.133V765.157C97.6588 765.125 97.4934 765.109 97.3334 765.109C96.8534 765.109 96.4161 765.232 96.0214 765.477C95.6268 765.712 95.3174 766.043 95.0934 766.469C94.8801 766.885 94.7734 767.355 94.7734 767.877L94.0374 765.941ZM93.7334 764.277H94.7734V772.438H93.7334V764.277ZM100.833 772.646C100.022 772.646 99.3715 772.438 98.8808 772.021C98.4008 771.605 98.1608 771.056 98.1608 770.373C98.1608 769.808 98.2888 769.349 98.5448 768.997C98.8008 768.645 99.1635 768.373 99.6328 768.181C100.113 767.989 100.742 767.824 101.521 767.685C101.649 767.664 101.798 767.643 101.969 767.621C102.395 767.536 102.726 767.456 102.961 767.381C103.195 767.296 103.382 767.179 103.521 767.029C103.659 766.869 103.729 766.651 103.729 766.373C103.729 765.936 103.574 765.595 103.265 765.349C102.966 765.104 102.502 764.981 101.873 764.981C101.35 764.981 100.929 765.045 100.609 765.173C100.289 765.291 100.054 765.477 99.9048 765.733C99.7661 765.989 99.6808 766.325 99.6488 766.741H98.5448C98.5875 765.952 98.8808 765.312 99.4248 764.821C99.9688 764.32 100.795 764.069 101.905 764.069C102.747 764.069 103.43 764.277 103.953 764.693C104.475 765.099 104.737 765.755 104.737 766.661V770.741C104.737 771.083 104.769 771.328 104.833 771.477C104.907 771.627 105.03 771.701 105.201 771.701C105.254 771.701 105.329 771.696 105.425 771.685V772.438C105.211 772.48 105.03 772.502 104.881 772.502C104.518 772.502 104.241 772.411 104.049 772.229C103.867 772.037 103.761 771.696 103.729 771.205H103.697C103.409 771.675 103.025 772.032 102.545 772.277C102.065 772.523 101.494 772.646 100.833 772.646ZM100.961 771.733C101.515 771.733 102.001 771.643 102.417 771.461C102.833 771.269 103.153 770.997 103.377 770.645C103.611 770.283 103.729 769.861 103.729 769.381V767.861C103.622 768.011 103.387 768.139 103.025 768.245C102.673 768.352 102.214 768.453 101.649 768.549C101.083 768.645 100.63 768.763 100.289 768.901C99.9475 769.04 99.6861 769.221 99.5048 769.445C99.3341 769.669 99.2488 769.947 99.2488 770.277C99.2488 770.757 99.3875 771.12 99.6648 771.365C99.9421 771.611 100.374 771.733 100.961 771.733ZM112.316 766.933C112.316 766.368 112.166 765.904 111.868 765.541C111.569 765.179 111.089 764.997 110.428 764.997C109.926 764.997 109.478 765.104 109.084 765.317C108.7 765.52 108.396 765.803 108.172 766.165C107.958 766.517 107.852 766.891 107.852 767.285H107.388V765.445H107.884C108.15 765.051 108.513 764.725 108.972 764.469C109.441 764.213 110.012 764.085 110.684 764.085C111.462 764.085 112.097 764.309 112.588 764.757C113.089 765.205 113.34 765.856 113.34 766.709V772.438H112.316V766.933ZM106.812 764.277H107.852V772.438H106.812V764.277ZM118.354 772.646C117.693 772.646 117.085 772.475 116.53 772.133C115.986 771.781 115.554 771.285 115.234 770.645C114.925 769.995 114.77 769.232 114.77 768.357C114.77 767.493 114.925 766.741 115.234 766.101C115.554 765.451 115.986 764.955 116.53 764.613C117.085 764.261 117.693 764.085 118.354 764.085C119.026 764.085 119.586 764.229 120.034 764.517C120.493 764.795 120.85 765.173 121.106 765.653H121.506V771.109H121.106C120.84 771.568 120.477 771.941 120.018 772.229C119.57 772.507 119.016 772.646 118.354 772.646ZM118.482 771.733C119.005 771.733 119.469 771.6 119.874 771.333C120.28 771.056 120.589 770.661 120.802 770.149C121.026 769.637 121.138 769.04 121.138 768.357C121.138 767.685 121.026 767.093 120.802 766.581C120.589 766.069 120.28 765.68 119.874 765.413C119.469 765.136 119.005 764.997 118.482 764.997C117.938 764.997 117.464 765.147 117.058 765.445C116.664 765.744 116.365 766.149 116.162 766.661C115.96 767.173 115.858 767.739 115.858 768.357C115.858 768.987 115.96 769.557 116.162 770.069C116.365 770.581 116.664 770.987 117.058 771.285C117.453 771.584 117.928 771.733 118.482 771.733ZM121.138 760.997H122.178V772.438H121.138V760.997ZM132.472 772.646C131.374 772.646 130.435 772.395 129.656 771.893C128.888 771.381 128.302 770.683 127.896 769.797C127.502 768.901 127.304 767.877 127.304 766.725C127.304 765.595 127.523 764.581 127.96 763.685C128.398 762.779 129.016 762.069 129.816 761.557C130.627 761.045 131.56 760.789 132.616 760.789C133.512 760.789 134.286 760.939 134.936 761.237C135.598 761.525 136.126 761.941 136.52 762.485C136.915 763.029 137.182 763.664 137.32 764.389H136.12C135.95 763.568 135.555 762.933 134.936 762.485C134.318 762.037 133.544 761.813 132.616 761.813C131.71 761.813 130.947 762.048 130.328 762.517C129.72 762.987 129.267 763.595 128.968 764.341C128.67 765.088 128.52 765.883 128.52 766.725C128.52 767.6 128.648 768.405 128.904 769.141C129.171 769.877 129.598 770.475 130.184 770.933C130.771 771.392 131.534 771.621 132.472 771.621C133.208 771.621 133.87 771.456 134.456 771.125C135.043 770.784 135.502 770.309 135.832 769.701C136.174 769.083 136.344 768.384 136.344 767.605H132.552V766.565H137.512V772.438H136.712L136.36 770.405H136.328C135.955 771.109 135.454 771.659 134.824 772.053C134.195 772.448 133.411 772.646 132.472 772.646ZM141.888 772.63C141.11 772.63 140.47 772.405 139.968 771.957C139.467 771.509 139.216 770.859 139.216 770.005V764.277H140.256V769.781C140.256 770.347 140.406 770.811 140.704 771.173C141.003 771.536 141.483 771.717 142.144 771.717C142.646 771.717 143.088 771.616 143.472 771.413C143.867 771.2 144.171 770.917 144.384 770.565C144.608 770.203 144.72 769.824 144.72 769.429H144.752V771.285H144.688C144.422 771.669 144.054 771.989 143.584 772.245C143.126 772.502 142.56 772.63 141.888 772.63ZM144.72 764.277H145.744V772.438H144.72V764.277ZM147.671 764.277H148.711V772.438H147.671V764.277ZM147.511 761.301H148.855V762.645H147.511V761.301ZM153.776 772.646C153.115 772.646 152.507 772.475 151.952 772.133C151.408 771.781 150.976 771.285 150.656 770.645C150.347 769.995 150.192 769.232 150.192 768.357C150.192 767.493 150.347 766.741 150.656 766.101C150.976 765.451 151.408 764.955 151.952 764.613C152.507 764.261 153.115 764.085 153.776 764.085C154.448 764.085 155.008 764.229 155.456 764.517C155.915 764.795 156.272 765.173 156.528 765.653H156.928V771.109H156.528C156.261 771.568 155.899 771.941 155.44 772.229C154.992 772.507 154.437 772.646 153.776 772.646ZM153.904 771.733C154.427 771.733 154.891 771.6 155.296 771.333C155.701 771.056 156.011 770.661 156.224 770.149C156.448 769.637 156.56 769.04 156.56 768.357C156.56 767.685 156.448 767.093 156.224 766.581C156.011 766.069 155.701 765.68 155.296 765.413C154.891 765.136 154.427 764.997 153.904 764.997C153.36 764.997 152.885 765.147 152.48 765.445C152.085 765.744 151.787 766.149 151.584 766.661C151.381 767.173 151.28 767.739 151.28 768.357C151.28 768.987 151.381 769.557 151.584 770.069C151.787 770.581 152.085 770.987 152.48 771.285C152.875 771.584 153.349 771.733 153.904 771.733ZM156.56 760.997H157.6V772.438H156.56V760.997ZM162.986 772.662C162.176 772.662 161.477 772.48 160.89 772.117C160.304 771.744 159.856 771.232 159.546 770.581C159.248 769.931 159.098 769.189 159.098 768.357C159.098 767.504 159.258 766.752 159.578 766.101C159.898 765.451 160.352 764.949 160.938 764.597C161.525 764.245 162.208 764.069 162.986 764.069C163.754 764.069 164.416 764.24 164.97 764.581C165.525 764.912 165.946 765.371 166.234 765.957C166.522 766.544 166.666 767.221 166.666 767.989C166.666 768.288 166.661 768.48 166.65 768.565H159.61V767.653H165.562C165.562 767.163 165.456 766.715 165.242 766.309C165.04 765.893 164.741 765.568 164.346 765.333C163.952 765.088 163.482 764.965 162.938 764.965C162.405 764.965 161.925 765.093 161.498 765.349C161.082 765.605 160.757 765.952 160.522 766.389C160.298 766.816 160.186 767.296 160.186 767.829C160.186 768.064 160.186 768.299 160.186 768.533C160.186 769.109 160.288 769.643 160.49 770.133C160.704 770.624 161.018 771.019 161.434 771.317C161.861 771.616 162.384 771.765 163.002 771.765C163.514 771.765 163.946 771.669 164.298 771.477C164.661 771.275 164.933 771.04 165.114 770.773C165.296 770.496 165.424 770.219 165.498 769.941H166.554C166.341 770.752 165.936 771.408 165.338 771.91C164.741 772.411 163.957 772.662 162.986 772.662ZM168.124 760.997H169.164V772.438H168.124V760.997ZM171.093 764.277H172.133V772.438H171.093V764.277ZM170.933 761.301H172.277V762.645H170.933V761.301ZM179.55 766.933C179.55 766.368 179.401 765.904 179.102 765.541C178.803 765.179 178.323 764.997 177.662 764.997C177.161 764.997 176.713 765.104 176.318 765.317C175.934 765.52 175.63 765.803 175.406 766.165C175.193 766.517 175.086 766.891 175.086 767.285H174.622V765.445H175.118C175.385 765.051 175.747 764.725 176.206 764.469C176.675 764.213 177.246 764.085 177.918 764.085C178.697 764.085 179.331 764.309 179.822 764.757C180.323 765.205 180.574 765.856 180.574 766.709V772.438H179.55V766.933ZM174.046 764.277H175.086V772.438H174.046V764.277ZM185.893 772.662C185.082 772.662 184.383 772.48 183.797 772.117C183.21 771.744 182.762 771.232 182.453 770.581C182.154 769.931 182.005 769.189 182.005 768.357C182.005 767.504 182.165 766.752 182.485 766.101C182.805 765.451 183.258 764.949 183.845 764.597C184.431 764.245 185.114 764.069 185.893 764.069C186.661 764.069 187.322 764.24 187.877 764.581C188.431 764.912 188.853 765.371 189.141 765.957C189.429 766.544 189.573 767.221 189.573 767.989C189.573 768.288 189.567 768.48 189.557 768.565H182.517V767.653H188.469C188.469 767.163 188.362 766.715 188.149 766.309C187.946 765.893 187.647 765.568 187.253 765.333C186.858 765.088 186.389 764.965 185.845 764.965C185.311 764.965 184.831 765.093 184.405 765.349C183.989 765.605 183.663 765.952 183.429 766.389C183.205 766.816 183.093 767.296 183.093 767.829C183.093 768.064 183.093 768.299 183.093 768.533C183.093 769.109 183.194 769.643 183.397 770.133C183.61 770.624 183.925 771.019 184.341 771.317C184.767 771.616 185.29 771.765 185.909 771.765C186.421 771.765 186.853 771.669 187.205 771.477C187.567 771.275 187.839 771.04 188.021 770.773C188.202 770.496 188.33 770.219 188.405 769.941H189.461C189.247 770.752 188.842 771.408 188.245 771.91C187.647 772.411 186.863 772.662 185.893 772.662ZM194.038 772.646C193.292 772.646 192.652 772.523 192.118 772.277C191.585 772.032 191.18 771.691 190.902 771.253C190.625 770.816 190.476 770.32 190.454 769.765H191.542C191.564 770.149 191.665 770.491 191.846 770.789C192.028 771.088 192.3 771.323 192.662 771.493C193.036 771.653 193.5 771.733 194.054 771.733C194.78 771.733 195.308 771.595 195.638 771.317C195.969 771.029 196.134 770.667 196.134 770.229C196.134 769.888 196.044 769.621 195.862 769.429C195.692 769.237 195.478 769.093 195.222 768.997C194.966 768.901 194.614 768.8 194.166 768.693C194.038 768.661 193.91 768.635 193.782 768.613C193.718 768.592 193.644 768.571 193.558 768.549C192.961 768.4 192.47 768.251 192.086 768.101C191.702 767.941 191.382 767.717 191.126 767.429C190.881 767.131 190.758 766.747 190.758 766.277C190.758 765.829 190.87 765.44 191.094 765.109C191.318 764.779 191.649 764.528 192.086 764.358C192.524 764.176 193.046 764.085 193.654 764.085C194.337 764.085 194.913 764.197 195.382 764.421C195.852 764.635 196.209 764.928 196.454 765.301C196.71 765.675 196.865 766.096 196.918 766.565H195.83C195.734 766.107 195.526 765.733 195.206 765.445C194.897 765.147 194.38 764.997 193.654 764.997C193.078 764.997 192.63 765.104 192.31 765.317C192.001 765.531 191.846 765.829 191.846 766.213C191.846 766.501 191.932 766.736 192.102 766.917C192.273 767.088 192.486 767.221 192.742 767.317C193.009 767.403 193.377 767.499 193.846 767.605C193.932 767.616 194.044 767.643 194.182 767.685C194.833 767.845 195.366 768.011 195.782 768.181C196.198 768.341 196.545 768.581 196.822 768.901C197.1 769.221 197.238 769.648 197.238 770.181C197.238 770.683 197.11 771.12 196.854 771.493C196.598 771.856 196.23 772.139 195.75 772.341C195.27 772.544 194.7 772.646 194.038 772.646Z" fill="#211F54"/>
<path d="M1201.93 774.211C1201.93 773.539 1202.06 772.92 1202.32 772.355C1202.58 771.779 1202.96 771.262 1203.44 770.803C1203.93 770.334 1204.51 769.907 1205.2 769.523C1205.35 769.438 1205.49 769.352 1205.61 769.267C1206.33 768.883 1206.86 768.568 1207.2 768.323C1207.55 768.078 1207.82 767.79 1208.01 767.459C1208.22 767.118 1208.32 766.702 1208.32 766.211C1208.32 765.806 1208.24 765.438 1208.09 765.107C1207.95 764.776 1207.72 764.504 1207.39 764.291C1207.06 764.078 1206.63 763.971 1206.09 763.971C1205.47 763.971 1204.97 764.099 1204.57 764.355C1204.19 764.611 1203.91 764.958 1203.73 765.395C1203.54 765.832 1203.45 766.328 1203.45 766.883H1202.25C1202.25 766.147 1202.4 765.486 1202.69 764.899C1202.97 764.302 1203.41 763.827 1203.98 763.475C1204.56 763.123 1205.27 762.947 1206.11 762.947C1206.75 762.947 1207.33 763.075 1207.84 763.331C1208.36 763.587 1208.77 763.96 1209.07 764.451C1209.38 764.942 1209.53 765.523 1209.53 766.195C1209.53 766.824 1209.39 767.379 1209.1 767.859C1208.81 768.328 1208.46 768.723 1208.03 769.043C1207.61 769.363 1207.07 769.715 1206.4 770.099L1206.27 770.163L1206.08 770.275C1205.52 770.584 1205.07 770.862 1204.72 771.107C1204.37 771.352 1204.06 771.646 1203.79 771.987C1203.53 772.328 1203.38 772.718 1203.33 773.155V773.187H1209.42V774.211H1201.93ZM1210.71 774.211C1210.71 773.539 1210.84 772.92 1211.1 772.355C1211.37 771.779 1211.74 771.262 1212.22 770.803C1212.71 770.334 1213.3 769.907 1213.98 769.523C1214.13 769.438 1214.27 769.352 1214.39 769.267C1215.11 768.883 1215.64 768.568 1215.98 768.323C1216.33 768.078 1216.6 767.79 1216.79 767.459C1217 767.118 1217.1 766.702 1217.1 766.211C1217.1 765.806 1217.02 765.438 1216.87 765.107C1216.74 764.776 1216.5 764.504 1216.17 764.291C1215.84 764.078 1215.41 763.971 1214.87 763.971C1214.26 763.971 1213.75 764.099 1213.35 764.355C1212.97 764.611 1212.69 764.958 1212.51 765.395C1212.33 765.832 1212.23 766.328 1212.23 766.883H1211.03C1211.03 766.147 1211.18 765.486 1211.47 764.899C1211.75 764.302 1212.19 763.827 1212.76 763.475C1213.34 763.123 1214.05 762.947 1214.89 762.947C1215.53 762.947 1216.11 763.075 1216.62 763.331C1217.14 763.587 1217.55 763.96 1217.85 764.451C1218.16 764.942 1218.31 765.523 1218.31 766.195C1218.31 766.824 1218.17 767.379 1217.88 767.859C1217.59 768.328 1217.24 768.723 1216.81 769.043C1216.39 769.363 1215.85 769.715 1215.18 770.099L1215.05 770.163L1214.86 770.275C1214.3 770.584 1213.85 770.862 1213.5 771.107C1213.15 771.352 1212.84 771.646 1212.57 771.987C1212.31 772.328 1212.16 772.718 1212.11 773.155V773.187H1218.2V774.211H1210.71Z" fill="#211F54"/>
<path fill-rule="evenodd" clip-rule="evenodd" d="M660.784 777.578C661.224 777.123 661.472 776.516 661.476 775.884V768.076C661.47 767.238 661.645 766.409 661.989 765.645C662.319 764.907 662.78 764.235 663.351 763.662C663.922 763.093 664.597 762.639 665.338 762.323C666.108 761.997 666.936 761.831 667.773 761.833H667.819C668.146 761.835 668.472 761.775 668.777 761.656C669.074 761.533 669.346 761.359 669.583 761.142C669.819 760.923 670.008 760.659 670.14 760.366C670.275 760.065 670.344 759.739 670.34 759.409C670.352 759.092 670.299 758.776 670.183 758.481C670.068 758.185 669.893 757.917 669.67 757.691C669.239 757.23 668.622 757 667.819 757H667.773C666.289 756.993 664.821 757.296 663.463 757.892C662.138 758.451 660.933 759.258 659.913 760.27C658.894 761.293 658.077 762.498 657.504 763.823C656.921 765.19 656.623 766.662 656.631 768.148V775.88C656.628 776.209 656.696 776.536 656.832 776.837C656.964 777.117 657.149 777.368 657.378 777.578C657.608 777.79 657.872 777.963 658.159 778.09C658.473 778.21 658.806 778.27 659.142 778.269C659.456 778.272 659.767 778.211 660.057 778.09C660.327 777.962 660.572 777.789 660.784 777.578ZM607.85 763.54C607.279 764.84 606.99 766.245 607 767.664C606.991 769.082 607.278 770.487 607.843 771.788C608.942 774.335 610.972 776.368 613.52 777.473C614.827 778.025 616.234 778.305 617.653 778.297C618.715 778.307 619.769 778.123 620.764 777.754C621.756 777.383 622.689 776.869 623.533 776.229C623.542 776.524 623.617 776.815 623.751 777.079C623.897 777.35 624.093 777.592 624.33 777.789C624.741 778.135 625.266 778.318 625.804 778.302C626.134 778.305 626.461 778.236 626.762 778.101C627.063 777.976 627.336 777.795 627.568 777.567C628.018 777.097 628.274 776.474 628.282 775.823V767.664C628.292 766.245 628.003 764.84 627.432 763.54C626.9 762.273 626.127 761.122 625.155 760.15C624.193 759.176 623.047 758.402 621.784 757.872C620.482 757.304 619.074 757.017 617.653 757.029C616.232 757.02 614.824 757.307 613.52 757.872C612.26 758.409 611.116 759.182 610.149 760.15C609.175 761.125 608.395 762.275 607.85 763.54ZM612.282 769.916C611.988 769.202 611.84 768.436 611.845 767.664C611.84 766.891 611.992 766.125 612.293 765.412C612.879 764.017 613.995 762.91 615.398 762.337C616.108 762.024 616.877 761.864 617.653 761.868C618.43 761.862 619.199 762.021 619.908 762.337C620.601 762.618 621.23 763.035 621.76 763.562C622.835 764.656 623.434 766.131 623.426 767.664C623.432 768.436 623.283 769.202 622.989 769.916C622.414 771.313 621.309 772.427 619.915 773.015C618.47 773.608 616.849 773.608 615.404 773.015C614.717 772.711 614.09 772.288 613.55 771.766C613.021 771.23 612.591 770.603 612.282 769.916ZM672.576 763.54C672.007 764.84 671.718 766.245 671.729 767.664C671.722 769.086 672.014 770.494 672.585 771.797C673.685 774.343 675.715 776.376 678.262 777.482C679.569 778.034 680.974 778.314 682.393 778.306C683.453 778.311 684.505 778.122 685.498 777.75C686.489 777.378 687.422 776.864 688.266 776.224C688.276 776.52 688.351 776.81 688.484 777.074C688.631 777.346 688.827 777.587 689.063 777.785C689.474 778.131 689.999 778.314 690.537 778.297C690.868 778.301 691.196 778.232 691.498 778.097C691.791 777.972 692.059 777.792 692.286 777.567C692.736 777.097 692.992 776.474 693 775.823V767.664C693.011 766.245 692.722 764.84 692.153 763.54C691.622 762.273 690.852 761.121 689.884 760.146C688.921 759.173 687.774 758.401 686.511 757.872C685.208 757.304 683.801 757.017 682.38 757.029C680.959 757.02 679.552 757.307 678.249 757.872C676.989 758.409 675.845 759.182 674.878 760.15C673.903 761.125 673.122 762.275 672.576 763.54ZM677.011 769.916C676.717 769.202 676.568 768.436 676.574 767.664C676.565 766.892 676.714 766.126 677.011 765.412C677.597 764.017 678.713 762.91 680.116 762.337C680.826 762.024 681.595 761.865 682.371 761.868C683.148 761.861 683.917 762.021 684.626 762.337C685.683 762.768 686.584 763.506 687.214 764.457C687.843 765.407 688.171 766.525 688.155 767.664C688.158 768.437 688.006 769.203 687.707 769.916C687.417 770.604 687.001 771.231 686.48 771.766C685.945 772.294 685.317 772.718 684.626 773.015C683.181 773.608 681.56 773.608 680.116 773.015C679.429 772.71 678.802 772.287 678.262 771.766C677.74 771.227 677.317 770.601 677.011 769.916ZM637.275 768.021C637.27 768.753 637.406 769.479 637.677 770.16C637.949 770.797 638.335 771.379 638.817 771.877C639.322 772.385 639.924 772.787 640.587 773.059C641.251 773.331 641.962 773.467 642.679 773.46C643.394 773.472 644.103 773.328 644.755 773.037C645.348 772.755 645.874 772.353 646.301 771.856C646.741 771.338 647.074 770.74 647.284 770.094C647.525 769.407 647.647 768.682 647.642 767.954V759.437C647.64 759.114 647.709 758.794 647.843 758.5C647.968 758.214 648.15 757.957 648.378 757.743C648.611 757.523 648.883 757.348 649.181 757.229C649.476 757.096 649.796 757.028 650.12 757.028C650.436 757.026 650.749 757.095 651.035 757.229C651.323 757.342 651.583 757.518 651.795 757.743C652.02 757.954 652.196 758.212 652.308 758.5C652.427 758.798 652.488 759.116 652.487 759.437V767.886C652.495 769.265 652.245 770.634 651.749 771.921C651.297 773.146 650.615 774.273 649.74 775.243C648.866 776.188 647.81 776.946 646.635 777.473C645.393 778.03 644.045 778.311 642.683 778.297C641.301 778.307 639.931 778.032 638.659 777.49C636.212 776.415 634.271 774.445 633.234 771.984C632.695 770.723 632.421 769.364 632.43 767.993V759.437C632.429 759.116 632.489 758.798 632.607 758.5C632.731 758.218 632.906 757.962 633.122 757.743C633.339 757.524 633.596 757.349 633.88 757.229C634.182 757.095 634.51 757.026 634.841 757.028C635.164 757.028 635.484 757.096 635.78 757.229C636.072 757.346 636.338 757.521 636.561 757.743C636.786 757.955 636.961 758.213 637.074 758.5C637.207 758.794 637.276 759.114 637.275 759.437V768.021Z" fill="url(#paint5_linear_1966_26669)"/>
</g>
<defs>
<linearGradient id="paint0_linear_1966_26669" x1="352.5" y1="697" x2="352.5" y2="897" gradientUnits="userSpaceOnUse">
<stop stop-color="white"/>
<stop offset="1" stop-color="white" stop-opacity="0"/>
</linearGradient>
<linearGradient id="paint1_linear_1966_26669" x1="1492.5" y1="152" x2="1492.5" y2="352" gradientUnits="userSpaceOnUse">
<stop stop-color="white"/>
<stop offset="1" stop-color="white" stop-opacity="0"/>
</linearGradient>
<linearGradient id="paint2_linear_1966_26669" x1="2016" y1="723" x2="2016" y2="775" gradientUnits="userSpaceOnUse">
<stop stop-color="white"/>
<stop offset="1" stop-color="white" stop-opacity="0"/>
</linearGradient>
<linearGradient id="paint3_linear_1966_26669" x1="602" y1="113" x2="602" y2="185" gradientUnits="userSpaceOnUse">
<stop stop-color="white"/>
<stop offset="1" stop-color="white" stop-opacity="0"/>
</linearGradient>
<linearGradient id="paint4_linear_1966_26669" x1="80" y1="87" x2="277.176" y2="134.076" gradientUnits="userSpaceOnUse">
<stop stop-color="#F2906F"/>
<stop offset="0.299721" stop-color="#E75C76"/>
<stop offset="0.648425" stop-color="#AA69D9"/>
<stop offset="1" stop-color="#2F70E0"/>
</linearGradient>
<linearGradient id="paint5_linear_1966_26669" x1="607" y1="757" x2="692.836" y2="778.946" gradientUnits="userSpaceOnUse">
<stop stop-color="#F2906F"/>
<stop offset="0.299721" stop-color="#E75C76"/>
<stop offset="0.648425" stop-color="#AA69D9"/>
<stop offset="1" stop-color="#2F70E0"/>
</linearGradient>
<clipPath id="clip0_1966_26669">
<rect width="1300" height="800" rx="40" fill="white"/>
</clipPath>
</defs>
</svg>
